ISO-10303-21;
HEADER;
FILE_DESCRIPTION (( 'STEP AP203' ),
    '1' );
FILE_NAME ('79-8420 - 76mm x 2000mm.STEP',
    '2026-09-15T22:03:50',
    ( '' ),
    ( '' ),
    'SwSTEP 2.0',
    'SolidWorks 2026',
    '' );
FILE_SCHEMA (( 'CONFIG_CONTROL_DESIGN' ));
ENDSEC;

DATA;
#1 = ADVANCED_FACE ( 'NONE', ( #268 ), #226, .T. ) ;
#2 = DIRECTION ( 'NONE',  ( -1.836970198721029688E-16, 0.000000000000000000, -1.000000000000000000 ) ) ;
#3 = DIRECTION ( 'NONE',  ( -1.000000000000000000, -0.000000000000000000, 1.836970198721058777E-16 ) ) ;
#4 = DIRECTION ( 'NONE',  ( 1.000000000000000000, -0.000000000000000000, -1.836970198721029688E-16 ) ) ;
#5 = EDGE_CURVE ( 'NONE', #72, #198, #617, .T. ) ;
#6 = VERTEX_POINT ( 'NONE', #628 ) ;
#7 = ORIENTED_EDGE ( 'NONE', *, *, #313, .T. ) ;
#8 = DIRECTION ( 'NONE',  ( 1.836970198721029688E-16, 0.000000000000000000, 1.000000000000000000 ) ) ;
#9 = ORIENTED_EDGE ( 'NONE', *, *, #236, .F. ) ;
#10 = CARTESIAN_POINT ( 'NONE',  ( 974.0000000000000000, 2.250000000000000000, -39.75000000000017053 ) ) ;
#11 = CIRCLE ( 'NONE', #699, 6.499999999999999112 ) ;
#12 = DIRECTION ( 'NONE',  ( -0.000000000000000000, -1.000000000000000000, -0.000000000000000000 ) ) ;
#13 = DIRECTION ( 'NONE',  ( -0.000000000000000000, -1.000000000000000000, -0.000000000000000000 ) ) ;
#14 = ORIENTED_EDGE ( 'NONE', *, *, #993, .T. ) ;
#15 = EDGE_CURVE ( 'NONE', #753, #511, #899, .T. ) ;
#16 = CIRCLE ( 'NONE', #362, 38.25000000000000000 ) ;
#17 = CIRCLE ( 'NONE', #542, 38.00000000000000000 ) ;
#18 = VERTEX_POINT ( 'NONE', #1013 ) ;
#19 = VECTOR ( 'NONE', #110, 1000.000000000000000 ) ;
#20 = CARTESIAN_POINT ( 'NONE',  ( 974.0000000000000000, 0.000000000000000000, -1.789208973554282786E-13 ) ) ;
#21 = AXIS2_PLACEMENT_3D ( 'NONE', #911, #177, #196 ) ;
#22 = DIRECTION ( 'NONE',  ( -0.000000000000000000, -1.000000000000000000, -0.000000000000000000 ) ) ;
#23 = EDGE_CURVE ( 'NONE', #626, #1112, #170, .T. ) ;
#24 = ORIENTED_EDGE ( 'NONE', *, *, #586, .T. ) ;
#25 = CARTESIAN_POINT ( 'NONE',  ( 1000.000000000000000, -39.68626966596886518, 2.249999999999824141 ) ) ;
#26 = ORIENTED_EDGE ( 'NONE', *, *, #967, .F. ) ;
#27 = ADVANCED_FACE ( 'NONE', ( #458 ), #579, .T. ) ;
#28 = CARTESIAN_POINT ( 'NONE',  ( 974.0000000000000000, 38.18376618407356915, -2.250000000000170530 ) ) ;
#29 = DIRECTION ( 'NONE',  ( 1.000000000000000000, 0.000000000000000000, -1.836970198721029688E-16 ) ) ;
#30 = LINE ( 'NONE', #400, #19 ) ;
#31 = EDGE_LOOP ( 'NONE', ( #673, #180, #688, #689 ) ) ;
#32 = DIRECTION ( 'NONE',  ( 1.000000000000000000, 0.000000000000000000, -1.836970198721029688E-16 ) ) ;
#33 = AXIS2_PLACEMENT_3D ( 'NONE', #557, #647, #175 ) ;
#34 = PLANE ( 'NONE',  #1054 ) ;
#35 = EDGE_LOOP ( 'NONE', ( #249, #501 ) ) ;
#36 = ORIENTED_EDGE ( 'NONE', *, *, #1030, .F. ) ;
#37 = AXIS2_PLACEMENT_3D ( 'NONE', #10, #483, #759 ) ;
#38 = VECTOR ( 'NONE', #129, 1000.000000000000000 ) ;
#39 = DIRECTION ( 'NONE',  ( 1.836970198721029688E-16, 0.000000000000000000, 1.000000000000000000 ) ) ;
#40 = AXIS2_PLACEMENT_3D ( 'NONE', #1039, #574, #679 ) ;
#41 = FACE_BOUND ( 'NONE', #798, .T. ) ;
#42 = ORIENTED_EDGE ( 'NONE', *, *, #912, .F. ) ;
#43 = CARTESIAN_POINT ( 'NONE',  ( 1000.000000000000000, -2.250000000000000000, -38.18376618407373968 ) ) ;
#44 = EDGE_CURVE ( 'NONE', #1034, #715, #403, .T. ) ;
#45 = FACE_OUTER_BOUND ( 'NONE', #867, .T. ) ;
#46 = ADVANCED_FACE ( 'NONE', ( #345 ), #1176, .F. ) ;
#47 = ORIENTED_EDGE ( 'NONE', *, *, #823, .T. ) ;
#48 = CARTESIAN_POINT ( 'NONE',  ( 931.0203803290406768, 4.760814431685344662E-15, 38.30153689607003997 ) ) ;
#49 = DIRECTION ( 'NONE',  ( -1.000000000000000000, 0.000000000000000000, 1.836970198721029688E-16 ) ) ;
#50 = VERTEX_POINT ( 'NONE', #1188 ) ;
#51 = DIRECTION ( 'NONE',  ( -1.836970198721029688E-16, 0.000000000000000000, -1.000000000000000000 ) ) ;
#52 = VECTOR ( 'NONE', #276, 1000.000000000000114 ) ;
#53 = VERTEX_POINT ( 'NONE', #155 ) ;
#54 = ADVANCED_FACE ( 'NONE', ( #732 ), #534, .T. ) ;
#55 = CARTESIAN_POINT ( 'NONE',  ( 974.0000000000000000, 2.250000000000000000, -39.75000000000017053 ) ) ;
#56 = CIRCLE ( 'NONE', #1042, 38.00000000000000000 ) ;
#57 = VECTOR ( 'NONE', #667, 1000.000000000000000 ) ;
#58 = CIRCLE ( 'NONE', #624, 36.50000000000000000 ) ;
#59 = EDGE_CURVE ( 'NONE', #715, #67, #1101, .T. ) ;
#60 = ORIENTED_EDGE ( 'NONE', *, *, #172, .F. ) ;
#61 = LINE ( 'NONE', #343, #347 ) ;
#62 = DIRECTION ( 'NONE',  ( 0.000000000000000000, 0.000000000000000000, -1.000000000000000000 ) ) ;
#63 = EDGE_CURVE ( 'NONE', #960, #1141, #185, .T. ) ;
#64 = ORIENTED_EDGE ( 'NONE', *, *, #917, .F. ) ;
#65 = EDGE_LOOP ( 'NONE', ( #803, #478, #865, #1164 ) ) ;
#66 = PERSON_AND_ORGANIZATION ( #909, #248 ) ;
#67 = VERTEX_POINT ( 'NONE', #927 ) ;
#68 = VECTOR ( 'NONE', #209, 1000.000000000000000 ) ;
#69 = DIRECTION ( 'NONE',  ( 0.9396926207859134239, 0.000000000000000000, -0.3420201433256548906 ) ) ;
#70 = DIRECTION ( 'NONE',  ( -1.000000000000000000, 0.000000000000000000, 1.836970198721029688E-16 ) ) ;
#71 = AXIS2_PLACEMENT_3D ( 'NONE', #305, #766, #1027 ) ;
#72 = VERTEX_POINT ( 'NONE', #78 ) ;
#73 = CARTESIAN_POINT ( 'NONE',  ( 974.0000000000000000, 0.000000000000000000, -1.789208973554282786E-13 ) ) ;
#74 = PLANE ( 'NONE',  #762 ) ;
#75 = EDGE_LOOP ( 'NONE', ( #388, #742, #841, #965 ) ) ;
#76 = ADVANCED_FACE ( 'NONE', ( #1096 ), #257, .F. ) ;
#77 = FACE_OUTER_BOUND ( 'NONE', #65, .T. ) ;
#78 = CARTESIAN_POINT ( 'NONE',  ( 974.0000000000000000, -2.250000000000000000, -38.18376618407373968 ) ) ;
#79 = CARTESIAN_POINT ( 'NONE',  ( 935.8816349035432722, 4.255647627037063753E-15, -34.75000000000035527 ) ) ;
#80 = DIRECTION ( 'NONE',  ( -1.000000000000000000, -0.000000000000000000, 1.836970198721087619E-16 ) ) ;
#81 = VECTOR ( 'NONE', #629, 1000.000000000000000 ) ;
#82 = AXIS2_PLACEMENT_3D ( 'NONE', #691, #589, #510 ) ;
#83 = DIRECTION ( 'NONE',  ( 1.000000000000000000, -0.000000000000000000, -1.836970198721029688E-16 ) ) ;
#84 = DIRECTION ( 'NONE',  ( 0.000000000000000000, 0.000000000000000000, 1.000000000000000000 ) ) ;
#85 = ORIENTED_EDGE ( 'NONE', *, *, #444, .F. ) ;
#86 = VECTOR ( 'NONE', #186, 1000.000000000000000 ) ;
#87 = DIRECTION ( 'NONE',  ( 1.836970198721029688E-16, 0.000000000000000000, 1.000000000000000000 ) ) ;
#88 = EDGE_CURVE ( 'NONE', #1009, #445, #1087, .T. ) ;
#89 = EDGE_CURVE ( 'NONE', #713, #133, #830, .T. ) ;
#90 = FACE_OUTER_BOUND ( 'NONE', #293, .T. ) ;
#91 = EDGE_CURVE ( 'NONE', #1121, #53, #719, .T. ) ;
#92 = FACE_OUTER_BOUND ( 'NONE', #199, .T. ) ;
#93 = CARTESIAN_POINT ( 'NONE',  ( 929.3102796124123870, 0.000000000000000000, -36.50000000000034817 ) ) ;
#94 = ORIENTED_EDGE ( 'NONE', *, *, #1004, .T. ) ;
#95 = DIRECTION ( 'NONE',  ( -1.836970198721029688E-16, 0.000000000000000000, -1.000000000000000000 ) ) ;
#96 = ORIENTED_EDGE ( 'NONE', *, *, #528, .F. ) ;
#97 = CARTESIAN_POINT ( 'NONE',  ( -1000.000000000000000, 0.000000000000000000, -36.50000000000000000 ) ) ;
#98 = PRODUCT_RELATED_PRODUCT_CATEGORY ( 'detail', '', ( #660 ) ) ;
#99 = DIRECTION ( 'NONE',  ( 0.000000000000000000, -1.224646799147354193E-16, 1.000000000000000000 ) ) ;
#100 = CYLINDRICAL_SURFACE ( 'NONE', #680, 39.75000000000000000 ) ;
#101 = VERTEX_POINT ( 'NONE', #581 ) ;
#102 = DIRECTION ( 'NONE',  ( 1.000000000000000000, 0.000000000000000000, -1.836970198721029688E-16 ) ) ;
#103 = ORIENTED_EDGE ( 'NONE', *, *, #260, .T. ) ;
#104 = CARTESIAN_POINT ( 'NONE',  ( -1000.000000000000000, 0.000000000000000000, 0.000000000000000000 ) ) ;
#105 = AXIS2_PLACEMENT_3D ( 'NONE', #724, #269, #433 ) ;
#106 = EDGE_CURVE ( 'NONE', #644, #367, #1022, .T. ) ;
#107 = CARTESIAN_POINT ( 'NONE',  ( 974.0000000000000000, 0.000000000000000000, -1.789208973554282786E-13 ) ) ;
#108 = VERTEX_POINT ( 'NONE', #113 ) ;
#109 = VECTOR ( 'NONE', #884, 1000.000000000000000 ) ;
#110 = DIRECTION ( 'NONE',  ( 1.836970198721029688E-16, 0.000000000000000000, 1.000000000000000000 ) ) ;
#111 = CONICAL_SURFACE ( 'NONE', #348, 38.00000000000000000, 0.3490658503988509631 ) ;
#112 = EDGE_LOOP ( 'NONE', ( #465, #1171, #228, #887 ) ) ;
#113 = CARTESIAN_POINT ( 'NONE',  ( 929.3102796124123870, 4.469960816887838430E-15, 36.49999999999964473 ) ) ;
#114 = DIRECTION ( 'NONE',  ( 0.000000000000000000, 0.000000000000000000, 1.000000000000000000 ) ) ;
#115 = DIRECTION ( 'NONE',  ( 1.000000000000000000, 0.000000000000000000, -1.836970198721029688E-16 ) ) ;
#116 = ORIENTED_EDGE ( 'NONE', *, *, #272, .T. ) ;
#117 = DIRECTION ( 'NONE',  ( 0.000000000000000000, 0.000000000000000000, -1.000000000000000000 ) ) ;
#118 = ORIENTED_EDGE ( 'NONE', *, *, #165, .T. ) ;
#119 = EDGE_CURVE ( 'NONE', #715, #1034, #734, .T. ) ;
#120 = DIRECTION ( 'NONE',  ( 1.000000000000000000, 0.000000000000000000, -1.836970198721029688E-16 ) ) ;
#121 = DIRECTION ( 'NONE',  ( 0.000000000000000000, 0.000000000000000000, -1.000000000000000000 ) ) ;
#122 = EDGE_LOOP ( 'NONE', ( #606, #848, #608, #872, #103, #369, #359, #1040, #789, #879, #546, #826 ) ) ;
#123 = LINE ( 'NONE', #504, #1020 ) ;
#124 = CIRCLE ( 'NONE', #436, 39.75000000000000000 ) ;
#125 = DIRECTION ( 'NONE',  ( 0.000000000000000000, 0.000000000000000000, -1.000000000000000000 ) ) ;
#126 = VERTEX_POINT ( 'NONE', #139 ) ;
#127 = ADVANCED_FACE ( 'NONE', ( #815 ), #636, .T. ) ;
#128 = VECTOR ( 'NONE', #8, 1000.000000000000000 ) ;
#129 = DIRECTION ( 'NONE',  ( 1.000000000000000000, 0.000000000000000000, -1.836970198721029688E-16 ) ) ;
#130 = CIRCLE ( 'NONE', #488, 4.999999999999997335 ) ;
#131 = ADVANCED_FACE ( 'NONE', ( #1080 ), #631, .F. ) ;
#132 = CARTESIAN_POINT ( 'NONE',  ( 934.1715341869149825, 0.000000000000000000, -2.634530368155381231E-13 ) ) ;
#133 = VERTEX_POINT ( 'NONE', #1136 ) ;
#134 = CARTESIAN_POINT ( 'NONE',  ( 974.0000000000000000, 39.68626966596885808, -2.250000000000170530 ) ) ;
#135 = CARTESIAN_POINT ( 'NONE',  ( 974.0000000000000000, 2.250000000000000000, -39.75000000000017053 ) ) ;
#136 = ORIENTED_EDGE ( 'NONE', *, *, #222, .T. ) ;
#137 = CARTESIAN_POINT ( 'NONE',  ( -1000.000000000000000, 0.000000000000000000, 0.000000000000000000 ) ) ;
#138 = APPLICATION_PROTOCOL_DEFINITION ( 'international standard', 'config_control_design', 1994, #176 ) ;
#139 = CARTESIAN_POINT ( 'NONE',  ( 1000.000000000000000, -38.18376618407356915, -2.250000000000175415 ) ) ;
#140 = ADVANCED_FACE ( 'NONE', ( #274 ), #464, .F. ) ;
#141 = VECTOR ( 'NONE', #901, 1000.000000000000000 ) ;
#142 = VERTEX_POINT ( 'NONE', #840 ) ;
#143 = EDGE_CURVE ( 'NONE', #1007, #575, #322, .T. ) ;
#144 = DIRECTION ( 'NONE',  ( 0.9396926207859134239, 0.000000000000000000, -0.3420201433256548906 ) ) ;
#145 = DIRECTION ( 'NONE',  ( -1.836970198721029688E-16, 0.000000000000000000, -1.000000000000000000 ) ) ;
#146 = COORDINATED_UNIVERSAL_TIME_OFFSET ( 1, 0, .AHEAD. ) ;
#147 = VECTOR ( 'NONE', #438, 1000.000000000000000 ) ;
#148 = CIRCLE ( 'NONE', #1023, 38.25000000000000000 ) ;
#149 =( GEOMETRIC_REPRESENTATION_CONTEXT ( 3 ) GLOBAL_UNCERTAINTY_ASSIGNED_CONTEXT ( ( #794 ) ) GLOBAL_UNIT_ASSIGNED_CONTEXT ( ( #1036, #505, #1063 ) ) REPRESENTATION_CONTEXT ( 'NONE', 'WORKASPACE' ) );
#150 = ORIENTED_EDGE ( 'NONE', *, *, #406, .T. ) ;
#151 = DIRECTION ( 'NONE',  ( -1.000000000000000000, 0.000000000000000000, 1.836970198721029688E-16 ) ) ;
#152 = CC_DESIGN_PERSON_AND_ORGANIZATION_ASSIGNMENT ( #718, #910, ( #660 ) ) ;
#153 = PERSON_AND_ORGANIZATION ( #909, #248 ) ;
#154 = ORIENTED_EDGE ( 'NONE', *, *, #402, .T. ) ;
#155 = CARTESIAN_POINT ( 'NONE',  ( 974.0000000000000000, 2.250000000000000000, -39.68626966596904282 ) ) ;
#156 = DATE_AND_TIME ( #992, #525 ) ;
#157 = CARTESIAN_POINT ( 'NONE',  ( 974.0000000000000000, 0.000000000000000000, -1.789208973554282786E-13 ) ) ;
#158 = EDGE_LOOP ( 'NONE', ( #652, #958, #36, #201 ) ) ;
#159 = CIRCLE ( 'NONE', #383, 36.89199796489153726 ) ;
#160 = DIRECTION ( 'NONE',  ( 1.836970198721059023E-16, 0.000000000000000000, 1.000000000000000000 ) ) ;
#161 = DIRECTION ( 'NONE',  ( 0.000000000000000000, 0.000000000000000000, 1.000000000000000000 ) ) ;
#162 = PERSON_AND_ORGANIZATION_ROLE ( 'creator' ) ;
#163 = VECTOR ( 'NONE', #787, 1000.000000000000000 ) ;
#164 = AXIS2_PLACEMENT_3D ( 'NONE', #700, #239, #145 ) ;
#165 = EDGE_CURVE ( 'NONE', #778, #977, #814, .T. ) ;
#166 = DIRECTION ( 'NONE',  ( -1.000000000000000000, 0.000000000000000000, 1.836970198721029688E-16 ) ) ;
#167 = AXIS2_PLACEMENT_3D ( 'NONE', #191, #169, #160 ) ;
#168 = ORIENTED_EDGE ( 'NONE', *, *, #255, .T. ) ;
#169 = DIRECTION ( 'NONE',  ( -1.000000000000000000, -0.000000000000000000, 1.836970198721058777E-16 ) ) ;
#170 = LINE ( 'NONE', #739, #81 ) ;
#171 = CARTESIAN_POINT ( 'NONE',  ( 974.0000000000000000, 0.000000000000000000, -1.789208973554282786E-13 ) ) ;
#172 = EDGE_CURVE ( 'NONE', #101, #6, #404, .T. ) ;
#173 = ORIENTED_EDGE ( 'NONE', *, *, #260, .F. ) ;
#174 = EDGE_LOOP ( 'NONE', ( #1026, #409, #14, #401, #913, #96, #376, #922, #520, #1055, #944, #706 ) ) ;
#175 = DIRECTION ( 'NONE',  ( 0.000000000000000000, -1.224646799147353454E-16, 1.000000000000000000 ) ) ;
#176 = APPLICATION_CONTEXT ( 'configuration controlled 3d designs of mechanical parts and assemblies' ) ;
#177 = DIRECTION ( 'NONE',  ( 1.000000000000000000, 0.000000000000000000, -1.836970198721029688E-16 ) ) ;
#178 = EDGE_CURVE ( 'NONE', #232, #142, #1037, .T. ) ;
#179 = CARTESIAN_POINT ( 'NONE',  ( 974.0000000000000000, 0.000000000000000000, -1.789208973554282786E-13 ) ) ;
#180 = ORIENTED_EDGE ( 'NONE', *, *, #453, .T. ) ;
#181 = LINE ( 'NONE', #639, #760 ) ;
#182 = ORIENTED_EDGE ( 'NONE', *, *, #235, .T. ) ;
#183 = EDGE_CURVE ( 'NONE', #6, #977, #1016, .T. ) ;
#184 = AXIS2_PLACEMENT_3D ( 'NONE', #615, #894, #1168 ) ;
#185 = LINE ( 'NONE', #1088, #141 ) ;
#186 = DIRECTION ( 'NONE',  ( 1.000000000000000000, 0.000000000000000000, -1.836970198721029688E-16 ) ) ;
#187 = CARTESIAN_POINT ( 'NONE',  ( 974.0000000000000000, 39.75000000000000000, -2.250000000000170530 ) ) ;
#188 = VERTEX_POINT ( 'NONE', #203 ) ;
#189 = ORIENTED_EDGE ( 'NONE', *, *, #1109, .F. ) ;
#190 = AXIS2_PLACEMENT_3D ( 'NONE', #549, #3, #648 ) ;
#191 = CARTESIAN_POINT ( 'NONE',  ( 929.3102796124123870, 0.000000000000000000, -3.544085487734166852E-13 ) ) ;
#192 = ORIENTED_EDGE ( 'NONE', *, *, #714, .T. ) ;
#193 = DIRECTION ( 'NONE',  ( 0.9396926207859135349, 4.188538737676820434E-17, 0.3420201433256545021 ) ) ;
#194 = CC_DESIGN_PERSON_AND_ORGANIZATION_ASSIGNMENT ( #705, #1071, ( #490 ) ) ;
#195 = DIRECTION ( 'NONE',  ( 0.000000000000000000, -1.000000000000000000, 0.000000000000000000 ) ) ;
#196 = DIRECTION ( 'NONE',  ( 0.000000000000000000, 0.000000000000000000, -1.000000000000000000 ) ) ;
#197 = CARTESIAN_POINT ( 'NONE',  ( -1000.000000000000000, 0.000000000000000000, -38.00000000000000000 ) ) ;
#198 = VERTEX_POINT ( 'NONE', #563 ) ;
#199 = EDGE_LOOP ( 'NONE', ( #265, #681, #730, #430, #527, #1105 ) ) ;
#200 = CYLINDRICAL_SURFACE ( 'NONE', #40, 39.75000000000000000 ) ;
#201 = ORIENTED_EDGE ( 'NONE', *, *, #714, .F. ) ;
#202 = DIRECTION ( 'NONE',  ( 0.000000000000000000, 0.000000000000000000, -1.000000000000000000 ) ) ;
#203 = CARTESIAN_POINT ( 'NONE',  ( 1000.000000000000000, -2.250000000000000000, 39.68626966596868755 ) ) ;
#204 = ORIENTED_EDGE ( 'NONE', *, *, #63, .T. ) ;
#205 = CARTESIAN_POINT ( 'NONE',  ( 1000.000000000000000, 0.000000000000000000, -1.836970198721029747E-13 ) ) ;
#206 = EDGE_LOOP ( 'NONE', ( #618, #656, #564, #765 ) ) ;
#207 = VECTOR ( 'NONE', #193, 1000.000000000000114 ) ;
#208 = CARTESIAN_POINT ( 'NONE',  ( 935.0000000000000000, -38.18376618407356204, -2.250000000000162537 ) ) ;
#209 = DIRECTION ( 'NONE',  ( -1.000000000000000000, -0.000000000000000000, 1.836970198721029688E-16 ) ) ;
#210 = ADVANCED_FACE ( 'NONE', ( #932 ), #100, .T. ) ;
#211 = CARTESIAN_POINT ( 'NONE',  ( 1000.000000000000000, 0.000000000000000000, -1.836970198721029747E-13 ) ) ;
#212 = TOROIDAL_SURFACE ( 'NONE', #1060, 43.00000000000000000, 5.000000000000000000 ) ;
#213 = ORIENTED_EDGE ( 'NONE', *, *, #23, .T. ) ;
#214 = TOROIDAL_SURFACE ( 'NONE', #264, 34.75000000000009237, 3.500000000000000000 ) ;
#215 = DIRECTION ( 'NONE',  ( 1.000000000000000000, 0.000000000000000000, -1.836970198721029688E-16 ) ) ;
#216 = CARTESIAN_POINT ( 'NONE',  ( 974.0000000000000000, 4.684274006738625728E-15, 38.24999999999982236 ) ) ;
#217 = VERTEX_POINT ( 'NONE', #93 ) ;
#218 = ORIENTED_EDGE ( 'NONE', *, *, #432, .F. ) ;
#219 = ORIENTED_EDGE ( 'NONE', *, *, #459, .T. ) ;
#220 = DIRECTION ( 'NONE',  ( -0.000000000000000000, 1.000000000000000000, 0.000000000000000000 ) ) ;
#221 = CARTESIAN_POINT ( 'NONE',  ( 974.0000000000000000, -2.250000000000000000, -39.68626966596904282 ) ) ;
#222 = EDGE_CURVE ( 'NONE', #188, #1017, #795, .T. ) ;
#223 = ORIENTED_EDGE ( 'NONE', *, *, #788, .F. ) ;
#224 = EDGE_CURVE ( 'NONE', #307, #1121, #124, .T. ) ;
#225 = CARTESIAN_POINT ( 'NONE',  ( 974.0000000000000000, 0.000000000000000000, -1.789208973554282786E-13 ) ) ;
#226 = TOROIDAL_SURFACE ( 'NONE', #1072, 34.75000000000009237, 5.000000000000000000 ) ;
#227 = DIRECTION ( 'NONE',  ( 1.836970198721029688E-16, 0.000000000000000000, 1.000000000000000000 ) ) ;
#228 = ORIENTED_EDGE ( 'NONE', *, *, #449, .T. ) ;
#229 = DIRECTION ( 'NONE',  ( 0.000000000000000000, -1.000000000000000000, 0.000000000000000000 ) ) ;
#230 = APPROVAL_PERSON_ORGANIZATION ( #66, #521, #797 ) ;
#231 = LINE ( 'NONE', #135, #1058 ) ;
#232 = VERTEX_POINT ( 'NONE', #197 ) ;
#233 = DIRECTION ( 'NONE',  ( 1.000000000000000000, 0.000000000000000000, -1.836970198721029688E-16 ) ) ;
#234 = CARTESIAN_POINT ( 'NONE',  ( 974.0000000000000000, -2.250000000000000000, -39.75000000000017053 ) ) ;
#235 = EDGE_CURVE ( 'NONE', #1145, #753, #951, .T. ) ;
#236 = EDGE_CURVE ( 'NONE', #188, #989, #1038, .T. ) ;
#237 = EDGE_LOOP ( 'NONE', ( #494, #516, #671, #116 ) ) ;
#238 = LINE ( 'NONE', #883, #721 ) ;
#239 = DIRECTION ( 'NONE',  ( 1.000000000000000000, 0.000000000000000000, -1.836970198721029688E-16 ) ) ;
#240 = COORDINATED_UNIVERSAL_TIME_OFFSET ( 1, 0, .AHEAD. ) ;
#241 = DIRECTION ( 'NONE',  ( 1.000000000000000000, 0.000000000000000000, -1.836970198721058777E-16 ) ) ;
#242 = VECTOR ( 'NONE', #820, 1000.000000000000000 ) ;
#243 = ORIENTED_EDGE ( 'NONE', *, *, #1045, .F. ) ;
#244 = DIRECTION ( 'NONE',  ( 1.000000000000000000, -0.000000000000000000, -1.836970198721029688E-16 ) ) ;
#245 = COORDINATED_UNIVERSAL_TIME_OFFSET ( 1, 0, .AHEAD. ) ;
#246 = VECTOR ( 'NONE', #69, 1000.000000000000000 ) ;
#247 = AXIS2_PLACEMENT_3D ( 'NONE', #761, #741, #643 ) ;
#248 = ORGANIZATION ( 'UNSPECIFIED', 'UNSPECIFIED', '' ) ;
#249 = ORIENTED_EDGE ( 'NONE', *, *, #178, .F. ) ;
#250 = DIRECTION ( 'NONE',  ( 0.000000000000000000, 2.309263891220325289E-14, 1.000000000000000000 ) ) ;
#251 = APPROVAL_ROLE ( '' ) ;
#252 = EDGE_CURVE ( 'NONE', #632, #537, #669, .T. ) ;
#253 = ORIENTED_EDGE ( 'NONE', *, *, #788, .T. ) ;
#254 = CALENDAR_DATE ( 2026, 16, 9 ) ;
#255 = EDGE_CURVE ( 'NONE', #1110, #600, #395, .T. ) ;
#256 = CARTESIAN_POINT ( 'NONE',  ( 931.0203803290406768, 0.000000000000000000, -3.547226891787396408E-13 ) ) ;
#257 = TOROIDAL_SURFACE ( 'NONE', #105, 43.00000000000000000, 5.000000000000000000 ) ;
#258 = ORIENTED_EDGE ( 'NONE', *, *, #674, .T. ) ;
#259 = DIRECTION ( 'NONE',  ( 0.000000000000000000, 2.575717417130363174E-14, 1.000000000000000000 ) ) ;
#260 = EDGE_CURVE ( 'NONE', #960, #852, #1070, .T. ) ;
#261 = AXIS2_PLACEMENT_3D ( 'NONE', #412, #603, #416 ) ;
#262 = CIRCLE ( 'NONE', #723, 39.75000000000000000 ) ;
#263 = DIRECTION ( 'NONE',  ( 2.249639673992821992E-32, 1.000000000000000000, 1.224646799147353207E-16 ) ) ;
#264 = AXIS2_PLACEMENT_3D ( 'NONE', #499, #676, #597 ) ;
#265 = ORIENTED_EDGE ( 'NONE', *, *, #904, .T. ) ;
#266 = CARTESIAN_POINT ( 'NONE',  ( 935.0000000000000000, -38.18376618407355494, 2.249999999999835687 ) ) ;
#267 = ORIENTED_EDGE ( 'NONE', *, *, #543, .T. ) ;
#268 = FACE_OUTER_BOUND ( 'NONE', #1032, .T. ) ;
#269 = DIRECTION ( 'NONE',  ( -1.000000000000000000, -0.000000000000000000, 1.836970198721058777E-16 ) ) ;
#270 = ADVANCED_FACE ( 'NONE', ( #957 ), #964, .T. ) ;
#271 = PLANE ( 'NONE',  #1116 ) ;
#272 = EDGE_CURVE ( 'NONE', #445, #67, #1144, .T. ) ;
#273 = ORIENTED_EDGE ( 'NONE', *, *, #586, .F. ) ;
#274 = FACE_OUTER_BOUND ( 'NONE', #481, .T. ) ;
#275 = DIRECTION ( 'NONE',  ( 0.000000000000000000, -0.000000000000000000, 1.000000000000000000 ) ) ;
#276 = DIRECTION ( 'NONE',  ( 0.9396926207859135349, 4.188538737676820434E-17, 0.3420201433256545021 ) ) ;
#277 = DIRECTION ( 'NONE',  ( 1.836970198721029934E-16, -0.000000000000000000, 1.000000000000000000 ) ) ;
#278 = ORIENTED_EDGE ( 'NONE', *, *, #424, .T. ) ;
#279 = CARTESIAN_POINT ( 'NONE',  ( 935.0000000000000000, 0.000000000000000000, -1.717567135804162851E-13 ) ) ;
#280 = VERTEX_POINT ( 'NONE', #216 ) ;
#281 = VECTOR ( 'NONE', #22, 1000.000000000000000 ) ;
#282 = CARTESIAN_POINT ( 'NONE',  ( 935.0000000000000000, 2.249999999999999112, -39.68626966596902861 ) ) ;
#283 = PRODUCT_DEFINITION_SHAPE ( 'NONE', 'NONE',  #536 ) ;
#284 = VECTOR ( 'NONE', #966, 1000.000000000000000 ) ;
#285 = CARTESIAN_POINT ( 'NONE',  ( 974.0000000000000000, 39.75000000000000000, 2.249999999999829026 ) ) ;
#286 = DIRECTION ( 'NONE',  ( 1.000000000000000000, 0.000000000000000000, -1.836970198721029934E-16 ) ) ;
#287 = VERTEX_POINT ( 'NONE', #514 ) ;
#288 = LINE ( 'NONE', #861, #57 ) ;
#289 = DIRECTION ( 'NONE',  ( 1.000000000000000000, 0.000000000000000000, -1.836970198721029688E-16 ) ) ;
#290 = FACE_OUTER_BOUND ( 'NONE', #1069, .T. ) ;
#291 = DIRECTION ( 'NONE',  ( -1.000000000000000000, -0.000000000000000000, 1.836970198721029688E-16 ) ) ;
#292 = ORIENTED_EDGE ( 'NONE', *, *, #802, .F. ) ;
#293 = EDGE_LOOP ( 'NONE', ( #926, #173, #94, #136 ) ) ;
#294 = CARTESIAN_POINT ( 'NONE',  ( 934.6845644019034580, 0.000000000000000000, -3.553957888731873403E-13 ) ) ;
#295 = CARTESIAN_POINT ( 'NONE',  ( 1000.000000000000000, -39.68626966596886518, -2.250000000000175415 ) ) ;
#296 = EDGE_CURVE ( 'NONE', #133, #713, #553, .T. ) ;
#297 = CARTESIAN_POINT ( 'NONE',  ( 974.0000000000000000, 39.75000000000000000, 2.249999999999829026 ) ) ;
#298 = CARTESIAN_POINT ( 'NONE',  ( 931.0203803290406768, 0.000000000000000000, -38.30153689607075052 ) ) ;
#299 = ADVANCED_BREP_SHAPE_REPRESENTATION ( '79-8420 - 76mm x 2000mm', ( #429, #602 ), #149 ) ;
#300 = ORIENTED_EDGE ( 'NONE', *, *, #912, .T. ) ;
#301 = AXIS2_PLACEMENT_3D ( 'NONE', #441, #551, #812 ) ;
#302 = CARTESIAN_POINT ( 'NONE',  ( 935.8816349035432722, 0.000000000000000000, 34.74999999999982947 ) ) ;
#303 = AXIS2_PLACEMENT_3D ( 'NONE', #849, #120, #948 ) ;
#304 = AXIS2_PLACEMENT_3D ( 'NONE', #1067, #229, #62 ) ;
#305 = CARTESIAN_POINT ( 'NONE',  ( 935.8816349035432722, 0.000000000000000000, -2.637671772208639060E-13 ) ) ;
#306 = AXIS2_PLACEMENT_3D ( 'NONE', #824, #80, #457 ) ;
#307 = VERTEX_POINT ( 'NONE', #221 ) ;
#308 = CC_DESIGN_APPROVAL ( #521, ( #350 ) ) ;
#309 = DIRECTION ( 'NONE',  ( 1.000000000000000000, 0.000000000000000000, -1.836970198721029688E-16 ) ) ;
#310 = EDGE_CURVE ( 'NONE', #537, #753, #595, .T. ) ;
#311 = DIRECTION ( 'NONE',  ( -1.000000000000000000, -0.000000000000000000, 1.836970198721029688E-16 ) ) ;
#312 = CARTESIAN_POINT ( 'NONE',  ( 931.5334105440291523, 0.000000000000000000, -3.548169313003373454E-13 ) ) ;
#313 = EDGE_CURVE ( 'NONE', #470, #644, #159, .T. ) ;
#314 = ORIENTED_EDGE ( 'NONE', *, *, #313, .F. ) ;
#315 = ADVANCED_FACE ( 'NONE', ( #41, #881 ), #34, .F. ) ;
#316 = EDGE_LOOP ( 'NONE', ( #756, #594, #609, #952 ) ) ;
#317 = DIRECTION ( 'NONE',  ( 1.000000000000000000, 0.000000000000000000, -1.836970198721029688E-16 ) ) ;
#318 = DIRECTION ( 'NONE',  ( -1.000000000000000000, -0.000000000000000000, 1.836970198721087619E-16 ) ) ;
#319 = ORIENTED_EDGE ( 'NONE', *, *, #1045, .T. ) ;
#320 = APPROVAL ( #1079, 'UNSPECIFIED' ) ;
#321 = DIRECTION ( 'NONE',  ( 1.000000000000000000, 0.000000000000000000, -1.836970198721029688E-16 ) ) ;
#322 = CIRCLE ( 'NONE', #920, 38.00000000000000000 ) ;
#323 = DIRECTION ( 'NONE',  ( 0.000000000000000000, 0.000000000000000000, -1.000000000000000000 ) ) ;
#324 = CIRCLE ( 'NONE', #385, 38.25000000000000000 ) ;
#325 = EDGE_CURVE ( 'NONE', #217, #470, #11, .T. ) ;
#326 = ORIENTED_EDGE ( 'NONE', *, *, #398, .F. ) ;
#327 = CARTESIAN_POINT ( 'NONE',  ( 935.0000000000000000, -2.249999999999999112, -39.68626966596902861 ) ) ;
#328 = DIRECTION ( 'NONE',  ( 1.000000000000000000, 0.000000000000000000, -1.836970198721029688E-16 ) ) ;
#329 = VECTOR ( 'NONE', #391, 1000.000000000000000 ) ;
#330 = PERSON_AND_ORGANIZATION ( #909, #248 ) ;
#331 = ORIENTED_EDGE ( 'NONE', *, *, #1128, .F. ) ;
#332 = CARTESIAN_POINT ( 'NONE',  ( 1000.000000000000000, 39.68626966596885808, -2.250000000000175415 ) ) ;
#333 = VERTEX_POINT ( 'NONE', #1151 ) ;
#334 = FACE_OUTER_BOUND ( 'NONE', #472, .T. ) ;
#335 = DIRECTION ( 'NONE',  ( 0.000000000000000000, 0.000000000000000000, 1.000000000000000000 ) ) ;
#336 = APPROVAL_ROLE ( '' ) ;
#337 = EDGE_CURVE ( 'NONE', #108, #644, #851, .T. ) ;
#338 = ORIENTED_EDGE ( 'NONE', *, *, #310, .F. ) ;
#339 = DIRECTION ( 'NONE',  ( 1.836970198721029688E-16, 0.000000000000000000, 1.000000000000000000 ) ) ;
#340 = CARTESIAN_POINT ( 'NONE',  ( -1000.000000000000000, 0.000000000000000000, -38.00000000000000000 ) ) ;
#341 = AXIS2_PLACEMENT_3D ( 'NONE', #379, #29, #749 ) ;
#342 = ORIENTED_EDGE ( 'NONE', *, *, #352, .F. ) ;
#343 = CARTESIAN_POINT ( 'NONE',  ( 935.0000000000000000, 4.684274006738625728E-15, 38.24999999999982236 ) ) ;
#344 = CARTESIAN_POINT ( 'NONE',  ( 974.0000000000000000, 0.000000000000000000, -1.789208973554282786E-13 ) ) ;
#345 = FACE_OUTER_BOUND ( 'NONE', #31, .T. ) ;
#346 = DATE_TIME_ROLE ( 'classification_date' ) ;
#347 = VECTOR ( 'NONE', #1159, 1000.000000000000000 ) ;
#348 = AXIS2_PLACEMENT_3D ( 'NONE', #448, #831, #463 ) ;
#349 = ADVANCED_FACE ( 'NONE', ( #45 ), #1059, .F. ) ;
#350 = PRODUCT_DEFINITION_FORMATION_WITH_SPECIFIED_SOURCE ( 'ANY', '', #660, .NOT_KNOWN. ) ;
#351 = ORIENTED_EDGE ( 'NONE', *, *, #337, .F. ) ;
#352 = EDGE_CURVE ( 'NONE', #626, #1009, #875, .T. ) ;
#353 = DIRECTION ( 'NONE',  ( 1.000000000000000000, 0.000000000000000000, -1.836970198721087619E-16 ) ) ;
#354 = VERTEX_POINT ( 'NONE', #598 ) ;
#355 = LINE ( 'NONE', #914, #128 ) ;
#356 = CARTESIAN_POINT ( 'NONE',  ( -1000.000000000000000, 0.000000000000000000, 0.000000000000000000 ) ) ;
#357 = DIRECTION ( 'NONE',  ( 0.000000000000000000, 0.000000000000000000, -1.000000000000000000 ) ) ;
#358 = AXIS2_PLACEMENT_3D ( 'NONE', #107, #665, #1130 ) ;
#359 = ORIENTED_EDGE ( 'NONE', *, *, #172, .T. ) ;
#360 = DIRECTION ( 'NONE',  ( 0.000000000000000000, 0.000000000000000000, 1.000000000000000000 ) ) ;
#361 = EDGE_CURVE ( 'NONE', #852, #1017, #417, .T. ) ;
#362 = AXIS2_PLACEMENT_3D ( 'NONE', #662, #1029, #114 ) ;
#363 = EDGE_CURVE ( 'NONE', #53, #50, #231, .T. ) ;
#364 = VECTOR ( 'NONE', #12, 1000.000000000000000 ) ;
#365 = DIRECTION ( 'NONE',  ( 0.000000000000000000, 0.000000000000000000, -1.000000000000000000 ) ) ;
#366 = LOCAL_TIME ( 0, 3, 50.00000000000000000, #146 ) ;
#367 = VERTEX_POINT ( 'NONE', #968 ) ;
#368 = DIRECTION ( 'NONE',  ( 1.000000000000000000, 0.000000000000000000, -1.836970198721029688E-16 ) ) ;
#369 = ORIENTED_EDGE ( 'NONE', *, *, #874, .T. ) ;
#370 = ORIENTED_EDGE ( 'NONE', *, *, #1128, .T. ) ;
#371 = DIRECTION ( 'NONE',  ( 1.836970198721029934E-16, -0.000000000000000000, 1.000000000000000000 ) ) ;
#372 = DIRECTION ( 'NONE',  ( 2.249639673992821992E-32, 1.000000000000000000, 1.224646799147353207E-16 ) ) ;
#373 = DIRECTION ( 'NONE',  ( 1.836970198721029934E-16, -0.000000000000000000, 1.000000000000000000 ) ) ;
#374 = VERTEX_POINT ( 'NONE', #332 ) ;
#375 = FACE_OUTER_BOUND ( 'NONE', #1119, .T. ) ;
#376 = ORIENTED_EDGE ( 'NONE', *, *, #1097, .T. ) ;
#377 = CARTESIAN_POINT ( 'NONE',  ( 935.0000000000000000, 39.68626966596885097, 2.249999999999835687 ) ) ;
#378 = DIRECTION ( 'NONE',  ( 1.000000000000000000, 0.000000000000000000, -1.836970198721087619E-16 ) ) ;
#379 = CARTESIAN_POINT ( 'NONE',  ( -1000.000000000000000, 0.000000000000000000, 0.000000000000000000 ) ) ;
#380 = ORIENTED_EDGE ( 'NONE', *, *, #272, .F. ) ;
#381 = CARTESIAN_POINT ( 'NONE',  ( 974.0000000000000000, 0.000000000000000000, -1.789208973554282786E-13 ) ) ;
#382 = ORIENTED_EDGE ( 'NONE', *, *, #733, .T. ) ;
#383 = AXIS2_PLACEMENT_3D ( 'NONE', #312, #869, #323 ) ;
#384 = PLANE ( 'NONE',  #37 ) ;
#385 = AXIS2_PLACEMENT_3D ( 'NONE', #20, #1122, #467 ) ;
#386 = CARTESIAN_POINT ( 'NONE',  ( 974.0000000000000000, 0.000000000000000000, -39.75000000000017764 ) ) ;
#387 = CARTESIAN_POINT ( 'NONE',  ( 935.0000000000000000, -2.249999999999999112, 39.68626966596868044 ) ) ;
#388 = ORIENTED_EDGE ( 'NONE', *, *, #543, .F. ) ;
#389 = EDGE_LOOP ( 'NONE', ( #150, #213, #1154, #422, #26, #85, #189, #556, #243, #326, #437, #994 ) ) ;
#390 = AXIS2_PLACEMENT_3D ( 'NONE', #550, #368, #95 ) ;
#391 = DIRECTION ( 'NONE',  ( 1.000000000000000000, 0.000000000000000000, -1.836970198721029688E-16 ) ) ;
#392 = EDGE_LOOP ( 'NONE', ( #670, #204, #382, #9 ) ) ;
#393 = EDGE_CURVE ( 'NONE', #1131, #18, #780, .T. ) ;
#394 = PLANE ( 'NONE',  #460 ) ;
#395 = LINE ( 'NONE', #770, #68 ) ;
#396 = DIRECTION ( 'NONE',  ( -1.000000000000000000, -0.000000000000000000, 1.836970198721087619E-16 ) ) ;
#397 = ORIENTED_EDGE ( 'NONE', *, *, #310, .T. ) ;
#398 = EDGE_CURVE ( 'NONE', #53, #854, #1106, .T. ) ;
#399 = DIRECTION ( 'NONE',  ( 1.000000000000000000, 0.000000000000000000, -1.836970198721029688E-16 ) ) ;
#400 = CARTESIAN_POINT ( 'NONE',  ( 1000.000000000000000, 2.250000000000000000, -39.75000000000017764 ) ) ;
#401 = ORIENTED_EDGE ( 'NONE', *, *, #224, .F. ) ;
#402 = EDGE_CURVE ( 'NONE', #333, #280, #324, .T. ) ;
#403 = CIRCLE ( 'NONE', #793, 38.30153689607039524 ) ;
#404 = CIRCLE ( 'NONE', #358, 38.25000000000000000 ) ;
#405 = CARTESIAN_POINT ( 'NONE',  ( 929.3102796124123870, 0.000000000000000000, 42.99999999999964473 ) ) ;
#406 = EDGE_CURVE ( 'NONE', #1009, #626, #484, .T. ) ;
#407 = DIRECTION ( 'NONE',  ( 2.249639673992821992E-32, 1.000000000000000000, 1.224646799147353207E-16 ) ) ;
#408 = VECTOR ( 'NONE', #588, 1000.000000000000000 ) ;
#409 = ORIENTED_EDGE ( 'NONE', *, *, #352, .T. ) ;
#410 = VECTOR ( 'NONE', #1062, 1000.000000000000000 ) ;
#411 = ORIENTED_EDGE ( 'NONE', *, *, #786, .F. ) ;
#412 = CARTESIAN_POINT ( 'NONE',  ( 934.6845644019034580, 0.000000000000000000, -3.553957888731873403E-13 ) ) ;
#413 = DIRECTION ( 'NONE',  ( 0.000000000000000000, 0.000000000000000000, 1.000000000000000000 ) ) ;
#414 = CC_DESIGN_DATE_AND_TIME_ASSIGNMENT ( #1083, #635, ( #536 ) ) ;
#415 = ORIENTED_EDGE ( 'NONE', *, *, #1002, .T. ) ;
#416 = DIRECTION ( 'NONE',  ( 0.000000000000000000, 0.000000000000000000, -1.000000000000000000 ) ) ;
#417 = LINE ( 'NONE', #701, #163 ) ;
#418 = EDGE_LOOP ( 'NONE', ( #822, #314, #192, #502 ) ) ;
#419 = DIRECTION ( 'NONE',  ( 1.836970198721029688E-16, 0.000000000000000000, 1.000000000000000000 ) ) ;
#420 = PERSON_AND_ORGANIZATION ( #909, #248 ) ;
#421 = DIRECTION ( 'NONE',  ( 1.000000000000000000, 0.000000000000000000, -1.836970198721029688E-16 ) ) ;
#422 = ORIENTED_EDGE ( 'NONE', *, *, #255, .F. ) ;
#423 = AXIS2_PLACEMENT_3D ( 'NONE', #171, #83, #475 ) ;
#424 = EDGE_CURVE ( 'NONE', #217, #108, #946, .T. ) ;
#425 = CARTESIAN_POINT ( 'NONE',  ( -1000.000000000000000, 0.000000000000000000, 0.000000000000000000 ) ) ;
#426 = ORIENTED_EDGE ( 'NONE', *, *, #1181, .T. ) ;
#427 = CARTESIAN_POINT ( 'NONE',  ( 935.0000000000000000, -39.68626966596885097, 2.249999999999835687 ) ) ;
#428 = ORIENTED_EDGE ( 'NONE', *, *, #459, .F. ) ;
#429 = MANIFOLD_SOLID_BREP ( 'Cut-Extrude-Thin1', #1056 ) ;
#430 = ORIENTED_EDGE ( 'NONE', *, *, #435, .F. ) ;
#431 = DIRECTION ( 'NONE',  ( -1.000000000000000000, -0.000000000000000000, 1.836970198721058777E-16 ) ) ;
#432 = EDGE_CURVE ( 'NONE', #575, #715, #981, .T. ) ;
#433 = DIRECTION ( 'NONE',  ( 1.836970198721058777E-16, 0.000000000000000000, 1.000000000000000000 ) ) ;
#434 = APPROVAL_DATE_TIME ( #535, #521 ) ;
#435 = EDGE_CURVE ( 'NONE', #280, #1141, #16, .T. ) ;
#436 = AXIS2_PLACEMENT_3D ( 'NONE', #775, #4, #584 ) ;
#437 = ORIENTED_EDGE ( 'NONE', *, *, #91, .F. ) ;
#438 = DIRECTION ( 'NONE',  ( 1.836970198721029688E-16, 0.000000000000000000, 1.000000000000000000 ) ) ;
#439 = AXIS2_PLACEMENT_3D ( 'NONE', #498, #779, #1127 ) ;
#440 = CARTESIAN_POINT ( 'NONE',  ( 935.0000000000000000, 38.18376618407355494, 2.249999999999835687 ) ) ;
#441 = CARTESIAN_POINT ( 'NONE',  ( 935.8816349035432722, 0.000000000000000000, -1.719186672848123935E-13 ) ) ;
#442 = APPROVAL_DATE_TIME ( #726, #953 ) ;
#443 = CONICAL_SURFACE ( 'NONE', #1114, 36.59046106882112781, 0.3490658503988509631 ) ;
#444 = EDGE_CURVE ( 'NONE', #1145, #984, #843, .T. ) ;
#445 = VERTEX_POINT ( 'NONE', #1024 ) ;
#446 = PLANE ( 'NONE',  #390 ) ;
#447 = CARTESIAN_POINT ( 'NONE',  ( 930.1919145159547497, 0.000000000000000000, -3.545705024778097896E-13 ) ) ;
#448 = CARTESIAN_POINT ( 'NONE',  ( 930.1919145159547497, 0.000000000000000000, -3.545705024778097896E-13 ) ) ;
#449 = EDGE_CURVE ( 'NONE', #133, #367, #1041, .T. ) ;
#450 = EDGE_LOOP ( 'NONE', ( #426, #650, #7, #351 ) ) ;
#451 = SHAPE_DEFINITION_REPRESENTATION ( #283, #299 ) ;
#452 = FACE_OUTER_BOUND ( 'NONE', #418, .T. ) ;
#453 = EDGE_CURVE ( 'NONE', #763, #108, #856, .T. ) ;
#454 = FACE_OUTER_BOUND ( 'NONE', #237, .T. ) ;
#455 = VECTOR ( 'NONE', #13, 1000.000000000000000 ) ;
#456 = ORIENTED_EDGE ( 'NONE', *, *, #515, .T. ) ;
#457 = DIRECTION ( 'NONE',  ( 0.000000000000000000, 0.000000000000000000, -1.000000000000000000 ) ) ;
#458 = FACE_OUTER_BOUND ( 'NONE', #479, .T. ) ;
#459 = EDGE_CURVE ( 'NONE', #354, #763, #519, .T. ) ;
#460 = AXIS2_PLACEMENT_3D ( 'NONE', #576, #399, #2 ) ;
#461 = AXIS2_PLACEMENT_3D ( 'NONE', #985, #151, #339 ) ;
#462 = CIRCLE ( 'NONE', #640, 3.500000000000003109 ) ;
#463 = DIRECTION ( 'NONE',  ( 0.000000000000000000, 0.000000000000000000, -1.000000000000000000 ) ) ;
#464 = PLANE ( 'NONE',  #503 ) ;
#465 = ORIENTED_EDGE ( 'NONE', *, *, #1086, .F. ) ;
#466 = DIRECTION ( 'NONE',  ( 0.000000000000000000, 0.000000000000000000, -1.000000000000000000 ) ) ;
#467 = DIRECTION ( 'NONE',  ( 0.000000000000000000, -1.687538997430237941E-14, 1.000000000000000000 ) ) ;
#468 = DIRECTION ( 'NONE',  ( -1.000000000000000000, -0.000000000000000000, 1.836970198721029688E-16 ) ) ;
#469 = DIRECTION ( 'NONE',  ( 1.000000000000000000, -0.000000000000000000, -1.836970198721029688E-16 ) ) ;
#470 = VERTEX_POINT ( 'NONE', #682 ) ;
#471 = LINE ( 'NONE', #266, #1044 ) ;
#472 = EDGE_LOOP ( 'NONE', ( #810, #182, #338, #1158 ) ) ;
#473 = ADVANCED_FACE ( 'NONE', ( #90 ), #394, .T. ) ;
#474 = CARTESIAN_POINT ( 'NONE',  ( 1000.000000000000000, 0.000000000000000000, -1.836970198721029747E-13 ) ) ;
#475 = DIRECTION ( 'NONE',  ( 0.000000000000000000, 2.753353101070388220E-14, 1.000000000000000000 ) ) ;
#476 = CARTESIAN_POINT ( 'NONE',  ( 929.3102796124123870, 0.000000000000000000, -3.544085487734138579E-13 ) ) ;
#477 = EDGE_CURVE ( 'NONE', #354, #217, #939, .T. ) ;
#478 = ORIENTED_EDGE ( 'NONE', *, *, #917, .T. ) ;
#479 = EDGE_LOOP ( 'NONE', ( #533, #1081, #1184, #727 ) ) ;
#480 = CARTESIAN_POINT ( 'NONE',  ( 935.0000000000000000, 0.000000000000000000, -39.75000000000017053 ) ) ;
#481 = EDGE_LOOP ( 'NONE', ( #1177, #267, #970, #751 ) ) ;
#482 = AXIS2_PLACEMENT_3D ( 'NONE', #447, #353, #829 ) ;
#483 = DIRECTION ( 'NONE',  ( -0.000000000000000000, 1.000000000000000000, 0.000000000000000000 ) ) ;
#484 = CIRCLE ( 'NONE', #638, 39.75000000000000000 ) ;
#485 = DIRECTION ( 'NONE',  ( 0.000000000000000000, 0.000000000000000000, -1.000000000000000000 ) ) ;
#486 = CIRCLE ( 'NONE', #1093, 38.25000000000000000 ) ;
#487 = ORIENTED_EDGE ( 'NONE', *, *, #89, .F. ) ;
#488 = AXIS2_PLACEMENT_3D ( 'NONE', #998, #372, #99 ) ;
#489 = LINE ( 'NONE', #480, #858 ) ;
#490 = SECURITY_CLASSIFICATION ( '', '', #986 ) ;
#491 = ORIENTED_EDGE ( 'NONE', *, *, #885, .T. ) ;
#492 = DIRECTION ( 'NONE',  ( 1.000000000000000000, 0.000000000000000000, -1.836970198721029688E-16 ) ) ;
#493 = CARTESIAN_POINT ( 'NONE',  ( 1000.000000000000000, 0.000000000000000000, -1.836970198721029747E-13 ) ) ;
#494 = ORIENTED_EDGE ( 'NONE', *, *, #59, .F. ) ;
#495 = ADVANCED_FACE ( 'NONE', ( #768 ), #675, .T. ) ;
#496 = ORIENTED_EDGE ( 'NONE', *, *, #698, .F. ) ;
#497 = EDGE_CURVE ( 'NONE', #763, #354, #1134, .T. ) ;
#498 = CARTESIAN_POINT ( 'NONE',  ( 929.3102796124123870, 0.000000000000000000, -3.544085487734138579E-13 ) ) ;
#499 = CARTESIAN_POINT ( 'NONE',  ( 935.8816349035432722, 0.000000000000000000, -2.637671772208639060E-13 ) ) ;
#500 = DIRECTION ( 'NONE',  ( 1.000000000000000000, -0.000000000000000000, -1.836970198721029688E-16 ) ) ;
#501 = ORIENTED_EDGE ( 'NONE', *, *, #620, .F. ) ;
#502 = ORIENTED_EDGE ( 'NONE', *, *, #654, .F. ) ;
#503 = AXIS2_PLACEMENT_3D ( 'NONE', #297, #373, #286 ) ;
#504 = CARTESIAN_POINT ( 'NONE',  ( 935.0000000000000000, 39.68626966596885097, -2.250000000000162537 ) ) ;
#505 =( NAMED_UNIT ( * ) PLANE_ANGLE_UNIT ( ) SI_UNIT ( $, .RADIAN. ) );
#506 = CARTESIAN_POINT ( 'NONE',  ( 935.8816349035432722, 0.000000000000000000, -1.719186672848124187E-13 ) ) ;
#507 = AXIS2_PLACEMENT_3D ( 'NONE', #211, #585, #357 ) ;
#508 = VERTEX_POINT ( 'NONE', #295 ) ;
#509 = PLANE ( 'NONE',  #164 ) ;
#510 = DIRECTION ( 'NONE',  ( 0.000000000000000000, 0.000000000000000000, -1.000000000000000000 ) ) ;
#511 = VERTEX_POINT ( 'NONE', #1035 ) ;
#512 = LINE ( 'NONE', #327, #925 ) ;
#513 = FACE_OUTER_BOUND ( 'NONE', #590, .T. ) ;
#514 = CARTESIAN_POINT ( 'NONE',  ( 1000.000000000000000, -2.250000000000000000, -39.68626966596904282 ) ) ;
#515 = EDGE_CURVE ( 'NONE', #126, #6, #1135, .T. ) ;
#516 = ORIENTED_EDGE ( 'NONE', *, *, #119, .T. ) ;
#517 = DIRECTION ( 'NONE',  ( -1.000000000000000000, -0.000000000000000000, 1.836970198721029688E-16 ) ) ;
#518 = AXIS2_PLACEMENT_3D ( 'NONE', #728, #1082, #161 ) ;
#519 = CIRCLE ( 'NONE', #833, 36.50000000000000000 ) ;
#520 = ORIENTED_EDGE ( 'NONE', *, *, #696, .F. ) ;
#521 = APPROVAL ( #612, 'UNSPECIFIED' ) ;
#522 = LINE ( 'NONE', #601, #246 ) ;
#523 = VECTOR ( 'NONE', #87, 1000.000000000000000 ) ;
#524 = LINE ( 'NONE', #1155, #109 ) ;
#525 = LOCAL_TIME ( 0, 3, 50.00000000000000000, #630 ) ;
#526 = CALENDAR_DATE ( 2026, 16, 9 ) ;
#527 = ORIENTED_EDGE ( 'NONE', *, *, #402, .F. ) ;
#528 = EDGE_CURVE ( 'NONE', #508, #287, #1073, .T. ) ;
#529 = VERTEX_POINT ( 'NONE', #929 ) ;
#530 = DIRECTION ( 'NONE',  ( -0.000000000000000000, -1.000000000000000000, -0.000000000000000000 ) ) ;
#531 = DATE_AND_TIME ( #625, #1153 ) ;
#532 = ADVANCED_FACE ( 'NONE', ( #754 ), #384, .F. ) ;
#533 = ORIENTED_EDGE ( 'NONE', *, *, #44, .T. ) ;
#534 = PLANE ( 'NONE',  #871 ) ;
#535 = DATE_AND_TIME ( #526, #366 ) ;
#536 = PRODUCT_DEFINITION ( 'UNKNOWN', '', #350, #1091 ) ;
#537 = VERTEX_POINT ( 'NONE', #28 ) ;
#538 = DIRECTION ( 'NONE',  ( 1.836970198721029688E-16, 0.000000000000000000, 1.000000000000000000 ) ) ;
#539 = AXIS2_PLACEMENT_3D ( 'NONE', #974, #421, #707 ) ;
#540 = CARTESIAN_POINT ( 'NONE',  ( 974.0000000000000000, 39.75000000000000000, -2.250000000000170530 ) ) ;
#541 = PERSON_AND_ORGANIZATION ( #909, #248 ) ;
#542 = AXIS2_PLACEMENT_3D ( 'NONE', #425, #317, #980 ) ;
#543 = EDGE_CURVE ( 'NONE', #984, #511, #774, .T. ) ;
#544 = CIRCLE ( 'NONE', #622, 39.75000000000000000 ) ;
#545 = FACE_OUTER_BOUND ( 'NONE', #316, .T. ) ;
#546 = ORIENTED_EDGE ( 'NONE', *, *, #5, .T. ) ;
#547 = DIRECTION ( 'NONE',  ( 1.836970198721058777E-16, 0.000000000000000000, 1.000000000000000000 ) ) ;
#548 = DIRECTION ( 'NONE',  ( 0.000000000000000000, 0.000000000000000000, -1.000000000000000000 ) ) ;
#549 = CARTESIAN_POINT ( 'NONE',  ( 935.8816349035432722, 0.000000000000000000, -2.637671772208639060E-13 ) ) ;
#550 = CARTESIAN_POINT ( 'NONE',  ( 1000.000000000000000, 0.000000000000000000, -3.673940397442059493E-13 ) ) ;
#551 = DIRECTION ( 'NONE',  ( 1.000000000000000000, 0.000000000000000000, -1.836970198721029688E-16 ) ) ;
#552 = CARTESIAN_POINT ( 'NONE',  ( 929.3102796124123870, 0.000000000000000000, -3.544085487734138579E-13 ) ) ;
#553 = CIRCLE ( 'NONE', #82, 38.25000000000000000 ) ;
#554 = ORIENTED_EDGE ( 'NONE', *, *, #649, .T. ) ;
#555 = DIRECTION ( 'NONE',  ( -0.000000000000000000, 1.000000000000000000, 0.000000000000000000 ) ) ;
#556 = ORIENTED_EDGE ( 'NONE', *, *, #711, .T. ) ;
#557 = CARTESIAN_POINT ( 'NONE',  ( 935.8816349035432722, 4.255647627037063753E-15, -34.75000000000035527 ) ) ;
#558 = AXIS2_PLACEMENT_3D ( 'NONE', #474, #309, #690 ) ;
#559 = DIRECTION ( 'NONE',  ( 0.000000000000000000, -1.000000000000000000, 0.000000000000000000 ) ) ;
#560 = AXIS2_PLACEMENT_3D ( 'NONE', #137, #321, #790 ) ;
#561 = AXIS2_PLACEMENT_3D ( 'NONE', #1008, #916, #921 ) ;
#562 = PLANE ( 'NONE',  #247 ) ;
#563 = CARTESIAN_POINT ( 'NONE',  ( 974.0000000000000000, 0.000000000000000000, -38.25000000000017764 ) ) ;
#564 = ORIENTED_EDGE ( 'NONE', *, *, #874, .F. ) ;
#565 = DIRECTION ( 'NONE',  ( 0.000000000000000000, 0.000000000000000000, -1.000000000000000000 ) ) ;
#566 = ADVANCED_FACE ( 'NONE', ( #607 ), #717, .T. ) ;
#567 = ORIENTED_EDGE ( 'NONE', *, *, #252, .T. ) ;
#568 = CARTESIAN_POINT ( 'NONE',  ( -1000.000000000000000, 4.469960816887838430E-15, 36.50000000000000000 ) ) ;
#569 = ADVANCED_FACE ( 'NONE', ( #873 ), #976, .T. ) ;
#570 = FACE_OUTER_BOUND ( 'NONE', #112, .T. ) ;
#571 = CARTESIAN_POINT ( 'NONE',  ( 974.0000000000000000, 39.75000000000000000, 2.249999999999829026 ) ) ;
#572 = ORIENTED_EDGE ( 'NONE', *, *, #393, .F. ) ;
#573 = VERTEX_POINT ( 'NONE', #43 ) ;
#574 = DIRECTION ( 'NONE',  ( 1.000000000000000000, 0.000000000000000000, -1.836970198721029688E-16 ) ) ;
#575 = VERTEX_POINT ( 'NONE', #1057 ) ;
#576 = CARTESIAN_POINT ( 'NONE',  ( 1000.000000000000000, 0.000000000000000000, -3.673940397442059493E-13 ) ) ;
#577 = DIRECTION ( 'NONE',  ( 0.000000000000000000, 0.000000000000000000, -1.000000000000000000 ) ) ;
#578 = DIRECTION ( 'NONE',  ( 0.000000000000000000, 0.000000000000000000, -1.000000000000000000 ) ) ;
#579 = CONICAL_SURFACE ( 'NONE', #482, 38.00000000000000000, 0.3490658503988509631 ) ;
#580 = ORIENTED_EDGE ( 'NONE', *, *, #453, .F. ) ;
#581 = CARTESIAN_POINT ( 'NONE',  ( 974.0000000000000000, -38.18376618407356204, 2.249999999999829026 ) ) ;
#582 = DIRECTION ( 'NONE',  ( 0.000000000000000000, 0.000000000000000000, -1.000000000000000000 ) ) ;
#583 = EDGE_CURVE ( 'NONE', #529, #333, #611, .T. ) ;
#584 = DIRECTION ( 'NONE',  ( 0.000000000000000000, 2.486899575160350651E-14, 1.000000000000000000 ) ) ;
#585 = DIRECTION ( 'NONE',  ( 1.000000000000000000, 0.000000000000000000, -1.836970198721029688E-16 ) ) ;
#586 = EDGE_CURVE ( 'NONE', #626, #67, #619, .T. ) ;
#587 = ORIENTED_EDGE ( 'NONE', *, *, #143, .F. ) ;
#588 = DIRECTION ( 'NONE',  ( -1.000000000000000000, -0.000000000000000000, 1.836970198721029688E-16 ) ) ;
#589 = DIRECTION ( 'NONE',  ( 1.000000000000000000, 0.000000000000000000, -1.836970198721029688E-16 ) ) ;
#590 = EDGE_LOOP ( 'NONE', ( #1048, #554, #1187, #491 ) ) ;
#591 = CARTESIAN_POINT ( 'NONE',  ( 935.0000000000000000, -2.249999999999999112, -38.18376618407373257 ) ) ;
#592 = DIRECTION ( 'NONE',  ( 0.000000000000000000, 0.000000000000000000, -1.000000000000000000 ) ) ;
#593 = CARTESIAN_POINT ( 'NONE',  ( -1000.000000000000000, 0.000000000000000000, 0.000000000000000000 ) ) ;
#594 = ORIENTED_EDGE ( 'NONE', *, *, #1086, .T. ) ;
#595 = CIRCLE ( 'NONE', #755, 38.25000000000000000 ) ;
#596 = CARTESIAN_POINT ( 'NONE',  ( 1000.000000000000000, 39.75000000000000000, 2.249999999999824141 ) ) ;
#597 = DIRECTION ( 'NONE',  ( 1.836970198721059023E-16, 0.000000000000000000, 1.000000000000000000 ) ) ;
#598 = CARTESIAN_POINT ( 'NONE',  ( -1000.000000000000000, 0.000000000000000000, -36.50000000000000000 ) ) ;
#599 = AXIS2_PLACEMENT_3D ( 'NONE', #722, #834, #565 ) ;
#600 = VERTEX_POINT ( 'NONE', #694 ) ;
#601 = CARTESIAN_POINT ( 'NONE',  ( 930.7049447309432253, 0.000000000000000000, -36.59046106882148308 ) ) ;
#602 = AXIS2_PLACEMENT_3D ( 'NONE', #806, #1166, #729 ) ;
#603 = DIRECTION ( 'NONE',  ( -1.000000000000000000, -0.000000000000000000, 1.836970198721087619E-16 ) ) ;
#604 = EDGE_CURVE ( 'NONE', #333, #600, #785, .T. ) ;
#605 = CARTESIAN_POINT ( 'NONE',  ( 929.3102796124123870, 5.265981236333618470E-15, -43.00000000000034817 ) ) ;
#606 = ORIENTED_EDGE ( 'NONE', *, *, #296, .F. ) ;
#607 = FACE_OUTER_BOUND ( 'NONE', #692, .T. ) ;
#608 = ORIENTED_EDGE ( 'NONE', *, *, #435, .T. ) ;
#609 = ORIENTED_EDGE ( 'NONE', *, *, #1030, .T. ) ;
#610 = CARTESIAN_POINT ( 'NONE',  ( 935.8816349035432722, 0.000000000000000000, -38.25000000000017053 ) ) ;
#611 = LINE ( 'NONE', #888, #947 ) ;
#612 = APPROVAL_STATUS ( 'not_yet_approved' ) ;
#613 = AXIS2_PLACEMENT_3D ( 'NONE', #493, #864, #791 ) ;
#614 = ORIENTED_EDGE ( 'NONE', *, *, #677, .T. ) ;
#615 = CARTESIAN_POINT ( 'NONE',  ( 974.0000000000000000, -2.250000000000000000, -39.75000000000017053 ) ) ;
#616 = EDGE_CURVE ( 'NONE', #50, #1131, #1139, .T. ) ;
#617 = CIRCLE ( 'NONE', #1167, 38.25000000000000000 ) ;
#618 = ORIENTED_EDGE ( 'NONE', *, *, #696, .T. ) ;
#619 = CIRCLE ( 'NONE', #304, 5.000000000000000888 ) ;
#620 = EDGE_CURVE ( 'NONE', #142, #232, #17, .T. ) ;
#621 = PLANE ( 'NONE',  #461 ) ;
#622 = AXIS2_PLACEMENT_3D ( 'NONE', #73, #907, #360 ) ;
#623 = CARTESIAN_POINT ( 'NONE',  ( 935.8816349035432722, 0.000000000000000000, -2.637671772208639060E-13 ) ) ;
#624 = AXIS2_PLACEMENT_3D ( 'NONE', #552, #311, #592 ) ;
#625 = CALENDAR_DATE ( 2026, 16, 9 ) ;
#626 = VERTEX_POINT ( 'NONE', #1142 ) ;
#627 = LINE ( 'NONE', #1172, #982 ) ;
#628 = CARTESIAN_POINT ( 'NONE',  ( 974.0000000000000000, -38.18376618407356915, -2.250000000000170530 ) ) ;
#629 = DIRECTION ( 'NONE',  ( 1.000000000000000000, 0.000000000000000000, -1.836970198721029688E-16 ) ) ;
#630 = COORDINATED_UNIVERSAL_TIME_OFFSET ( 1, 0, .AHEAD. ) ;
#631 = PLANE ( 'NONE',  #1179 ) ;
#632 = VERTEX_POINT ( 'NONE', #134 ) ;
#633 = DIRECTION ( 'NONE',  ( -1.000000000000000000, -0.000000000000000000, 1.836970198721058777E-16 ) ) ;
#634 = CARTESIAN_POINT ( 'NONE',  ( 930.1919145159547497, 4.653657836759941941E-15, 37.99999999999964473 ) ) ;
#635 = DATE_TIME_ROLE ( 'creation_date' ) ;
#636 = PLANE ( 'NONE',  #184 ) ;
#637 = ORIENTED_EDGE ( 'NONE', *, *, #583, .T. ) ;
#638 = AXIS2_PLACEMENT_3D ( 'NONE', #1115, #1043, #1049 ) ;
#639 = CARTESIAN_POINT ( 'NONE',  ( 1000.000000000000000, 2.250000000000000000, -39.75000000000017764 ) ) ;
#640 = AXIS2_PLACEMENT_3D ( 'NONE', #79, #263, #664 ) ;
#641 = CC_DESIGN_SECURITY_CLASSIFICATION ( #490, ( #350 ) ) ;
#642 = ADVANCED_FACE ( 'NONE', ( #513 ), #509, .T. ) ;
#643 = DIRECTION ( 'NONE',  ( 1.000000000000000000, 0.000000000000000000, -1.836970198721029934E-16 ) ) ;
#644 = VERTEX_POINT ( 'NONE', #805 ) ;
#645 = CARTESIAN_POINT ( 'NONE',  ( 935.0000000000000000, 0.000000000000000000, -1.717567135804162851E-13 ) ) ;
#646 = ORIENTED_EDGE ( 'NONE', *, *, #1047, .T. ) ;
#647 = DIRECTION ( 'NONE',  ( 2.249639673992821992E-32, 1.000000000000000000, 1.224646799147353207E-16 ) ) ;
#648 = DIRECTION ( 'NONE',  ( 1.836970198721059023E-16, 0.000000000000000000, 1.000000000000000000 ) ) ;
#649 = EDGE_CURVE ( 'NONE', #126, #508, #524, .T. ) ;
#650 = ORIENTED_EDGE ( 'NONE', *, *, #325, .T. ) ;
#651 = DIRECTION ( 'NONE',  ( 1.000000000000000000, -0.000000000000000000, -1.836970198721029688E-16 ) ) ;
#652 = ORIENTED_EDGE ( 'NONE', *, *, #1064, .F. ) ;
#653 = LINE ( 'NONE', #935, #1150 ) ;
#654 = EDGE_CURVE ( 'NONE', #367, #697, #800, .T. ) ;
#655 = DIRECTION ( 'NONE',  ( -1.000000000000000000, -0.000000000000000000, 1.836970198721058777E-16 ) ) ;
#656 = ORIENTED_EDGE ( 'NONE', *, *, #1078, .F. ) ;
#657 = DIRECTION ( 'NONE',  ( 0.000000000000000000, 0.000000000000000000, -1.000000000000000000 ) ) ;
#658 = ORIENTED_EDGE ( 'NONE', *, *, #143, .T. ) ;
#659 = ADVANCED_FACE ( 'NONE', ( #1052 ), #972, .F. ) ;
#660 = PRODUCT ( '79-8420 - 76mm x 2000mm', '79-8420 - 76mm x 2000mm', '', ( #902 ) ) ;
#661 = VECTOR ( 'NONE', #492, 1000.000000000000000 ) ;
#662 = CARTESIAN_POINT ( 'NONE',  ( 974.0000000000000000, 0.000000000000000000, -1.789208973554282786E-13 ) ) ;
#663 = AXIS2_PLACEMENT_3D ( 'NONE', #205, #866, #578 ) ;
#664 = DIRECTION ( 'NONE',  ( 0.000000000000000000, -1.224646799147351728E-16, 1.000000000000000000 ) ) ;
#665 = DIRECTION ( 'NONE',  ( 1.000000000000000000, -0.000000000000000000, -1.836970198721029688E-16 ) ) ;
#666 = ORIENTED_EDGE ( 'NONE', *, *, #620, .T. ) ;
#667 = DIRECTION ( 'NONE',  ( 1.836970198721029688E-16, 0.000000000000000000, 1.000000000000000000 ) ) ;
#668 = DIRECTION ( 'NONE',  ( 0.000000000000000000, 0.000000000000000000, -1.000000000000000000 ) ) ;
#669 = LINE ( 'NONE', #859, #281 ) ;
#670 = ORIENTED_EDGE ( 'NONE', *, *, #1004, .F. ) ;
#671 = ORIENTED_EDGE ( 'NONE', *, *, #750, .T. ) ;
#672 = CARTESIAN_POINT ( 'NONE',  ( 929.3102796124123870, 0.000000000000000000, -38.00000000000035527 ) ) ;
#673 = ORIENTED_EDGE ( 'NONE', *, *, #497, .F. ) ;
#674 = EDGE_CURVE ( 'NONE', #575, #1007, #56, .T. ) ;
#675 = PLANE ( 'NONE',  #303 ) ;
#676 = DIRECTION ( 'NONE',  ( -1.000000000000000000, -0.000000000000000000, 1.836970198721058777E-16 ) ) ;
#677 = EDGE_CURVE ( 'NONE', #72, #573, #1160, .T. ) ;
#678 = DIRECTION ( 'NONE',  ( -0.000000000000000000, -1.000000000000000000, -0.000000000000000000 ) ) ;
#679 = DIRECTION ( 'NONE',  ( 0.000000000000000000, 0.000000000000000000, -1.000000000000000000 ) ) ;
#680 = AXIS2_PLACEMENT_3D ( 'NONE', #1118, #941, #485 ) ;
#681 = ORIENTED_EDGE ( 'NONE', *, *, #835, .T. ) ;
#682 = CARTESIAN_POINT ( 'NONE',  ( 931.5334105440291523, 0.000000000000000000, -36.89199796489189254 ) ) ;
#683 = VECTOR ( 'NONE', #215, 1000.000000000000000 ) ;
#684 = VECTOR ( 'NONE', #962, 1000.000000000000000 ) ;
#685 = DIRECTION ( 'NONE',  ( 0.000000000000000000, 0.000000000000000000, -1.000000000000000000 ) ) ;
#686 = AXIS2_PLACEMENT_3D ( 'NONE', #279, #102, #117 ) ;
#687 = CC_DESIGN_PERSON_AND_ORGANIZATION_ASSIGNMENT ( #1149, #162, ( #350 ) ) ;
#688 = ORIENTED_EDGE ( 'NONE', *, *, #424, .F. ) ;
#689 = ORIENTED_EDGE ( 'NONE', *, *, #477, .F. ) ;
#690 = DIRECTION ( 'NONE',  ( 0.000000000000000000, 0.000000000000000000, -1.000000000000000000 ) ) ;
#691 = CARTESIAN_POINT ( 'NONE',  ( 935.8816349035432722, 0.000000000000000000, -1.719186672848123935E-13 ) ) ;
#692 = EDGE_LOOP ( 'NONE', ( #808, #666, #1021, #658 ) ) ;
#693 = ORIENTED_EDGE ( 'NONE', *, *, #432, .T. ) ;
#694 = CARTESIAN_POINT ( 'NONE',  ( 974.0000000000000000, 2.250000000000000000, 39.68626966596866623 ) ) ;
#695 = DIRECTION ( 'NONE',  ( 0.000000000000000000, -8.881784197001252323E-15, 1.000000000000000000 ) ) ;
#696 = EDGE_CURVE ( 'NONE', #1017, #778, #704, .T. ) ;
#697 = VERTEX_POINT ( 'NONE', #710 ) ;
#698 = EDGE_CURVE ( 'NONE', #232, #1007, #809, .T. ) ;
#699 = AXIS2_PLACEMENT_3D ( 'NONE', #605, #407, #782 ) ;
#700 = CARTESIAN_POINT ( 'NONE',  ( 1000.000000000000000, 0.000000000000000000, -3.673940397442059493E-13 ) ) ;
#701 = CARTESIAN_POINT ( 'NONE',  ( 1000.000000000000000, 39.75000000000000000, 2.249999999999824141 ) ) ;
#702 = AXIS2_PLACEMENT_3D ( 'NONE', #645, #1000, #466 ) ;
#703 = ORIENTED_EDGE ( 'NONE', *, *, #363, .T. ) ;
#704 = LINE ( 'NONE', #427, #410 ) ;
#705 = PERSON_AND_ORGANIZATION ( #909, #248 ) ;
#706 = ORIENTED_EDGE ( 'NONE', *, *, #835, .F. ) ;
#707 = DIRECTION ( 'NONE',  ( 0.000000000000000000, 0.000000000000000000, -1.000000000000000000 ) ) ;
#708 = ORIENTED_EDGE ( 'NONE', *, *, #649, .F. ) ;
#709 = CARTESIAN_POINT ( 'NONE',  ( 974.0000000000000000, -39.68626966596885808, 2.249999999999829026 ) ) ;
#710 = CARTESIAN_POINT ( 'NONE',  ( 934.6845644019034580, 0.000000000000000000, -38.03892417275120863 ) ) ;
#711 = EDGE_CURVE ( 'NONE', #632, #374, #123, .T. ) ;
#712 = COORDINATED_UNIVERSAL_TIME_OFFSET ( 1, 0, .AHEAD. ) ;
#713 = VERTEX_POINT ( 'NONE', #610 ) ;
#714 = EDGE_CURVE ( 'NONE', #470, #697, #522, .T. ) ;
#715 = VERTEX_POINT ( 'NONE', #48 ) ;
#716 = CARTESIAN_POINT ( 'NONE',  ( -1000.000000000000000, 4.469960816887859729E-15, 36.50000000000000000 ) ) ;
#717 = CYLINDRICAL_SURFACE ( 'NONE', #560, 38.00000000000000000 ) ;
#718 = PERSON_AND_ORGANIZATION ( #909, #248 ) ;
#719 = CIRCLE ( 'NONE', #518, 39.75000000000000000 ) ;
#720 = EDGE_LOOP ( 'NONE', ( #319, #253, #572, #64 ) ) ;
#721 = VECTOR ( 'NONE', #530, 1000.000000000000000 ) ;
#722 = CARTESIAN_POINT ( 'NONE',  ( 930.7049447309432253, 0.000000000000000000, -3.546647445994075446E-13 ) ) ;
#723 = AXIS2_PLACEMENT_3D ( 'NONE', #731, #847, #259 ) ;
#724 = CARTESIAN_POINT ( 'NONE',  ( 929.3102796124123870, 0.000000000000000000, -3.544085487734166852E-13 ) ) ;
#725 = CC_DESIGN_APPROVAL ( #320, ( #490 ) ) ;
#726 = DATE_AND_TIME ( #1068, #783 ) ;
#727 = ORIENTED_EDGE ( 'NONE', *, *, #750, .F. ) ;
#728 = CARTESIAN_POINT ( 'NONE',  ( 974.0000000000000000, 0.000000000000000000, -1.789208973554282786E-13 ) ) ;
#729 = DIRECTION ( 'NONE',  ( 1.000000000000000000, 0.000000000000000000, 0.000000000000000000 ) ) ;
#730 = ORIENTED_EDGE ( 'NONE', *, *, #733, .F. ) ;
#731 = CARTESIAN_POINT ( 'NONE',  ( 974.0000000000000000, 0.000000000000000000, -1.789208973554282786E-13 ) ) ;
#732 = FACE_OUTER_BOUND ( 'NONE', #1123, .T. ) ;
#733 = EDGE_CURVE ( 'NONE', #1141, #989, #804, .T. ) ;
#734 = CIRCLE ( 'NONE', #1014, 38.30153689607039524 ) ;
#735 = LINE ( 'NONE', #285, #364 ) ;
#736 = ORIENTED_EDGE ( 'NONE', *, *, #183, .T. ) ;
#737 = CARTESIAN_POINT ( 'NONE',  ( 1000.000000000000000, 2.250000000000000000, -39.68626966596904282 ) ) ;
#738 = EDGE_LOOP ( 'NONE', ( #118, #1061, #60, #1103 ) ) ;
#739 = CARTESIAN_POINT ( 'NONE',  ( 935.0000000000000000, 4.867971026610729239E-15, 39.74999999999982947 ) ) ;
#740 = TOROIDAL_SURFACE ( 'NONE', #71, 34.75000000000009237, 5.000000000000000000 ) ;
#741 = DIRECTION ( 'NONE',  ( 1.836970198721029934E-16, -0.000000000000000000, 1.000000000000000000 ) ) ;
#742 = ORIENTED_EDGE ( 'NONE', *, *, #967, .T. ) ;
#743 = LINE ( 'NONE', #1006, #523 ) ;
#744 = ORIENTED_EDGE ( 'NONE', *, *, #1097, .F. ) ;
#745 = DIRECTION ( 'NONE',  ( 1.000000000000000000, 0.000000000000000000, -1.836970198721058777E-16 ) ) ;
#746 = EDGE_CURVE ( 'NONE', #142, #575, #818, .T. ) ;
#747 = APPLICATION_CONTEXT ( 'configuration controlled 3d designs of mechanical parts and assemblies' ) ;
#748 = CARTESIAN_POINT ( 'NONE',  ( 974.0000000000000000, -2.250000000000000000, 38.18376618407337730 ) ) ;
#749 = DIRECTION ( 'NONE',  ( 0.000000000000000000, 0.000000000000000000, -1.000000000000000000 ) ) ;
#750 = EDGE_CURVE ( 'NONE', #1034, #445, #627, .T. ) ;
#751 = ORIENTED_EDGE ( 'NONE', *, *, #235, .F. ) ;
#752 = CYLINDRICAL_SURFACE ( 'NONE', #686, 38.25000000000000000 ) ;
#753 = VERTEX_POINT ( 'NONE', #971 ) ;
#754 = FACE_OUTER_BOUND ( 'NONE', #846, .T. ) ;
#755 = AXIS2_PLACEMENT_3D ( 'NONE', #1140, #500, #695 ) ;
#756 = ORIENTED_EDGE ( 'NONE', *, *, #296, .T. ) ;
#757 = CC_DESIGN_PERSON_AND_ORGANIZATION_ASSIGNMENT ( #420, #996, ( #536 ) ) ;
#758 = VECTOR ( 'NONE', #868, 1000.000000000000000 ) ;
#759 = DIRECTION ( 'NONE',  ( 0.000000000000000000, -0.000000000000000000, 1.000000000000000000 ) ) ;
#760 = VECTOR ( 'NONE', #538, 1000.000000000000000 ) ;
#761 = CARTESIAN_POINT ( 'NONE',  ( 974.0000000000000000, 39.75000000000000000, -2.250000000000170530 ) ) ;
#762 = AXIS2_PLACEMENT_3D ( 'NONE', #1102, #277, #931 ) ;
#763 = VERTEX_POINT ( 'NONE', #716 ) ;
#764 = ADVANCED_FACE ( 'NONE', ( #334 ), #621, .F. ) ;
#765 = ORIENTED_EDGE ( 'NONE', *, *, #361, .T. ) ;
#766 = DIRECTION ( 'NONE',  ( -1.000000000000000000, -0.000000000000000000, 1.836970198721058777E-16 ) ) ;
#767 = CARTESIAN_POINT ( 'NONE',  ( 930.7049447309432253, 4.481039102725763020E-15, 36.59046106882077254 ) ) ;
#768 = FACE_OUTER_BOUND ( 'NONE', #75, .T. ) ;
#769 = DIRECTION ( 'NONE',  ( 1.836970198721029688E-16, 0.000000000000000000, 1.000000000000000000 ) ) ;
#770 = CARTESIAN_POINT ( 'NONE',  ( 935.0000000000000000, 2.249999999999999112, 39.68626966596868044 ) ) ;
#771 = ORIENTED_EDGE ( 'NONE', *, *, #583, .F. ) ;
#772 = CARTESIAN_POINT ( 'NONE',  ( 974.0000000000000000, -39.68626966596885808, -2.250000000000170530 ) ) ;
#773 = ORIENTED_EDGE ( 'NONE', *, *, #844, .F. ) ;
#774 = LINE ( 'NONE', #596, #284 ) ;
#775 = CARTESIAN_POINT ( 'NONE',  ( 974.0000000000000000, 0.000000000000000000, -1.789208973554282786E-13 ) ) ;
#776 = LINE ( 'NONE', #1111, #329 ) ;
#777 = AXIS2_PLACEMENT_3D ( 'NONE', #1046, #799, #886 ) ;
#778 = VERTEX_POINT ( 'NONE', #709 ) ;
#779 = DIRECTION ( 'NONE',  ( -1.000000000000000000, -0.000000000000000000, 1.836970198721029688E-16 ) ) ;
#780 = CIRCLE ( 'NONE', #539, 38.25000000000000000 ) ;
#781 = AXIS2_PLACEMENT_3D ( 'NONE', #225, #49, #419 ) ;
#782 = DIRECTION ( 'NONE',  ( 0.000000000000000000, -1.224646799147352961E-16, 1.000000000000000000 ) ) ;
#783 = LOCAL_TIME ( 0, 3, 50.00000000000000000, #712 ) ;
#784 = ORIENTED_EDGE ( 'NONE', *, *, #674, .F. ) ;
#785 = LINE ( 'NONE', #55, #857 ) ;
#786 = EDGE_CURVE ( 'NONE', #307, #287, #512, .T. ) ;
#787 = DIRECTION ( 'NONE',  ( -0.000000000000000000, -1.000000000000000000, -0.000000000000000000 ) ) ;
#788 = EDGE_CURVE ( 'NONE', #374, #18, #238, .T. ) ;
#789 = ORIENTED_EDGE ( 'NONE', *, *, #828, .T. ) ;
#790 = DIRECTION ( 'NONE',  ( 0.000000000000000000, 0.000000000000000000, -1.000000000000000000 ) ) ;
#791 = DIRECTION ( 'NONE',  ( 0.000000000000000000, 0.000000000000000000, -1.000000000000000000 ) ) ;
#792 = ORIENTED_EDGE ( 'NONE', *, *, #823, .F. ) ;
#793 = AXIS2_PLACEMENT_3D ( 'NONE', #1180, #745, #991 ) ;
#794 = UNCERTAINTY_MEASURE_WITH_UNIT (LENGTH_MEASURE( 1.000000000000000082E-05 ), #1036, 'distance_accuracy_value', 'NONE');
#795 = CIRCLE ( 'NONE', #979, 39.75000000000000000 ) ;
#796 = CARTESIAN_POINT ( 'NONE',  ( 929.3102796124123870, 0.000000000000000000, -3.544085487734138579E-13 ) ) ;
#797 = APPROVAL_ROLE ( '' ) ;
#798 = EDGE_LOOP ( 'NONE', ( #219, #1125 ) ) ;
#799 = DIRECTION ( 'NONE',  ( -1.000000000000000000, -0.000000000000000000, 1.836970198721058777E-16 ) ) ;
#800 = CIRCLE ( 'NONE', #261, 38.03892417275086046 ) ;
#801 = CIRCLE ( 'NONE', #663, 39.75000000000000000 ) ;
#802 = EDGE_CURVE ( 'NONE', #133, #280, #61, .T. ) ;
#803 = ORIENTED_EDGE ( 'NONE', *, *, #398, .T. ) ;
#804 = LINE ( 'NONE', #892, #147 ) ;
#805 = CARTESIAN_POINT ( 'NONE',  ( 931.5334105440291523, 4.588195697651164952E-15, 36.89199796489118199 ) ) ;
#806 = CARTESIAN_POINT ( 'NONE',  ( 0.000000000000000000, 0.000000000000000000, 0.000000000000000000 ) ) ;
#807 = ADVANCED_FACE ( 'NONE', ( #896 ), #1169, .F. ) ;
#808 = ORIENTED_EDGE ( 'NONE', *, *, #746, .F. ) ;
#809 = LINE ( 'NONE', #340, #684 ) ;
#810 = ORIENTED_EDGE ( 'NONE', *, *, #1109, .T. ) ;
#811 = DIRECTION ( 'NONE',  ( 1.836970198721058777E-16, 0.000000000000000000, 1.000000000000000000 ) ) ;
#812 = DIRECTION ( 'NONE',  ( 0.000000000000000000, 0.000000000000000000, -1.000000000000000000 ) ) ;
#813 = PERSON_AND_ORGANIZATION_ROLE ( 'design_supplier' ) ;
#814 = CIRCLE ( 'NONE', #903, 39.75000000000000000 ) ;
#815 = FACE_OUTER_BOUND ( 'NONE', #392, .T. ) ;
#816 = VECTOR ( 'NONE', #289, 1000.000000000000000 ) ;
#817 = ORIENTED_EDGE ( 'NONE', *, *, #91, .T. ) ;
#818 = LINE ( 'NONE', #990, #836 ) ;
#819 = AXIS2_PLACEMENT_3D ( 'NONE', #1089, #378, #365 ) ;
#820 = DIRECTION ( 'NONE',  ( 1.000000000000000000, 0.000000000000000000, -1.836970198721029688E-16 ) ) ;
#821 = APPROVAL_DATE_TIME ( #156, #320 ) ;
#822 = ORIENTED_EDGE ( 'NONE', *, *, #106, .F. ) ;
#823 = EDGE_CURVE ( 'NONE', #307, #72, #355, .T. ) ;
#824 = CARTESIAN_POINT ( 'NONE',  ( 934.1715341869149825, 0.000000000000000000, -2.634530368155381231E-13 ) ) ;
#825 = DIRECTION ( 'NONE',  ( 1.836970198721029688E-16, 0.000000000000000000, 1.000000000000000000 ) ) ;
#826 = ORIENTED_EDGE ( 'NONE', *, *, #1002, .F. ) ;
#827 = FACE_OUTER_BOUND ( 'NONE', #720, .T. ) ;
#828 = EDGE_CURVE ( 'NONE', #126, #573, #486, .T. ) ;
#829 = DIRECTION ( 'NONE',  ( 0.000000000000000000, 0.000000000000000000, -1.000000000000000000 ) ) ;
#830 = CIRCLE ( 'NONE', #301, 38.25000000000000000 ) ;
#831 = DIRECTION ( 'NONE',  ( 1.000000000000000000, 0.000000000000000000, -1.836970198721087619E-16 ) ) ;
#832 = ORIENTED_EDGE ( 'NONE', *, *, #1181, .F. ) ;
#833 = AXIS2_PLACEMENT_3D ( 'NONE', #934, #32, #582 ) ;
#834 = DIRECTION ( 'NONE',  ( 1.000000000000000000, 0.000000000000000000, -1.836970198721087619E-16 ) ) ;
#835 = EDGE_CURVE ( 'NONE', #1112, #989, #544, .T. ) ;
#836 = VECTOR ( 'NONE', #1146, 1000.000000000000000 ) ;
#837 = DIRECTION ( 'NONE',  ( 1.000000000000000000, 0.000000000000000000, -1.836970198721029688E-16 ) ) ;
#838 = ADVANCED_FACE ( 'NONE', ( #1085 ), #908, .T. ) ;
#839 = CARTESIAN_POINT ( 'NONE',  ( 935.0000000000000000, 38.18376618407356204, -2.250000000000162537 ) ) ;
#840 = CARTESIAN_POINT ( 'NONE',  ( -1000.000000000000000, 4.653657836759963240E-15, 38.00000000000000711 ) ) ;
#841 = ORIENTED_EDGE ( 'NONE', *, *, #988, .F. ) ;
#842 = CARTESIAN_POINT ( 'NONE',  ( 930.7049447309432253, 0.000000000000000000, -3.546647445994075446E-13 ) ) ;
#843 = LINE ( 'NONE', #377, #683 ) ;
#844 = EDGE_CURVE ( 'NONE', #67, #445, #928, .T. ) ;
#845 = CARTESIAN_POINT ( 'NONE',  ( 1000.000000000000000, 0.000000000000000000, -1.836970198721029747E-13 ) ) ;
#846 = EDGE_LOOP ( 'NONE', ( #168, #943, #771, #882 ) ) ;
#847 = DIRECTION ( 'NONE',  ( 1.000000000000000000, -0.000000000000000000, -1.836970198721029688E-16 ) ) ;
#848 = ORIENTED_EDGE ( 'NONE', *, *, #802, .T. ) ;
#849 = CARTESIAN_POINT ( 'NONE',  ( 1000.000000000000000, 0.000000000000000000, -3.673940397442059493E-13 ) ) ;
#850 = CARTESIAN_POINT ( 'NONE',  ( 1000.000000000000000, 2.250000000000000000, 39.68626966596868755 ) ) ;
#851 = CIRCLE ( 'NONE', #997, 6.499999999999999112 ) ;
#852 = VERTEX_POINT ( 'NONE', #1178 ) ;
#853 = DIRECTION ( 'NONE',  ( 1.000000000000000000, 0.000000000000000000, -1.836970198721029688E-16 ) ) ;
#854 = VERTEX_POINT ( 'NONE', #737 ) ;
#855 = AXIS2_PLACEMENT_3D ( 'NONE', #593, #963, #125 ) ;
#856 = LINE ( 'NONE', #568, #661 ) ;
#857 = VECTOR ( 'NONE', #39, 1000.000000000000000 ) ;
#858 = VECTOR ( 'NONE', #853, 1000.000000000000000 ) ;
#859 = CARTESIAN_POINT ( 'NONE',  ( 974.0000000000000000, 39.75000000000000000, -2.250000000000170530 ) ) ;
#860 = LOCAL_TIME ( 0, 3, 50.00000000000000000, #240 ) ;
#861 = CARTESIAN_POINT ( 'NONE',  ( 1000.000000000000000, -2.250000000000000000, -39.75000000000017764 ) ) ;
#862 = ADVANCED_FACE ( 'NONE', ( #827 ), #446, .T. ) ;
#863 = DIRECTION ( 'NONE',  ( 1.000000000000000000, 0.000000000000000000, -1.836970198721029688E-16 ) ) ;
#864 = DIRECTION ( 'NONE',  ( 1.000000000000000000, 0.000000000000000000, -1.836970198721029688E-16 ) ) ;
#865 = ORIENTED_EDGE ( 'NONE', *, *, #616, .F. ) ;
#866 = DIRECTION ( 'NONE',  ( 1.000000000000000000, 0.000000000000000000, -1.836970198721029688E-16 ) ) ;
#867 = EDGE_LOOP ( 'NONE', ( #580, #428, #895, #832 ) ) ;
#868 = DIRECTION ( 'NONE',  ( 1.000000000000000000, 0.000000000000000000, -1.836970198721029688E-16 ) ) ;
#869 = DIRECTION ( 'NONE',  ( 1.000000000000000000, 0.000000000000000000, -1.836970198721087619E-16 ) ) ;
#870 = EDGE_LOOP ( 'NONE', ( #1028, #784, #693, #1162 ) ) ;
#871 = AXIS2_PLACEMENT_3D ( 'NONE', #540, #371, #915 ) ;
#872 = ORIENTED_EDGE ( 'NONE', *, *, #63, .F. ) ;
#873 = FACE_OUTER_BOUND ( 'NONE', #906, .T. ) ;
#874 = EDGE_CURVE ( 'NONE', #852, #101, #471, .T. ) ;
#875 = CIRCLE ( 'NONE', #905, 39.75000000000000000 ) ;
#876 = ADVANCED_FACE ( 'NONE', ( #1104 ), #1175, .F. ) ;
#877 = DIRECTION ( 'NONE',  ( 1.000000000000000000, 0.000000000000000000, -1.836970198721058777E-16 ) ) ;
#878 = CIRCLE ( 'NONE', #819, 36.89199796489153726 ) ;
#879 = ORIENTED_EDGE ( 'NONE', *, *, #677, .F. ) ;
#880 = DIRECTION ( 'NONE',  ( 0.000000000000000000, -0.000000000000000000, 1.000000000000000000 ) ) ;
#881 = FACE_OUTER_BOUND ( 'NONE', #35, .T. ) ;
#882 = ORIENTED_EDGE ( 'NONE', *, *, #988, .T. ) ;
#883 = CARTESIAN_POINT ( 'NONE',  ( 1000.000000000000000, 39.75000000000000000, -2.250000000000175415 ) ) ;
#884 = DIRECTION ( 'NONE',  ( -0.000000000000000000, -1.000000000000000000, -0.000000000000000000 ) ) ;
#885 = EDGE_CURVE ( 'NONE', #287, #573, #743, .T. ) ;
#886 = DIRECTION ( 'NONE',  ( 1.836970198721059023E-16, 0.000000000000000000, 1.000000000000000000 ) ) ;
#887 = ORIENTED_EDGE ( 'NONE', *, *, #654, .T. ) ;
#888 = CARTESIAN_POINT ( 'NONE',  ( 935.0000000000000000, 2.249999999999999112, 38.18376618407338441 ) ) ;
#889 = AXIS2_PLACEMENT_3D ( 'NONE', #405, #559, #202 ) ;
#890 = CIRCLE ( 'NONE', #1001, 38.03892417275086046 ) ;
#891 = ORIENTED_EDGE ( 'NONE', *, *, #337, .T. ) ;
#892 = CARTESIAN_POINT ( 'NONE',  ( 974.0000000000000000, -2.250000000000000000, -39.75000000000017053 ) ) ;
#893 = CARTESIAN_POINT ( 'NONE',  ( 935.0000000000000000, 2.249999999999999112, -38.18376618407373257 ) ) ;
#894 = DIRECTION ( 'NONE',  ( -0.000000000000000000, 1.000000000000000000, 0.000000000000000000 ) ) ;
#895 = ORIENTED_EDGE ( 'NONE', *, *, #477, .T. ) ;
#896 = FACE_OUTER_BOUND ( 'NONE', #158, .T. ) ;
#897 = APPLICATION_PROTOCOL_DEFINITION ( 'international standard', 'config_control_design', 1994, #747 ) ;
#898 = ORIENTED_EDGE ( 'NONE', *, *, #406, .F. ) ;
#899 = LINE ( 'NONE', #440, #242 ) ;
#900 = ADVANCED_FACE ( 'NONE', ( #77 ), #995, .F. ) ;
#901 = DIRECTION ( 'NONE',  ( -1.000000000000000000, -0.000000000000000000, 1.836970198721029688E-16 ) ) ;
#902 = MECHANICAL_CONTEXT ( 'NONE', #176, 'mechanical' ) ;
#903 = AXIS2_PLACEMENT_3D ( 'NONE', #179, #469, #84 ) ;
#904 = EDGE_CURVE ( 'NONE', #600, #1112, #262, .T. ) ;
#905 = AXIS2_PLACEMENT_3D ( 'NONE', #506, #877, #413 ) ;
#906 = EDGE_LOOP ( 'NONE', ( #47, #614, #936, #411 ) ) ;
#907 = DIRECTION ( 'NONE',  ( 1.000000000000000000, -0.000000000000000000, -1.836970198721029688E-16 ) ) ;
#908 = TOROIDAL_SURFACE ( 'NONE', #167, 43.00000000000000000, 6.500000000000000888 ) ;
#909 = PERSON ( 'UNSPECIFIED', 'UNSPECIFIED', 'UNSPECIFIED', ('UNSPECIFIED'), ('UNSPECIFIED'), ('UNSPECIFIED') ) ;
#910 = PERSON_AND_ORGANIZATION_ROLE ( 'design_owner' ) ;
#911 = CARTESIAN_POINT ( 'NONE',  ( -1000.000000000000000, 0.000000000000000000, 0.000000000000000000 ) ) ;
#912 = EDGE_CURVE ( 'NONE', #198, #50, #148, .T. ) ;
#913 = ORIENTED_EDGE ( 'NONE', *, *, #786, .T. ) ;
#914 = CARTESIAN_POINT ( 'NONE',  ( 974.0000000000000000, -2.250000000000000000, -39.75000000000017053 ) ) ;
#915 = DIRECTION ( 'NONE',  ( 1.000000000000000000, 0.000000000000000000, -1.836970198721029934E-16 ) ) ;
#916 = DIRECTION ( 'NONE',  ( 1.000000000000000000, 0.000000000000000000, -1.836970198721029688E-16 ) ) ;
#917 = EDGE_CURVE ( 'NONE', #854, #1131, #181, .T. ) ;
#918 = DIRECTION ( 'NONE',  ( 0.000000000000000000, 0.000000000000000000, -1.000000000000000000 ) ) ;
#919 = ADVANCED_FACE ( 'NONE', ( #924 ), #212, .F. ) ;
#920 = AXIS2_PLACEMENT_3D ( 'NONE', #476, #655, #1031 ) ;
#921 = DIRECTION ( 'NONE',  ( 0.000000000000000000, 0.000000000000000000, -1.000000000000000000 ) ) ;
#922 = ORIENTED_EDGE ( 'NONE', *, *, #165, .F. ) ;
#923 = AXIS2_PLACEMENT_3D ( 'NONE', #104, #863, #668 ) ;
#924 = FACE_OUTER_BOUND ( 'NONE', #870, .T. ) ;
#925 = VECTOR ( 'NONE', #1066, 1000.000000000000000 ) ;
#926 = ORIENTED_EDGE ( 'NONE', *, *, #361, .F. ) ;
#927 = CARTESIAN_POINT ( 'NONE',  ( 934.1715341869149825, 4.831043407151001115E-15, 39.44846310392938449 ) ) ;
#928 = CIRCLE ( 'NONE', #306, 39.44846310392971844 ) ;
#929 = CARTESIAN_POINT ( 'NONE',  ( 1000.000000000000000, 2.250000000000000000, 38.18376618407337020 ) ) ;
#930 = CC_DESIGN_APPROVAL ( #953, ( #536 ) ) ;
#931 = DIRECTION ( 'NONE',  ( 1.000000000000000000, 0.000000000000000000, -1.836970198721029934E-16 ) ) ;
#932 = FACE_OUTER_BOUND ( 'NONE', #174, .T. ) ;
#933 = DIRECTION ( 'NONE',  ( 1.000000000000000000, 0.000000000000000000, -1.836970198721029688E-16 ) ) ;
#934 = CARTESIAN_POINT ( 'NONE',  ( -1000.000000000000000, 0.000000000000000000, 0.000000000000000000 ) ) ;
#935 = CARTESIAN_POINT ( 'NONE',  ( 935.0000000000000000, -39.68626966596885097, -2.250000000000162537 ) ) ;
#936 = ORIENTED_EDGE ( 'NONE', *, *, #885, .F. ) ;
#937 = CARTESIAN_POINT ( 'NONE',  ( 974.0000000000000000, -2.250000000000000000, 39.68626966596866623 ) ) ;
#938 = ORIENTED_EDGE ( 'NONE', *, *, #746, .T. ) ;
#939 = LINE ( 'NONE', #97, #816 ) ;
#940 = AXIS2_PLACEMENT_3D ( 'NONE', #356, #837, #548 ) ;
#941 = DIRECTION ( 'NONE',  ( 1.000000000000000000, 0.000000000000000000, -1.836970198721029688E-16 ) ) ;
#942 = ADVANCED_FACE ( 'NONE', ( #452 ), #443, .F. ) ;
#943 = ORIENTED_EDGE ( 'NONE', *, *, #604, .F. ) ;
#944 = ORIENTED_EDGE ( 'NONE', *, *, #236, .T. ) ;
#945 = CARTESIAN_POINT ( 'NONE',  ( 1000.000000000000000, 39.68626966596885808, 2.249999999999824141 ) ) ;
#946 = CIRCLE ( 'NONE', #439, 36.50000000000000000 ) ;
#947 = VECTOR ( 'NONE', #517, 1000.000000000000000 ) ;
#948 = DIRECTION ( 'NONE',  ( -1.836970198721029688E-16, 0.000000000000000000, -1.000000000000000000 ) ) ;
#949 = CIRCLE ( 'NONE', #423, 39.75000000000000000 ) ;
#950 = APPROVAL_PERSON_ORGANIZATION ( #153, #953, #336 ) ;
#951 = LINE ( 'NONE', #571, #455 ) ;
#952 = ORIENTED_EDGE ( 'NONE', *, *, #449, .F. ) ;
#953 = APPROVAL ( #1156, 'UNSPECIFIED' ) ;
#954 = CARTESIAN_POINT ( 'NONE',  ( 1000.000000000000000, -2.249999999999999556, 38.18376618407338441 ) ) ;
#955 = ORIENTED_EDGE ( 'NONE', *, *, #325, .F. ) ;
#956 = DIRECTION ( 'NONE',  ( 0.000000000000000000, 0.000000000000000000, -1.000000000000000000 ) ) ;
#957 = FACE_OUTER_BOUND ( 'NONE', #999, .T. ) ;
#958 = ORIENTED_EDGE ( 'NONE', *, *, #106, .T. ) ;
#959 = ADVANCED_FACE ( 'NONE', ( #375 ), #752, .F. ) ;
#960 = VERTEX_POINT ( 'NONE', #954 ) ;
#961 = ADVANCED_FACE ( 'NONE', ( #1033 ), #740, .T. ) ;
#962 = DIRECTION ( 'NONE',  ( 1.000000000000000000, 0.000000000000000000, -1.836970198721029688E-16 ) ) ;
#963 = DIRECTION ( 'NONE',  ( 1.000000000000000000, 0.000000000000000000, -1.836970198721029688E-16 ) ) ;
#964 = TOROIDAL_SURFACE ( 'NONE', #777, 43.00000000000000000, 6.500000000000000888 ) ;
#965 = ORIENTED_EDGE ( 'NONE', *, *, #1075, .F. ) ;
#966 = DIRECTION ( 'NONE',  ( -0.000000000000000000, -1.000000000000000000, -0.000000000000000000 ) ) ;
#967 = EDGE_CURVE ( 'NONE', #984, #1110, #801, .T. ) ;
#968 = CARTESIAN_POINT ( 'NONE',  ( 934.6845644019034580, 4.658424673116822194E-15, 38.03892417275051230 ) ) ;
#969 = CIRCLE ( 'NONE', #507, 39.75000000000000000 ) ;
#970 = ORIENTED_EDGE ( 'NONE', *, *, #15, .F. ) ;
#971 = CARTESIAN_POINT ( 'NONE',  ( 974.0000000000000000, 38.18376618407356204, 2.249999999999829026 ) ) ;
#972 = PLANE ( 'NONE',  #781 ) ;
#973 = ADVANCED_FACE ( 'NONE', ( #1132 ), #200, .T. ) ;
#974 = CARTESIAN_POINT ( 'NONE',  ( 1000.000000000000000, 0.000000000000000000, -1.836970198721029747E-13 ) ) ;
#975 = EDGE_LOOP ( 'NONE', ( #1095, #342, #24, #380 ) ) ;
#976 = PLANE ( 'NONE',  #1090 ) ;
#977 = VERTEX_POINT ( 'NONE', #772 ) ;
#978 = EDGE_LOOP ( 'NONE', ( #587, #646, #1138, #218 ) ) ;
#979 = AXIS2_PLACEMENT_3D ( 'NONE', #845, #115, #577 ) ;
#980 = DIRECTION ( 'NONE',  ( 0.000000000000000000, 0.000000000000000000, -1.000000000000000000 ) ) ;
#981 = CIRCLE ( 'NONE', #889, 4.999999999999997335 ) ;
#982 = VECTOR ( 'NONE', #144, 1000.000000000000000 ) ;
#983 = TOROIDAL_SURFACE ( 'NONE', #190, 34.75000000000009237, 3.500000000000000000 ) ;
#984 = VERTEX_POINT ( 'NONE', #945 ) ;
#985 = CARTESIAN_POINT ( 'NONE',  ( 974.0000000000000000, 0.000000000000000000, -1.789208973554282786E-13 ) ) ;
#986 = SECURITY_CLASSIFICATION_LEVEL ( 'unclassified' ) ;
#987 = DIRECTION ( 'NONE',  ( 0.000000000000000000, 0.000000000000000000, 1.000000000000000000 ) ) ;
#988 = EDGE_CURVE ( 'NONE', #529, #1110, #30, .T. ) ;
#989 = VERTEX_POINT ( 'NONE', #937 ) ;
#990 = CARTESIAN_POINT ( 'NONE',  ( -1000.000000000000000, 4.653657836759941941E-15, 38.00000000000000000 ) ) ;
#991 = DIRECTION ( 'NONE',  ( 0.000000000000000000, 0.000000000000000000, 1.000000000000000000 ) ) ;
#992 = CALENDAR_DATE ( 2026, 16, 9 ) ;
#993 = EDGE_CURVE ( 'NONE', #1009, #1121, #489, .T. ) ;
#994 = ORIENTED_EDGE ( 'NONE', *, *, #993, .F. ) ;
#995 = PLANE ( 'NONE',  #1185 ) ;
#996 = PERSON_AND_ORGANIZATION_ROLE ( 'creator' ) ;
#997 = AXIS2_PLACEMENT_3D ( 'NONE', #1137, #1143, #685 ) ;
#998 = CARTESIAN_POINT ( 'NONE',  ( 929.3102796124123870, 5.265981236333618470E-15, -43.00000000000034817 ) ) ;
#999 = EDGE_LOOP ( 'NONE', ( #955, #278, #891, #1190 ) ) ;
#1000 = DIRECTION ( 'NONE',  ( 1.000000000000000000, 0.000000000000000000, -1.836970198721029688E-16 ) ) ;
#1001 = AXIS2_PLACEMENT_3D ( 'NONE', #294, #396, #1124 ) ;
#1002 = EDGE_CURVE ( 'NONE', #713, #198, #776, .T. ) ;
#1003 = CARTESIAN_POINT ( 'NONE',  ( 974.0000000000000000, 39.68626966596885808, 2.249999999999829026 ) ) ;
#1004 = EDGE_CURVE ( 'NONE', #960, #188, #288, .T. ) ;
#1005 = ORIENTED_EDGE ( 'NONE', *, *, #88, .T. ) ;
#1006 = CARTESIAN_POINT ( 'NONE',  ( 1000.000000000000000, -2.250000000000000000, -39.75000000000017764 ) ) ;
#1007 = VERTEX_POINT ( 'NONE', #672 ) ;
#1008 = CARTESIAN_POINT ( 'NONE',  ( 1000.000000000000000, 0.000000000000000000, -1.836970198721029747E-13 ) ) ;
#1009 = VERTEX_POINT ( 'NONE', #1120 ) ;
#1010 = CC_DESIGN_PERSON_AND_ORGANIZATION_ASSIGNMENT ( #330, #813, ( #350 ) ) ;
#1011 = DIRECTION ( 'NONE',  ( 0.000000000000000000, 0.000000000000000000, 1.000000000000000000 ) ) ;
#1012 = ORIENTED_EDGE ( 'NONE', *, *, #5, .F. ) ;
#1013 = CARTESIAN_POINT ( 'NONE',  ( 1000.000000000000000, 38.18376618407356915, -2.250000000000175415 ) ) ;
#1014 = AXIS2_PLACEMENT_3D ( 'NONE', #256, #241, #987 ) ;
#1015 = CARTESIAN_POINT ( 'NONE',  ( 974.0000000000000000, 4.867971026610729239E-15, 39.74999999999982236 ) ) ;
#1016 = LINE ( 'NONE', #187, #1165 ) ;
#1017 = VERTEX_POINT ( 'NONE', #25 ) ;
#1018 = AXIS2_PLACEMENT_3D ( 'NONE', #302, #195, #956 ) ;
#1019 = CARTESIAN_POINT ( 'NONE',  ( 929.3102796124123870, 0.000000000000000000, -3.544085487734166852E-13 ) ) ;
#1020 = VECTOR ( 'NONE', #233, 1000.000000000000000 ) ;
#1021 = ORIENTED_EDGE ( 'NONE', *, *, #698, .T. ) ;
#1022 = LINE ( 'NONE', #767, #207 ) ;
#1023 = AXIS2_PLACEMENT_3D ( 'NONE', #381, #651, #1011 ) ;
#1024 = CARTESIAN_POINT ( 'NONE',  ( 934.1715341869149825, 0.000000000000000000, -39.44846310393008082 ) ) ;
#1025 = FACE_OUTER_BOUND ( 'NONE', #1051, .T. ) ;
#1026 = ORIENTED_EDGE ( 'NONE', *, *, #23, .F. ) ;
#1027 = DIRECTION ( 'NONE',  ( 1.836970198721058777E-16, 0.000000000000000000, 1.000000000000000000 ) ) ;
#1028 = ORIENTED_EDGE ( 'NONE', *, *, #1047, .F. ) ;
#1029 = DIRECTION ( 'NONE',  ( 1.000000000000000000, -0.000000000000000000, -1.836970198721029688E-16 ) ) ;
#1030 = EDGE_CURVE ( 'NONE', #697, #367, #890, .T. ) ;
#1031 = DIRECTION ( 'NONE',  ( 0.000000000000000000, 0.000000000000000000, 1.000000000000000000 ) ) ;
#1032 = EDGE_LOOP ( 'NONE', ( #898, #1005, #773, #273 ) ) ;
#1033 = FACE_OUTER_BOUND ( 'NONE', #975, .T. ) ;
#1034 = VERTEX_POINT ( 'NONE', #298 ) ;
#1035 = CARTESIAN_POINT ( 'NONE',  ( 1000.000000000000000, 38.18376618407356204, 2.249999999999824141 ) ) ;
#1036 =( LENGTH_UNIT ( ) NAMED_UNIT ( * ) SI_UNIT ( .MILLI., .METRE. ) );
#1037 = CIRCLE ( 'NONE', #341, 38.00000000000000000 ) ;
#1038 = LINE ( 'NONE', #387, #1129 ) ;
#1039 = CARTESIAN_POINT ( 'NONE',  ( 935.0000000000000000, 0.000000000000000000, -1.717567135804162851E-13 ) ) ;
#1040 = ORIENTED_EDGE ( 'NONE', *, *, #515, .F. ) ;
#1041 = CIRCLE ( 'NONE', #1018, 3.499999999999999556 ) ;
#1042 = AXIS2_PLACEMENT_3D ( 'NONE', #796, #1148, #335 ) ;
#1043 = DIRECTION ( 'NONE',  ( 1.000000000000000000, 0.000000000000000000, -1.836970198721058777E-16 ) ) ;
#1044 = VECTOR ( 'NONE', #1094, 1000.000000000000000 ) ;
#1045 = EDGE_CURVE ( 'NONE', #854, #374, #969, .T. ) ;
#1046 = CARTESIAN_POINT ( 'NONE',  ( 929.3102796124123870, 0.000000000000000000, -3.544085487734166852E-13 ) ) ;
#1047 = EDGE_CURVE ( 'NONE', #1007, #1034, #130, .T. ) ;
#1048 = ORIENTED_EDGE ( 'NONE', *, *, #828, .F. ) ;
#1049 = DIRECTION ( 'NONE',  ( 0.000000000000000000, 0.000000000000000000, 1.000000000000000000 ) ) ;
#1050 = CARTESIAN_POINT ( 'NONE',  ( -1000.000000000000000, 0.000000000000000000, 0.000000000000000000 ) ) ;
#1051 = EDGE_LOOP ( 'NONE', ( #1174, #938, #258, #496 ) ) ;
#1052 = FACE_OUTER_BOUND ( 'NONE', #1133, .T. ) ;
#1053 = DIRECTION ( 'NONE',  ( 1.000000000000000000, 0.000000000000000000, -1.836970198721029688E-16 ) ) ;
#1054 = AXIS2_PLACEMENT_3D ( 'NONE', #1050, #1053, #51 ) ;
#1055 = ORIENTED_EDGE ( 'NONE', *, *, #222, .F. ) ;
#1056 = CLOSED_SHELL ( 'NONE', ( #1074, #838, #807, #46, #1, #76, #27, #1147, #876, #973, #210, #642, #862, #473, #495, #959, #566, #315, #1126, #919, #961, #349, #942, #270, #1173, #900, #569, #659, #127, #532, #1163, #764, #140, #54, #1113, #1161, #131 ) ) ;
#1057 = CARTESIAN_POINT ( 'NONE',  ( 929.3102796124123870, 4.653657836759941941E-15, 37.99999999999964473 ) ) ;
#1058 = VECTOR ( 'NONE', #227, 1000.000000000000000 ) ;
#1059 = CYLINDRICAL_SURFACE ( 'NONE', #855, 36.50000000000000000 ) ;
#1060 = AXIS2_PLACEMENT_3D ( 'NONE', #1019, #633, #547 ) ;
#1061 = ORIENTED_EDGE ( 'NONE', *, *, #183, .F. ) ;
#1062 = DIRECTION ( 'NONE',  ( -1.000000000000000000, -0.000000000000000000, 1.836970198721029688E-16 ) ) ;
#1063 =( NAMED_UNIT ( * ) SI_UNIT ( $, .STERADIAN. ) SOLID_ANGLE_UNIT ( ) );
#1064 = EDGE_CURVE ( 'NONE', #644, #470, #878, .T. ) ;
#1065 = ORIENTED_EDGE ( 'NONE', *, *, #711, .F. ) ;
#1066 = DIRECTION ( 'NONE',  ( 1.000000000000000000, 0.000000000000000000, -1.836970198721029688E-16 ) ) ;
#1067 = CARTESIAN_POINT ( 'NONE',  ( 935.8816349035432722, 0.000000000000000000, 34.74999999999982947 ) ) ;
#1068 = CALENDAR_DATE ( 2026, 16, 9 ) ;
#1069 = EDGE_LOOP ( 'NONE', ( #708, #456, #736, #744 ) ) ;
#1070 = CIRCLE ( 'NONE', #613, 38.25000000000000000 ) ;
#1071 = PERSON_AND_ORGANIZATION_ROLE ( 'classification_officer' ) ;
#1072 = AXIS2_PLACEMENT_3D ( 'NONE', #623, #431, #811 ) ;
#1073 = CIRCLE ( 'NONE', #558, 39.75000000000000000 ) ;
#1074 = ADVANCED_FACE ( 'NONE', ( #545 ), #983, .F. ) ;
#1075 = EDGE_CURVE ( 'NONE', #511, #529, #1152, .T. ) ;
#1076 = APPROVAL_PERSON_ORGANIZATION ( #541, #320, #251 ) ;
#1077 = ORIENTED_EDGE ( 'NONE', *, *, #393, .T. ) ;
#1078 = EDGE_CURVE ( 'NONE', #101, #778, #735, .T. ) ;
#1079 = APPROVAL_STATUS ( 'not_yet_approved' ) ;
#1080 = FACE_OUTER_BOUND ( 'NONE', #738, .T. ) ;
#1081 = ORIENTED_EDGE ( 'NONE', *, *, #59, .T. ) ;
#1082 = DIRECTION ( 'NONE',  ( 1.000000000000000000, -0.000000000000000000, -1.836970198721029688E-16 ) ) ;
#1083 = DATE_AND_TIME ( #254, #860 ) ;
#1084 = ORIENTED_EDGE ( 'NONE', *, *, #15, .T. ) ;
#1085 = FACE_OUTER_BOUND ( 'NONE', #450, .T. ) ;
#1086 = EDGE_CURVE ( 'NONE', #713, #697, #462, .T. ) ;
#1087 = CIRCLE ( 'NONE', #33, 5.000000000000000888 ) ;
#1088 = CARTESIAN_POINT ( 'NONE',  ( 935.0000000000000000, -2.249999999999999112, 38.18376618407338441 ) ) ;
#1089 = CARTESIAN_POINT ( 'NONE',  ( 931.5334105440291523, 0.000000000000000000, -3.548169313003373454E-13 ) ) ;
#1090 = AXIS2_PLACEMENT_3D ( 'NONE', #234, #220, #880 ) ;
#1091 = DESIGN_CONTEXT ( 'detailed design', #747, 'design' ) ;
#1092 = ORIENTED_EDGE ( 'NONE', *, *, #616, .T. ) ;
#1093 = AXIS2_PLACEMENT_3D ( 'NONE', #1186, #933, #918 ) ;
#1094 = DIRECTION ( 'NONE',  ( -1.000000000000000000, -0.000000000000000000, 1.836970198721029688E-16 ) ) ;
#1095 = ORIENTED_EDGE ( 'NONE', *, *, #88, .F. ) ;
#1096 = FACE_OUTER_BOUND ( 'NONE', #978, .T. ) ;
#1097 = EDGE_CURVE ( 'NONE', #508, #977, #653, .T. ) ;
#1098 = CYLINDRICAL_SURFACE ( 'NONE', #21, 38.00000000000000000 ) ;
#1099 = CARTESIAN_POINT ( 'NONE',  ( 974.0000000000000000, 2.250000000000000000, -39.75000000000017053 ) ) ;
#1100 = ORIENTED_EDGE ( 'NONE', *, *, #1075, .T. ) ;
#1101 = LINE ( 'NONE', #634, #52 ) ;
#1102 = CARTESIAN_POINT ( 'NONE',  ( 974.0000000000000000, 39.75000000000000000, 2.249999999999829026 ) ) ;
#1103 = ORIENTED_EDGE ( 'NONE', *, *, #1078, .T. ) ;
#1104 = FACE_OUTER_BOUND ( 'NONE', #122, .T. ) ;
#1105 = ORIENTED_EDGE ( 'NONE', *, *, #604, .T. ) ;
#1106 = LINE ( 'NONE', #282, #758 ) ;
#1107 = AXIS2_PLACEMENT_3D ( 'NONE', #132, #318, #121 ) ;
#1108 = CARTESIAN_POINT ( 'NONE',  ( 974.0000000000000000, 0.000000000000000000, -1.789208973554282786E-13 ) ) ;
#1109 = EDGE_CURVE ( 'NONE', #632, #1145, #949, .T. ) ;
#1110 = VERTEX_POINT ( 'NONE', #850 ) ;
#1111 = CARTESIAN_POINT ( 'NONE',  ( 935.0000000000000000, 0.000000000000000000, -38.25000000000017053 ) ) ;
#1112 = VERTEX_POINT ( 'NONE', #1015 ) ;
#1113 = ADVANCED_FACE ( 'NONE', ( #290 ), #562, .T. ) ;
#1114 = AXIS2_PLACEMENT_3D ( 'NONE', #842, #1191, #657 ) ;
#1115 = CARTESIAN_POINT ( 'NONE',  ( 935.8816349035432722, 0.000000000000000000, -1.719186672848124187E-13 ) ) ;
#1116 = AXIS2_PLACEMENT_3D ( 'NONE', #1108, #166, #825 ) ;
#1117 = CARTESIAN_POINT ( 'NONE',  ( 1000.000000000000000, 2.249999999999999556, -38.18376618407374679 ) ) ;
#1118 = CARTESIAN_POINT ( 'NONE',  ( 935.0000000000000000, 0.000000000000000000, -1.717567135804162851E-13 ) ) ;
#1119 = EDGE_LOOP ( 'NONE', ( #292, #487, #415, #300, #1092, #1077, #331, #397, #1084, #1100, #637, #154 ) ) ;
#1120 = CARTESIAN_POINT ( 'NONE',  ( 935.8816349035432722, 0.000000000000000000, -39.75000000000017053 ) ) ;
#1121 = VERTEX_POINT ( 'NONE', #386 ) ;
#1122 = DIRECTION ( 'NONE',  ( 1.000000000000000000, -0.000000000000000000, -1.836970198721029688E-16 ) ) ;
#1123 = EDGE_LOOP ( 'NONE', ( #567, #370, #223, #1065 ) ) ;
#1124 = DIRECTION ( 'NONE',  ( 0.000000000000000000, 0.000000000000000000, -1.000000000000000000 ) ) ;
#1125 = ORIENTED_EDGE ( 'NONE', *, *, #497, .T. ) ;
#1126 = ADVANCED_FACE ( 'NONE', ( #454 ), #111, .T. ) ;
#1127 = DIRECTION ( 'NONE',  ( 0.000000000000000000, 0.000000000000000000, -1.000000000000000000 ) ) ;
#1128 = EDGE_CURVE ( 'NONE', #537, #18, #1182, .T. ) ;
#1129 = VECTOR ( 'NONE', #291, 1000.000000000000000 ) ;
#1130 = DIRECTION ( 'NONE',  ( 0.000000000000000000, 0.000000000000000000, 1.000000000000000000 ) ) ;
#1131 = VERTEX_POINT ( 'NONE', #1117 ) ;
#1132 = FACE_OUTER_BOUND ( 'NONE', #389, .T. ) ;
#1133 = EDGE_LOOP ( 'NONE', ( #1157, #817, #703, #42, #1012, #792 ) ) ;
#1134 = CIRCLE ( 'NONE', #923, 36.50000000000000000 ) ;
#1135 = LINE ( 'NONE', #208, #408 ) ;
#1136 = CARTESIAN_POINT ( 'NONE',  ( 935.8816349035432722, 4.684274006738625728E-15, 38.24999999999982236 ) ) ;
#1137 = CARTESIAN_POINT ( 'NONE',  ( 929.3102796124123870, 0.000000000000000000, 42.99999999999964473 ) ) ;
#1138 = ORIENTED_EDGE ( 'NONE', *, *, #119, .F. ) ;
#1139 = LINE ( 'NONE', #893, #38 ) ;
#1140 = CARTESIAN_POINT ( 'NONE',  ( 974.0000000000000000, 0.000000000000000000, -1.789208973554282786E-13 ) ) ;
#1141 = VERTEX_POINT ( 'NONE', #748 ) ;
#1142 = CARTESIAN_POINT ( 'NONE',  ( 935.8816349035432722, 4.867971026610729239E-15, 39.74999999999982947 ) ) ;
#1143 = DIRECTION ( 'NONE',  ( 0.000000000000000000, -1.000000000000000000, 0.000000000000000000 ) ) ;
#1144 = CIRCLE ( 'NONE', #1107, 39.44846310392971844 ) ;
#1145 = VERTEX_POINT ( 'NONE', #1003 ) ;
#1146 = DIRECTION ( 'NONE',  ( 1.000000000000000000, 0.000000000000000000, -1.836970198721029688E-16 ) ) ;
#1147 = ADVANCED_FACE ( 'NONE', ( #1025 ), #1098, .T. ) ;
#1148 = DIRECTION ( 'NONE',  ( -1.000000000000000000, -0.000000000000000000, 1.836970198721058777E-16 ) ) ;
#1149 = PERSON_AND_ORGANIZATION ( #909, #248 ) ;
#1150 = VECTOR ( 'NONE', #468, 1000.000000000000000 ) ;
#1151 = CARTESIAN_POINT ( 'NONE',  ( 974.0000000000000000, 2.250000000000000000, 38.18376618407337730 ) ) ;
#1152 = CIRCLE ( 'NONE', #561, 38.25000000000000000 ) ;
#1153 = LOCAL_TIME ( 0, 3, 50.00000000000000000, #245 ) ;
#1154 = ORIENTED_EDGE ( 'NONE', *, *, #904, .F. ) ;
#1155 = CARTESIAN_POINT ( 'NONE',  ( 1000.000000000000000, 39.75000000000000000, -2.250000000000175415 ) ) ;
#1156 = APPROVAL_STATUS ( 'not_yet_approved' ) ;
#1157 = ORIENTED_EDGE ( 'NONE', *, *, #224, .T. ) ;
#1158 = ORIENTED_EDGE ( 'NONE', *, *, #252, .F. ) ;
#1159 = DIRECTION ( 'NONE',  ( 1.000000000000000000, 0.000000000000000000, -1.836970198721029688E-16 ) ) ;
#1160 = LINE ( 'NONE', #591, #1183 ) ;
#1161 = ADVANCED_FACE ( 'NONE', ( #1189 ), #74, .F. ) ;
#1162 = ORIENTED_EDGE ( 'NONE', *, *, #44, .F. ) ;
#1163 = ADVANCED_FACE ( 'NONE', ( #92 ), #271, .F. ) ;
#1164 = ORIENTED_EDGE ( 'NONE', *, *, #363, .F. ) ;
#1165 = VECTOR ( 'NONE', #678, 1000.000000000000000 ) ;
#1166 = DIRECTION ( 'NONE',  ( 0.000000000000000000, 0.000000000000000000, 1.000000000000000000 ) ) ;
#1167 = AXIS2_PLACEMENT_3D ( 'NONE', #344, #244, #250 ) ;
#1168 = DIRECTION ( 'NONE',  ( 0.000000000000000000, -0.000000000000000000, 1.000000000000000000 ) ) ;
#1169 = CONICAL_SURFACE ( 'NONE', #599, 36.59046106882112781, 0.3490658503988509631 ) ;
#1170 = CC_DESIGN_DATE_AND_TIME_ASSIGNMENT ( #531, #346, ( #490 ) ) ;
#1171 = ORIENTED_EDGE ( 'NONE', *, *, #89, .T. ) ;
#1172 = CARTESIAN_POINT ( 'NONE',  ( 930.1919145159547497, 0.000000000000000000, -38.00000000000035527 ) ) ;
#1173 = ADVANCED_FACE ( 'NONE', ( #570 ), #214, .F. ) ;
#1174 = ORIENTED_EDGE ( 'NONE', *, *, #178, .T. ) ;
#1175 = CYLINDRICAL_SURFACE ( 'NONE', #702, 38.25000000000000000 ) ;
#1176 = CYLINDRICAL_SURFACE ( 'NONE', #940, 36.50000000000000000 ) ;
#1177 = ORIENTED_EDGE ( 'NONE', *, *, #444, .T. ) ;
#1178 = CARTESIAN_POINT ( 'NONE',  ( 1000.000000000000000, -38.18376618407356204, 2.249999999999824141 ) ) ;
#1179 = AXIS2_PLACEMENT_3D ( 'NONE', #157, #70, #769 ) ;
#1180 = CARTESIAN_POINT ( 'NONE',  ( 931.0203803290406768, 0.000000000000000000, -3.547226891787396408E-13 ) ) ;
#1181 = EDGE_CURVE ( 'NONE', #108, #217, #58, .T. ) ;
#1182 = LINE ( 'NONE', #839, #86 ) ;
#1183 = VECTOR ( 'NONE', #328, 1000.000000000000000 ) ;
#1184 = ORIENTED_EDGE ( 'NONE', *, *, #844, .T. ) ;
#1185 = AXIS2_PLACEMENT_3D ( 'NONE', #1099, #555, #275 ) ;
#1186 = CARTESIAN_POINT ( 'NONE',  ( 1000.000000000000000, 0.000000000000000000, -1.836970198721029747E-13 ) ) ;
#1187 = ORIENTED_EDGE ( 'NONE', *, *, #528, .T. ) ;
#1188 = CARTESIAN_POINT ( 'NONE',  ( 974.0000000000000000, 2.250000000000000000, -38.18376618407373968 ) ) ;
#1189 = FACE_OUTER_BOUND ( 'NONE', #206, .T. ) ;
#1190 = ORIENTED_EDGE ( 'NONE', *, *, #1064, .T. ) ;
#1191 = DIRECTION ( 'NONE',  ( 1.000000000000000000, 0.000000000000000000, -1.836970198721087619E-16 ) ) ;
ENDSEC;
END-ISO-10303-21;
