ISO-10303-21;
HEADER;
FILE_DESCRIPTION (( 'STEP AP203' ),
    '1' );
FILE_NAME ('79-8541 - 76mm x 1000mm.STEP',
    '2026-09-15T22:03:52',
    ( '' ),
    ( '' ),
    'SwSTEP 2.0',
    'SolidWorks 2026',
    '' );
FILE_SCHEMA (( 'CONFIG_CONTROL_DESIGN' ));
ENDSEC;

DATA;
#1 = ORIENTED_EDGE ( 'NONE', *, *, #1107, .F. ) ;
#2 = DATE_AND_TIME ( #278, #486 ) ;
#3 = EDGE_CURVE ( 'NONE', #502, #1129, #235, .T. ) ;
#4 = LINE ( 'NONE', #1018, #964 ) ;
#5 = PLANE ( 'NONE',  #563 ) ;
#6 = EDGE_LOOP ( 'NONE', ( #1157, #708, #1112, #434 ) ) ;
#7 = AXIS2_PLACEMENT_3D ( 'NONE', #789, #801, #1146 ) ;
#8 = EDGE_CURVE ( 'NONE', #817, #1041, #738, .T. ) ;
#9 = AXIS2_PLACEMENT_3D ( 'NONE', #1100, #268, #888 ) ;
#10 = LINE ( 'NONE', #176, #452 ) ;
#11 = CIRCLE ( 'NONE', #190, 39.75000000000000000 ) ;
#12 = VECTOR ( 'NONE', #159, 1000.000000000000114 ) ;
#13 = DIRECTION ( 'NONE',  ( 1.836970198721029688E-16, 0.000000000000000000, 1.000000000000000000 ) ) ;
#14 = ORIENTED_EDGE ( 'NONE', *, *, #216, .T. ) ;
#15 = CARTESIAN_POINT ( 'NONE',  ( 434.6845644019025485, 4.658424673116814306E-15, 38.03892417275061888 ) ) ;
#16 = DIRECTION ( 'NONE',  ( 1.000000000000000000, 0.000000000000000000, -1.836970198721029688E-16 ) ) ;
#17 = AXIS2_PLACEMENT_3D ( 'NONE', #61, #802, #1163 ) ;
#18 = EDGE_CURVE ( 'NONE', #733, #785, #799, .T. ) ;
#19 = CARTESIAN_POINT ( 'NONE',  ( 435.8816349035423627, 0.000000000000000000, -1.259944123167864857E-13 ) ) ;
#20 = EDGE_CURVE ( 'NONE', #1144, #1176, #924, .T. ) ;
#21 = ORIENTED_EDGE ( 'NONE', *, *, #421, .F. ) ;
#22 = CARTESIAN_POINT ( 'NONE',  ( -500.0000000000000000, 4.469960816887849474E-15, 36.50000000000000000 ) ) ;
#23 = CARTESIAN_POINT ( 'NONE',  ( 500.0000000000000000, 0.000000000000000000, -9.184850993605148733E-14 ) ) ;
#24 = LINE ( 'NONE', #670, #919 ) ;
#25 = ORIENTED_EDGE ( 'NONE', *, *, #324, .T. ) ;
#26 = DIRECTION ( 'NONE',  ( 0.000000000000000000, 0.000000000000000000, -1.000000000000000000 ) ) ;
#27 = TOROIDAL_SURFACE ( 'NONE', #350, 34.75000000000004263, 5.000000000000000000 ) ;
#28 = DIRECTION ( 'NONE',  ( 1.000000000000000000, 0.000000000000000000, -1.836970198721029688E-16 ) ) ;
#29 = CIRCLE ( 'NONE', #704, 39.75000000000000000 ) ;
#30 = VERTEX_POINT ( 'NONE', #99 ) ;
#31 = CARTESIAN_POINT ( 'NONE',  ( 429.3102796124117617, 0.000000000000000000, -1.707115289013109590E-13 ) ) ;
#32 = AXIS2_PLACEMENT_3D ( 'NONE', #47, #788, #1060 ) ;
#33 = CARTESIAN_POINT ( 'NONE',  ( -500.0000000000000000, 0.000000000000000000, 0.000000000000000000 ) ) ;
#34 = ORIENTED_EDGE ( 'NONE', *, *, #178, .F. ) ;
#35 = ORIENTED_EDGE ( 'NONE', *, *, #929, .F. ) ;
#36 = ADVANCED_FACE ( 'NONE', ( #270 ), #83, .T. ) ;
#37 = CARTESIAN_POINT ( 'NONE',  ( -500.0000000000000000, 0.000000000000000000, -36.50000000000000000 ) ) ;
#38 = CARTESIAN_POINT ( 'NONE',  ( 474.0000000000000000, -2.250000000000000000, -39.75000000000008527 ) ) ;
#39 = ORIENTED_EDGE ( 'NONE', *, *, #1130, .T. ) ;
#40 = CARTESIAN_POINT ( 'NONE',  ( 435.0000000000000000, 0.000000000000000000, -7.990820364436478514E-14 ) ) ;
#41 = ADVANCED_FACE ( 'NONE', ( #1003 ), #1181, .F. ) ;
#42 = CARTESIAN_POINT ( 'NONE',  ( 474.0000000000000000, 0.000000000000000000, -8.707238741937679131E-14 ) ) ;
#43 = ORIENTED_EDGE ( 'NONE', *, *, #711, .F. ) ;
#44 = CARTESIAN_POINT ( 'NONE',  ( 500.0000000000000000, 38.18376618407356915, -2.250000000000083489 ) ) ;
#45 = AXIS2_PLACEMENT_3D ( 'NONE', #639, #1008, #84 ) ;
#46 = ORIENTED_EDGE ( 'NONE', *, *, #603, .F. ) ;
#47 = CARTESIAN_POINT ( 'NONE',  ( 435.8816349035423627, 0.000000000000000000, -8.007015734876074205E-14 ) ) ;
#48 = DIRECTION ( 'NONE',  ( -1.000000000000000000, -0.000000000000000000, 1.836970198721033878E-16 ) ) ;
#49 = CARTESIAN_POINT ( 'NONE',  ( 435.0000000000000000, 4.684274006738625728E-15, 38.24999999999991473 ) ) ;
#50 = EDGE_CURVE ( 'NONE', #471, #904, #724, .T. ) ;
#51 = CARTESIAN_POINT ( 'NONE',  ( 434.6845644019025485, 0.000000000000000000, -1.716987690010842141E-13 ) ) ;
#52 = CIRCLE ( 'NONE', #884, 39.75000000000000000 ) ;
#53 = EDGE_CURVE ( 'NONE', #1044, #663, #1105, .T. ) ;
#54 = ORIENTED_EDGE ( 'NONE', *, *, #385, .T. ) ;
#55 = DIRECTION ( 'NONE',  ( 0.000000000000000000, 0.000000000000000000, -1.000000000000000000 ) ) ;
#56 = CARTESIAN_POINT ( 'NONE',  ( 435.0000000000000000, 0.000000000000000000, -7.990820364436478514E-14 ) ) ;
#57 = EDGE_LOOP ( 'NONE', ( #329, #721, #321, #894 ) ) ;
#58 = CARTESIAN_POINT ( 'NONE',  ( 474.0000000000000000, 0.000000000000000000, -8.707238741937679131E-14 ) ) ;
#59 = ORIENTED_EDGE ( 'NONE', *, *, #934, .F. ) ;
#60 = PLANE ( 'NONE',  #333 ) ;
#61 = CARTESIAN_POINT ( 'NONE',  ( 474.0000000000000000, 0.000000000000000000, -8.707238741937679131E-14 ) ) ;
#62 = ORIENTED_EDGE ( 'NONE', *, *, #1118, .T. ) ;
#63 = CIRCLE ( 'NONE', #877, 6.499999999999999112 ) ;
#64 = VERTEX_POINT ( 'NONE', #547 ) ;
#65 = AXIS2_PLACEMENT_3D ( 'NONE', #1106, #1020, #182 ) ;
#66 = CARTESIAN_POINT ( 'NONE',  ( 474.0000000000000000, 0.000000000000000000, -8.707238741937679131E-14 ) ) ;
#67 = CYLINDRICAL_SURFACE ( 'NONE', #164, 38.25000000000000000 ) ;
#68 = ORIENTED_EDGE ( 'NONE', *, *, #173, .F. ) ;
#69 = VERTEX_POINT ( 'NONE', #359 ) ;
#70 = AXIS2_PLACEMENT_3D ( 'NONE', #820, #82, #1183 ) ;
#71 = SECURITY_CLASSIFICATION_LEVEL ( 'unclassified' ) ;
#72 = EDGE_CURVE ( 'NONE', #352, #227, #266, .T. ) ;
#73 = DIRECTION ( 'NONE',  ( 1.000000000000000000, 0.000000000000000000, -1.836970198721029934E-16 ) ) ;
#74 = ORIENTED_EDGE ( 'NONE', *, *, #809, .F. ) ;
#75 = ORIENTED_EDGE ( 'NONE', *, *, #499, .T. ) ;
#76 = DIRECTION ( 'NONE',  ( 1.000000000000000000, 0.000000000000000000, 0.000000000000000000 ) ) ;
#77 = CARTESIAN_POINT ( 'NONE',  ( 474.0000000000000000, 39.75000000000000000, -2.250000000000078604 ) ) ;
#78 = FACE_OUTER_BOUND ( 'NONE', #57, .T. ) ;
#79 = EDGE_LOOP ( 'NONE', ( #418, #14, #129, #383, #480, #952, #1172, #673, #1, #967, #706, #378 ) ) ;
#80 = AXIS2_PLACEMENT_3D ( 'NONE', #211, #679, #954 ) ;
#81 = CARTESIAN_POINT ( 'NONE',  ( 435.8816349035423627, 4.255647627037057442E-15, -34.75000000000017053 ) ) ;
#82 = DIRECTION ( 'NONE',  ( 1.000000000000000000, 0.000000000000000000, -1.836970198721029688E-16 ) ) ;
#83 = PLANE ( 'NONE',  #272 ) ;
#84 = DIRECTION ( 'NONE',  ( 1.836970198721034125E-16, 0.000000000000000000, 1.000000000000000000 ) ) ;
#85 = ADVANCED_FACE ( 'NONE', ( #1184 ), #457, .T. ) ;
#86 = VERTEX_POINT ( 'NONE', #470 ) ;
#87 = EDGE_CURVE ( 'NONE', #485, #556, #1050, .T. ) ;
#88 = VECTOR ( 'NONE', #224, 1000.000000000000000 ) ;
#89 = DIRECTION ( 'NONE',  ( 0.000000000000000000, -1.224646799147353454E-16, 1.000000000000000000 ) ) ;
#90 = DIRECTION ( 'NONE',  ( 1.000000000000000000, 0.000000000000000000, -1.836970198721029688E-16 ) ) ;
#91 = ORIENTED_EDGE ( 'NONE', *, *, #782, .F. ) ;
#92 = ADVANCED_FACE ( 'NONE', ( #533 ), #915, .F. ) ;
#93 = DIRECTION ( 'NONE',  ( 0.000000000000000000, 0.000000000000000000, -1.000000000000000000 ) ) ;
#94 = DIRECTION ( 'NONE',  ( -1.000000000000000000, 0.000000000000000000, 1.836970198721029688E-16 ) ) ;
#95 = ORIENTED_EDGE ( 'NONE', *, *, #1153, .T. ) ;
#96 = DIRECTION ( 'NONE',  ( 0.000000000000000000, 0.000000000000000000, 1.000000000000000000 ) ) ;
#97 = AXIS2_PLACEMENT_3D ( 'NONE', #40, #963, #126 ) ;
#98 = DIRECTION ( 'NONE',  ( -1.000000000000000000, -0.000000000000000000, 1.836970198721029688E-16 ) ) ;
#99 = CARTESIAN_POINT ( 'NONE',  ( 429.3102796124117617, 4.653657836759941941E-15, 37.99999999999982236 ) ) ;
#100 = ORIENTED_EDGE ( 'NONE', *, *, #1118, .F. ) ;
#101 = CARTESIAN_POINT ( 'NONE',  ( 435.8816349035423627, 4.255647627037057442E-15, -34.75000000000017053 ) ) ;
#102 = CARTESIAN_POINT ( 'NONE',  ( 435.0000000000000000, -2.249999999999999112, 39.68626966596877281 ) ) ;
#103 = CIRCLE ( 'NONE', #199, 36.89199796489158700 ) ;
#104 = CC_DESIGN_APPROVAL ( #1170, ( #454 ) ) ;
#105 = DIRECTION ( 'NONE',  ( 0.000000000000000000, 0.000000000000000000, -1.000000000000000000 ) ) ;
#106 = ADVANCED_FACE ( 'NONE', ( #78 ), #5, .T. ) ;
#107 = CARTESIAN_POINT ( 'NONE',  ( 474.0000000000000000, 2.250000000000000000, -39.75000000000008527 ) ) ;
#108 = ORIENTED_EDGE ( 'NONE', *, *, #565, .T. ) ;
#109 = CARTESIAN_POINT ( 'NONE',  ( -500.0000000000000000, 0.000000000000000000, 0.000000000000000000 ) ) ;
#110 = DIRECTION ( 'NONE',  ( 1.000000000000000000, -0.000000000000000000, -1.836970198721029688E-16 ) ) ;
#111 = CC_DESIGN_PERSON_AND_ORGANIZATION_ASSIGNMENT ( #238, #1160, ( #1016 ) ) ;
#112 = ORIENTED_EDGE ( 'NONE', *, *, #1022, .F. ) ;
#113 = VERTEX_POINT ( 'NONE', #633 ) ;
#114 = CARTESIAN_POINT ( 'NONE',  ( 500.0000000000000000, 39.75000000000000000, 2.249999999999916067 ) ) ;
#115 = AXIS2_PLACEMENT_3D ( 'NONE', #1045, #960, #589 ) ;
#116 = CARTESIAN_POINT ( 'NONE',  ( 474.0000000000000000, 0.000000000000000000, -8.707238741937679131E-14 ) ) ;
#117 = DIRECTION ( 'NONE',  ( 1.836970198721029688E-16, 0.000000000000000000, 1.000000000000000000 ) ) ;
#118 = VECTOR ( 'NONE', #621, 1000.000000000000000 ) ;
#119 = EDGE_LOOP ( 'NONE', ( #1164, #341 ) ) ;
#120 = ADVANCED_FACE ( 'NONE', ( #643 ), #582, .T. ) ;
#121 = APPROVAL_PERSON_ORGANIZATION ( #169, #657, #833 ) ;
#122 = FACE_OUTER_BOUND ( 'NONE', #990, .T. ) ;
#123 = VECTOR ( 'NONE', #257, 1000.000000000000000 ) ;
#124 = LINE ( 'NONE', #501, #544 ) ;
#125 = ORIENTED_EDGE ( 'NONE', *, *, #600, .F. ) ;
#126 = DIRECTION ( 'NONE',  ( 0.000000000000000000, 0.000000000000000000, -1.000000000000000000 ) ) ;
#127 = DIRECTION ( 'NONE',  ( 0.000000000000000000, 0.000000000000000000, 1.000000000000000000 ) ) ;
#128 = CARTESIAN_POINT ( 'NONE',  ( 474.0000000000000000, 39.75000000000000000, 2.249999999999920952 ) ) ;
#129 = ORIENTED_EDGE ( 'NONE', *, *, #223, .T. ) ;
#130 = ORIENTED_EDGE ( 'NONE', *, *, #437, .T. ) ;
#131 = DIRECTION ( 'NONE',  ( 1.000000000000000000, 0.000000000000000000, -1.836970198721029688E-16 ) ) ;
#132 = EDGE_CURVE ( 'NONE', #86, #904, #428, .T. ) ;
#133 = DIRECTION ( 'NONE',  ( -1.000000000000000000, -0.000000000000000000, 1.836970198721029688E-16 ) ) ;
#134 = VERTEX_POINT ( 'NONE', #356 ) ;
#135 = AXIS2_PLACEMENT_3D ( 'NONE', #905, #275, #837 ) ;
#136 = DIRECTION ( 'NONE',  ( -1.000000000000000000, -0.000000000000000000, 1.836970198721038069E-16 ) ) ;
#137 = CARTESIAN_POINT ( 'NONE',  ( 474.0000000000000000, 38.18376618407356915, -2.250000000000078604 ) ) ;
#138 = EDGE_CURVE ( 'NONE', #817, #607, #745, .T. ) ;
#139 = AXIS2_PLACEMENT_3D ( 'NONE', #77, #157, #73 ) ;
#140 = VERTEX_POINT ( 'NONE', #559 ) ;
#141 = ORIENTED_EDGE ( 'NONE', *, *, #1071, .T. ) ;
#142 = APPROVAL_ROLE ( '' ) ;
#143 = DIRECTION ( 'NONE',  ( 0.000000000000000000, 0.000000000000000000, 1.000000000000000000 ) ) ;
#144 = CARTESIAN_POINT ( 'NONE',  ( 434.1715341869140730, 0.000000000000000000, -1.256802719114607028E-13 ) ) ;
#145 = EDGE_LOOP ( 'NONE', ( #504, #237, #125, #74 ) ) ;
#146 = ADVANCED_FACE ( 'NONE', ( #847 ), #1141, .F. ) ;
#147 = ORIENTED_EDGE ( 'NONE', *, *, #768, .T. ) ;
#148 = CARTESIAN_POINT ( 'NONE',  ( 435.8816349035423627, 0.000000000000000000, -39.75000000000008527 ) ) ;
#149 = DIRECTION ( 'NONE',  ( -0.000000000000000000, -1.000000000000000000, -0.000000000000000000 ) ) ;
#150 = ORIENTED_EDGE ( 'NONE', *, *, #437, .F. ) ;
#151 = AXIS2_PLACEMENT_3D ( 'NONE', #880, #1078, #143 ) ;
#152 = VERTEX_POINT ( 'NONE', #1097 ) ;
#153 = VECTOR ( 'NONE', #586, 1000.000000000000000 ) ;
#154 = AXIS2_PLACEMENT_3D ( 'NONE', #816, #715, #989 ) ;
#155 = EDGE_CURVE ( 'NONE', #823, #1185, #11, .T. ) ;
#156 = CYLINDRICAL_SURFACE ( 'NONE', #777, 39.75000000000000000 ) ;
#157 = DIRECTION ( 'NONE',  ( 1.836970198721029934E-16, -0.000000000000000000, 1.000000000000000000 ) ) ;
#158 = ORIENTED_EDGE ( 'NONE', *, *, #848, .T. ) ;
#159 = DIRECTION ( 'NONE',  ( 0.9396926207859112035, 0.000000000000000000, -0.3420201433256609413 ) ) ;
#160 = ORIENTED_EDGE ( 'NONE', *, *, #216, .F. ) ;
#161 = VECTOR ( 'NONE', #1084, 1000.000000000000000 ) ;
#162 = CARTESIAN_POINT ( 'NONE',  ( 0.000000000000000000, 0.000000000000000000, 0.000000000000000000 ) ) ;
#163 = ADVANCED_FACE ( 'NONE', ( #204 ), #773, .F. ) ;
#164 = AXIS2_PLACEMENT_3D ( 'NONE', #987, #813, #241 ) ;
#165 = FACE_OUTER_BOUND ( 'NONE', #1076, .T. ) ;
#166 = CARTESIAN_POINT ( 'NONE',  ( -500.0000000000000000, 4.469960816887838430E-15, 36.50000000000000000 ) ) ;
#167 = ORIENTED_EDGE ( 'NONE', *, *, #491, .T. ) ;
#168 = ADVANCED_FACE ( 'NONE', ( #396 ), #1158, .T. ) ;
#169 = PERSON_AND_ORGANIZATION ( #500, #373 ) ;
#170 = DIRECTION ( 'NONE',  ( -1.000000000000000000, -0.000000000000000000, 1.836970198721029688E-16 ) ) ;
#171 = CARTESIAN_POINT ( 'NONE',  ( -500.0000000000000000, 0.000000000000000000, -38.00000000000000000 ) ) ;
#172 = DIRECTION ( 'NONE',  ( 1.000000000000000000, 0.000000000000000000, -1.836970198721029688E-16 ) ) ;
#173 = EDGE_CURVE ( 'NONE', #69, #113, #645, .T. ) ;
#174 = ORIENTED_EDGE ( 'NONE', *, *, #651, .F. ) ;
#175 = CIRCLE ( 'NONE', #1047, 38.00000000000000000 ) ;
#176 = CARTESIAN_POINT ( 'NONE',  ( 500.0000000000000000, -2.250000000000000000, -39.75000000000009237 ) ) ;
#177 = DIRECTION ( 'NONE',  ( -0.000000000000000000, 1.000000000000000000, 0.000000000000000000 ) ) ;
#178 = EDGE_CURVE ( 'NONE', #606, #502, #757, .T. ) ;
#179 = VERTEX_POINT ( 'NONE', #311 ) ;
#180 = SECURITY_CLASSIFICATION ( '', '', #71 ) ;
#181 = LINE ( 'NONE', #462, #609 ) ;
#182 = DIRECTION ( 'NONE',  ( 0.000000000000000000, 0.000000000000000000, -1.000000000000000000 ) ) ;
#183 = CARTESIAN_POINT ( 'NONE',  ( 434.1715341869140730, 4.831043407150992438E-15, 39.44846310392948396 ) ) ;
#184 = VERTEX_POINT ( 'NONE', #389 ) ;
#185 = EDGE_CURVE ( 'NONE', #179, #30, #423, .T. ) ;
#186 = DIRECTION ( 'NONE',  ( 0.000000000000000000, -0.000000000000000000, 1.000000000000000000 ) ) ;
#187 = CARTESIAN_POINT ( 'NONE',  ( 474.0000000000000000, -39.68626966596885808, 2.249999999999920952 ) ) ;
#188 = CARTESIAN_POINT ( 'NONE',  ( 435.0000000000000000, 38.18376618407356204, -2.250000000000070610 ) ) ;
#189 = ORIENTED_EDGE ( 'NONE', *, *, #696, .F. ) ;
#190 = AXIS2_PLACEMENT_3D ( 'NONE', #675, #381, #1042 ) ;
#191 = CALENDAR_DATE ( 2026, 16, 9 ) ;
#192 = EDGE_CURVE ( 'NONE', #1021, #64, #818, .T. ) ;
#193 = DIRECTION ( 'NONE',  ( 1.836970198721029688E-16, 0.000000000000000000, 1.000000000000000000 ) ) ;
#194 = CARTESIAN_POINT ( 'NONE',  ( 435.0000000000000000, 2.249999999999999112, -39.68626966596893624 ) ) ;
#195 = CARTESIAN_POINT ( 'NONE',  ( 435.8816349035423627, 0.000000000000000000, -1.259944123167864857E-13 ) ) ;
#196 = DIRECTION ( 'NONE',  ( 0.000000000000000000, -1.224646799147352961E-16, 1.000000000000000000 ) ) ;
#197 = ORIENTED_EDGE ( 'NONE', *, *, #430, .F. ) ;
#198 = DIRECTION ( 'NONE',  ( 0.000000000000000000, 0.000000000000000000, 1.000000000000000000 ) ) ;
#199 = AXIS2_PLACEMENT_3D ( 'NONE', #438, #1080, #265 ) ;
#200 = CARTESIAN_POINT ( 'NONE',  ( 474.0000000000000000, 0.000000000000000000, -8.707238741937680393E-14 ) ) ;
#201 = VERTEX_POINT ( 'NONE', #483 ) ;
#202 = EDGE_LOOP ( 'NONE', ( #971, #793, #656, #855 ) ) ;
#203 =( NAMED_UNIT ( * ) PLANE_ANGLE_UNIT ( ) SI_UNIT ( $, .RADIAN. ) );
#204 = FACE_OUTER_BOUND ( 'NONE', #1174, .T. ) ;
#205 = CARTESIAN_POINT ( 'NONE',  ( 500.0000000000000000, 2.250000000000000000, -39.68626966596895045 ) ) ;
#206 = ADVANCED_FACE ( 'NONE', ( #122 ), #309, .T. ) ;
#207 = ORIENTED_EDGE ( 'NONE', *, *, #460, .F. ) ;
#208 = VERTEX_POINT ( 'NONE', #865 ) ;
#209 = APPLICATION_CONTEXT ( 'configuration controlled 3d designs of mechanical parts and assemblies' ) ;
#210 = CIRCLE ( 'NONE', #151, 39.75000000000000000 ) ;
#211 = CARTESIAN_POINT ( 'NONE',  ( -500.0000000000000000, 0.000000000000000000, 0.000000000000000000 ) ) ;
#212 = AXIS2_PLACEMENT_3D ( 'NONE', #620, #327, #274 ) ;
#213 = DIRECTION ( 'NONE',  ( 1.836970198721029934E-16, -0.000000000000000000, 1.000000000000000000 ) ) ;
#214 = ORIENTED_EDGE ( 'NONE', *, *, #1069, .T. ) ;
#215 = CYLINDRICAL_SURFACE ( 'NONE', #97, 39.75000000000000000 ) ;
#216 = EDGE_CURVE ( 'NONE', #352, #335, #445, .T. ) ;
#217 = DIRECTION ( 'NONE',  ( 1.000000000000000000, 0.000000000000000000, -1.836970198721029688E-16 ) ) ;
#218 = CIRCLE ( 'NONE', #32, 38.25000000000000000 ) ;
#219 = DIRECTION ( 'NONE',  ( 1.000000000000000000, 0.000000000000000000, -1.836970198721029688E-16 ) ) ;
#220 = ORIENTED_EDGE ( 'NONE', *, *, #509, .F. ) ;
#221 = CIRCLE ( 'NONE', #689, 38.00000000000000000 ) ;
#222 = EDGE_CURVE ( 'NONE', #208, #86, #393, .T. ) ;
#223 = EDGE_CURVE ( 'NONE', #335, #242, #488, .T. ) ;
#224 = DIRECTION ( 'NONE',  ( -0.000000000000000000, -1.000000000000000000, -0.000000000000000000 ) ) ;
#225 = CARTESIAN_POINT ( 'NONE',  ( 474.0000000000000000, 2.250000000000000000, 39.68626966596875860 ) ) ;
#226 = DIRECTION ( 'NONE',  ( 0.000000000000000000, -1.687538997430237941E-14, 1.000000000000000000 ) ) ;
#227 = VERTEX_POINT ( 'NONE', #293 ) ;
#228 = FACE_OUTER_BOUND ( 'NONE', #508, .T. ) ;
#229 = PERSON_AND_ORGANIZATION ( #500, #373 ) ;
#230 = CARTESIAN_POINT ( 'NONE',  ( 500.0000000000000000, 0.000000000000000000, -1.836970198721029747E-13 ) ) ;
#231 = AXIS2_PLACEMENT_3D ( 'NONE', #853, #28, #304 ) ;
#232 = DIRECTION ( 'NONE',  ( 1.836970198721029688E-16, 0.000000000000000000, 1.000000000000000000 ) ) ;
#233 = EDGE_LOOP ( 'NONE', ( #189, #543, #767, #466 ) ) ;
#234 = FACE_OUTER_BOUND ( 'NONE', #867, .T. ) ;
#235 = CIRCLE ( 'NONE', #402, 38.03892417275079652 ) ;
#236 = CIRCLE ( 'NONE', #923, 38.25000000000000000 ) ;
#237 = ORIENTED_EDGE ( 'NONE', *, *, #446, .T. ) ;
#238 = PERSON_AND_ORGANIZATION ( #500, #373 ) ;
#239 = APPROVAL_STATUS ( 'not_yet_approved' ) ;
#240 = DIRECTION ( 'NONE',  ( 1.000000000000000000, 0.000000000000000000, -1.836970198721029688E-16 ) ) ;
#241 = DIRECTION ( 'NONE',  ( 0.000000000000000000, 0.000000000000000000, -1.000000000000000000 ) ) ;
#242 = VERTEX_POINT ( 'NONE', #756 ) ;
#243 = CARTESIAN_POINT ( 'NONE',  ( 435.0000000000000000, -38.18376618407356204, -2.250000000000070610 ) ) ;
#244 = ORIENTED_EDGE ( 'NONE', *, *, #913, .F. ) ;
#245 = CARTESIAN_POINT ( 'NONE',  ( 500.0000000000000000, 0.000000000000000000, -1.836970198721029747E-13 ) ) ;
#246 = CARTESIAN_POINT ( 'NONE',  ( 474.0000000000000000, 0.000000000000000000, -8.707238741937680393E-14 ) ) ;
#247 = DIRECTION ( 'NONE',  ( 1.000000000000000000, -0.000000000000000000, -1.836970198721029688E-16 ) ) ;
#248 = ADVANCED_FACE ( 'NONE', ( #1131 ), #991, .F. ) ;
#249 = ORIENTED_EDGE ( 'NONE', *, *, #404, .T. ) ;
#250 = DATE_AND_TIME ( #617, #1110 ) ;
#251 = CYLINDRICAL_SURFACE ( 'NONE', #366, 36.50000000000000000 ) ;
#252 = PLANE ( 'NONE',  #139 ) ;
#253 = ORIENTED_EDGE ( 'NONE', *, *, #1037, .F. ) ;
#254 = ORIENTED_EDGE ( 'NONE', *, *, #1149, .T. ) ;
#255 = EDGE_CURVE ( 'NONE', #904, #152, #63, .T. ) ;
#256 = AXIS2_PLACEMENT_3D ( 'NONE', #688, #830, #1173 ) ;
#257 = DIRECTION ( 'NONE',  ( 1.000000000000000000, 0.000000000000000000, -1.836970198721029688E-16 ) ) ;
#258 = DIRECTION ( 'NONE',  ( 1.836970198721033878E-16, 0.000000000000000000, 1.000000000000000000 ) ) ;
#259 = DIRECTION ( 'NONE',  ( -1.000000000000000000, -0.000000000000000000, 1.836970198721029688E-16 ) ) ;
#260 = ORIENTED_EDGE ( 'NONE', *, *, #491, .F. ) ;
#261 = VECTOR ( 'NONE', #553, 1000.000000000000000 ) ;
#262 = PERSON_AND_ORGANIZATION ( #500, #373 ) ;
#263 = VECTOR ( 'NONE', #117, 1000.000000000000000 ) ;
#264 = EDGE_CURVE ( 'NONE', #1044, #775, #24, .T. ) ;
#265 = DIRECTION ( 'NONE',  ( 0.000000000000000000, 0.000000000000000000, -1.000000000000000000 ) ) ;
#266 = LINE ( 'NONE', #463, #1088 ) ;
#267 = ORIENTED_EDGE ( 'NONE', *, *, #1153, .F. ) ;
#268 = DIRECTION ( 'NONE',  ( 1.000000000000000000, 0.000000000000000000, -1.836970198721029688E-16 ) ) ;
#269 = CARTESIAN_POINT ( 'NONE',  ( 430.1919145159540676, 4.653657836759941941E-15, 37.99999999999982236 ) ) ;
#270 = FACE_OUTER_BOUND ( 'NONE', #803, .T. ) ;
#271 = ORIENTED_EDGE ( 'NONE', *, *, #192, .T. ) ;
#272 = AXIS2_PLACEMENT_3D ( 'NONE', #539, #177, #842 ) ;
#273 = CIRCLE ( 'NONE', #426, 39.75000000000000000 ) ;
#274 = DIRECTION ( 'NONE',  ( 0.000000000000000000, 2.309263891220325289E-14, 1.000000000000000000 ) ) ;
#275 = DIRECTION ( 'NONE',  ( 1.000000000000000000, 0.000000000000000000, -1.836970198721029688E-16 ) ) ;
#276 = ORIENTED_EDGE ( 'NONE', *, *, #760, .T. ) ;
#277 = VECTOR ( 'NONE', #98, 1000.000000000000000 ) ;
#278 = CALENDAR_DATE ( 2026, 16, 9 ) ;
#279 = DIRECTION ( 'NONE',  ( 1.000000000000000000, 0.000000000000000000, -1.836970198721029688E-16 ) ) ;
#280 = PLANE ( 'NONE',  #1127 ) ;
#281 = DIRECTION ( 'NONE',  ( -1.000000000000000000, -0.000000000000000000, 1.836970198721033878E-16 ) ) ;
#282 = ORIENTED_EDGE ( 'NONE', *, *, #371, .T. ) ;
#283 = ADVANCED_FACE ( 'NONE', ( #752 ), #27, .T. ) ;
#284 = CARTESIAN_POINT ( 'NONE',  ( 474.0000000000000000, 38.18376618407356204, 2.249999999999920952 ) ) ;
#285 = DIRECTION ( 'NONE',  ( 2.249639673992791612E-32, 1.000000000000000000, 1.224646799147353207E-16 ) ) ;
#286 = ADVANCED_BREP_SHAPE_REPRESENTATION ( '79-8541 - 76mm x 1000mm', ( #868, #487 ), #433 ) ;
#287 = ORIENTED_EDGE ( 'NONE', *, *, #223, .F. ) ;
#288 = AXIS2_PLACEMENT_3D ( 'NONE', #200, #573, #949 ) ;
#289 = AXIS2_PLACEMENT_3D ( 'NONE', #81, #654, #839 ) ;
#290 = DIRECTION ( 'NONE',  ( -1.000000000000000000, -0.000000000000000000, 1.836970198721029688E-16 ) ) ;
#291 = CIRCLE ( 'NONE', #973, 6.499999999999999112 ) ;
#292 = DIRECTION ( 'NONE',  ( 1.000000000000000000, 0.000000000000000000, -1.836970198721029688E-16 ) ) ;
#293 = CARTESIAN_POINT ( 'NONE',  ( 474.0000000000000000, 4.867971026610729239E-15, 39.74999999999990763 ) ) ;
#294 = EDGE_LOOP ( 'NONE', ( #1048, #597, #982, #442 ) ) ;
#295 = ORIENTED_EDGE ( 'NONE', *, *, #499, .F. ) ;
#296 = CC_DESIGN_PERSON_AND_ORGANIZATION_ASSIGNMENT ( #367, #564, ( #180 ) ) ;
#297 = ADVANCED_FACE ( 'NONE', ( #1122 ), #1038, .F. ) ;
#298 = AXIS2_PLACEMENT_3D ( 'NONE', #903, #1171, #1002 ) ;
#299 =( LENGTH_UNIT ( ) NAMED_UNIT ( * ) SI_UNIT ( .MILLI., .METRE. ) );
#300 = ADVANCED_FACE ( 'NONE', ( #794 ), #251, .F. ) ;
#301 = DIRECTION ( 'NONE',  ( 0.000000000000000000, 0.000000000000000000, 1.000000000000000000 ) ) ;
#302 = ORIENTED_EDGE ( 'NONE', *, *, #305, .F. ) ;
#303 = ORIENTED_EDGE ( 'NONE', *, *, #636, .T. ) ;
#304 = DIRECTION ( 'NONE',  ( 0.000000000000000000, 0.000000000000000000, -1.000000000000000000 ) ) ;
#305 = EDGE_CURVE ( 'NONE', #623, #785, #780, .T. ) ;
#306 = LINE ( 'NONE', #680, #944 ) ;
#307 = EDGE_LOOP ( 'NONE', ( #420, #530, #68, #249 ) ) ;
#308 = DIRECTION ( 'NONE',  ( -1.000000000000000000, -0.000000000000000000, 1.836970198721029688E-16 ) ) ;
#309 = CONICAL_SURFACE ( 'NONE', #540, 38.00000000000000000, 0.3490658503988574024 ) ;
#310 = VECTOR ( 'NONE', #290, 1000.000000000000000 ) ;
#311 = CARTESIAN_POINT ( 'NONE',  ( 429.3102796124117617, 0.000000000000000000, -38.00000000000017053 ) ) ;
#312 = CLOSED_SHELL ( 'NONE', ( #146, #168, #779, #163, #283, #41, #206, #567, #897, #622, #382, #85, #419, #377, #1161, #720, #562, #859, #120, #440, #587, #300, #248, #644, #391, #339, #106, #958, #36, #551, #1012, #92, #784, #1005, #975, #667, #297 ) ) ;
#313 = LINE ( 'NONE', #49, #749 ) ;
#314 = EDGE_CURVE ( 'NONE', #113, #410, #808, .T. ) ;
#315 = AXIS2_PLACEMENT_3D ( 'NONE', #732, #737, #1191 ) ;
#316 = ORIENTED_EDGE ( 'NONE', *, *, #8, .F. ) ;
#317 = LINE ( 'NONE', #243, #902 ) ;
#318 = LINE ( 'NONE', #114, #88 ) ;
#319 = DIRECTION ( 'NONE',  ( 1.000000000000000000, 0.000000000000000000, -1.836970198721029688E-16 ) ) ;
#320 = CARTESIAN_POINT ( 'NONE',  ( 500.0000000000000000, 39.75000000000000000, 2.249999999999916067 ) ) ;
#321 = ORIENTED_EDGE ( 'NONE', *, *, #916, .F. ) ;
#322 = AXIS2_PLACEMENT_3D ( 'NONE', #42, #417, #226 ) ;
#323 = ORIENTED_EDGE ( 'NONE', *, *, #138, .T. ) ;
#324 = EDGE_CURVE ( 'NONE', #30, #179, #175, .T. ) ;
#325 = DIRECTION ( 'NONE',  ( 1.000000000000000000, 0.000000000000000000, -1.836970198721029688E-16 ) ) ;
#326 = FACE_OUTER_BOUND ( 'NONE', #1040, .T. ) ;
#327 = DIRECTION ( 'NONE',  ( 1.000000000000000000, -0.000000000000000000, -1.836970198721029688E-16 ) ) ;
#328 = DIRECTION ( 'NONE',  ( 0.000000000000000000, 0.000000000000000000, -1.000000000000000000 ) ) ;
#329 = ORIENTED_EDGE ( 'NONE', *, *, #814, .T. ) ;
#330 = CC_DESIGN_PERSON_AND_ORGANIZATION_ASSIGNMENT ( #229, #527, ( #454 ) ) ;
#331 = APPROVAL_ROLE ( '' ) ;
#332 = CARTESIAN_POINT ( 'NONE',  ( 474.0000000000000000, 39.75000000000000000, -2.250000000000078604 ) ) ;
#333 = AXIS2_PLACEMENT_3D ( 'NONE', #710, #517, #407 ) ;
#334 = CARTESIAN_POINT ( 'NONE',  ( 474.0000000000000000, 0.000000000000000000, -8.707238741937679131E-14 ) ) ;
#335 = VERTEX_POINT ( 'NONE', #148 ) ;
#336 = ORIENTED_EDGE ( 'NONE', *, *, #305, .T. ) ;
#337 = DIRECTION ( 'NONE',  ( 1.836970198721033878E-16, 0.000000000000000000, 1.000000000000000000 ) ) ;
#338 = LINE ( 'NONE', #354, #739 ) ;
#339 = ADVANCED_FACE ( 'NONE', ( #969 ), #60, .F. ) ;
#340 = CARTESIAN_POINT ( 'NONE',  ( 500.0000000000000000, -2.250000000000000000, -39.75000000000009237 ) ) ;
#341 = ORIENTED_EDGE ( 'NONE', *, *, #1037, .T. ) ;
#342 = ORIENTED_EDGE ( 'NONE', *, *, #824, .T. ) ;
#343 = FACE_OUTER_BOUND ( 'NONE', #634, .T. ) ;
#344 = FACE_OUTER_BOUND ( 'NONE', #676, .T. ) ;
#345 = ORIENTED_EDGE ( 'NONE', *, *, #8, .T. ) ;
#346 = EDGE_LOOP ( 'NONE', ( #108, #147, #150, #260, #91, #513 ) ) ;
#347 = CARTESIAN_POINT ( 'NONE',  ( 431.5334105440285839, 0.000000000000000000, -1.711199114282342698E-13 ) ) ;
#348 = EDGE_CURVE ( 'NONE', #335, #352, #210, .T. ) ;
#349 = EDGE_LOOP ( 'NONE', ( #962, #271, #494, #701 ) ) ;
#350 = AXIS2_PLACEMENT_3D ( 'NONE', #195, #568, #943 ) ;
#351 = TOROIDAL_SURFACE ( 'NONE', #972, 43.00000000000000000, 5.000000000000000000 ) ;
#352 = VERTEX_POINT ( 'NONE', #901 ) ;
#353 = EDGE_CURVE ( 'NONE', #134, #629, #520, .T. ) ;
#354 = CARTESIAN_POINT ( 'NONE',  ( 435.0000000000000000, 2.249999999999999112, -38.18376618407364020 ) ) ;
#355 = FACE_OUTER_BOUND ( 'NONE', #716, .T. ) ;
#356 = CARTESIAN_POINT ( 'NONE',  ( 500.0000000000000000, -2.250000000000000000, 39.68626966596877992 ) ) ;
#357 = ORIENTED_EDGE ( 'NONE', *, *, #934, .T. ) ;
#358 = DIRECTION ( 'NONE',  ( 1.836970198721029934E-16, -0.000000000000000000, 1.000000000000000000 ) ) ;
#359 = CARTESIAN_POINT ( 'NONE',  ( 474.0000000000000000, -38.18376618407356204, 2.249999999999920952 ) ) ;
#360 = FACE_OUTER_BOUND ( 'NONE', #372, .T. ) ;
#361 = ORIENTED_EDGE ( 'NONE', *, *, #3, .F. ) ;
#362 = LINE ( 'NONE', #455, #900 ) ;
#363 = DIRECTION ( 'NONE',  ( 1.000000000000000000, -0.000000000000000000, -1.836970198721029688E-16 ) ) ;
#364 = DIRECTION ( 'NONE',  ( -0.000000000000000000, 1.000000000000000000, 0.000000000000000000 ) ) ;
#365 = ORIENTED_EDGE ( 'NONE', *, *, #546, .T. ) ;
#366 = AXIS2_PLACEMENT_3D ( 'NONE', #1155, #240, #1169 ) ;
#367 = PERSON_AND_ORGANIZATION ( #500, #373 ) ;
#368 = CARTESIAN_POINT ( 'NONE',  ( 429.3102796124117617, 0.000000000000000000, -1.707115289013109590E-13 ) ) ;
#369 = LINE ( 'NONE', #751, #549 ) ;
#370 = DIRECTION ( 'NONE',  ( 0.000000000000000000, -0.000000000000000000, 1.000000000000000000 ) ) ;
#371 = EDGE_CURVE ( 'NONE', #812, #531, #685, .T. ) ;
#372 = EDGE_LOOP ( 'NONE', ( #1128, #1159, #295, #910 ) ) ;
#373 = ORGANIZATION ( 'UNSPECIFIED', 'UNSPECIFIED', '' ) ;
#374 = CARTESIAN_POINT ( 'NONE',  ( 474.0000000000000000, 2.250000000000000000, -39.75000000000008527 ) ) ;
#375 = LINE ( 'NONE', #269, #1019 ) ;
#376 = CARTESIAN_POINT ( 'NONE',  ( 435.8816349035423627, 0.000000000000000000, 34.74999999999992184 ) ) ;
#377 = ADVANCED_FACE ( 'NONE', ( #343 ), #1083, .T. ) ;
#378 = ORIENTED_EDGE ( 'NONE', *, *, #768, .F. ) ;
#379 = DIRECTION ( 'NONE',  ( -1.000000000000000000, -0.000000000000000000, 1.836970198721033878E-16 ) ) ;
#380 = LINE ( 'NONE', #473, #571 ) ;
#381 = DIRECTION ( 'NONE',  ( 1.000000000000000000, 0.000000000000000000, -1.836970198721029688E-16 ) ) ;
#382 = ADVANCED_FACE ( 'NONE', ( #528 ), #156, .T. ) ;
#383 = ORIENTED_EDGE ( 'NONE', *, *, #1149, .F. ) ;
#384 = EDGE_CURVE ( 'NONE', #179, #556, #841, .T. ) ;
#385 = EDGE_CURVE ( 'NONE', #785, #838, #1179, .T. ) ;
#386 = VECTOR ( 'NONE', #170, 1000.000000000000000 ) ;
#387 = AXIS2_PLACEMENT_3D ( 'NONE', #1081, #247, #1148 ) ;
#388 = VECTOR ( 'NONE', #976, 1000.000000000000000 ) ;
#389 = CARTESIAN_POINT ( 'NONE',  ( 431.5334105440285839, 0.000000000000000000, -36.89199796489175753 ) ) ;
#390 = ORIENTED_EDGE ( 'NONE', *, *, #1130, .F. ) ;
#391 = ADVANCED_FACE ( 'NONE', ( #885 ), #759, .F. ) ;
#392 = CIRCLE ( 'NONE', #1077, 36.50000000000000000 ) ;
#393 = LINE ( 'NONE', #37, #1121 ) ;
#394 = DIRECTION ( 'NONE',  ( -1.836970198721029688E-16, 0.000000000000000000, -1.000000000000000000 ) ) ;
#395 = ORIENTED_EDGE ( 'NONE', *, *, #192, .F. ) ;
#396 = FACE_OUTER_BOUND ( 'NONE', #1125, .T. ) ;
#397 = DIRECTION ( 'NONE',  ( 0.000000000000000000, 0.000000000000000000, 1.000000000000000000 ) ) ;
#398 = ORIENTED_EDGE ( 'NONE', *, *, #729, .F. ) ;
#399 = CARTESIAN_POINT ( 'NONE',  ( 435.8816349035423627, 0.000000000000000000, -38.25000000000008527 ) ) ;
#400 = ORIENTED_EDGE ( 'NONE', *, *, #421, .T. ) ;
#401 = LINE ( 'NONE', #697, #1010 ) ;
#402 = AXIS2_PLACEMENT_3D ( 'NONE', #51, #791, #714 ) ;
#403 = CARTESIAN_POINT ( 'NONE',  ( 474.0000000000000000, 2.250000000000000000, -39.75000000000008527 ) ) ;
#404 = EDGE_CURVE ( 'NONE', #69, #1063, #401, .T. ) ;
#405 = ORIENTED_EDGE ( 'NONE', *, *, #385, .F. ) ;
#406 = ORIENTED_EDGE ( 'NONE', *, *, #598, .T. ) ;
#407 = DIRECTION ( 'NONE',  ( 0.000000000000000000, -0.000000000000000000, 1.000000000000000000 ) ) ;
#408 = AXIS2_PLACEMENT_3D ( 'NONE', #931, #1114, #198 ) ;
#409 = CARTESIAN_POINT ( 'NONE',  ( 500.0000000000000000, 2.250000000000000000, -39.75000000000009237 ) ) ;
#410 = VERTEX_POINT ( 'NONE', #703 ) ;
#411 = CARTESIAN_POINT ( 'NONE',  ( 435.8816349035423627, 0.000000000000000000, -1.259944123167864857E-13 ) ) ;
#412 = VERTEX_POINT ( 'NONE', #225 ) ;
#413 = CALENDAR_DATE ( 2026, 16, 9 ) ;
#414 = PERSON_AND_ORGANIZATION_ROLE ( 'design_owner' ) ;
#415 = DIRECTION ( 'NONE',  ( 1.000000000000000000, -0.000000000000000000, -1.836970198721029688E-16 ) ) ;
#416 = COORDINATED_UNIVERSAL_TIME_OFFSET ( 1, 0, .AHEAD. ) ;
#417 = DIRECTION ( 'NONE',  ( 1.000000000000000000, -0.000000000000000000, -1.836970198721029688E-16 ) ) ;
#418 = ORIENTED_EDGE ( 'NONE', *, *, #72, .F. ) ;
#419 = ADVANCED_FACE ( 'NONE', ( #506 ), #595, .T. ) ;
#420 = ORIENTED_EDGE ( 'NONE', *, *, #515, .T. ) ;
#421 = EDGE_CURVE ( 'NONE', #1129, #502, #1123, .T. ) ;
#422 = DIRECTION ( 'NONE',  ( 0.000000000000000000, 0.000000000000000000, -1.000000000000000000 ) ) ;
#423 = CIRCLE ( 'NONE', #581, 38.00000000000000000 ) ;
#424 = DIRECTION ( 'NONE',  ( 1.000000000000000000, 0.000000000000000000, -1.836970198721038069E-16 ) ) ;
#425 = VECTOR ( 'NONE', #822, 1000.000000000000000 ) ;
#426 = AXIS2_PLACEMENT_3D ( 'NONE', #58, #1064, #1058 ) ;
#427 = EDGE_LOOP ( 'NONE', ( #693, #719, #336, #54, #951, #758, #1165, #345, #575, #365, #858, #869 ) ) ;
#428 = CIRCLE ( 'NONE', #65, 36.50000000000000000 ) ;
#429 = ORIENTED_EDGE ( 'NONE', *, *, #132, .F. ) ;
#430 = EDGE_CURVE ( 'NONE', #838, #1178, #338, .T. ) ;
#431 = DIRECTION ( 'NONE',  ( 0.000000000000000000, 2.753353101070388220E-14, 1.000000000000000000 ) ) ;
#432 = LINE ( 'NONE', #981, #807 ) ;
#433 =( GEOMETRIC_REPRESENTATION_CONTEXT ( 3 ) GLOBAL_UNCERTAINTY_ASSIGNED_CONTEXT ( ( #762 ) ) GLOBAL_UNIT_ASSIGNED_CONTEXT ( ( #299, #203, #953 ) ) REPRESENTATION_CONTEXT ( 'NONE', 'WORKASPACE' ) );
#434 = ORIENTED_EDGE ( 'NONE', *, *, #916, .T. ) ;
#435 = ORIENTED_EDGE ( 'NONE', *, *, #1069, .F. ) ;
#436 = VECTOR ( 'NONE', #1136, 1000.000000000000000 ) ;
#437 = EDGE_CURVE ( 'NONE', #998, #140, #1079, .T. ) ;
#438 = CARTESIAN_POINT ( 'NONE',  ( 431.5334105440285839, 0.000000000000000000, -1.711199114282342698E-13 ) ) ;
#439 = ORIENTED_EDGE ( 'NONE', *, *, #546, .F. ) ;
#440 = ADVANCED_FACE ( 'NONE', ( #519 ), #351, .F. ) ;
#441 = DIRECTION ( 'NONE',  ( 0.000000000000000000, 0.000000000000000000, -1.000000000000000000 ) ) ;
#442 = ORIENTED_EDGE ( 'NONE', *, *, #3, .T. ) ;
#443 = DIRECTION ( 'NONE',  ( 1.000000000000000000, 0.000000000000000000, -1.836970198721029688E-16 ) ) ;
#444 = DIRECTION ( 'NONE',  ( 1.000000000000000000, 0.000000000000000000, -1.836970198721029688E-16 ) ) ;
#445 = CIRCLE ( 'NONE', #465, 39.75000000000000000 ) ;
#446 = EDGE_CURVE ( 'NONE', #335, #1015, #625, .T. ) ;
#447 = CIRCLE ( 'NONE', #1067, 38.25000000000000000 ) ;
#448 = ORIENTED_EDGE ( 'NONE', *, *, #809, .T. ) ;
#449 = CARTESIAN_POINT ( 'NONE',  ( 435.0000000000000000, -39.68626966596885097, -2.250000000000070610 ) ) ;
#450 = LINE ( 'NONE', #171, #123 ) ;
#451 = CARTESIAN_POINT ( 'NONE',  ( 500.0000000000000000, 0.000000000000000000, -9.184850993605148733E-14 ) ) ;
#452 = VECTOR ( 'NONE', #743, 1000.000000000000000 ) ;
#453 = ORIENTED_EDGE ( 'NONE', *, *, #476, .T. ) ;
#454 = PRODUCT_DEFINITION ( 'UNKNOWN', '', #1016, #864 ) ;
#455 = CARTESIAN_POINT ( 'NONE',  ( 500.0000000000000000, 2.250000000000000000, -39.75000000000009237 ) ) ;
#456 = CARTESIAN_POINT ( 'NONE',  ( 500.0000000000000000, 0.000000000000000000, -1.836970198721029747E-13 ) ) ;
#457 = PLANE ( 'NONE',  #899 ) ;
#458 = ORIENTED_EDGE ( 'NONE', *, *, #53, .T. ) ;
#459 = APPROVAL_DATE_TIME ( #1104, #657 ) ;
#460 = EDGE_CURVE ( 'NONE', #775, #410, #930, .T. ) ;
#461 = CARTESIAN_POINT ( 'NONE',  ( 431.0203803290401083, 4.760814431685342295E-15, 38.30153689607026735 ) ) ;
#462 = CARTESIAN_POINT ( 'NONE',  ( 435.0000000000000000, -39.68626966596885097, 2.249999999999927613 ) ) ;
#463 = CARTESIAN_POINT ( 'NONE',  ( 435.0000000000000000, 4.867971026610729239E-15, 39.74999999999991473 ) ) ;
#464 = DIRECTION ( 'NONE',  ( 1.836970198721029688E-16, 0.000000000000000000, 1.000000000000000000 ) ) ;
#465 = AXIS2_PLACEMENT_3D ( 'NONE', #763, #857, #661 ) ;
#466 = ORIENTED_EDGE ( 'NONE', *, *, #908, .T. ) ;
#467 = AXIS2_PLACEMENT_3D ( 'NONE', #974, #136, #55 ) ;
#468 = PRODUCT ( '79-8541 - 76mm x 1000mm', '79-8541 - 76mm x 1000mm', '', ( #806 ) ) ;
#469 = DIRECTION ( 'NONE',  ( -1.000000000000000000, -0.000000000000000000, 1.836970198721029688E-16 ) ) ;
#470 = CARTESIAN_POINT ( 'NONE',  ( 429.3102796124117617, 0.000000000000000000, -36.50000000000017053 ) ) ;
#471 = VERTEX_POINT ( 'NONE', #22 ) ;
#472 = AXIS2_PLACEMENT_3D ( 'NONE', #347, #424, #529 ) ;
#473 = CARTESIAN_POINT ( 'NONE',  ( -500.0000000000000000, 4.653657836759941941E-15, 38.00000000000000000 ) ) ;
#474 = APPROVAL ( #992, 'UNSPECIFIED' ) ;
#475 = DIRECTION ( 'NONE',  ( 0.000000000000000000, 0.000000000000000000, -1.000000000000000000 ) ) ;
#476 = EDGE_CURVE ( 'NONE', #823, #1178, #362, .T. ) ;
#477 = ORIENTED_EDGE ( 'NONE', *, *, #908, .F. ) ;
#478 = DIRECTION ( 'NONE',  ( -0.000000000000000000, -1.000000000000000000, -0.000000000000000000 ) ) ;
#479 = DIRECTION ( 'NONE',  ( 1.000000000000000000, 0.000000000000000000, -1.836970198721038069E-16 ) ) ;
#480 = ORIENTED_EDGE ( 'NONE', *, *, #20, .T. ) ;
#481 = ORIENTED_EDGE ( 'NONE', *, *, #1071, .F. ) ;
#482 = CONICAL_SURFACE ( 'NONE', #959, 36.59046106882113492, 0.3490658503988574024 ) ;
#483 = CARTESIAN_POINT ( 'NONE',  ( 474.0000000000000000, 2.250000000000000000, -39.68626966596894334 ) ) ;
#484 = FACE_BOUND ( 'NONE', #119, .T. ) ;
#485 = VERTEX_POINT ( 'NONE', #461 ) ;
#486 = LOCAL_TIME ( 0, 3, 52.00000000000000000, #754 ) ;
#487 = AXIS2_PLACEMENT_3D ( 'NONE', #162, #615, #76 ) ;
#488 = LINE ( 'NONE', #870, #722 ) ;
#489 = DIRECTION ( 'NONE',  ( 0.000000000000000000, -1.000000000000000000, 0.000000000000000000 ) ) ;
#490 = ORIENTED_EDGE ( 'NONE', *, *, #1085, .F. ) ;
#491 = EDGE_CURVE ( 'NONE', #613, #998, #937, .T. ) ;
#492 = DIRECTION ( 'NONE',  ( 0.000000000000000000, 0.000000000000000000, -1.000000000000000000 ) ) ;
#493 = DIRECTION ( 'NONE',  ( 0.000000000000000000, 0.000000000000000000, -1.000000000000000000 ) ) ;
#494 = ORIENTED_EDGE ( 'NONE', *, *, #1001, .T. ) ;
#495 = VERTEX_POINT ( 'NONE', #755 ) ;
#496 = AXIS2_PLACEMENT_3D ( 'NONE', #66, #1142, #431 ) ;
#497 = VECTOR ( 'NONE', #469, 1000.000000000000000 ) ;
#498 = CARTESIAN_POINT ( 'NONE',  ( 435.0000000000000000, 0.000000000000000000, -38.25000000000008527 ) ) ;
#499 = EDGE_CURVE ( 'NONE', #495, #69, #825, .T. ) ;
#500 = PERSON ( 'UNSPECIFIED', 'UNSPECIFIED', 'UNSPECIFIED', ('UNSPECIFIED'), ('UNSPECIFIED'), ('UNSPECIFIED') ) ;
#501 = CARTESIAN_POINT ( 'NONE',  ( 435.0000000000000000, 2.249999999999999112, 39.68626966596877281 ) ) ;
#502 = VERTEX_POINT ( 'NONE', #15 ) ;
#503 = DIRECTION ( 'NONE',  ( 0.000000000000000000, 0.000000000000000000, -1.000000000000000000 ) ) ;
#504 = ORIENTED_EDGE ( 'NONE', *, *, #348, .F. ) ;
#505 = CARTESIAN_POINT ( 'NONE',  ( 500.0000000000000000, 39.68626966596885808, -2.250000000000083489 ) ) ;
#506 = FACE_OUTER_BOUND ( 'NONE', #574, .T. ) ;
#507 = DIRECTION ( 'NONE',  ( 0.000000000000000000, 0.000000000000000000, -1.000000000000000000 ) ) ;
#508 = EDGE_LOOP ( 'NONE', ( #158, #997, #25, #579 ) ) ;
#509 = EDGE_CURVE ( 'NONE', #699, #998, #1028, .T. ) ;
#510 = EDGE_LOOP ( 'NONE', ( #672, #342, #167, #220, #772, #75, #861, #46, #458, #174, #988, #302 ) ) ;
#511 = CARTESIAN_POINT ( 'NONE',  ( 429.3102796124117617, 5.265981236333618470E-15, -43.00000000000017053 ) ) ;
#512 = CARTESIAN_POINT ( 'NONE',  ( 434.1715341869140730, 0.000000000000000000, -39.44846310392983213 ) ) ;
#513 = ORIENTED_EDGE ( 'NONE', *, *, #711, .T. ) ;
#514 = EDGE_LOOP ( 'NONE', ( #524, #1133, #400, #34 ) ) ;
#515 = EDGE_CURVE ( 'NONE', #1063, #410, #664, .T. ) ;
#516 = PERSON_AND_ORGANIZATION_ROLE ( 'design_supplier' ) ;
#517 = DIRECTION ( 'NONE',  ( -0.000000000000000000, 1.000000000000000000, 0.000000000000000000 ) ) ;
#518 = APPLICATION_CONTEXT ( 'configuration controlled 3d designs of mechanical parts and assemblies' ) ;
#519 = FACE_OUTER_BOUND ( 'NONE', #887, .T. ) ;
#520 = CIRCLE ( 'NONE', #7, 39.75000000000000000 ) ;
#521 = CARTESIAN_POINT ( 'NONE',  ( 435.0000000000000000, 39.68626966596885097, 2.249999999999927613 ) ) ;
#522 = AXIS2_PLACEMENT_3D ( 'NONE', #1102, #650, #655 ) ;
#523 = AXIS2_PLACEMENT_3D ( 'NONE', #707, #797, #503 ) ;
#524 = ORIENTED_EDGE ( 'NONE', *, *, #1186, .T. ) ;
#525 = CIRCLE ( 'NONE', #256, 38.25000000000000000 ) ;
#526 = ORIENTED_EDGE ( 'NONE', *, *, #854, .F. ) ;
#527 = PERSON_AND_ORGANIZATION_ROLE ( 'creator' ) ;
#528 = FACE_OUTER_BOUND ( 'NONE', #79, .T. ) ;
#529 = DIRECTION ( 'NONE',  ( 0.000000000000000000, 0.000000000000000000, -1.000000000000000000 ) ) ;
#530 = ORIENTED_EDGE ( 'NONE', *, *, #314, .F. ) ;
#531 = VERTEX_POINT ( 'NONE', #846 ) ;
#532 = CARTESIAN_POINT ( 'NONE',  ( 500.0000000000000000, 38.18376618407356204, 2.249999999999916067 ) ) ;
#533 = FACE_OUTER_BOUND ( 'NONE', #748, .T. ) ;
#534 = CARTESIAN_POINT ( 'NONE',  ( 429.3102796124117617, 0.000000000000000000, -1.707115289013107570E-13 ) ) ;
#535 = EDGE_LOOP ( 'NONE', ( #1108, #771, #1116, #933, #100, #244, #896, #653, #851, #435, #112, #287 ) ) ;
#536 = CARTESIAN_POINT ( 'NONE',  ( 431.0203803290401083, 0.000000000000000000, -38.30153689607061551 ) ) ;
#537 = DIRECTION ( 'NONE',  ( 1.000000000000000000, 0.000000000000000000, -1.836970198721029934E-16 ) ) ;
#538 = EDGE_CURVE ( 'NONE', #623, #1129, #819, .T. ) ;
#539 = CARTESIAN_POINT ( 'NONE',  ( 474.0000000000000000, -2.250000000000000000, -39.75000000000008527 ) ) ;
#540 = AXIS2_PLACEMENT_3D ( 'NONE', #1115, #479, #105 ) ;
#541 = CARTESIAN_POINT ( 'NONE',  ( 430.7049447309425432, 0.000000000000000000, -36.59046106882130545 ) ) ;
#542 = AXIS2_PLACEMENT_3D ( 'NONE', #374, #1189, #186 ) ;
#543 = ORIENTED_EDGE ( 'NONE', *, *, #132, .T. ) ;
#544 = VECTOR ( 'NONE', #133, 1000.000000000000000 ) ;
#545 = DIRECTION ( 'NONE',  ( 2.249639673992791612E-32, 1.000000000000000000, 1.224646799147353207E-16 ) ) ;
#546 = EDGE_CURVE ( 'NONE', #925, #939, #447, .T. ) ;
#547 = CARTESIAN_POINT ( 'NONE',  ( -500.0000000000000000, 0.000000000000000000, -38.00000000000000000 ) ) ;
#548 = CC_DESIGN_APPROVAL ( #657, ( #180 ) ) ;
#549 = VECTOR ( 'NONE', #1120, 1000.000000000000227 ) ;
#550 = ORIENTED_EDGE ( 'NONE', *, *, #983, .F. ) ;
#551 = ADVANCED_FACE ( 'NONE', ( #920 ), #668, .F. ) ;
#552 = CARTESIAN_POINT ( 'NONE',  ( 500.0000000000000000, 0.000000000000000000, -9.184850993605148733E-14 ) ) ;
#553 = DIRECTION ( 'NONE',  ( -1.000000000000000000, -0.000000000000000000, 1.836970198721029688E-16 ) ) ;
#554 = CARTESIAN_POINT ( 'NONE',  ( 474.0000000000000000, -2.250000000000000000, -39.75000000000008527 ) ) ;
#555 = CARTESIAN_POINT ( 'NONE',  ( 500.0000000000000000, -2.250000000000000000, 38.18376618407346967 ) ) ;
#556 = VERTEX_POINT ( 'NONE', #536 ) ;
#557 = SHAPE_DEFINITION_REPRESENTATION ( #605, #286 ) ;
#558 = DIRECTION ( 'NONE',  ( 0.000000000000000000, 0.000000000000000000, -1.000000000000000000 ) ) ;
#559 = CARTESIAN_POINT ( 'NONE',  ( 474.0000000000000000, -2.250000000000000000, 39.68626966596875860 ) ) ;
#560 = AXIS2_PLACEMENT_3D ( 'NONE', #116, #110, #127 ) ;
#561 = VERTEX_POINT ( 'NONE', #750 ) ;
#562 = ADVANCED_FACE ( 'NONE', ( #1113 ), #730, .T. ) ;
#563 = AXIS2_PLACEMENT_3D ( 'NONE', #554, #364, #370 ) ;
#564 = PERSON_AND_ORGANIZATION_ROLE ( 'classification_officer' ) ;
#565 = EDGE_CURVE ( 'NONE', #412, #227, #273, .T. ) ;
#566 = DIRECTION ( 'NONE',  ( 1.000000000000000000, 0.000000000000000000, -1.836970198721029688E-16 ) ) ;
#567 = ADVANCED_FACE ( 'NONE', ( #228 ), #1145, .T. ) ;
#568 = DIRECTION ( 'NONE',  ( -1.000000000000000000, -0.000000000000000000, 1.836970198721033878E-16 ) ) ;
#569 = LINE ( 'NONE', #107, #845 ) ;
#570 = ORIENTED_EDGE ( 'NONE', *, *, #863, .F. ) ;
#571 = VECTOR ( 'NONE', #948, 1000.000000000000000 ) ;
#572 = CARTESIAN_POINT ( 'NONE',  ( 474.0000000000000000, 39.75000000000000000, 2.249999999999920952 ) ) ;
#573 = DIRECTION ( 'NONE',  ( -1.000000000000000000, 0.000000000000000000, 1.836970198721029688E-16 ) ) ;
#574 = EDGE_LOOP ( 'NONE', ( #883, #406, #640, #592 ) ) ;
#575 = ORIENTED_EDGE ( 'NONE', *, *, #1092, .T. ) ;
#576 = DIRECTION ( 'NONE',  ( -1.000000000000000000, -0.000000000000000000, 1.836970198721033878E-16 ) ) ;
#577 = DIRECTION ( 'NONE',  ( 1.000000000000000000, 0.000000000000000000, -1.836970198721029688E-16 ) ) ;
#578 = CC_DESIGN_DATE_AND_TIME_ASSIGNMENT ( #2, #641, ( #180 ) ) ;
#579 = ORIENTED_EDGE ( 'NONE', *, *, #1001, .F. ) ;
#580 = EDGE_LOOP ( 'NONE', ( #957, #395 ) ) ;
#581 = AXIS2_PLACEMENT_3D ( 'NONE', #1052, #576, #301 ) ;
#582 = CONICAL_SURFACE ( 'NONE', #315, 38.00000000000000000, 0.3490658503988574024 ) ;
#583 = DIRECTION ( 'NONE',  ( 1.836970198721034125E-16, 0.000000000000000000, 1.000000000000000000 ) ) ;
#584 = CARTESIAN_POINT ( 'NONE',  ( 435.8816349035423627, 0.000000000000000000, 34.74999999999992184 ) ) ;
#585 = ORIENTED_EDGE ( 'NONE', *, *, #353, .T. ) ;
#586 = DIRECTION ( 'NONE',  ( -0.000000000000000000, -1.000000000000000000, -0.000000000000000000 ) ) ;
#587 = ADVANCED_FACE ( 'NONE', ( #234 ), #1051, .T. ) ;
#588 = AXIS2_PLACEMENT_3D ( 'NONE', #1006, #358, #537 ) ;
#589 = DIRECTION ( 'NONE',  ( 0.000000000000000000, 0.000000000000000000, -1.000000000000000000 ) ) ;
#590 = AXIS2_PLACEMENT_3D ( 'NONE', #584, #489, #686 ) ;
#591 = CARTESIAN_POINT ( 'NONE',  ( 430.7049447309425432, 0.000000000000000000, -1.709677247273044438E-13 ) ) ;
#592 = ORIENTED_EDGE ( 'NONE', *, *, #476, .F. ) ;
#593 = ORIENTED_EDGE ( 'NONE', *, *, #744, .T. ) ;
#594 = CARTESIAN_POINT ( 'NONE',  ( 500.0000000000000000, 2.249999999999999112, -38.18376618407365441 ) ) ;
#595 = PLANE ( 'NONE',  #800 ) ;
#596 = LINE ( 'NONE', #403, #786 ) ;
#597 = ORIENTED_EDGE ( 'NONE', *, *, #630, .T. ) ;
#598 = EDGE_CURVE ( 'NONE', #1185, #607, #1150, .T. ) ;
#599 = AXIS2_PLACEMENT_3D ( 'NONE', #31, #1135, #583 ) ;
#600 = EDGE_CURVE ( 'NONE', #687, #1015, #1182, .T. ) ;
#601 = DIRECTION ( 'NONE',  ( -1.836970198721029688E-16, 0.000000000000000000, -1.000000000000000000 ) ) ;
#602 = VECTOR ( 'NONE', #871, 1000.000000000000114 ) ;
#603 = EDGE_CURVE ( 'NONE', #1044, #113, #317, .T. ) ;
#604 = DIRECTION ( 'NONE',  ( 1.000000000000000000, 0.000000000000000000, -1.836970198721029688E-16 ) ) ;
#605 = PRODUCT_DEFINITION_SHAPE ( 'NONE', 'NONE',  #454 ) ;
#606 = VERTEX_POINT ( 'NONE', #683 ) ;
#607 = VERTEX_POINT ( 'NONE', #44 ) ;
#608 = APPROVAL_DATE_TIME ( #702, #474 ) ;
#609 = VECTOR ( 'NONE', #942, 1000.000000000000000 ) ;
#610 = CC_DESIGN_APPROVAL ( #474, ( #1016 ) ) ;
#611 = CARTESIAN_POINT ( 'NONE',  ( 435.0000000000000000, 0.000000000000000000, -7.990820364436478514E-14 ) ) ;
#612 = DIRECTION ( 'NONE',  ( 1.836970198721029688E-16, 0.000000000000000000, 1.000000000000000000 ) ) ;
#613 = VERTEX_POINT ( 'NONE', #700 ) ;
#614 = ORIENTED_EDGE ( 'NONE', *, *, #983, .T. ) ;
#615 = DIRECTION ( 'NONE',  ( 0.000000000000000000, 0.000000000000000000, 1.000000000000000000 ) ) ;
#616 = DIRECTION ( 'NONE',  ( -1.836970198721029688E-16, 0.000000000000000000, -1.000000000000000000 ) ) ;
#617 = CALENDAR_DATE ( 2026, 16, 9 ) ;
#618 = CARTESIAN_POINT ( 'NONE',  ( 474.0000000000000000, -2.250000000000000000, -39.75000000000008527 ) ) ;
#619 = LINE ( 'NONE', #1024, #261 ) ;
#620 = CARTESIAN_POINT ( 'NONE',  ( 474.0000000000000000, 0.000000000000000000, -8.707238741937679131E-14 ) ) ;
#621 = DIRECTION ( 'NONE',  ( 1.000000000000000000, 0.000000000000000000, -1.836970198721029688E-16 ) ) ;
#622 = ADVANCED_FACE ( 'NONE', ( #1049 ), #215, .T. ) ;
#623 = VERTEX_POINT ( 'NONE', #399 ) ;
#624 = DIRECTION ( 'NONE',  ( 0.000000000000000000, -1.224646799147354193E-16, 1.000000000000000000 ) ) ;
#625 = CIRCLE ( 'NONE', #921, 5.000000000000000888 ) ;
#626 = CARTESIAN_POINT ( 'NONE',  ( 474.0000000000000000, 2.250000000000000000, 38.18376618407346257 ) ) ;
#627 = ORIENTED_EDGE ( 'NONE', *, *, #1137, .F. ) ;
#628 = LINE ( 'NONE', #911, #118 ) ;
#629 = VERTEX_POINT ( 'NONE', #1139 ) ;
#630 = EDGE_CURVE ( 'NONE', #623, #606, #525, .T. ) ;
#631 = DIRECTION ( 'NONE',  ( 1.836970198721029688E-16, 0.000000000000000000, 1.000000000000000000 ) ) ;
#632 = AXIS2_PLACEMENT_3D ( 'NONE', #996, #713, #631 ) ;
#633 = CARTESIAN_POINT ( 'NONE',  ( 474.0000000000000000, -38.18376618407356915, -2.250000000000078604 ) ) ;
#634 = EDGE_LOOP ( 'NONE', ( #648, #1091, #95, #585 ) ) ;
#635 = COORDINATED_UNIVERSAL_TIME_OFFSET ( 1, 0, .AHEAD. ) ;
#636 = EDGE_CURVE ( 'NONE', #904, #86, #938, .T. ) ;
#637 = PLANE ( 'NONE',  #588 ) ;
#638 = DIRECTION ( 'NONE',  ( -1.000000000000000000, -0.000000000000000000, 1.836970198721033878E-16 ) ) ;
#639 = CARTESIAN_POINT ( 'NONE',  ( 429.3102796124117617, 0.000000000000000000, -1.707115289013109590E-13 ) ) ;
#640 = ORIENTED_EDGE ( 'NONE', *, *, #735, .F. ) ;
#641 = DATE_TIME_ROLE ( 'classification_date' ) ;
#642 = CARTESIAN_POINT ( 'NONE',  ( 474.0000000000000000, 0.000000000000000000, -8.707238741937679131E-14 ) ) ;
#643 = FACE_OUTER_BOUND ( 'NONE', #1043, .T. ) ;
#644 = ADVANCED_FACE ( 'NONE', ( #917 ), #1033, .T. ) ;
#645 = CIRCLE ( 'NONE', #560, 38.25000000000000000 ) ;
#646 = LINE ( 'NONE', #541, #12 ) ;
#647 = AXIS2_PLACEMENT_3D ( 'NONE', #734, #1017, #96 ) ;
#648 = ORIENTED_EDGE ( 'NONE', *, *, #1177, .F. ) ;
#649 = DIRECTION ( 'NONE',  ( 1.000000000000000000, 0.000000000000000000, -1.836970198721029688E-16 ) ) ;
#650 = DIRECTION ( 'NONE',  ( 1.000000000000000000, 0.000000000000000000, -1.836970198721033878E-16 ) ) ;
#651 = EDGE_CURVE ( 'NONE', #733, #663, #628, .T. ) ;
#652 = APPROVAL_PERSON_ORGANIZATION ( #1154, #1170, #142 ) ;
#653 = ORIENTED_EDGE ( 'NONE', *, *, #929, .T. ) ;
#654 = DIRECTION ( 'NONE',  ( 2.249639673992791612E-32, 1.000000000000000000, 1.224646799147353207E-16 ) ) ;
#655 = DIRECTION ( 'NONE',  ( 0.000000000000000000, 0.000000000000000000, 1.000000000000000000 ) ) ;
#656 = ORIENTED_EDGE ( 'NONE', *, *, #222, .T. ) ;
#657 = APPROVAL ( #1027, 'UNSPECIFIED' ) ;
#658 = EDGE_CURVE ( 'NONE', #184, #1129, #646, .T. ) ;
#659 = COORDINATED_UNIVERSAL_TIME_OFFSET ( 1, 0, .AHEAD. ) ;
#660 = CARTESIAN_POINT ( 'NONE',  ( 500.0000000000000000, -38.18376618407356915, -2.250000000000083489 ) ) ;
#661 = DIRECTION ( 'NONE',  ( 0.000000000000000000, 0.000000000000000000, 1.000000000000000000 ) ) ;
#662 = AXIS2_PLACEMENT_3D ( 'NONE', #994, #415, #1162 ) ;
#663 = VERTEX_POINT ( 'NONE', #895 ) ;
#664 = CIRCLE ( 'NONE', #647, 39.75000000000000000 ) ;
#665 = AXIS2_PLACEMENT_3D ( 'NONE', #1025, #94, #13 ) ;
#666 = CIRCLE ( 'NONE', #135, 39.75000000000000000 ) ;
#667 = ADVANCED_FACE ( 'NONE', ( #360 ), #804, .F. ) ;
#668 = PLANE ( 'NONE',  #542 ) ;
#669 = CARTESIAN_POINT ( 'NONE',  ( 434.6845644019025485, 0.000000000000000000, -38.03892417275096705 ) ) ;
#670 = CARTESIAN_POINT ( 'NONE',  ( 500.0000000000000000, 39.75000000000000000, -2.250000000000083489 ) ) ;
#671 = CYLINDRICAL_SURFACE ( 'NONE', #761, 38.25000000000000000 ) ;
#672 = ORIENTED_EDGE ( 'NONE', *, *, #1186, .F. ) ;
#673 = ORIENTED_EDGE ( 'NONE', *, *, #515, .F. ) ;
#674 = CC_DESIGN_DATE_AND_TIME_ASSIGNMENT ( #805, #1094, ( #454 ) ) ;
#675 = CARTESIAN_POINT ( 'NONE',  ( 500.0000000000000000, 0.000000000000000000, -9.184850993605148733E-14 ) ) ;
#676 = EDGE_LOOP ( 'NONE', ( #978, #753, #984, #207 ) ) ;
#677 = ORIENTED_EDGE ( 'NONE', *, *, #1035, .F. ) ;
#678 = CARTESIAN_POINT ( 'NONE',  ( 500.0000000000000000, -2.250000000000000000, -39.68626966596895045 ) ) ;
#679 = DIRECTION ( 'NONE',  ( 1.000000000000000000, 0.000000000000000000, -1.836970198721029688E-16 ) ) ;
#680 = CARTESIAN_POINT ( 'NONE',  ( 474.0000000000000000, 39.75000000000000000, -2.250000000000078604 ) ) ;
#681 = EDGE_CURVE ( 'NONE', #775, #1176, #666, .T. ) ;
#682 = ORIENTED_EDGE ( 'NONE', *, *, #18, .F. ) ;
#683 = CARTESIAN_POINT ( 'NONE',  ( 435.8816349035423627, 4.684274006738626517E-15, 38.24999999999991473 ) ) ;
#684 = AXIS2_PLACEMENT_3D ( 'NONE', #245, #319, #616 ) ;
#685 = CIRCLE ( 'NONE', #496, 39.75000000000000000 ) ;
#686 = DIRECTION ( 'NONE',  ( 0.000000000000000000, 0.000000000000000000, -1.000000000000000000 ) ) ;
#687 = VERTEX_POINT ( 'NONE', #183 ) ;
#688 = CARTESIAN_POINT ( 'NONE',  ( 435.8816349035423627, 0.000000000000000000, -8.007015734876074205E-14 ) ) ;
#689 = AXIS2_PLACEMENT_3D ( 'NONE', #1143, #692, #1147 ) ;
#690 = DIRECTION ( 'NONE',  ( -0.000000000000000000, -1.000000000000000000, -0.000000000000000000 ) ) ;
#691 = CIRCLE ( 'NONE', #472, 36.89199796489158700 ) ;
#692 = DIRECTION ( 'NONE',  ( 1.000000000000000000, 0.000000000000000000, -1.836970198721029688E-16 ) ) ;
#693 = ORIENTED_EDGE ( 'NONE', *, *, #824, .F. ) ;
#694 = ORIENTED_EDGE ( 'NONE', *, *, #1059, .T. ) ;
#695 = CC_DESIGN_PERSON_AND_ORGANIZATION_ASSIGNMENT ( #891, #414, ( #468 ) ) ;
#696 = EDGE_CURVE ( 'NONE', #86, #184, #291, .T. ) ;
#697 = CARTESIAN_POINT ( 'NONE',  ( 474.0000000000000000, 39.75000000000000000, 2.249999999999920952 ) ) ;
#698 = FACE_OUTER_BOUND ( 'NONE', #928, .T. ) ;
#699 = VERTEX_POINT ( 'NONE', #555 ) ;
#700 = CARTESIAN_POINT ( 'NONE',  ( 474.0000000000000000, 4.684274006738625728E-15, 38.24999999999990763 ) ) ;
#701 = ORIENTED_EDGE ( 'NONE', *, *, #185, .T. ) ;
#702 = DATE_AND_TIME ( #1167, #766 ) ;
#703 = CARTESIAN_POINT ( 'NONE',  ( 474.0000000000000000, -39.68626966596885808, -2.250000000000078604 ) ) ;
#704 = AXIS2_PLACEMENT_3D ( 'NONE', #334, #1156, #397 ) ;
#705 = LINE ( 'NONE', #38, #436 ) ;
#706 = ORIENTED_EDGE ( 'NONE', *, *, #1055, .T. ) ;
#707 = CARTESIAN_POINT ( 'NONE',  ( -500.0000000000000000, 0.000000000000000000, 0.000000000000000000 ) ) ;
#708 = ORIENTED_EDGE ( 'NONE', *, *, #264, .T. ) ;
#709 = AXIS2_PLACEMENT_3D ( 'NONE', #856, #736, #26 ) ;
#710 = CARTESIAN_POINT ( 'NONE',  ( 474.0000000000000000, 2.250000000000000000, -39.75000000000008527 ) ) ;
#711 = EDGE_CURVE ( 'NONE', #912, #412, #569, .T. ) ;
#712 = DIRECTION ( 'NONE',  ( 1.000000000000000000, 0.000000000000000000, -1.836970198721029688E-16 ) ) ;
#713 = DIRECTION ( 'NONE',  ( -1.000000000000000000, 0.000000000000000000, 1.836970198721029688E-16 ) ) ;
#714 = DIRECTION ( 'NONE',  ( 0.000000000000000000, 0.000000000000000000, -1.000000000000000000 ) ) ;
#715 = DIRECTION ( 'NONE',  ( 1.836970198721029934E-16, -0.000000000000000000, 1.000000000000000000 ) ) ;
#716 = EDGE_LOOP ( 'NONE', ( #254, #1034, #1103, #405, #682, #740 ) ) ;
#717 = CARTESIAN_POINT ( 'NONE',  ( 429.3102796124117617, 0.000000000000000000, -1.707115289013107570E-13 ) ) ;
#718 = PLANE ( 'NONE',  #632 ) ;
#719 = ORIENTED_EDGE ( 'NONE', *, *, #630, .F. ) ;
#720 = ADVANCED_FACE ( 'NONE', ( #1124 ), #671, .F. ) ;
#721 = ORIENTED_EDGE ( 'NONE', *, *, #651, .T. ) ;
#722 = VECTOR ( 'NONE', #217, 1000.000000000000000 ) ;
#723 = FACE_OUTER_BOUND ( 'NONE', #510, .T. ) ;
#724 = LINE ( 'NONE', #166, #425 ) ;
#725 = ORIENTED_EDGE ( 'NONE', *, *, #696, .T. ) ;
#726 = CARTESIAN_POINT ( 'NONE',  ( 500.0000000000000000, 2.250000000000000000, 38.18376618407345546 ) ) ;
#727 = CIRCLE ( 'NONE', #590, 5.000000000000000888 ) ;
#728 = ORIENTED_EDGE ( 'NONE', *, *, #50, .T. ) ;
#729 = EDGE_CURVE ( 'NONE', #556, #1015, #795, .T. ) ;
#730 = CYLINDRICAL_SURFACE ( 'NONE', #9, 38.00000000000000000 ) ;
#731 = CARTESIAN_POINT ( 'NONE',  ( 500.0000000000000000, 39.68626966596885808, 2.249999999999916067 ) ) ;
#732 = CARTESIAN_POINT ( 'NONE',  ( 430.1919145159540676, 0.000000000000000000, -1.708734826057067139E-13 ) ) ;
#733 = VERTEX_POINT ( 'NONE', #961 ) ;
#734 = CARTESIAN_POINT ( 'NONE',  ( 474.0000000000000000, 0.000000000000000000, -8.707238741937679131E-14 ) ) ;
#735 = EDGE_CURVE ( 'NONE', #1178, #607, #236, .T. ) ;
#736 = DIRECTION ( 'NONE',  ( 0.000000000000000000, -1.000000000000000000, 0.000000000000000000 ) ) ;
#737 = DIRECTION ( 'NONE',  ( 1.000000000000000000, 0.000000000000000000, -1.836970198721038069E-16 ) ) ;
#738 = CIRCLE ( 'NONE', #387, 38.25000000000000000 ) ;
#739 = VECTOR ( 'NONE', #712, 1000.000000000000000 ) ;
#740 = ORIENTED_EDGE ( 'NONE', *, *, #814, .F. ) ;
#741 = AXIS2_PLACEMENT_3D ( 'NONE', #19, #638, #1007 ) ;
#742 = DIRECTION ( 'NONE',  ( 0.000000000000000000, 0.000000000000000000, 1.000000000000000000 ) ) ;
#743 = DIRECTION ( 'NONE',  ( 1.836970198721029688E-16, 0.000000000000000000, 1.000000000000000000 ) ) ;
#744 = EDGE_CURVE ( 'NONE', #1138, #925, #874, .T. ) ;
#745 = LINE ( 'NONE', #188, #995 ) ;
#746 = CC_DESIGN_SECURITY_CLASSIFICATION ( #180, ( #1016 ) ) ;
#747 = CIRCLE ( 'NONE', #298, 36.50000000000000000 ) ;
#748 = EDGE_LOOP ( 'NONE', ( #282, #39, #316, #570 ) ) ;
#749 = VECTOR ( 'NONE', #577, 1000.000000000000000 ) ;
#750 = CARTESIAN_POINT ( 'NONE',  ( 500.0000000000000000, 2.250000000000000000, 39.68626966596877992 ) ) ;
#751 = CARTESIAN_POINT ( 'NONE',  ( 430.7049447309425432, 4.481039102725763809E-15, 36.59046106882095728 ) ) ;
#752 = FACE_OUTER_BOUND ( 'NONE', #145, .T. ) ;
#753 = ORIENTED_EDGE ( 'NONE', *, *, #603, .T. ) ;
#754 = COORDINATED_UNIVERSAL_TIME_OFFSET ( 1, 0, .AHEAD. ) ;
#755 = CARTESIAN_POINT ( 'NONE',  ( 500.0000000000000000, -38.18376618407356204, 2.249999999999916067 ) ) ;
#756 = CARTESIAN_POINT ( 'NONE',  ( 474.0000000000000000, 0.000000000000000000, -39.75000000000009237 ) ) ;
#757 = CIRCLE ( 'NONE', #956, 3.499999999999999556 ) ;
#758 = ORIENTED_EDGE ( 'NONE', *, *, #735, .T. ) ;
#759 = TOROIDAL_SURFACE ( 'NONE', #860, 34.75000000000004263, 3.500000000000000000 ) ;
#760 = EDGE_CURVE ( 'NONE', #561, #412, #124, .T. ) ;
#761 = AXIS2_PLACEMENT_3D ( 'NONE', #56, #955, #507 ) ;
#762 = UNCERTAINTY_MEASURE_WITH_UNIT (LENGTH_MEASURE( 1.000000000000000082E-05 ), #299, 'distance_accuracy_value', 'NONE');
#763 = CARTESIAN_POINT ( 'NONE',  ( 435.8816349035423627, 0.000000000000000000, -8.007015734876075467E-14 ) ) ;
#764 = CARTESIAN_POINT ( 'NONE',  ( 429.3102796124117617, 5.265981236333618470E-15, -43.00000000000017053 ) ) ;
#765 = ORIENTED_EDGE ( 'NONE', *, *, #600, .T. ) ;
#766 = LOCAL_TIME ( 0, 3, 52.00000000000000000, #635 ) ;
#767 = ORIENTED_EDGE ( 'NONE', *, *, #255, .T. ) ;
#768 = EDGE_CURVE ( 'NONE', #227, #140, #29, .T. ) ;
#769 = DIRECTION ( 'NONE',  ( 1.000000000000000000, 0.000000000000000000, -1.836970198721029688E-16 ) ) ;
#770 = CARTESIAN_POINT ( 'NONE',  ( 474.0000000000000000, 0.000000000000000000, -38.25000000000009237 ) ) ;
#771 = ORIENTED_EDGE ( 'NONE', *, *, #72, .T. ) ;
#772 = ORIENTED_EDGE ( 'NONE', *, *, #941, .T. ) ;
#773 = CYLINDRICAL_SURFACE ( 'NONE', #80, 36.50000000000000000 ) ;
#774 = CARTESIAN_POINT ( 'NONE',  ( 474.0000000000000000, 39.68626966596885808, -2.250000000000078604 ) ) ;
#775 = VERTEX_POINT ( 'NONE', #1046 ) ;
#776 = CARTESIAN_POINT ( 'NONE',  ( 500.0000000000000000, 39.75000000000000000, -2.250000000000083489 ) ) ;
#777 = AXIS2_PLACEMENT_3D ( 'NONE', #611, #325, #422 ) ;
#778 = EDGE_LOOP ( 'NONE', ( #1151, #918, #1054, #627 ) ) ;
#779 = ADVANCED_FACE ( 'NONE', ( #326 ), #482, .F. ) ;
#780 = LINE ( 'NONE', #498, #798 ) ;
#781 = CARTESIAN_POINT ( 'NONE',  ( 474.0000000000000000, 2.250000000000000000, -38.18376618407365441 ) ) ;
#782 = EDGE_CURVE ( 'NONE', #912, #613, #1013, .T. ) ;
#783 = EDGE_LOOP ( 'NONE', ( #276, #43, #677, #811 ) ) ;
#784 = ADVANCED_FACE ( 'NONE', ( #698 ), #966, .F. ) ;
#785 = VERTEX_POINT ( 'NONE', #770 ) ;
#786 = VECTOR ( 'NONE', #232, 1000.000000000000000 ) ;
#787 = AXIS2_PLACEMENT_3D ( 'NONE', #246, #1072, #612 ) ;
#788 = DIRECTION ( 'NONE',  ( 1.000000000000000000, 0.000000000000000000, -1.836970198721029688E-16 ) ) ;
#789 = CARTESIAN_POINT ( 'NONE',  ( 500.0000000000000000, 0.000000000000000000, -9.184850993605148733E-14 ) ) ;
#790 = FACE_OUTER_BOUND ( 'NONE', #580, .T. ) ;
#791 = DIRECTION ( 'NONE',  ( -1.000000000000000000, -0.000000000000000000, 1.836970198721038069E-16 ) ) ;
#792 = DIRECTION ( 'NONE',  ( 1.836970198721033878E-16, 0.000000000000000000, 1.000000000000000000 ) ) ;
#793 = ORIENTED_EDGE ( 'NONE', *, *, #950, .F. ) ;
#794 = FACE_OUTER_BOUND ( 'NONE', #202, .T. ) ;
#795 = LINE ( 'NONE', #970, #602 ) ;
#796 = ORIENTED_EDGE ( 'NONE', *, *, #87, .T. ) ;
#797 = DIRECTION ( 'NONE',  ( 1.000000000000000000, 0.000000000000000000, -1.836970198721029688E-16 ) ) ;
#798 = VECTOR ( 'NONE', #985, 1000.000000000000000 ) ;
#799 = CIRCLE ( 'NONE', #212, 38.25000000000000000 ) ;
#800 = AXIS2_PLACEMENT_3D ( 'NONE', #230, #131, #601 ) ;
#801 = DIRECTION ( 'NONE',  ( 1.000000000000000000, 0.000000000000000000, -1.836970198721029688E-16 ) ) ;
#802 = DIRECTION ( 'NONE',  ( 1.000000000000000000, -0.000000000000000000, -1.836970198721029688E-16 ) ) ;
#803 = EDGE_LOOP ( 'NONE', ( #267, #872, #130, #1140 ) ) ;
#804 = PLANE ( 'NONE',  #154 ) ;
#805 = DATE_AND_TIME ( #413, #1075 ) ;
#806 = MECHANICAL_CONTEXT ( 'NONE', #209, 'mechanical' ) ;
#807 = VECTOR ( 'NONE', #810, 1000.000000000000000 ) ;
#808 = LINE ( 'NONE', #332, #1065 ) ;
#809 = EDGE_CURVE ( 'NONE', #352, #687, #727, .T. ) ;
#810 = DIRECTION ( 'NONE',  ( 1.000000000000000000, 0.000000000000000000, -1.836970198721029688E-16 ) ) ;
#811 = ORIENTED_EDGE ( 'NONE', *, *, #854, .T. ) ;
#812 = VERTEX_POINT ( 'NONE', #774 ) ;
#813 = DIRECTION ( 'NONE',  ( 1.000000000000000000, 0.000000000000000000, -1.836970198721029688E-16 ) ) ;
#814 = EDGE_CURVE ( 'NONE', #1144, #733, #705, .T. ) ;
#815 = ORIENTED_EDGE ( 'NONE', *, *, #1137, .T. ) ;
#816 = CARTESIAN_POINT ( 'NONE',  ( 474.0000000000000000, 39.75000000000000000, 2.249999999999920952 ) ) ;
#817 = VERTEX_POINT ( 'NONE', #137 ) ;
#818 = CIRCLE ( 'NONE', #231, 38.00000000000000000 ) ;
#819 = CIRCLE ( 'NONE', #289, 3.500000000000003109 ) ;
#820 = CARTESIAN_POINT ( 'NONE',  ( 500.0000000000000000, 0.000000000000000000, -9.184850993605148733E-14 ) ) ;
#821 = AXIS2_PLACEMENT_3D ( 'NONE', #1074, #876, #328 ) ;
#822 = DIRECTION ( 'NONE',  ( 1.000000000000000000, 0.000000000000000000, -1.836970198721029688E-16 ) ) ;
#823 = VERTEX_POINT ( 'NONE', #205 ) ;
#824 = EDGE_CURVE ( 'NONE', #606, #613, #313, .T. ) ;
#825 = LINE ( 'NONE', #834, #497 ) ;
#826 = PLANE ( 'NONE',  #787 ) ;
#827 = CIRCLE ( 'NONE', #17, 39.75000000000000000 ) ;
#828 = LOCAL_TIME ( 0, 3, 52.00000000000000000, #659 ) ;
#829 = DIRECTION ( 'NONE',  ( 0.000000000000000000, 0.000000000000000000, -1.000000000000000000 ) ) ;
#830 = DIRECTION ( 'NONE',  ( 1.000000000000000000, 0.000000000000000000, -1.836970198721029688E-16 ) ) ;
#831 = ORIENTED_EDGE ( 'NONE', *, *, #255, .F. ) ;
#832 = EDGE_CURVE ( 'NONE', #201, #838, #596, .T. ) ;
#833 = APPROVAL_ROLE ( '' ) ;
#834 = CARTESIAN_POINT ( 'NONE',  ( 435.0000000000000000, -38.18376618407355494, 2.249999999999927613 ) ) ;
#835 = DIRECTION ( 'NONE',  ( 1.000000000000000000, 0.000000000000000000, -1.836970198721029688E-16 ) ) ;
#836 = DIRECTION ( 'NONE',  ( -1.836970198721029688E-16, 0.000000000000000000, -1.000000000000000000 ) ) ;
#837 = DIRECTION ( 'NONE',  ( 0.000000000000000000, 0.000000000000000000, -1.000000000000000000 ) ) ;
#838 = VERTEX_POINT ( 'NONE', #781 ) ;
#839 = DIRECTION ( 'NONE',  ( 0.000000000000000000, -1.224646799147351728E-16, 1.000000000000000000 ) ) ;
#840 = DIRECTION ( 'NONE',  ( 0.000000000000000000, 0.000000000000000000, -1.000000000000000000 ) ) ;
#841 = CIRCLE ( 'NONE', #1030, 4.999999999999997335 ) ;
#842 = DIRECTION ( 'NONE',  ( 0.000000000000000000, -0.000000000000000000, 1.000000000000000000 ) ) ;
#843 = AXIS2_PLACEMENT_3D ( 'NONE', #411, #1134, #792 ) ;
#844 = ORIENTED_EDGE ( 'NONE', *, *, #384, .F. ) ;
#845 = VECTOR ( 'NONE', #464, 1000.000000000000000 ) ;
#846 = CARTESIAN_POINT ( 'NONE',  ( 474.0000000000000000, 39.68626966596885808, 2.249999999999920952 ) ) ;
#847 = FACE_OUTER_BOUND ( 'NONE', #514, .T. ) ;
#848 = EDGE_CURVE ( 'NONE', #64, #1021, #221, .T. ) ;
#849 = AXIS2_PLACEMENT_3D ( 'NONE', #128, #213, #881 ) ;
#850 = VECTOR ( 'NONE', #16, 1000.000000000000000 ) ;
#851 = ORIENTED_EDGE ( 'NONE', *, *, #155, .F. ) ;
#852 = LINE ( 'NONE', #102, #277 ) ;
#853 = CARTESIAN_POINT ( 'NONE',  ( -500.0000000000000000, 0.000000000000000000, 0.000000000000000000 ) ) ;
#854 = EDGE_CURVE ( 'NONE', #939, #561, #1132, .T. ) ;
#855 = ORIENTED_EDGE ( 'NONE', *, *, #636, .F. ) ;
#856 = CARTESIAN_POINT ( 'NONE',  ( 429.3102796124117617, 0.000000000000000000, 42.99999999999982236 ) ) ;
#857 = DIRECTION ( 'NONE',  ( 1.000000000000000000, 0.000000000000000000, -1.836970198721033878E-16 ) ) ;
#858 = ORIENTED_EDGE ( 'NONE', *, *, #1035, .T. ) ;
#859 = ADVANCED_FACE ( 'NONE', ( #484, #790 ), #866, .F. ) ;
#860 = AXIS2_PLACEMENT_3D ( 'NONE', #1056, #1070, #337 ) ;
#861 = ORIENTED_EDGE ( 'NONE', *, *, #173, .T. ) ;
#862 = AXIS2_PLACEMENT_3D ( 'NONE', #936, #281, #258 ) ;
#863 = EDGE_CURVE ( 'NONE', #812, #817, #306, .T. ) ;
#864 = DESIGN_CONTEXT ( 'detailed design', #518, 'design' ) ;
#865 = CARTESIAN_POINT ( 'NONE',  ( -500.0000000000000000, 0.000000000000000000, -36.50000000000000000 ) ) ;
#866 = PLANE ( 'NONE',  #999 ) ;
#867 = EDGE_LOOP ( 'NONE', ( #1086, #160, #448, #59 ) ) ;
#868 = MANIFOLD_SOLID_BREP ( 'Cut-Extrude-Thin1', #312 ) ;
#869 = ORIENTED_EDGE ( 'NONE', *, *, #782, .T. ) ;
#870 = CARTESIAN_POINT ( 'NONE',  ( 435.0000000000000000, 0.000000000000000000, -39.75000000000008527 ) ) ;
#871 = DIRECTION ( 'NONE',  ( 0.9396926207859112035, 0.000000000000000000, -0.3420201433256609413 ) ) ;
#872 = ORIENTED_EDGE ( 'NONE', *, *, #509, .T. ) ;
#873 = DIRECTION ( 'NONE',  ( -0.000000000000000000, -1.000000000000000000, -0.000000000000000000 ) ) ;
#874 = LINE ( 'NONE', #320, #388 ) ;
#875 = EDGE_LOOP ( 'NONE', ( #481, #550, #878, #361 ) ) ;
#876 = DIRECTION ( 'NONE',  ( -1.000000000000000000, -0.000000000000000000, 1.836970198721038069E-16 ) ) ;
#877 = AXIS2_PLACEMENT_3D ( 'NONE', #965, #1031, #492 ) ;
#878 = ORIENTED_EDGE ( 'NONE', *, *, #658, .T. ) ;
#879 = VECTOR ( 'NONE', #986, 1000.000000000000000 ) ;
#880 = CARTESIAN_POINT ( 'NONE',  ( 435.8816349035423627, 0.000000000000000000, -8.007015734876075467E-14 ) ) ;
#881 = DIRECTION ( 'NONE',  ( 1.000000000000000000, 0.000000000000000000, -1.836970198721029934E-16 ) ) ;
#882 = ORIENTED_EDGE ( 'NONE', *, *, #324, .F. ) ;
#883 = ORIENTED_EDGE ( 'NONE', *, *, #155, .T. ) ;
#884 = AXIS2_PLACEMENT_3D ( 'NONE', #23, #292, #840 ) ;
#885 = FACE_OUTER_BOUND ( 'NONE', #294, .T. ) ;
#886 = DIRECTION ( 'NONE',  ( 1.000000000000000000, 0.000000000000000000, -1.836970198721038069E-16 ) ) ;
#887 = EDGE_LOOP ( 'NONE', ( #844, #882, #815, #490 ) ) ;
#888 = DIRECTION ( 'NONE',  ( 0.000000000000000000, 0.000000000000000000, -1.000000000000000000 ) ) ;
#889 = ORIENTED_EDGE ( 'NONE', *, *, #658, .F. ) ;
#890 = APPROVAL_DATE_TIME ( #250, #1170 ) ;
#891 = PERSON_AND_ORGANIZATION ( #500, #373 ) ;
#892 = DIRECTION ( 'NONE',  ( 2.249639673992791612E-32, 1.000000000000000000, 1.224646799147353207E-16 ) ) ;
#893 = CARTESIAN_POINT ( 'NONE',  ( -500.0000000000000000, 4.653657836759953774E-15, 38.00000000000000000 ) ) ;
#894 = ORIENTED_EDGE ( 'NONE', *, *, #20, .F. ) ;
#895 = CARTESIAN_POINT ( 'NONE',  ( 500.0000000000000000, -2.250000000000000000, -38.18376618407365441 ) ) ;
#896 = ORIENTED_EDGE ( 'NONE', *, *, #371, .F. ) ;
#897 = ADVANCED_FACE ( 'NONE', ( #723 ), #67, .F. ) ;
#898 = APPLICATION_PROTOCOL_DEFINITION ( 'international standard', 'config_control_design', 1994, #209 ) ;
#899 = AXIS2_PLACEMENT_3D ( 'NONE', #932, #1111, #836 ) ;
#900 = VECTOR ( 'NONE', #193, 1000.000000000000000 ) ;
#901 = CARTESIAN_POINT ( 'NONE',  ( 435.8816349035423627, 4.867971026610730028E-15, 39.74999999999991473 ) ) ;
#902 = VECTOR ( 'NONE', #308, 1000.000000000000000 ) ;
#903 = CARTESIAN_POINT ( 'NONE',  ( -500.0000000000000000, 0.000000000000000000, 0.000000000000000000 ) ) ;
#904 = VERTEX_POINT ( 'NONE', #1190 ) ;
#905 = CARTESIAN_POINT ( 'NONE',  ( 500.0000000000000000, 0.000000000000000000, -9.184850993605148733E-14 ) ) ;
#906 = ORIENTED_EDGE ( 'NONE', *, *, #1085, .T. ) ;
#907 = PERSON_AND_ORGANIZATION ( #500, #373 ) ;
#908 = EDGE_CURVE ( 'NONE', #152, #184, #691, .T. ) ;
#909 = LINE ( 'NONE', #340, #161 ) ;
#910 = ORIENTED_EDGE ( 'NONE', *, *, #1177, .T. ) ;
#911 = CARTESIAN_POINT ( 'NONE',  ( 435.0000000000000000, -2.249999999999999112, -38.18376618407364020 ) ) ;
#912 = VERTEX_POINT ( 'NONE', #626 ) ;
#913 = EDGE_CURVE ( 'NONE', #531, #1138, #1096, .T. ) ;
#914 = DIRECTION ( 'NONE',  ( -1.000000000000000000, -0.000000000000000000, 1.836970198721038069E-16 ) ) ;
#915 = PLANE ( 'NONE',  #665 ) ;
#916 = EDGE_CURVE ( 'NONE', #1176, #663, #909, .T. ) ;
#917 = FACE_OUTER_BOUND ( 'NONE', #233, .T. ) ;
#918 = ORIENTED_EDGE ( 'NONE', *, *, #384, .T. ) ;
#919 = VECTOR ( 'NONE', #873, 1000.000000000000000 ) ;
#920 = FACE_OUTER_BOUND ( 'NONE', #783, .T. ) ;
#921 = AXIS2_PLACEMENT_3D ( 'NONE', #101, #545, #89 ) ;
#922 = FACE_OUTER_BOUND ( 'NONE', #346, .T. ) ;
#923 = AXIS2_PLACEMENT_3D ( 'NONE', #1053, #219, #493 ) ;
#924 = LINE ( 'NONE', #1014, #993 ) ;
#925 = VERTEX_POINT ( 'NONE', #532 ) ;
#926 = FACE_OUTER_BOUND ( 'NONE', #977, .T. ) ;
#927 = DIRECTION ( 'NONE',  ( 1.000000000000000000, 0.000000000000000000, -1.836970198721029688E-16 ) ) ;
#928 = EDGE_LOOP ( 'NONE', ( #1087, #593, #1082, #390 ) ) ;
#929 = EDGE_CURVE ( 'NONE', #812, #1185, #432, .T. ) ;
#930 = LINE ( 'NONE', #449, #310 ) ;
#931 = CARTESIAN_POINT ( 'NONE',  ( 431.0203803290401083, 0.000000000000000000, -1.710256693066365400E-13 ) ) ;
#932 = CARTESIAN_POINT ( 'NONE',  ( 500.0000000000000000, 0.000000000000000000, -1.836970198721029747E-13 ) ) ;
#933 = ORIENTED_EDGE ( 'NONE', *, *, #760, .F. ) ;
#934 = EDGE_CURVE ( 'NONE', #1015, #687, #1000, .T. ) ;
#935 = LINE ( 'NONE', #194, #850 ) ;
#936 = CARTESIAN_POINT ( 'NONE',  ( 429.3102796124117617, 0.000000000000000000, -1.707115289013109590E-13 ) ) ;
#937 = CIRCLE ( 'NONE', #1032, 38.25000000000000000 ) ;
#938 = CIRCLE ( 'NONE', #1089, 36.50000000000000000 ) ;
#939 = VERTEX_POINT ( 'NONE', #726 ) ;
#940 = DIRECTION ( 'NONE',  ( 1.836970198721033878E-16, 0.000000000000000000, 1.000000000000000000 ) ) ;
#941 = EDGE_CURVE ( 'NONE', #699, #495, #1166, .T. ) ;
#942 = DIRECTION ( 'NONE',  ( -1.000000000000000000, -0.000000000000000000, 1.836970198721029688E-16 ) ) ;
#943 = DIRECTION ( 'NONE',  ( 1.836970198721033878E-16, 0.000000000000000000, 1.000000000000000000 ) ) ;
#944 = VECTOR ( 'NONE', #149, 1000.000000000000000 ) ;
#945 = CIRCLE ( 'NONE', #408, 38.30153689607044498 ) ;
#946 = EDGE_LOOP ( 'NONE', ( #214, #453, #197, #1057 ) ) ;
#947 = VECTOR ( 'NONE', #443, 1000.000000000000000 ) ;
#948 = DIRECTION ( 'NONE',  ( 1.000000000000000000, 0.000000000000000000, -1.836970198721029688E-16 ) ) ;
#949 = DIRECTION ( 'NONE',  ( 1.836970198721029688E-16, 0.000000000000000000, 1.000000000000000000 ) ) ;
#950 = EDGE_CURVE ( 'NONE', #208, #471, #747, .T. ) ;
#951 = ORIENTED_EDGE ( 'NONE', *, *, #430, .T. ) ;
#952 = ORIENTED_EDGE ( 'NONE', *, *, #681, .F. ) ;
#953 =( NAMED_UNIT ( * ) SI_UNIT ( $, .STERADIAN. ) SOLID_ANGLE_UNIT ( ) );
#954 = DIRECTION ( 'NONE',  ( 0.000000000000000000, 0.000000000000000000, -1.000000000000000000 ) ) ;
#955 = DIRECTION ( 'NONE',  ( 1.000000000000000000, 0.000000000000000000, -1.836970198721029688E-16 ) ) ;
#956 = AXIS2_PLACEMENT_3D ( 'NONE', #376, #1126, #475 ) ;
#957 = ORIENTED_EDGE ( 'NONE', *, *, #848, .F. ) ;
#958 = ADVANCED_FACE ( 'NONE', ( #355 ), #718, .F. ) ;
#959 = AXIS2_PLACEMENT_3D ( 'NONE', #591, #886, #1062 ) ;
#960 = DIRECTION ( 'NONE',  ( 1.000000000000000000, 0.000000000000000000, -1.836970198721038069E-16 ) ) ;
#961 = CARTESIAN_POINT ( 'NONE',  ( 474.0000000000000000, -2.250000000000000000, -38.18376618407365441 ) ) ;
#962 = ORIENTED_EDGE ( 'NONE', *, *, #1117, .F. ) ;
#963 = DIRECTION ( 'NONE',  ( 1.000000000000000000, 0.000000000000000000, -1.836970198721029688E-16 ) ) ;
#964 = VECTOR ( 'NONE', #566, 1000.000000000000000 ) ;
#965 = CARTESIAN_POINT ( 'NONE',  ( 429.3102796124117617, 0.000000000000000000, 42.99999999999982236 ) ) ;
#966 = PLANE ( 'NONE',  #849 ) ;
#967 = ORIENTED_EDGE ( 'NONE', *, *, #353, .F. ) ;
#968 = DIRECTION ( 'NONE',  ( -1.836970198721029688E-16, 0.000000000000000000, -1.000000000000000000 ) ) ;
#969 = FACE_OUTER_BOUND ( 'NONE', #946, .T. ) ;
#970 = CARTESIAN_POINT ( 'NONE',  ( 430.1919145159540676, 0.000000000000000000, -38.00000000000017053 ) ) ;
#971 = ORIENTED_EDGE ( 'NONE', *, *, #50, .F. ) ;
#972 = AXIS2_PLACEMENT_3D ( 'NONE', #368, #379, #940 ) ;
#973 = AXIS2_PLACEMENT_3D ( 'NONE', #764, #285, #196 ) ;
#974 = CARTESIAN_POINT ( 'NONE',  ( 434.6845644019025485, 0.000000000000000000, -1.716987690010842141E-13 ) ) ;
#975 = ADVANCED_FACE ( 'NONE', ( #344 ), #252, .T. ) ;
#976 = DIRECTION ( 'NONE',  ( -0.000000000000000000, -1.000000000000000000, -0.000000000000000000 ) ) ;
#977 = EDGE_LOOP ( 'NONE', ( #1004, #62, #526, #439 ) ) ;
#978 = ORIENTED_EDGE ( 'NONE', *, *, #264, .F. ) ;
#979 = AXIS2_PLACEMENT_3D ( 'NONE', #642, #363, #1011 ) ;
#980 = DIRECTION ( 'NONE',  ( 0.000000000000000000, 0.000000000000000000, 1.000000000000000000 ) ) ;
#981 = CARTESIAN_POINT ( 'NONE',  ( 435.0000000000000000, 39.68626966596885097, -2.250000000000070610 ) ) ;
#982 = ORIENTED_EDGE ( 'NONE', *, *, #178, .T. ) ;
#983 = EDGE_CURVE ( 'NONE', #184, #152, #103, .T. ) ;
#984 = ORIENTED_EDGE ( 'NONE', *, *, #314, .T. ) ;
#985 = DIRECTION ( 'NONE',  ( 1.000000000000000000, 0.000000000000000000, -1.836970198721029688E-16 ) ) ;
#986 = DIRECTION ( 'NONE',  ( 1.836970198721029688E-16, 0.000000000000000000, 1.000000000000000000 ) ) ;
#987 = CARTESIAN_POINT ( 'NONE',  ( 435.0000000000000000, 0.000000000000000000, -7.990820364436478514E-14 ) ) ;
#988 = ORIENTED_EDGE ( 'NONE', *, *, #18, .T. ) ;
#989 = DIRECTION ( 'NONE',  ( 1.000000000000000000, 0.000000000000000000, -1.836970198721029934E-16 ) ) ;
#990 = EDGE_LOOP ( 'NONE', ( #906, #694, #765, #398 ) ) ;
#991 = CONICAL_SURFACE ( 'NONE', #115, 36.59046106882113492, 0.3490658503988574024 ) ;
#992 = APPROVAL_STATUS ( 'not_yet_approved' ) ;
#993 = VECTOR ( 'NONE', #90, 1000.000000000000000 ) ;
#994 = CARTESIAN_POINT ( 'NONE',  ( 474.0000000000000000, 0.000000000000000000, -8.707238741937679131E-14 ) ) ;
#995 = VECTOR ( 'NONE', #444, 1000.000000000000000 ) ;
#996 = CARTESIAN_POINT ( 'NONE',  ( 474.0000000000000000, 0.000000000000000000, -8.707238741937680393E-14 ) ) ;
#997 = ORIENTED_EDGE ( 'NONE', *, *, #1117, .T. ) ;
#998 = VERTEX_POINT ( 'NONE', #1175 ) ;
#999 = AXIS2_PLACEMENT_3D ( 'NONE', #33, #604, #394 ) ;
#1000 = CIRCLE ( 'NONE', #1095, 39.44846310392964028 ) ;
#1001 = EDGE_CURVE ( 'NONE', #64, #179, #450, .T. ) ;
#1002 = DIRECTION ( 'NONE',  ( 0.000000000000000000, 0.000000000000000000, -1.000000000000000000 ) ) ;
#1003 = FACE_OUTER_BOUND ( 'NONE', #778, .T. ) ;
#1004 = ORIENTED_EDGE ( 'NONE', *, *, #744, .F. ) ;
#1005 = ADVANCED_FACE ( 'NONE', ( #165 ), #637, .T. ) ;
#1006 = CARTESIAN_POINT ( 'NONE',  ( 474.0000000000000000, 39.75000000000000000, -2.250000000000078604 ) ) ;
#1007 = DIRECTION ( 'NONE',  ( 1.836970198721033878E-16, 0.000000000000000000, 1.000000000000000000 ) ) ;
#1008 = DIRECTION ( 'NONE',  ( -1.000000000000000000, -0.000000000000000000, 1.836970198721033878E-16 ) ) ;
#1009 = ORIENTED_EDGE ( 'NONE', *, *, #598, .F. ) ;
#1010 = VECTOR ( 'NONE', #1061, 1000.000000000000000 ) ;
#1011 = DIRECTION ( 'NONE',  ( 0.000000000000000000, 2.486899575160350651E-14, 1.000000000000000000 ) ) ;
#1012 = ADVANCED_FACE ( 'NONE', ( #922 ), #826, .F. ) ;
#1013 = CIRCLE ( 'NONE', #322, 38.25000000000000000 ) ;
#1014 = CARTESIAN_POINT ( 'NONE',  ( 435.0000000000000000, -2.249999999999999112, -39.68626966596893624 ) ) ;
#1015 = VERTEX_POINT ( 'NONE', #512 ) ;
#1016 = PRODUCT_DEFINITION_FORMATION_WITH_SPECIFIED_SOURCE ( 'ANY', '', #468, .NOT_KNOWN. ) ;
#1017 = DIRECTION ( 'NONE',  ( 1.000000000000000000, -0.000000000000000000, -1.836970198721029688E-16 ) ) ;
#1018 = CARTESIAN_POINT ( 'NONE',  ( 435.0000000000000000, 38.18376618407355494, 2.249999999999927613 ) ) ;
#1019 = VECTOR ( 'NONE', #1029, 1000.000000000000227 ) ;
#1020 = DIRECTION ( 'NONE',  ( -1.000000000000000000, -0.000000000000000000, 1.836970198721029688E-16 ) ) ;
#1021 = VERTEX_POINT ( 'NONE', #893 ) ;
#1022 = EDGE_CURVE ( 'NONE', #242, #201, #827, .T. ) ;
#1023 = CARTESIAN_POINT ( 'NONE',  ( 474.0000000000000000, 0.000000000000000000, -8.707238741937679131E-14 ) ) ;
#1024 = CARTESIAN_POINT ( 'NONE',  ( 435.0000000000000000, 2.249999999999999112, 38.18376618407346967 ) ) ;
#1025 = CARTESIAN_POINT ( 'NONE',  ( 474.0000000000000000, 0.000000000000000000, -8.707238741937680393E-14 ) ) ;
#1026 = ORIENTED_EDGE ( 'NONE', *, *, #222, .F. ) ;
#1027 = APPROVAL_STATUS ( 'not_yet_approved' ) ;
#1028 = LINE ( 'NONE', #1119, #386 ) ;
#1029 = DIRECTION ( 'NONE',  ( 0.9396926207859113145, 4.188538737676894390E-17, 0.3420201433256605528 ) ) ;
#1030 = AXIS2_PLACEMENT_3D ( 'NONE', #511, #892, #624 ) ;
#1031 = DIRECTION ( 'NONE',  ( 0.000000000000000000, -1.000000000000000000, 0.000000000000000000 ) ) ;
#1032 = AXIS2_PLACEMENT_3D ( 'NONE', #1023, #1109, #742 ) ;
#1033 = TOROIDAL_SURFACE ( 'NONE', #45, 43.00000000000000000, 6.500000000000000888 ) ;
#1034 = ORIENTED_EDGE ( 'NONE', *, *, #1022, .T. ) ;
#1035 = EDGE_CURVE ( 'NONE', #939, #912, #619, .T. ) ;
#1036 = LINE ( 'NONE', #572, #1188 ) ;
#1037 = EDGE_CURVE ( 'NONE', #471, #208, #392, .T. ) ;
#1038 = PLANE ( 'NONE',  #288 ) ;
#1039 = CIRCLE ( 'NONE', #709, 4.999999999999997335 ) ;
#1040 = EDGE_LOOP ( 'NONE', ( #477, #141, #21, #889 ) ) ;
#1041 = VERTEX_POINT ( 'NONE', #284 ) ;
#1042 = DIRECTION ( 'NONE',  ( 0.000000000000000000, 0.000000000000000000, -1.000000000000000000 ) ) ;
#1043 = EDGE_LOOP ( 'NONE', ( #1098, #796, #1066, #357 ) ) ;
#1044 = VERTEX_POINT ( 'NONE', #660 ) ;
#1045 = CARTESIAN_POINT ( 'NONE',  ( 430.7049447309425432, 0.000000000000000000, -1.709677247273044438E-13 ) ) ;
#1046 = CARTESIAN_POINT ( 'NONE',  ( 500.0000000000000000, -39.68626966596886518, -2.250000000000083489 ) ) ;
#1047 = AXIS2_PLACEMENT_3D ( 'NONE', #717, #48, #980 ) ;
#1048 = ORIENTED_EDGE ( 'NONE', *, *, #538, .F. ) ;
#1049 = FACE_OUTER_BOUND ( 'NONE', #535, .T. ) ;
#1050 = CIRCLE ( 'NONE', #522, 38.30153689607044498 ) ;
#1051 = TOROIDAL_SURFACE ( 'NONE', #843, 34.75000000000004263, 5.000000000000000000 ) ;
#1052 = CARTESIAN_POINT ( 'NONE',  ( 429.3102796124117617, 0.000000000000000000, -1.707115289013107570E-13 ) ) ;
#1053 = CARTESIAN_POINT ( 'NONE',  ( 500.0000000000000000, 0.000000000000000000, -9.184850993605148733E-14 ) ) ;
#1054 = ORIENTED_EDGE ( 'NONE', *, *, #87, .F. ) ;
#1055 = EDGE_CURVE ( 'NONE', #134, #140, #852, .T. ) ;
#1056 = CARTESIAN_POINT ( 'NONE',  ( 435.8816349035423627, 0.000000000000000000, -1.259944123167864857E-13 ) ) ;
#1057 = ORIENTED_EDGE ( 'NONE', *, *, #832, .F. ) ;
#1058 = DIRECTION ( 'NONE',  ( 0.000000000000000000, 2.575717417130363174E-14, 1.000000000000000000 ) ) ;
#1059 = EDGE_CURVE ( 'NONE', #485, #687, #375, .T. ) ;
#1060 = DIRECTION ( 'NONE',  ( 0.000000000000000000, 0.000000000000000000, -1.000000000000000000 ) ) ;
#1061 = DIRECTION ( 'NONE',  ( -0.000000000000000000, -1.000000000000000000, -0.000000000000000000 ) ) ;
#1062 = DIRECTION ( 'NONE',  ( 0.000000000000000000, 0.000000000000000000, -1.000000000000000000 ) ) ;
#1063 = VERTEX_POINT ( 'NONE', #187 ) ;
#1064 = DIRECTION ( 'NONE',  ( 1.000000000000000000, -0.000000000000000000, -1.836970198721029688E-16 ) ) ;
#1065 = VECTOR ( 'NONE', #690, 1000.000000000000000 ) ;
#1066 = ORIENTED_EDGE ( 'NONE', *, *, #729, .T. ) ;
#1067 = AXIS2_PLACEMENT_3D ( 'NONE', #552, #279, #93 ) ;
#1068 = AXIS2_PLACEMENT_3D ( 'NONE', #451, #172, #829 ) ;
#1069 = EDGE_CURVE ( 'NONE', #201, #823, #935, .T. ) ;
#1070 = DIRECTION ( 'NONE',  ( -1.000000000000000000, -0.000000000000000000, 1.836970198721033878E-16 ) ) ;
#1071 = EDGE_CURVE ( 'NONE', #152, #502, #369, .T. ) ;
#1072 = DIRECTION ( 'NONE',  ( -1.000000000000000000, 0.000000000000000000, 1.836970198721029688E-16 ) ) ;
#1073 = ORIENTED_EDGE ( 'NONE', *, *, #863, .T. ) ;
#1074 = CARTESIAN_POINT ( 'NONE',  ( 434.1715341869140730, 0.000000000000000000, -1.256802719114607028E-13 ) ) ;
#1075 = LOCAL_TIME ( 0, 3, 52.00000000000000000, #1180 ) ;
#1076 = EDGE_LOOP ( 'NONE', ( #1073, #323, #1009, #35 ) ) ;
#1077 = AXIS2_PLACEMENT_3D ( 'NONE', #109, #649, #558 ) ;
#1078 = DIRECTION ( 'NONE',  ( 1.000000000000000000, 0.000000000000000000, -1.836970198721033878E-16 ) ) ;
#1079 = LINE ( 'NONE', #618, #879 ) ;
#1080 = DIRECTION ( 'NONE',  ( 1.000000000000000000, 0.000000000000000000, -1.836970198721038069E-16 ) ) ;
#1081 = CARTESIAN_POINT ( 'NONE',  ( 474.0000000000000000, 0.000000000000000000, -8.707238741937679131E-14 ) ) ;
#1082 = ORIENTED_EDGE ( 'NONE', *, *, #1092, .F. ) ;
#1083 = PLANE ( 'NONE',  #684 ) ;
#1084 = DIRECTION ( 'NONE',  ( 1.836970198721029688E-16, 0.000000000000000000, 1.000000000000000000 ) ) ;
#1085 = EDGE_CURVE ( 'NONE', #556, #485, #945, .T. ) ;
#1086 = ORIENTED_EDGE ( 'NONE', *, *, #446, .F. ) ;
#1087 = ORIENTED_EDGE ( 'NONE', *, *, #913, .T. ) ;
#1088 = VECTOR ( 'NONE', #927, 1000.000000000000000 ) ;
#1089 = AXIS2_PLACEMENT_3D ( 'NONE', #534, #259, #441 ) ;
#1090 = DIRECTION ( 'NONE',  ( 0.000000000000000000, 0.000000000000000000, -1.000000000000000000 ) ) ;
#1091 = ORIENTED_EDGE ( 'NONE', *, *, #941, .F. ) ;
#1092 = EDGE_CURVE ( 'NONE', #1041, #925, #4, .T. ) ;
#1093 = APPROVAL_PERSON_ORGANIZATION ( #262, #474, #331 ) ;
#1094 = DATE_TIME_ROLE ( 'creation_date' ) ;
#1095 = AXIS2_PLACEMENT_3D ( 'NONE', #144, #914, #1090 ) ;
#1096 = LINE ( 'NONE', #521, #947 ) ;
#1097 = CARTESIAN_POINT ( 'NONE',  ( 431.5334105440285839, 4.588195697651164163E-15, 36.89199796489140937 ) ) ;
#1098 = ORIENTED_EDGE ( 'NONE', *, *, #1059, .F. ) ;
#1099 = PRODUCT_RELATED_PRODUCT_CATEGORY ( 'detail', '', ( #468 ) ) ;
#1100 = CARTESIAN_POINT ( 'NONE',  ( -500.0000000000000000, 0.000000000000000000, 0.000000000000000000 ) ) ;
#1101 = CARTESIAN_POINT ( 'NONE',  ( 474.0000000000000000, -2.250000000000000000, -39.68626966596894334 ) ) ;
#1102 = CARTESIAN_POINT ( 'NONE',  ( 431.0203803290401083, 0.000000000000000000, -1.710256693066365400E-13 ) ) ;
#1103 = ORIENTED_EDGE ( 'NONE', *, *, #832, .T. ) ;
#1104 = DATE_AND_TIME ( #191, #828 ) ;
#1105 = CIRCLE ( 'NONE', #1068, 38.25000000000000000 ) ;
#1106 = CARTESIAN_POINT ( 'NONE',  ( 429.3102796124117617, 0.000000000000000000, -1.707115289013107570E-13 ) ) ;
#1107 = EDGE_CURVE ( 'NONE', #629, #1063, #181, .T. ) ;
#1108 = ORIENTED_EDGE ( 'NONE', *, *, #348, .T. ) ;
#1109 = DIRECTION ( 'NONE',  ( 1.000000000000000000, -0.000000000000000000, -1.836970198721029688E-16 ) ) ;
#1110 = LOCAL_TIME ( 0, 3, 52.00000000000000000, #416 ) ;
#1111 = DIRECTION ( 'NONE',  ( 1.000000000000000000, 0.000000000000000000, -1.836970198721029688E-16 ) ) ;
#1112 = ORIENTED_EDGE ( 'NONE', *, *, #681, .T. ) ;
#1113 = FACE_OUTER_BOUND ( 'NONE', #349, .T. ) ;
#1114 = DIRECTION ( 'NONE',  ( 1.000000000000000000, 0.000000000000000000, -1.836970198721033878E-16 ) ) ;
#1115 = CARTESIAN_POINT ( 'NONE',  ( 430.1919145159540676, 0.000000000000000000, -1.708734826057067139E-13 ) ) ;
#1116 = ORIENTED_EDGE ( 'NONE', *, *, #565, .F. ) ;
#1117 = EDGE_CURVE ( 'NONE', #1021, #30, #380, .T. ) ;
#1118 = EDGE_CURVE ( 'NONE', #1138, #561, #52, .T. ) ;
#1119 = CARTESIAN_POINT ( 'NONE',  ( 435.0000000000000000, -2.249999999999999112, 38.18376618407346967 ) ) ;
#1120 = DIRECTION ( 'NONE',  ( 0.9396926207859113145, 4.188538737676894390E-17, 0.3420201433256605528 ) ) ;
#1121 = VECTOR ( 'NONE', #769, 1000.000000000000000 ) ;
#1122 = FACE_OUTER_BOUND ( 'NONE', #307, .T. ) ;
#1123 = CIRCLE ( 'NONE', #467, 38.03892417275079652 ) ;
#1124 = FACE_OUTER_BOUND ( 'NONE', #427, .T. ) ;
#1125 = EDGE_LOOP ( 'NONE', ( #303, #725, #614, #831 ) ) ;
#1126 = DIRECTION ( 'NONE',  ( 0.000000000000000000, -1.000000000000000000, 0.000000000000000000 ) ) ;
#1127 = AXIS2_PLACEMENT_3D ( 'NONE', #456, #835, #968 ) ;
#1128 = ORIENTED_EDGE ( 'NONE', *, *, #1107, .T. ) ;
#1129 = VERTEX_POINT ( 'NONE', #669 ) ;
#1130 = EDGE_CURVE ( 'NONE', #531, #1041, #1036, .T. ) ;
#1131 = FACE_OUTER_BOUND ( 'NONE', #875, .T. ) ;
#1132 = LINE ( 'NONE', #409, #263 ) ;
#1133 = ORIENTED_EDGE ( 'NONE', *, *, #538, .T. ) ;
#1134 = DIRECTION ( 'NONE',  ( -1.000000000000000000, -0.000000000000000000, 1.836970198721033878E-16 ) ) ;
#1135 = DIRECTION ( 'NONE',  ( -1.000000000000000000, -0.000000000000000000, 1.836970198721033878E-16 ) ) ;
#1136 = DIRECTION ( 'NONE',  ( 1.836970198721029688E-16, 0.000000000000000000, 1.000000000000000000 ) ) ;
#1137 = EDGE_CURVE ( 'NONE', #30, #485, #1039, .T. ) ;
#1138 = VERTEX_POINT ( 'NONE', #731 ) ;
#1139 = CARTESIAN_POINT ( 'NONE',  ( 500.0000000000000000, -39.68626966596886518, 2.249999999999916067 ) ) ;
#1140 = ORIENTED_EDGE ( 'NONE', *, *, #1055, .F. ) ;
#1141 = TOROIDAL_SURFACE ( 'NONE', #741, 34.75000000000004263, 3.500000000000000000 ) ;
#1142 = DIRECTION ( 'NONE',  ( 1.000000000000000000, -0.000000000000000000, -1.836970198721029688E-16 ) ) ;
#1143 = CARTESIAN_POINT ( 'NONE',  ( -500.0000000000000000, 0.000000000000000000, 0.000000000000000000 ) ) ;
#1144 = VERTEX_POINT ( 'NONE', #1101 ) ;
#1145 = CYLINDRICAL_SURFACE ( 'NONE', #523, 38.00000000000000000 ) ;
#1146 = DIRECTION ( 'NONE',  ( 0.000000000000000000, 0.000000000000000000, -1.000000000000000000 ) ) ;
#1147 = DIRECTION ( 'NONE',  ( 0.000000000000000000, 0.000000000000000000, -1.000000000000000000 ) ) ;
#1148 = DIRECTION ( 'NONE',  ( 0.000000000000000000, -8.881784197001252323E-15, 1.000000000000000000 ) ) ;
#1149 = EDGE_CURVE ( 'NONE', #1144, #242, #1187, .T. ) ;
#1150 = LINE ( 'NONE', #776, #153 ) ;
#1151 = ORIENTED_EDGE ( 'NONE', *, *, #185, .F. ) ;
#1152 = CC_DESIGN_PERSON_AND_ORGANIZATION_ASSIGNMENT ( #907, #516, ( #1016 ) ) ;
#1153 = EDGE_CURVE ( 'NONE', #699, #134, #10, .T. ) ;
#1154 = PERSON_AND_ORGANIZATION ( #500, #373 ) ;
#1155 = CARTESIAN_POINT ( 'NONE',  ( -500.0000000000000000, 0.000000000000000000, 0.000000000000000000 ) ) ;
#1156 = DIRECTION ( 'NONE',  ( 1.000000000000000000, -0.000000000000000000, -1.836970198721029688E-16 ) ) ;
#1157 = ORIENTED_EDGE ( 'NONE', *, *, #53, .F. ) ;
#1158 = TOROIDAL_SURFACE ( 'NONE', #599, 43.00000000000000000, 6.500000000000000888 ) ;
#1159 = ORIENTED_EDGE ( 'NONE', *, *, #404, .F. ) ;
#1160 = PERSON_AND_ORGANIZATION_ROLE ( 'creator' ) ;
#1161 = ADVANCED_FACE ( 'NONE', ( #926 ), #280, .T. ) ;
#1162 = DIRECTION ( 'NONE',  ( 0.000000000000000000, 0.000000000000000000, 1.000000000000000000 ) ) ;
#1163 = DIRECTION ( 'NONE',  ( 0.000000000000000000, 0.000000000000000000, 1.000000000000000000 ) ) ;
#1164 = ORIENTED_EDGE ( 'NONE', *, *, #950, .T. ) ;
#1165 = ORIENTED_EDGE ( 'NONE', *, *, #138, .F. ) ;
#1166 = CIRCLE ( 'NONE', #70, 38.25000000000000000 ) ;
#1167 = CALENDAR_DATE ( 2026, 16, 9 ) ;
#1168 = APPLICATION_PROTOCOL_DEFINITION ( 'international standard', 'config_control_design', 1994, #518 ) ;
#1169 = DIRECTION ( 'NONE',  ( 0.000000000000000000, 0.000000000000000000, -1.000000000000000000 ) ) ;
#1170 = APPROVAL ( #239, 'UNSPECIFIED' ) ;
#1171 = DIRECTION ( 'NONE',  ( 1.000000000000000000, 0.000000000000000000, -1.836970198721029688E-16 ) ) ;
#1172 = ORIENTED_EDGE ( 'NONE', *, *, #460, .T. ) ;
#1173 = DIRECTION ( 'NONE',  ( 0.000000000000000000, 0.000000000000000000, -1.000000000000000000 ) ) ;
#1174 = EDGE_LOOP ( 'NONE', ( #253, #728, #429, #1026 ) ) ;
#1175 = CARTESIAN_POINT ( 'NONE',  ( 474.0000000000000000, -2.250000000000000000, 38.18376618407346257 ) ) ;
#1176 = VERTEX_POINT ( 'NONE', #678 ) ;
#1177 = EDGE_CURVE ( 'NONE', #495, #629, #318, .T. ) ;
#1178 = VERTEX_POINT ( 'NONE', #594 ) ;
#1179 = CIRCLE ( 'NONE', #662, 38.25000000000000000 ) ;
#1180 = COORDINATED_UNIVERSAL_TIME_OFFSET ( 1, 0, .AHEAD. ) ;
#1181 = TOROIDAL_SURFACE ( 'NONE', #862, 43.00000000000000000, 5.000000000000000000 ) ;
#1182 = CIRCLE ( 'NONE', #821, 39.44846310392964028 ) ;
#1183 = DIRECTION ( 'NONE',  ( 0.000000000000000000, 0.000000000000000000, -1.000000000000000000 ) ) ;
#1184 = FACE_OUTER_BOUND ( 'NONE', #6, .T. ) ;
#1185 = VERTEX_POINT ( 'NONE', #505 ) ;
#1186 = EDGE_CURVE ( 'NONE', #606, #623, #218, .T. ) ;
#1187 = CIRCLE ( 'NONE', #979, 39.75000000000000000 ) ;
#1188 = VECTOR ( 'NONE', #478, 1000.000000000000000 ) ;
#1189 = DIRECTION ( 'NONE',  ( -0.000000000000000000, 1.000000000000000000, 0.000000000000000000 ) ) ;
#1190 = CARTESIAN_POINT ( 'NONE',  ( 429.3102796124117617, 4.469960816887838430E-15, 36.49999999999982236 ) ) ;
#1191 = DIRECTION ( 'NONE',  ( 0.000000000000000000, 0.000000000000000000, -1.000000000000000000 ) ) ;
ENDSEC;
END-ISO-10303-21;
