ISO-10303-21;
HEADER;
FILE_DESCRIPTION (( 'STEP AP203' ),
    '1' );
FILE_NAME ('79-9017 - 76mm Ljuddämpare.STEP',
    '2026-09-15T22:04:00',
    ( '' ),
    ( '' ),
    'SwSTEP 2.0',
    'SolidWorks 2026',
    '' );
FILE_SCHEMA (( 'CONFIG_CONTROL_DESIGN' ));
ENDSEC;

DATA;
#1 = DIRECTION ( 'NONE',  ( 0.000000000000000000, -1.000000000000000000, 0.000000000000000000 ) ) ;
#2 = EDGE_CURVE ( 'NONE', #983, #1064, #270, .T. ) ;
#3 = ORIENTED_EDGE ( 'NONE', *, *, #480, .F. ) ;
#4 = VERTEX_POINT ( 'NONE', #275 ) ;
#5 = CARTESIAN_POINT ( 'NONE',  ( -235.0000000000000000, 0.000000000000000000, 0.000000000000000000 ) ) ;
#6 = FACE_OUTER_BOUND ( 'NONE', #200, .T. ) ;
#7 = TOROIDAL_SURFACE ( 'NONE', #280, 48.50000000000000711, 11.19999999999999929 ) ;
#8 = EDGE_LOOP ( 'NONE', ( #659, #535, #72, #174 ) ) ;
#9 = EDGE_CURVE ( 'NONE', #207, #913, #687, .T. ) ;
#10 = CIRCLE ( 'NONE', #753, 38.50000000000000000 ) ;
#11 = AXIS2_PLACEMENT_3D ( 'NONE', #762, #847, #830 ) ;
#12 = AXIS2_PLACEMENT_3D ( 'NONE', #450, #197, #786 ) ;
#13 = CONICAL_SURFACE ( 'NONE', #230, 55.92383293826993906, 0.4583000663916555473 ) ;
#14 = ORIENTED_EDGE ( 'NONE', *, *, #706, .T. ) ;
#15 = DIRECTION ( 'NONE',  ( 2.487058746920154947E-16, -1.000000000000000000, 0.000000000000000000 ) ) ;
#16 = AXIS2_PLACEMENT_3D ( 'NONE', #734, #892, #314 ) ;
#17 = DIRECTION ( 'NONE',  ( -1.000000000000000000, -1.836970198721029688E-16, -0.000000000000000000 ) ) ;
#18 = DATE_TIME_ROLE ( 'classification_date' ) ;
#19 = ADVANCED_FACE ( 'NONE', ( #609 ), #440, .F. ) ;
#20 = CARTESIAN_POINT ( 'NONE',  ( 115.1675302410215380, 4.962897017148188455E-14, 0.000000000000000000 ) ) ;
#21 = ADVANCED_FACE ( 'NONE', ( #760 ), #620, .T. ) ;
#22 = CARTESIAN_POINT ( 'NONE',  ( 154.9999999999998579, 5.694607616035186914E-14, 0.000000000000000000 ) ) ;
#23 = DIRECTION ( 'NONE',  ( 0.000000000000000000, -1.000000000000000000, 0.000000000000000000 ) ) ;
#24 = ORIENTED_EDGE ( 'NONE', *, *, #859, .F. ) ;
#25 = DIRECTION ( 'NONE',  ( 2.249639673992786412E-32, -1.224646799147353207E-16, 1.000000000000000000 ) ) ;
#26 = CARTESIAN_POINT ( 'NONE',  ( 154.4690909162130481, 37.42383293827005275, 4.583097721967764106E-15 ) ) ;
#27 = ORIENTED_EDGE ( 'NONE', *, *, #9, .T. ) ;
#28 = CIRCLE ( 'NONE', #787, 54.89189178602018870 ) ;
#29 = ORIENTED_EDGE ( 'NONE', *, *, #901, .F. ) ;
#30 = DIRECTION ( 'NONE',  ( 1.000000000000000000, 1.836970198721029688E-16, 0.000000000000000000 ) ) ;
#31 = AXIS2_PLACEMENT_3D ( 'NONE', #870, #155, #562 ) ;
#32 = CIRCLE ( 'NONE', #635, 37.29999999999999716 ) ;
#33 = AXIS2_PLACEMENT_3D ( 'NONE', #691, #1032, #627 ) ;
#34 = EDGE_CURVE ( 'NONE', #972, #233, #862, .T. ) ;
#35 = FACE_OUTER_BOUND ( 'NONE', #878, .T. ) ;
#36 = ORIENTED_EDGE ( 'NONE', *, *, #606, .T. ) ;
#37 = CARTESIAN_POINT ( 'NONE',  ( 119.5917726059116575, 5.044169030910411056E-14, 0.000000000000000000 ) ) ;
#38 = CYLINDRICAL_SURFACE ( 'NONE', #351, 56.99999999999996447 ) ;
#39 = DIRECTION ( 'NONE',  ( 1.000000000000000000, 1.836970198721029688E-16, 0.000000000000000000 ) ) ;
#40 = VERTEX_POINT ( 'NONE', #529 ) ;
#41 = DIRECTION ( 'NONE',  ( 1.000000000000000000, 1.836970198721029934E-16, 0.000000000000000000 ) ) ;
#42 = ORIENTED_EDGE ( 'NONE', *, *, #626, .T. ) ;
#43 = VERTEX_POINT ( 'NONE', #104 ) ;
#44 = ADVANCED_FACE ( 'NONE', ( #1004 ), #232, .T. ) ;
#45 = CARTESIAN_POINT ( 'NONE',  ( 115.1675302410215664, -55.79999999999991900, 0.000000000000000000 ) ) ;
#46 = AXIS2_PLACEMENT_3D ( 'NONE', #558, #808, #985 ) ;
#47 = CARTESIAN_POINT ( 'NONE',  ( 157.3324697589783625, 6.472242469890214208E-14, 0.000000000000000000 ) ) ;
#48 = TOROIDAL_SURFACE ( 'NONE', #651, 48.50000000000000711, 10.00000000000000000 ) ;
#49 = VECTOR ( 'NONE', #366, 1000.000000000000114 ) ;
#50 = PRODUCT ( '79-9017 - 76mm Ljudd\X2\00e4\X0\mpare', '79-9017 - 76mm Ljudd\X2\00e4\X0\mpare', '', ( #979 ) ) ;
#51 = LOCAL_TIME ( 0, 4, 0.000000000000000000, #729 ) ;
#52 = DIRECTION ( 'NONE',  ( -2.434699615406046697E-16, 1.000000000000000000, 0.000000000000000000 ) ) ;
#53 = ORIENTED_EDGE ( 'NONE', *, *, #640, .T. ) ;
#54 = DIRECTION ( 'NONE',  ( 1.000000000000000000, 1.836970198721029688E-16, 0.000000000000000000 ) ) ;
#55 = ADVANCED_FACE ( 'NONE', ( #281 ), #426, .F. ) ;
#56 = CARTESIAN_POINT ( 'NONE',  ( -157.3324697589783625, 37.30000000000001137, 0.000000000000000000 ) ) ;
#57 = EDGE_CURVE ( 'NONE', #833, #207, #605, .T. ) ;
#58 = ORIENTED_EDGE ( 'NONE', *, *, #612, .T. ) ;
#59 = PERSON_AND_ORGANIZATION ( #714, #876 ) ;
#60 = FACE_OUTER_BOUND ( 'NONE', #556, .T. ) ;
#61 = ORIENTED_EDGE ( 'NONE', *, *, #801, .T. ) ;
#62 = DIRECTION ( 'NONE',  ( 1.836970198721029688E-16, -1.000000000000000000, 0.000000000000000000 ) ) ;
#63 = DIRECTION ( 'NONE',  ( -2.249639673992786412E-32, 1.224646799147353207E-16, 1.000000000000000000 ) ) ;
#64 = AXIS2_PLACEMENT_3D ( 'NONE', #817, #903, #884 ) ;
#65 = AXIS2_PLACEMENT_3D ( 'NONE', #928, #245, #509 ) ;
#66 = ADVANCED_FACE ( 'NONE', ( #600, #765 ), #934, .F. ) ;
#67 = AXIS2_PLACEMENT_3D ( 'NONE', #630, #533, #1015 ) ;
#68 = ORIENTED_EDGE ( 'NONE', *, *, #626, .F. ) ;
#69 = DIRECTION ( 'NONE',  ( 0.000000000000000000, -1.000000000000000000, 0.000000000000000000 ) ) ;
#70 = DIRECTION ( 'NONE',  ( 1.000000000000000000, 1.836970198721029688E-16, 0.000000000000000000 ) ) ;
#71 = CC_DESIGN_PERSON_AND_ORGANIZATION_ASSIGNMENT ( #59, #967, ( #451 ) ) ;
#72 = ORIENTED_EDGE ( 'NONE', *, *, #1043, .T. ) ;
#73 = DIRECTION ( 'NONE',  ( -1.836970198721029688E-16, 1.000000000000000000, 0.000000000000000000 ) ) ;
#74 = DIRECTION ( 'NONE',  ( 1.836970198721029688E-16, -1.000000000000000000, 0.000000000000000000 ) ) ;
#75 = LINE ( 'NONE', #159, #638 ) ;
#76 = EDGE_LOOP ( 'NONE', ( #569, #225, #518, #148 ) ) ;
#77 = CARTESIAN_POINT ( 'NONE',  ( -152.3773183103014048, -38.45577409051973916, 5.715896011179061071E-15 ) ) ;
#78 = FACE_OUTER_BOUND ( 'NONE', #254, .T. ) ;
#79 = AXIS2_PLACEMENT_3D ( 'NONE', #490, #1000, #177 ) ;
#80 = TOROIDAL_SURFACE ( 'NONE', #218, 48.50000000000000711, 11.19999999999999929 ) ;
#81 = FACE_OUTER_BOUND ( 'NONE', #704, .T. ) ;
#82 = CARTESIAN_POINT ( 'NONE',  ( -115.1675302410215380, -46.99999999999995737, 5.755839955992555908E-15 ) ) ;
#83 = ORIENTED_EDGE ( 'NONE', *, *, #146, .T. ) ;
#84 = DIRECTION ( 'NONE',  ( 0.000000000000000000, -1.000000000000000000, -1.224646799147353454E-16 ) ) ;
#85 = CARTESIAN_POINT ( 'NONE',  ( -152.9082273940882146, 3.842523939560705301E-16, 0.000000000000000000 ) ) ;
#86 = ADVANCED_FACE ( 'NONE', ( #109, #35 ), #360, .T. ) ;
#87 = ORIENTED_EDGE ( 'NONE', *, *, #350, .F. ) ;
#88 = FACE_OUTER_BOUND ( 'NONE', #506, .T. ) ;
#89 = ADVANCED_BREP_SHAPE_REPRESENTATION ( '79-9017 - 76mm Ljudd\X2\00e4\X0\mpare', ( #767, #16 ), #231 ) ;
#90 = CARTESIAN_POINT ( 'NONE',  ( -235.0000000000000000, 0.000000000000000000, 0.000000000000000000 ) ) ;
#91 = EDGE_CURVE ( 'NONE', #207, #798, #532, .T. ) ;
#92 = ORIENTED_EDGE ( 'NONE', *, *, #599, .T. ) ;
#93 = COORDINATED_UNIVERSAL_TIME_OFFSET ( 1, 0, .AHEAD. ) ;
#94 = AXIS2_PLACEMENT_3D ( 'NONE', #932, #540, #125 ) ;
#95 = TOROIDAL_SURFACE ( 'NONE', #479, 46.99999999999996447, 10.00000000000000000 ) ;
#96 = EDGE_LOOP ( 'NONE', ( #87, #524, #68, #501 ) ) ;
#97 = CARTESIAN_POINT ( 'NONE',  ( -157.3324697589783625, -37.29999999999998295, 4.567932560819627653E-15 ) ) ;
#98 = CYLINDRICAL_SURFACE ( 'NONE', #889, 38.50000000000000000 ) ;
#99 = ORIENTED_EDGE ( 'NONE', *, *, #982, .F. ) ;
#100 = ORIENTED_EDGE ( 'NONE', *, *, #305, .F. ) ;
#101 = EDGE_CURVE ( 'NONE', #530, #310, #877, .T. ) ;
#102 = CARTESIAN_POINT ( 'NONE',  ( 115.1675302410215522, -46.99999999999991473, 5.755839955992555908E-15 ) ) ;
#103 = DIRECTION ( 'NONE',  ( 1.000000000000000000, 1.836970198721029934E-16, 0.000000000000000000 ) ) ;
#104 = CARTESIAN_POINT ( 'NONE',  ( 119.0608635221248619, -54.89189178602013897, 0.000000000000000000 ) ) ;
#105 = ORIENTED_EDGE ( 'NONE', *, *, #126, .T. ) ;
#106 = CARTESIAN_POINT ( 'NONE',  ( 115.1675302410215522, 4.962897017148189086E-14, 0.000000000000000000 ) ) ;
#107 = ADVANCED_FACE ( 'NONE', ( #1054 ), #337, .T. ) ;
#108 = DIRECTION ( 'NONE',  ( 0.000000000000000000, 1.000000000000000000, 0.000000000000000000 ) ) ;
#109 = FACE_BOUND ( 'NONE', #719, .T. ) ;
#110 = AXIS2_PLACEMENT_3D ( 'NONE', #428, #587, #347 ) ;
#111 = ORIENTED_EDGE ( 'NONE', *, *, #1003, .T. ) ;
#112 = DIRECTION ( 'NONE',  ( 0.000000000000000000, -1.000000000000000000, 0.000000000000000000 ) ) ;
#113 = CIRCLE ( 'NONE', #755, 38.50000000000000000 ) ;
#114 = DIRECTION ( 'NONE',  ( -1.000000000000000000, -1.836970198721029688E-16, -0.000000000000000000 ) ) ;
#115 = CIRCLE ( 'NONE', #636, 37.29999999999999716 ) ;
#116 = EDGE_LOOP ( 'NONE', ( #243, #545 ) ) ;
#117 = EDGE_LOOP ( 'NONE', ( #99, #669, #905, #675 ) ) ;
#118 = CYLINDRICAL_SURFACE ( 'NONE', #247, 56.99999999999996447 ) ;
#119 = DIRECTION ( 'NONE',  ( 1.836970198721029688E-16, -1.000000000000000000, 0.000000000000000000 ) ) ;
#120 = ORIENTED_EDGE ( 'NONE', *, *, #1017, .F. ) ;
#121 = DIRECTION ( 'NONE',  ( 0.000000000000000000, 1.000000000000000000, 0.000000000000000000 ) ) ;
#122 = CARTESIAN_POINT ( 'NONE',  ( -157.3324697589783341, 6.919413051217985067E-15, 0.000000000000000000 ) ) ;
#123 = CARTESIAN_POINT ( 'NONE',  ( -119.5917726059116717, 55.96805884775022832, 0.000000000000000000 ) ) ;
#124 = ORIENTED_EDGE ( 'NONE', *, *, #974, .T. ) ;
#125 = DIRECTION ( 'NONE',  ( 0.000000000000000000, -1.000000000000000000, 0.000000000000000000 ) ) ;
#126 = EDGE_CURVE ( 'NONE', #693, #310, #492, .T. ) ;
#127 = AXIS2_PLACEMENT_3D ( 'NONE', #800, #63, #722 ) ;
#128 = DIRECTION ( 'NONE',  ( -1.000000000000000000, -1.836970198721029688E-16, -0.000000000000000000 ) ) ;
#129 = CIRCLE ( 'NONE', #802, 10.00000000000000178 ) ;
#130 = AXIS2_PLACEMENT_3D ( 'NONE', #290, #948, #521 ) ;
#131 = ORIENTED_EDGE ( 'NONE', *, *, #612, .F. ) ;
#132 = FACE_OUTER_BOUND ( 'NONE', #896, .T. ) ;
#133 = ADVANCED_FACE ( 'NONE', ( #814 ), #1051, .T. ) ;
#134 = CARTESIAN_POINT ( 'NONE',  ( -119.0608635221248335, 6.601912267762428002E-15, 0.000000000000000000 ) ) ;
#135 = EDGE_LOOP ( 'NONE', ( #1037, #643, #610, #931 ) ) ;
#136 = CARTESIAN_POINT ( 'NONE',  ( -157.3324697589783625, 38.50000000000001421, 0.000000000000000000 ) ) ;
#137 = CARTESIAN_POINT ( 'NONE',  ( 157.3324697589783625, 7.207030549378628883E-14, 0.000000000000000000 ) ) ;
#138 = EDGE_CURVE ( 'NONE', #972, #1013, #75, .T. ) ;
#139 = EDGE_LOOP ( 'NONE', ( #958, #252, #198, #3 ) ) ;
#140 = DIRECTION ( 'NONE',  ( -1.000000000000000000, -1.836970198721029934E-16, -0.000000000000000000 ) ) ;
#141 = FACE_OUTER_BOUND ( 'NONE', #8, .T. ) ;
#142 = VECTOR ( 'NONE', #128, 1000.000000000000000 ) ;
#143 = DIRECTION ( 'NONE',  ( 1.000000000000000000, 1.836970198721029934E-16, 0.000000000000000000 ) ) ;
#144 = AXIS2_PLACEMENT_3D ( 'NONE', #593, #582, #988 ) ;
#145 = CIRCLE ( 'NONE', #94, 38.50000000000000000 ) ;
#146 = EDGE_CURVE ( 'NONE', #585, #190, #543, .T. ) ;
#147 = AXIS2_PLACEMENT_3D ( 'NONE', #554, #381, #1038 ) ;
#148 = ORIENTED_EDGE ( 'NONE', *, *, #832, .T. ) ;
#149 = APPLICATION_PROTOCOL_DEFINITION ( 'international standard', 'config_control_design', 1994, #173 ) ;
#150 = DIRECTION ( 'NONE',  ( -0.8968058847750245421, -0.4424242364890124679, 0.000000000000000000 ) ) ;
#151 = CARTESIAN_POINT ( 'NONE',  ( 234.9999999999998863, 8.633759933988838042E-14, 0.000000000000000000 ) ) ;
#152 = ADVANCED_FACE ( 'NONE', ( #214 ), #320, .F. ) ;
#153 = ORIENTED_EDGE ( 'NONE', *, *, #836, .T. ) ;
#154 = FACE_OUTER_BOUND ( 'NONE', #623, .T. ) ;
#155 = DIRECTION ( 'NONE',  ( 1.000000000000000000, 1.836970198721029934E-16, 0.000000000000000000 ) ) ;
#156 = ORIENTED_EDGE ( 'NONE', *, *, #583, .F. ) ;
#157 = EDGE_CURVE ( 'NONE', #459, #1013, #774, .T. ) ;
#158 = DIRECTION ( 'NONE',  ( -1.000000000000000000, 0.000000000000000000, 0.000000000000000000 ) ) ;
#159 = CARTESIAN_POINT ( 'NONE',  ( -154.9999999999998579, -55.79999999999996874, 0.000000000000000000 ) ) ;
#160 = AXIS2_PLACEMENT_3D ( 'NONE', #397, #1050, #797 ) ;
#161 = AXIS2_PLACEMENT_3D ( 'NONE', #90, #103, #754 ) ;
#162 = UNCERTAINTY_MEASURE_WITH_UNIT (LENGTH_MEASURE( 1.000000000000000082E-05 ), #634, 'distance_accuracy_value', 'NONE');
#163 = ORIENTED_EDGE ( 'NONE', *, *, #343, .T. ) ;
#164 = VECTOR ( 'NONE', #318, 1000.000000000000000 ) ;
#165 = ORIENTED_EDGE ( 'NONE', *, *, #791, .T. ) ;
#166 = CARTESIAN_POINT ( 'NONE',  ( -115.1675302410215664, 56.99999999999997158, 6.980486755139908967E-15 ) ) ;
#167 = EDGE_CURVE ( 'NONE', #233, #1057, #981, .T. ) ;
#168 = DIRECTION ( 'NONE',  ( 1.000000000000000000, 1.836970198721029934E-16, 0.000000000000000000 ) ) ;
#169 = ORIENTED_EDGE ( 'NONE', *, *, #929, .T. ) ;
#170 = FACE_OUTER_BOUND ( 'NONE', #96, .T. ) ;
#171 = DIRECTION ( 'NONE',  ( 2.249639673992786412E-32, -1.224646799147353207E-16, 1.000000000000000000 ) ) ;
#172 = EDGE_CURVE ( 'NONE', #43, #939, #304, .T. ) ;
#173 = APPLICATION_CONTEXT ( 'configuration controlled 3d designs of mechanical parts and assemblies' ) ;
#174 = ORIENTED_EDGE ( 'NONE', *, *, #446, .F. ) ;
#175 = DATE_AND_TIME ( #592, #807 ) ;
#176 = VERTEX_POINT ( 'NONE', #951 ) ;
#177 = DIRECTION ( 'NONE',  ( -1.000000000000000000, 0.000000000000000000, 0.000000000000000000 ) ) ;
#178 = DIRECTION ( 'NONE',  ( -1.000000000000000000, -1.836970198721029688E-16, -0.000000000000000000 ) ) ;
#179 = CC_DESIGN_DATE_AND_TIME_ASSIGNMENT ( #886, #570, ( #451 ) ) ;
#180 = VECTOR ( 'NONE', #150, 999.9999999999998863 ) ;
#181 = CARTESIAN_POINT ( 'NONE',  ( 115.1675302410215522, 4.962897017148189086E-14, 0.000000000000000000 ) ) ;
#182 = PERSON_AND_ORGANIZATION ( #714, #876 ) ;
#183 = VECTOR ( 'NONE', #268, 1000.000000000000114 ) ;
#184 = APPROVAL_PERSON_ORGANIZATION ( #336, #292, #660 ) ;
#185 = DIRECTION ( 'NONE',  ( 0.000000000000000000, -1.000000000000000000, 0.000000000000000000 ) ) ;
#186 = AXIS2_PLACEMENT_3D ( 'NONE', #894, #957, #324 ) ;
#187 = DIRECTION ( 'NONE',  ( -1.000000000000000000, -1.836970198721029688E-16, -0.000000000000000000 ) ) ;
#188 = DIRECTION ( 'NONE',  ( 0.8968058847750245421, 0.4424242364890124679, 0.000000000000000000 ) ) ;
#189 = EDGE_CURVE ( 'NONE', #618, #1048, #10, .T. ) ;
#190 = VERTEX_POINT ( 'NONE', #228 ) ;
#191 = DIRECTION ( 'NONE',  ( 0.000000000000000000, -1.000000000000000000, 1.224646799147352468E-16 ) ) ;
#192 = DIRECTION ( 'NONE',  ( 0.000000000000000000, 1.000000000000000000, 0.000000000000000000 ) ) ;
#193 = CARTESIAN_POINT ( 'NONE',  ( -235.0000000000000000, 0.000000000000000000, 0.000000000000000000 ) ) ;
#194 = EDGE_LOOP ( 'NONE', ( #654, #581, #838, #156 ) ) ;
#195 = CARTESIAN_POINT ( 'NONE',  ( -154.9999999999998579, 0.000000000000000000, 0.000000000000000000 ) ) ;
#196 = ADVANCED_FACE ( 'NONE', ( #986 ), #579, .T. ) ;
#197 = DIRECTION ( 'NONE',  ( 1.000000000000000000, 1.836970198721029688E-16, 0.000000000000000000 ) ) ;
#198 = ORIENTED_EDGE ( 'NONE', *, *, #526, .T. ) ;
#199 = CIRCLE ( 'NONE', #750, 54.89189178602018870 ) ;
#200 = EDGE_LOOP ( 'NONE', ( #757, #306, #828, #100 ) ) ;
#201 = CONICAL_SURFACE ( 'NONE', #248, 38.50000000000002842, 0.4583000663916555473 ) ;
#202 = CARTESIAN_POINT ( 'NONE',  ( 234.9999999999998863, 8.633759933988838042E-14, 0.000000000000000000 ) ) ;
#203 = CARTESIAN_POINT ( 'NONE',  ( -235.0000000000000000, 38.50000000000000000, 0.000000000000000000 ) ) ;
#204 = ADVANCED_FACE ( 'NONE', ( #899 ), #538, .F. ) ;
#205 = VECTOR ( 'NONE', #826, 1000.000000000000000 ) ;
#206 = VERTEX_POINT ( 'NONE', #818 ) ;
#207 = VERTEX_POINT ( 'NONE', #123 ) ;
#208 = DIRECTION ( 'NONE',  ( -1.000000000000000000, -1.836970198721029688E-16, -0.000000000000000000 ) ) ;
#209 = DIRECTION ( 'NONE',  ( -1.000000000000000000, -1.836970198721029688E-16, -0.000000000000000000 ) ) ;
#210 = ADVANCED_FACE ( 'NONE', ( #78 ), #718, .T. ) ;
#211 = ORIENTED_EDGE ( 'NONE', *, *, #146, .F. ) ;
#212 = CARTESIAN_POINT ( 'NONE',  ( -115.1675302410215380, -56.99999999999996447, 0.000000000000000000 ) ) ;
#213 = CARTESIAN_POINT ( 'NONE',  ( 115.1675302410215522, 4.962897017148189086E-14, 0.000000000000000000 ) ) ;
#214 = FACE_OUTER_BOUND ( 'NONE', #882, .T. ) ;
#215 = ORIENTED_EDGE ( 'NONE', *, *, #783, .F. ) ;
#216 = APPROVAL_ROLE ( '' ) ;
#217 = VECTOR ( 'NONE', #527, 1000.000000000000000 ) ;
#218 = AXIS2_PLACEMENT_3D ( 'NONE', #358, #858, #119 ) ;
#219 = CIRCLE ( 'NONE', #493, 55.96805884775021411 ) ;
#220 = AXIS2_PLACEMENT_3D ( 'NONE', #790, #240, #572 ) ;
#221 = ORIENTED_EDGE ( 'NONE', *, *, #692, .T. ) ;
#222 = DIRECTION ( 'NONE',  ( 1.000000000000000000, 1.836970198721029934E-16, 0.000000000000000000 ) ) ;
#223 = ORIENTED_EDGE ( 'NONE', *, *, #305, .T. ) ;
#224 = DIRECTION ( 'NONE',  ( -1.000000000000000000, -1.836970198721029688E-16, -0.000000000000000000 ) ) ;
#225 = ORIENTED_EDGE ( 'NONE', *, *, #489, .T. ) ;
#226 = APPLICATION_PROTOCOL_DEFINITION ( 'international standard', 'config_control_design', 1994, #614 ) ;
#227 = CARTESIAN_POINT ( 'NONE',  ( 157.3324697589783625, 7.207030549378628883E-14, 0.000000000000000000 ) ) ;
#228 = CARTESIAN_POINT ( 'NONE',  ( 234.9999999999998863, 37.30000000000008242, 0.000000000000000000 ) ) ;
#229 = EDGE_CURVE ( 'NONE', #206, #676, #709, .T. ) ;
#230 = AXIS2_PLACEMENT_3D ( 'NONE', #855, #536, #449 ) ;
#231 =( GEOMETRIC_REPRESENTATION_CONTEXT ( 3 ) GLOBAL_UNCERTAINTY_ASSIGNED_CONTEXT ( ( #162 ) ) GLOBAL_UNIT_ASSIGNED_CONTEXT ( ( #634, #720, #641 ) ) REPRESENTATION_CONTEXT ( 'NONE', 'WORKASPACE' ) );
#232 = TOROIDAL_SURFACE ( 'NONE', #756, 46.99999999999996447, 10.00000000000000000 ) ;
#233 = VERTEX_POINT ( 'NONE', #764 ) ;
#234 = CARTESIAN_POINT ( 'NONE',  ( -157.3324697589783625, -38.49999999999998579, 4.714890176717309515E-15 ) ) ;
#235 = DIRECTION ( 'NONE',  ( 0.000000000000000000, 1.000000000000000000, 0.000000000000000000 ) ) ;
#236 = EDGE_CURVE ( 'NONE', #585, #176, #701, .T. ) ;
#237 = ORIENTED_EDGE ( 'NONE', *, *, #1036, .T. ) ;
#238 = ORIENTED_EDGE ( 'NONE', *, *, #57, .T. ) ;
#239 = DIRECTION ( 'NONE',  ( -2.528203593695205411E-16, 1.000000000000000000, 0.000000000000000000 ) ) ;
#240 = DIRECTION ( 'NONE',  ( 0.000000000000000000, 0.000000000000000000, -1.000000000000000000 ) ) ;
#241 = ORIENTED_EDGE ( 'NONE', *, *, #269, .T. ) ;
#242 = PERSON_AND_ORGANIZATION_ROLE ( 'creator' ) ;
#243 = ORIENTED_EDGE ( 'NONE', *, *, #1017, .T. ) ;
#244 = DIRECTION ( 'NONE',  ( 1.000000000000000000, 1.836970198721029934E-16, 0.000000000000000000 ) ) ;
#245 = DIRECTION ( 'NONE',  ( 1.000000000000000000, 1.836970198721029688E-16, 0.000000000000000000 ) ) ;
#246 = CIRCLE ( 'NONE', #161, 38.50000000000000000 ) ;
#247 = AXIS2_PLACEMENT_3D ( 'NONE', #195, #208, #112 ) ;
#248 = AXIS2_PLACEMENT_3D ( 'NONE', #22, #916, #920 ) ;
#249 = ORIENTED_EDGE ( 'NONE', *, *, #236, .T. ) ;
#250 = SECURITY_CLASSIFICATION ( '', '', #505 ) ;
#251 = CYLINDRICAL_SURFACE ( 'NONE', #144, 38.50000000000000000 ) ;
#252 = ORIENTED_EDGE ( 'NONE', *, *, #499, .T. ) ;
#253 = PERSON_AND_ORGANIZATION_ROLE ( 'design_supplier' ) ;
#254 = EDGE_LOOP ( 'NONE', ( #365, #999, #238, #27 ) ) ;
#255 = CARTESIAN_POINT ( 'NONE',  ( -235.0000000000000000, 38.50000000000000000, 0.000000000000000000 ) ) ;
#256 = CARTESIAN_POINT ( 'NONE',  ( -115.1675302410215522, 7.317105988869979850E-15, 0.000000000000000000 ) ) ;
#257 = EDGE_LOOP ( 'NONE', ( #468, #779, #325, #837 ) ) ;
#258 = COORDINATED_UNIVERSAL_TIME_OFFSET ( 1, 0, .AHEAD. ) ;
#259 = VERTEX_POINT ( 'NONE', #848 ) ;
#260 = DIRECTION ( 'NONE',  ( -0.8968058847750245421, 0.4424242364890120238, 5.418134250814804416E-17 ) ) ;
#261 = DIRECTION ( 'NONE',  ( -0.8968058847750245421, -0.4424242364890124679, 0.000000000000000000 ) ) ;
#262 = AXIS2_PLACEMENT_3D ( 'NONE', #393, #561, #726 ) ;
#263 = CIRCLE ( 'NONE', #282, 10.00000000000000178 ) ;
#264 = AXIS2_PLACEMENT_3D ( 'NONE', #344, #178, #1 ) ;
#265 = CIRCLE ( 'NONE', #875, 8.800000000000002487 ) ;
#266 = EDGE_LOOP ( 'NONE', ( #539, #494, #124, #1018 ) ) ;
#267 = DIRECTION ( 'NONE',  ( 1.000000000000000000, 1.836970198721029688E-16, 0.000000000000000000 ) ) ;
#268 = DIRECTION ( 'NONE',  ( -0.8968058847750245421, 0.4424242364890120238, 5.418134250814804416E-17 ) ) ;
#269 = EDGE_CURVE ( 'NONE', #4, #466, #840, .T. ) ;
#270 = LINE ( 'NONE', #696, #465 ) ;
#271 = ADVANCED_FACE ( 'NONE', ( #332 ), #201, .T. ) ;
#272 = ORIENTED_EDGE ( 'NONE', *, *, #606, .F. ) ;
#273 = DIRECTION ( 'NONE',  ( 0.000000000000000000, 0.000000000000000000, -1.000000000000000000 ) ) ;
#274 = DIRECTION ( 'NONE',  ( 0.000000000000000000, -1.000000000000000000, 0.000000000000000000 ) ) ;
#275 = CARTESIAN_POINT ( 'NONE',  ( 152.9082273940882430, -39.53194115224970773, 0.000000000000000000 ) ) ;
#276 = EDGE_LOOP ( 'NONE', ( #854, #165, #399, #92 ) ) ;
#277 = EDGE_CURVE ( 'NONE', #40, #724, #284, .T. ) ;
#278 = CARTESIAN_POINT ( 'NONE',  ( -235.0000000000000000, -38.50000000000000000, 4.714890176717310304E-15 ) ) ;
#279 = FACE_OUTER_BOUND ( 'NONE', #742, .T. ) ;
#280 = AXIS2_PLACEMENT_3D ( 'NONE', #311, #467, #74 ) ;
#281 = FACE_OUTER_BOUND ( 'NONE', #863, .T. ) ;
#282 = AXIS2_PLACEMENT_3D ( 'NONE', #102, #834, #327 ) ;
#283 = ORIENTED_EDGE ( 'NONE', *, *, #590, .F. ) ;
#284 = CIRCLE ( 'NONE', #264, 38.45577409051973206 ) ;
#285 = DIRECTION ( 'NONE',  ( 0.8968058847750245421, -0.4424242364890120238, 5.418134250814804416E-17 ) ) ;
#286 = EDGE_CURVE ( 'NONE', #990, #715, #246, .T. ) ;
#287 = CONICAL_SURFACE ( 'NONE', #891, 55.92383293826993906, 0.4583000663916555473 ) ;
#288 = CARTESIAN_POINT ( 'NONE',  ( -115.1675302410215522, 7.317105988869978273E-15, 0.000000000000000000 ) ) ;
#289 = ORIENTED_EDGE ( 'NONE', *, *, #446, .T. ) ;
#290 = CARTESIAN_POINT ( 'NONE',  ( -235.0000000000000000, 0.000000000000000000, 0.000000000000000000 ) ) ;
#291 = CARTESIAN_POINT ( 'NONE',  ( -154.9999999999998579, 0.000000000000000000, 0.000000000000000000 ) ) ;
#292 = APPROVAL ( #829, 'UNSPECIFIED' ) ;
#293 = EDGE_CURVE ( 'NONE', #4, #299, #328, .T. ) ;
#294 = CARTESIAN_POINT ( 'NONE',  ( -235.0000000000000000, -37.29999999999999716, 4.567932560819627653E-15 ) ) ;
#295 = ORIENTED_EDGE ( 'NONE', *, *, #1002, .T. ) ;
#296 = CARTESIAN_POINT ( 'NONE',  ( 119.0608635221248335, 54.89189178602023844, 6.722317957489251688E-15 ) ) ;
#297 = FACE_OUTER_BOUND ( 'NONE', #746, .T. ) ;
#298 = ADVANCED_FACE ( 'NONE', ( #348 ), #789, .F. ) ;
#299 = VERTEX_POINT ( 'NONE', #595 ) ;
#300 = CARTESIAN_POINT ( 'NONE',  ( -115.1675302410215664, 55.79999999999997584, 6.833529139242227105E-15 ) ) ;
#301 = CIRCLE ( 'NONE', #64, 55.96805884775021411 ) ;
#302 = DIRECTION ( 'NONE',  ( 1.000000000000000000, 1.836970198721029934E-16, 0.000000000000000000 ) ) ;
#303 = AXIS2_PLACEMENT_3D ( 'NONE', #462, #30, #121 ) ;
#304 = CIRCLE ( 'NONE', #771, 54.89189178602018160 ) ;
#305 = EDGE_CURVE ( 'NONE', #833, #408, #528, .T. ) ;
#306 = ORIENTED_EDGE ( 'NONE', *, *, #189, .F. ) ;
#307 = LINE ( 'NONE', #897, #422 ) ;
#308 = ADVANCED_FACE ( 'NONE', ( #439 ), #597, .F. ) ;
#309 = CARTESIAN_POINT ( 'NONE',  ( -157.3324697589783341, 6.919413051217985067E-15, 0.000000000000000000 ) ) ;
#310 = VERTEX_POINT ( 'NONE', #674 ) ;
#311 = CARTESIAN_POINT ( 'NONE',  ( -157.3324697589783341, 6.919413051217985067E-15, 0.000000000000000000 ) ) ;
#312 = CARTESIAN_POINT ( 'NONE',  ( -235.0000000000000000, 37.29999999999999716, 0.000000000000000000 ) ) ;
#313 = ORIENTED_EDGE ( 'NONE', *, *, #189, .T. ) ;
#314 = DIRECTION ( 'NONE',  ( 1.000000000000000000, 0.000000000000000000, 0.000000000000000000 ) ) ;
#315 = DIRECTION ( 'NONE',  ( 2.487058746920154947E-16, -1.000000000000000000, 0.000000000000000000 ) ) ;
#316 = CIRCLE ( 'NONE', #923, 37.29999999999999716 ) ;
#317 = AXIS2_PLACEMENT_3D ( 'NONE', #919, #25, #84 ) ;
#318 = DIRECTION ( 'NONE',  ( -1.000000000000000000, -1.836970198721029688E-16, -0.000000000000000000 ) ) ;
#319 = TOROIDAL_SURFACE ( 'NONE', #510, 46.99999999999996447, 10.00000000000000000 ) ;
#320 = TOROIDAL_SURFACE ( 'NONE', #601, 46.99999999999996447, 8.800000000000000711 ) ;
#321 = ORIENTED_EDGE ( 'NONE', *, *, #706, .F. ) ;
#322 = EDGE_LOOP ( 'NONE', ( #534, #844, #83, #966 ) ) ;
#323 = DIRECTION ( 'NONE',  ( 1.000000000000000000, 1.836970198721029934E-16, 0.000000000000000000 ) ) ;
#324 = DIRECTION ( 'NONE',  ( 0.000000000000000000, 1.000000000000000000, 0.000000000000000000 ) ) ;
#325 = ORIENTED_EDGE ( 'NONE', *, *, #2, .T. ) ;
#326 = APPROVAL_DATE_TIME ( #914, #292 ) ;
#327 = DIRECTION ( 'NONE',  ( 0.000000000000000000, -1.000000000000000000, 1.224646799147352714E-16 ) ) ;
#328 = LINE ( 'NONE', #678, #441 ) ;
#329 = EDGE_CURVE ( 'NONE', #676, #448, #354, .T. ) ;
#330 = ORIENTED_EDGE ( 'NONE', *, *, #91, .T. ) ;
#331 = ORIENTED_EDGE ( 'NONE', *, *, #968, .F. ) ;
#332 = FACE_OUTER_BOUND ( 'NONE', #276, .T. ) ;
#333 = AXIS2_PLACEMENT_3D ( 'NONE', #213, #114, #938 ) ;
#334 = AXIS2_PLACEMENT_3D ( 'NONE', #20, #410, #342 ) ;
#335 = ORIENTED_EDGE ( 'NONE', *, *, #671, .T. ) ;
#336 = PERSON_AND_ORGANIZATION ( #714, #876 ) ;
#337 = TOROIDAL_SURFACE ( 'NONE', #1028, 46.99999999999996447, 10.00000000000000000 ) ;
#338 = DIRECTION ( 'NONE',  ( 1.000000000000000000, 1.836970198721029934E-16, 0.000000000000000000 ) ) ;
#339 = DIRECTION ( 'NONE',  ( 1.000000000000000000, 1.836970198721029688E-16, 0.000000000000000000 ) ) ;
#340 = EDGE_LOOP ( 'NONE', ( #331, #733 ) ) ;
#341 = COORDINATED_UNIVERSAL_TIME_OFFSET ( 1, 0, .AHEAD. ) ;
#342 = DIRECTION ( 'NONE',  ( -1.836970198721029688E-16, 1.000000000000000000, 0.000000000000000000 ) ) ;
#343 = EDGE_CURVE ( 'NONE', #724, #939, #436, .T. ) ;
#344 = CARTESIAN_POINT ( 'NONE',  ( 152.3773183103014617, 5.646429734988113855E-14, 0.000000000000000000 ) ) ;
#345 = DIRECTION ( 'NONE',  ( -1.000000000000000000, -1.836970198721029688E-16, -0.000000000000000000 ) ) ;
#346 = EDGE_LOOP ( 'NONE', ( #413, #867, #672, #215 ) ) ;
#347 = DIRECTION ( 'NONE',  ( 0.000000000000000000, -1.000000000000000000, -1.224646799147353454E-16 ) ) ;
#348 = FACE_OUTER_BOUND ( 'NONE', #346, .T. ) ;
#349 = EDGE_CURVE ( 'NONE', #466, #693, #129, .T. ) ;
#350 = EDGE_CURVE ( 'NONE', #233, #972, #369, .T. ) ;
#351 = AXIS2_PLACEMENT_3D ( 'NONE', #291, #1020, #274 ) ;
#352 = AXIS2_PLACEMENT_3D ( 'NONE', #998, #1030, #937 ) ;
#353 = CARTESIAN_POINT ( 'NONE',  ( -115.1675302410215522, 7.317105988869979850E-15, 0.000000000000000000 ) ) ;
#354 = CIRCLE ( 'NONE', #666, 37.29999999999999716 ) ;
#355 = AXIS2_PLACEMENT_3D ( 'NONE', #1014, #273, #607 ) ;
#356 = ORIENTED_EDGE ( 'NONE', *, *, #412, .F. ) ;
#357 = CARTESIAN_POINT ( 'NONE',  ( -116.9690909162131618, -55.92383293826993196, 6.848694300390360403E-15 ) ) ;
#358 = CARTESIAN_POINT ( 'NONE',  ( 157.3324697589783625, 6.472242469890214208E-14, 0.000000000000000000 ) ) ;
#359 = ADVANCED_FACE ( 'NONE', ( #933 ), #98, .T. ) ;
#360 = PLANE ( 'NONE',  #33 ) ;
#361 = ORIENTED_EDGE ( 'NONE', *, *, #568, .F. ) ;
#362 = DIRECTION ( 'NONE',  ( 1.000000000000000000, 1.836970198721029688E-16, 0.000000000000000000 ) ) ;
#363 = CARTESIAN_POINT ( 'NONE',  ( -154.9999999999998579, -56.99999999999996447, 0.000000000000000000 ) ) ;
#364 = DIRECTION ( 'NONE',  ( -1.836970198721029688E-16, 1.000000000000000000, 0.000000000000000000 ) ) ;
#365 = ORIENTED_EDGE ( 'NONE', *, *, #836, .F. ) ;
#366 = DIRECTION ( 'NONE',  ( 0.8968058847750245421, -0.4424242364890120238, 5.418134250814804416E-17 ) ) ;
#367 = CARTESIAN_POINT ( 'NONE',  ( 115.1675302410215238, 47.00000000000001421, 0.000000000000000000 ) ) ;
#368 = ORIENTED_EDGE ( 'NONE', *, *, #57, .F. ) ;
#369 = CIRCLE ( 'NONE', #944, 55.79999999999996874 ) ;
#370 = DIRECTION ( 'NONE',  ( 0.000000000000000000, 0.000000000000000000, -1.000000000000000000 ) ) ;
#371 = FACE_OUTER_BOUND ( 'NONE', #520, .T. ) ;
#372 = DIRECTION ( 'NONE',  ( 1.000000000000000000, 1.836970198721029688E-16, 0.000000000000000000 ) ) ;
#373 = VERTEX_POINT ( 'NONE', #989 ) ;
#374 = FACE_OUTER_BOUND ( 'NONE', #257, .T. ) ;
#375 = CARTESIAN_POINT ( 'NONE',  ( 157.3324697589783625, -38.49999999999992895, 4.714890176717310304E-15 ) ) ;
#376 = ADVANCED_FACE ( 'NONE', ( #912 ), #319, .T. ) ;
#377 = ORIENTED_EDGE ( 'NONE', *, *, #269, .F. ) ;
#378 = CARTESIAN_POINT ( 'NONE',  ( 234.9999999999998863, -38.49999999999991473, 4.714890176717309515E-15 ) ) ;
#379 = EDGE_CURVE ( 'NONE', #206, #259, #475, .T. ) ;
#380 = EDGE_LOOP ( 'NONE', ( #223, #153, #930, #368 ) ) ;
#381 = DIRECTION ( 'NONE',  ( 1.000000000000000000, 1.836970198721029688E-16, 0.000000000000000000 ) ) ;
#382 = VECTOR ( 'NONE', #302, 1000.000000000000000 ) ;
#383 = AXIS2_PLACEMENT_3D ( 'NONE', #759, #17, #831 ) ;
#384 = AXIS2_PLACEMENT_3D ( 'NONE', #915, #267, #15 ) ;
#385 = CYLINDRICAL_SURFACE ( 'NONE', #160, 38.50000000000000000 ) ;
#386 = CIRCLE ( 'NONE', #12, 39.53194115224976457 ) ;
#387 = CC_DESIGN_APPROVAL ( #950, ( #425 ) ) ;
#388 = AXIS2_PLACEMENT_3D ( 'NONE', #181, #345, #679 ) ;
#389 = ADVANCED_FACE ( 'NONE', ( #6 ), #48, .F. ) ;
#390 = DESIGN_CONTEXT ( 'detailed design', #173, 'design' ) ;
#391 = VERTEX_POINT ( 'NONE', #794 ) ;
#392 = APPROVAL_STATUS ( 'not_yet_approved' ) ;
#393 = CARTESIAN_POINT ( 'NONE',  ( -157.3324697589783341, -48.50000000000000000, 0.000000000000000000 ) ) ;
#394 = DIRECTION ( 'NONE',  ( -1.836970198721029688E-16, 1.000000000000000000, 0.000000000000000000 ) ) ;
#395 = ORIENTED_EDGE ( 'NONE', *, *, #658, .F. ) ;
#396 = EDGE_CURVE ( 'NONE', #176, #485, #1035, .T. ) ;
#397 = CARTESIAN_POINT ( 'NONE',  ( -235.0000000000000000, 0.000000000000000000, 0.000000000000000000 ) ) ;
#398 = DIRECTION ( 'NONE',  ( 1.000000000000000000, 1.836970198721029934E-16, 0.000000000000000000 ) ) ;
#399 = ORIENTED_EDGE ( 'NONE', *, *, #293, .T. ) ;
#400 = PERSON_AND_ORGANIZATION ( #714, #876 ) ;
#401 = ADVANCED_FACE ( 'NONE', ( #865 ), #461, .F. ) ;
#402 = DIRECTION ( 'NONE',  ( 2.249639673992786412E-32, -1.224646799147353207E-16, 1.000000000000000000 ) ) ;
#403 = AXIS2_PLACEMENT_3D ( 'NONE', #642, #224, #69 ) ;
#404 = ADVANCED_FACE ( 'NONE', ( #297 ), #80, .T. ) ;
#405 = DIRECTION ( 'NONE',  ( -1.000000000000000000, -1.836970198721029688E-16, -0.000000000000000000 ) ) ;
#406 = CIRCLE ( 'NONE', #548, 56.99999999999996447 ) ;
#407 = CIRCLE ( 'NONE', #147, 38.45577409051973916 ) ;
#408 = VERTEX_POINT ( 'NONE', #869 ) ;
#409 = DATE_AND_TIME ( #514, #653 ) ;
#410 = DIRECTION ( 'NONE',  ( 1.000000000000000000, 1.836970198721029688E-16, 0.000000000000000000 ) ) ;
#411 = DIRECTION ( 'NONE',  ( 0.000000000000000000, -1.000000000000000000, 0.000000000000000000 ) ) ;
#412 = EDGE_CURVE ( 'NONE', #715, #1048, #690, .T. ) ;
#413 = ORIENTED_EDGE ( 'NONE', *, *, #343, .F. ) ;
#414 = CYLINDRICAL_SURFACE ( 'NONE', #874, 55.79999999999996874 ) ;
#415 = DIRECTION ( 'NONE',  ( -1.836970198721029688E-16, 1.000000000000000000, 0.000000000000000000 ) ) ;
#416 = ORIENTED_EDGE ( 'NONE', *, *, #974, .F. ) ;
#417 = ORIENTED_EDGE ( 'NONE', *, *, #229, .F. ) ;
#418 = DIRECTION ( 'NONE',  ( 2.479590697538067764E-16, -1.000000000000000000, 0.000000000000000000 ) ) ;
#419 = AXIS2_PLACEMENT_3D ( 'NONE', #980, #402, #483 ) ;
#420 = DIRECTION ( 'NONE',  ( 0.000000000000000000, 1.000000000000000000, 0.000000000000000000 ) ) ;
#421 = AXIS2_PLACEMENT_3D ( 'NONE', #911, #747, #418 ) ;
#422 = VECTOR ( 'NONE', #473, 1000.000000000000000 ) ;
#423 = ORIENTED_EDGE ( 'NONE', *, *, #349, .T. ) ;
#424 = CALENDAR_DATE ( 2026, 16, 9 ) ;
#425 = PRODUCT_DEFINITION_FORMATION_WITH_SPECIFIED_SOURCE ( 'ANY', '', #50, .NOT_KNOWN. ) ;
#426 = TOROIDAL_SURFACE ( 'NONE', #552, 46.99999999999996447, 8.800000000000000711 ) ;
#427 = ORIENTED_EDGE ( 'NONE', *, *, #956, .T. ) ;
#428 = CARTESIAN_POINT ( 'NONE',  ( -157.3324697589783341, 48.50000000000001421, 5.939536975864664152E-15 ) ) ;
#429 = DIRECTION ( 'NONE',  ( 1.000000000000000000, 1.836970198721029934E-16, 0.000000000000000000 ) ) ;
#430 = DIRECTION ( 'NONE',  ( 2.479590697538067764E-16, -1.000000000000000000, 0.000000000000000000 ) ) ;
#431 = PERSON_AND_ORGANIZATION_ROLE ( 'classification_officer' ) ;
#432 = EDGE_CURVE ( 'NONE', #408, #833, #386, .T. ) ;
#433 = ORIENTED_EDGE ( 'NONE', *, *, #293, .F. ) ;
#434 = CARTESIAN_POINT ( 'NONE',  ( -117.5000000000000000, 6.888638245203836306E-15, 0.000000000000000000 ) ) ;
#435 = ADVANCED_FACE ( 'NONE', ( #371 ), #287, .F. ) ;
#436 = LINE ( 'NONE', #26, #183 ) ;
#437 = ORIENTED_EDGE ( 'NONE', *, *, #138, .T. ) ;
#438 = DIRECTION ( 'NONE',  ( -1.000000000000000000, -1.836970198721029688E-16, -0.000000000000000000 ) ) ;
#439 = FACE_OUTER_BOUND ( 'NONE', #117, .T. ) ;
#440 = CYLINDRICAL_SURFACE ( 'NONE', #580, 37.29999999999999716 ) ;
#441 = VECTOR ( 'NONE', #261, 999.9999999999998863 ) ;
#442 = AXIS2_PLACEMENT_3D ( 'NONE', #469, #629, #62 ) ;
#443 = ORIENTED_EDGE ( 'NONE', *, *, #671, .F. ) ;
#444 = CARTESIAN_POINT ( 'NONE',  ( 115.1675302410215238, 47.00000000000001421, 0.000000000000000000 ) ) ;
#445 = FACE_OUTER_BOUND ( 'NONE', #76, .T. ) ;
#446 = EDGE_CURVE ( 'NONE', #676, #632, #1026, .T. ) ;
#447 = DIRECTION ( 'NONE',  ( -1.000000000000000000, -1.836970198721029688E-16, -0.000000000000000000 ) ) ;
#448 = VERTEX_POINT ( 'NONE', #56 ) ;
#449 = DIRECTION ( 'NONE',  ( -2.481551617381642926E-16, 1.000000000000000000, 0.000000000000000000 ) ) ;
#450 = CARTESIAN_POINT ( 'NONE',  ( -152.9082273940882146, 3.842523939560705301E-16, 0.000000000000000000 ) ) ;
#451 = PRODUCT_DEFINITION ( 'UNKNOWN', '', #425, #390 ) ;
#452 = ORIENTED_EDGE ( 'NONE', *, *, #526, .F. ) ;
#453 = ORIENTED_EDGE ( 'NONE', *, *, #91, .F. ) ;
#454 = CARTESIAN_POINT ( 'NONE',  ( -119.5917726059116433, -55.96805884775020701, 6.854110412238798674E-15 ) ) ;
#455 = DIRECTION ( 'NONE',  ( 1.000000000000000000, 1.836970198721029934E-16, 0.000000000000000000 ) ) ;
#456 = AXIS2_PLACEMENT_3D ( 'NONE', #555, #898, #315 ) ;
#457 = DIRECTION ( 'NONE',  ( 1.000000000000000000, 1.836970198721029688E-16, 0.000000000000000000 ) ) ;
#458 = CIRCLE ( 'NONE', #384, 55.79999999999996874 ) ;
#459 = VERTEX_POINT ( 'NONE', #608 ) ;
#460 = ADVANCED_FACE ( 'NONE', ( #445 ), #38, .T. ) ;
#461 = TOROIDAL_SURFACE ( 'NONE', #736, 48.50000000000000711, 10.00000000000000000 ) ;
#462 = CARTESIAN_POINT ( 'NONE',  ( -152.3773183103014048, 4.817788104707366016E-16, 0.000000000000000000 ) ) ;
#463 = LOCAL_TIME ( 0, 4, 0.000000000000000000, #799 ) ;
#464 = CARTESIAN_POINT ( 'NONE',  ( 152.9082273940882430, 39.53194115224982141, 5.847688465928611213E-15 ) ) ;
#465 = VECTOR ( 'NONE', #188, 999.9999999999998863 ) ;
#466 = VERTEX_POINT ( 'NONE', #464 ) ;
#467 = DIRECTION ( 'NONE',  ( -1.000000000000000000, -1.836970198721029688E-16, -0.000000000000000000 ) ) ;
#468 = ORIENTED_EDGE ( 'NONE', *, *, #956, .F. ) ;
#469 = CARTESIAN_POINT ( 'NONE',  ( 157.3324697589783625, 6.472242469890214208E-14, 0.000000000000000000 ) ) ;
#470 = DIRECTION ( 'NONE',  ( -1.000000000000000000, -1.836970198721029688E-16, -0.000000000000000000 ) ) ;
#471 = ADVANCED_FACE ( 'NONE', ( #279 ), #976, .F. ) ;
#472 = ORIENTED_EDGE ( 'NONE', *, *, #664, .F. ) ;
#473 = DIRECTION ( 'NONE',  ( 1.000000000000000000, 1.836970198721029934E-16, 0.000000000000000000 ) ) ;
#474 = AXIS2_PLACEMENT_3D ( 'NONE', #288, #621, #949 ) ;
#475 = CIRCLE ( 'NONE', #546, 37.29999999999999716 ) ;
#476 = CIRCLE ( 'NONE', #11, 39.53194115224976457 ) ;
#477 = AXIS2_PLACEMENT_3D ( 'NONE', #868, #531, #872 ) ;
#478 = CARTESIAN_POINT ( 'NONE',  ( -115.1675302410215522, 7.317105988869979850E-15, 0.000000000000000000 ) ) ;
#479 = AXIS2_PLACEMENT_3D ( 'NONE', #650, #482, #73 ) ;
#480 = EDGE_CURVE ( 'NONE', #936, #846, #781, .T. ) ;
#481 = ORIENTED_EDGE ( 'NONE', *, *, #2, .F. ) ;
#482 = DIRECTION ( 'NONE',  ( 1.000000000000000000, 1.836970198721029688E-16, 0.000000000000000000 ) ) ;
#483 = DIRECTION ( 'NONE',  ( 0.000000000000000000, -1.000000000000000000, -1.224646799147353454E-16 ) ) ;
#484 = CARTESIAN_POINT ( 'NONE',  ( -235.0000000000000000, 38.50000000000000000, 0.000000000000000000 ) ) ;
#485 = VERTEX_POINT ( 'NONE', #881 ) ;
#486 = CARTESIAN_POINT ( 'NONE',  ( -235.0000000000000000, -38.50000000000000000, 4.714890176717309515E-15 ) ) ;
#487 = CARTESIAN_POINT ( 'NONE',  ( -154.9999999999998579, 55.79999999999996874, 6.833529139242227105E-15 ) ) ;
#488 = VERTEX_POINT ( 'NONE', #375 ) ;
#489 = EDGE_CURVE ( 'NONE', #391, #936, #615, .T. ) ;
#490 = CARTESIAN_POINT ( 'NONE',  ( 157.3324697589783625, -48.49999999999994316, 0.000000000000000000 ) ) ;
#491 = AXIS2_PLACEMENT_3D ( 'NONE', #309, #716, #971 ) ;
#492 = LINE ( 'NONE', #484, #668 ) ;
#493 = AXIS2_PLACEMENT_3D ( 'NONE', #37, #362, #694 ) ;
#494 = ORIENTED_EDGE ( 'NONE', *, *, #489, .F. ) ;
#495 = PERSON_AND_ORGANIZATION ( #714, #876 ) ;
#496 = ORIENTED_EDGE ( 'NONE', *, *, #730, .F. ) ;
#497 = CARTESIAN_POINT ( 'NONE',  ( 157.3324697589783625, 38.50000000000007105, 0.000000000000000000 ) ) ;
#498 = DIRECTION ( 'NONE',  ( 1.000000000000000000, 1.836970198721029688E-16, 0.000000000000000000 ) ) ;
#499 = EDGE_CURVE ( 'NONE', #391, #798, #873, .T. ) ;
#500 = ORIENTED_EDGE ( 'NONE', *, *, #589, .F. ) ;
#501 = ORIENTED_EDGE ( 'NONE', *, *, #138, .F. ) ;
#502 = CARTESIAN_POINT ( 'NONE',  ( 119.0608635221248477, 5.034416389258944823E-14, 0.000000000000000000 ) ) ;
#503 = CARTESIAN_POINT ( 'NONE',  ( 152.9082273940882430, 5.656182376639580087E-14, 0.000000000000000000 ) ) ;
#504 = EDGE_LOOP ( 'NONE', ( #417, #120, #766, #871 ) ) ;
#505 = SECURITY_CLASSIFICATION_LEVEL ( 'unclassified' ) ;
#506 = EDGE_LOOP ( 'NONE', ( #784, #984, #169, #211 ) ) ;
#507 = DIRECTION ( 'NONE',  ( 0.000000000000000000, -1.000000000000000000, 0.000000000000000000 ) ) ;
#508 = VECTOR ( 'NONE', #323, 1000.000000000000000 ) ;
#509 = DIRECTION ( 'NONE',  ( -1.836970198721029688E-16, 1.000000000000000000, 0.000000000000000000 ) ) ;
#510 = AXIS2_PLACEMENT_3D ( 'NONE', #256, #498, #415 ) ;
#511 = EDGE_CURVE ( 'NONE', #233, #939, #857, .T. ) ;
#512 = APPROVAL_PERSON_ORGANIZATION ( #959, #935, #216 ) ;
#513 = CARTESIAN_POINT ( 'NONE',  ( -117.5000000000000142, 56.99999999999997158, 0.000000000000000000 ) ) ;
#514 = CALENDAR_DATE ( 2026, 16, 9 ) ;
#515 = EDGE_CURVE ( 'NONE', #459, #1064, #199, .T. ) ;
#516 = DIRECTION ( 'NONE',  ( 1.000000000000000000, 1.836970198721029688E-16, 0.000000000000000000 ) ) ;
#517 = CARTESIAN_POINT ( 'NONE',  ( -157.3324697589783625, 1.426729384610210737E-14, 0.000000000000000000 ) ) ;
#518 = ORIENTED_EDGE ( 'NONE', *, *, #480, .T. ) ;
#519 = CC_DESIGN_PERSON_AND_ORGANIZATION_ASSIGNMENT ( #922, #431, ( #250 ) ) ;
#520 = EDGE_LOOP ( 'NONE', ( #29, #427, #131, #481 ) ) ;
#521 = DIRECTION ( 'NONE',  ( 0.000000000000000000, 1.000000000000000000, 0.000000000000000000 ) ) ;
#522 = CARTESIAN_POINT ( 'NONE',  ( -235.0000000000000000, 0.000000000000000000, 0.000000000000000000 ) ) ;
#523 = DIRECTION ( 'NONE',  ( 1.000000000000000000, 1.836970198721029934E-16, 0.000000000000000000 ) ) ;
#524 = ORIENTED_EDGE ( 'NONE', *, *, #167, .T. ) ;
#525 = DIRECTION ( 'NONE',  ( 0.000000000000000000, 1.000000000000000000, 0.000000000000000000 ) ) ;
#526 = EDGE_CURVE ( 'NONE', #798, #846, #942, .T. ) ;
#527 = DIRECTION ( 'NONE',  ( -1.000000000000000000, -1.836970198721029688E-16, -0.000000000000000000 ) ) ;
#528 = CIRCLE ( 'NONE', #1042, 39.53194115224976457 ) ;
#529 = CARTESIAN_POINT ( 'NONE',  ( 152.3773183103014617, -38.45577409051967521, 0.000000000000000000 ) ) ;
#530 = VERTEX_POINT ( 'NONE', #378 ) ;
#531 = DIRECTION ( 'NONE',  ( -1.000000000000000000, -1.836970198721029688E-16, -0.000000000000000000 ) ) ;
#532 = CIRCLE ( 'NONE', #220, 9.999999999999994671 ) ;
#533 = DIRECTION ( 'NONE',  ( 0.000000000000000000, 0.000000000000000000, -1.000000000000000000 ) ) ;
#534 = ORIENTED_EDGE ( 'NONE', *, *, #396, .F. ) ;
#535 = ORIENTED_EDGE ( 'NONE', *, *, #730, .T. ) ;
#536 = DIRECTION ( 'NONE',  ( 1.000000000000000000, 1.836970198721029688E-16, 0.000000000000000000 ) ) ;
#537 = DIRECTION ( 'NONE',  ( -1.000000000000000000, -1.836970198721029688E-16, -0.000000000000000000 ) ) ;
#538 = CYLINDRICAL_SURFACE ( 'NONE', #31, 37.29999999999999716 ) ;
#539 = ORIENTED_EDGE ( 'NONE', *, *, #801, .F. ) ;
#540 = DIRECTION ( 'NONE',  ( -1.000000000000000000, -1.836970198721029688E-16, -0.000000000000000000 ) ) ;
#541 = DIRECTION ( 'NONE',  ( 1.836970198721029688E-16, -1.000000000000000000, 0.000000000000000000 ) ) ;
#542 = AXIS2_PLACEMENT_3D ( 'NONE', #227, #893, #507 ) ;
#543 = LINE ( 'NONE', #312, #205 ) ;
#544 = ADVANCED_FACE ( 'NONE', ( #731 ), #652, .F. ) ;
#545 = ORIENTED_EDGE ( 'NONE', *, *, #379, .T. ) ;
#546 = AXIS2_PLACEMENT_3D ( 'NONE', #584, #168, #748 ) ;
#547 = DATE_AND_TIME ( #1052, #51 ) ;
#548 = AXIS2_PLACEMENT_3D ( 'NONE', #106, #438, #776 ) ;
#549 = ADVANCED_FACE ( 'NONE', ( #60 ), #7, .T. ) ;
#550 = LOCAL_TIME ( 0, 4, 0.000000000000000000, #93 ) ;
#551 = DIRECTION ( 'NONE',  ( -1.000000000000000000, 0.000000000000000000, 0.000000000000000000 ) ) ;
#552 = AXIS2_PLACEMENT_3D ( 'NONE', #353, #1012, #946 ) ;
#553 = EDGE_LOOP ( 'NONE', ( #1033, #61, #728, #416 ) ) ;
#554 = CARTESIAN_POINT ( 'NONE',  ( -152.3773183103014048, 4.817788104707366016E-16, 0.000000000000000000 ) ) ;
#555 = CARTESIAN_POINT ( 'NONE',  ( -115.1675302410215522, 7.317105988869978273E-15, 0.000000000000000000 ) ) ;
#556 = EDGE_LOOP ( 'NONE', ( #496, #237, #289, #978 ) ) ;
#557 = CALENDAR_DATE ( 2026, 16, 9 ) ;
#558 = CARTESIAN_POINT ( 'NONE',  ( 234.9999999999998863, 8.633759933988838042E-14, 0.000000000000000000 ) ) ;
#559 = ADVANCED_FACE ( 'NONE', ( #154 ), #385, .T. ) ;
#560 = VECTOR ( 'NONE', #260, 1000.000000000000114 ) ;
#561 = DIRECTION ( 'NONE',  ( 0.000000000000000000, 0.000000000000000000, -1.000000000000000000 ) ) ;
#562 = DIRECTION ( 'NONE',  ( 0.000000000000000000, 1.000000000000000000, 0.000000000000000000 ) ) ;
#563 = AXIS2_PLACEMENT_3D ( 'NONE', #1016, #447, #430 ) ;
#564 = EDGE_LOOP ( 'NONE', ( #1006, #377, #335, #472 ) ) ;
#565 = DIRECTION ( 'NONE',  ( 0.000000000000000000, 1.000000000000000000, 0.000000000000000000 ) ) ;
#566 = DIRECTION ( 'NONE',  ( 0.000000000000000000, 1.000000000000000000, 0.000000000000000000 ) ) ;
#567 = CARTESIAN_POINT ( 'NONE',  ( 119.0608635221248477, 5.034416389258944823E-14, 0.000000000000000000 ) ) ;
#568 = EDGE_CURVE ( 'NONE', #724, #585, #648, .T. ) ;
#569 = ORIENTED_EDGE ( 'NONE', *, *, #499, .F. ) ;
#570 = DATE_TIME_ROLE ( 'creation_date' ) ;
#571 = LINE ( 'NONE', #1039, #382 ) ;
#572 = DIRECTION ( 'NONE',  ( -1.000000000000000000, 0.000000000000000000, 0.000000000000000000 ) ) ;
#573 = EDGE_LOOP ( 'NONE', ( #283, #775, #105, #997 ) ) ;
#574 = ADVANCED_FACE ( 'NONE', ( #141 ), #700, .T. ) ;
#575 = DIRECTION ( 'NONE',  ( 0.000000000000000000, 1.000000000000000000, 0.000000000000000000 ) ) ;
#576 = CIRCLE ( 'NONE', #110, 10.00000000000000178 ) ;
#577 = CIRCLE ( 'NONE', #421, 55.96805884775020701 ) ;
#578 = DIRECTION ( 'NONE',  ( 2.487058746920154947E-16, -1.000000000000000000, 0.000000000000000000 ) ) ;
#579 = TOROIDAL_SURFACE ( 'NONE', #633, 48.50000000000000711, 11.19999999999999929 ) ;
#580 = AXIS2_PLACEMENT_3D ( 'NONE', #591, #686, #1021 ) ;
#581 = ORIENTED_EDGE ( 'NONE', *, *, #229, .T. ) ;
#582 = DIRECTION ( 'NONE',  ( 1.000000000000000000, 1.836970198721029934E-16, 0.000000000000000000 ) ) ;
#583 = EDGE_CURVE ( 'NONE', #259, #448, #571, .T. ) ;
#584 = CARTESIAN_POINT ( 'NONE',  ( -235.0000000000000000, 0.000000000000000000, 0.000000000000000000 ) ) ;
#585 = VERTEX_POINT ( 'NONE', #739 ) ;
#586 = APPROVAL_STATUS ( 'not_yet_approved' ) ;
#587 = DIRECTION ( 'NONE',  ( 2.249639673992786412E-32, -1.224646799147353207E-16, 1.000000000000000000 ) ) ;
#588 = DIRECTION ( 'NONE',  ( 1.000000000000000000, 1.836970198721029934E-16, 0.000000000000000000 ) ) ;
#589 = EDGE_CURVE ( 'NONE', #40, #43, #637, .T. ) ;
#590 = EDGE_CURVE ( 'NONE', #488, #530, #1061, .T. ) ;
#591 = CARTESIAN_POINT ( 'NONE',  ( -235.0000000000000000, 0.000000000000000000, 0.000000000000000000 ) ) ;
#592 = CALENDAR_DATE ( 2026, 16, 9 ) ;
#593 = CARTESIAN_POINT ( 'NONE',  ( -235.0000000000000000, 0.000000000000000000, 0.000000000000000000 ) ) ;
#594 = CIRCLE ( 'NONE', #127, 10.00000000000000178 ) ;
#595 = CARTESIAN_POINT ( 'NONE',  ( 119.5917726059116717, -55.96805884775016438, 0.000000000000000000 ) ) ;
#596 = CIRCLE ( 'NONE', #906, 37.29999999999999716 ) ;
#597 = TOROIDAL_SURFACE ( 'NONE', #65, 46.99999999999996447, 8.800000000000000711 ) ;
#598 = CIRCLE ( 'NONE', #130, 38.50000000000000000 ) ;
#599 = EDGE_CURVE ( 'NONE', #299, #373, #301, .T. ) ;
#600 = FACE_BOUND ( 'NONE', #116, .T. ) ;
#601 = AXIS2_PLACEMENT_3D ( 'NONE', #478, #809, #744 ) ;
#602 = ORIENTED_EDGE ( 'NONE', *, *, #640, .F. ) ;
#603 = DIRECTION ( 'NONE',  ( -1.000000000000000000, -1.836970198721029688E-16, -0.000000000000000000 ) ) ;
#604 = DIRECTION ( 'NONE',  ( -1.000000000000000000, -1.836970198721029688E-16, -0.000000000000000000 ) ) ;
#605 = LINE ( 'NONE', #513, #1059 ) ;
#606 = EDGE_CURVE ( 'NONE', #310, #530, #616, .T. ) ;
#607 = DIRECTION ( 'NONE',  ( -1.000000000000000000, 0.000000000000000000, 0.000000000000000000 ) ) ;
#608 = CARTESIAN_POINT ( 'NONE',  ( -119.0608635221248193, -54.89189178602017449, 6.722317957489250899E-15 ) ) ;
#609 = FACE_OUTER_BOUND ( 'NONE', #504, .T. ) ;
#610 = ORIENTED_EDGE ( 'NONE', *, *, #412, .T. ) ;
#611 = FACE_OUTER_BOUND ( 'NONE', #139, .T. ) ;
#612 = EDGE_CURVE ( 'NONE', #1064, #459, #28, .T. ) ;
#613 = DIRECTION ( 'NONE',  ( -2.481551617381642926E-16, 1.000000000000000000, 0.000000000000000000 ) ) ;
#614 = APPLICATION_CONTEXT ( 'configuration controlled 3d designs of mechanical parts and assemblies' ) ;
#615 = CIRCLE ( 'NONE', #333, 56.99999999999996447 ) ;
#616 = CIRCLE ( 'NONE', #46, 38.50000000000000000 ) ;
#617 = CARTESIAN_POINT ( 'NONE',  ( 115.1675302410215380, 4.962897017148188455E-14, 0.000000000000000000 ) ) ;
#618 = VERTEX_POINT ( 'NONE', #234 ) ;
#619 = CARTESIAN_POINT ( 'NONE',  ( 115.1675302410215664, -56.99999999999992184, 0.000000000000000000 ) ) ;
#620 = CONICAL_SURFACE ( 'NONE', #723, 38.50000000000002842, 0.4583000663916555473 ) ;
#621 = DIRECTION ( 'NONE',  ( 1.000000000000000000, 1.836970198721029688E-16, 0.000000000000000000 ) ) ;
#622 = CARTESIAN_POINT ( 'NONE',  ( 115.1675302410215380, 4.962897017148188455E-14, 0.000000000000000000 ) ) ;
#623 = EDGE_LOOP ( 'NONE', ( #824, #761, #313, #356 ) ) ;
#624 = CARTESIAN_POINT ( 'NONE',  ( 154.4690909162130481, 5.684854974383721312E-14, 0.000000000000000000 ) ) ;
#625 = EDGE_CURVE ( 'NONE', #176, #585, #316, .T. ) ;
#626 = EDGE_CURVE ( 'NONE', #1013, #1057, #819, .T. ) ;
#627 = DIRECTION ( 'NONE',  ( -1.836970198721029934E-16, 1.000000000000000000, 0.000000000000000000 ) ) ;
#628 = ORIENTED_EDGE ( 'NONE', *, *, #157, .T. ) ;
#629 = DIRECTION ( 'NONE',  ( -1.000000000000000000, -1.836970198721029688E-16, -0.000000000000000000 ) ) ;
#630 = CARTESIAN_POINT ( 'NONE',  ( -157.3324697589783341, -48.50000000000000000, 0.000000000000000000 ) ) ;
#631 = CC_DESIGN_PERSON_AND_ORGANIZATION_ASSIGNMENT ( #400, #1058, ( #50 ) ) ;
#632 = VERTEX_POINT ( 'NONE', #77 ) ;
#633 = AXIS2_PLACEMENT_3D ( 'NONE', #647, #405, #975 ) ;
#634 =( LENGTH_UNIT ( ) NAMED_UNIT ( * ) SI_UNIT ( .MILLI., .METRE. ) );
#635 = AXIS2_PLACEMENT_3D ( 'NONE', #883, #812, #565 ) ;
#636 = AXIS2_PLACEMENT_3D ( 'NONE', #796, #140, #805 ) ;
#637 = LINE ( 'NONE', #969, #180 ) ;
#638 = VECTOR ( 'NONE', #1062, 1000.000000000000000 ) ;
#639 = ORIENTED_EDGE ( 'NONE', *, *, #895, .F. ) ;
#640 = EDGE_CURVE ( 'NONE', #913, #846, #594, .T. ) ;
#641 =( NAMED_UNIT ( * ) SI_UNIT ( $, .STERADIAN. ) SOLID_ANGLE_UNIT ( ) );
#642 = CARTESIAN_POINT ( 'NONE',  ( -154.9999999999998579, 0.000000000000000000, 0.000000000000000000 ) ) ;
#643 = ORIENTED_EDGE ( 'NONE', *, *, #286, .T. ) ;
#644 = CARTESIAN_POINT ( 'NONE',  ( -119.0608635221248477, 54.89189178602019581, 0.000000000000000000 ) ) ;
#645 = ADVANCED_FACE ( 'NONE', ( #1047 ), #646, .F. ) ;
#646 = CYLINDRICAL_SURFACE ( 'NONE', #403, 55.79999999999996874 ) ;
#647 = CARTESIAN_POINT ( 'NONE',  ( 157.3324697589783625, 6.472242469890214208E-14, 0.000000000000000000 ) ) ;
#648 = CIRCLE ( 'NONE', #419, 11.20000000000000107 ) ;
#649 = ORIENTED_EDGE ( 'NONE', *, *, #982, .T. ) ;
#650 = CARTESIAN_POINT ( 'NONE',  ( -115.1675302410215522, 7.317105988869979850E-15, 0.000000000000000000 ) ) ;
#651 = AXIS2_PLACEMENT_3D ( 'NONE', #122, #209, #541 ) ;
#652 = CYLINDRICAL_SURFACE ( 'NONE', #961, 37.29999999999999716 ) ;
#653 = LOCAL_TIME ( 0, 4, 0.000000000000000000, #341 ) ;
#654 = ORIENTED_EDGE ( 'NONE', *, *, #379, .F. ) ;
#655 = ORIENTED_EDGE ( 'NONE', *, *, #1002, .F. ) ;
#656 = CARTESIAN_POINT ( 'NONE',  ( -119.0608635221248335, 6.601912267762428002E-15, 0.000000000000000000 ) ) ;
#657 = DIRECTION ( 'NONE',  ( -2.249639673992786412E-32, 1.224646799147353207E-16, 1.000000000000000000 ) ) ;
#658 = EDGE_CURVE ( 'NONE', #618, #408, #682, .T. ) ;
#659 = ORIENTED_EDGE ( 'NONE', *, *, #329, .T. ) ;
#660 = APPROVAL_ROLE ( '' ) ;
#661 = CARTESIAN_POINT ( 'NONE',  ( 154.9999999999998579, 38.50000000000008527, 4.714890176717313459E-15 ) ) ;
#662 = DIRECTION ( 'NONE',  ( 0.000000000000000000, -1.000000000000000000, 0.000000000000000000 ) ) ;
#663 = ORIENTED_EDGE ( 'NONE', *, *, #157, .F. ) ;
#664 = EDGE_CURVE ( 'NONE', #693, #488, #1005, .T. ) ;
#665 = LINE ( 'NONE', #661, #560 ) ;
#666 = AXIS2_PLACEMENT_3D ( 'NONE', #517, #993, #842 ) ;
#667 = CIRCLE ( 'NONE', #317, 11.20000000000000107 ) ;
#668 = VECTOR ( 'NONE', #398, 1000.000000000000000 ) ;
#669 = ORIENTED_EDGE ( 'NONE', *, *, #34, .T. ) ;
#670 = PERSON_AND_ORGANIZATION ( #714, #876 ) ;
#671 = EDGE_CURVE ( 'NONE', #4, #488, #1040, .T. ) ;
#672 = ORIENTED_EDGE ( 'NONE', *, *, #589, .T. ) ;
#673 = CYLINDRICAL_SURFACE ( 'NONE', #1008, 37.29999999999999716 ) ;
#674 = CARTESIAN_POINT ( 'NONE',  ( 234.9999999999998863, 38.50000000000008527, 0.000000000000000000 ) ) ;
#675 = ORIENTED_EDGE ( 'NONE', *, *, #783, .T. ) ;
#676 = VERTEX_POINT ( 'NONE', #97 ) ;
#677 = CARTESIAN_POINT ( 'NONE',  ( 234.9999999999998863, 8.633759933988838042E-14, 0.000000000000000000 ) ) ;
#678 = CARTESIAN_POINT ( 'NONE',  ( 154.9999999999998579, -38.49999999999997158, 0.000000000000000000 ) ) ;
#679 = DIRECTION ( 'NONE',  ( 2.487058746920154947E-16, -1.000000000000000000, 0.000000000000000000 ) ) ;
#680 = ORIENTED_EDGE ( 'NONE', *, *, #277, .T. ) ;
#681 = CARTESIAN_POINT ( 'NONE',  ( 152.3773183103014617, 38.45577409051978179, 5.715896011179059493E-15 ) ) ;
#682 = CIRCLE ( 'NONE', #262, 10.00000000000000888 ) ;
#683 = CARTESIAN_POINT ( 'NONE',  ( 157.3324697589783625, 48.50000000000007105, 5.939536975864664152E-15 ) ) ;
#684 = EDGE_CURVE ( 'NONE', #1048, #833, #576, .T. ) ;
#685 = CIRCLE ( 'NONE', #355, 11.19999999999998863 ) ;
#686 = DIRECTION ( 'NONE',  ( 1.000000000000000000, 1.836970198721029934E-16, 0.000000000000000000 ) ) ;
#687 = CIRCLE ( 'NONE', #563, 55.96805884775020701 ) ;
#688 = ORIENTED_EDGE ( 'NONE', *, *, #101, .T. ) ;
#689 = DIRECTION ( 'NONE',  ( -1.000000000000000000, 0.000000000000000000, 0.000000000000000000 ) ) ;
#690 = LINE ( 'NONE', #203, #963 ) ;
#691 = CARTESIAN_POINT ( 'NONE',  ( 234.9999999999998863, 8.633759933988838042E-14, 0.000000000000000000 ) ) ;
#692 = EDGE_CURVE ( 'NONE', #1057, #1013, #458, .T. ) ;
#693 = VERTEX_POINT ( 'NONE', #497 ) ;
#694 = DIRECTION ( 'NONE',  ( -2.479590697538067764E-16, 1.000000000000000000, 0.000000000000000000 ) ) ;
#695 = DIRECTION ( 'NONE',  ( -1.000000000000000000, -1.836970198721029688E-16, -0.000000000000000000 ) ) ;
#696 = CARTESIAN_POINT ( 'NONE',  ( -116.9690909162131902, 55.92383293826994617, 0.000000000000000000 ) ) ;
#697 = EDGE_LOOP ( 'NONE', ( #1060, #423, #900, #443 ) ) ;
#698 = CARTESIAN_POINT ( 'NONE',  ( 115.1675302410215522, -46.99999999999991473, 5.755839955992555908E-15 ) ) ;
#699 = CARTESIAN_POINT ( 'NONE',  ( -154.9999999999998579, 56.99999999999996447, 6.980486755139908967E-15 ) ) ;
#700 = TOROIDAL_SURFACE ( 'NONE', #491, 48.50000000000000711, 11.19999999999999929 ) ;
#701 = CIRCLE ( 'NONE', #1009, 37.29999999999999716 ) ;
#702 = CIRCLE ( 'NONE', #977, 37.29999999999999716 ) ;
#703 = ORIENTED_EDGE ( 'NONE', *, *, #172, .T. ) ;
#704 = EDGE_LOOP ( 'NONE', ( #970, #649, #703, #1023 ) ) ;
#705 = LINE ( 'NONE', #864, #962 ) ;
#706 = EDGE_CURVE ( 'NONE', #1064, #1057, #788, .T. ) ;
#707 = DIRECTION ( 'NONE',  ( 1.000000000000000000, 1.836970198721029688E-16, 0.000000000000000000 ) ) ;
#708 = EDGE_CURVE ( 'NONE', #466, #373, #665, .T. ) ;
#709 = LINE ( 'NONE', #294, #991 ) ;
#710 = ORIENTED_EDGE ( 'NONE', *, *, #832, .F. ) ;
#711 = DIRECTION ( 'NONE',  ( 0.000000000000000000, -1.000000000000000000, 0.000000000000000000 ) ) ;
#712 = DIRECTION ( 'NONE',  ( 1.000000000000000000, 1.836970198721029934E-16, 0.000000000000000000 ) ) ;
#713 = CC_DESIGN_PERSON_AND_ORGANIZATION_ASSIGNMENT ( #182, #242, ( #425 ) ) ;
#714 = PERSON ( 'UNSPECIFIED', 'UNSPECIFIED', 'UNSPECIFIED', ('UNSPECIFIED'), ('UNSPECIFIED'), ('UNSPECIFIED') ) ;
#715 = VERTEX_POINT ( 'NONE', #255 ) ;
#716 = DIRECTION ( 'NONE',  ( -1.000000000000000000, -1.836970198721029688E-16, -0.000000000000000000 ) ) ;
#717 = AXIS2_PLACEMENT_3D ( 'NONE', #624, #943, #955 ) ;
#718 = CONICAL_SURFACE ( 'NONE', #908, 56.99999999999996447, 0.4583000663916555473 ) ;
#719 = EDGE_LOOP ( 'NONE', ( #815, #995 ) ) ;
#720 =( NAMED_UNIT ( * ) PLANE_ANGLE_UNIT ( ) SI_UNIT ( $, .RADIAN. ) );
#721 = CC_DESIGN_APPROVAL ( #935, ( #451 ) ) ;
#722 = DIRECTION ( 'NONE',  ( 0.000000000000000000, -1.000000000000000000, 1.224646799147352714E-16 ) ) ;
#723 = AXIS2_PLACEMENT_3D ( 'NONE', #921, #778, #23 ) ;
#724 = VERTEX_POINT ( 'NONE', #681 ) ;
#725 = ADVANCED_FACE ( 'NONE', ( #924 ), #251, .T. ) ;
#726 = DIRECTION ( 'NONE',  ( -1.000000000000000000, 0.000000000000000000, 0.000000000000000000 ) ) ;
#727 = DIRECTION ( 'NONE',  ( 2.528203593695205904E-16, -1.000000000000000000, 0.000000000000000000 ) ) ;
#728 = ORIENTED_EDGE ( 'NONE', *, *, #1003, .F. ) ;
#729 = COORDINATED_UNIVERSAL_TIME_OFFSET ( 1, 0, .AHEAD. ) ;
#730 = EDGE_CURVE ( 'NONE', #448, #983, #667, .T. ) ;
#731 = FACE_OUTER_BOUND ( 'NONE', #194, .T. ) ;
#732 = DIRECTION ( 'NONE',  ( 0.000000000000000000, -1.000000000000000000, 1.224646799147352468E-16 ) ) ;
#733 = ORIENTED_EDGE ( 'NONE', *, *, #286, .F. ) ;
#734 = CARTESIAN_POINT ( 'NONE',  ( 0.000000000000000000, 0.000000000000000000, 0.000000000000000000 ) ) ;
#735 = CIRCLE ( 'NONE', #945, 54.89189178602018160 ) ;
#736 = AXIS2_PLACEMENT_3D ( 'NONE', #47, #537, #960 ) ;
#737 = CIRCLE ( 'NONE', #823, 9.999999999999994671 ) ;
#738 = EDGE_LOOP ( 'NONE', ( #885, #910, #272, #804 ) ) ;
#739 = CARTESIAN_POINT ( 'NONE',  ( 157.3324697589783625, 37.30000000000006821, 0.000000000000000000 ) ) ;
#740 = CARTESIAN_POINT ( 'NONE',  ( -117.5000000000000000, 6.888638245203836306E-15, 0.000000000000000000 ) ) ;
#741 = ADVANCED_FACE ( 'NONE', ( #1007 ), #925, .T. ) ;
#742 = EDGE_LOOP ( 'NONE', ( #24, #163, #952, #500 ) ) ;
#743 = DIRECTION ( 'NONE',  ( 0.000000000000000000, 1.000000000000000000, 0.000000000000000000 ) ) ;
#744 = DIRECTION ( 'NONE',  ( -1.836970198721029688E-16, 1.000000000000000000, 0.000000000000000000 ) ) ;
#745 = ADVANCED_FACE ( 'NONE', ( #170 ), #414, .F. ) ;
#746 = EDGE_LOOP ( 'NONE', ( #361, #820, #295, #861 ) ) ;
#747 = DIRECTION ( 'NONE',  ( -1.000000000000000000, -1.836970198721029688E-16, -0.000000000000000000 ) ) ;
#748 = DIRECTION ( 'NONE',  ( 0.000000000000000000, 1.000000000000000000, 0.000000000000000000 ) ) ;
#749 = ORIENTED_EDGE ( 'NONE', *, *, #9, .F. ) ;
#750 = AXIS2_PLACEMENT_3D ( 'NONE', #134, #695, #1025 ) ;
#751 = DIRECTION ( 'NONE',  ( 0.000000000000000000, 0.000000000000000000, -1.000000000000000000 ) ) ;
#752 = TOROIDAL_SURFACE ( 'NONE', #334, 46.99999999999996447, 8.800000000000000711 ) ;
#753 = AXIS2_PLACEMENT_3D ( 'NONE', #904, #888, #411 ) ;
#754 = DIRECTION ( 'NONE',  ( 0.000000000000000000, 1.000000000000000000, 0.000000000000000000 ) ) ;
#755 = AXIS2_PLACEMENT_3D ( 'NONE', #793, #54, #711 ) ;
#756 = AXIS2_PLACEMENT_3D ( 'NONE', #617, #39, #364 ) ;
#757 = ORIENTED_EDGE ( 'NONE', *, *, #684, .F. ) ;
#758 = CARTESIAN_POINT ( 'NONE',  ( -154.9999999999998579, 0.000000000000000000, 0.000000000000000000 ) ) ;
#759 = CARTESIAN_POINT ( 'NONE',  ( 154.4690909162130481, 5.684854974383721312E-14, 0.000000000000000000 ) ) ;
#760 = FACE_OUTER_BOUND ( 'NONE', #890, .T. ) ;
#761 = ORIENTED_EDGE ( 'NONE', *, *, #1049, .T. ) ;
#762 = CARTESIAN_POINT ( 'NONE',  ( 152.9082273940882430, 5.656182376639580087E-14, 0.000000000000000000 ) ) ;
#763 = ADVANCED_FACE ( 'NONE', ( #81 ), #752, .F. ) ;
#764 = CARTESIAN_POINT ( 'NONE',  ( 115.1675302410215380, 55.80000000000002558, 6.833529139242230260E-15 ) ) ;
#765 = FACE_OUTER_BOUND ( 'NONE', #340, .T. ) ;
#766 = ORIENTED_EDGE ( 'NONE', *, *, #583, .T. ) ;
#767 = MANIFOLD_SOLID_BREP ( 'Shell1', #965 ) ;
#768 = CARTESIAN_POINT ( 'NONE',  ( 152.3773183103014617, 5.646429734988113855E-14, 0.000000000000000000 ) ) ;
#769 = CARTESIAN_POINT ( 'NONE',  ( -235.0000000000000000, -37.29999999999999716, 4.567932560819627653E-15 ) ) ;
#770 = AXIS2_PLACEMENT_3D ( 'NONE', #839, #751, #158 ) ;
#771 = AXIS2_PLACEMENT_3D ( 'NONE', #567, #70, #727 ) ;
#772 = EDGE_CURVE ( 'NONE', #190, #485, #596, .T. ) ;
#773 = DIRECTION ( 'NONE',  ( 0.8968058847750245421, 0.4424242364890124679, 0.000000000000000000 ) ) ;
#774 = CIRCLE ( 'NONE', #827, 8.800000000000002487 ) ;
#775 = ORIENTED_EDGE ( 'NONE', *, *, #907, .T. ) ;
#776 = DIRECTION ( 'NONE',  ( -2.434699615406046697E-16, 1.000000000000000000, 0.000000000000000000 ) ) ;
#777 = DIRECTION ( 'NONE',  ( 0.000000000000000000, 0.000000000000000000, -1.000000000000000000 ) ) ;
#778 = DIRECTION ( 'NONE',  ( -1.000000000000000000, -1.836970198721029688E-16, -0.000000000000000000 ) ) ;
#779 = ORIENTED_EDGE ( 'NONE', *, *, #1043, .F. ) ;
#780 = DIRECTION ( 'NONE',  ( 0.000000000000000000, -1.000000000000000000, 0.000000000000000000 ) ) ;
#781 = LINE ( 'NONE', #363, #217 ) ;
#782 = ORIENTED_EDGE ( 'NONE', *, *, #816, .F. ) ;
#783 = EDGE_CURVE ( 'NONE', #939, #43, #735, .T. ) ;
#784 = ORIENTED_EDGE ( 'NONE', *, *, #625, .F. ) ;
#785 = LINE ( 'NONE', #357, #49 ) ;
#786 = DIRECTION ( 'NONE',  ( 0.000000000000000000, -1.000000000000000000, 0.000000000000000000 ) ) ;
#787 = AXIS2_PLACEMENT_3D ( 'NONE', #656, #470, #239 ) ;
#788 = CIRCLE ( 'NONE', #770, 8.800000000000002487 ) ;
#789 = CONICAL_SURFACE ( 'NONE', #383, 37.42383293827000301, 0.4583000663916555473 ) ;
#790 = CARTESIAN_POINT ( 'NONE',  ( -115.1675302410215664, 46.99999999999997158, 0.000000000000000000 ) ) ;
#791 = EDGE_CURVE ( 'NONE', #466, #4, #476, .T. ) ;
#792 = ORIENTED_EDGE ( 'NONE', *, *, #515, .T. ) ;
#793 = CARTESIAN_POINT ( 'NONE',  ( 157.3324697589783625, 7.207030549378628883E-14, 0.000000000000000000 ) ) ;
#794 = CARTESIAN_POINT ( 'NONE',  ( 115.1675302410215380, 57.00000000000002132, 6.980486755139911333E-15 ) ) ;
#795 = EDGE_LOOP ( 'NONE', ( #680, #811, #249, #655 ) ) ;
#796 = CARTESIAN_POINT ( 'NONE',  ( -157.3324697589783625, 1.426729384610210737E-14, 0.000000000000000000 ) ) ;
#797 = DIRECTION ( 'NONE',  ( 0.000000000000000000, 1.000000000000000000, 0.000000000000000000 ) ) ;
#798 = VERTEX_POINT ( 'NONE', #166 ) ;
#799 = COORDINATED_UNIVERSAL_TIME_OFFSET ( 1, 0, .AHEAD. ) ;
#800 = CARTESIAN_POINT ( 'NONE',  ( -115.1675302410215380, -46.99999999999995737, 5.755839955992555908E-15 ) ) ;
#801 = EDGE_CURVE ( 'NONE', #936, #299, #263, .T. ) ;
#802 = AXIS2_PLACEMENT_3D ( 'NONE', #683, #171, #835 ) ;
#803 = AXIS2_PLACEMENT_3D ( 'NONE', #434, #992, #825 ) ;
#804 = ORIENTED_EDGE ( 'NONE', *, *, #126, .F. ) ;
#805 = DIRECTION ( 'NONE',  ( 0.000000000000000000, 1.000000000000000000, 0.000000000000000000 ) ) ;
#806 = TOROIDAL_SURFACE ( 'NONE', #477, 48.50000000000000711, 10.00000000000000000 ) ;
#807 = LOCAL_TIME ( 0, 4, 0.000000000000000000, #258 ) ;
#808 = DIRECTION ( 'NONE',  ( 1.000000000000000000, 1.836970198721029934E-16, 0.000000000000000000 ) ) ;
#809 = DIRECTION ( 'NONE',  ( 1.000000000000000000, 1.836970198721029688E-16, 0.000000000000000000 ) ) ;
#810 = ADVANCED_FACE ( 'NONE', ( #88 ), #673, .F. ) ;
#811 = ORIENTED_EDGE ( 'NONE', *, *, #568, .T. ) ;
#812 = DIRECTION ( 'NONE',  ( 1.000000000000000000, 1.836970198721029934E-16, 0.000000000000000000 ) ) ;
#813 = DIRECTION ( 'NONE',  ( 1.000000000000000000, 1.836970198721029934E-16, 0.000000000000000000 ) ) ;
#814 = FACE_OUTER_BOUND ( 'NONE', #135, .T. ) ;
#815 = ORIENTED_EDGE ( 'NONE', *, *, #772, .F. ) ;
#816 = EDGE_CURVE ( 'NONE', #913, #207, #577, .T. ) ;
#817 = CARTESIAN_POINT ( 'NONE',  ( 119.5917726059116575, 5.044169030910411056E-14, 0.000000000000000000 ) ) ;
#818 = CARTESIAN_POINT ( 'NONE',  ( -235.0000000000000000, -37.29999999999999716, 4.567932560819628441E-15 ) ) ;
#819 = CIRCLE ( 'NONE', #456, 55.79999999999996874 ) ;
#820 = ORIENTED_EDGE ( 'NONE', *, *, #859, .T. ) ;
#821 = APPROVAL_ROLE ( '' ) ;
#822 = CIRCLE ( 'NONE', #352, 56.99999999999996447 ) ;
#823 = AXIS2_PLACEMENT_3D ( 'NONE', #444, #370, #689 ) ;
#824 = ORIENTED_EDGE ( 'NONE', *, *, #968, .T. ) ;
#825 = DIRECTION ( 'NONE',  ( -2.434699615406046697E-16, 1.000000000000000000, 0.000000000000000000 ) ) ;
#826 = DIRECTION ( 'NONE',  ( 1.000000000000000000, 1.836970198721029934E-16, 0.000000000000000000 ) ) ;
#827 = AXIS2_PLACEMENT_3D ( 'NONE', #82, #657, #732 ) ;
#828 = ORIENTED_EDGE ( 'NONE', *, *, #658, .T. ) ;
#829 = APPROVAL_STATUS ( 'not_yet_approved' ) ;
#830 = DIRECTION ( 'NONE',  ( 0.000000000000000000, 1.000000000000000000, 0.000000000000000000 ) ) ;
#831 = DIRECTION ( 'NONE',  ( 0.000000000000000000, -1.000000000000000000, 0.000000000000000000 ) ) ;
#832 = EDGE_CURVE ( 'NONE', #846, #798, #822, .T. ) ;
#833 = VERTEX_POINT ( 'NONE', #1024 ) ;
#834 = DIRECTION ( 'NONE',  ( -2.249639673992786412E-32, 1.224646799147353207E-16, 1.000000000000000000 ) ) ;
#835 = DIRECTION ( 'NONE',  ( 0.000000000000000000, -1.000000000000000000, -1.224646799147353454E-16 ) ) ;
#836 = EDGE_CURVE ( 'NONE', #408, #913, #705, .T. ) ;
#837 = ORIENTED_EDGE ( 'NONE', *, *, #515, .F. ) ;
#838 = ORIENTED_EDGE ( 'NONE', *, *, #1036, .F. ) ;
#839 = CARTESIAN_POINT ( 'NONE',  ( -115.1675302410215664, 46.99999999999997158, 0.000000000000000000 ) ) ;
#840 = CIRCLE ( 'NONE', #860, 39.53194115224976457 ) ;
#841 = CIRCLE ( 'NONE', #927, 38.45577409051973206 ) ;
#842 = DIRECTION ( 'NONE',  ( 0.000000000000000000, 1.000000000000000000, 0.000000000000000000 ) ) ;
#843 = APPROVAL_PERSON_ORGANIZATION ( #495, #950, #821 ) ;
#844 = ORIENTED_EDGE ( 'NONE', *, *, #236, .F. ) ;
#845 = ADVANCED_FACE ( 'NONE', ( #611 ), #118, .T. ) ;
#846 = VERTEX_POINT ( 'NONE', #212 ) ;
#847 = DIRECTION ( 'NONE',  ( -1.000000000000000000, -1.836970198721029688E-16, -0.000000000000000000 ) ) ;
#848 = CARTESIAN_POINT ( 'NONE',  ( -235.0000000000000000, 37.29999999999999716, 0.000000000000000000 ) ) ;
#849 = ORIENTED_EDGE ( 'NONE', *, *, #34, .F. ) ;
#850 = CARTESIAN_POINT ( 'NONE',  ( -152.3773183103014048, 38.45577409051973916, 0.000000000000000000 ) ) ;
#851 = ADVANCED_FACE ( 'NONE', ( #374 ), #13, .F. ) ;
#852 = DIRECTION ( 'NONE',  ( 1.000000000000000000, 1.836970198721029934E-16, 0.000000000000000000 ) ) ;
#853 = DIRECTION ( 'NONE',  ( -1.836970198721029934E-16, 1.000000000000000000, 0.000000000000000000 ) ) ;
#854 = ORIENTED_EDGE ( 'NONE', *, *, #708, .F. ) ;
#855 = CARTESIAN_POINT ( 'NONE',  ( -116.9690909162131760, 6.986164661718502575E-15, 0.000000000000000000 ) ) ;
#856 = PRODUCT_RELATED_PRODUCT_CATEGORY ( 'detail', '', ( #50 ) ) ;
#857 = CIRCLE ( 'NONE', #1055, 8.800000000000002487 ) ;
#858 = DIRECTION ( 'NONE',  ( -1.000000000000000000, -1.836970198721029688E-16, -0.000000000000000000 ) ) ;
#859 = EDGE_CURVE ( 'NONE', #724, #40, #841, .T. ) ;
#860 = AXIS2_PLACEMENT_3D ( 'NONE', #503, #187, #420 ) ;
#861 = ORIENTED_EDGE ( 'NONE', *, *, #625, .T. ) ;
#862 = CIRCLE ( 'NONE', #388, 55.79999999999996874 ) ;
#863 = EDGE_LOOP ( 'NONE', ( #58, #628, #42, #321 ) ) ;
#864 = CARTESIAN_POINT ( 'NONE',  ( -117.4999999999999858, -56.99999999999995737, 6.980486755139908967E-15 ) ) ;
#865 = FACE_OUTER_BOUND ( 'NONE', #564, .T. ) ;
#866 = EDGE_LOOP ( 'NONE', ( #639, #902, #917, #395 ) ) ;
#867 = ORIENTED_EDGE ( 'NONE', *, *, #277, .F. ) ;
#868 = CARTESIAN_POINT ( 'NONE',  ( -157.3324697589783341, 6.919413051217985067E-15, 0.000000000000000000 ) ) ;
#869 = CARTESIAN_POINT ( 'NONE',  ( -152.9082273940882146, -39.53194115224976457, 5.847688465928609635E-15 ) ) ;
#870 = CARTESIAN_POINT ( 'NONE',  ( -235.0000000000000000, 0.000000000000000000, 0.000000000000000000 ) ) ;
#871 = ORIENTED_EDGE ( 'NONE', *, *, #329, .F. ) ;
#872 = DIRECTION ( 'NONE',  ( 1.836970198721029688E-16, -1.000000000000000000, 0.000000000000000000 ) ) ;
#873 = LINE ( 'NONE', #699, #142 ) ;
#874 = AXIS2_PLACEMENT_3D ( 'NONE', #758, #603, #185 ) ;
#875 = AXIS2_PLACEMENT_3D ( 'NONE', #698, #1034, #191 ) ;
#876 = ORGANIZATION ( 'UNSPECIFIED', 'UNSPECIFIED', '' ) ;
#877 = CIRCLE ( 'NONE', #1044, 38.50000000000000000 ) ;
#878 = EDGE_LOOP ( 'NONE', ( #36, #688 ) ) ;
#879 = ADVANCED_FACE ( 'NONE', ( #953 ), #806, .F. ) ;
#880 = APPROVAL_DATE_TIME ( #547, #935 ) ;
#881 = CARTESIAN_POINT ( 'NONE',  ( 234.9999999999998863, -37.29999999999991900, 4.567932560819627653E-15 ) ) ;
#882 = EDGE_LOOP ( 'NONE', ( #663, #792, #14, #221 ) ) ;
#883 = CARTESIAN_POINT ( 'NONE',  ( -235.0000000000000000, 0.000000000000000000, 0.000000000000000000 ) ) ;
#884 = DIRECTION ( 'NONE',  ( -2.479590697538067764E-16, 1.000000000000000000, 0.000000000000000000 ) ) ;
#885 = ORIENTED_EDGE ( 'NONE', *, *, #664, .T. ) ;
#886 = DATE_AND_TIME ( #557, #463 ) ;
#887 = CARTESIAN_POINT ( 'NONE',  ( -235.0000000000000000, 0.000000000000000000, 0.000000000000000000 ) ) ;
#888 = DIRECTION ( 'NONE',  ( -1.000000000000000000, -1.836970198721029688E-16, -0.000000000000000000 ) ) ;
#889 = AXIS2_PLACEMENT_3D ( 'NONE', #522, #852, #108 ) ;
#890 = EDGE_LOOP ( 'NONE', ( #241, #1029, #111, #433 ) ) ;
#891 = AXIS2_PLACEMENT_3D ( 'NONE', #1031, #707, #613 ) ;
#892 = DIRECTION ( 'NONE',  ( 0.000000000000000000, 0.000000000000000000, 1.000000000000000000 ) ) ;
#893 = DIRECTION ( 'NONE',  ( 1.000000000000000000, 1.836970198721029688E-16, 0.000000000000000000 ) ) ;
#894 = CARTESIAN_POINT ( 'NONE',  ( -235.0000000000000000, 0.000000000000000000, 0.000000000000000000 ) ) ;
#895 = EDGE_CURVE ( 'NONE', #1048, #618, #145, .T. ) ;
#896 = EDGE_LOOP ( 'NONE', ( #782, #53, #452, #453 ) ) ;
#897 = CARTESIAN_POINT ( 'NONE',  ( -235.0000000000000000, -38.50000000000000000, 4.714890176717309515E-15 ) ) ;
#898 = DIRECTION ( 'NONE',  ( 1.000000000000000000, 1.836970198721029688E-16, 0.000000000000000000 ) ) ;
#899 = FACE_OUTER_BOUND ( 'NONE', #322, .T. ) ;
#900 = ORIENTED_EDGE ( 'NONE', *, *, #907, .F. ) ;
#901 = EDGE_CURVE ( 'NONE', #632, #983, #1056, .T. ) ;
#902 = ORIENTED_EDGE ( 'NONE', *, *, #684, .T. ) ;
#903 = DIRECTION ( 'NONE',  ( 1.000000000000000000, 1.836970198721029688E-16, 0.000000000000000000 ) ) ;
#904 = CARTESIAN_POINT ( 'NONE',  ( -157.3324697589783625, 1.426729384610211368E-14, 0.000000000000000000 ) ) ;
#905 = ORIENTED_EDGE ( 'NONE', *, *, #511, .T. ) ;
#906 = AXIS2_PLACEMENT_3D ( 'NONE', #677, #338, #743 ) ;
#907 = EDGE_CURVE ( 'NONE', #488, #693, #113, .T. ) ;
#908 = AXIS2_PLACEMENT_3D ( 'NONE', #740, #457, #52 ) ;
#909 = TOROIDAL_SURFACE ( 'NONE', #442, 48.50000000000000711, 10.00000000000000000 ) ;
#910 = ORIENTED_EDGE ( 'NONE', *, *, #590, .T. ) ;
#911 = CARTESIAN_POINT ( 'NONE',  ( -119.5917726059116575, 6.504385851247760945E-15, 0.000000000000000000 ) ) ;
#912 = FACE_OUTER_BOUND ( 'NONE', #1045, .T. ) ;
#913 = VERTEX_POINT ( 'NONE', #454 ) ;
#914 = DATE_AND_TIME ( #424, #550 ) ;
#915 = CARTESIAN_POINT ( 'NONE',  ( -115.1675302410215522, 7.317105988869978273E-15, 0.000000000000000000 ) ) ;
#916 = DIRECTION ( 'NONE',  ( -1.000000000000000000, -1.836970198721029688E-16, -0.000000000000000000 ) ) ;
#917 = ORIENTED_EDGE ( 'NONE', *, *, #432, .F. ) ;
#918 = SHAPE_DEFINITION_REPRESENTATION ( #954, #89 ) ;
#919 = CARTESIAN_POINT ( 'NONE',  ( -157.3324697589783341, 48.50000000000001421, 5.939536975864664152E-15 ) ) ;
#920 = DIRECTION ( 'NONE',  ( 0.000000000000000000, -1.000000000000000000, 0.000000000000000000 ) ) ;
#921 = CARTESIAN_POINT ( 'NONE',  ( 154.9999999999998579, 5.694607616035186914E-14, 0.000000000000000000 ) ) ;
#922 = PERSON_AND_ORGANIZATION ( #714, #876 ) ;
#923 = AXIS2_PLACEMENT_3D ( 'NONE', #137, #222, #566 ) ;
#924 = FACE_OUTER_BOUND ( 'NONE', #738, .T. ) ;
#925 = CONICAL_SURFACE ( 'NONE', #803, 56.99999999999996447, 0.4583000663916555473 ) ;
#926 = VECTOR ( 'NONE', #712, 1000.000000000000000 ) ;
#927 = AXIS2_PLACEMENT_3D ( 'NONE', #768, #941, #780 ) ;
#928 = CARTESIAN_POINT ( 'NONE',  ( 115.1675302410215380, 4.962897017148188455E-14, 0.000000000000000000 ) ) ;
#929 = EDGE_CURVE ( 'NONE', #485, #190, #702, .T. ) ;
#930 = ORIENTED_EDGE ( 'NONE', *, *, #816, .T. ) ;
#931 = ORIENTED_EDGE ( 'NONE', *, *, #895, .T. ) ;
#932 = CARTESIAN_POINT ( 'NONE',  ( -157.3324697589783625, 1.426729384610211368E-14, 0.000000000000000000 ) ) ;
#933 = FACE_OUTER_BOUND ( 'NONE', #573, .T. ) ;
#934 = PLANE ( 'NONE',  #994 ) ;
#935 = APPROVAL ( #392, 'UNSPECIFIED' ) ;
#936 = VERTEX_POINT ( 'NONE', #619 ) ;
#937 = DIRECTION ( 'NONE',  ( -2.434699615406046697E-16, 1.000000000000000000, 0.000000000000000000 ) ) ;
#938 = DIRECTION ( 'NONE',  ( -2.434699615406046697E-16, 1.000000000000000000, 0.000000000000000000 ) ) ;
#939 = VERTEX_POINT ( 'NONE', #296 ) ;
#940 = ORIENTED_EDGE ( 'NONE', *, *, #692, .F. ) ;
#941 = DIRECTION ( 'NONE',  ( -1.000000000000000000, -1.836970198721029688E-16, -0.000000000000000000 ) ) ;
#942 = CIRCLE ( 'NONE', #474, 56.99999999999996447 ) ;
#943 = DIRECTION ( 'NONE',  ( -1.000000000000000000, -1.836970198721029688E-16, -0.000000000000000000 ) ) ;
#944 = AXIS2_PLACEMENT_3D ( 'NONE', #1010, #604, #578 ) ;
#945 = AXIS2_PLACEMENT_3D ( 'NONE', #502, #516, #1065 ) ;
#946 = DIRECTION ( 'NONE',  ( -1.836970198721029688E-16, 1.000000000000000000, 0.000000000000000000 ) ) ;
#947 = EDGE_LOOP ( 'NONE', ( #1027, #849, #437, #940 ) ) ;
#948 = DIRECTION ( 'NONE',  ( 1.000000000000000000, 1.836970198721029934E-16, 0.000000000000000000 ) ) ;
#949 = DIRECTION ( 'NONE',  ( -2.434699615406046697E-16, 1.000000000000000000, 0.000000000000000000 ) ) ;
#950 = APPROVAL ( #586, 'UNSPECIFIED' ) ;
#951 = CARTESIAN_POINT ( 'NONE',  ( 157.3324697589783625, -37.29999999999993321, 4.567932560819628441E-15 ) ) ;
#952 = ORIENTED_EDGE ( 'NONE', *, *, #172, .F. ) ;
#953 = FACE_OUTER_BOUND ( 'NONE', #866, .T. ) ;
#954 = PRODUCT_DEFINITION_SHAPE ( 'NONE', 'NONE',  #451 ) ;
#955 = DIRECTION ( 'NONE',  ( 0.000000000000000000, -1.000000000000000000, 0.000000000000000000 ) ) ;
#956 = EDGE_CURVE ( 'NONE', #632, #459, #785, .T. ) ;
#957 = DIRECTION ( 'NONE',  ( 1.000000000000000000, 1.836970198721029934E-16, 0.000000000000000000 ) ) ;
#958 = ORIENTED_EDGE ( 'NONE', *, *, #987, .T. ) ;
#959 = PERSON_AND_ORGANIZATION ( #714, #876 ) ;
#960 = DIRECTION ( 'NONE',  ( 1.836970198721029688E-16, -1.000000000000000000, 0.000000000000000000 ) ) ;
#961 = AXIS2_PLACEMENT_3D ( 'NONE', #887, #813, #973 ) ;
#962 = VECTOR ( 'NONE', #285, 1000.000000000000114 ) ;
#963 = VECTOR ( 'NONE', #455, 1000.000000000000000 ) ;
#964 = CC_DESIGN_SECURITY_CLASSIFICATION ( #250, ( #425 ) ) ;
#965 = CLOSED_SHELL ( 'NONE', ( #574, #55, #763, #196, #544, #435, #745, #471, #810, #879, #1063, #44, #1022, #559, #741, #845, #21, #725, #359, #86, #271, #460, #210, #66, #133, #401, #107, #376, #389, #204, #298, #645, #851, #19, #404, #308, #152, #549 ) ) ;
#966 = ORIENTED_EDGE ( 'NONE', *, *, #772, .T. ) ;
#967 = PERSON_AND_ORGANIZATION_ROLE ( 'creator' ) ;
#968 = EDGE_CURVE ( 'NONE', #715, #990, #598, .T. ) ;
#969 = CARTESIAN_POINT ( 'NONE',  ( 154.4690909162130481, -37.42383293826994617, 0.000000000000000000 ) ) ;
#970 = ORIENTED_EDGE ( 'NONE', *, *, #350, .T. ) ;
#971 = DIRECTION ( 'NONE',  ( 1.836970198721029688E-16, -1.000000000000000000, 0.000000000000000000 ) ) ;
#972 = VERTEX_POINT ( 'NONE', #45 ) ;
#973 = DIRECTION ( 'NONE',  ( 0.000000000000000000, 1.000000000000000000, 0.000000000000000000 ) ) ;
#974 = EDGE_CURVE ( 'NONE', #391, #373, #737, .T. ) ;
#975 = DIRECTION ( 'NONE',  ( 1.836970198721029688E-16, -1.000000000000000000, 0.000000000000000000 ) ) ;
#976 = CONICAL_SURFACE ( 'NONE', #717, 37.42383293827000301, 0.4583000663916555473 ) ;
#977 = AXIS2_PLACEMENT_3D ( 'NONE', #202, #41, #525 ) ;
#978 = ORIENTED_EDGE ( 'NONE', *, *, #901, .T. ) ;
#979 = MECHANICAL_CONTEXT ( 'NONE', #614, 'mechanical' ) ;
#980 = CARTESIAN_POINT ( 'NONE',  ( 157.3324697589783625, 48.50000000000007105, 5.939536975864664152E-15 ) ) ;
#981 = LINE ( 'NONE', #487, #164 ) ;
#982 = EDGE_CURVE ( 'NONE', #972, #43, #265, .T. ) ;
#983 = VERTEX_POINT ( 'NONE', #850 ) ;
#984 = ORIENTED_EDGE ( 'NONE', *, *, #396, .T. ) ;
#985 = DIRECTION ( 'NONE',  ( 0.000000000000000000, 1.000000000000000000, 0.000000000000000000 ) ) ;
#986 = FACE_OUTER_BOUND ( 'NONE', #795, .T. ) ;
#987 = EDGE_CURVE ( 'NONE', #936, #391, #406, .T. ) ;
#988 = DIRECTION ( 'NONE',  ( 0.000000000000000000, 1.000000000000000000, 0.000000000000000000 ) ) ;
#989 = CARTESIAN_POINT ( 'NONE',  ( 119.5917726059116433, 55.96805884775026385, 6.854110412238800252E-15 ) ) ;
#990 = VERTEX_POINT ( 'NONE', #278 ) ;
#991 = VECTOR ( 'NONE', #588, 1000.000000000000000 ) ;
#992 = DIRECTION ( 'NONE',  ( 1.000000000000000000, 1.836970198721029688E-16, 0.000000000000000000 ) ) ;
#993 = DIRECTION ( 'NONE',  ( -1.000000000000000000, -1.836970198721029934E-16, -0.000000000000000000 ) ) ;
#994 = AXIS2_PLACEMENT_3D ( 'NONE', #193, #523, #853 ) ;
#995 = ORIENTED_EDGE ( 'NONE', *, *, #929, .F. ) ;
#996 = APPROVAL_DATE_TIME ( #175, #950 ) ;
#997 = ORIENTED_EDGE ( 'NONE', *, *, #101, .F. ) ;
#998 = CARTESIAN_POINT ( 'NONE',  ( -115.1675302410215522, 7.317105988869978273E-15, 0.000000000000000000 ) ) ;
#999 = ORIENTED_EDGE ( 'NONE', *, *, #432, .T. ) ;
#1000 = DIRECTION ( 'NONE',  ( 0.000000000000000000, 0.000000000000000000, -1.000000000000000000 ) ) ;
#1001 = CARTESIAN_POINT ( 'NONE',  ( 157.3324697589783625, 7.207030549378628883E-14, 0.000000000000000000 ) ) ;
#1002 = EDGE_CURVE ( 'NONE', #40, #176, #685, .T. ) ;
#1003 = EDGE_CURVE ( 'NONE', #373, #299, #219, .T. ) ;
#1004 = FACE_OUTER_BOUND ( 'NONE', #553, .T. ) ;
#1005 = CIRCLE ( 'NONE', #542, 38.50000000000000000 ) ;
#1006 = ORIENTED_EDGE ( 'NONE', *, *, #349, .F. ) ;
#1007 = FACE_OUTER_BOUND ( 'NONE', #380, .T. ) ;
#1008 = AXIS2_PLACEMENT_3D ( 'NONE', #5, #244, #575 ) ;
#1009 = AXIS2_PLACEMENT_3D ( 'NONE', #1001, #429, #192 ) ;
#1010 = CARTESIAN_POINT ( 'NONE',  ( 115.1675302410215522, 4.962897017148189086E-14, 0.000000000000000000 ) ) ;
#1011 = CC_DESIGN_APPROVAL ( #292, ( #250 ) ) ;
#1012 = DIRECTION ( 'NONE',  ( 1.000000000000000000, 1.836970198721029688E-16, 0.000000000000000000 ) ) ;
#1013 = VERTEX_POINT ( 'NONE', #1019 ) ;
#1014 = CARTESIAN_POINT ( 'NONE',  ( 157.3324697589783625, -48.49999999999994316, 0.000000000000000000 ) ) ;
#1015 = DIRECTION ( 'NONE',  ( -1.000000000000000000, 0.000000000000000000, 0.000000000000000000 ) ) ;
#1016 = CARTESIAN_POINT ( 'NONE',  ( -119.5917726059116575, 6.504385851247760945E-15, 0.000000000000000000 ) ) ;
#1017 = EDGE_CURVE ( 'NONE', #259, #206, #32, .T. ) ;
#1018 = ORIENTED_EDGE ( 'NONE', *, *, #599, .F. ) ;
#1019 = CARTESIAN_POINT ( 'NONE',  ( -115.1675302410215380, -55.79999999999996163, 0.000000000000000000 ) ) ;
#1020 = DIRECTION ( 'NONE',  ( -1.000000000000000000, -1.836970198721029688E-16, -0.000000000000000000 ) ) ;
#1021 = DIRECTION ( 'NONE',  ( 0.000000000000000000, 1.000000000000000000, 0.000000000000000000 ) ) ;
#1022 = ADVANCED_FACE ( 'NONE', ( #1046 ), #909, .F. ) ;
#1023 = ORIENTED_EDGE ( 'NONE', *, *, #511, .F. ) ;
#1024 = CARTESIAN_POINT ( 'NONE',  ( -152.9082273940882146, 39.53194115224976457, 0.000000000000000000 ) ) ;
#1025 = DIRECTION ( 'NONE',  ( -2.528203593695205411E-16, 1.000000000000000000, 0.000000000000000000 ) ) ;
#1026 = CIRCLE ( 'NONE', #67, 11.19999999999998863 ) ;
#1027 = ORIENTED_EDGE ( 'NONE', *, *, #167, .F. ) ;
#1028 = AXIS2_PLACEMENT_3D ( 'NONE', #622, #372, #394 ) ;
#1029 = ORIENTED_EDGE ( 'NONE', *, *, #708, .T. ) ;
#1030 = DIRECTION ( 'NONE',  ( 1.000000000000000000, 1.836970198721029688E-16, 0.000000000000000000 ) ) ;
#1031 = CARTESIAN_POINT ( 'NONE',  ( -116.9690909162131760, 6.986164661718502575E-15, 0.000000000000000000 ) ) ;
#1032 = DIRECTION ( 'NONE',  ( 1.000000000000000000, 1.836970198721029934E-16, 0.000000000000000000 ) ) ;
#1033 = ORIENTED_EDGE ( 'NONE', *, *, #987, .F. ) ;
#1034 = DIRECTION ( 'NONE',  ( -2.249639673992786412E-32, 1.224646799147353207E-16, 1.000000000000000000 ) ) ;
#1035 = LINE ( 'NONE', #769, #926 ) ;
#1036 = EDGE_CURVE ( 'NONE', #448, #676, #115, .T. ) ;
#1037 = ORIENTED_EDGE ( 'NONE', *, *, #1049, .F. ) ;
#1038 = DIRECTION ( 'NONE',  ( 0.000000000000000000, 1.000000000000000000, 0.000000000000000000 ) ) ;
#1039 = CARTESIAN_POINT ( 'NONE',  ( -235.0000000000000000, 37.29999999999999716, 0.000000000000000000 ) ) ;
#1040 = CIRCLE ( 'NONE', #79, 10.00000000000000888 ) ;
#1041 = CC_DESIGN_PERSON_AND_ORGANIZATION_ASSIGNMENT ( #670, #253, ( #425 ) ) ;
#1042 = AXIS2_PLACEMENT_3D ( 'NONE', #85, #339, #662 ) ;
#1043 = EDGE_CURVE ( 'NONE', #983, #632, #407, .T. ) ;
#1044 = AXIS2_PLACEMENT_3D ( 'NONE', #151, #143, #235 ) ;
#1045 = EDGE_LOOP ( 'NONE', ( #602, #749, #330, #710 ) ) ;
#1046 = FACE_OUTER_BOUND ( 'NONE', #697, .T. ) ;
#1047 = FACE_OUTER_BOUND ( 'NONE', #947, .T. ) ;
#1048 = VERTEX_POINT ( 'NONE', #136 ) ;
#1049 = EDGE_CURVE ( 'NONE', #990, #618, #307, .T. ) ;
#1050 = DIRECTION ( 'NONE',  ( 1.000000000000000000, 1.836970198721029934E-16, 0.000000000000000000 ) ) ;
#1051 = CYLINDRICAL_SURFACE ( 'NONE', #186, 38.50000000000000000 ) ;
#1052 = CALENDAR_DATE ( 2026, 16, 9 ) ;
#1053 = CC_DESIGN_DATE_AND_TIME_ASSIGNMENT ( #409, #18, ( #250 ) ) ;
#1054 = FACE_OUTER_BOUND ( 'NONE', #266, .T. ) ;
#1055 = AXIS2_PLACEMENT_3D ( 'NONE', #367, #777, #551 ) ;
#1056 = CIRCLE ( 'NONE', #303, 38.45577409051973916 ) ;
#1057 = VERTEX_POINT ( 'NONE', #300 ) ;
#1058 = PERSON_AND_ORGANIZATION_ROLE ( 'design_owner' ) ;
#1059 = VECTOR ( 'NONE', #773, 999.9999999999998863 ) ;
#1060 = ORIENTED_EDGE ( 'NONE', *, *, #791, .F. ) ;
#1061 = LINE ( 'NONE', #486, #508 ) ;
#1062 = DIRECTION ( 'NONE',  ( -1.000000000000000000, -1.836970198721029688E-16, -0.000000000000000000 ) ) ;
#1063 = ADVANCED_FACE ( 'NONE', ( #132 ), #95, .T. ) ;
#1064 = VERTEX_POINT ( 'NONE', #644 ) ;
#1065 = DIRECTION ( 'NONE',  ( 2.528203593695205904E-16, -1.000000000000000000, 0.000000000000000000 ) ) ;
ENDSEC;
END-ISO-10303-21;
