ISO-10303-21;
HEADER;
FILE_DESCRIPTION (( 'STEP AP203' ),
    '1' );
FILE_NAME ('79-8416 - 51mm x 2000mm.STEP',
    '2026-09-15T22:03:27',
    ( '' ),
    ( '' ),
    'SwSTEP 2.0',
    'SolidWorks 2026',
    '' );
FILE_SCHEMA (( 'CONFIG_CONTROL_DESIGN' ));
ENDSEC;

DATA;
#1 = EDGE_CURVE ( 'NONE', #630, #742, #34, .T. ) ;
#2 = DIRECTION ( 'NONE',  ( 1.000000000000000000, 0.000000000000000000, -1.836970198721029688E-16 ) ) ;
#3 = ORIENTED_EDGE ( 'NONE', *, *, #163, .F. ) ;
#4 = PLANE ( 'NONE',  #501 ) ;
#5 = ORIENTED_EDGE ( 'NONE', *, *, #615, .F. ) ;
#6 = CARTESIAN_POINT ( 'NONE',  ( 1000.000000000000000, -2.250000000000000000, 27.15695122800035932 ) ) ;
#7 = DIRECTION ( 'NONE',  ( 0.000000000000000000, 0.000000000000000000, 1.000000000000000000 ) ) ;
#8 = ORIENTED_EDGE ( 'NONE', *, *, #994, .F. ) ;
#9 = LOCAL_TIME ( 0, 3, 27.00000000000000000, #954 ) ;
#10 = AXIS2_PLACEMENT_3D ( 'NONE', #900, #625, #995 ) ;
#11 = LINE ( 'NONE', #843, #89 ) ;
#12 = VECTOR ( 'NONE', #214, 1000.000000000000000 ) ;
#13 = ORIENTED_EDGE ( 'NONE', *, *, #45, .F. ) ;
#14 = CARTESIAN_POINT ( 'NONE',  ( 935.8816349035402027, 0.000000000000000000, -2.637671772208633507E-13 ) ) ;
#15 = VECTOR ( 'NONE', #845, 1000.000000000000000 ) ;
#16 = AXIS2_PLACEMENT_3D ( 'NONE', #1151, #789, #37 ) ;
#17 = CYLINDRICAL_SURFACE ( 'NONE', #891, 27.25000000000000000 ) ;
#18 = ORIENTED_EDGE ( 'NONE', *, *, #985, .F. ) ;
#19 = ORIENTED_EDGE ( 'NONE', *, *, #1018, .F. ) ;
#20 = CARTESIAN_POINT ( 'NONE',  ( 1000.000000000000000, 27.25000000000000000, 2.249999999999822364 ) ) ;
#21 = ORIENTED_EDGE ( 'NONE', *, *, #1162, .F. ) ;
#22 = FACE_OUTER_BOUND ( 'NONE', #548, .T. ) ;
#23 = PRODUCT_DEFINITION_SHAPE ( 'NONE', 'NONE',  #825 ) ;
#24 = VERTEX_POINT ( 'NONE', #302 ) ;
#25 = CARTESIAN_POINT ( 'NONE',  ( 0.000000000000000000, 0.000000000000000000, 0.000000000000000000 ) ) ;
#26 = AXIS2_PLACEMENT_3D ( 'NONE', #768, #306, #569 ) ;
#27 = ORIENTED_EDGE ( 'NONE', *, *, #203, .T. ) ;
#28 = DIRECTION ( 'NONE',  ( -0.000000000000000000, -1.000000000000000000, -0.000000000000000000 ) ) ;
#29 = AXIS2_PLACEMENT_3D ( 'NONE', #153, #411, #157 ) ;
#30 = ADVANCED_FACE ( 'NONE', ( #1040 ), #793, .F. ) ;
#31 = CIRCLE ( 'NONE', #1028, 27.25000000000000000 ) ;
#32 = VECTOR ( 'NONE', #63, 1000.000000000000227 ) ;
#33 = EDGE_CURVE ( 'NONE', #204, #1054, #1046, .T. ) ;
#34 = LINE ( 'NONE', #667, #1064 ) ;
#35 = DATE_AND_TIME ( #41, #9 ) ;
#36 = ORIENTED_EDGE ( 'NONE', *, *, #226, .T. ) ;
#37 = DIRECTION ( 'NONE',  ( 0.000000000000000000, -1.224646799147352961E-16, 1.000000000000000000 ) ) ;
#38 = DIRECTION ( 'NONE',  ( 1.000000000000000000, 0.000000000000000000, -1.836970198721029688E-16 ) ) ;
#39 = ADVANCED_FACE ( 'NONE', ( #392 ), #1153, .F. ) ;
#40 = CARTESIAN_POINT ( 'NONE',  ( 935.0000000000000000, -27.15695122800053696, -2.250000000000164313 ) ) ;
#41 = CALENDAR_DATE ( 2026, 16, 9 ) ;
#42 = ORIENTED_EDGE ( 'NONE', *, *, #657, .F. ) ;
#43 = CARTESIAN_POINT ( 'NONE',  ( 1000.000000000000000, 0.000000000000000000, -3.673940397442059493E-13 ) ) ;
#44 = DIRECTION ( 'NONE',  ( 1.000000000000000000, 0.000000000000000000, -1.836970198721029688E-16 ) ) ;
#45 = EDGE_CURVE ( 'NONE', #288, #48, #860, .T. ) ;
#46 = FACE_OUTER_BOUND ( 'NONE', #816, .T. ) ;
#47 = APPROVAL_ROLE ( '' ) ;
#48 = VERTEX_POINT ( 'NONE', #396 ) ;
#49 = CARTESIAN_POINT ( 'NONE',  ( 974.0000000000000000, 0.000000000000000000, -27.25000000000018474 ) ) ;
#50 = DIRECTION ( 'NONE',  ( 0.000000000000000000, 0.000000000000000000, -1.000000000000000000 ) ) ;
#51 = LOCAL_TIME ( 0, 3, 27.00000000000000000, #131 ) ;
#52 = CIRCLE ( 'NONE', #237, 26.94846310392973621 ) ;
#53 = VECTOR ( 'NONE', #710, 1000.000000000000000 ) ;
#54 = AXIS2_PLACEMENT_3D ( 'NONE', #218, #857, #233 ) ;
#55 = ORIENTED_EDGE ( 'NONE', *, *, #226, .F. ) ;
#56 = APPROVAL_STATUS ( 'not_yet_approved' ) ;
#57 = VERTEX_POINT ( 'NONE', #1035 ) ;
#58 = DIRECTION ( 'NONE',  ( 1.000000000000000000, 0.000000000000000000, -1.836970198721029688E-16 ) ) ;
#59 = EDGE_CURVE ( 'NONE', #452, #536, #575, .T. ) ;
#60 = DIRECTION ( 'NONE',  ( 0.000000000000000000, 0.000000000000000000, -1.000000000000000000 ) ) ;
#61 = CARTESIAN_POINT ( 'NONE',  ( 1000.000000000000000, 2.250000000000000000, 25.65151067676113428 ) ) ;
#62 = ORIENTED_EDGE ( 'NONE', *, *, #371, .F. ) ;
#63 = DIRECTION ( 'NONE',  ( 0.9396926207859115365, 4.188538737676883913E-17, 0.3420201433256598311 ) ) ;
#64 = ADVANCED_FACE ( 'NONE', ( #46 ), #493, .F. ) ;
#65 = CARTESIAN_POINT ( 'NONE',  ( 974.0000000000000000, 25.65151067676131902, -2.250000000000172307 ) ) ;
#66 = DIRECTION ( 'NONE',  ( 1.000000000000000000, 0.000000000000000000, -1.836970198721029688E-16 ) ) ;
#67 = ORIENTED_EDGE ( 'NONE', *, *, #564, .T. ) ;
#68 = DIRECTION ( 'NONE',  ( -1.000000000000000000, -0.000000000000000000, 1.836970198721029688E-16 ) ) ;
#69 = CARTESIAN_POINT ( 'NONE',  ( 929.3102796124093175, 0.000000000000000000, -3.544085487734133026E-13 ) ) ;
#70 = ADVANCED_FACE ( 'NONE', ( #154 ), #507, .F. ) ;
#71 = CIRCLE ( 'NONE', #108, 25.75000000000000000 ) ;
#72 = CARTESIAN_POINT ( 'NONE',  ( 974.0000000000000000, 27.25000000000000000, -2.250000000000172307 ) ) ;
#73 = AXIS2_PLACEMENT_3D ( 'NONE', #620, #886, #1076 ) ;
#74 = ORIENTED_EDGE ( 'NONE', *, *, #33, .T. ) ;
#75 = DIRECTION ( 'NONE',  ( 0.000000000000000000, 0.000000000000000000, -1.000000000000000000 ) ) ;
#76 = CARTESIAN_POINT ( 'NONE',  ( 930.1919145159515665, 0.000000000000000000, -3.545705024778092847E-13 ) ) ;
#77 = PLANE ( 'NONE',  #1006 ) ;
#78 = EDGE_CURVE ( 'NONE', #747, #381, #694, .T. ) ;
#79 = ORIENTED_EDGE ( 'NONE', *, *, #126, .T. ) ;
#80 = DIRECTION ( 'NONE',  ( 1.836970198721028948E-16, 0.000000000000000000, 1.000000000000000000 ) ) ;
#81 = DIRECTION ( 'NONE',  ( 1.000000000000000000, 0.000000000000000000, -1.836970198721029688E-16 ) ) ;
#82 = DIRECTION ( 'NONE',  ( -0.000000000000000000, -1.000000000000000000, -0.000000000000000000 ) ) ;
#83 = CC_DESIGN_DATE_AND_TIME_ASSIGNMENT ( #479, #855, ( #145 ) ) ;
#84 = ORIENTED_EDGE ( 'NONE', *, *, #1073, .T. ) ;
#85 = DIRECTION ( 'NONE',  ( 1.836970198721029688E-16, 0.000000000000000000, 1.000000000000000000 ) ) ;
#86 = LINE ( 'NONE', #249, #53 ) ;
#87 = PERSON ( 'UNSPECIFIED', 'UNSPECIFIED', 'UNSPECIFIED', ('UNSPECIFIED'), ('UNSPECIFIED'), ('UNSPECIFIED') ) ;
#88 = FACE_OUTER_BOUND ( 'NONE', #354, .T. ) ;
#89 = VECTOR ( 'NONE', #1121, 1000.000000000000000 ) ;
#90 = VECTOR ( 'NONE', #914, 1000.000000000000000 ) ;
#91 = CONICAL_SURFACE ( 'NONE', #578, 24.09046106882113136, 0.3490658503988566252 ) ;
#92 = VERTEX_POINT ( 'NONE', #786 ) ;
#93 = FACE_OUTER_BOUND ( 'NONE', #1113, .T. ) ;
#94 = LINE ( 'NONE', #722, #775 ) ;
#95 = CARTESIAN_POINT ( 'NONE',  ( 929.3102796124093175, 0.000000000000000000, -3.544085487734133026E-13 ) ) ;
#96 = ORIENTED_EDGE ( 'NONE', *, *, #78, .T. ) ;
#97 = ORIENTED_EDGE ( 'NONE', *, *, #379, .F. ) ;
#98 = FACE_OUTER_BOUND ( 'NONE', #281, .T. ) ;
#99 = CC_DESIGN_PERSON_AND_ORGANIZATION_ASSIGNMENT ( #577, #781, ( #519 ) ) ;
#100 = CARTESIAN_POINT ( 'NONE',  ( -1000.000000000000000, 0.000000000000000000, -23.99999999999999645 ) ) ;
#101 = ORIENTED_EDGE ( 'NONE', *, *, #1067, .F. ) ;
#102 = DIRECTION ( 'NONE',  ( -1.836970198721029688E-16, 0.000000000000000000, -1.000000000000000000 ) ) ;
#103 = CARTESIAN_POINT ( 'NONE',  ( 935.0000000000000000, 0.000000000000000000, -27.25000000000017408 ) ) ;
#104 = CARTESIAN_POINT ( 'NONE',  ( 931.5334105440261965, 0.000000000000000000, -24.39199796489193872 ) ) ;
#105 = ADVANCED_FACE ( 'NONE', ( #799 ), #878, .T. ) ;
#106 = AXIS2_PLACEMENT_3D ( 'NONE', #671, #222, #130 ) ;
#107 = ORIENTED_EDGE ( 'NONE', *, *, #510, .F. ) ;
#108 = AXIS2_PLACEMENT_3D ( 'NONE', #1004, #2, #957 ) ;
#109 = AXIS2_PLACEMENT_3D ( 'NONE', #69, #162, #1099 ) ;
#110 = ORIENTED_EDGE ( 'NONE', *, *, #866, .T. ) ;
#111 = CARTESIAN_POINT ( 'NONE',  ( 974.0000000000000000, 0.000000000000000000, -1.789208973554282786E-13 ) ) ;
#112 = ADVANCED_FACE ( 'NONE', ( #1072 ), #245, .F. ) ;
#113 = VERTEX_POINT ( 'NONE', #61 ) ;
#114 = CARTESIAN_POINT ( 'NONE',  ( 974.0000000000000000, -2.250000000000000000, -27.25000000000018119 ) ) ;
#115 = ORIENTED_EDGE ( 'NONE', *, *, #203, .F. ) ;
#116 = DIRECTION ( 'NONE',  ( 1.836970198721029688E-16, 0.000000000000000000, 1.000000000000000000 ) ) ;
#117 = ORIENTED_EDGE ( 'NONE', *, *, #239, .F. ) ;
#118 = LINE ( 'NONE', #114, #421 ) ;
#119 = VERTEX_POINT ( 'NONE', #516 ) ;
#120 = EDGE_CURVE ( 'NONE', #288, #119, #460, .T. ) ;
#121 = ORIENTED_EDGE ( 'NONE', *, *, #985, .T. ) ;
#122 = APPROVAL_ROLE ( '' ) ;
#123 = VERTEX_POINT ( 'NONE', #792 ) ;
#124 = DIRECTION ( 'NONE',  ( 0.000000000000000000, 0.000000000000000000, 1.000000000000000000 ) ) ;
#125 = CIRCLE ( 'NONE', #813, 25.80153689607043788 ) ;
#126 = EDGE_CURVE ( 'NONE', #275, #742, #890, .T. ) ;
#127 = AXIS2_PLACEMENT_3D ( 'NONE', #453, #470, #1124 ) ;
#128 = LINE ( 'NONE', #645, #599 ) ;
#129 = CIRCLE ( 'NONE', #483, 26.94846310392973621 ) ;
#130 = DIRECTION ( 'NONE',  ( 1.836970198721029688E-16, 0.000000000000000000, 1.000000000000000000 ) ) ;
#131 = COORDINATED_UNIVERSAL_TIME_OFFSET ( 1, 0, .AHEAD. ) ;
#132 = ORIENTED_EDGE ( 'NONE', *, *, #349, .F. ) ;
#133 = CARTESIAN_POINT ( 'NONE',  ( 935.0000000000000000, 2.249999999999999112, -25.65151067676148955 ) ) ;
#134 = CYLINDRICAL_SURFACE ( 'NONE', #441, 25.75000000000000000 ) ;
#135 = DIRECTION ( 'NONE',  ( 1.836970198721028948E-16, 0.000000000000000000, 1.000000000000000000 ) ) ;
#136 = APPLICATION_PROTOCOL_DEFINITION ( 'international standard', 'config_control_design', 1994, #787 ) ;
#137 = EDGE_LOOP ( 'NONE', ( #495, #473, #839, #567 ) ) ;
#138 = DIRECTION ( 'NONE',  ( 1.000000000000000000, 0.000000000000000000, -1.836970198721029688E-16 ) ) ;
#139 = DIRECTION ( 'NONE',  ( 1.000000000000000000, 0.000000000000000000, -1.836970198721028948E-16 ) ) ;
#140 = ORIENTED_EDGE ( 'NONE', *, *, #1119, .T. ) ;
#141 = PERSON_AND_ORGANIZATION ( #87, #1065 ) ;
#142 = VERTEX_POINT ( 'NONE', #1158 ) ;
#143 = CYLINDRICAL_SURFACE ( 'NONE', #682, 27.25000000000000000 ) ;
#144 = CARTESIAN_POINT ( 'NONE',  ( 935.0000000000000000, 0.000000000000000000, -1.717567135804162851E-13 ) ) ;
#145 = SECURITY_CLASSIFICATION ( '', '', #408 ) ;
#146 = AXIS2_PLACEMENT_3D ( 'NONE', #369, #192, #7 ) ;
#147 = CIRCLE ( 'NONE', #621, 6.499999999999999112 ) ;
#148 = VECTOR ( 'NONE', #264, 1000.000000000000000 ) ;
#149 = DIRECTION ( 'NONE',  ( 0.000000000000000000, 0.000000000000000000, -1.000000000000000000 ) ) ;
#150 = ADVANCED_FACE ( 'NONE', ( #345 ), #440, .T. ) ;
#151 = EDGE_LOOP ( 'NONE', ( #19, #121, #268, #964 ) ) ;
#152 = FACE_OUTER_BOUND ( 'NONE', #923, .T. ) ;
#153 = CARTESIAN_POINT ( 'NONE',  ( 935.8816349035402027, 0.000000000000000000, 22.24999999999982592 ) ) ;
#154 = FACE_OUTER_BOUND ( 'NONE', #1085, .T. ) ;
#155 = ORIENTED_EDGE ( 'NONE', *, *, #730, .T. ) ;
#156 = DIRECTION ( 'NONE',  ( -1.000000000000000000, -0.000000000000000000, 1.836970198721028948E-16 ) ) ;
#157 = DIRECTION ( 'NONE',  ( 0.000000000000000000, 0.000000000000000000, -1.000000000000000000 ) ) ;
#158 = ADVANCED_FACE ( 'NONE', ( #1179 ), #77, .T. ) ;
#159 = CARTESIAN_POINT ( 'NONE',  ( 974.0000000000000000, -2.250000000000000000, -27.25000000000018119 ) ) ;
#160 = ORIENTED_EDGE ( 'NONE', *, *, #827, .F. ) ;
#161 = DIRECTION ( 'NONE',  ( 0.000000000000000000, 0.000000000000000000, -1.000000000000000000 ) ) ;
#162 = DIRECTION ( 'NONE',  ( -1.000000000000000000, -0.000000000000000000, 1.836970198721028948E-16 ) ) ;
#163 = EDGE_CURVE ( 'NONE', #407, #930, #401, .T. ) ;
#164 = VECTOR ( 'NONE', #1059, 1000.000000000000000 ) ;
#165 = CIRCLE ( 'NONE', #1105, 23.99999999999999645 ) ;
#166 = DIRECTION ( 'NONE',  ( -1.000000000000000000, -0.000000000000000000, 1.836970198721029688E-16 ) ) ;
#167 = VECTOR ( 'NONE', #563, 1000.000000000000000 ) ;
#168 = ORIENTED_EDGE ( 'NONE', *, *, #364, .F. ) ;
#169 = CARTESIAN_POINT ( 'NONE',  ( 1000.000000000000000, 0.000000000000000000, -1.836970198721029747E-13 ) ) ;
#170 = DIRECTION ( 'NONE',  ( 1.836970198721029688E-16, 0.000000000000000000, 1.000000000000000000 ) ) ;
#171 = LINE ( 'NONE', #529, #907 ) ;
#172 = ORIENTED_EDGE ( 'NONE', *, *, #838, .T. ) ;
#173 = CARTESIAN_POINT ( 'NONE',  ( 974.0000000000000000, -2.250000000000000000, -27.25000000000018119 ) ) ;
#174 = CARTESIAN_POINT ( 'NONE',  ( -1000.000000000000000, 0.000000000000000000, 0.000000000000000000 ) ) ;
#175 = LINE ( 'NONE', #719, #1027 ) ;
#176 = ORIENTED_EDGE ( 'NONE', *, *, #205, .T. ) ;
#177 = DIRECTION ( 'NONE',  ( -1.000000000000000000, -0.000000000000000000, 1.836970198721029688E-16 ) ) ;
#178 = DIRECTION ( 'NONE',  ( 1.000000000000000000, 0.000000000000000000, -1.836970198721029688E-16 ) ) ;
#179 = DIRECTION ( 'NONE',  ( 0.000000000000000000, 0.000000000000000000, -1.000000000000000000 ) ) ;
#180 = AXIS2_PLACEMENT_3D ( 'NONE', #111, #848, #116 ) ;
#181 = ORIENTED_EDGE ( 'NONE', *, *, #241, .F. ) ;
#182 = CARTESIAN_POINT ( 'NONE',  ( 929.3102796124093175, 0.000000000000000000, -3.544085487734132521E-13 ) ) ;
#183 = EDGE_CURVE ( 'NONE', #847, #303, #430, .T. ) ;
#184 = AXIS2_PLACEMENT_3D ( 'NONE', #1167, #445, #1183 ) ;
#185 = ORIENTED_EDGE ( 'NONE', *, *, #838, .F. ) ;
#186 = PLANE ( 'NONE',  #294 ) ;
#187 = DIRECTION ( 'NONE',  ( 1.000000000000000000, 0.000000000000000000, -1.836970198721029688E-16 ) ) ;
#188 = ORIENTED_EDGE ( 'NONE', *, *, #1095, .F. ) ;
#189 = CARTESIAN_POINT ( 'NONE',  ( 974.0000000000000000, 2.250000000000000000, -27.25000000000018119 ) ) ;
#190 = ORIENTED_EDGE ( 'NONE', *, *, #874, .T. ) ;
#191 = DIRECTION ( 'NONE',  ( -1.000000000000000000, -0.000000000000000000, 1.836970198721028948E-16 ) ) ;
#192 = DIRECTION ( 'NONE',  ( -1.000000000000000000, -0.000000000000000000, 1.836970198721028948E-16 ) ) ;
#193 = ORIENTED_EDGE ( 'NONE', *, *, #383, .T. ) ;
#194 = ORIENTED_EDGE ( 'NONE', *, *, #1127, .T. ) ;
#195 = LINE ( 'NONE', #208, #504 ) ;
#196 = EDGE_CURVE ( 'NONE', #24, #142, #616, .T. ) ;
#197 = ORIENTED_EDGE ( 'NONE', *, *, #320, .F. ) ;
#198 = DIRECTION ( 'NONE',  ( 1.000000000000000000, 0.000000000000000000, -1.836970198721029688E-16 ) ) ;
#199 = AXIS2_PLACEMENT_3D ( 'NONE', #545, #733, #1131 ) ;
#200 = ORIENTED_EDGE ( 'NONE', *, *, #205, .F. ) ;
#201 = CARTESIAN_POINT ( 'NONE',  ( -1000.000000000000000, 0.000000000000000000, 0.000000000000000000 ) ) ;
#202 = AXIS2_PLACEMENT_3D ( 'NONE', #1189, #721, #437 ) ;
#203 = EDGE_CURVE ( 'NONE', #862, #270, #234, .T. ) ;
#204 = VERTEX_POINT ( 'NONE', #977 ) ;
#205 = EDGE_CURVE ( 'NONE', #24, #1102, #477, .T. ) ;
#206 = CARTESIAN_POINT ( 'NONE',  ( 1000.000000000000000, 0.000000000000000000, -3.673940397442059493E-13 ) ) ;
#207 = ORIENTED_EDGE ( 'NONE', *, *, #383, .F. ) ;
#208 = CARTESIAN_POINT ( 'NONE',  ( 1000.000000000000000, 27.25000000000000000, 2.249999999999822364 ) ) ;
#209 = ORIENTED_EDGE ( 'NONE', *, *, #762, .T. ) ;
#210 = APPROVAL_STATUS ( 'not_yet_approved' ) ;
#211 = EDGE_CURVE ( 'NONE', #579, #452, #171, .T. ) ;
#212 = ORIENTED_EDGE ( 'NONE', *, *, #412, .F. ) ;
#213 = PLANE ( 'NONE',  #462 ) ;
#214 = DIRECTION ( 'NONE',  ( 1.000000000000000000, 0.000000000000000000, -1.836970198721029688E-16 ) ) ;
#215 = ORIENTED_EDGE ( 'NONE', *, *, #582, .F. ) ;
#216 = CALENDAR_DATE ( 2026, 16, 9 ) ;
#217 = ORIENTED_EDGE ( 'NONE', *, *, #994, .T. ) ;
#218 = CARTESIAN_POINT ( 'NONE',  ( 974.0000000000000000, 0.000000000000000000, -1.789208973554282786E-13 ) ) ;
#219 = CC_DESIGN_PERSON_AND_ORGANIZATION_ASSIGNMENT ( #499, #585, ( #145 ) ) ;
#220 = CARTESIAN_POINT ( 'NONE',  ( 974.0000000000000000, -2.250000000000000000, -27.25000000000018119 ) ) ;
#221 = CIRCLE ( 'NONE', #374, 23.99999999999999645 ) ;
#222 = DIRECTION ( 'NONE',  ( -1.000000000000000000, 0.000000000000000000, 1.836970198721029688E-16 ) ) ;
#223 = ORIENTED_EDGE ( 'NONE', *, *, #948, .F. ) ;
#224 = CARTESIAN_POINT ( 'NONE',  ( 974.0000000000000000, -25.65151067676131902, -2.250000000000172307 ) ) ;
#225 = FACE_OUTER_BOUND ( 'NONE', #646, .T. ) ;
#226 = EDGE_CURVE ( 'NONE', #452, #57, #435, .T. ) ;
#227 = EDGE_LOOP ( 'NONE', ( #1150, #513, #592, #576, #295, #209, #55, #481, #1023, #193, #884, #74 ) ) ;
#228 = ORIENTED_EDGE ( 'NONE', *, *, #261, .F. ) ;
#229 = DIRECTION ( 'NONE',  ( -1.000000000000000000, -0.000000000000000000, 1.836970198721029688E-16 ) ) ;
#230 = FACE_OUTER_BOUND ( 'NONE', #1175, .T. ) ;
#231 = EDGE_CURVE ( 'NONE', #414, #550, #273, .T. ) ;
#232 = CARTESIAN_POINT ( 'NONE',  ( 935.0000000000000000, 0.000000000000000000, -1.717567135804162851E-13 ) ) ;
#233 = DIRECTION ( 'NONE',  ( 0.000000000000000000, 0.000000000000000000, 1.000000000000000000 ) ) ;
#234 = CIRCLE ( 'NONE', #520, 24.39199796489158700 ) ;
#235 = DIRECTION ( 'NONE',  ( 1.000000000000000000, 0.000000000000000000, -1.836970198721029688E-16 ) ) ;
#236 = AXIS2_PLACEMENT_3D ( 'NONE', #25, #554, #928 ) ;
#237 = AXIS2_PLACEMENT_3D ( 'NONE', #967, #244, #60 ) ;
#238 = AXIS2_PLACEMENT_3D ( 'NONE', #482, #496, #601 ) ;
#239 = EDGE_CURVE ( 'NONE', #1141, #286, #165, .T. ) ;
#240 = DIRECTION ( 'NONE',  ( 0.000000000000000000, 1.687538997430237941E-14, 1.000000000000000000 ) ) ;
#241 = EDGE_CURVE ( 'NONE', #764, #1016, #834, .T. ) ;
#242 = ORIENTED_EDGE ( 'NONE', *, *, #126, .F. ) ;
#243 = DIRECTION ( 'NONE',  ( -1.000000000000000000, -0.000000000000000000, 1.836970198721028208E-16 ) ) ;
#244 = DIRECTION ( 'NONE',  ( -1.000000000000000000, -0.000000000000000000, 1.836970198721028208E-16 ) ) ;
#245 = PLANE ( 'NONE',  #850 ) ;
#246 = ORIENTED_EDGE ( 'NONE', *, *, #673, .T. ) ;
#247 = CARTESIAN_POINT ( 'NONE',  ( -1000.000000000000000, 0.000000000000000000, -25.50000000000000000 ) ) ;
#248 = EDGE_CURVE ( 'NONE', #1021, #427, #522, .T. ) ;
#249 = CARTESIAN_POINT ( 'NONE',  ( 935.0000000000000000, -27.15695122800053340, 2.249999999999833911 ) ) ;
#250 = DIRECTION ( 'NONE',  ( 0.000000000000000000, 0.000000000000000000, -1.000000000000000000 ) ) ;
#251 = ORIENTED_EDGE ( 'NONE', *, *, #59, .F. ) ;
#252 = DIRECTION ( 'NONE',  ( 1.000000000000000000, 0.000000000000000000, -1.836970198721029688E-16 ) ) ;
#253 = DIRECTION ( 'NONE',  ( 1.000000000000000000, 0.000000000000000000, -1.836970198721028208E-16 ) ) ;
#254 = VECTOR ( 'NONE', #547, 1000.000000000000000 ) ;
#255 = DIRECTION ( 'NONE',  ( 1.836970198721028948E-16, 0.000000000000000000, 1.000000000000000000 ) ) ;
#256 = CIRCLE ( 'NONE', #560, 25.75000000000000000 ) ;
#257 = PRODUCT ( '79-8416 - 51mm x 2000mm', '79-8416 - 51mm x 2000mm', '', ( #1015 ) ) ;
#258 = EDGE_LOOP ( 'NONE', ( #875, #989, #62, #801 ) ) ;
#259 = LINE ( 'NONE', #173, #661 ) ;
#260 = CYLINDRICAL_SURFACE ( 'NONE', #1068, 25.50000000000000000 ) ;
#261 = EDGE_CURVE ( 'NONE', #747, #1141, #639, .T. ) ;
#262 = CARTESIAN_POINT ( 'NONE',  ( 1000.000000000000000, -2.250000000000000000, -27.25000000000018474 ) ) ;
#263 = EDGE_LOOP ( 'NONE', ( #1138, #553, #1096, #774 ) ) ;
#264 = DIRECTION ( 'NONE',  ( 1.000000000000000000, 0.000000000000000000, -1.836970198721029688E-16 ) ) ;
#265 = CARTESIAN_POINT ( 'NONE',  ( 974.0000000000000000, 27.15695122800054051, -2.250000000000172307 ) ) ;
#266 = DIRECTION ( 'NONE',  ( -0.000000000000000000, -1.000000000000000000, -0.000000000000000000 ) ) ;
#267 = EDGE_CURVE ( 'NONE', #24, #764, #1089, .T. ) ;
#268 = ORIENTED_EDGE ( 'NONE', *, *, #120, .T. ) ;
#269 = PLANE ( 'NONE',  #1103 ) ;
#270 = VERTEX_POINT ( 'NONE', #104 ) ;
#271 = PLANE ( 'NONE',  #73 ) ;
#272 = CC_DESIGN_APPROVAL ( #805, ( #825 ) ) ;
#273 = LINE ( 'NONE', #905, #1143 ) ;
#274 = CIRCLE ( 'NONE', #660, 24.39199796489158700 ) ;
#275 = VERTEX_POINT ( 'NONE', #1013 ) ;
#276 =( NAMED_UNIT ( * ) PLANE_ANGLE_UNIT ( ) SI_UNIT ( $, .RADIAN. ) );
#277 = CIRCLE ( 'NONE', #699, 25.75000000000000000 ) ;
#278 = ORIENTED_EDGE ( 'NONE', *, *, #1134, .T. ) ;
#279 = CARTESIAN_POINT ( 'NONE',  ( 929.3102796124093175, 0.000000000000000000, -3.544085487734132521E-13 ) ) ;
#280 = CARTESIAN_POINT ( 'NONE',  ( 974.0000000000000000, 0.000000000000000000, -25.75000000000018119 ) ) ;
#281 = EDGE_LOOP ( 'NONE', ( #689, #322, #842, #732, #1098, #21 ) ) ;
#282 = DIRECTION ( 'NONE',  ( 0.9396926207859114255, 0.000000000000000000, -0.3420201433256601642 ) ) ;
#283 = PLANE ( 'NONE',  #199 ) ;
#284 = ADVANCED_FACE ( 'NONE', ( #88 ), #17, .T. ) ;
#285 = DIRECTION ( 'NONE',  ( 1.000000000000000000, 0.000000000000000000, -1.836970198721028948E-16 ) ) ;
#286 = VERTEX_POINT ( 'NONE', #926 ) ;
#287 = CARTESIAN_POINT ( 'NONE',  ( -1000.000000000000000, 0.000000000000000000, -25.50000000000000000 ) ) ;
#288 = VERTEX_POINT ( 'NONE', #455 ) ;
#289 = DIRECTION ( 'NONE',  ( 1.836970198721028948E-16, 0.000000000000000000, 1.000000000000000000 ) ) ;
#290 = VECTOR ( 'NONE', #605, 1000.000000000000000 ) ;
#291 = ORIENTED_EDGE ( 'NONE', *, *, #1119, .F. ) ;
#292 = VECTOR ( 'NONE', #1104, 1000.000000000000000 ) ;
#293 = VECTOR ( 'NONE', #633, 1000.000000000000000 ) ;
#294 = AXIS2_PLACEMENT_3D ( 'NONE', #434, #422, #170 ) ;
#295 = ORIENTED_EDGE ( 'NONE', *, *, #925, .T. ) ;
#296 = CARTESIAN_POINT ( 'NONE',  ( 974.0000000000000000, 0.000000000000000000, -1.789208973554282786E-13 ) ) ;
#297 = AXIS2_PLACEMENT_3D ( 'NONE', #961, #1043, #587 ) ;
#298 = ADVANCED_FACE ( 'NONE', ( #815, #552 ), #629, .F. ) ;
#299 = ORIENTED_EDGE ( 'NONE', *, *, #709, .F. ) ;
#300 = ORIENTED_EDGE ( 'NONE', *, *, #963, .T. ) ;
#301 = DIRECTION ( 'NONE',  ( 0.000000000000000000, 1.243449787580175325E-14, 1.000000000000000000 ) ) ;
#302 = CARTESIAN_POINT ( 'NONE',  ( 1000.000000000000000, -2.249999999999999112, 25.65151067676113428 ) ) ;
#303 = VERTEX_POINT ( 'NONE', #280 ) ;
#304 = DIRECTION ( 'NONE',  ( 0.000000000000000000, 0.000000000000000000, -1.000000000000000000 ) ) ;
#305 = DIRECTION ( 'NONE',  ( 1.836970198721029688E-16, 0.000000000000000000, 1.000000000000000000 ) ) ;
#306 = DIRECTION ( 'NONE',  ( 1.000000000000000000, -0.000000000000000000, -1.836970198721029688E-16 ) ) ;
#307 = COORDINATED_UNIVERSAL_TIME_OFFSET ( 1, 0, .AHEAD. ) ;
#308 = AXIS2_PLACEMENT_3D ( 'NONE', #232, #883, #982 ) ;
#309 = CIRCLE ( 'NONE', #695, 27.25000000000000000 ) ;
#310 = AXIS2_PLACEMENT_3D ( 'NONE', #949, #826, #999 ) ;
#311 = ORIENTED_EDGE ( 'NONE', *, *, #337, .T. ) ;
#312 = CARTESIAN_POINT ( 'NONE',  ( 931.5334105440261965, 3.057387198716977967E-15, 24.39199796489123173 ) ) ;
#313 = EDGE_CURVE ( 'NONE', #467, #536, #175, .T. ) ;
#314 = CIRCLE ( 'NONE', #991, 25.75000000000000000 ) ;
#315 = FACE_OUTER_BOUND ( 'NONE', #346, .T. ) ;
#316 = DIRECTION ( 'NONE',  ( 1.000000000000000000, 0.000000000000000000, -1.836970198721029688E-16 ) ) ;
#317 = CALENDAR_DATE ( 2026, 16, 9 ) ;
#318 = ORIENTED_EDGE ( 'NONE', *, *, #882, .F. ) ;
#319 = DIRECTION ( 'NONE',  ( 0.000000000000000000, -1.000000000000000000, 0.000000000000000000 ) ) ;
#320 = EDGE_CURVE ( 'NONE', #764, #403, #1187, .T. ) ;
#321 = CARTESIAN_POINT ( 'NONE',  ( 974.0000000000000000, -2.250000000000000000, -27.15695122800072170 ) ) ;
#322 = ORIENTED_EDGE ( 'NONE', *, *, #882, .T. ) ;
#323 = APPROVAL_STATUS ( 'not_yet_approved' ) ;
#324 = ORIENTED_EDGE ( 'NONE', *, *, #379, .T. ) ;
#325 = FACE_OUTER_BOUND ( 'NONE', #727, .T. ) ;
#326 = DIRECTION ( 'NONE',  ( 0.000000000000000000, -0.000000000000000000, 1.000000000000000000 ) ) ;
#327 = CC_DESIGN_DATE_AND_TIME_ASSIGNMENT ( #494, #597, ( #825 ) ) ;
#328 = EDGE_CURVE ( 'NONE', #113, #204, #128, .T. ) ;
#329 = ORIENTED_EDGE ( 'NONE', *, *, #1093, .F. ) ;
#330 = PLANE ( 'NONE',  #1069 ) ;
#331 = CARTESIAN_POINT ( 'NONE',  ( 935.0000000000000000, 3.153465507804434404E-15, 25.74999999999982592 ) ) ;
#332 = CC_DESIGN_SECURITY_CLASSIFICATION ( #145, ( #519 ) ) ;
#333 = AXIS2_PLACEMENT_3D ( 'NONE', #737, #1110, #574 ) ;
#334 = CIRCLE ( 'NONE', #127, 27.25000000000000000 ) ;
#335 = CIRCLE ( 'NONE', #1184, 25.53892417275088889 ) ;
#336 = CARTESIAN_POINT ( 'NONE',  ( 974.0000000000000000, 0.000000000000000000, -1.789208973554282786E-13 ) ) ;
#337 = EDGE_CURVE ( 'NONE', #983, #48, #988, .T. ) ;
#338 = ORIENTED_EDGE ( 'NONE', *, *, #1, .F. ) ;
#339 = DIRECTION ( 'NONE',  ( -1.000000000000000000, -0.000000000000000000, 1.836970198721028208E-16 ) ) ;
#340 = CARTESIAN_POINT ( 'NONE',  ( 929.3102796124093175, 3.735172737399427541E-15, -30.50000000000035172 ) ) ;
#341 = DIRECTION ( 'NONE',  ( 1.000000000000000000, -0.000000000000000000, -1.836970198721029688E-16 ) ) ;
#342 = ORIENTED_EDGE ( 'NONE', *, *, #849, .F. ) ;
#343 = LINE ( 'NONE', #903, #1165 ) ;
#344 = DIRECTION ( 'NONE',  ( 1.000000000000000000, 0.000000000000000000, -1.836970198721029688E-16 ) ) ;
#345 = FACE_OUTER_BOUND ( 'NONE', #526, .T. ) ;
#346 = EDGE_LOOP ( 'NONE', ( #115, #611, #974, #188 ) ) ;
#347 = DIRECTION ( 'NONE',  ( -1.000000000000000000, -0.000000000000000000, 1.836970198721028208E-16 ) ) ;
#348 = DIRECTION ( 'NONE',  ( 1.000000000000000000, 0.000000000000000000, -1.836970198721028208E-16 ) ) ;
#349 = EDGE_CURVE ( 'NONE', #1001, #57, #363, .T. ) ;
#350 = AXIS2_PLACEMENT_3D ( 'NONE', #970, #66, #1066 ) ;
#351 = AXIS2_PLACEMENT_3D ( 'NONE', #14, #191, #289 ) ;
#352 = DIRECTION ( 'NONE',  ( -1.000000000000000000, -0.000000000000000000, 1.836970198721029688E-16 ) ) ;
#353 = TOROIDAL_SURFACE ( 'NONE', #972, 22.25000000000008882, 5.000000000000000000 ) ;
#354 = EDGE_LOOP ( 'NONE', ( #543, #902, #242, #329, #731, #828, #590, #846, #544, #1024, #318, #377 ) ) ;
#355 = CARTESIAN_POINT ( 'NONE',  ( 930.7049447309401558, 2.950230603791571696E-15, 24.09046106882077609 ) ) ;
#356 = FACE_OUTER_BOUND ( 'NONE', #151, .T. ) ;
#357 = EDGE_CURVE ( 'NONE', #436, #674, #659, .T. ) ;
#358 = CARTESIAN_POINT ( 'NONE',  ( 935.0000000000000000, -2.249999999999999112, 27.15695122800036287 ) ) ;
#359 = ORIENTED_EDGE ( 'NONE', *, *, #1134, .F. ) ;
#360 = CARTESIAN_POINT ( 'NONE',  ( 934.6845644019003885, 0.000000000000000000, -3.553957888731867849E-13 ) ) ;
#361 = ORIENTED_EDGE ( 'NONE', *, *, #657, .T. ) ;
#362 = CARTESIAN_POINT ( 'NONE',  ( 974.0000000000000000, 2.250000000000000000, -25.65151067676149665 ) ) ;
#363 = LINE ( 'NONE', #744, #90 ) ;
#364 = EDGE_CURVE ( 'NONE', #696, #983, #449, .T. ) ;
#365 = EDGE_LOOP ( 'NONE', ( #936, #958, #373, #27 ) ) ;
#366 = DIRECTION ( 'NONE',  ( -0.000000000000000000, 1.000000000000000000, 0.000000000000000000 ) ) ;
#367 = DIRECTION ( 'NONE',  ( 0.000000000000000000, 0.000000000000000000, 1.000000000000000000 ) ) ;
#368 = AXIS2_PLACEMENT_3D ( 'NONE', #896, #701, #255 ) ;
#369 = CARTESIAN_POINT ( 'NONE',  ( 929.3102796124093175, 0.000000000000000000, -3.544085487734133026E-13 ) ) ;
#370 = AXIS2_PLACEMENT_3D ( 'NONE', #651, #724, #1094 ) ;
#371 = EDGE_CURVE ( 'NONE', #794, #821, #125, .T. ) ;
#372 = AXIS2_PLACEMENT_3D ( 'NONE', #766, #38, #790 ) ;
#373 = ORIENTED_EDGE ( 'NONE', *, *, #948, .T. ) ;
#374 = AXIS2_PLACEMENT_3D ( 'NONE', #1050, #975, #880 ) ;
#375 = CARTESIAN_POINT ( 'NONE',  ( 974.0000000000000000, 0.000000000000000000, -1.789208973554282786E-13 ) ) ;
#376 = DIRECTION ( 'NONE',  ( 0.000000000000000000, 0.000000000000000000, 1.000000000000000000 ) ) ;
#377 = ORIENTED_EDGE ( 'NONE', *, *, #778, .F. ) ;
#378 = DIRECTION ( 'NONE',  ( 1.836970198721028948E-16, 0.000000000000000000, 1.000000000000000000 ) ) ;
#379 = EDGE_CURVE ( 'NONE', #204, #275, #858, .T. ) ;
#380 = DIRECTION ( 'NONE',  ( -0.000000000000000000, -1.000000000000000000, -0.000000000000000000 ) ) ;
#381 = VERTEX_POINT ( 'NONE', #729 ) ;
#382 = CARTESIAN_POINT ( 'NONE',  ( -1000.000000000000000, 0.000000000000000000, -23.99999999999999645 ) ) ;
#383 = EDGE_CURVE ( 'NONE', #1188, #113, #71, .T. ) ;
#384 = DIRECTION ( 'NONE',  ( -1.000000000000000000, -0.000000000000000000, 1.836970198721028948E-16 ) ) ;
#385 = AXIS2_PLACEMENT_3D ( 'NONE', #182, #740, #378 ) ;
#386 = AXIS2_PLACEMENT_3D ( 'NONE', #686, #139, #981 ) ;
#387 = AXIS2_PLACEMENT_3D ( 'NONE', #76, #429, #1080 ) ;
#388 = ORIENTED_EDGE ( 'NONE', *, *, #484, .T. ) ;
#389 = PLANE ( 'NONE',  #180 ) ;
#390 = CIRCLE ( 'NONE', #935, 25.53892417275088889 ) ;
#391 = ADVANCED_FACE ( 'NONE', ( #1052 ), #134, .F. ) ;
#392 = FACE_OUTER_BOUND ( 'NONE', #831, .T. ) ;
#393 = ORIENTED_EDGE ( 'NONE', *, *, #709, .T. ) ;
#394 = CARTESIAN_POINT ( 'NONE',  ( 974.0000000000000000, 27.25000000000000000, 2.249999999999827249 ) ) ;
#395 = CARTESIAN_POINT ( 'NONE',  ( 929.3102796124093175, 0.000000000000000000, -25.50000000000035172 ) ) ;
#396 = CARTESIAN_POINT ( 'NONE',  ( 974.0000000000000000, -27.15695122800054051, -2.250000000000172307 ) ) ;
#397 = ORIENTED_EDGE ( 'NONE', *, *, #1018, .T. ) ;
#398 = DIRECTION ( 'NONE',  ( 0.000000000000000000, 0.000000000000000000, 1.000000000000000000 ) ) ;
#399 = CARTESIAN_POINT ( 'NONE',  ( 1000.000000000000000, 0.000000000000000000, -1.836970198721029747E-13 ) ) ;
#400 = ORIENTED_EDGE ( 'NONE', *, *, #196, .F. ) ;
#401 = CIRCLE ( 'NONE', #811, 27.25000000000000000 ) ;
#402 = ADVANCED_FACE ( 'NONE', ( #1044 ), #715, .T. ) ;
#403 = VERTEX_POINT ( 'NONE', #976 ) ;
#404 = DIRECTION ( 'NONE',  ( 0.9396926207859114255, 0.000000000000000000, -0.3420201433256601642 ) ) ;
#405 = CIRCLE ( 'NONE', #202, 25.80153689607043788 ) ;
#406 = CARTESIAN_POINT ( 'NONE',  ( 1000.000000000000000, 2.250000000000000000, -27.25000000000018474 ) ) ;
#407 = VERTEX_POINT ( 'NONE', #321 ) ;
#408 = SECURITY_CLASSIFICATION_LEVEL ( 'unclassified' ) ;
#409 = VERTEX_POINT ( 'NONE', #583 ) ;
#410 = CARTESIAN_POINT ( 'NONE',  ( 974.0000000000000000, 0.000000000000000000, -1.789208973554282786E-13 ) ) ;
#411 = DIRECTION ( 'NONE',  ( 0.000000000000000000, -1.000000000000000000, 0.000000000000000000 ) ) ;
#412 = EDGE_CURVE ( 'NONE', #965, #1021, #588, .T. ) ;
#413 = CARTESIAN_POINT ( 'NONE',  ( -1000.000000000000000, 0.000000000000000000, 0.000000000000000000 ) ) ;
#414 = VERTEX_POINT ( 'NONE', #962 ) ;
#415 = DIRECTION ( 'NONE',  ( 1.836970198721029934E-16, -0.000000000000000000, 1.000000000000000000 ) ) ;
#416 = PLANE ( 'NONE',  #557 ) ;
#417 = EDGE_CURVE ( 'NONE', #113, #565, #785, .T. ) ;
#418 = DIRECTION ( 'NONE',  ( 1.000000000000000000, 0.000000000000000000, -1.836970198721029688E-16 ) ) ;
#419 = EDGE_LOOP ( 'NONE', ( #212, #361, #278, #67 ) ) ;
#420 = DIRECTION ( 'NONE',  ( 0.000000000000000000, 0.000000000000000000, -1.000000000000000000 ) ) ;
#421 = VECTOR ( 'NONE', #726, 1000.000000000000000 ) ;
#422 = DIRECTION ( 'NONE',  ( -1.000000000000000000, 0.000000000000000000, 1.836970198721029688E-16 ) ) ;
#423 = CIRCLE ( 'NONE', #678, 25.75000000000000000 ) ;
#424 = ADVANCED_FACE ( 'NONE', ( #683 ), #416, .T. ) ;
#425 = AXIS2_PLACEMENT_3D ( 'NONE', #410, #1142, #124 ) ;
#426 = DIRECTION ( 'NONE',  ( 0.000000000000000000, -0.000000000000000000, 1.000000000000000000 ) ) ;
#427 = VERTEX_POINT ( 'NONE', #395 ) ;
#428 = CARTESIAN_POINT ( 'NONE',  ( 935.8816349035402027, 0.000000000000000000, -2.637671772208633507E-13 ) ) ;
#429 = DIRECTION ( 'NONE',  ( 1.000000000000000000, 0.000000000000000000, -1.836970198721028208E-16 ) ) ;
#430 = LINE ( 'NONE', #1077, #290 ) ;
#431 = EDGE_CURVE ( 'NONE', #469, #450, #52, .T. ) ;
#432 = ORIENTED_EDGE ( 'NONE', *, *, #1093, .T. ) ;
#433 = FACE_OUTER_BOUND ( 'NONE', #517, .T. ) ;
#434 = CARTESIAN_POINT ( 'NONE',  ( 974.0000000000000000, 0.000000000000000000, -1.789208973554282786E-13 ) ) ;
#435 = LINE ( 'NONE', #688, #164 ) ;
#436 = VERTEX_POINT ( 'NONE', #609 ) ;
#437 = DIRECTION ( 'NONE',  ( 0.000000000000000000, 0.000000000000000000, 1.000000000000000000 ) ) ;
#438 = EDGE_CURVE ( 'NONE', #119, #1111, #515, .T. ) ;
#439 = DIRECTION ( 'NONE',  ( 1.000000000000000000, 0.000000000000000000, -1.836970198721029688E-16 ) ) ;
#440 = TOROIDAL_SURFACE ( 'NONE', #368, 30.50000000000000000, 6.500000000000000888 ) ;
#441 = AXIS2_PLACEMENT_3D ( 'NONE', #144, #235, #1071 ) ;
#442 = VECTOR ( 'NONE', #664, 1000.000000000000000 ) ;
#443 = DIRECTION ( 'NONE',  ( 1.836970198721029688E-16, 0.000000000000000000, 1.000000000000000000 ) ) ;
#444 = ORIENTED_EDGE ( 'NONE', *, *, #313, .F. ) ;
#445 = DIRECTION ( 'NONE',  ( 1.000000000000000000, 0.000000000000000000, -1.836970198721029688E-16 ) ) ;
#446 = EDGE_CURVE ( 'NONE', #92, #630, #910, .T. ) ;
#447 = CARTESIAN_POINT ( 'NONE',  ( 931.5334105440261965, 0.000000000000000000, -3.548169313003367901E-13 ) ) ;
#448 = EDGE_CURVE ( 'NONE', #630, #469, #540, .T. ) ;
#449 = LINE ( 'NONE', #1039, #755 ) ;
#450 = VERTEX_POINT ( 'NONE', #877 ) ;
#451 = DIRECTION ( 'NONE',  ( 0.000000000000000000, 0.000000000000000000, 1.000000000000000000 ) ) ;
#452 = VERTEX_POINT ( 'NONE', #65 ) ;
#453 = CARTESIAN_POINT ( 'NONE',  ( 1000.000000000000000, 0.000000000000000000, -1.836970198721029747E-13 ) ) ;
#454 = ADVANCED_FACE ( 'NONE', ( #225 ), #497, .F. ) ;
#455 = CARTESIAN_POINT ( 'NONE',  ( 1000.000000000000000, -27.15695122800054406, -2.250000000000177192 ) ) ;
#456 = ORIENTED_EDGE ( 'NONE', *, *, #622, .F. ) ;
#457 = CARTESIAN_POINT ( 'NONE',  ( 1000.000000000000000, 25.65151067676131547, 2.249999999999822364 ) ) ;
#458 = ORIENTED_EDGE ( 'NONE', *, *, #1008, .T. ) ;
#459 = LINE ( 'NONE', #20, #1146 ) ;
#460 = CIRCLE ( 'NONE', #350, 27.25000000000000000 ) ;
#461 = DIRECTION ( 'NONE',  ( -0.000000000000000000, -1.000000000000000000, -0.000000000000000000 ) ) ;
#462 = AXIS2_PLACEMENT_3D ( 'NONE', #394, #415, #783 ) ;
#463 = VECTOR ( 'NONE', #748, 1000.000000000000000 ) ;
#464 = ORIENTED_EDGE ( 'NONE', *, *, #371, .T. ) ;
#465 = CIRCLE ( 'NONE', #913, 5.000000000000000888 ) ;
#466 = CARTESIAN_POINT ( 'NONE',  ( 934.6845644019003885, 3.127616174182634026E-15, 25.53892417275053361 ) ) ;
#467 = VERTEX_POINT ( 'NONE', #506 ) ;
#468 = EDGE_CURVE ( 'NONE', #996, #915, #870, .T. ) ;
#469 = VERTEX_POINT ( 'NONE', #1057 ) ;
#470 = DIRECTION ( 'NONE',  ( 1.000000000000000000, 0.000000000000000000, -1.836970198721029688E-16 ) ) ;
#471 = ORIENTED_EDGE ( 'NONE', *, *, #606, .T. ) ;
#472 = FACE_OUTER_BOUND ( 'NONE', #751, .T. ) ;
#473 = ORIENTED_EDGE ( 'NONE', *, *, #606, .F. ) ;
#474 = CARTESIAN_POINT ( 'NONE',  ( 974.0000000000000000, -25.65151067676131547, 2.249999999999827249 ) ) ;
#475 = ADVANCED_FACE ( 'NONE', ( #230 ), #491, .F. ) ;
#476 = DESIGN_CONTEXT ( 'detailed design', #787, 'design' ) ;
#477 = CIRCLE ( 'NONE', #10, 25.75000000000000000 ) ;
#478 = CARTESIAN_POINT ( 'NONE',  ( 929.3102796124093175, 0.000000000000000000, -3.544085487734132521E-13 ) ) ;
#479 = DATE_AND_TIME ( #1041, #658 ) ;
#480 = CIRCLE ( 'NONE', #912, 27.25000000000000000 ) ;
#481 = ORIENTED_EDGE ( 'NONE', *, *, #59, .T. ) ;
#482 = CARTESIAN_POINT ( 'NONE',  ( 935.8816349035402027, 2.724839128102871640E-15, -22.25000000000035172 ) ) ;
#483 = AXIS2_PLACEMENT_3D ( 'NONE', #627, #339, #997 ) ;
#484 = EDGE_CURVE ( 'NONE', #409, #1001, #480, .T. ) ;
#485 = DIRECTION ( 'NONE',  ( 0.000000000000000000, 0.000000000000000000, 1.000000000000000000 ) ) ;
#486 = EDGE_CURVE ( 'NONE', #436, #1054, #1063, .T. ) ;
#487 = ORIENTED_EDGE ( 'NONE', *, *, #328, .F. ) ;
#488 = DATE_AND_TIME ( #1036, #51 ) ;
#489 = ORIENTED_EDGE ( 'NONE', *, *, #248, .F. ) ;
#490 = DIRECTION ( 'NONE',  ( -1.836970198721029688E-16, 0.000000000000000000, -1.000000000000000000 ) ) ;
#491 = PLANE ( 'NONE',  #1084 ) ;
#492 = ADVANCED_FACE ( 'NONE', ( #315 ), #91, .F. ) ;
#493 = CYLINDRICAL_SURFACE ( 'NONE', #308, 25.75000000000000000 ) ;
#494 = DATE_AND_TIME ( #317, #773 ) ;
#495 = ORIENTED_EDGE ( 'NONE', *, *, #1081, .F. ) ;
#496 = DIRECTION ( 'NONE',  ( 2.249639673992785317E-32, 1.000000000000000000, 1.224646799147353207E-16 ) ) ;
#497 = CYLINDRICAL_SURFACE ( 'NONE', #372, 23.99999999999999645 ) ;
#498 = ORIENTED_EDGE ( 'NONE', *, *, #211, .F. ) ;
#499 = PERSON_AND_ORGANIZATION ( #87, #1065 ) ;
#500 = VECTOR ( 'NONE', #166, 1000.000000000000000 ) ;
#501 = AXIS2_PLACEMENT_3D ( 'NONE', #206, #198, #102 ) ;
#502 = ORIENTED_EDGE ( 'NONE', *, *, #337, .F. ) ;
#503 = CARTESIAN_POINT ( 'NONE',  ( 935.0000000000000000, 0.000000000000000000, -1.717567135804162851E-13 ) ) ;
#504 = VECTOR ( 'NONE', #28, 1000.000000000000000 ) ;
#505 = VECTOR ( 'NONE', #1075, 1000.000000000000000 ) ;
#506 = CARTESIAN_POINT ( 'NONE',  ( 974.0000000000000000, 27.15695122800053696, 2.249999999999827249 ) ) ;
#507 = CYLINDRICAL_SURFACE ( 'NONE', #656, 23.99999999999999645 ) ;
#508 = ORIENTED_EDGE ( 'NONE', *, *, #784, .T. ) ;
#509 = LINE ( 'NONE', #572, #32 ) ;
#510 = EDGE_CURVE ( 'NONE', #1016, #983, #86, .T. ) ;
#511 = DIRECTION ( 'NONE',  ( -0.000000000000000000, 1.000000000000000000, 0.000000000000000000 ) ) ;
#512 = DIRECTION ( 'NONE',  ( 1.000000000000000000, 0.000000000000000000, -1.836970198721029688E-16 ) ) ;
#513 = ORIENTED_EDGE ( 'NONE', *, *, #573, .F. ) ;
#514 = DIRECTION ( 'NONE',  ( 2.249639673992785317E-32, 1.000000000000000000, 1.224646799147353207E-16 ) ) ;
#515 = LINE ( 'NONE', #881, #969 ) ;
#516 = CARTESIAN_POINT ( 'NONE',  ( 1000.000000000000000, -2.250000000000000000, -27.15695122800072525 ) ) ;
#517 = EDGE_LOOP ( 'NONE', ( #720, #1133, #1014, #359 ) ) ;
#518 = CARTESIAN_POINT ( 'NONE',  ( 974.0000000000000000, -27.15695122800053696, 2.249999999999827249 ) ) ;
#519 = PRODUCT_DEFINITION_FORMATION_WITH_SPECIFIED_SOURCE ( 'ANY', '', #257, .NOT_KNOWN. ) ;
#520 = AXIS2_PLACEMENT_3D ( 'NONE', #525, #1082, #804 ) ;
#521 = DIRECTION ( 'NONE',  ( 1.000000000000000000, 0.000000000000000000, -1.836970198721029688E-16 ) ) ;
#522 = CIRCLE ( 'NONE', #146, 25.50000000000000000 ) ;
#523 = CIRCLE ( 'NONE', #934, 25.75000000000000000 ) ;
#524 = EDGE_CURVE ( 'NONE', #414, #409, #94, .T. ) ;
#525 = CARTESIAN_POINT ( 'NONE',  ( 931.5334105440261965, 0.000000000000000000, -3.548169313003367901E-13 ) ) ;
#526 = EDGE_LOOP ( 'NONE', ( #190, #1171, #471, #223 ) ) ;
#527 = DIRECTION ( 'NONE',  ( 0.000000000000000000, -1.224646799147353454E-16, 1.000000000000000000 ) ) ;
#528 = PLANE ( 'NONE',  #852 ) ;
#529 = CARTESIAN_POINT ( 'NONE',  ( 974.0000000000000000, 27.25000000000000000, -2.250000000000172307 ) ) ;
#530 = ADVANCED_FACE ( 'NONE', ( #818 ), #271, .T. ) ;
#531 = EDGE_LOOP ( 'NONE', ( #955, #607, #251, #498 ) ) ;
#532 = DIRECTION ( 'NONE',  ( -0.000000000000000000, -1.000000000000000000, -0.000000000000000000 ) ) ;
#533 = DIRECTION ( 'NONE',  ( 1.000000000000000000, 0.000000000000000000, -1.836970198721029688E-16 ) ) ;
#534 = DIRECTION ( 'NONE',  ( 0.000000000000000000, 0.000000000000000000, -1.000000000000000000 ) ) ;
#535 = CC_DESIGN_PERSON_AND_ORGANIZATION_ASSIGNMENT ( #141, #570, ( #825 ) ) ;
#536 = VERTEX_POINT ( 'NONE', #614 ) ;
#537 = EDGE_CURVE ( 'NONE', #1021, #794, #1145, .T. ) ;
#538 = DIRECTION ( 'NONE',  ( 0.000000000000000000, 0.000000000000000000, -1.000000000000000000 ) ) ;
#539 = AXIS2_PLACEMENT_3D ( 'NONE', #478, #384, #135 ) ;
#540 = CIRCLE ( 'NONE', #29, 5.000000000000000888 ) ;
#541 = CIRCLE ( 'NONE', #835, 25.50000000000000000 ) ;
#542 = DIRECTION ( 'NONE',  ( 1.836970198721029688E-16, 0.000000000000000000, 1.000000000000000000 ) ) ;
#543 = ORIENTED_EDGE ( 'NONE', *, *, #446, .T. ) ;
#544 = ORIENTED_EDGE ( 'NONE', *, *, #484, .F. ) ;
#545 = CARTESIAN_POINT ( 'NONE',  ( 974.0000000000000000, 0.000000000000000000, -1.789208973554282786E-13 ) ) ;
#546 = EDGE_CURVE ( 'NONE', #1141, #270, #147, .T. ) ;
#547 = DIRECTION ( 'NONE',  ( -1.000000000000000000, -0.000000000000000000, 1.836970198721029688E-16 ) ) ;
#548 = EDGE_LOOP ( 'NONE', ( #432, #97, #487, #1030 ) ) ;
#549 = CARTESIAN_POINT ( 'NONE',  ( 1000.000000000000000, -25.65151067676131547, 2.249999999999822364 ) ) ;
#550 = VERTEX_POINT ( 'NONE', #362 ) ;
#551 = DIRECTION ( 'NONE',  ( 1.836970198721028948E-16, 0.000000000000000000, 1.000000000000000000 ) ) ;
#552 = FACE_OUTER_BOUND ( 'NONE', #810, .T. ) ;
#553 = ORIENTED_EDGE ( 'NONE', *, *, #827, .T. ) ;
#554 = DIRECTION ( 'NONE',  ( 0.000000000000000000, 0.000000000000000000, 1.000000000000000000 ) ) ;
#555 = ORIENTED_EDGE ( 'NONE', *, *, #468, .F. ) ;
#556 = LINE ( 'NONE', #103, #463 ) ;
#557 = AXIS2_PLACEMENT_3D ( 'NONE', #220, #511, #700 ) ;
#558 = ADVANCED_FACE ( 'NONE', ( #728 ), #186, .F. ) ;
#559 = AXIS2_PLACEMENT_3D ( 'NONE', #1191, #348, #716 ) ;
#560 = AXIS2_PLACEMENT_3D ( 'NONE', #863, #947, #398 ) ;
#561 = ORIENTED_EDGE ( 'NONE', *, *, #241, .T. ) ;
#562 = CARTESIAN_POINT ( 'NONE',  ( 974.0000000000000000, 0.000000000000000000, -1.789208973554282786E-13 ) ) ;
#563 = DIRECTION ( 'NONE',  ( -0.000000000000000000, -1.000000000000000000, -0.000000000000000000 ) ) ;
#564 = EDGE_CURVE ( 'NONE', #427, #1021, #971, .T. ) ;
#565 = VERTEX_POINT ( 'NONE', #1092 ) ;
#566 = FACE_OUTER_BOUND ( 'NONE', #1116, .T. ) ;
#567 = ORIENTED_EDGE ( 'NONE', *, *, #963, .F. ) ;
#568 = CARTESIAN_POINT ( 'NONE',  ( 974.0000000000000000, 0.000000000000000000, -1.789208973554282786E-13 ) ) ;
#569 = DIRECTION ( 'NONE',  ( 0.000000000000000000, 0.000000000000000000, 1.000000000000000000 ) ) ;
#570 = PERSON_AND_ORGANIZATION_ROLE ( 'creator' ) ;
#571 = ORIENTED_EDGE ( 'NONE', *, *, #573, .T. ) ;
#572 = CARTESIAN_POINT ( 'NONE',  ( 930.1919145159515665, 3.122849337825749828E-15, 25.49999999999964473 ) ) ;
#573 = EDGE_CURVE ( 'NONE', #847, #436, #523, .T. ) ;
#574 = DIRECTION ( 'NONE',  ( 0.000000000000000000, 0.000000000000000000, -1.000000000000000000 ) ) ;
#575 = CIRCLE ( 'NONE', #26, 25.75000000000000000 ) ;
#576 = ORIENTED_EDGE ( 'NONE', *, *, #819, .T. ) ;
#577 = PERSON_AND_ORGANIZATION ( #87, #1065 ) ;
#578 = AXIS2_PLACEMENT_3D ( 'NONE', #594, #253, #993 ) ;
#579 = VERTEX_POINT ( 'NONE', #265 ) ;
#580 = CARTESIAN_POINT ( 'NONE',  ( 1000.000000000000000, 0.000000000000000000, -3.673940397442059493E-13 ) ) ;
#581 = CIRCLE ( 'NONE', #16, 3.499999999999999556 ) ;
#582 = EDGE_CURVE ( 'NONE', #436, #847, #894, .T. ) ;
#583 = CARTESIAN_POINT ( 'NONE',  ( 1000.000000000000000, 2.250000000000000000, -27.15695122800072525 ) ) ;
#584 = EDGE_LOOP ( 'NONE', ( #1042, #508, #865, #444 ) ) ;
#585 = PERSON_AND_ORGANIZATION_ROLE ( 'classification_officer' ) ;
#586 = EDGE_LOOP ( 'NONE', ( #941, #36, #132, #1130 ) ) ;
#587 = DIRECTION ( 'NONE',  ( 1.836970198721028948E-16, 0.000000000000000000, 1.000000000000000000 ) ) ;
#588 = LINE ( 'NONE', #1137, #933 ) ;
#589 = PRODUCT_RELATED_PRODUCT_CATEGORY ( 'detail', '', ( #257 ) ) ;
#590 = ORIENTED_EDGE ( 'NONE', *, *, #687, .F. ) ;
#591 = SHAPE_DEFINITION_REPRESENTATION ( #23, #652 ) ;
#592 = ORIENTED_EDGE ( 'NONE', *, *, #183, .T. ) ;
#593 = FACE_OUTER_BOUND ( 'NONE', #1037, .T. ) ;
#594 = CARTESIAN_POINT ( 'NONE',  ( 930.7049447309401558, 0.000000000000000000, -3.546647445994069893E-13 ) ) ;
#595 = CARTESIAN_POINT ( 'NONE',  ( 974.0000000000000000, 27.25000000000000000, 2.249999999999827249 ) ) ;
#596 = ADVANCED_FACE ( 'NONE', ( #356 ), #528, .T. ) ;
#597 = DATE_TIME_ROLE ( 'creation_date' ) ;
#598 =( GEOMETRIC_REPRESENTATION_CONTEXT ( 3 ) GLOBAL_UNCERTAINTY_ASSIGNED_CONTEXT ( ( #943 ) ) GLOBAL_UNIT_ASSIGNED_CONTEXT ( ( #937, #276, #1097 ) ) REPRESENTATION_CONTEXT ( 'NONE', 'WORKASPACE' ) );
#599 = VECTOR ( 'NONE', #920, 1000.000000000000000 ) ;
#600 = EDGE_LOOP ( 'NONE', ( #1120, #291, #617, #101 ) ) ;
#601 = DIRECTION ( 'NONE',  ( 0.000000000000000000, -1.224646799147353454E-16, 1.000000000000000000 ) ) ;
#602 = CIRCLE ( 'NONE', #698, 25.75000000000000000 ) ;
#603 = CIRCLE ( 'NONE', #238, 5.000000000000000888 ) ;
#604 = DIRECTION ( 'NONE',  ( 1.000000000000000000, 0.000000000000000000, -1.836970198721028208E-16 ) ) ;
#605 = DIRECTION ( 'NONE',  ( 1.000000000000000000, 0.000000000000000000, -1.836970198721029688E-16 ) ) ;
#606 = EDGE_CURVE ( 'NONE', #270, #862, #274, .T. ) ;
#607 = ORIENTED_EDGE ( 'NONE', *, *, #313, .T. ) ;
#608 = CARTESIAN_POINT ( 'NONE',  ( -1000.000000000000000, 3.122849337825771916E-15, 25.50000000000000000 ) ) ;
#609 = CARTESIAN_POINT ( 'NONE',  ( 935.8816349035402027, 3.153465507804435193E-15, 25.74999999999982947 ) ) ;
#610 = DIRECTION ( 'NONE',  ( 1.000000000000000000, 0.000000000000000000, -1.836970198721029934E-16 ) ) ;
#611 = ORIENTED_EDGE ( 'NONE', *, *, #1081, .T. ) ;
#612 = DIRECTION ( 'NONE',  ( 0.9396926207859115365, 4.188538737676883913E-17, 0.3420201433256598311 ) ) ;
#613 = ADVANCED_FACE ( 'NONE', ( #895 ), #1047, .T. ) ;
#614 = CARTESIAN_POINT ( 'NONE',  ( 974.0000000000000000, 25.65151067676131547, 2.249999999999827249 ) ) ;
#615 = EDGE_CURVE ( 'NONE', #1061, #965, #638, .T. ) ;
#616 = LINE ( 'NONE', #987, #500 ) ;
#617 = ORIENTED_EDGE ( 'NONE', *, *, #448, .T. ) ;
#618 = CARTESIAN_POINT ( 'NONE',  ( 935.8816349035402027, 0.000000000000000000, -2.637671772208633507E-13 ) ) ;
#619 = CIRCLE ( 'NONE', #1045, 27.25000000000000000 ) ;
#620 = CARTESIAN_POINT ( 'NONE',  ( 974.0000000000000000, 27.25000000000000000, -2.250000000000172307 ) ) ;
#621 = AXIS2_PLACEMENT_3D ( 'NONE', #340, #803, #986 ) ;
#622 = EDGE_CURVE ( 'NONE', #407, #119, #1185, .T. ) ;
#623 = TOROIDAL_SURFACE ( 'NONE', #297, 22.25000000000008882, 3.500000000000000000 ) ;
#624 = AXIS2_PLACEMENT_3D ( 'NONE', #428, #713, #80 ) ;
#625 = DIRECTION ( 'NONE',  ( 1.000000000000000000, 0.000000000000000000, -1.836970198721029688E-16 ) ) ;
#626 = ORIENTED_EDGE ( 'NONE', *, *, #446, .F. ) ;
#627 = CARTESIAN_POINT ( 'NONE',  ( 934.1715341869119129, 0.000000000000000000, -2.634530368155376182E-13 ) ) ;
#628 = DIRECTION ( 'NONE',  ( 1.000000000000000000, 0.000000000000000000, -1.836970198721029688E-16 ) ) ;
#629 = PLANE ( 'NONE',  #310 ) ;
#630 = VERTEX_POINT ( 'NONE', #911 ) ;
#631 = LINE ( 'NONE', #1002, #1026 ) ;
#632 = DIRECTION ( 'NONE',  ( 0.000000000000000000, -1.000000000000000000, 0.000000000000000000 ) ) ;
#633 = DIRECTION ( 'NONE',  ( 1.836970198721029688E-16, 0.000000000000000000, 1.000000000000000000 ) ) ;
#634 = ADVANCED_FACE ( 'NONE', ( #808 ), #1126, .F. ) ;
#635 = EDGE_LOOP ( 'NONE', ( #18, #1032, #246, #13 ) ) ;
#636 = CARTESIAN_POINT ( 'NONE',  ( 930.7049447309401558, 0.000000000000000000, -24.09046106882148308 ) ) ;
#637 = DIRECTION ( 'NONE',  ( 0.000000000000000000, 0.000000000000000000, -1.000000000000000000 ) ) ;
#638 = CIRCLE ( 'NONE', #756, 25.50000000000000000 ) ;
#639 = LINE ( 'NONE', #100, #12 ) ;
#640 = CIRCLE ( 'NONE', #757, 23.99999999999999645 ) ;
#641 = ORIENTED_EDGE ( 'NONE', *, *, #120, .F. ) ;
#642 = APPLICATION_PROTOCOL_DEFINITION ( 'international standard', 'config_control_design', 1994, #665 ) ;
#643 = ADVANCED_FACE ( 'NONE', ( #1087 ), #260, .T. ) ;
#644 = DIRECTION ( 'NONE',  ( -1.000000000000000000, -0.000000000000000000, 1.836970198721028948E-16 ) ) ;
#645 = CARTESIAN_POINT ( 'NONE',  ( 935.0000000000000000, 2.249999999999999112, 25.65151067676114138 ) ) ;
#646 = EDGE_LOOP ( 'NONE', ( #944, #1010, #1148, #946 ) ) ;
#647 = CARTESIAN_POINT ( 'NONE',  ( 929.3102796124093175, 0.000000000000000000, -24.00000000000035172 ) ) ;
#648 = ORIENTED_EDGE ( 'NONE', *, *, #925, .F. ) ;
#649 = DIRECTION ( 'NONE',  ( 1.000000000000000000, 0.000000000000000000, -1.836970198721029688E-16 ) ) ;
#650 = ADVANCED_FACE ( 'NONE', ( #931 ), #283, .F. ) ;
#651 = CARTESIAN_POINT ( 'NONE',  ( 935.8816349035402027, 0.000000000000000000, 22.24999999999982592 ) ) ;
#652 = ADVANCED_BREP_SHAPE_REPRESENTATION ( '79-8416 - 51mm x 2000mm', ( #1053, #236 ), #598 ) ;
#653 = ORIENTED_EDGE ( 'NONE', *, *, #973, .F. ) ;
#654 = ORIENTED_EDGE ( 'NONE', *, *, #702, .F. ) ;
#655 = DIRECTION ( 'NONE',  ( 0.000000000000000000, 0.000000000000000000, -1.000000000000000000 ) ) ;
#656 = AXIS2_PLACEMENT_3D ( 'NONE', #413, #418, #149 ) ;
#657 = EDGE_CURVE ( 'NONE', #965, #1061, #541, .T. ) ;
#658 = LOCAL_TIME ( 0, 3, 27.00000000000000000, #873 ) ;
#659 = CIRCLE ( 'NONE', #370, 3.499999999999999556 ) ;
#660 = AXIS2_PLACEMENT_3D ( 'NONE', #447, #705, #538 ) ;
#661 = VECTOR ( 'NONE', #85, 1000.000000000000000 ) ;
#662 = ORIENTED_EDGE ( 'NONE', *, *, #673, .F. ) ;
#663 = CARTESIAN_POINT ( 'NONE',  ( 1000.000000000000000, 2.250000000000000000, -27.25000000000018474 ) ) ;
#664 = DIRECTION ( 'NONE',  ( 1.000000000000000000, 0.000000000000000000, -1.836970198721029688E-16 ) ) ;
#665 = APPLICATION_CONTEXT ( 'configuration controlled 3d designs of mechanical parts and assemblies' ) ;
#666 = EDGE_CURVE ( 'NONE', #381, #286, #832, .T. ) ;
#667 = CARTESIAN_POINT ( 'NONE',  ( 935.0000000000000000, 3.337162527676537520E-15, 27.24999999999982592 ) ) ;
#668 = ADVANCED_FACE ( 'NONE', ( #1022 ), #872, .F. ) ;
#669 = EDGE_LOOP ( 'NONE', ( #1056, #1090, #84, #197 ) ) ;
#670 = DIRECTION ( 'NONE',  ( 1.000000000000000000, -0.000000000000000000, -1.836970198721029688E-16 ) ) ;
#671 = CARTESIAN_POINT ( 'NONE',  ( 974.0000000000000000, 0.000000000000000000, -1.789208973554282786E-13 ) ) ;
#672 = PERSON_AND_ORGANIZATION ( #87, #1065 ) ;
#673 = EDGE_CURVE ( 'NONE', #915, #48, #1025, .T. ) ;
#674 = VERTEX_POINT ( 'NONE', #466 ) ;
#675 = CARTESIAN_POINT ( 'NONE',  ( 930.1919145159515665, 0.000000000000000000, -3.545705024778092847E-13 ) ) ;
#676 = AXIS2_PLACEMENT_3D ( 'NONE', #336, #341, #888 ) ;
#677 = VERTEX_POINT ( 'NONE', #924 ) ;
#678 = AXIS2_PLACEMENT_3D ( 'NONE', #942, #1114, #752 ) ;
#679 = EDGE_LOOP ( 'NONE', ( #960, #750, #1182, #456 ) ) ;
#680 = PLANE ( 'NONE',  #1109 ) ;
#681 = APPROVAL ( #323, 'UNSPECIFIED' ) ;
#682 = AXIS2_PLACEMENT_3D ( 'NONE', #503, #58, #304 ) ;
#683 = FACE_OUTER_BOUND ( 'NONE', #679, .T. ) ;
#684 = ORIENTED_EDGE ( 'NONE', *, *, #784, .F. ) ;
#685 = LINE ( 'NONE', #133, #837 ) ;
#686 = CARTESIAN_POINT ( 'NONE',  ( 935.8816349035402027, 0.000000000000000000, -1.719186672848118129E-13 ) ) ;
#687 = EDGE_CURVE ( 'NONE', #579, #467, #31, .T. ) ;
#688 = CARTESIAN_POINT ( 'NONE',  ( 935.0000000000000000, 25.65151067676131547, -2.250000000000164313 ) ) ;
#689 = ORIENTED_EDGE ( 'NONE', *, *, #163, .T. ) ;
#690 = DIRECTION ( 'NONE',  ( 0.000000000000000000, 0.000000000000000000, -1.000000000000000000 ) ) ;
#691 = DIRECTION ( 'NONE',  ( 0.000000000000000000, 0.000000000000000000, -1.000000000000000000 ) ) ;
#692 = ADVANCED_FACE ( 'NONE', ( #98 ), #389, .F. ) ;
#693 = CARTESIAN_POINT ( 'NONE',  ( 974.0000000000000000, 0.000000000000000000, -1.789208973554282786E-13 ) ) ;
#694 = CIRCLE ( 'NONE', #968, 23.99999999999999645 ) ;
#695 = AXIS2_PLACEMENT_3D ( 'NONE', #562, #1007, #1112 ) ;
#696 = VERTEX_POINT ( 'NONE', #474 ) ;
#697 = DIRECTION ( 'NONE',  ( 1.000000000000000000, 0.000000000000000000, -1.836970198721029688E-16 ) ) ;
#698 = AXIS2_PLACEMENT_3D ( 'NONE', #375, #670, #367 ) ;
#699 = AXIS2_PLACEMENT_3D ( 'NONE', #169, #252, #420 ) ;
#700 = DIRECTION ( 'NONE',  ( 0.000000000000000000, -0.000000000000000000, 1.000000000000000000 ) ) ;
#701 = DIRECTION ( 'NONE',  ( -1.000000000000000000, -0.000000000000000000, 1.836970198721028948E-16 ) ) ;
#702 = EDGE_CURVE ( 'NONE', #1102, #1016, #195, .T. ) ;
#703 = ORIENTED_EDGE ( 'NONE', *, *, #1073, .F. ) ;
#704 = LINE ( 'NONE', #355, #952 ) ;
#705 = DIRECTION ( 'NONE',  ( 1.000000000000000000, 0.000000000000000000, -1.836970198721028208E-16 ) ) ;
#706 = DIRECTION ( 'NONE',  ( 1.000000000000000000, -0.000000000000000000, -1.836970198721029688E-16 ) ) ;
#707 = ORIENTED_EDGE ( 'NONE', *, *, #1140, .F. ) ;
#708 = DIRECTION ( 'NONE',  ( 1.836970198721028948E-16, 0.000000000000000000, 1.000000000000000000 ) ) ;
#709 = EDGE_CURVE ( 'NONE', #1054, #142, #602, .T. ) ;
#710 = DIRECTION ( 'NONE',  ( -1.000000000000000000, -0.000000000000000000, 1.836970198721029688E-16 ) ) ;
#711 = DIRECTION ( 'NONE',  ( -0.000000000000000000, 1.000000000000000000, 0.000000000000000000 ) ) ;
#712 = ORIENTED_EDGE ( 'NONE', *, *, #901, .T. ) ;
#713 = DIRECTION ( 'NONE',  ( -1.000000000000000000, -0.000000000000000000, 1.836970198721028948E-16 ) ) ;
#714 = LOCAL_TIME ( 0, 3, 27.00000000000000000, #307 ) ;
#715 = CONICAL_SURFACE ( 'NONE', #735, 25.50000000000000000, 0.3490658503988566252 ) ;
#716 = DIRECTION ( 'NONE',  ( 0.000000000000000000, 0.000000000000000000, -1.000000000000000000 ) ) ;
#717 = VECTOR ( 'NONE', #81, 1000.000000000000000 ) ;
#718 = CIRCLE ( 'NONE', #425, 25.75000000000000000 ) ;
#719 = CARTESIAN_POINT ( 'NONE',  ( 974.0000000000000000, 27.25000000000000000, 2.249999999999827249 ) ) ;
#720 = ORIENTED_EDGE ( 'NONE', *, *, #615, .T. ) ;
#721 = DIRECTION ( 'NONE',  ( 1.000000000000000000, 0.000000000000000000, -1.836970198721028948E-16 ) ) ;
#722 = CARTESIAN_POINT ( 'NONE',  ( 935.0000000000000000, 2.249999999999999112, -27.15695122800071104 ) ) ;
#723 = EDGE_CURVE ( 'NONE', #927, #565, #334, .T. ) ;
#724 = DIRECTION ( 'NONE',  ( 0.000000000000000000, -1.000000000000000000, 0.000000000000000000 ) ) ;
#725 = EDGE_LOOP ( 'NONE', ( #96, #712 ) ) ;
#726 = DIRECTION ( 'NONE',  ( 1.836970198721029688E-16, 0.000000000000000000, 1.000000000000000000 ) ) ;
#727 = EDGE_LOOP ( 'NONE', ( #338, #140, #1123, #3, #760, #641, #1190, #502, #107, #181, #856, #707 ) ) ;
#728 = FACE_OUTER_BOUND ( 'NONE', #531, .T. ) ;
#729 = CARTESIAN_POINT ( 'NONE',  ( -1000.000000000000000, 2.939152317953668799E-15, 23.99999999999999645 ) ) ;
#730 = EDGE_CURVE ( 'NONE', #123, #303, #314, .T. ) ;
#731 = ORIENTED_EDGE ( 'NONE', *, *, #723, .F. ) ;
#732 = ORIENTED_EDGE ( 'NONE', *, *, #819, .F. ) ;
#733 = DIRECTION ( 'NONE',  ( -1.000000000000000000, 0.000000000000000000, 1.836970198721029688E-16 ) ) ;
#734 = APPROVAL_PERSON_ORGANIZATION ( #867, #681, #47 ) ;
#735 = AXIS2_PLACEMENT_3D ( 'NONE', #675, #604, #50 ) ;
#736 = VECTOR ( 'NONE', #1152, 1000.000000000000000 ) ;
#737 = CARTESIAN_POINT ( 'NONE',  ( 1000.000000000000000, 0.000000000000000000, -1.836970198721029747E-13 ) ) ;
#738 = VECTOR ( 'NONE', #404, 1000.000000000000114 ) ;
#739 = ORIENTED_EDGE ( 'NONE', *, *, #33, .F. ) ;
#740 = DIRECTION ( 'NONE',  ( -1.000000000000000000, -0.000000000000000000, 1.836970198721028948E-16 ) ) ;
#741 = EDGE_CURVE ( 'NONE', #467, #927, #1038, .T. ) ;
#742 = VERTEX_POINT ( 'NONE', #841 ) ;
#743 = DIRECTION ( 'NONE',  ( 1.000000000000000000, -0.000000000000000000, -1.836970198721029688E-16 ) ) ;
#744 = CARTESIAN_POINT ( 'NONE',  ( 1000.000000000000000, 27.25000000000000000, -2.250000000000177192 ) ) ;
#745 = ORIENTED_EDGE ( 'NONE', *, *, #1067, .T. ) ;
#746 = CARTESIAN_POINT ( 'NONE',  ( 934.6845644019003885, 0.000000000000000000, -25.53892417275124060 ) ) ;
#747 = VERTEX_POINT ( 'NONE', #382 ) ;
#748 = DIRECTION ( 'NONE',  ( 1.000000000000000000, 0.000000000000000000, -1.836970198721029688E-16 ) ) ;
#749 = ADVANCED_FACE ( 'NONE', ( #824 ), #796, .T. ) ;
#750 = ORIENTED_EDGE ( 'NONE', *, *, #1177, .T. ) ;
#751 = EDGE_LOOP ( 'NONE', ( #388, #1078, #939, #921 ) ) ;
#752 = DIRECTION ( 'NONE',  ( 0.000000000000000000, 0.000000000000000000, -1.000000000000000000 ) ) ;
#753 = CC_DESIGN_PERSON_AND_ORGANIZATION_ASSIGNMENT ( #672, #1129, ( #257 ) ) ;
#754 = AXIS2_PLACEMENT_3D ( 'NONE', #780, #953, #854 ) ;
#755 = VECTOR ( 'NONE', #266, 1000.000000000000000 ) ;
#756 = AXIS2_PLACEMENT_3D ( 'NONE', #1173, #439, #814 ) ;
#757 = AXIS2_PLACEMENT_3D ( 'NONE', #1156, #229, #690 ) ;
#758 = ORIENTED_EDGE ( 'NONE', *, *, #431, .T. ) ;
#759 = DATE_AND_TIME ( #216, #714 ) ;
#760 = ORIENTED_EDGE ( 'NONE', *, *, #622, .T. ) ;
#761 = DIRECTION ( 'NONE',  ( 0.000000000000000000, 0.000000000000000000, -1.000000000000000000 ) ) ;
#762 = EDGE_CURVE ( 'NONE', #677, #57, #423, .T. ) ;
#763 = EDGE_LOOP ( 'NONE', ( #770, #168, #1070, #978 ) ) ;
#764 = VERTEX_POINT ( 'NONE', #6 ) ;
#765 = CARTESIAN_POINT ( 'NONE',  ( 931.0203803290377209, 0.000000000000000000, -25.80153689607078960 ) ) ;
#766 = CARTESIAN_POINT ( 'NONE',  ( -1000.000000000000000, 0.000000000000000000, 0.000000000000000000 ) ) ;
#767 = CC_DESIGN_PERSON_AND_ORGANIZATION_ASSIGNMENT ( #959, #1060, ( #519 ) ) ;
#768 = CARTESIAN_POINT ( 'NONE',  ( 974.0000000000000000, 0.000000000000000000, -1.789208973554282786E-13 ) ) ;
#769 = APPROVAL_DATE_TIME ( #35, #681 ) ;
#770 = ORIENTED_EDGE ( 'NONE', *, *, #510, .T. ) ;
#771 = LINE ( 'NONE', #1062, #738 ) ;
#772 = DIRECTION ( 'NONE',  ( 1.000000000000000000, 0.000000000000000000, -1.836970198721029688E-16 ) ) ;
#773 = LOCAL_TIME ( 0, 3, 27.00000000000000000, #1149 ) ;
#774 = ORIENTED_EDGE ( 'NONE', *, *, #357, .F. ) ;
#775 = VECTOR ( 'NONE', #178, 1000.000000000000000 ) ;
#776 = EDGE_LOOP ( 'NONE', ( #311, #662, #782, #1159 ) ) ;
#777 = CARTESIAN_POINT ( 'NONE',  ( 929.3102796124093175, 0.000000000000000000, 30.49999999999964473 ) ) ;
#778 = EDGE_CURVE ( 'NONE', #92, #930, #556, .T. ) ;
#779 = CARTESIAN_POINT ( 'NONE',  ( 935.0000000000000000, -25.65151067676131547, -2.250000000000164313 ) ) ;
#780 = CARTESIAN_POINT ( 'NONE',  ( 974.0000000000000000, 0.000000000000000000, -1.789208973554282786E-13 ) ) ;
#781 = PERSON_AND_ORGANIZATION_ROLE ( 'design_supplier' ) ;
#782 = ORIENTED_EDGE ( 'NONE', *, *, #866, .F. ) ;
#783 = DIRECTION ( 'NONE',  ( 1.000000000000000000, 0.000000000000000000, -1.836970198721029934E-16 ) ) ;
#784 = EDGE_CURVE ( 'NONE', #927, #1188, #459, .T. ) ;
#785 = LINE ( 'NONE', #406, #1083 ) ;
#786 = CARTESIAN_POINT ( 'NONE',  ( 935.8816349035402027, 0.000000000000000000, -27.25000000000017408 ) ) ;
#787 = APPLICATION_CONTEXT ( 'configuration controlled 3d designs of mechanical parts and assemblies' ) ;
#788 = ORIENTED_EDGE ( 'NONE', *, *, #666, .T. ) ;
#789 = DIRECTION ( 'NONE',  ( 2.249639673992785317E-32, 1.000000000000000000, 1.224646799147353207E-16 ) ) ;
#790 = DIRECTION ( 'NONE',  ( 0.000000000000000000, 0.000000000000000000, -1.000000000000000000 ) ) ;
#791 = ADVANCED_FACE ( 'NONE', ( #1118 ), #213, .F. ) ;
#792 = CARTESIAN_POINT ( 'NONE',  ( 974.0000000000000000, -2.250000000000000000, -25.65151067676149665 ) ) ;
#793 = TOROIDAL_SURFACE ( 'NONE', #539, 30.50000000000000000, 5.000000000000000000 ) ;
#794 = VERTEX_POINT ( 'NONE', #966 ) ;
#795 = CARTESIAN_POINT ( 'NONE',  ( 935.0000000000000000, 25.65151067676131191, 2.249999999999833911 ) ) ;
#796 = TOROIDAL_SURFACE ( 'NONE', #951, 30.50000000000000000, 6.500000000000000888 ) ;
#797 = CIRCLE ( 'NONE', #54, 27.25000000000000000 ) ;
#798 = CARTESIAN_POINT ( 'NONE',  ( 935.8816349035402027, 0.000000000000000000, -1.719186672848118129E-13 ) ) ;
#799 = FACE_OUTER_BOUND ( 'NONE', #669, .T. ) ;
#800 = ADVANCED_FACE ( 'NONE', ( #593 ), #680, .T. ) ;
#801 = ORIENTED_EDGE ( 'NONE', *, *, #537, .F. ) ;
#802 = LINE ( 'NONE', #885, #1029 ) ;
#803 = DIRECTION ( 'NONE',  ( 2.249639673992785317E-32, 1.000000000000000000, 1.224646799147353207E-16 ) ) ;
#804 = DIRECTION ( 'NONE',  ( 0.000000000000000000, 0.000000000000000000, -1.000000000000000000 ) ) ;
#805 = APPROVAL ( #210, 'UNSPECIFIED' ) ;
#806 = EDGE_LOOP ( 'NONE', ( #160, #571, #906, #300 ) ) ;
#807 = CARTESIAN_POINT ( 'NONE',  ( 974.0000000000000000, 3.153465507804435193E-15, 25.74999999999982236 ) ) ;
#808 = FACE_OUTER_BOUND ( 'NONE', #137, .T. ) ;
#809 = DIRECTION ( 'NONE',  ( 1.836970198721029934E-16, -0.000000000000000000, 1.000000000000000000 ) ) ;
#810 = EDGE_LOOP ( 'NONE', ( #5, #42 ) ) ;
#811 = AXIS2_PLACEMENT_3D ( 'NONE', #693, #706, #240 ) ;
#812 = CYLINDRICAL_SURFACE ( 'NONE', #184, 25.50000000000000000 ) ;
#813 = AXIS2_PLACEMENT_3D ( 'NONE', #1115, #285, #485 ) ;
#814 = DIRECTION ( 'NONE',  ( 0.000000000000000000, 0.000000000000000000, -1.000000000000000000 ) ) ;
#815 = FACE_BOUND ( 'NONE', #725, .T. ) ;
#816 = EDGE_LOOP ( 'NONE', ( #215, #823, #393, #400, #176, #458, #110, #555, #397, #868, #155, #1074 ) ) ;
#817 = CARTESIAN_POINT ( 'NONE',  ( 934.6845644019003885, 0.000000000000000000, -3.553957888731867849E-13 ) ) ;
#818 = FACE_OUTER_BOUND ( 'NONE', #586, .T. ) ;
#819 = EDGE_CURVE ( 'NONE', #303, #550, #256, .T. ) ;
#820 = CARTESIAN_POINT ( 'NONE',  ( 974.0000000000000000, 2.250000000000000000, -27.25000000000018119 ) ) ;
#821 = VERTEX_POINT ( 'NONE', #765 ) ;
#822 = LINE ( 'NONE', #287, #292 ) ;
#823 = ORIENTED_EDGE ( 'NONE', *, *, #486, .T. ) ;
#824 = FACE_OUTER_BOUND ( 'NONE', #365, .T. ) ;
#825 = PRODUCT_DEFINITION ( 'UNKNOWN', '', #519, #476 ) ;
#826 = DIRECTION ( 'NONE',  ( 1.000000000000000000, 0.000000000000000000, -1.836970198721029688E-16 ) ) ;
#827 = EDGE_CURVE ( 'NONE', #847, #1117, #581, .T. ) ;
#828 = ORIENTED_EDGE ( 'NONE', *, *, #741, .F. ) ;
#829 = CARTESIAN_POINT ( 'NONE',  ( 935.8816349035402027, 0.000000000000000000, -1.719186672848118129E-13 ) ) ;
#830 = VECTOR ( 'NONE', #1128, 1000.000000000000000 ) ;
#831 = EDGE_LOOP ( 'NONE', ( #79, #1166, #703, #299, #739, #324 ) ) ;
#832 = LINE ( 'NONE', #1017, #442 ) ;
#833 = VECTOR ( 'NONE', #282, 1000.000000000000114 ) ;
#834 = CIRCLE ( 'NONE', #333, 27.25000000000000000 ) ;
#835 = AXIS2_PLACEMENT_3D ( 'NONE', #201, #649, #655 ) ;
#836 = DIRECTION ( 'NONE',  ( 1.000000000000000000, -0.000000000000000000, -1.836970198721029688E-16 ) ) ;
#837 = VECTOR ( 'NONE', #138, 1000.000000000000000 ) ;
#838 = EDGE_CURVE ( 'NONE', #821, #450, #771, .T. ) ;
#839 = ORIENTED_EDGE ( 'NONE', *, *, #1095, .T. ) ;
#840 = DIRECTION ( 'NONE',  ( 0.000000000000000000, -0.000000000000000000, 1.000000000000000000 ) ) ;
#841 = CARTESIAN_POINT ( 'NONE',  ( 974.0000000000000000, 3.337162527676538309E-15, 27.24999999999982236 ) ) ;
#842 = ORIENTED_EDGE ( 'NONE', *, *, #231, .T. ) ;
#843 = CARTESIAN_POINT ( 'NONE',  ( 935.0000000000000000, -2.249999999999999112, -25.65151067676148955 ) ) ;
#844 = ORIENTED_EDGE ( 'NONE', *, *, #537, .T. ) ;
#845 = DIRECTION ( 'NONE',  ( 1.000000000000000000, 0.000000000000000000, -1.836970198721029688E-16 ) ) ;
#846 = ORIENTED_EDGE ( 'NONE', *, *, #1088, .T. ) ;
#847 = VERTEX_POINT ( 'NONE', #1136 ) ;
#848 = DIRECTION ( 'NONE',  ( -1.000000000000000000, 0.000000000000000000, 1.836970198721029688E-16 ) ) ;
#849 = EDGE_CURVE ( 'NONE', #794, #469, #509, .T. ) ;
#850 = AXIS2_PLACEMENT_3D ( 'NONE', #595, #1163, #610 ) ;
#851 = CC_DESIGN_APPROVAL ( #1132, ( #519 ) ) ;
#852 = AXIS2_PLACEMENT_3D ( 'NONE', #1011, #521, #998 ) ;
#853 = CIRCLE ( 'NONE', #992, 6.499999999999999112 ) ;
#854 = DIRECTION ( 'NONE',  ( 0.000000000000000000, -1.065814103640150279E-14, 1.000000000000000000 ) ) ;
#855 = DATE_TIME_ROLE ( 'classification_date' ) ;
#856 = ORIENTED_EDGE ( 'NONE', *, *, #320, .T. ) ;
#857 = DIRECTION ( 'NONE',  ( 1.000000000000000000, -0.000000000000000000, -1.836970198721029688E-16 ) ) ;
#858 = LINE ( 'NONE', #820, #293 ) ;
#859 = ADVANCED_FACE ( 'NONE', ( #325 ), #143, .T. ) ;
#860 = LINE ( 'NONE', #40, #830 ) ;
#861 = APPROVAL_DATE_TIME ( #488, #805 ) ;
#862 = VERTEX_POINT ( 'NONE', #312 ) ;
#863 = CARTESIAN_POINT ( 'NONE',  ( 974.0000000000000000, 0.000000000000000000, -1.789208973554282786E-13 ) ) ;
#864 = DIRECTION ( 'NONE',  ( 1.000000000000000000, 0.000000000000000000, -1.836970198721029688E-16 ) ) ;
#865 = ORIENTED_EDGE ( 'NONE', *, *, #1034, .F. ) ;
#866 = EDGE_CURVE ( 'NONE', #696, #915, #718, .T. ) ;
#867 = PERSON_AND_ORGANIZATION ( #87, #1065 ) ;
#868 = ORIENTED_EDGE ( 'NONE', *, *, #1177, .F. ) ;
#869 = CARTESIAN_POINT ( 'NONE',  ( 1000.000000000000000, 27.15695122800053696, 2.249999999999822364 ) ) ;
#870 = LINE ( 'NONE', #779, #736 ) ;
#871 = ORIENTED_EDGE ( 'NONE', *, *, #448, .F. ) ;
#872 = TOROIDAL_SURFACE ( 'NONE', #351, 22.25000000000008882, 3.500000000000000000 ) ;
#873 = COORDINATED_UNIVERSAL_TIME_OFFSET ( 1, 0, .AHEAD. ) ;
#874 = EDGE_CURVE ( 'NONE', #286, #1141, #640, .T. ) ;
#875 = ORIENTED_EDGE ( 'NONE', *, *, #564, .F. ) ;
#876 = DIRECTION ( 'NONE',  ( 1.000000000000000000, 0.000000000000000000, -1.836970198721029688E-16 ) ) ;
#877 = CARTESIAN_POINT ( 'NONE',  ( 934.1715341869119129, 0.000000000000000000, -26.94846310393010924 ) ) ;
#878 = PLANE ( 'NONE',  #929 ) ;
#879 = ORIENTED_EDGE ( 'NONE', *, *, #723, .T. ) ;
#880 = DIRECTION ( 'NONE',  ( 0.000000000000000000, 0.000000000000000000, -1.000000000000000000 ) ) ;
#881 = CARTESIAN_POINT ( 'NONE',  ( 1000.000000000000000, -2.250000000000000000, -27.25000000000018474 ) ) ;
#882 = EDGE_CURVE ( 'NONE', #930, #414, #797, .T. ) ;
#883 = DIRECTION ( 'NONE',  ( 1.000000000000000000, 0.000000000000000000, -1.836970198721029688E-16 ) ) ;
#884 = ORIENTED_EDGE ( 'NONE', *, *, #328, .T. ) ;
#885 = CARTESIAN_POINT ( 'NONE',  ( 935.0000000000000000, -25.65151067676131191, 2.249999999999833911 ) ) ;
#886 = DIRECTION ( 'NONE',  ( 1.836970198721029934E-16, -0.000000000000000000, 1.000000000000000000 ) ) ;
#887 = EDGE_CURVE ( 'NONE', #92, #450, #603, .T. ) ;
#888 = DIRECTION ( 'NONE',  ( 0.000000000000000000, -2.930988785010413267E-14, 1.000000000000000000 ) ) ;
#889 = TOROIDAL_SURFACE ( 'NONE', #385, 30.50000000000000000, 5.000000000000000000 ) ;
#890 = CIRCLE ( 'NONE', #676, 27.25000000000000000 ) ;
#891 = AXIS2_PLACEMENT_3D ( 'NONE', #1100, #187, #179 ) ;
#892 = ORIENTED_EDGE ( 'NONE', *, *, #849, .T. ) ;
#893 = CARTESIAN_POINT ( 'NONE',  ( 1000.000000000000000, 27.15695122800054051, -2.250000000000177192 ) ) ;
#894 = CIRCLE ( 'NONE', #1012, 25.75000000000000000 ) ;
#895 = FACE_OUTER_BOUND ( 'NONE', #1049, .T. ) ;
#896 = CARTESIAN_POINT ( 'NONE',  ( 929.3102796124093175, 0.000000000000000000, -3.544085487734132521E-13 ) ) ;
#897 = ORIENTED_EDGE ( 'NONE', *, *, #417, .F. ) ;
#898 = LINE ( 'NONE', #795, #505 ) ;
#899 = CARTESIAN_POINT ( 'NONE',  ( 935.0000000000000000, -2.249999999999999112, -27.15695122800071104 ) ) ;
#900 = CARTESIAN_POINT ( 'NONE',  ( 1000.000000000000000, 0.000000000000000000, -1.836970198721029747E-13 ) ) ;
#901 = EDGE_CURVE ( 'NONE', #381, #747, #221, .T. ) ;
#902 = ORIENTED_EDGE ( 'NONE', *, *, #1, .T. ) ;
#903 = CARTESIAN_POINT ( 'NONE',  ( 1000.000000000000000, 27.25000000000000000, -2.250000000000177192 ) ) ;
#904 = DIRECTION ( 'NONE',  ( 0.000000000000000000, 0.000000000000000000, -1.000000000000000000 ) ) ;
#905 = CARTESIAN_POINT ( 'NONE',  ( 974.0000000000000000, 2.250000000000000000, -27.25000000000018119 ) ) ;
#906 = ORIENTED_EDGE ( 'NONE', *, *, #357, .T. ) ;
#907 = VECTOR ( 'NONE', #82, 1000.000000000000000 ) ;
#908 = LINE ( 'NONE', #636, #833 ) ;
#909 = ADVANCED_FACE ( 'NONE', ( #1160 ), #623, .F. ) ;
#910 = CIRCLE ( 'NONE', #386, 27.25000000000000000 ) ;
#911 = CARTESIAN_POINT ( 'NONE',  ( 935.8816349035402027, 3.337162527676538309E-15, 27.24999999999982947 ) ) ;
#912 = AXIS2_PLACEMENT_3D ( 'NONE', #399, #864, #691 ) ;
#913 = AXIS2_PLACEMENT_3D ( 'NONE', #979, #514, #527 ) ;
#914 = DIRECTION ( 'NONE',  ( -0.000000000000000000, -1.000000000000000000, -0.000000000000000000 ) ) ;
#915 = VERTEX_POINT ( 'NONE', #224 ) ;
#916 = DIRECTION ( 'NONE',  ( 1.836970198721029688E-16, 0.000000000000000000, 1.000000000000000000 ) ) ;
#917 = ORIENTED_EDGE ( 'NONE', *, *, #901, .F. ) ;
#918 = CARTESIAN_POINT ( 'NONE',  ( 935.0000000000000000, 27.15695122800053340, 2.249999999999833911 ) ) ;
#919 = ADVANCED_FACE ( 'NONE', ( #152 ), #330, .T. ) ;
#920 = DIRECTION ( 'NONE',  ( -1.000000000000000000, -0.000000000000000000, 1.836970198721029688E-16 ) ) ;
#921 = ORIENTED_EDGE ( 'NONE', *, *, #1127, .F. ) ;
#922 = CARTESIAN_POINT ( 'NONE',  ( 1000.000000000000000, -2.250000000000000000, -25.65151067676149665 ) ) ;
#923 = EDGE_LOOP ( 'NONE', ( #684, #879, #897, #207 ) ) ;
#924 = CARTESIAN_POINT ( 'NONE',  ( 1000.000000000000000, 2.249999999999999556, -25.65151067676150376 ) ) ;
#925 = EDGE_CURVE ( 'NONE', #550, #677, #685, .T. ) ;
#926 = CARTESIAN_POINT ( 'NONE',  ( 929.3102796124093175, 2.939152317953647500E-15, 23.99999999999964473 ) ) ;
#927 = VERTEX_POINT ( 'NONE', #869 ) ;
#928 = DIRECTION ( 'NONE',  ( 1.000000000000000000, 0.000000000000000000, 0.000000000000000000 ) ) ;
#929 = AXIS2_PLACEMENT_3D ( 'NONE', #159, #711, #426 ) ;
#930 = VERTEX_POINT ( 'NONE', #49 ) ;
#931 = FACE_OUTER_BOUND ( 'NONE', #776, .T. ) ;
#932 = CC_DESIGN_APPROVAL ( #681, ( #145 ) ) ;
#933 = VECTOR ( 'NONE', #44, 1000.000000000000000 ) ;
#934 = AXIS2_PLACEMENT_3D ( 'NONE', #798, #344, #1168 ) ;
#935 = AXIS2_PLACEMENT_3D ( 'NONE', #817, #243, #161 ) ;
#936 = ORIENTED_EDGE ( 'NONE', *, *, #546, .F. ) ;
#937 =( LENGTH_UNIT ( ) NAMED_UNIT ( * ) SI_UNIT ( .MILLI., .METRE. ) );
#938 = DIRECTION ( 'NONE',  ( 1.000000000000000000, -0.000000000000000000, -1.836970198721029688E-16 ) ) ;
#939 = ORIENTED_EDGE ( 'NONE', *, *, #762, .F. ) ;
#940 = DIRECTION ( 'NONE',  ( 1.000000000000000000, 0.000000000000000000, -1.836970198721028948E-16 ) ) ;
#941 = ORIENTED_EDGE ( 'NONE', *, *, #211, .T. ) ;
#942 = CARTESIAN_POINT ( 'NONE',  ( 1000.000000000000000, 0.000000000000000000, -1.836970198721029747E-13 ) ) ;
#943 = UNCERTAINTY_MEASURE_WITH_UNIT (LENGTH_MEASURE( 1.000000000000000082E-05 ), #937, 'distance_accuracy_value', 'NONE');
#944 = ORIENTED_EDGE ( 'NONE', *, *, #666, .F. ) ;
#945 = APPROVAL_DATE_TIME ( #759, #1132 ) ;
#946 = ORIENTED_EDGE ( 'NONE', *, *, #874, .F. ) ;
#947 = DIRECTION ( 'NONE',  ( 1.000000000000000000, -0.000000000000000000, -1.836970198721029688E-16 ) ) ;
#948 = EDGE_CURVE ( 'NONE', #286, #862, #853, .T. ) ;
#949 = CARTESIAN_POINT ( 'NONE',  ( -1000.000000000000000, 0.000000000000000000, 0.000000000000000000 ) ) ;
#950 = VECTOR ( 'NONE', #916, 1000.000000000000000 ) ;
#951 = AXIS2_PLACEMENT_3D ( 'NONE', #279, #644, #551 ) ;
#952 = VECTOR ( 'NONE', #612, 1000.000000000000227 ) ;
#953 = DIRECTION ( 'NONE',  ( 1.000000000000000000, -0.000000000000000000, -1.836970198721029688E-16 ) ) ;
#954 = COORDINATED_UNIVERSAL_TIME_OFFSET ( 1, 0, .AHEAD. ) ;
#955 = ORIENTED_EDGE ( 'NONE', *, *, #687, .T. ) ;
#956 = DIRECTION ( 'NONE',  ( -1.836970198721029688E-16, 0.000000000000000000, -1.000000000000000000 ) ) ;
#957 = DIRECTION ( 'NONE',  ( 0.000000000000000000, 0.000000000000000000, -1.000000000000000000 ) ) ;
#958 = ORIENTED_EDGE ( 'NONE', *, *, #239, .T. ) ;
#959 = PERSON_AND_ORGANIZATION ( #87, #1065 ) ;
#960 = ORIENTED_EDGE ( 'NONE', *, *, #1162, .T. ) ;
#961 = CARTESIAN_POINT ( 'NONE',  ( 935.8816349035402027, 0.000000000000000000, -2.637671772208633507E-13 ) ) ;
#962 = CARTESIAN_POINT ( 'NONE',  ( 974.0000000000000000, 2.250000000000000000, -27.15695122800072170 ) ) ;
#963 = EDGE_CURVE ( 'NONE', #674, #1117, #390, .T. ) ;
#964 = ORIENTED_EDGE ( 'NONE', *, *, #438, .T. ) ;
#965 = VERTEX_POINT ( 'NONE', #608 ) ;
#966 = CARTESIAN_POINT ( 'NONE',  ( 931.0203803290377209, 3.230005932751154521E-15, 25.80153689607008261 ) ) ;
#967 = CARTESIAN_POINT ( 'NONE',  ( 934.1715341869119129, 0.000000000000000000, -2.634530368155376182E-13 ) ) ;
#968 = AXIS2_PLACEMENT_3D ( 'NONE', #1174, #512, #250 ) ;
#969 = VECTOR ( 'NONE', #305, 1000.000000000000000 ) ;
#970 = CARTESIAN_POINT ( 'NONE',  ( 1000.000000000000000, 0.000000000000000000, -1.836970198721029747E-13 ) ) ;
#971 = CIRCLE ( 'NONE', #109, 25.50000000000000000 ) ;
#972 = AXIS2_PLACEMENT_3D ( 'NONE', #618, #156, #708 ) ;
#973 = EDGE_CURVE ( 'NONE', #427, #821, #465, .T. ) ;
#974 = ORIENTED_EDGE ( 'NONE', *, *, #1058, .F. ) ;
#975 = DIRECTION ( 'NONE',  ( 1.000000000000000000, 0.000000000000000000, -1.836970198721029688E-16 ) ) ;
#976 = CARTESIAN_POINT ( 'NONE',  ( 974.0000000000000000, -2.250000000000000000, 27.15695122800034866 ) ) ;
#977 = CARTESIAN_POINT ( 'NONE',  ( 974.0000000000000000, 2.250000000000000000, 25.65151067676113072 ) ) ;
#978 = ORIENTED_EDGE ( 'NONE', *, *, #702, .T. ) ;
#979 = CARTESIAN_POINT ( 'NONE',  ( 929.3102796124093175, 3.735172737399427541E-15, -30.50000000000035172 ) ) ;
#980 = ADVANCED_FACE ( 'NONE', ( #990 ), #1147, .T. ) ;
#981 = DIRECTION ( 'NONE',  ( 0.000000000000000000, 0.000000000000000000, 1.000000000000000000 ) ) ;
#982 = DIRECTION ( 'NONE',  ( 0.000000000000000000, 0.000000000000000000, -1.000000000000000000 ) ) ;
#983 = VERTEX_POINT ( 'NONE', #518 ) ;
#984 = LINE ( 'NONE', #1091, #148 ) ;
#985 = EDGE_CURVE ( 'NONE', #996, #288, #343, .T. ) ;
#986 = DIRECTION ( 'NONE',  ( 0.000000000000000000, -1.224646799147353700E-16, 1.000000000000000000 ) ) ;
#987 = CARTESIAN_POINT ( 'NONE',  ( 935.0000000000000000, -2.249999999999999112, 25.65151067676114138 ) ) ;
#988 = CIRCLE ( 'NONE', #1009, 27.25000000000000000 ) ;
#989 = ORIENTED_EDGE ( 'NONE', *, *, #973, .T. ) ;
#990 = FACE_OUTER_BOUND ( 'NONE', #600, .T. ) ;
#991 = AXIS2_PLACEMENT_3D ( 'NONE', #568, #743, #1107 ) ;
#992 = AXIS2_PLACEMENT_3D ( 'NONE', #777, #319, #75 ) ;
#993 = DIRECTION ( 'NONE',  ( 0.000000000000000000, 0.000000000000000000, -1.000000000000000000 ) ) ;
#994 = EDGE_CURVE ( 'NONE', #821, #794, #405, .T. ) ;
#995 = DIRECTION ( 'NONE',  ( 0.000000000000000000, 0.000000000000000000, -1.000000000000000000 ) ) ;
#996 = VERTEX_POINT ( 'NONE', #1172 ) ;
#997 = DIRECTION ( 'NONE',  ( 0.000000000000000000, 0.000000000000000000, -1.000000000000000000 ) ) ;
#998 = DIRECTION ( 'NONE',  ( -1.836970198721029688E-16, 0.000000000000000000, -1.000000000000000000 ) ) ;
#999 = DIRECTION ( 'NONE',  ( -1.836970198721029688E-16, 0.000000000000000000, -1.000000000000000000 ) ) ;
#1000 = ADVANCED_FACE ( 'NONE', ( #93 ), #353, .T. ) ;
#1001 = VERTEX_POINT ( 'NONE', #893 ) ;
#1002 = CARTESIAN_POINT ( 'NONE',  ( 935.0000000000000000, 2.249999999999999112, 27.15695122800036287 ) ) ;
#1003 = CARTESIAN_POINT ( 'NONE',  ( 935.8816349035402027, 0.000000000000000000, -1.719186672848118129E-13 ) ) ;
#1004 = CARTESIAN_POINT ( 'NONE',  ( 1000.000000000000000, 0.000000000000000000, -1.836970198721029747E-13 ) ) ;
#1005 = ORIENTED_EDGE ( 'NONE', *, *, #524, .T. ) ;
#1006 = AXIS2_PLACEMENT_3D ( 'NONE', #72, #809, #1169 ) ;
#1007 = DIRECTION ( 'NONE',  ( 1.000000000000000000, -0.000000000000000000, -1.836970198721029688E-16 ) ) ;
#1008 = EDGE_CURVE ( 'NONE', #1102, #696, #802, .T. ) ;
#1009 = AXIS2_PLACEMENT_3D ( 'NONE', #1019, #836, #376 ) ;
#1010 = ORIENTED_EDGE ( 'NONE', *, *, #78, .F. ) ;
#1011 = CARTESIAN_POINT ( 'NONE',  ( 1000.000000000000000, 0.000000000000000000, -3.673940397442059493E-13 ) ) ;
#1012 = AXIS2_PLACEMENT_3D ( 'NONE', #1003, #628, #637 ) ;
#1013 = CARTESIAN_POINT ( 'NONE',  ( 974.0000000000000000, 2.250000000000000000, 27.15695122800034866 ) ) ;
#1014 = ORIENTED_EDGE ( 'NONE', *, *, #248, .T. ) ;
#1015 = MECHANICAL_CONTEXT ( 'NONE', #665, 'mechanical' ) ;
#1016 = VERTEX_POINT ( 'NONE', #1176 ) ;
#1017 = CARTESIAN_POINT ( 'NONE',  ( -1000.000000000000000, 2.939152317953647500E-15, 23.99999999999999645 ) ) ;
#1018 = EDGE_CURVE ( 'NONE', #996, #1111, #277, .T. ) ;
#1019 = CARTESIAN_POINT ( 'NONE',  ( 974.0000000000000000, 0.000000000000000000, -1.789208973554282786E-13 ) ) ;
#1020 = ORIENTED_EDGE ( 'NONE', *, *, #431, .F. ) ;
#1021 = VERTEX_POINT ( 'NONE', #1079 ) ;
#1022 = FACE_OUTER_BOUND ( 'NONE', #263, .T. ) ;
#1023 = ORIENTED_EDGE ( 'NONE', *, *, #1034, .T. ) ;
#1024 = ORIENTED_EDGE ( 'NONE', *, *, #524, .F. ) ;
#1025 = LINE ( 'NONE', #1033, #167 ) ;
#1026 = VECTOR ( 'NONE', #177, 1000.000000000000000 ) ;
#1027 = VECTOR ( 'NONE', #461, 1000.000000000000000 ) ;
#1028 = AXIS2_PLACEMENT_3D ( 'NONE', #296, #938, #301 ) ;
#1029 = VECTOR ( 'NONE', #68, 1000.000000000000000 ) ;
#1030 = ORIENTED_EDGE ( 'NONE', *, *, #417, .T. ) ;
#1031 = LINE ( 'NONE', #663, #950 ) ;
#1032 = ORIENTED_EDGE ( 'NONE', *, *, #468, .T. ) ;
#1033 = CARTESIAN_POINT ( 'NONE',  ( 974.0000000000000000, 27.25000000000000000, -2.250000000000172307 ) ) ;
#1034 = EDGE_CURVE ( 'NONE', #536, #1188, #898, .T. ) ;
#1035 = CARTESIAN_POINT ( 'NONE',  ( 1000.000000000000000, 25.65151067676131902, -2.250000000000177192 ) ) ;
#1036 = CALENDAR_DATE ( 2026, 16, 9 ) ;
#1037 = EDGE_LOOP ( 'NONE', ( #654, #200, #1135, #561 ) ) ;
#1038 = LINE ( 'NONE', #918, #15 ) ;
#1039 = CARTESIAN_POINT ( 'NONE',  ( 974.0000000000000000, 27.25000000000000000, 2.249999999999827249 ) ) ;
#1040 = FACE_OUTER_BOUND ( 'NONE', #258, .T. ) ;
#1041 = CALENDAR_DATE ( 2026, 16, 9 ) ;
#1042 = ORIENTED_EDGE ( 'NONE', *, *, #741, .T. ) ;
#1043 = DIRECTION ( 'NONE',  ( -1.000000000000000000, -0.000000000000000000, 1.836970198721028948E-16 ) ) ;
#1044 = FACE_OUTER_BOUND ( 'NONE', #1048, .T. ) ;
#1045 = AXIS2_PLACEMENT_3D ( 'NONE', #829, #940, #451 ) ;
#1046 = CIRCLE ( 'NONE', #754, 25.75000000000000000 ) ;
#1047 = CONICAL_SURFACE ( 'NONE', #387, 25.50000000000000000, 0.3490658503988566252 ) ;
#1048 = EDGE_LOOP ( 'NONE', ( #342, #464, #172, #745 ) ) ;
#1049 = EDGE_LOOP ( 'NONE', ( #217, #892, #758, #185 ) ) ;
#1050 = CARTESIAN_POINT ( 'NONE',  ( -1000.000000000000000, 0.000000000000000000, 0.000000000000000000 ) ) ;
#1051 = ADVANCED_FACE ( 'NONE', ( #433 ), #812, .T. ) ;
#1052 = FACE_OUTER_BOUND ( 'NONE', #227, .T. ) ;
#1053 = MANIFOLD_SOLID_BREP ( 'Cut-Extrude-Thin1', #1122 ) ;
#1054 = VERTEX_POINT ( 'NONE', #807 ) ;
#1055 = PERSON_AND_ORGANIZATION ( #87, #1065 ) ;
#1056 = ORIENTED_EDGE ( 'NONE', *, *, #267, .F. ) ;
#1057 = CARTESIAN_POINT ( 'NONE',  ( 934.1715341869119129, 3.300234908216812158E-15, 26.94846310392940225 ) ) ;
#1058 = EDGE_CURVE ( 'NONE', #1117, #674, #335, .T. ) ;
#1059 = DIRECTION ( 'NONE',  ( 1.000000000000000000, 0.000000000000000000, -1.836970198721029688E-16 ) ) ;
#1060 = PERSON_AND_ORGANIZATION_ROLE ( 'creator' ) ;
#1061 = VERTEX_POINT ( 'NONE', #247 ) ;
#1062 = CARTESIAN_POINT ( 'NONE',  ( 930.1919145159515665, 0.000000000000000000, -25.50000000000035172 ) ) ;
#1063 = LINE ( 'NONE', #331, #1108 ) ;
#1064 = VECTOR ( 'NONE', #316, 1000.000000000000000 ) ;
#1065 = ORGANIZATION ( 'UNSPECIFIED', 'UNSPECIFIED', '' ) ;
#1066 = DIRECTION ( 'NONE',  ( 0.000000000000000000, 0.000000000000000000, -1.000000000000000000 ) ) ;
#1067 = EDGE_CURVE ( 'NONE', #450, #469, #129, .T. ) ;
#1068 = AXIS2_PLACEMENT_3D ( 'NONE', #174, #533, #761 ) ;
#1069 = AXIS2_PLACEMENT_3D ( 'NONE', #580, #697, #956 ) ;
#1070 = ORIENTED_EDGE ( 'NONE', *, *, #1008, .F. ) ;
#1071 = DIRECTION ( 'NONE',  ( 0.000000000000000000, 0.000000000000000000, -1.000000000000000000 ) ) ;
#1072 = FACE_OUTER_BOUND ( 'NONE', #584, .T. ) ;
#1073 = EDGE_CURVE ( 'NONE', #142, #403, #259, .T. ) ;
#1074 = ORIENTED_EDGE ( 'NONE', *, *, #183, .F. ) ;
#1075 = DIRECTION ( 'NONE',  ( 1.000000000000000000, 0.000000000000000000, -1.836970198721029688E-16 ) ) ;
#1076 = DIRECTION ( 'NONE',  ( 1.000000000000000000, 0.000000000000000000, -1.836970198721029934E-16 ) ) ;
#1077 = CARTESIAN_POINT ( 'NONE',  ( 935.0000000000000000, 0.000000000000000000, -25.75000000000017053 ) ) ;
#1078 = ORIENTED_EDGE ( 'NONE', *, *, #349, .T. ) ;
#1079 = CARTESIAN_POINT ( 'NONE',  ( 929.3102796124093175, 3.122849337825750222E-15, 25.49999999999964473 ) ) ;
#1080 = DIRECTION ( 'NONE',  ( 0.000000000000000000, 0.000000000000000000, -1.000000000000000000 ) ) ;
#1081 = EDGE_CURVE ( 'NONE', #862, #674, #704, .T. ) ;
#1082 = DIRECTION ( 'NONE',  ( 1.000000000000000000, 0.000000000000000000, -1.836970198721028208E-16 ) ) ;
#1083 = VECTOR ( 'NONE', #1144, 1000.000000000000000 ) ;
#1084 = AXIS2_PLACEMENT_3D ( 'NONE', #1161, #1157, #326 ) ;
#1085 = EDGE_LOOP ( 'NONE', ( #917, #788, #117, #228 ) ) ;
#1086 = DIRECTION ( 'NONE',  ( 0.000000000000000000, 0.000000000000000000, -1.000000000000000000 ) ) ;
#1087 = FACE_OUTER_BOUND ( 'NONE', #419, .T. ) ;
#1088 = EDGE_CURVE ( 'NONE', #579, #1001, #984, .T. ) ;
#1089 = LINE ( 'NONE', #262, #1181 ) ;
#1090 = ORIENTED_EDGE ( 'NONE', *, *, #196, .T. ) ;
#1091 = CARTESIAN_POINT ( 'NONE',  ( 935.0000000000000000, 27.15695122800053696, -2.250000000000164313 ) ) ;
#1092 = CARTESIAN_POINT ( 'NONE',  ( 1000.000000000000000, 2.250000000000000000, 27.15695122800035932 ) ) ;
#1093 = EDGE_CURVE ( 'NONE', #565, #275, #631, .T. ) ;
#1094 = DIRECTION ( 'NONE',  ( 0.000000000000000000, 0.000000000000000000, -1.000000000000000000 ) ) ;
#1095 = EDGE_CURVE ( 'NONE', #270, #1117, #908, .T. ) ;
#1096 = ORIENTED_EDGE ( 'NONE', *, *, #1058, .T. ) ;
#1097 =( NAMED_UNIT ( * ) SI_UNIT ( $, .STERADIAN. ) SOLID_ANGLE_UNIT ( ) );
#1098 = ORIENTED_EDGE ( 'NONE', *, *, #730, .F. ) ;
#1099 = DIRECTION ( 'NONE',  ( 0.000000000000000000, 0.000000000000000000, 1.000000000000000000 ) ) ;
#1100 = CARTESIAN_POINT ( 'NONE',  ( 935.0000000000000000, 0.000000000000000000, -1.717567135804162851E-13 ) ) ;
#1101 = ADVANCED_FACE ( 'NONE', ( #566 ), #889, .F. ) ;
#1102 = VERTEX_POINT ( 'NONE', #549 ) ;
#1103 = AXIS2_PLACEMENT_3D ( 'NONE', #189, #366, #840 ) ;
#1104 = DIRECTION ( 'NONE',  ( 1.000000000000000000, 0.000000000000000000, -1.836970198721029688E-16 ) ) ;
#1105 = AXIS2_PLACEMENT_3D ( 'NONE', #95, #352, #534 ) ;
#1106 = ORIENTED_EDGE ( 'NONE', *, *, #887, .T. ) ;
#1107 = DIRECTION ( 'NONE',  ( 0.000000000000000000, 1.598721155460225103E-14, 1.000000000000000000 ) ) ;
#1108 = VECTOR ( 'NONE', #772, 1000.000000000000000 ) ;
#1109 = AXIS2_PLACEMENT_3D ( 'NONE', #43, #876, #490 ) ;
#1110 = DIRECTION ( 'NONE',  ( 1.000000000000000000, 0.000000000000000000, -1.836970198721029688E-16 ) ) ;
#1111 = VERTEX_POINT ( 'NONE', #922 ) ;
#1112 = DIRECTION ( 'NONE',  ( 0.000000000000000000, 0.000000000000000000, 1.000000000000000000 ) ) ;
#1113 = EDGE_LOOP ( 'NONE', ( #626, #1106, #1020, #871 ) ) ;
#1114 = DIRECTION ( 'NONE',  ( 1.000000000000000000, 0.000000000000000000, -1.836970198721029688E-16 ) ) ;
#1115 = CARTESIAN_POINT ( 'NONE',  ( 931.0203803290377209, 0.000000000000000000, -3.547226891787390855E-13 ) ) ;
#1116 = EDGE_LOOP ( 'NONE', ( #653, #489, #844, #8 ) ) ;
#1117 = VERTEX_POINT ( 'NONE', #746 ) ;
#1118 = FACE_OUTER_BOUND ( 'NONE', #763, .T. ) ;
#1119 = EDGE_CURVE ( 'NONE', #630, #92, #619, .T. ) ;
#1120 = ORIENTED_EDGE ( 'NONE', *, *, #887, .F. ) ;
#1121 = DIRECTION ( 'NONE',  ( 1.000000000000000000, 0.000000000000000000, -1.836970198721029688E-16 ) ) ;
#1122 = CLOSED_SHELL ( 'NONE', ( #668, #150, #492, #70, #1000, #30, #613, #1051, #64, #284, #859, #596, #1170, #800, #919, #391, #643, #298, #402, #1101, #980, #454, #634, #749, #909, #475, #424, #692, #105, #1186, #39, #558, #112, #530, #158, #791, #650 ) ) ;
#1123 = ORIENTED_EDGE ( 'NONE', *, *, #778, .T. ) ;
#1124 = DIRECTION ( 'NONE',  ( 0.000000000000000000, 0.000000000000000000, -1.000000000000000000 ) ) ;
#1125 = APPROVAL_PERSON_ORGANIZATION ( #1055, #1132, #1139 ) ;
#1126 = CONICAL_SURFACE ( 'NONE', #559, 24.09046106882113136, 0.3490658503988566252 ) ;
#1127 = EDGE_CURVE ( 'NONE', #409, #677, #1031, .T. ) ;
#1128 = DIRECTION ( 'NONE',  ( -1.000000000000000000, -0.000000000000000000, 1.836970198721029688E-16 ) ) ;
#1129 = PERSON_AND_ORGANIZATION_ROLE ( 'design_owner' ) ;
#1130 = ORIENTED_EDGE ( 'NONE', *, *, #1088, .F. ) ;
#1131 = DIRECTION ( 'NONE',  ( 1.836970198721029688E-16, 0.000000000000000000, 1.000000000000000000 ) ) ;
#1132 = APPROVAL ( #56, 'UNSPECIFIED' ) ;
#1133 = ORIENTED_EDGE ( 'NONE', *, *, #412, .T. ) ;
#1134 = EDGE_CURVE ( 'NONE', #1061, #427, #822, .T. ) ;
#1135 = ORIENTED_EDGE ( 'NONE', *, *, #267, .T. ) ;
#1136 = CARTESIAN_POINT ( 'NONE',  ( 935.8816349035402027, 0.000000000000000000, -25.75000000000017053 ) ) ;
#1137 = CARTESIAN_POINT ( 'NONE',  ( -1000.000000000000000, 3.122849337825750222E-15, 25.50000000000000000 ) ) ;
#1138 = ORIENTED_EDGE ( 'NONE', *, *, #582, .T. ) ;
#1139 = APPROVAL_ROLE ( '' ) ;
#1140 = EDGE_CURVE ( 'NONE', #742, #403, #309, .T. ) ;
#1141 = VERTEX_POINT ( 'NONE', #647 ) ;
#1142 = DIRECTION ( 'NONE',  ( 1.000000000000000000, -0.000000000000000000, -1.836970198721029688E-16 ) ) ;
#1143 = VECTOR ( 'NONE', #443, 1000.000000000000000 ) ;
#1144 = DIRECTION ( 'NONE',  ( 1.836970198721029688E-16, 0.000000000000000000, 1.000000000000000000 ) ) ;
#1145 = CIRCLE ( 'NONE', #1164, 5.000000000000000888 ) ;
#1146 = VECTOR ( 'NONE', #380, 1000.000000000000000 ) ;
#1147 = TOROIDAL_SURFACE ( 'NONE', #624, 22.25000000000008882, 5.000000000000000000 ) ;
#1148 = ORIENTED_EDGE ( 'NONE', *, *, #261, .T. ) ;
#1149 = COORDINATED_UNIVERSAL_TIME_OFFSET ( 1, 0, .AHEAD. ) ;
#1150 = ORIENTED_EDGE ( 'NONE', *, *, #486, .F. ) ;
#1151 = CARTESIAN_POINT ( 'NONE',  ( 935.8816349035402027, 2.724839128102871640E-15, -22.25000000000035172 ) ) ;
#1152 = DIRECTION ( 'NONE',  ( -1.000000000000000000, -0.000000000000000000, 1.836970198721029688E-16 ) ) ;
#1153 = PLANE ( 'NONE',  #106 ) ;
#1154 = PERSON_AND_ORGANIZATION ( #87, #1065 ) ;
#1155 = ORIENTED_EDGE ( 'NONE', *, *, #231, .F. ) ;
#1156 = CARTESIAN_POINT ( 'NONE',  ( 929.3102796124093175, 0.000000000000000000, -3.544085487734133026E-13 ) ) ;
#1157 = DIRECTION ( 'NONE',  ( -0.000000000000000000, 1.000000000000000000, 0.000000000000000000 ) ) ;
#1158 = CARTESIAN_POINT ( 'NONE',  ( 974.0000000000000000, -2.250000000000000000, 25.65151067676113072 ) ) ;
#1159 = ORIENTED_EDGE ( 'NONE', *, *, #364, .T. ) ;
#1160 = FACE_OUTER_BOUND ( 'NONE', #806, .T. ) ;
#1161 = CARTESIAN_POINT ( 'NONE',  ( 974.0000000000000000, 2.250000000000000000, -27.25000000000018119 ) ) ;
#1162 = EDGE_CURVE ( 'NONE', #407, #123, #118, .T. ) ;
#1163 = DIRECTION ( 'NONE',  ( 1.836970198721029934E-16, -0.000000000000000000, 1.000000000000000000 ) ) ;
#1164 = AXIS2_PLACEMENT_3D ( 'NONE', #1178, #632, #904 ) ;
#1165 = VECTOR ( 'NONE', #532, 1000.000000000000000 ) ;
#1166 = ORIENTED_EDGE ( 'NONE', *, *, #1140, .T. ) ;
#1167 = CARTESIAN_POINT ( 'NONE',  ( -1000.000000000000000, 0.000000000000000000, 0.000000000000000000 ) ) ;
#1168 = DIRECTION ( 'NONE',  ( 0.000000000000000000, 0.000000000000000000, -1.000000000000000000 ) ) ;
#1169 = DIRECTION ( 'NONE',  ( 1.000000000000000000, 0.000000000000000000, -1.836970198721029934E-16 ) ) ;
#1170 = ADVANCED_FACE ( 'NONE', ( #472 ), #4, .T. ) ;
#1171 = ORIENTED_EDGE ( 'NONE', *, *, #546, .T. ) ;
#1172 = CARTESIAN_POINT ( 'NONE',  ( 1000.000000000000000, -25.65151067676131902, -2.250000000000177192 ) ) ;
#1173 = CARTESIAN_POINT ( 'NONE',  ( -1000.000000000000000, 0.000000000000000000, 0.000000000000000000 ) ) ;
#1174 = CARTESIAN_POINT ( 'NONE',  ( -1000.000000000000000, 0.000000000000000000, 0.000000000000000000 ) ) ;
#1175 = EDGE_LOOP ( 'NONE', ( #1005, #194, #648, #1155 ) ) ;
#1176 = CARTESIAN_POINT ( 'NONE',  ( 1000.000000000000000, -27.15695122800053696, 2.249999999999822364 ) ) ;
#1177 = EDGE_CURVE ( 'NONE', #123, #1111, #11, .T. ) ;
#1178 = CARTESIAN_POINT ( 'NONE',  ( 929.3102796124093175, 0.000000000000000000, 30.49999999999964473 ) ) ;
#1179 = FACE_OUTER_BOUND ( 'NONE', #635, .T. ) ;
#1180 = APPROVAL_PERSON_ORGANIZATION ( #1154, #805, #122 ) ;
#1181 = VECTOR ( 'NONE', #542, 1000.000000000000000 ) ;
#1182 = ORIENTED_EDGE ( 'NONE', *, *, #438, .F. ) ;
#1183 = DIRECTION ( 'NONE',  ( 0.000000000000000000, 0.000000000000000000, -1.000000000000000000 ) ) ;
#1184 = AXIS2_PLACEMENT_3D ( 'NONE', #360, #347, #1086 ) ;
#1185 = LINE ( 'NONE', #899, #717 ) ;
#1186 = ADVANCED_FACE ( 'NONE', ( #22 ), #269, .F. ) ;
#1187 = LINE ( 'NONE', #358, #254 ) ;
#1188 = VERTEX_POINT ( 'NONE', #457 ) ;
#1189 = CARTESIAN_POINT ( 'NONE',  ( 931.0203803290377209, 0.000000000000000000, -3.547226891787390855E-13 ) ) ;
#1190 = ORIENTED_EDGE ( 'NONE', *, *, #45, .T. ) ;
#1191 = CARTESIAN_POINT ( 'NONE',  ( 930.7049447309401558, 0.000000000000000000, -3.546647445994069893E-13 ) ) ;
ENDSEC;
END-ISO-10303-21;
