ISO-10303-21;
HEADER;
FILE_DESCRIPTION (( 'STEP AP203' ),
    '1' );
FILE_NAME ('79-8466 - 51mm x 1000mm.STEP',
    '2026-09-15T22:03:31',
    ( '' ),
    ( '' ),
    'SwSTEP 2.0',
    'SolidWorks 2026',
    '' );
FILE_SCHEMA (( 'CONFIG_CONTROL_DESIGN' ));
ENDSEC;

DATA;
#1 = CC_DESIGN_PERSON_AND_ORGANIZATION_ASSIGNMENT ( #65, #1004, ( #417 ) ) ;
#2 = EDGE_CURVE ( 'NONE', #522, #600, #875, .T. ) ;
#3 = DIRECTION ( 'NONE',  ( -1.000000000000000000, -0.000000000000000000, 1.836970198721029688E-16 ) ) ;
#4 = CARTESIAN_POINT ( 'NONE',  ( 435.0000000000000000, -2.249999999999999112, 25.65151067676123731 ) ) ;
#5 = ORIENTED_EDGE ( 'NONE', *, *, #1177, .T. ) ;
#6 = CARTESIAN_POINT ( 'NONE',  ( 431.5334105440279586, 0.000000000000000000, -1.711199114282341436E-13 ) ) ;
#7 = CARTESIAN_POINT ( 'NONE',  ( -500.0000000000000000, 0.000000000000000000, 0.000000000000000000 ) ) ;
#8 = EDGE_CURVE ( 'NONE', #116, #983, #578, .T. ) ;
#9 = CARTESIAN_POINT ( 'NONE',  ( 500.0000000000000000, -2.250000000000000000, -27.15695122800062933 ) ) ;
#10 = AXIS2_PLACEMENT_3D ( 'NONE', #122, #403, #485 ) ;
#11 = VERTEX_POINT ( 'NONE', #1033 ) ;
#12 = AXIS2_PLACEMENT_3D ( 'NONE', #1099, #1010, #547 ) ;
#13 = VECTOR ( 'NONE', #481, 1000.000000000000000 ) ;
#14 = CIRCLE ( 'NONE', #319, 6.500000000000002665 ) ;
#15 = VERTEX_POINT ( 'NONE', #383 ) ;
#16 = CARTESIAN_POINT ( 'NONE',  ( 474.0000000000000000, 0.000000000000000000, -8.707238741937680393E-14 ) ) ;
#17 = CLOSED_SHELL ( 'NONE', ( #1046, #327, #135, #309, #799, #459, #168, #292, #1098, #425, #411, #713, #445, #833, #1024, #1066, #873, #1051, #641, #550, #276, #37, #976, #1012, #885, #45, #814, #768, #267, #668, #1038, #423, #867, #1186, #286, #494, #691 ) ) ;
#18 = TOROIDAL_SURFACE ( 'NONE', #36, 22.25000000000004263, 5.000000000000000000 ) ;
#19 = LINE ( 'NONE', #236, #1164 ) ;
#20 = LINE ( 'NONE', #1105, #328 ) ;
#21 = ORIENTED_EDGE ( 'NONE', *, *, #916, .T. ) ;
#22 = VECTOR ( 'NONE', #862, 1000.000000000000000 ) ;
#23 = VERTEX_POINT ( 'NONE', #47 ) ;
#24 = DIRECTION ( 'NONE',  ( 0.000000000000000000, -1.224646799147352961E-16, 1.000000000000000000 ) ) ;
#25 = UNCERTAINTY_MEASURE_WITH_UNIT (LENGTH_MEASURE( 1.000000000000000082E-05 ), #502, 'distance_accuracy_value', 'NONE');
#26 = FACE_OUTER_BOUND ( 'NONE', #1034, .T. ) ;
#27 = DIRECTION ( 'NONE',  ( -1.000000000000000000, 0.000000000000000000, 1.836970198721029688E-16 ) ) ;
#28 = EDGE_LOOP ( 'NONE', ( #697, #343, #1021, #637 ) ) ;
#29 = VERTEX_POINT ( 'NONE', #764 ) ;
#30 = PLANE ( 'NONE',  #373 ) ;
#31 = DIRECTION ( 'NONE',  ( 1.000000000000000000, 0.000000000000000000, 0.000000000000000000 ) ) ;
#32 = EDGE_LOOP ( 'NONE', ( #452, #585, #412, #1008 ) ) ;
#33 = ORIENTED_EDGE ( 'NONE', *, *, #468, .F. ) ;
#34 = DIRECTION ( 'NONE',  ( 0.000000000000000000, 1.243449787580175325E-14, 1.000000000000000000 ) ) ;
#35 = AXIS2_PLACEMENT_3D ( 'NONE', #317, #1060, #690 ) ;
#36 = AXIS2_PLACEMENT_3D ( 'NONE', #170, #920, #640 ) ;
#37 = ADVANCED_FACE ( 'NONE', ( #870 ), #40, .F. ) ;
#38 = CIRCLE ( 'NONE', #811, 25.50000000000000000 ) ;
#39 = CARTESIAN_POINT ( 'NONE',  ( -500.0000000000000000, 0.000000000000000000, -23.99999999999999645 ) ) ;
#40 = CYLINDRICAL_SURFACE ( 'NONE', #1076, 23.99999999999999645 ) ;
#41 = PRODUCT_DEFINITION_SHAPE ( 'NONE', 'NONE',  #58 ) ;
#42 = ORIENTED_EDGE ( 'NONE', *, *, #1006, .T. ) ;
#43 = DIRECTION ( 'NONE',  ( 1.000000000000000000, 0.000000000000000000, -1.836970198721029688E-16 ) ) ;
#44 = EDGE_CURVE ( 'NONE', #11, #84, #959, .T. ) ;
#45 = ADVANCED_FACE ( 'NONE', ( #771 ), #389, .F. ) ;
#46 = PLANE ( 'NONE',  #613 ) ;
#47 = CARTESIAN_POINT ( 'NONE',  ( 500.0000000000000000, -27.15695122800054406, -2.250000000000085265 ) ) ;
#48 = ORIENTED_EDGE ( 'NONE', *, *, #1136, .F. ) ;
#49 = DIRECTION ( 'NONE',  ( 1.836970198721034618E-16, 0.000000000000000000, 1.000000000000000000 ) ) ;
#50 = DIRECTION ( 'NONE',  ( 1.000000000000000000, 0.000000000000000000, -1.836970198721029688E-16 ) ) ;
#51 = EDGE_CURVE ( 'NONE', #517, #655, #1142, .T. ) ;
#52 = ORIENTED_EDGE ( 'NONE', *, *, #150, .F. ) ;
#53 = AXIS2_PLACEMENT_3D ( 'NONE', #379, #1118, #206 ) ;
#54 = DIRECTION ( 'NONE',  ( 1.836970198721029934E-16, -0.000000000000000000, 1.000000000000000000 ) ) ;
#55 = AXIS2_PLACEMENT_3D ( 'NONE', #326, #1140, #560 ) ;
#56 = AXIS2_PLACEMENT_3D ( 'NONE', #415, #888, #149 ) ;
#57 = DIRECTION ( 'NONE',  ( 1.000000000000000000, 0.000000000000000000, -1.836970198721029688E-16 ) ) ;
#58 = PRODUCT_DEFINITION ( 'UNKNOWN', '', #302, #1129 ) ;
#59 = ORIENTED_EDGE ( 'NONE', *, *, #804, .F. ) ;
#60 = DIRECTION ( 'NONE',  ( 1.000000000000000000, 0.000000000000000000, -1.836970198721029934E-16 ) ) ;
#61 = DIRECTION ( 'NONE',  ( 1.836970198721029688E-16, 0.000000000000000000, 1.000000000000000000 ) ) ;
#62 = ORIENTED_EDGE ( 'NONE', *, *, #720, .T. ) ;
#63 = CARTESIAN_POINT ( 'NONE',  ( 435.0000000000000000, -25.65151067676131191, 2.249999999999925837 ) ) ;
#64 = EDGE_CURVE ( 'NONE', #688, #1122, #938, .T. ) ;
#65 = PERSON_AND_ORGANIZATION ( #610, #1115 ) ;
#66 = DIRECTION ( 'NONE',  ( 1.000000000000000000, 0.000000000000000000, -1.836970198721029688E-16 ) ) ;
#67 = ORIENTED_EDGE ( 'NONE', *, *, #896, .F. ) ;
#68 = CARTESIAN_POINT ( 'NONE',  ( 500.0000000000000000, 0.000000000000000000, -9.184850993605148733E-14 ) ) ;
#69 = VECTOR ( 'NONE', #187, 1000.000000000000000 ) ;
#70 = EDGE_CURVE ( 'NONE', #655, #556, #308, .T. ) ;
#71 = VECTOR ( 'NONE', #364, 1000.000000000000000 ) ;
#72 = COORDINATED_UNIVERSAL_TIME_OFFSET ( 1, 0, .AHEAD. ) ;
#73 = VECTOR ( 'NONE', #608, 1000.000000000000000 ) ;
#74 = DIRECTION ( 'NONE',  ( 1.000000000000000000, 0.000000000000000000, -1.836970198721034618E-16 ) ) ;
#75 = ORIENTED_EDGE ( 'NONE', *, *, #851, .F. ) ;
#76 = CARTESIAN_POINT ( 'NONE',  ( 474.0000000000000000, 27.25000000000000000, -2.250000000000080380 ) ) ;
#77 = EDGE_CURVE ( 'NONE', #1040, #1028, #493, .T. ) ;
#78 = ORIENTED_EDGE ( 'NONE', *, *, #681, .T. ) ;
#79 = LINE ( 'NONE', #531, #430 ) ;
#80 = PERSON_AND_ORGANIZATION ( #610, #1115 ) ;
#81 = DIRECTION ( 'NONE',  ( -1.000000000000000000, -0.000000000000000000, 1.836970198721034618E-16 ) ) ;
#82 = EDGE_CURVE ( 'NONE', #84, #186, #427, .T. ) ;
#83 = EDGE_LOOP ( 'NONE', ( #899, #570, #491, #852 ) ) ;
#84 = VERTEX_POINT ( 'NONE', #701 ) ;
#85 = CARTESIAN_POINT ( 'NONE',  ( 430.1919145159533855, 0.000000000000000000, -1.708734826057065877E-13 ) ) ;
#86 = AXIS2_PLACEMENT_3D ( 'NONE', #271, #279, #656 ) ;
#87 = MANIFOLD_SOLID_BREP ( 'Cut-Extrude-Thin1', #17 ) ;
#88 = AXIS2_PLACEMENT_3D ( 'NONE', #7, #180, #992 ) ;
#89 = ORIENTED_EDGE ( 'NONE', *, *, #804, .T. ) ;
#90 = APPROVAL ( #252, 'UNSPECIFIED' ) ;
#91 = ORIENTED_EDGE ( 'NONE', *, *, #553, .T. ) ;
#92 = CARTESIAN_POINT ( 'NONE',  ( 435.8816349035415669, 0.000000000000000000, -25.75000000000007816 ) ) ;
#93 = CARTESIAN_POINT ( 'NONE',  ( 435.0000000000000000, 0.000000000000000000, -27.25000000000007816 ) ) ;
#94 = CIRCLE ( 'NONE', #775, 3.499999999999999556 ) ;
#95 = CARTESIAN_POINT ( 'NONE',  ( 500.0000000000000000, 2.250000000000000000, 25.65151067676122310 ) ) ;
#96 = ORIENTED_EDGE ( 'NONE', *, *, #99, .T. ) ;
#97 = VERTEX_POINT ( 'NONE', #142 ) ;
#98 = FACE_OUTER_BOUND ( 'NONE', #951, .T. ) ;
#99 = EDGE_CURVE ( 'NONE', #593, #556, #975, .T. ) ;
#100 = DIRECTION ( 'NONE',  ( -0.000000000000000000, 1.000000000000000000, 0.000000000000000000 ) ) ;
#101 = LINE ( 'NONE', #182, #946 ) ;
#102 = ORIENTED_EDGE ( 'NONE', *, *, #728, .T. ) ;
#103 = ORIENTED_EDGE ( 'NONE', *, *, #509, .T. ) ;
#104 = LINE ( 'NONE', #361, #161 ) ;
#105 = DIRECTION ( 'NONE',  ( -0.000000000000000000, -1.000000000000000000, -0.000000000000000000 ) ) ;
#106 = DIRECTION ( 'NONE',  ( -1.000000000000000000, -0.000000000000000000, 1.836970198721029688E-16 ) ) ;
#107 = VERTEX_POINT ( 'NONE', #981 ) ;
#108 = ORIENTED_EDGE ( 'NONE', *, *, #704, .F. ) ;
#109 = CARTESIAN_POINT ( 'NONE',  ( 429.3102796124110796, 3.735172737399427541E-15, -30.50000000000017053 ) ) ;
#110 = AXIS2_PLACEMENT_3D ( 'NONE', #813, #57, #706 ) ;
#111 = DIRECTION ( 'NONE',  ( 1.836970198721029688E-16, 0.000000000000000000, 1.000000000000000000 ) ) ;
#112 = CARTESIAN_POINT ( 'NONE',  ( 474.0000000000000000, 25.65151067676131902, -2.250000000000080380 ) ) ;
#113 = ORIENTED_EDGE ( 'NONE', *, *, #1093, .T. ) ;
#114 = EDGE_CURVE ( 'NONE', #1127, #489, #244, .T. ) ;
#115 = CC_DESIGN_APPROVAL ( #339, ( #58 ) ) ;
#116 = VERTEX_POINT ( 'NONE', #789 ) ;
#117 = CARTESIAN_POINT ( 'NONE',  ( 474.0000000000000000, 0.000000000000000000, -8.707238741937679131E-14 ) ) ;
#118 = DIRECTION ( 'NONE',  ( 1.000000000000000000, -0.000000000000000000, -1.836970198721029688E-16 ) ) ;
#119 = ORIENTED_EDGE ( 'NONE', *, *, #728, .F. ) ;
#120 = EDGE_CURVE ( 'NONE', #211, #549, #399, .T. ) ;
#121 = ORIENTED_EDGE ( 'NONE', *, *, #377, .T. ) ;
#122 = CARTESIAN_POINT ( 'NONE',  ( 429.3102796124110796, 0.000000000000000000, -1.707115289013106308E-13 ) ) ;
#123 = DIRECTION ( 'NONE',  ( 0.000000000000000000, 1.598721155460225103E-14, 1.000000000000000000 ) ) ;
#124 = ORIENTED_EDGE ( 'NONE', *, *, #1030, .T. ) ;
#125 = CIRCLE ( 'NONE', #546, 27.25000000000000000 ) ;
#126 = ORIENTED_EDGE ( 'NONE', *, *, #654, .T. ) ;
#127 = FACE_OUTER_BOUND ( 'NONE', #1156, .T. ) ;
#128 = EDGE_CURVE ( 'NONE', #359, #269, #1150, .T. ) ;
#129 = CIRCLE ( 'NONE', #207, 25.75000000000000000 ) ;
#130 = ORIENTED_EDGE ( 'NONE', *, *, #984, .F. ) ;
#131 = ORIENTED_EDGE ( 'NONE', *, *, #579, .F. ) ;
#132 = DIRECTION ( 'NONE',  ( 1.836970198721029934E-16, -0.000000000000000000, 1.000000000000000000 ) ) ;
#133 = CC_DESIGN_APPROVAL ( #90, ( #302 ) ) ;
#134 = CARTESIAN_POINT ( 'NONE',  ( 500.0000000000000000, 0.000000000000000000, -9.184850993605148733E-14 ) ) ;
#135 = ADVANCED_FACE ( 'NONE', ( #1171 ), #628, .F. ) ;
#136 = DIRECTION ( 'NONE',  ( 0.000000000000000000, -3.019806626980425790E-14, 1.000000000000000000 ) ) ;
#137 = DIRECTION ( 'NONE',  ( 0.000000000000000000, 0.000000000000000000, -1.000000000000000000 ) ) ;
#138 = EDGE_LOOP ( 'NONE', ( #950, #177, #126, #264 ) ) ;
#139 = CARTESIAN_POINT ( 'NONE',  ( 429.3102796124110796, 0.000000000000000000, -24.00000000000016698 ) ) ;
#140 = LINE ( 'NONE', #1061, #669 ) ;
#141 = CC_DESIGN_PERSON_AND_ORGANIZATION_ASSIGNMENT ( #611, #1158, ( #483 ) ) ;
#142 = CARTESIAN_POINT ( 'NONE',  ( 474.0000000000000000, 3.337162527676537520E-15, 27.24999999999991473 ) ) ;
#143 = ORIENTED_EDGE ( 'NONE', *, *, #454, .T. ) ;
#144 = CIRCLE ( 'NONE', #179, 27.25000000000000000 ) ;
#145 = FACE_OUTER_BOUND ( 'NONE', #259, .T. ) ;
#146 = AXIS2_PLACEMENT_3D ( 'NONE', #76, #840, #1005 ) ;
#147 = AXIS2_PLACEMENT_3D ( 'NONE', #795, #521, #1074 ) ;
#148 = DIRECTION ( 'NONE',  ( 1.000000000000000000, 0.000000000000000000, -1.836970198721029688E-16 ) ) ;
#149 = DIRECTION ( 'NONE',  ( 0.000000000000000000, 0.000000000000000000, -1.000000000000000000 ) ) ;
#150 = EDGE_CURVE ( 'NONE', #865, #543, #513, .T. ) ;
#151 = ORIENTED_EDGE ( 'NONE', *, *, #524, .T. ) ;
#152 = CARTESIAN_POINT ( 'NONE',  ( 500.0000000000000000, 27.15695122800054051, -2.250000000000085265 ) ) ;
#153 = DATE_AND_TIME ( #902, #855 ) ;
#154 = CARTESIAN_POINT ( 'NONE',  ( -500.0000000000000000, 0.000000000000000000, 0.000000000000000000 ) ) ;
#155 = ORIENTED_EDGE ( 'NONE', *, *, #418, .F. ) ;
#156 = EDGE_CURVE ( 'NONE', #116, #534, #38, .T. ) ;
#157 = FACE_OUTER_BOUND ( 'NONE', #808, .T. ) ;
#158 = CARTESIAN_POINT ( 'NONE',  ( 429.3102796124110796, 0.000000000000000000, -25.50000000000016698 ) ) ;
#159 = ORIENTED_EDGE ( 'NONE', *, *, #597, .F. ) ;
#160 = CARTESIAN_POINT ( 'NONE',  ( -500.0000000000000000, 0.000000000000000000, 0.000000000000000000 ) ) ;
#161 = VECTOR ( 'NONE', #838, 1000.000000000000000 ) ;
#162 = EDGE_CURVE ( 'NONE', #617, #407, #1166, .T. ) ;
#163 = APPROVAL_DATE_TIME ( #1174, #982 ) ;
#164 = CARTESIAN_POINT ( 'NONE',  ( 500.0000000000000000, 0.000000000000000000, -9.184850993605148733E-14 ) ) ;
#165 = ORIENTED_EDGE ( 'NONE', *, *, #362, .T. ) ;
#166 = LINE ( 'NONE', #996, #648 ) ;
#167 = CIRCLE ( 'NONE', #363, 25.75000000000000000 ) ;
#168 = ADVANCED_FACE ( 'NONE', ( #248 ), #185, .T. ) ;
#169 = PERSON_AND_ORGANIZATION ( #610, #1115 ) ;
#170 = CARTESIAN_POINT ( 'NONE',  ( 435.8816349035415669, 0.000000000000000000, -1.259944123167863595E-13 ) ) ;
#171 = AXIS2_PLACEMENT_3D ( 'NONE', #209, #572, #687 ) ;
#172 = ORIENTED_EDGE ( 'NONE', *, *, #1006, .F. ) ;
#173 = EDGE_LOOP ( 'NONE', ( #973, #923, #151, #463, #659, #197, #1176, #1102, #796, #204, #1189, #428 ) ) ;
#174 = DIRECTION ( 'NONE',  ( -1.000000000000000000, -0.000000000000000000, 1.836970198721029688E-16 ) ) ;
#175 = DIRECTION ( 'NONE',  ( 0.000000000000000000, 0.000000000000000000, -1.000000000000000000 ) ) ;
#176 = EDGE_CURVE ( 'NONE', #759, #385, #651, .T. ) ;
#177 = ORIENTED_EDGE ( 'NONE', *, *, #300, .T. ) ;
#178 = CARTESIAN_POINT ( 'NONE',  ( 435.8816349035415669, 0.000000000000000000, -1.259944123167863595E-13 ) ) ;
#179 = AXIS2_PLACEMENT_3D ( 'NONE', #480, #861, #34 ) ;
#180 = DIRECTION ( 'NONE',  ( 1.000000000000000000, 0.000000000000000000, -1.836970198721029688E-16 ) ) ;
#181 = AXIS2_PLACEMENT_3D ( 'NONE', #224, #658, #856 ) ;
#182 = CARTESIAN_POINT ( 'NONE',  ( 435.0000000000000000, -27.15695122800053340, 2.249999999999925837 ) ) ;
#183 = VERTEX_POINT ( 'NONE', #1159 ) ;
#184 = EDGE_CURVE ( 'NONE', #522, #915, #471, .T. ) ;
#185 = CONICAL_SURFACE ( 'NONE', #56, 25.50000000000000000, 0.3490658503988638417 ) ;
#186 = VERTEX_POINT ( 'NONE', #893 ) ;
#187 = DIRECTION ( 'NONE',  ( 1.000000000000000000, 0.000000000000000000, -1.836970198721029688E-16 ) ) ;
#188 = DIRECTION ( 'NONE',  ( 0.000000000000000000, -0.000000000000000000, 1.000000000000000000 ) ) ;
#189 = LOCAL_TIME ( 0, 3, 31.00000000000000000, #520 ) ;
#190 = CARTESIAN_POINT ( 'NONE',  ( 474.0000000000000000, 0.000000000000000000, -8.707238741937680393E-14 ) ) ;
#191 = ORIENTED_EDGE ( 'NONE', *, *, #114, .T. ) ;
#192 = ORIENTED_EDGE ( 'NONE', *, *, #184, .F. ) ;
#193 = DIRECTION ( 'NONE',  ( -1.000000000000000000, 0.000000000000000000, 1.836970198721029688E-16 ) ) ;
#194 = EDGE_CURVE ( 'NONE', #385, #955, #410, .T. ) ;
#195 = DIRECTION ( 'NONE',  ( 0.000000000000000000, 0.000000000000000000, -1.000000000000000000 ) ) ;
#196 = PLANE ( 'NONE',  #947 ) ;
#197 = ORIENTED_EDGE ( 'NONE', *, *, #223, .T. ) ;
#198 = ORIENTED_EDGE ( 'NONE', *, *, #1177, .F. ) ;
#199 = LINE ( 'NONE', #1185, #239 ) ;
#200 = EDGE_CURVE ( 'NONE', #29, #186, #129, .T. ) ;
#201 = DIRECTION ( 'NONE',  ( -1.836970198721029688E-16, 0.000000000000000000, -1.000000000000000000 ) ) ;
#202 = CONICAL_SURFACE ( 'NONE', #1126, 25.50000000000000000, 0.3490658503988638417 ) ;
#203 = DIRECTION ( 'NONE',  ( 1.000000000000000000, 0.000000000000000000, -1.836970198721039795E-16 ) ) ;
#204 = ORIENTED_EDGE ( 'NONE', *, *, #384, .T. ) ;
#205 = VERTEX_POINT ( 'NONE', #158 ) ;
#206 = DIRECTION ( 'NONE',  ( 0.000000000000000000, 0.000000000000000000, 1.000000000000000000 ) ) ;
#207 = AXIS2_PLACEMENT_3D ( 'NONE', #986, #967, #1079 ) ;
#208 = EDGE_CURVE ( 'NONE', #186, #365, #1149, .T. ) ;
#209 = CARTESIAN_POINT ( 'NONE',  ( 435.0000000000000000, 0.000000000000000000, -7.990820364436478514E-14 ) ) ;
#210 = VERTEX_POINT ( 'NONE', #1063 ) ;
#211 = VERTEX_POINT ( 'NONE', #237 ) ;
#212 = CYLINDRICAL_SURFACE ( 'NONE', #667, 25.50000000000000000 ) ;
#213 = DIRECTION ( 'NONE',  ( 1.000000000000000000, 0.000000000000000000, -1.836970198721029934E-16 ) ) ;
#214 = EDGE_CURVE ( 'NONE', #865, #211, #258, .T. ) ;
#215 = ORIENTED_EDGE ( 'NONE', *, *, #120, .T. ) ;
#216 = ORIENTED_EDGE ( 'NONE', *, *, #644, .F. ) ;
#217 = CARTESIAN_POINT ( 'NONE',  ( 434.6845644019017527, 0.000000000000000000, -1.716987690010840627E-13 ) ) ;
#218 = ORIENTED_EDGE ( 'NONE', *, *, #51, .F. ) ;
#219 = AXIS2_PLACEMENT_3D ( 'NONE', #845, #924, #735 ) ;
#220 = VERTEX_POINT ( 'NONE', #514 ) ;
#221 = CARTESIAN_POINT ( 'NONE',  ( 435.8816349035415669, 0.000000000000000000, -8.007015734876060321E-14 ) ) ;
#222 = CIRCLE ( 'NONE', #55, 5.000000000000000888 ) ;
#223 = EDGE_CURVE ( 'NONE', #365, #210, #1183, .T. ) ;
#224 = CARTESIAN_POINT ( 'NONE',  ( 474.0000000000000000, 0.000000000000000000, -8.707238741937680393E-14 ) ) ;
#225 = VECTOR ( 'NONE', #741, 1000.000000000000000 ) ;
#226 = DIRECTION ( 'NONE',  ( 1.000000000000000000, -0.000000000000000000, -1.836970198721029688E-16 ) ) ;
#227 = DIRECTION ( 'NONE',  ( 0.000000000000000000, 0.000000000000000000, 1.000000000000000000 ) ) ;
#228 = ORIENTED_EDGE ( 'NONE', *, *, #460, .T. ) ;
#229 = CARTESIAN_POINT ( 'NONE',  ( 474.0000000000000000, -27.15695122800054051, -2.250000000000080380 ) ) ;
#230 = AXIS2_PLACEMENT_3D ( 'NONE', #603, #487, #31 ) ;
#231 = DIRECTION ( 'NONE',  ( -0.000000000000000000, -1.000000000000000000, -0.000000000000000000 ) ) ;
#232 = AXIS2_PLACEMENT_3D ( 'NONE', #288, #1032, #568 ) ;
#233 =( NAMED_UNIT ( * ) SI_UNIT ( $, .STERADIAN. ) SOLID_ANGLE_UNIT ( ) );
#234 = CARTESIAN_POINT ( 'NONE',  ( 435.8816349035415669, 0.000000000000000000, -8.007015734876060321E-14 ) ) ;
#235 = ORIENTED_EDGE ( 'NONE', *, *, #156, .F. ) ;
#236 = CARTESIAN_POINT ( 'NONE',  ( 474.0000000000000000, 27.25000000000000000, -2.250000000000080380 ) ) ;
#237 = CARTESIAN_POINT ( 'NONE',  ( 435.8816349035415669, 3.337162527676538309E-15, 27.24999999999992184 ) ) ;
#238 = ORIENTED_EDGE ( 'NONE', *, *, #896, .T. ) ;
#239 = VECTOR ( 'NONE', #564, 1000.000000000000000 ) ;
#240 = CARTESIAN_POINT ( 'NONE',  ( 435.0000000000000000, -2.249999999999999112, -25.65151067676139718 ) ) ;
#241 = CIRCLE ( 'NONE', #623, 27.25000000000000000 ) ;
#242 = AXIS2_PLACEMENT_3D ( 'NONE', #926, #100, #188 ) ;
#243 = APPROVAL_STATUS ( 'not_yet_approved' ) ;
#244 = LINE ( 'NONE', #972, #609 ) ;
#245 = EDGE_CURVE ( 'NONE', #983, #1040, #772, .T. ) ;
#246 = ORIENTED_EDGE ( 'NONE', *, *, #468, .T. ) ;
#247 = DIRECTION ( 'NONE',  ( -1.000000000000000000, -0.000000000000000000, 1.836970198721029688E-16 ) ) ;
#248 = FACE_OUTER_BOUND ( 'NONE', #138, .T. ) ;
#249 = VERTEX_POINT ( 'NONE', #621 ) ;
#250 = EDGE_CURVE ( 'NONE', #865, #11, #443, .T. ) ;
#251 = DIRECTION ( 'NONE',  ( 0.000000000000000000, 0.000000000000000000, -1.000000000000000000 ) ) ;
#252 = APPROVAL_STATUS ( 'not_yet_approved' ) ;
#253 = CARTESIAN_POINT ( 'NONE',  ( 434.1715341869132203, 0.000000000000000000, -1.256802719114605766E-13 ) ) ;
#254 = ORIENTED_EDGE ( 'NONE', *, *, #64, .F. ) ;
#255 = DIRECTION ( 'NONE',  ( 0.9396926207859089830, 0.000000000000000000, -0.3420201433256669366 ) ) ;
#256 = EDGE_CURVE ( 'NONE', #183, #269, #999, .T. ) ;
#257 = DIRECTION ( 'NONE',  ( 0.000000000000000000, -1.065814103640150279E-14, 1.000000000000000000 ) ) ;
#258 = CIRCLE ( 'NONE', #358, 27.25000000000000000 ) ;
#259 = EDGE_LOOP ( 'NONE', ( #614, #172, #894, #103 ) ) ;
#260 = ORIENTED_EDGE ( 'NONE', *, *, #901, .F. ) ;
#261 = CARTESIAN_POINT ( 'NONE',  ( 430.7049447309419179, 0.000000000000000000, -24.09046106882130189 ) ) ;
#262 = PERSON_AND_ORGANIZATION ( #610, #1115 ) ;
#263 = TOROIDAL_SURFACE ( 'NONE', #1000, 22.25000000000004263, 3.500000000000000000 ) ;
#264 = ORIENTED_EDGE ( 'NONE', *, *, #542, .F. ) ;
#265 = DIRECTION ( 'NONE',  ( -1.000000000000000000, -0.000000000000000000, 1.836970198721039795E-16 ) ) ;
#266 = DIRECTION ( 'NONE',  ( -1.000000000000000000, -0.000000000000000000, 1.836970198721029688E-16 ) ) ;
#267 = ADVANCED_FACE ( 'NONE', ( #828 ), #533, .T. ) ;
#268 = CARTESIAN_POINT ( 'NONE',  ( 435.8816349035415669, 0.000000000000000000, -1.259944123167863595E-13 ) ) ;
#269 = VERTEX_POINT ( 'NONE', #723 ) ;
#270 = ORIENTED_EDGE ( 'NONE', *, *, #353, .F. ) ;
#271 = CARTESIAN_POINT ( 'NONE',  ( 474.0000000000000000, -2.250000000000000000, -27.25000000000008527 ) ) ;
#272 = AXIS2_PLACEMENT_3D ( 'NONE', #1094, #1088, #257 ) ;
#273 = DIRECTION ( 'NONE',  ( 1.000000000000000000, -0.000000000000000000, -1.836970198721029688E-16 ) ) ;
#274 = AXIS2_PLACEMENT_3D ( 'NONE', #160, #624, #251 ) ;
#275 = DIRECTION ( 'NONE',  ( 0.000000000000000000, 0.000000000000000000, 1.000000000000000000 ) ) ;
#276 = ADVANCED_FACE ( 'NONE', ( #1187 ), #18, .T. ) ;
#277 = ORIENTED_EDGE ( 'NONE', *, *, #1116, .F. ) ;
#278 = ORIENTED_EDGE ( 'NONE', *, *, #761, .T. ) ;
#279 = DIRECTION ( 'NONE',  ( -0.000000000000000000, 1.000000000000000000, 0.000000000000000000 ) ) ;
#280 = DIRECTION ( 'NONE',  ( 1.836970198721034618E-16, 0.000000000000000000, 1.000000000000000000 ) ) ;
#281 = CC_DESIGN_APPROVAL ( #982, ( #417 ) ) ;
#282 = DIRECTION ( 'NONE',  ( 1.836970198721029688E-16, 0.000000000000000000, 1.000000000000000000 ) ) ;
#283 = ORIENTED_EDGE ( 'NONE', *, *, #214, .T. ) ;
#284 = ORIENTED_EDGE ( 'NONE', *, *, #537, .T. ) ;
#285 = CARTESIAN_POINT ( 'NONE',  ( 474.0000000000000000, 2.250000000000000000, -27.25000000000008527 ) ) ;
#286 = ADVANCED_FACE ( 'NONE', ( #536 ), #629, .T. ) ;
#287 = CARTESIAN_POINT ( 'NONE',  ( 435.0000000000000000, 3.337162527676537520E-15, 27.24999999999992184 ) ) ;
#288 = CARTESIAN_POINT ( 'NONE',  ( 500.0000000000000000, 0.000000000000000000, -1.836970198721029747E-13 ) ) ;
#289 = ORIENTED_EDGE ( 'NONE', *, *, #400, .F. ) ;
#290 = EDGE_LOOP ( 'NONE', ( #390, #62, #1077, #917 ) ) ;
#291 = DIRECTION ( 'NONE',  ( -1.000000000000000000, 0.000000000000000000, 1.836970198721029688E-16 ) ) ;
#292 = ADVANCED_FACE ( 'NONE', ( #749 ), #903, .T. ) ;
#293 = AXIS2_PLACEMENT_3D ( 'NONE', #178, #639, #1009 ) ;
#294 = DIRECTION ( 'NONE',  ( -1.836970198721029688E-16, 0.000000000000000000, -1.000000000000000000 ) ) ;
#295 = CARTESIAN_POINT ( 'NONE',  ( 474.0000000000000000, 27.25000000000000000, 2.249999999999919176 ) ) ;
#296 = VECTOR ( 'NONE', #231, 1000.000000000000000 ) ;
#297 = ORIENTED_EDGE ( 'NONE', *, *, #674, .F. ) ;
#298 = DIRECTION ( 'NONE',  ( 1.000000000000000000, 0.000000000000000000, -1.836970198721029934E-16 ) ) ;
#299 = AXIS2_PLACEMENT_3D ( 'NONE', #604, #696, #507 ) ;
#300 = EDGE_CURVE ( 'NONE', #1040, #549, #636, .T. ) ;
#301 = DIRECTION ( 'NONE',  ( 0.000000000000000000, 0.000000000000000000, -1.000000000000000000 ) ) ;
#302 = PRODUCT_DEFINITION_FORMATION_WITH_SPECIFIED_SOURCE ( 'ANY', '', #483, .NOT_KNOWN. ) ;
#303 = ORIENTED_EDGE ( 'NONE', *, *, #931, .T. ) ;
#304 = ORIENTED_EDGE ( 'NONE', *, *, #332, .F. ) ;
#305 = DIRECTION ( 'NONE',  ( 0.000000000000000000, 0.000000000000000000, -1.000000000000000000 ) ) ;
#306 = ADVANCED_BREP_SHAPE_REPRESENTATION ( '79-8466 - 51mm x 1000mm', ( #87, #230 ), #325 ) ;
#307 = DIRECTION ( 'NONE',  ( 1.000000000000000000, 0.000000000000000000, -1.836970198721029688E-16 ) ) ;
#308 = LINE ( 'NONE', #680, #672 ) ;
#309 = ADVANCED_FACE ( 'NONE', ( #541 ), #736, .F. ) ;
#310 = VERTEX_POINT ( 'NONE', #1104 ) ;
#311 = FACE_OUTER_BOUND ( 'NONE', #28, .T. ) ;
#312 = PLANE ( 'NONE',  #181 ) ;
#313 = DIRECTION ( 'NONE',  ( 0.000000000000000000, 0.000000000000000000, -1.000000000000000000 ) ) ;
#314 = CARTESIAN_POINT ( 'NONE',  ( 431.0203803290394262, 0.000000000000000000, -1.710256693066364137E-13 ) ) ;
#315 = VECTOR ( 'NONE', #499, 1000.000000000000000 ) ;
#316 = ORIENTED_EDGE ( 'NONE', *, *, #184, .T. ) ;
#317 = CARTESIAN_POINT ( 'NONE',  ( 500.0000000000000000, 0.000000000000000000, -9.184850993605148733E-14 ) ) ;
#318 = CIRCLE ( 'NONE', #809, 25.75000000000000000 ) ;
#319 = AXIS2_PLACEMENT_3D ( 'NONE', #354, #519, #1082 ) ;
#320 = DIRECTION ( 'NONE',  ( 1.000000000000000000, 0.000000000000000000, -1.836970198721029688E-16 ) ) ;
#321 = AXIS2_PLACEMENT_3D ( 'NONE', #863, #858, #470 ) ;
#322 = LINE ( 'NONE', #39, #754 ) ;
#323 = DIRECTION ( 'NONE',  ( 1.000000000000000000, 0.000000000000000000, -1.836970198721039795E-16 ) ) ;
#324 = ORIENTED_EDGE ( 'NONE', *, *, #537, .F. ) ;
#325 =( GEOMETRIC_REPRESENTATION_CONTEXT ( 3 ) GLOBAL_UNCERTAINTY_ASSIGNED_CONTEXT ( ( #25 ) ) GLOBAL_UNIT_ASSIGNED_CONTEXT ( ( #502, #700, #233 ) ) REPRESENTATION_CONTEXT ( 'NONE', 'WORKASPACE' ) );
#326 = CARTESIAN_POINT ( 'NONE',  ( 429.3102796124110796, 3.735172737399427541E-15, -30.50000000000017053 ) ) ;
#327 = ADVANCED_FACE ( 'NONE', ( #913 ), #1130, .T. ) ;
#328 = VECTOR ( 'NONE', #1188, 1000.000000000000000 ) ;
#329 = DIRECTION ( 'NONE',  ( 0.000000000000000000, 0.000000000000000000, 1.000000000000000000 ) ) ;
#330 = ORIENTED_EDGE ( 'NONE', *, *, #819, .T. ) ;
#331 = CARTESIAN_POINT ( 'NONE',  ( -500.0000000000000000, 0.000000000000000000, -25.50000000000000000 ) ) ;
#332 = EDGE_CURVE ( 'NONE', #543, #549, #1056, .T. ) ;
#333 = PERSON_AND_ORGANIZATION ( #610, #1115 ) ;
#334 = CARTESIAN_POINT ( 'NONE',  ( 430.7049447309419179, 0.000000000000000000, -1.709677247273043175E-13 ) ) ;
#335 = ORIENTED_EDGE ( 'NONE', *, *, #1030, .F. ) ;
#336 = VECTOR ( 'NONE', #964, 1000.000000000000000 ) ;
#337 = DIRECTION ( 'NONE',  ( 0.000000000000000000, 0.000000000000000000, -1.000000000000000000 ) ) ;
#338 = CIRCLE ( 'NONE', #1015, 27.25000000000000000 ) ;
#339 = APPROVAL ( #340, 'UNSPECIFIED' ) ;
#340 = APPROVAL_STATUS ( 'not_yet_approved' ) ;
#341 = DIRECTION ( 'NONE',  ( 0.000000000000000000, 0.000000000000000000, -1.000000000000000000 ) ) ;
#342 = EDGE_CURVE ( 'NONE', #249, #489, #822, .T. ) ;
#343 = ORIENTED_EDGE ( 'NONE', *, *, #176, .T. ) ;
#344 = DIRECTION ( 'NONE',  ( -1.000000000000000000, -0.000000000000000000, 1.836970198721034618E-16 ) ) ;
#345 = COORDINATED_UNIVERSAL_TIME_OFFSET ( 1, 0, .AHEAD. ) ;
#346 = CARTESIAN_POINT ( 'NONE',  ( 474.0000000000000000, 2.250000000000000000, -27.25000000000008527 ) ) ;
#347 = EDGE_CURVE ( 'NONE', #1002, #655, #356, .T. ) ;
#348 = ORIENTED_EDGE ( 'NONE', *, *, #674, .T. ) ;
#349 = CARTESIAN_POINT ( 'NONE',  ( 500.0000000000000000, 27.25000000000000000, 2.249999999999914291 ) ) ;
#350 = APPLICATION_PROTOCOL_DEFINITION ( 'international standard', 'config_control_design', 1994, #864 ) ;
#351 = CARTESIAN_POINT ( 'NONE',  ( 500.0000000000000000, 2.249999999999999556, -25.65151067676141139 ) ) ;
#352 = ORIENTED_EDGE ( 'NONE', *, *, #925, .T. ) ;
#353 = EDGE_CURVE ( 'NONE', #534, #205, #439, .T. ) ;
#354 = CARTESIAN_POINT ( 'NONE',  ( 429.3102796124110796, 0.000000000000000000, 30.49999999999982947 ) ) ;
#355 = AXIS2_PLACEMENT_3D ( 'NONE', #117, #492, #872 ) ;
#356 = CIRCLE ( 'NONE', #607, 25.75000000000000000 ) ;
#357 = DIRECTION ( 'NONE',  ( 0.000000000000000000, -1.000000000000000000, 0.000000000000000000 ) ) ;
#358 = AXIS2_PLACEMENT_3D ( 'NONE', #234, #74, #329 ) ;
#359 = VERTEX_POINT ( 'NONE', #461 ) ;
#360 = ORIENTED_EDGE ( 'NONE', *, *, #162, .T. ) ;
#361 = CARTESIAN_POINT ( 'NONE',  ( 500.0000000000000000, 2.250000000000000000, -27.25000000000008882 ) ) ;
#362 = EDGE_CURVE ( 'NONE', #593, #249, #241, .T. ) ;
#363 = AXIS2_PLACEMENT_3D ( 'NONE', #971, #960, #301 ) ;
#364 = DIRECTION ( 'NONE',  ( 0.9396926207859092051, 4.188538737676967729E-17, 0.3420201433256666035 ) ) ;
#365 = VERTEX_POINT ( 'NONE', #351 ) ;
#366 = ORIENTED_EDGE ( 'NONE', *, *, #377, .F. ) ;
#367 = FACE_OUTER_BOUND ( 'NONE', #963, .T. ) ;
#368 = EDGE_CURVE ( 'NONE', #1127, #955, #788, .T. ) ;
#369 = CARTESIAN_POINT ( 'NONE',  ( 474.0000000000000000, 0.000000000000000000, -8.707238741937679131E-14 ) ) ;
#370 = CARTESIAN_POINT ( 'NONE',  ( 430.7049447309419179, 0.000000000000000000, -1.709677247273043175E-13 ) ) ;
#371 = ORIENTED_EDGE ( 'NONE', *, *, #654, .F. ) ;
#372 = DIRECTION ( 'NONE',  ( 1.000000000000000000, 0.000000000000000000, -1.836970198721039795E-16 ) ) ;
#373 = AXIS2_PLACEMENT_3D ( 'NONE', #576, #43, #766 ) ;
#374 = CARTESIAN_POINT ( 'NONE',  ( 435.0000000000000000, -25.65151067676131547, -2.250000000000072387 ) ) ;
#375 = LINE ( 'NONE', #1100, #13 ) ;
#376 = EDGE_LOOP ( 'NONE', ( #283, #121, #198, #689, #1172, #660, #783, #752, #1013, #886, #1143, #1182 ) ) ;
#377 = EDGE_CURVE ( 'NONE', #211, #97, #596, .T. ) ;
#378 = VECTOR ( 'NONE', #266, 1000.000000000000000 ) ;
#379 = CARTESIAN_POINT ( 'NONE',  ( 429.3102796124110796, 0.000000000000000000, -1.707115289013106308E-13 ) ) ;
#380 = CARTESIAN_POINT ( 'NONE',  ( 500.0000000000000000, 0.000000000000000000, -9.184850993605148733E-14 ) ) ;
#381 = APPROVAL_PERSON_ORGANIZATION ( #333, #90, #705 ) ;
#382 = CARTESIAN_POINT ( 'NONE',  ( 435.0000000000000000, -27.15695122800053696, -2.250000000000072387 ) ) ;
#383 = CARTESIAN_POINT ( 'NONE',  ( 500.0000000000000000, -27.15695122800053696, 2.249999999999914291 ) ) ;
#384 = EDGE_CURVE ( 'NONE', #556, #929, #708, .T. ) ;
#385 = VERTEX_POINT ( 'NONE', #970 ) ;
#386 = PLANE ( 'NONE',  #1179 ) ;
#387 = LINE ( 'NONE', #762, #296 ) ;
#388 = CARTESIAN_POINT ( 'NONE',  ( 429.3102796124110796, 0.000000000000000000, -1.707115289013108580E-13 ) ) ;
#389 = PLANE ( 'NONE',  #1148 ) ;
#390 = ORIENTED_EDGE ( 'NONE', *, *, #644, .T. ) ;
#391 = CARTESIAN_POINT ( 'NONE',  ( 474.0000000000000000, -2.250000000000000000, -27.25000000000008527 ) ) ;
#392 = CC_DESIGN_PERSON_AND_ORGANIZATION_ASSIGNMENT ( #169, #717, ( #302 ) ) ;
#393 = AXIS2_PLACEMENT_3D ( 'NONE', #810, #265, #1035 ) ;
#394 = LINE ( 'NONE', #495, #496 ) ;
#395 = CARTESIAN_POINT ( 'NONE',  ( -500.0000000000000000, 0.000000000000000000, 0.000000000000000000 ) ) ;
#396 = VECTOR ( 'NONE', #554, 1000.000000000000000 ) ;
#397 = ORIENTED_EDGE ( 'NONE', *, *, #618, .F. ) ;
#398 = LINE ( 'NONE', #391, #336 ) ;
#399 = CIRCLE ( 'NONE', #147, 5.000000000000000888 ) ;
#400 = EDGE_CURVE ( 'NONE', #205, #1028, #222, .T. ) ;
#401 = DIRECTION ( 'NONE',  ( 0.000000000000000000, -0.000000000000000000, 1.000000000000000000 ) ) ;
#402 = ORIENTED_EDGE ( 'NONE', *, *, #194, .T. ) ;
#403 = DIRECTION ( 'NONE',  ( -1.000000000000000000, -0.000000000000000000, 1.836970198721029688E-16 ) ) ;
#404 = EDGE_CURVE ( 'NONE', #759, #1122, #726, .T. ) ;
#405 = DIRECTION ( 'NONE',  ( 1.000000000000000000, 0.000000000000000000, -1.836970198721029688E-16 ) ) ;
#406 = CARTESIAN_POINT ( 'NONE',  ( 474.0000000000000000, 2.250000000000000000, -27.25000000000008527 ) ) ;
#407 = VERTEX_POINT ( 'NONE', #932 ) ;
#408 = LINE ( 'NONE', #678, #315 ) ;
#409 = CARTESIAN_POINT ( 'NONE',  ( 500.0000000000000000, 0.000000000000000000, -1.836970198721029747E-13 ) ) ;
#410 = LINE ( 'NONE', #712, #729 ) ;
#411 = ADVANCED_FACE ( 'NONE', ( #887 ), #1055, .T. ) ;
#412 = ORIENTED_EDGE ( 'NONE', *, *, #901, .T. ) ;
#413 = DIRECTION ( 'NONE',  ( 0.000000000000000000, -1.224646799147352961E-16, 1.000000000000000000 ) ) ;
#414 = LINE ( 'NONE', #1049, #22 ) ;
#415 = CARTESIAN_POINT ( 'NONE',  ( 430.1919145159533855, 0.000000000000000000, -1.708734826057065877E-13 ) ) ;
#416 = EDGE_LOOP ( 'NONE', ( #348, #745, #89, #270 ) ) ;
#417 = SECURITY_CLASSIFICATION ( '', '', #800 ) ;
#418 = EDGE_CURVE ( 'NONE', #269, #922, #19, .T. ) ;
#419 = DIRECTION ( 'NONE',  ( 1.000000000000000000, -0.000000000000000000, -1.836970198721029688E-16 ) ) ;
#420 = CALENDAR_DATE ( 2026, 16, 9 ) ;
#421 = DIRECTION ( 'NONE',  ( 0.000000000000000000, 0.000000000000000000, -1.000000000000000000 ) ) ;
#422 = ORIENTED_EDGE ( 'NONE', *, *, #559, .F. ) ;
#423 = ADVANCED_FACE ( 'NONE', ( #26 ), #312, .F. ) ;
#424 = CARTESIAN_POINT ( 'NONE',  ( 434.1715341869132203, 3.300234908216796381E-15, 26.94846310392945909 ) ) ;
#425 = ADVANCED_FACE ( 'NONE', ( #590 ), #500, .T. ) ;
#426 = CALENDAR_DATE ( 2026, 16, 9 ) ;
#427 = LINE ( 'NONE', #346, #962 ) ;
#428 = ORIENTED_EDGE ( 'NONE', *, *, #368, .T. ) ;
#429 = CIRCLE ( 'NONE', #565, 23.99999999999999645 ) ;
#430 = VECTOR ( 'NONE', #1070, 1000.000000000000227 ) ;
#431 = DIRECTION ( 'NONE',  ( 1.000000000000000000, 0.000000000000000000, -1.836970198721029688E-16 ) ) ;
#432 = VECTOR ( 'NONE', #174, 1000.000000000000000 ) ;
#433 = EDGE_CURVE ( 'NONE', #183, #1160, #318, .T. ) ;
#434 = VECTOR ( 'NONE', #526, 1000.000000000000000 ) ;
#435 = DIRECTION ( 'NONE',  ( 1.000000000000000000, 0.000000000000000000, -1.836970198721029688E-16 ) ) ;
#436 = ORIENTED_EDGE ( 'NONE', *, *, #250, .T. ) ;
#437 = CARTESIAN_POINT ( 'NONE',  ( 429.3102796124110796, 0.000000000000000000, -1.707115289013108580E-13 ) ) ;
#438 = AXIS2_PLACEMENT_3D ( 'NONE', #370, #203, #475 ) ;
#439 = LINE ( 'NONE', #1018, #396 ) ;
#440 = ORIENTED_EDGE ( 'NONE', *, *, #742, .F. ) ;
#441 = LINE ( 'NONE', #240, #1146 ) ;
#442 = PERSON_AND_ORGANIZATION_ROLE ( 'design_supplier' ) ;
#443 = LINE ( 'NONE', #93, #225 ) ;
#444 = VERTEX_POINT ( 'NONE', #847 ) ;
#445 = ADVANCED_FACE ( 'NONE', ( #756 ), #693, .T. ) ;
#446 = ORIENTED_EDGE ( 'NONE', *, *, #782, .F. ) ;
#447 = CARTESIAN_POINT ( 'NONE',  ( 474.0000000000000000, 25.65151067676131547, 2.249999999999919176 ) ) ;
#448 = VECTOR ( 'NONE', #1161, 1000.000000000000000 ) ;
#449 = DIRECTION ( 'NONE',  ( -1.000000000000000000, -0.000000000000000000, 1.836970198721039795E-16 ) ) ;
#450 = AXIS2_PLACEMENT_3D ( 'NONE', #884, #357, #175 ) ;
#451 = VERTEX_POINT ( 'NONE', #878 ) ;
#452 = ORIENTED_EDGE ( 'NONE', *, *, #1136, .T. ) ;
#453 = DIRECTION ( 'NONE',  ( 2.249639673992792433E-32, 1.000000000000000000, 1.224646799147353207E-16 ) ) ;
#454 = EDGE_CURVE ( 'NONE', #107, #510, #993, .T. ) ;
#455 = DIRECTION ( 'NONE',  ( 0.000000000000000000, 0.000000000000000000, -1.000000000000000000 ) ) ;
#456 = LINE ( 'NONE', #4, #594 ) ;
#457 = ORIENTED_EDGE ( 'NONE', *, *, #1131, .F. ) ;
#458 = CARTESIAN_POINT ( 'NONE',  ( 474.0000000000000000, -2.250000000000000000, 25.65151067676122665 ) ) ;
#459 = ADVANCED_FACE ( 'NONE', ( #473 ), #1181, .F. ) ;
#460 = EDGE_CURVE ( 'NONE', #929, #249, #140, .T. ) ;
#461 = CARTESIAN_POINT ( 'NONE',  ( 474.0000000000000000, -25.65151067676131547, 2.249999999999919176 ) ) ;
#462 = LINE ( 'NONE', #849, #792 ) ;
#463 = ORIENTED_EDGE ( 'NONE', *, *, #200, .T. ) ;
#464 = ORIENTED_EDGE ( 'NONE', *, *, #602, .T. ) ;
#465 = FACE_OUTER_BOUND ( 'NONE', #871, .T. ) ;
#466 = AXIS2_PLACEMENT_3D ( 'NONE', #753, #193, #918 ) ;
#467 = CARTESIAN_POINT ( 'NONE',  ( 435.0000000000000000, 0.000000000000000000, -7.990820364436478514E-14 ) ) ;
#468 = EDGE_CURVE ( 'NONE', #631, #1002, #387, .T. ) ;
#469 = CARTESIAN_POINT ( 'NONE',  ( 474.0000000000000000, 3.153465507804434404E-15, 25.74999999999991118 ) ) ;
#470 = DIRECTION ( 'NONE',  ( 0.000000000000000000, 0.000000000000000000, 1.000000000000000000 ) ) ;
#471 = CIRCLE ( 'NONE', #110, 25.75000000000000000 ) ;
#472 = FACE_OUTER_BOUND ( 'NONE', #569, .T. ) ;
#473 = FACE_OUTER_BOUND ( 'NONE', #910, .T. ) ;
#474 = AXIS2_PLACEMENT_3D ( 'NONE', #1132, #1062, #136 ) ;
#475 = DIRECTION ( 'NONE',  ( 0.000000000000000000, 0.000000000000000000, -1.000000000000000000 ) ) ;
#476 = CC_DESIGN_PERSON_AND_ORGANIZATION_ASSIGNMENT ( #80, #711, ( #58 ) ) ;
#477 = CARTESIAN_POINT ( 'NONE',  ( -500.0000000000000000, 3.122849337825750222E-15, 25.50000000000000000 ) ) ;
#478 = CIRCLE ( 'NONE', #854, 27.25000000000000000 ) ;
#479 = ORIENTED_EDGE ( 'NONE', *, *, #890, .F. ) ;
#480 = CARTESIAN_POINT ( 'NONE',  ( 474.0000000000000000, 0.000000000000000000, -8.707238741937679131E-14 ) ) ;
#481 = DIRECTION ( 'NONE',  ( 1.000000000000000000, 0.000000000000000000, -1.836970198721029688E-16 ) ) ;
#482 = DIRECTION ( 'NONE',  ( 1.000000000000000000, 0.000000000000000000, -1.836970198721029688E-16 ) ) ;
#483 = PRODUCT ( '79-8466 - 51mm x 1000mm', '79-8466 - 51mm x 1000mm', '', ( #787 ) ) ;
#484 = ORIENTED_EDGE ( 'NONE', *, *, #634, .T. ) ;
#485 = DIRECTION ( 'NONE',  ( 0.000000000000000000, 0.000000000000000000, -1.000000000000000000 ) ) ;
#486 = CIRCLE ( 'NONE', #10, 23.99999999999999645 ) ;
#487 = DIRECTION ( 'NONE',  ( 0.000000000000000000, 0.000000000000000000, 1.000000000000000000 ) ) ;
#488 = VECTOR ( 'NONE', #106, 1000.000000000000000 ) ;
#489 = VERTEX_POINT ( 'NONE', #699 ) ;
#490 = VECTOR ( 'NONE', #703, 1000.000000000000000 ) ;
#491 = ORIENTED_EDGE ( 'NONE', *, *, #859, .T. ) ;
#492 = DIRECTION ( 'NONE',  ( 1.000000000000000000, -0.000000000000000000, -1.836970198721029688E-16 ) ) ;
#493 = CIRCLE ( 'NONE', #919, 25.80153689607045209 ) ;
#494 = ADVANCED_FACE ( 'NONE', ( #145 ), #505, .F. ) ;
#495 = CARTESIAN_POINT ( 'NONE',  ( 435.0000000000000000, 25.65151067676131547, -2.250000000000072387 ) ) ;
#496 = VECTOR ( 'NONE', #148, 1000.000000000000000 ) ;
#497 = ORIENTED_EDGE ( 'NONE', *, *, #839, .T. ) ;
#498 = ORIENTED_EDGE ( 'NONE', *, *, #300, .F. ) ;
#499 = DIRECTION ( 'NONE',  ( 0.9396926207859092051, 4.188538737676967729E-17, 0.3420201433256666035 ) ) ;
#500 = CYLINDRICAL_SURFACE ( 'NONE', #883, 27.25000000000000000 ) ;
#501 = EDGE_CURVE ( 'NONE', #220, #11, #338, .T. ) ;
#502 =( LENGTH_UNIT ( ) NAMED_UNIT ( * ) SI_UNIT ( .MILLI., .METRE. ) );
#503 = CARTESIAN_POINT ( 'NONE',  ( 500.0000000000000000, 27.25000000000000000, 2.249999999999914291 ) ) ;
#504 = EDGE_LOOP ( 'NONE', ( #563, #238, #260, #397 ) ) ;
#505 = PLANE ( 'NONE',  #868 ) ;
#506 = CARTESIAN_POINT ( 'NONE',  ( 474.0000000000000000, 0.000000000000000000, -8.707238741937679131E-14 ) ) ;
#507 = DIRECTION ( 'NONE',  ( 0.000000000000000000, -1.224646799147353454E-16, 1.000000000000000000 ) ) ;
#508 = AXIS2_PLACEMENT_3D ( 'NONE', #545, #832, #1191 ) ;
#509 = EDGE_CURVE ( 'NONE', #915, #15, #1168, .T. ) ;
#510 = VERTEX_POINT ( 'NONE', #152 ) ;
#511 = AXIS2_PLACEMENT_3D ( 'NONE', #134, #791, #1119 ) ;
#512 = DIRECTION ( 'NONE',  ( 2.249639673992792433E-32, 1.000000000000000000, 1.224646799147353207E-16 ) ) ;
#513 = CIRCLE ( 'NONE', #299, 5.000000000000000888 ) ;
#514 = CARTESIAN_POINT ( 'NONE',  ( 474.0000000000000000, -2.250000000000000000, -27.15695122800062222 ) ) ;
#515 = APPROVAL_PERSON_ORGANIZATION ( #998, #982, #620 ) ;
#516 = CC_DESIGN_PERSON_AND_ORGANIZATION_ASSIGNMENT ( #262, #442, ( #302 ) ) ;
#517 = VERTEX_POINT ( 'NONE', #895 ) ;
#518 = CIRCLE ( 'NONE', #474, 27.25000000000000000 ) ;
#519 = DIRECTION ( 'NONE',  ( 0.000000000000000000, -1.000000000000000000, 0.000000000000000000 ) ) ;
#520 = COORDINATED_UNIVERSAL_TIME_OFFSET ( 1, 0, .AHEAD. ) ;
#521 = DIRECTION ( 'NONE',  ( 0.000000000000000000, -1.000000000000000000, 0.000000000000000000 ) ) ;
#522 = VERTEX_POINT ( 'NONE', #523 ) ;
#523 = CARTESIAN_POINT ( 'NONE',  ( 500.0000000000000000, -2.249999999999999556, 25.65151067676123375 ) ) ;
#524 = EDGE_CURVE ( 'NONE', #759, #29, #166, .T. ) ;
#525 = CALENDAR_DATE ( 2026, 16, 9 ) ;
#526 = DIRECTION ( 'NONE',  ( 1.000000000000000000, 0.000000000000000000, -1.836970198721029688E-16 ) ) ;
#527 = EDGE_LOOP ( 'NONE', ( #643, #96, #630, #218 ) ) ;
#528 = CIRCLE ( 'NONE', #219, 25.80153689607045209 ) ;
#529 = AXIS2_PLACEMENT_3D ( 'NONE', #253, #449, #455 ) ;
#530 = AXIS2_PLACEMENT_3D ( 'NONE', #217, #956, #784 ) ;
#531 = CARTESIAN_POINT ( 'NONE',  ( 430.1919145159533855, 0.000000000000000000, -25.50000000000016698 ) ) ;
#532 = DATE_TIME_ROLE ( 'creation_date' ) ;
#533 = PLANE ( 'NONE',  #242 ) ;
#534 = VERTEX_POINT ( 'NONE', #331 ) ;
#535 = CARTESIAN_POINT ( 'NONE',  ( 500.0000000000000000, 25.65151067676131547, 2.249999999999914291 ) ) ;
#536 = FACE_OUTER_BOUND ( 'NONE', #911, .T. ) ;
#537 = EDGE_CURVE ( 'NONE', #407, #617, #958, .T. ) ;
#538 = ORIENTED_EDGE ( 'NONE', *, *, #839, .F. ) ;
#539 = ORIENTED_EDGE ( 'NONE', *, *, #618, .T. ) ;
#540 = LINE ( 'NONE', #261, #625 ) ;
#541 = FACE_OUTER_BOUND ( 'NONE', #719, .T. ) ;
#542 = EDGE_CURVE ( 'NONE', #1028, #543, #79, .T. ) ;
#543 = VERTEX_POINT ( 'NONE', #900 ) ;
#544 = ORIENTED_EDGE ( 'NONE', *, *, #223, .F. ) ;
#545 = CARTESIAN_POINT ( 'NONE',  ( 429.3102796124110796, 0.000000000000000000, -1.707115289013106308E-13 ) ) ;
#546 = AXIS2_PLACEMENT_3D ( 'NONE', #221, #779, #588 ) ;
#547 = DIRECTION ( 'NONE',  ( 0.000000000000000000, 0.000000000000000000, -1.000000000000000000 ) ) ;
#548 = DIRECTION ( 'NONE',  ( -0.000000000000000000, -1.000000000000000000, -0.000000000000000000 ) ) ;
#549 = VERTEX_POINT ( 'NONE', #424 ) ;
#550 = ADVANCED_FACE ( 'NONE', ( #157 ), #1108, .F. ) ;
#551 = EDGE_LOOP ( 'NONE', ( #5, #124, #575, #580, #944, #191 ) ) ;
#552 = CARTESIAN_POINT ( 'NONE',  ( 434.6845644019017527, 3.127616174182618643E-15, 25.53892417275059401 ) ) ;
#553 = EDGE_CURVE ( 'NONE', #1138, #790, #14, .T. ) ;
#554 = DIRECTION ( 'NONE',  ( 1.000000000000000000, 0.000000000000000000, -1.836970198721029688E-16 ) ) ;
#555 = FACE_BOUND ( 'NONE', #1081, .T. ) ;
#556 = VERTEX_POINT ( 'NONE', #535 ) ;
#557 = ORIENTED_EDGE ( 'NONE', *, *, #579, .T. ) ;
#558 = CARTESIAN_POINT ( 'NONE',  ( -500.0000000000000000, 0.000000000000000000, 0.000000000000000000 ) ) ;
#559 = EDGE_CURVE ( 'NONE', #631, #510, #1178, .T. ) ;
#560 = DIRECTION ( 'NONE',  ( 0.000000000000000000, -1.224646799147353454E-16, 1.000000000000000000 ) ) ;
#561 = LINE ( 'NONE', #382, #488 ) ;
#562 = ORIENTED_EDGE ( 'NONE', *, *, #256, .F. ) ;
#563 = ORIENTED_EDGE ( 'NONE', *, *, #761, .F. ) ;
#564 = DIRECTION ( 'NONE',  ( -0.000000000000000000, -1.000000000000000000, -0.000000000000000000 ) ) ;
#565 = AXIS2_PLACEMENT_3D ( 'NONE', #1078, #247, #615 ) ;
#566 = AXIS2_PLACEMENT_3D ( 'NONE', #1025, #601, #195 ) ;
#567 = DIRECTION ( 'NONE',  ( 0.000000000000000000, 0.000000000000000000, -1.000000000000000000 ) ) ;
#568 = DIRECTION ( 'NONE',  ( -1.836970198721029688E-16, 0.000000000000000000, -1.000000000000000000 ) ) ;
#569 = EDGE_LOOP ( 'NONE', ( #829, #622, #1101, #733, #1167, #277 ) ) ;
#570 = ORIENTED_EDGE ( 'NONE', *, *, #997, .T. ) ;
#571 = DIRECTION ( 'NONE',  ( 1.836970198721029688E-16, 0.000000000000000000, 1.000000000000000000 ) ) ;
#572 = DIRECTION ( 'NONE',  ( 1.000000000000000000, 0.000000000000000000, -1.836970198721029688E-16 ) ) ;
#573 = ORIENTED_EDGE ( 'NONE', *, *, #162, .F. ) ;
#574 = EDGE_CURVE ( 'NONE', #929, #1127, #619, .T. ) ;
#575 = ORIENTED_EDGE ( 'NONE', *, *, #859, .F. ) ;
#576 = CARTESIAN_POINT ( 'NONE',  ( 500.0000000000000000, 0.000000000000000000, -1.836970198721029747E-13 ) ) ;
#577 = DIRECTION ( 'NONE',  ( 1.836970198721029688E-16, 0.000000000000000000, 1.000000000000000000 ) ) ;
#578 = LINE ( 'NONE', #477, #769 ) ;
#579 = EDGE_CURVE ( 'NONE', #600, #15, #995, .T. ) ;
#580 = ORIENTED_EDGE ( 'NONE', *, *, #819, .F. ) ;
#581 = DIRECTION ( 'NONE',  ( 1.000000000000000000, 0.000000000000000000, -1.836970198721029688E-16 ) ) ;
#582 = AXIS2_PLACEMENT_3D ( 'NONE', #558, #930, #661 ) ;
#583 = DIRECTION ( 'NONE',  ( 1.836970198721029934E-16, -0.000000000000000000, 1.000000000000000000 ) ) ;
#584 = AXIS2_PLACEMENT_3D ( 'NONE', #437, #344, #798 ) ;
#585 = ORIENTED_EDGE ( 'NONE', *, *, #404, .T. ) ;
#586 = VECTOR ( 'NONE', #716, 1000.000000000000000 ) ;
#587 = ORIENTED_EDGE ( 'NONE', *, *, #681, .F. ) ;
#588 = DIRECTION ( 'NONE',  ( 0.000000000000000000, 0.000000000000000000, 1.000000000000000000 ) ) ;
#589 = AXIS2_PLACEMENT_3D ( 'NONE', #777, #1137, #850 ) ;
#590 = FACE_OUTER_BOUND ( 'NONE', #376, .T. ) ;
#591 = CARTESIAN_POINT ( 'NONE',  ( 500.0000000000000000, -2.250000000000000000, -27.25000000000008882 ) ) ;
#592 = DIRECTION ( 'NONE',  ( 1.836970198721029688E-16, 0.000000000000000000, 1.000000000000000000 ) ) ;
#593 = VERTEX_POINT ( 'NONE', #906 ) ;
#594 = VECTOR ( 'NONE', #652, 1000.000000000000000 ) ;
#595 = LINE ( 'NONE', #969, #1014 ) ;
#596 = LINE ( 'NONE', #287, #1037 ) ;
#597 = EDGE_CURVE ( 'NONE', #451, #1160, #441, .T. ) ;
#598 = DIRECTION ( 'NONE',  ( 0.000000000000000000, 0.000000000000000000, -1.000000000000000000 ) ) ;
#599 = DIRECTION ( 'NONE',  ( 0.000000000000000000, 0.000000000000000000, -1.000000000000000000 ) ) ;
#600 = VERTEX_POINT ( 'NONE', #727 ) ;
#601 = DIRECTION ( 'NONE',  ( 1.000000000000000000, 0.000000000000000000, -1.836970198721029688E-16 ) ) ;
#602 = EDGE_CURVE ( 'NONE', #84, #107, #1092, .T. ) ;
#603 = CARTESIAN_POINT ( 'NONE',  ( 0.000000000000000000, 0.000000000000000000, 0.000000000000000000 ) ) ;
#604 = CARTESIAN_POINT ( 'NONE',  ( 435.8816349035415669, 2.724839128102866513E-15, -22.25000000000017053 ) ) ;
#605 = CIRCLE ( 'NONE', #508, 25.50000000000000000 ) ;
#606 = EDGE_LOOP ( 'NONE', ( #987, #192, #824, #557 ) ) ;
#607 = AXIS2_PLACEMENT_3D ( 'NONE', #369, #273, #730 ) ;
#608 = DIRECTION ( 'NONE',  ( 1.000000000000000000, 0.000000000000000000, -1.836970198721029688E-16 ) ) ;
#609 = VECTOR ( 'NONE', #592, 1000.000000000000000 ) ;
#610 = PERSON ( 'UNSPECIFIED', 'UNSPECIFIED', 'UNSPECIFIED', ('UNSPECIFIED'), ('UNSPECIFIED'), ('UNSPECIFIED') ) ;
#611 = PERSON_AND_ORGANIZATION ( #610, #1115 ) ;
#612 = CARTESIAN_POINT ( 'NONE',  ( 474.0000000000000000, 0.000000000000000000, -8.707238741937679131E-14 ) ) ;
#613 = AXIS2_PLACEMENT_3D ( 'NONE', #770, #583, #213 ) ;
#614 = ORIENTED_EDGE ( 'NONE', *, *, #984, .T. ) ;
#615 = DIRECTION ( 'NONE',  ( 0.000000000000000000, 0.000000000000000000, -1.000000000000000000 ) ) ;
#616 = CARTESIAN_POINT ( 'NONE',  ( 435.8816349035415669, 0.000000000000000000, -8.007015734876060321E-14 ) ) ;
#617 = VERTEX_POINT ( 'NONE', #979 ) ;
#618 = EDGE_CURVE ( 'NONE', #1022, #1122, #540, .T. ) ;
#619 = LINE ( 'NONE', #709, #432 ) ;
#620 = APPROVAL_ROLE ( '' ) ;
#621 = CARTESIAN_POINT ( 'NONE',  ( 500.0000000000000000, 2.250000000000000000, 27.15695122800045525 ) ) ;
#622 = ORIENTED_EDGE ( 'NONE', *, *, #44, .T. ) ;
#623 = AXIS2_PLACEMENT_3D ( 'NONE', #164, #818, #1175 ) ;
#624 = DIRECTION ( 'NONE',  ( 1.000000000000000000, 0.000000000000000000, -1.836970198721029688E-16 ) ) ;
#625 = VECTOR ( 'NONE', #255, 1000.000000000000227 ) ;
#626 = EDGE_CURVE ( 'NONE', #915, #359, #891, .T. ) ;
#627 = AXIS2_PLACEMENT_3D ( 'NONE', #334, #323, #421 ) ;
#628 = CONICAL_SURFACE ( 'NONE', #627, 24.09046106882113492, 0.3490658503988638417 ) ;
#629 = PLANE ( 'NONE',  #146 ) ;
#630 = ORIENTED_EDGE ( 'NONE', *, *, #70, .F. ) ;
#631 = VERTEX_POINT ( 'NONE', #912 ) ;
#632 = LOCAL_TIME ( 0, 3, 31.00000000000000000, #72 ) ;
#633 = CARTESIAN_POINT ( 'NONE',  ( 435.0000000000000000, -2.249999999999999112, 27.15695122800045880 ) ) ;
#634 = EDGE_CURVE ( 'NONE', #600, #444, #985, .T. ) ;
#635 = COORDINATED_UNIVERSAL_TIME_OFFSET ( 1, 0, .AHEAD. ) ;
#636 = LINE ( 'NONE', #1180, #71 ) ;
#637 = ORIENTED_EDGE ( 'NONE', *, *, #64, .T. ) ;
#638 = EDGE_LOOP ( 'NONE', ( #366, #836, #436, #673, #78, #1096, #303, #457, #130, #131, #484, #335 ) ) ;
#639 = DIRECTION ( 'NONE',  ( -1.000000000000000000, -0.000000000000000000, 1.836970198721034618E-16 ) ) ;
#640 = DIRECTION ( 'NONE',  ( 1.836970198721034618E-16, 0.000000000000000000, 1.000000000000000000 ) ) ;
#641 = ADVANCED_FACE ( 'NONE', ( #1003 ), #202, .T. ) ;
#642 = DIRECTION ( 'NONE',  ( 1.836970198721034618E-16, 0.000000000000000000, 1.000000000000000000 ) ) ;
#643 = ORIENTED_EDGE ( 'NONE', *, *, #989, .T. ) ;
#644 = EDGE_CURVE ( 'NONE', #1138, #880, #429, .T. ) ;
#645 = ORIENTED_EDGE ( 'NONE', *, *, #51, .T. ) ;
#646 = DIRECTION ( 'NONE',  ( 0.000000000000000000, -0.000000000000000000, 1.000000000000000000 ) ) ;
#647 = AXIS2_PLACEMENT_3D ( 'NONE', #6, #372, #1097 ) ;
#648 = VECTOR ( 'NONE', #988, 1000.000000000000000 ) ;
#649 = VECTOR ( 'NONE', #676, 1000.000000000000000 ) ;
#650 = CARTESIAN_POINT ( 'NONE',  ( 435.0000000000000000, 2.249999999999999112, 27.15695122800045880 ) ) ;
#651 = CIRCLE ( 'NONE', #939, 25.75000000000000000 ) ;
#652 = DIRECTION ( 'NONE',  ( -1.000000000000000000, -0.000000000000000000, 1.836970198721029688E-16 ) ) ;
#653 = ORIENTED_EDGE ( 'NONE', *, *, #77, .F. ) ;
#654 = EDGE_CURVE ( 'NONE', #549, #543, #823, .T. ) ;
#655 = VERTEX_POINT ( 'NONE', #447 ) ;
#656 = DIRECTION ( 'NONE',  ( 0.000000000000000000, -0.000000000000000000, 1.000000000000000000 ) ) ;
#657 = LOCAL_TIME ( 0, 3, 31.00000000000000000, #635 ) ;
#658 = DIRECTION ( 'NONE',  ( -1.000000000000000000, 0.000000000000000000, 1.836970198721029688E-16 ) ) ;
#659 = ORIENTED_EDGE ( 'NONE', *, *, #208, .T. ) ;
#660 = ORIENTED_EDGE ( 'NONE', *, *, #989, .F. ) ;
#661 = DIRECTION ( 'NONE',  ( 0.000000000000000000, 0.000000000000000000, -1.000000000000000000 ) ) ;
#662 = DIRECTION ( 'NONE',  ( 1.000000000000000000, 0.000000000000000000, -1.836970198721029688E-16 ) ) ;
#663 = CARTESIAN_POINT ( 'NONE',  ( 431.0203803290394262, 3.230005932751148999E-15, 25.80153689607028511 ) ) ;
#664 = ORIENTED_EDGE ( 'NONE', *, *, #245, .F. ) ;
#665 = ORIENTED_EDGE ( 'NONE', *, *, #626, .T. ) ;
#666 = DIRECTION ( 'NONE',  ( 1.000000000000000000, 0.000000000000000000, -1.836970198721029688E-16 ) ) ;
#667 = AXIS2_PLACEMENT_3D ( 'NONE', #774, #581, #1139 ) ;
#668 = ADVANCED_FACE ( 'NONE', ( #98 ), #1023, .F. ) ;
#669 = VECTOR ( 'NONE', #111, 1000.000000000000000 ) ;
#670 = FACE_OUTER_BOUND ( 'NONE', #1134, .T. ) ;
#671 = ORIENTED_EDGE ( 'NONE', *, *, #1107, .F. ) ;
#672 = VECTOR ( 'NONE', #1050, 1000.000000000000000 ) ;
#673 = ORIENTED_EDGE ( 'NONE', *, *, #501, .F. ) ;
#674 = EDGE_CURVE ( 'NONE', #534, #116, #914, .T. ) ;
#675 = CARTESIAN_POINT ( 'NONE',  ( 474.0000000000000000, 0.000000000000000000, -8.707238741937679131E-14 ) ) ;
#676 = DIRECTION ( 'NONE',  ( 1.836970198721029688E-16, 0.000000000000000000, 1.000000000000000000 ) ) ;
#677 = ORIENTED_EDGE ( 'NONE', *, *, #214, .F. ) ;
#678 = CARTESIAN_POINT ( 'NONE',  ( 430.7049447309419179, 2.950230603791572485E-15, 24.09046106882096439 ) ) ;
#679 = APPLICATION_PROTOCOL_DEFINITION ( 'international standard', 'config_control_design', 1994, #1020 ) ;
#680 = CARTESIAN_POINT ( 'NONE',  ( 435.0000000000000000, 25.65151067676131191, 2.249999999999925837 ) ) ;
#681 = EDGE_CURVE ( 'NONE', #220, #978, #1029, .T. ) ;
#682 = ORIENTED_EDGE ( 'NONE', *, *, #782, .T. ) ;
#683 = CARTESIAN_POINT ( 'NONE',  ( 435.8816349035415669, 0.000000000000000000, -27.25000000000007816 ) ) ;
#684 = DIRECTION ( 'NONE',  ( 1.000000000000000000, 0.000000000000000000, -1.836970198721029688E-16 ) ) ;
#685 = CIRCLE ( 'NONE', #843, 24.39199796489159411 ) ;
#686 = AXIS2_PLACEMENT_3D ( 'NONE', #1042, #1053, #49 ) ;
#687 = DIRECTION ( 'NONE',  ( 0.000000000000000000, 0.000000000000000000, -1.000000000000000000 ) ) ;
#688 = VERTEX_POINT ( 'NONE', #552 ) ;
#689 = ORIENTED_EDGE ( 'NONE', *, *, #342, .F. ) ;
#690 = DIRECTION ( 'NONE',  ( 0.000000000000000000, 0.000000000000000000, -1.000000000000000000 ) ) ;
#691 = ADVANCED_FACE ( 'NONE', ( #465 ), #936, .F. ) ;
#692 = AXIS2_PLACEMENT_3D ( 'NONE', #612, #1068, #879 ) ;
#693 = PLANE ( 'NONE',  #898 ) ;
#694 = CONICAL_SURFACE ( 'NONE', #438, 24.09046106882113492, 0.3490658503988638417 ) ;
#695 = DIRECTION ( 'NONE',  ( 0.000000000000000000, -1.000000000000000000, 0.000000000000000000 ) ) ;
#696 = DIRECTION ( 'NONE',  ( 2.249639673992792433E-32, 1.000000000000000000, 1.224646799147353207E-16 ) ) ;
#697 = ORIENTED_EDGE ( 'NONE', *, *, #404, .F. ) ;
#698 = CIRCLE ( 'NONE', #794, 25.75000000000000000 ) ;
#699 = CARTESIAN_POINT ( 'NONE',  ( 474.0000000000000000, 2.250000000000000000, 27.15695122800045169 ) ) ;
#700 =( NAMED_UNIT ( * ) PLANE_ANGLE_UNIT ( ) SI_UNIT ( $, .RADIAN. ) );
#701 = CARTESIAN_POINT ( 'NONE',  ( 474.0000000000000000, 2.250000000000000000, -27.15695122800062222 ) ) ;
#702 = ORIENTED_EDGE ( 'NONE', *, *, #342, .T. ) ;
#703 = DIRECTION ( 'NONE',  ( -0.000000000000000000, -1.000000000000000000, -0.000000000000000000 ) ) ;
#704 = EDGE_CURVE ( 'NONE', #1028, #1040, #528, .T. ) ;
#705 = APPROVAL_ROLE ( '' ) ;
#706 = DIRECTION ( 'NONE',  ( 0.000000000000000000, 0.000000000000000000, -1.000000000000000000 ) ) ;
#707 = EDGE_LOOP ( 'NONE', ( #297, #235 ) ) ;
#708 = CIRCLE ( 'NONE', #511, 25.75000000000000000 ) ;
#709 = CARTESIAN_POINT ( 'NONE',  ( 435.0000000000000000, 2.249999999999999112, 25.65151067676123731 ) ) ;
#710 = AXIS2_PLACEMENT_3D ( 'NONE', #806, #1165, #341 ) ;
#711 = PERSON_AND_ORGANIZATION_ROLE ( 'creator' ) ;
#712 = CARTESIAN_POINT ( 'NONE',  ( 435.0000000000000000, 3.153465507804434404E-15, 25.74999999999991829 ) ) ;
#713 = ADVANCED_FACE ( 'NONE', ( #1123 ), #853, .T. ) ;
#714 = CIRCLE ( 'NONE', #1169, 27.25000000000000000 ) ;
#715 = ORIENTED_EDGE ( 'NONE', *, *, #460, .F. ) ;
#716 = DIRECTION ( 'NONE',  ( 1.000000000000000000, 0.000000000000000000, -1.836970198721029688E-16 ) ) ;
#717 = PERSON_AND_ORGANIZATION_ROLE ( 'creator' ) ;
#718 = DIRECTION ( 'NONE',  ( 1.000000000000000000, 0.000000000000000000, -1.836970198721029688E-16 ) ) ;
#719 = EDGE_LOOP ( 'NONE', ( #324, #1085, #538, #954 ) ) ;
#720 = EDGE_CURVE ( 'NONE', #880, #1022, #767, .T. ) ;
#721 = DIRECTION ( 'NONE',  ( 0.000000000000000000, 0.000000000000000000, -1.000000000000000000 ) ) ;
#722 = COORDINATED_UNIVERSAL_TIME_OFFSET ( 1, 0, .AHEAD. ) ;
#723 = CARTESIAN_POINT ( 'NONE',  ( 474.0000000000000000, -25.65151067676131902, -2.250000000000080380 ) ) ;
#724 = CIRCLE ( 'NONE', #355, 25.75000000000000000 ) ;
#725 = ORIENTED_EDGE ( 'NONE', *, *, #114, .F. ) ;
#726 = CIRCLE ( 'NONE', #846, 3.499999999999999556 ) ;
#727 = CARTESIAN_POINT ( 'NONE',  ( 500.0000000000000000, -2.250000000000000000, 27.15695122800045525 ) ) ;
#728 = EDGE_CURVE ( 'NONE', #183, #23, #199, .T. ) ;
#729 = VECTOR ( 'NONE', #66, 1000.000000000000000 ) ;
#730 = DIRECTION ( 'NONE',  ( 0.000000000000000000, 0.000000000000000000, 1.000000000000000000 ) ) ;
#731 = ORIENTED_EDGE ( 'NONE', *, *, #597, .T. ) ;
#732 = AXIS2_PLACEMENT_3D ( 'NONE', #190, #27, #282 ) ;
#733 = ORIENTED_EDGE ( 'NONE', *, *, #200, .F. ) ;
#734 = CC_DESIGN_SECURITY_CLASSIFICATION ( #417, ( #302 ) ) ;
#735 = DIRECTION ( 'NONE',  ( 0.000000000000000000, 0.000000000000000000, 1.000000000000000000 ) ) ;
#736 = CYLINDRICAL_SURFACE ( 'NONE', #12, 23.99999999999999645 ) ;
#737 = CARTESIAN_POINT ( 'NONE',  ( 474.0000000000000000, 0.000000000000000000, -8.707238741937679131E-14 ) ) ;
#738 = ORIENTED_EDGE ( 'NONE', *, *, #347, .F. ) ;
#739 = VERTEX_POINT ( 'NONE', #458 ) ;
#740 = PLANE ( 'NONE',  #86 ) ;
#741 = DIRECTION ( 'NONE',  ( 1.000000000000000000, 0.000000000000000000, -1.836970198721029688E-16 ) ) ;
#742 = EDGE_CURVE ( 'NONE', #107, #365, #104, .T. ) ;
#743 = DIRECTION ( 'NONE',  ( 1.000000000000000000, 0.000000000000000000, -1.836970198721029688E-16 ) ) ;
#744 = ORIENTED_EDGE ( 'NONE', *, *, #384, .F. ) ;
#745 = ORIENTED_EDGE ( 'NONE', *, *, #8, .T. ) ;
#746 = FACE_OUTER_BOUND ( 'NONE', #816, .T. ) ;
#747 = AXIS2_PLACEMENT_3D ( 'NONE', #834, #81, #908 ) ;
#748 = VECTOR ( 'NONE', #803, 1000.000000000000000 ) ;
#749 = FACE_OUTER_BOUND ( 'NONE', #416, .T. ) ;
#750 = CARTESIAN_POINT ( 'NONE',  ( 429.3102796124110796, 3.122849337825750222E-15, 25.49999999999982947 ) ) ;
#751 = ORIENTED_EDGE ( 'NONE', *, *, #997, .F. ) ;
#752 = ORIENTED_EDGE ( 'NONE', *, *, #559, .T. ) ;
#753 = CARTESIAN_POINT ( 'NONE',  ( 474.0000000000000000, 0.000000000000000000, -8.707238741937680393E-14 ) ) ;
#754 = VECTOR ( 'NONE', #405, 1000.000000000000000 ) ;
#755 = TOROIDAL_SURFACE ( 'NONE', #797, 30.50000000000000000, 6.500000000000000888 ) ;
#756 = FACE_OUTER_BOUND ( 'NONE', #1095, .T. ) ;
#757 = CARTESIAN_POINT ( 'NONE',  ( 431.5334105440279586, 0.000000000000000000, -24.39199796489176464 ) ) ;
#758 = EDGE_LOOP ( 'NONE', ( #935, #102, #21, #842 ) ) ;
#759 = VERTEX_POINT ( 'NONE', #92 ) ;
#760 = CARTESIAN_POINT ( 'NONE',  ( 500.0000000000000000, 0.000000000000000000, -1.836970198721029747E-13 ) ) ;
#761 = EDGE_CURVE ( 'NONE', #790, #1022, #1087, .T. ) ;
#762 = CARTESIAN_POINT ( 'NONE',  ( 474.0000000000000000, 27.25000000000000000, -2.250000000000080380 ) ) ;
#763 = FACE_OUTER_BOUND ( 'NONE', #32, .T. ) ;
#764 = CARTESIAN_POINT ( 'NONE',  ( 474.0000000000000000, 0.000000000000000000, -25.75000000000008882 ) ) ;
#765 = ORIENTED_EDGE ( 'NONE', *, *, #332, .T. ) ;
#766 = DIRECTION ( 'NONE',  ( -1.836970198721029688E-16, 0.000000000000000000, -1.000000000000000000 ) ) ;
#767 = CIRCLE ( 'NONE', #1071, 6.500000000000002665 ) ;
#768 = ADVANCED_FACE ( 'NONE', ( #472 ), #386, .F. ) ;
#769 = VECTOR ( 'NONE', #934, 1000.000000000000000 ) ;
#770 = CARTESIAN_POINT ( 'NONE',  ( 474.0000000000000000, 27.25000000000000000, -2.250000000000080380 ) ) ;
#771 = FACE_OUTER_BOUND ( 'NONE', #1001, .T. ) ;
#772 = CIRCLE ( 'NONE', #450, 5.000000000000000888 ) ;
#773 = ORIENTED_EDGE ( 'NONE', *, *, #1080, .T. ) ;
#774 = CARTESIAN_POINT ( 'NONE',  ( -500.0000000000000000, 0.000000000000000000, 0.000000000000000000 ) ) ;
#775 = AXIS2_PLACEMENT_3D ( 'NONE', #1044, #695, #598 ) ;
#776 = DIRECTION ( 'NONE',  ( 0.000000000000000000, 0.000000000000000000, 1.000000000000000000 ) ) ;
#777 = CARTESIAN_POINT ( 'NONE',  ( 434.6845644019017527, 0.000000000000000000, -1.716987690010840627E-13 ) ) ;
#778 = ORIENTED_EDGE ( 'NONE', *, *, #256, .T. ) ;
#779 = DIRECTION ( 'NONE',  ( 1.000000000000000000, 0.000000000000000000, -1.836970198721034618E-16 ) ) ;
#780 = CARTESIAN_POINT ( 'NONE',  ( 500.0000000000000000, -2.250000000000000000, -25.65151067676140784 ) ) ;
#781 = DIRECTION ( 'NONE',  ( -0.000000000000000000, 1.000000000000000000, 0.000000000000000000 ) ) ;
#782 = EDGE_CURVE ( 'NONE', #205, #983, #882, .T. ) ;
#783 = ORIENTED_EDGE ( 'NONE', *, *, #825, .F. ) ;
#784 = DIRECTION ( 'NONE',  ( 0.000000000000000000, 0.000000000000000000, -1.000000000000000000 ) ) ;
#785 = CARTESIAN_POINT ( 'NONE',  ( 429.3102796124110796, 0.000000000000000000, -1.707115289013108580E-13 ) ) ;
#786 = AXIS2_PLACEMENT_3D ( 'NONE', #760, #666, #1103 ) ;
#787 = MECHANICAL_CONTEXT ( 'NONE', #1020, 'mechanical' ) ;
#788 = CIRCLE ( 'NONE', #272, 25.75000000000000000 ) ;
#789 = CARTESIAN_POINT ( 'NONE',  ( -500.0000000000000000, 3.122849337825760872E-15, 25.49999999999999645 ) ) ;
#790 = VERTEX_POINT ( 'NONE', #945 ) ;
#791 = DIRECTION ( 'NONE',  ( 1.000000000000000000, 0.000000000000000000, -1.836970198721029688E-16 ) ) ;
#792 = VECTOR ( 'NONE', #743, 1000.000000000000000 ) ;
#793 = CARTESIAN_POINT ( 'NONE',  ( 434.6845644019017527, 0.000000000000000000, -25.53892417275092797 ) ) ;
#794 = AXIS2_PLACEMENT_3D ( 'NONE', #675, #226, #123 ) ;
#795 = CARTESIAN_POINT ( 'NONE',  ( 435.8816349035415669, 0.000000000000000000, 22.24999999999991829 ) ) ;
#796 = ORIENTED_EDGE ( 'NONE', *, *, #70, .T. ) ;
#797 = AXIS2_PLACEMENT_3D ( 'NONE', #388, #1113, #642 ) ;
#798 = DIRECTION ( 'NONE',  ( 1.836970198721034618E-16, 0.000000000000000000, 1.000000000000000000 ) ) ;
#799 = ADVANCED_FACE ( 'NONE', ( #746 ), #957, .T. ) ;
#800 = SECURITY_CLASSIFICATION_LEVEL ( 'unclassified' ) ;
#801 = DIRECTION ( 'NONE',  ( 0.000000000000000000, 0.000000000000000000, -1.000000000000000000 ) ) ;
#802 = ORIENTED_EDGE ( 'NONE', *, *, #524, .F. ) ;
#803 = DIRECTION ( 'NONE',  ( -1.000000000000000000, -0.000000000000000000, 1.836970198721029688E-16 ) ) ;
#804 = EDGE_CURVE ( 'NONE', #983, #205, #605, .T. ) ;
#805 = DATE_AND_TIME ( #525, #189 ) ;
#806 = CARTESIAN_POINT ( 'NONE',  ( -500.0000000000000000, 0.000000000000000000, 0.000000000000000000 ) ) ;
#807 = TOROIDAL_SURFACE ( 'NONE', #686, 22.25000000000004263, 3.500000000000000000 ) ;
#808 = EDGE_LOOP ( 'NONE', ( #289, #59, #1045, #108 ) ) ;
#809 = AXIS2_PLACEMENT_3D ( 'NONE', #380, #1112, #965 ) ;
#810 = CARTESIAN_POINT ( 'NONE',  ( 434.1715341869132203, 0.000000000000000000, -1.256802719114605766E-13 ) ) ;
#811 = AXIS2_PLACEMENT_3D ( 'NONE', #154, #50, #137 ) ;
#812 = APPROVAL_ROLE ( '' ) ;
#813 = CARTESIAN_POINT ( 'NONE',  ( 500.0000000000000000, 0.000000000000000000, -9.184850993605148733E-14 ) ) ;
#814 = ADVANCED_FACE ( 'NONE', ( #367 ), #740, .T. ) ;
#815 = APPROVAL_PERSON_ORGANIZATION ( #1073, #339, #812 ) ;
#816 = EDGE_LOOP ( 'NONE', ( #677, #1114, #371, #837 ) ) ;
#817 = CARTESIAN_POINT ( 'NONE',  ( 435.0000000000000000, 27.15695122800053696, -2.250000000000072387 ) ) ;
#818 = DIRECTION ( 'NONE',  ( 1.000000000000000000, 0.000000000000000000, -1.836970198721029688E-16 ) ) ;
#819 = EDGE_CURVE ( 'NONE', #955, #739, #724, .T. ) ;
#820 = ORIENTED_EDGE ( 'NONE', *, *, #77, .T. ) ;
#821 = DIRECTION ( 'NONE',  ( 1.000000000000000000, 0.000000000000000000, -1.836970198721029688E-16 ) ) ;
#822 = LINE ( 'NONE', #650, #1089 ) ;
#823 = CIRCLE ( 'NONE', #393, 26.94846310392961897 ) ;
#824 = ORIENTED_EDGE ( 'NONE', *, *, #2, .T. ) ;
#825 = EDGE_CURVE ( 'NONE', #631, #517, #144, .T. ) ;
#826 = AXIS2_PLACEMENT_3D ( 'NONE', #785, #1145, #280 ) ;
#827 = ORIENTED_EDGE ( 'NONE', *, *, #400, .T. ) ;
#828 = FACE_OUTER_BOUND ( 'NONE', #83, .T. ) ;
#829 = ORIENTED_EDGE ( 'NONE', *, *, #501, .T. ) ;
#830 = LOCAL_TIME ( 0, 3, 31.00000000000000000, #722 ) ;
#831 = ORIENTED_EDGE ( 'NONE', *, *, #825, .T. ) ;
#832 = DIRECTION ( 'NONE',  ( -1.000000000000000000, -0.000000000000000000, 1.836970198721034618E-16 ) ) ;
#833 = ADVANCED_FACE ( 'NONE', ( #952 ), #30, .T. ) ;
#834 = CARTESIAN_POINT ( 'NONE',  ( 429.3102796124110796, 0.000000000000000000, -1.707115289013108580E-13 ) ) ;
#835 = DIRECTION ( 'NONE',  ( -1.000000000000000000, -0.000000000000000000, 1.836970198721029688E-16 ) ) ;
#836 = ORIENTED_EDGE ( 'NONE', *, *, #851, .T. ) ;
#837 = ORIENTED_EDGE ( 'NONE', *, *, #120, .F. ) ;
#838 = DIRECTION ( 'NONE',  ( 1.836970198721029688E-16, 0.000000000000000000, 1.000000000000000000 ) ) ;
#839 = EDGE_CURVE ( 'NONE', #880, #1138, #486, .T. ) ;
#840 = DIRECTION ( 'NONE',  ( 1.836970198721029934E-16, -0.000000000000000000, 1.000000000000000000 ) ) ;
#841 = DIRECTION ( 'NONE',  ( 1.836970198721034618E-16, 0.000000000000000000, 1.000000000000000000 ) ) ;
#842 = ORIENTED_EDGE ( 'NONE', *, *, #1107, .T. ) ;
#843 = AXIS2_PLACEMENT_3D ( 'NONE', #877, #1135, #305 ) ;
#844 = ORIENTED_EDGE ( 'NONE', *, *, #925, .F. ) ;
#845 = CARTESIAN_POINT ( 'NONE',  ( 431.0203803290394262, 0.000000000000000000, -1.710256693066364137E-13 ) ) ;
#846 = AXIS2_PLACEMENT_3D ( 'NONE', #1031, #512, #413 ) ;
#847 = CARTESIAN_POINT ( 'NONE',  ( 474.0000000000000000, -2.250000000000000000, 27.15695122800045169 ) ) ;
#848 = VECTOR ( 'NONE', #1084, 1000.000000000000000 ) ;
#849 = CARTESIAN_POINT ( 'NONE',  ( 435.0000000000000000, 27.15695122800053340, 2.249999999999925837 ) ) ;
#850 = DIRECTION ( 'NONE',  ( 0.000000000000000000, 0.000000000000000000, -1.000000000000000000 ) ) ;
#851 = EDGE_CURVE ( 'NONE', #211, #865, #125, .T. ) ;
#852 = ORIENTED_EDGE ( 'NONE', *, *, #634, .F. ) ;
#853 = PLANE ( 'NONE',  #786 ) ;
#854 = AXIS2_PLACEMENT_3D ( 'NONE', #737, #118, #275 ) ;
#855 = LOCAL_TIME ( 0, 3, 31.00000000000000000, #345 ) ;
#856 = DIRECTION ( 'NONE',  ( 1.836970198721029688E-16, 0.000000000000000000, 1.000000000000000000 ) ) ;
#857 = FACE_OUTER_BOUND ( 'NONE', #1064, .T. ) ;
#858 = DIRECTION ( 'NONE',  ( 1.000000000000000000, -0.000000000000000000, -1.836970198721029688E-16 ) ) ;
#859 = EDGE_CURVE ( 'NONE', #739, #444, #398, .T. ) ;
#860 = ORIENTED_EDGE ( 'NONE', *, *, #1131, .T. ) ;
#861 = DIRECTION ( 'NONE',  ( 1.000000000000000000, -0.000000000000000000, -1.836970198721029688E-16 ) ) ;
#862 = DIRECTION ( 'NONE',  ( 1.836970198721029688E-16, 0.000000000000000000, 1.000000000000000000 ) ) ;
#863 = CARTESIAN_POINT ( 'NONE',  ( 474.0000000000000000, 0.000000000000000000, -8.707238741937679131E-14 ) ) ;
#864 = APPLICATION_CONTEXT ( 'configuration controlled 3d designs of mechanical parts and assemblies' ) ;
#865 = VERTEX_POINT ( 'NONE', #683 ) ;
#866 = FACE_OUTER_BOUND ( 'NONE', #527, .T. ) ;
#867 = ADVANCED_FACE ( 'NONE', ( #866 ), #1048, .F. ) ;
#868 = AXIS2_PLACEMENT_3D ( 'NONE', #881, #54, #60 ) ;
#869 = LINE ( 'NONE', #591, #904 ) ;
#870 = FACE_OUTER_BOUND ( 'NONE', #1117, .T. ) ;
#871 = EDGE_LOOP ( 'NONE', ( #860, #155, #1184, #42 ) ) ;
#872 = DIRECTION ( 'NONE',  ( 0.000000000000000000, 0.000000000000000000, 1.000000000000000000 ) ) ;
#873 = ADVANCED_FACE ( 'NONE', ( #127 ), #212, .T. ) ;
#874 = FACE_OUTER_BOUND ( 'NONE', #1007, .T. ) ;
#875 = LINE ( 'NONE', #1121, #649 ) ;
#876 = ORIENTED_EDGE ( 'NONE', *, *, #742, .T. ) ;
#877 = CARTESIAN_POINT ( 'NONE',  ( 431.5334105440279586, 0.000000000000000000, -1.711199114282341436E-13 ) ) ;
#878 = CARTESIAN_POINT ( 'NONE',  ( 474.0000000000000000, -2.250000000000000000, -25.65151067676140784 ) ) ;
#879 = DIRECTION ( 'NONE',  ( 0.000000000000000000, 0.000000000000000000, 1.000000000000000000 ) ) ;
#880 = VERTEX_POINT ( 'NONE', #139 ) ;
#881 = CARTESIAN_POINT ( 'NONE',  ( 474.0000000000000000, 27.25000000000000000, 2.249999999999919176 ) ) ;
#882 = CIRCLE ( 'NONE', #53, 25.50000000000000000 ) ;
#883 = AXIS2_PLACEMENT_3D ( 'NONE', #467, #662, #1065 ) ;
#884 = CARTESIAN_POINT ( 'NONE',  ( 429.3102796124110796, 0.000000000000000000, 30.49999999999982947 ) ) ;
#885 = ADVANCED_FACE ( 'NONE', ( #311 ), #807, .F. ) ;
#886 = ORIENTED_EDGE ( 'NONE', *, *, #602, .F. ) ;
#887 = FACE_OUTER_BOUND ( 'NONE', #638, .T. ) ;
#888 = DIRECTION ( 'NONE',  ( 1.000000000000000000, 0.000000000000000000, -1.836970198721039795E-16 ) ) ;
#889 = ORIENTED_EDGE ( 'NONE', *, *, #1116, .T. ) ;
#890 = EDGE_CURVE ( 'NONE', #1022, #790, #685, .T. ) ;
#891 = LINE ( 'NONE', #63, #748 ) ;
#892 = DATE_TIME_ROLE ( 'classification_date' ) ;
#893 = CARTESIAN_POINT ( 'NONE',  ( 474.0000000000000000, 2.250000000000000000, -25.65151067676140784 ) ) ;
#894 = ORIENTED_EDGE ( 'NONE', *, *, #626, .F. ) ;
#895 = CARTESIAN_POINT ( 'NONE',  ( 474.0000000000000000, 27.15695122800053696, 2.249999999999919176 ) ) ;
#896 = EDGE_CURVE ( 'NONE', #790, #688, #408, .T. ) ;
#897 = CARTESIAN_POINT ( 'NONE',  ( 500.0000000000000000, 0.000000000000000000, -9.184850993605148733E-14 ) ) ;
#898 = AXIS2_PLACEMENT_3D ( 'NONE', #409, #940, #201 ) ;
#899 = ORIENTED_EDGE ( 'NONE', *, *, #2, .F. ) ;
#900 = CARTESIAN_POINT ( 'NONE',  ( 434.1715341869132203, 0.000000000000000000, -26.94846310392979305 ) ) ;
#901 = EDGE_CURVE ( 'NONE', #1122, #688, #990, .T. ) ;
#902 = CALENDAR_DATE ( 2026, 16, 9 ) ;
#903 = CYLINDRICAL_SURFACE ( 'NONE', #88, 25.50000000000000000 ) ;
#904 = VECTOR ( 'NONE', #577, 1000.000000000000000 ) ;
#905 = ORIENTED_EDGE ( 'NONE', *, *, #208, .F. ) ;
#906 = CARTESIAN_POINT ( 'NONE',  ( 500.0000000000000000, 27.15695122800053696, 2.249999999999914291 ) ) ;
#907 = DATE_AND_TIME ( #426, #657 ) ;
#908 = DIRECTION ( 'NONE',  ( 1.836970198721034618E-16, 0.000000000000000000, 1.000000000000000000 ) ) ;
#909 = CC_DESIGN_DATE_AND_TIME_ASSIGNMENT ( #907, #532, ( #58 ) ) ;
#910 = EDGE_LOOP ( 'NONE', ( #446, #827, #653, #664 ) ) ;
#911 = EDGE_LOOP ( 'NONE', ( #119, #778, #1069, #1125 ) ) ;
#912 = CARTESIAN_POINT ( 'NONE',  ( 474.0000000000000000, 27.15695122800054051, -2.250000000000080380 ) ) ;
#913 = FACE_OUTER_BOUND ( 'NONE', #290, .T. ) ;
#914 = CIRCLE ( 'NONE', #582, 25.50000000000000000 ) ;
#915 = VERTEX_POINT ( 'NONE', #1144 ) ;
#916 = EDGE_CURVE ( 'NONE', #23, #978, #1036, .T. ) ;
#917 = ORIENTED_EDGE ( 'NONE', *, *, #553, .F. ) ;
#918 = DIRECTION ( 'NONE',  ( 1.836970198721029688E-16, 0.000000000000000000, 1.000000000000000000 ) ) ;
#919 = AXIS2_PLACEMENT_3D ( 'NONE', #314, #1058, #227 ) ;
#920 = DIRECTION ( 'NONE',  ( -1.000000000000000000, -0.000000000000000000, 1.836970198721034618E-16 ) ) ;
#921 = FACE_OUTER_BOUND ( 'NONE', #173, .T. ) ;
#922 = VERTEX_POINT ( 'NONE', #229 ) ;
#923 = ORIENTED_EDGE ( 'NONE', *, *, #176, .F. ) ;
#924 = DIRECTION ( 'NONE',  ( 1.000000000000000000, 0.000000000000000000, -1.836970198721034618E-16 ) ) ;
#925 = EDGE_CURVE ( 'NONE', #510, #210, #595, .T. ) ;
#926 = CARTESIAN_POINT ( 'NONE',  ( 474.0000000000000000, -2.250000000000000000, -27.25000000000008527 ) ) ;
#927 = FACE_OUTER_BOUND ( 'NONE', #968, .T. ) ;
#928 = ORIENTED_EDGE ( 'NONE', *, *, #433, .T. ) ;
#929 = VERTEX_POINT ( 'NONE', #95 ) ;
#930 = DIRECTION ( 'NONE',  ( 1.000000000000000000, 0.000000000000000000, -1.836970198721029688E-16 ) ) ;
#931 = EDGE_CURVE ( 'NONE', #23, #922, #561, .T. ) ;
#932 = CARTESIAN_POINT ( 'NONE',  ( -500.0000000000000000, 2.939152317953657755E-15, 23.99999999999999645 ) ) ;
#933 = CARTESIAN_POINT ( 'NONE',  ( -500.0000000000000000, 0.000000000000000000, 0.000000000000000000 ) ) ;
#934 = DIRECTION ( 'NONE',  ( 1.000000000000000000, 0.000000000000000000, -1.836970198721029688E-16 ) ) ;
#935 = ORIENTED_EDGE ( 'NONE', *, *, #433, .F. ) ;
#936 = PLANE ( 'NONE',  #466 ) ;
#937 = AXIS2_PLACEMENT_3D ( 'NONE', #974, #320, #567 ) ;
#938 = CIRCLE ( 'NONE', #589, 25.53892417275076099 ) ;
#939 = AXIS2_PLACEMENT_3D ( 'NONE', #616, #718, #801 ) ;
#940 = DIRECTION ( 'NONE',  ( 1.000000000000000000, 0.000000000000000000, -1.836970198721029688E-16 ) ) ;
#941 = EDGE_CURVE ( 'NONE', #407, #1138, #375, .T. ) ;
#942 = CARTESIAN_POINT ( 'NONE',  ( 431.0203803290394262, 0.000000000000000000, -25.80153689607062262 ) ) ;
#943 = DIRECTION ( 'NONE',  ( 0.000000000000000000, 0.000000000000000000, -1.000000000000000000 ) ) ;
#944 = ORIENTED_EDGE ( 'NONE', *, *, #368, .F. ) ;
#945 = CARTESIAN_POINT ( 'NONE',  ( 431.5334105440279586, 3.057387198716971656E-15, 24.39199796489142713 ) ) ;
#946 = VECTOR ( 'NONE', #835, 1000.000000000000000 ) ;
#947 = AXIS2_PLACEMENT_3D ( 'NONE', #933, #1124, #294 ) ;
#948 = FACE_OUTER_BOUND ( 'NONE', #551, .T. ) ;
#949 = CC_DESIGN_DATE_AND_TIME_ASSIGNMENT ( #153, #892, ( #417 ) ) ;
#950 = ORIENTED_EDGE ( 'NONE', *, *, #704, .T. ) ;
#951 = EDGE_LOOP ( 'NONE', ( #702, #725, #1091, #228 ) ) ;
#952 = FACE_OUTER_BOUND ( 'NONE', #606, .T. ) ;
#953 = FACE_OUTER_BOUND ( 'NONE', #1041, .T. ) ;
#954 = ORIENTED_EDGE ( 'NONE', *, *, #1093, .F. ) ;
#955 = VERTEX_POINT ( 'NONE', #469 ) ;
#956 = DIRECTION ( 'NONE',  ( -1.000000000000000000, -0.000000000000000000, 1.836970198721039795E-16 ) ) ;
#957 = TOROIDAL_SURFACE ( 'NONE', #293, 22.25000000000004263, 5.000000000000000000 ) ;
#958 = CIRCLE ( 'NONE', #274, 23.99999999999999645 ) ;
#959 = CIRCLE ( 'NONE', #321, 27.25000000000000000 ) ;
#960 = DIRECTION ( 'NONE',  ( 1.000000000000000000, 0.000000000000000000, -1.836970198721029688E-16 ) ) ;
#961 = ORIENTED_EDGE ( 'NONE', *, *, #128, .T. ) ;
#962 = VECTOR ( 'NONE', #61, 1000.000000000000000 ) ;
#963 = EDGE_LOOP ( 'NONE', ( #889, #731, #671, #587 ) ) ;
#964 = DIRECTION ( 'NONE',  ( 1.836970198721029688E-16, 0.000000000000000000, 1.000000000000000000 ) ) ;
#965 = DIRECTION ( 'NONE',  ( 0.000000000000000000, 0.000000000000000000, -1.000000000000000000 ) ) ;
#966 = CARTESIAN_POINT ( 'NONE',  ( 429.3102796124110796, 2.939152317953647500E-15, 23.99999999999982592 ) ) ;
#967 = DIRECTION ( 'NONE',  ( 1.000000000000000000, -0.000000000000000000, -1.836970198721029688E-16 ) ) ;
#968 = EDGE_LOOP ( 'NONE', ( #1027, #497, #91, #278 ) ) ;
#969 = CARTESIAN_POINT ( 'NONE',  ( 500.0000000000000000, 27.25000000000000000, -2.250000000000085265 ) ) ;
#970 = CARTESIAN_POINT ( 'NONE',  ( 435.8816349035415669, 3.153465507804435193E-15, 25.74999999999991829 ) ) ;
#971 = CARTESIAN_POINT ( 'NONE',  ( 435.8816349035415669, 0.000000000000000000, -8.007015734876060321E-14 ) ) ;
#972 = CARTESIAN_POINT ( 'NONE',  ( 474.0000000000000000, 2.250000000000000000, -27.25000000000008527 ) ) ;
#973 = ORIENTED_EDGE ( 'NONE', *, *, #194, .F. ) ;
#974 = CARTESIAN_POINT ( 'NONE',  ( 500.0000000000000000, 0.000000000000000000, -9.184850993605148733E-14 ) ) ;
#975 = LINE ( 'NONE', #503, #848 ) ;
#976 = ADVANCED_FACE ( 'NONE', ( #670 ), #694, .F. ) ;
#977 = AXIS2_PLACEMENT_3D ( 'NONE', #897, #435, #599 ) ;
#978 = VERTEX_POINT ( 'NONE', #9 ) ;
#979 = CARTESIAN_POINT ( 'NONE',  ( -500.0000000000000000, 0.000000000000000000, -23.99999999999999645 ) ) ;
#980 = APPROVAL_DATE_TIME ( #805, #90 ) ;
#981 = CARTESIAN_POINT ( 'NONE',  ( 500.0000000000000000, 2.250000000000000000, -27.15695122800062933 ) ) ;
#982 = APPROVAL ( #243, 'UNSPECIFIED' ) ;
#983 = VERTEX_POINT ( 'NONE', #750 ) ;
#984 = EDGE_CURVE ( 'NONE', #15, #310, #101, .T. ) ;
#985 = LINE ( 'NONE', #633, #448 ) ;
#986 = CARTESIAN_POINT ( 'NONE',  ( 474.0000000000000000, 0.000000000000000000, -8.707238741937679131E-14 ) ) ;
#987 = ORIENTED_EDGE ( 'NONE', *, *, #509, .F. ) ;
#988 = DIRECTION ( 'NONE',  ( 1.000000000000000000, 0.000000000000000000, -1.836970198721029688E-16 ) ) ;
#989 = EDGE_CURVE ( 'NONE', #517, #593, #462, .T. ) ;
#990 = CIRCLE ( 'NONE', #530, 25.53892417275076099 ) ;
#991 = CALENDAR_DATE ( 2026, 16, 9 ) ;
#992 = DIRECTION ( 'NONE',  ( 0.000000000000000000, 0.000000000000000000, -1.000000000000000000 ) ) ;
#993 = CIRCLE ( 'NONE', #937, 27.25000000000000000 ) ;
#994 = EDGE_LOOP ( 'NONE', ( #498, #820, #1090, #765 ) ) ;
#995 = CIRCLE ( 'NONE', #1109, 27.25000000000000000 ) ;
#996 = CARTESIAN_POINT ( 'NONE',  ( 435.0000000000000000, 0.000000000000000000, -25.75000000000007816 ) ) ;
#997 = EDGE_CURVE ( 'NONE', #522, #739, #456, .T. ) ;
#998 = PERSON_AND_ORGANIZATION ( #610, #1115 ) ;
#999 = LINE ( 'NONE', #374, #378 ) ;
#1000 = AXIS2_PLACEMENT_3D ( 'NONE', #268, #1011, #841 ) ;
#1001 = EDGE_LOOP ( 'NONE', ( #464, #876, #905, #1151 ) ) ;
#1002 = VERTEX_POINT ( 'NONE', #112 ) ;
#1003 = FACE_OUTER_BOUND ( 'NONE', #994, .T. ) ;
#1004 = PERSON_AND_ORGANIZATION_ROLE ( 'classification_officer' ) ;
#1005 = DIRECTION ( 'NONE',  ( 1.000000000000000000, 0.000000000000000000, -1.836970198721029934E-16 ) ) ;
#1006 = EDGE_CURVE ( 'NONE', #359, #310, #20, .T. ) ;
#1007 = EDGE_LOOP ( 'NONE', ( #246, #773, #844, #422 ) ) ;
#1008 = ORIENTED_EDGE ( 'NONE', *, *, #1152, .F. ) ;
#1009 = DIRECTION ( 'NONE',  ( 1.836970198721034618E-16, 0.000000000000000000, 1.000000000000000000 ) ) ;
#1010 = DIRECTION ( 'NONE',  ( 1.000000000000000000, 0.000000000000000000, -1.836970198721029688E-16 ) ) ;
#1011 = DIRECTION ( 'NONE',  ( -1.000000000000000000, -0.000000000000000000, 1.836970198721034618E-16 ) ) ;
#1012 = ADVANCED_FACE ( 'NONE', ( #927 ), #755, .T. ) ;
#1013 = ORIENTED_EDGE ( 'NONE', *, *, #454, .F. ) ;
#1014 = VECTOR ( 'NONE', #548, 1000.000000000000000 ) ;
#1015 = AXIS2_PLACEMENT_3D ( 'NONE', #1153, #419, #1173 ) ;
#1016 = EDGE_LOOP ( 'NONE', ( #52, #75, #215, #304 ) ) ;
#1017 = CARTESIAN_POINT ( 'NONE',  ( 435.0000000000000000, -2.249999999999999112, -27.15695122800061867 ) ) ;
#1018 = CARTESIAN_POINT ( 'NONE',  ( -500.0000000000000000, 0.000000000000000000, -25.50000000000000000 ) ) ;
#1019 = PLANE ( 'NONE',  #732 ) ;
#1020 = APPLICATION_CONTEXT ( 'configuration controlled 3d designs of mechanical parts and assemblies' ) ;
#1021 = ORIENTED_EDGE ( 'NONE', *, *, #1152, .T. ) ;
#1022 = VERTEX_POINT ( 'NONE', #757 ) ;
#1023 = PLANE ( 'NONE',  #1162 ) ;
#1024 = ADVANCED_FACE ( 'NONE', ( #857 ), #1120, .T. ) ;
#1025 = CARTESIAN_POINT ( 'NONE',  ( 435.0000000000000000, 0.000000000000000000, -7.990820364436478514E-14 ) ) ;
#1026 = FACE_OUTER_BOUND ( 'NONE', #707, .T. ) ;
#1027 = ORIENTED_EDGE ( 'NONE', *, *, #720, .F. ) ;
#1028 = VERTEX_POINT ( 'NONE', #942 ) ;
#1029 = LINE ( 'NONE', #1017, #69 ) ;
#1030 = EDGE_CURVE ( 'NONE', #97, #444, #478, .T. ) ;
#1031 = CARTESIAN_POINT ( 'NONE',  ( 435.8816349035415669, 2.724839128102866513E-15, -22.25000000000017053 ) ) ;
#1032 = DIRECTION ( 'NONE',  ( 1.000000000000000000, 0.000000000000000000, -1.836970198721029688E-16 ) ) ;
#1033 = CARTESIAN_POINT ( 'NONE',  ( 474.0000000000000000, 0.000000000000000000, -27.25000000000008882 ) ) ;
#1034 = EDGE_LOOP ( 'NONE', ( #831, #645, #738, #33 ) ) ;
#1035 = DIRECTION ( 'NONE',  ( 0.000000000000000000, 0.000000000000000000, -1.000000000000000000 ) ) ;
#1036 = CIRCLE ( 'NONE', #35, 27.25000000000000000 ) ;
#1037 = VECTOR ( 'NONE', #684, 1000.000000000000000 ) ;
#1038 = ADVANCED_FACE ( 'NONE', ( #948 ), #1019, .F. ) ;
#1039 = CYLINDRICAL_SURFACE ( 'NONE', #171, 25.75000000000000000 ) ;
#1040 = VERTEX_POINT ( 'NONE', #663 ) ;
#1041 = EDGE_LOOP ( 'NONE', ( #48, #402, #330, #751, #316, #665, #961, #562, #928, #159, #1190, #802 ) ) ;
#1042 = CARTESIAN_POINT ( 'NONE',  ( 435.8816349035415669, 0.000000000000000000, -1.259944123167863595E-13 ) ) ;
#1043 = AXIS2_PLACEMENT_3D ( 'NONE', #1067, #307, #313 ) ;
#1044 = CARTESIAN_POINT ( 'NONE',  ( 435.8816349035415669, 0.000000000000000000, 22.24999999999991829 ) ) ;
#1045 = ORIENTED_EDGE ( 'NONE', *, *, #245, .T. ) ;
#1046 = ADVANCED_FACE ( 'NONE', ( #763 ), #263, .F. ) ;
#1047 = ORIENTED_EDGE ( 'NONE', *, *, #941, .F. ) ;
#1048 = PLANE ( 'NONE',  #1054 ) ;
#1049 = CARTESIAN_POINT ( 'NONE',  ( 474.0000000000000000, -2.250000000000000000, -27.25000000000008527 ) ) ;
#1050 = DIRECTION ( 'NONE',  ( 1.000000000000000000, 0.000000000000000000, -1.836970198721029688E-16 ) ) ;
#1051 = ADVANCED_FACE ( 'NONE', ( #555, #1026 ), #196, .F. ) ;
#1052 = ORIENTED_EDGE ( 'NONE', *, *, #8, .F. ) ;
#1053 = DIRECTION ( 'NONE',  ( -1.000000000000000000, -0.000000000000000000, 1.836970198721034618E-16 ) ) ;
#1054 = AXIS2_PLACEMENT_3D ( 'NONE', #1128, #132, #298 ) ;
#1055 = CYLINDRICAL_SURFACE ( 'NONE', #566, 27.25000000000000000 ) ;
#1056 = CIRCLE ( 'NONE', #529, 26.94846310392961897 ) ;
#1057 = DIRECTION ( 'NONE',  ( 1.000000000000000000, -0.000000000000000000, -1.836970198721029688E-16 ) ) ;
#1058 = DIRECTION ( 'NONE',  ( 1.000000000000000000, 0.000000000000000000, -1.836970198721034618E-16 ) ) ;
#1059 = ORIENTED_EDGE ( 'NONE', *, *, #99, .F. ) ;
#1060 = DIRECTION ( 'NONE',  ( 1.000000000000000000, 0.000000000000000000, -1.836970198721029688E-16 ) ) ;
#1061 = CARTESIAN_POINT ( 'NONE',  ( 500.0000000000000000, 2.250000000000000000, -27.25000000000008882 ) ) ;
#1062 = DIRECTION ( 'NONE',  ( 1.000000000000000000, -0.000000000000000000, -1.836970198721029688E-16 ) ) ;
#1063 = CARTESIAN_POINT ( 'NONE',  ( 500.0000000000000000, 25.65151067676131902, -2.250000000000085265 ) ) ;
#1064 = EDGE_LOOP ( 'NONE', ( #1059, #165, #715, #744 ) ) ;
#1065 = DIRECTION ( 'NONE',  ( 0.000000000000000000, 0.000000000000000000, -1.000000000000000000 ) ) ;
#1066 = ADVANCED_FACE ( 'NONE', ( #921 ), #1039, .F. ) ;
#1067 = CARTESIAN_POINT ( 'NONE',  ( 435.0000000000000000, 0.000000000000000000, -7.990820364436478514E-14 ) ) ;
#1068 = DIRECTION ( 'NONE',  ( 1.000000000000000000, -0.000000000000000000, -1.836970198721029688E-16 ) ) ;
#1069 = ORIENTED_EDGE ( 'NONE', *, *, #418, .T. ) ;
#1070 = DIRECTION ( 'NONE',  ( 0.9396926207859089830, 0.000000000000000000, -0.3420201433256669366 ) ) ;
#1071 = AXIS2_PLACEMENT_3D ( 'NONE', #109, #453, #24 ) ;
#1072 = PRODUCT_RELATED_PRODUCT_CATEGORY ( 'detail', '', ( #483 ) ) ;
#1073 = PERSON_AND_ORGANIZATION ( #610, #1115 ) ;
#1074 = DIRECTION ( 'NONE',  ( 0.000000000000000000, 0.000000000000000000, -1.000000000000000000 ) ) ;
#1075 = EDGE_CURVE ( 'NONE', #451, #29, #698, .T. ) ;
#1076 = AXIS2_PLACEMENT_3D ( 'NONE', #395, #482, #943 ) ;
#1077 = ORIENTED_EDGE ( 'NONE', *, *, #890, .T. ) ;
#1078 = CARTESIAN_POINT ( 'NONE',  ( 429.3102796124110796, 0.000000000000000000, -1.707115289013106308E-13 ) ) ;
#1079 = DIRECTION ( 'NONE',  ( 0.000000000000000000, 0.000000000000000000, 1.000000000000000000 ) ) ;
#1080 = EDGE_CURVE ( 'NONE', #1002, #210, #394, .T. ) ;
#1081 = EDGE_LOOP ( 'NONE', ( #360, #284 ) ) ;
#1082 = DIRECTION ( 'NONE',  ( 0.000000000000000000, 0.000000000000000000, -1.000000000000000000 ) ) ;
#1083 = APPROVAL_DATE_TIME ( #1170, #339 ) ;
#1084 = DIRECTION ( 'NONE',  ( -0.000000000000000000, -1.000000000000000000, -0.000000000000000000 ) ) ;
#1085 = ORIENTED_EDGE ( 'NONE', *, *, #941, .T. ) ;
#1086 = CARTESIAN_POINT ( 'NONE',  ( 435.0000000000000000, 2.249999999999999112, -27.15695122800061867 ) ) ;
#1087 = CIRCLE ( 'NONE', #647, 24.39199796489159411 ) ;
#1088 = DIRECTION ( 'NONE',  ( 1.000000000000000000, -0.000000000000000000, -1.836970198721029688E-16 ) ) ;
#1089 = VECTOR ( 'NONE', #3, 1000.000000000000000 ) ;
#1090 = ORIENTED_EDGE ( 'NONE', *, *, #542, .T. ) ;
#1091 = ORIENTED_EDGE ( 'NONE', *, *, #574, .F. ) ;
#1092 = LINE ( 'NONE', #1086, #73 ) ;
#1093 = EDGE_CURVE ( 'NONE', #617, #880, #322, .T. ) ;
#1094 = CARTESIAN_POINT ( 'NONE',  ( 474.0000000000000000, 0.000000000000000000, -8.707238741937679131E-14 ) ) ;
#1095 = EDGE_LOOP ( 'NONE', ( #143, #352, #544, #440 ) ) ;
#1096 = ORIENTED_EDGE ( 'NONE', *, *, #916, .F. ) ;
#1097 = DIRECTION ( 'NONE',  ( 0.000000000000000000, 0.000000000000000000, -1.000000000000000000 ) ) ;
#1098 = ADVANCED_FACE ( 'NONE', ( #953 ), #1154, .F. ) ;
#1099 = CARTESIAN_POINT ( 'NONE',  ( -500.0000000000000000, 0.000000000000000000, 0.000000000000000000 ) ) ;
#1100 = CARTESIAN_POINT ( 'NONE',  ( -500.0000000000000000, 2.939152317953647500E-15, 23.99999999999999645 ) ) ;
#1101 = ORIENTED_EDGE ( 'NONE', *, *, #82, .T. ) ;
#1102 = ORIENTED_EDGE ( 'NONE', *, *, #347, .T. ) ;
#1103 = DIRECTION ( 'NONE',  ( -1.836970198721029688E-16, 0.000000000000000000, -1.000000000000000000 ) ) ;
#1104 = CARTESIAN_POINT ( 'NONE',  ( 474.0000000000000000, -27.15695122800053696, 2.249999999999919176 ) ) ;
#1105 = CARTESIAN_POINT ( 'NONE',  ( 474.0000000000000000, 27.25000000000000000, 2.249999999999919176 ) ) ;
#1106 = ORIENTED_EDGE ( 'NONE', *, *, #353, .T. ) ;
#1107 = EDGE_CURVE ( 'NONE', #978, #1160, #869, .T. ) ;
#1108 = TOROIDAL_SURFACE ( 'NONE', #584, 30.50000000000000000, 5.000000000000000000 ) ;
#1109 = AXIS2_PLACEMENT_3D ( 'NONE', #68, #431, #721 ) ;
#1110 = ORIENTED_EDGE ( 'NONE', *, *, #156, .T. ) ;
#1111 = DIRECTION ( 'NONE',  ( -0.000000000000000000, 1.000000000000000000, 0.000000000000000000 ) ) ;
#1112 = DIRECTION ( 'NONE',  ( 1.000000000000000000, 0.000000000000000000, -1.836970198721029688E-16 ) ) ;
#1113 = DIRECTION ( 'NONE',  ( -1.000000000000000000, -0.000000000000000000, 1.836970198721034618E-16 ) ) ;
#1114 = ORIENTED_EDGE ( 'NONE', *, *, #150, .T. ) ;
#1115 = ORGANIZATION ( 'UNSPECIFIED', 'UNSPECIFIED', '' ) ;
#1116 = EDGE_CURVE ( 'NONE', #220, #451, #414, .T. ) ;
#1117 = EDGE_LOOP ( 'NONE', ( #1047, #573, #113, #216 ) ) ;
#1118 = DIRECTION ( 'NONE',  ( -1.000000000000000000, -0.000000000000000000, 1.836970198721034618E-16 ) ) ;
#1119 = DIRECTION ( 'NONE',  ( 0.000000000000000000, 0.000000000000000000, -1.000000000000000000 ) ) ;
#1120 = PLANE ( 'NONE',  #232 ) ;
#1121 = CARTESIAN_POINT ( 'NONE',  ( 500.0000000000000000, -2.250000000000000000, -27.25000000000008882 ) ) ;
#1122 = VERTEX_POINT ( 'NONE', #793 ) ;
#1123 = FACE_OUTER_BOUND ( 'NONE', #758, .T. ) ;
#1124 = DIRECTION ( 'NONE',  ( 1.000000000000000000, 0.000000000000000000, -1.836970198721029688E-16 ) ) ;
#1125 = ORIENTED_EDGE ( 'NONE', *, *, #931, .F. ) ;
#1126 = AXIS2_PLACEMENT_3D ( 'NONE', #85, #1157, #337 ) ;
#1127 = VERTEX_POINT ( 'NONE', #1141 ) ;
#1128 = CARTESIAN_POINT ( 'NONE',  ( 474.0000000000000000, 27.25000000000000000, 2.249999999999919176 ) ) ;
#1129 = DESIGN_CONTEXT ( 'detailed design', #864, 'design' ) ;
#1130 = TOROIDAL_SURFACE ( 'NONE', #747, 30.50000000000000000, 6.500000000000000888 ) ;
#1131 = EDGE_CURVE ( 'NONE', #310, #922, #714, .T. ) ;
#1132 = CARTESIAN_POINT ( 'NONE',  ( 474.0000000000000000, 0.000000000000000000, -8.707238741937679131E-14 ) ) ;
#1133 = DIRECTION ( 'NONE',  ( -0.000000000000000000, -1.000000000000000000, -0.000000000000000000 ) ) ;
#1134 = EDGE_LOOP ( 'NONE', ( #67, #479, #539, #254 ) ) ;
#1135 = DIRECTION ( 'NONE',  ( 1.000000000000000000, 0.000000000000000000, -1.836970198721039795E-16 ) ) ;
#1136 = EDGE_CURVE ( 'NONE', #385, #759, #167, .T. ) ;
#1137 = DIRECTION ( 'NONE',  ( -1.000000000000000000, -0.000000000000000000, 1.836970198721039795E-16 ) ) ;
#1138 = VERTEX_POINT ( 'NONE', #966 ) ;
#1139 = DIRECTION ( 'NONE',  ( 0.000000000000000000, 0.000000000000000000, -1.000000000000000000 ) ) ;
#1140 = DIRECTION ( 'NONE',  ( 2.249639673992792433E-32, 1.000000000000000000, 1.224646799147353207E-16 ) ) ;
#1141 = CARTESIAN_POINT ( 'NONE',  ( 474.0000000000000000, 2.250000000000000000, 25.65151067676122665 ) ) ;
#1142 = LINE ( 'NONE', #295, #1147 ) ;
#1143 = ORIENTED_EDGE ( 'NONE', *, *, #44, .F. ) ;
#1144 = CARTESIAN_POINT ( 'NONE',  ( 500.0000000000000000, -25.65151067676131547, 2.249999999999914291 ) ) ;
#1145 = DIRECTION ( 'NONE',  ( -1.000000000000000000, -0.000000000000000000, 1.836970198721034618E-16 ) ) ;
#1146 = VECTOR ( 'NONE', #821, 1000.000000000000000 ) ;
#1147 = VECTOR ( 'NONE', #1133, 1000.000000000000000 ) ;
#1148 = AXIS2_PLACEMENT_3D ( 'NONE', #406, #781, #401 ) ;
#1149 = LINE ( 'NONE', #1155, #434 ) ;
#1150 = CIRCLE ( 'NONE', #692, 25.75000000000000000 ) ;
#1151 = ORIENTED_EDGE ( 'NONE', *, *, #82, .F. ) ;
#1152 = EDGE_CURVE ( 'NONE', #385, #688, #94, .T. ) ;
#1153 = CARTESIAN_POINT ( 'NONE',  ( 474.0000000000000000, 0.000000000000000000, -8.707238741937679131E-14 ) ) ;
#1154 = CYLINDRICAL_SURFACE ( 'NONE', #1043, 25.75000000000000000 ) ;
#1155 = CARTESIAN_POINT ( 'NONE',  ( 435.0000000000000000, 2.249999999999999112, -25.65151067676139718 ) ) ;
#1156 = EDGE_LOOP ( 'NONE', ( #1052, #1110, #1106, #682 ) ) ;
#1157 = DIRECTION ( 'NONE',  ( 1.000000000000000000, 0.000000000000000000, -1.836970198721039795E-16 ) ) ;
#1158 = PERSON_AND_ORGANIZATION_ROLE ( 'design_owner' ) ;
#1159 = CARTESIAN_POINT ( 'NONE',  ( 500.0000000000000000, -25.65151067676131902, -2.250000000000085265 ) ) ;
#1160 = VERTEX_POINT ( 'NONE', #780 ) ;
#1161 = DIRECTION ( 'NONE',  ( -1.000000000000000000, -0.000000000000000000, 1.836970198721029688E-16 ) ) ;
#1162 = AXIS2_PLACEMENT_3D ( 'NONE', #285, #1111, #646 ) ;
#1163 = SHAPE_DEFINITION_REPRESENTATION ( #41, #306 ) ;
#1164 = VECTOR ( 'NONE', #105, 1000.000000000000000 ) ;
#1165 = DIRECTION ( 'NONE',  ( 1.000000000000000000, 0.000000000000000000, -1.836970198721029688E-16 ) ) ;
#1166 = CIRCLE ( 'NONE', #710, 23.99999999999999645 ) ;
#1167 = ORIENTED_EDGE ( 'NONE', *, *, #1075, .F. ) ;
#1168 = LINE ( 'NONE', #349, #490 ) ;
#1169 = AXIS2_PLACEMENT_3D ( 'NONE', #506, #1057, #776 ) ;
#1170 = DATE_AND_TIME ( #420, #632 ) ;
#1171 = FACE_OUTER_BOUND ( 'NONE', #504, .T. ) ;
#1172 = ORIENTED_EDGE ( 'NONE', *, *, #362, .F. ) ;
#1173 = DIRECTION ( 'NONE',  ( 0.000000000000000000, 1.687538997430237941E-14, 1.000000000000000000 ) ) ;
#1174 = DATE_AND_TIME ( #991, #830 ) ;
#1175 = DIRECTION ( 'NONE',  ( 0.000000000000000000, 0.000000000000000000, -1.000000000000000000 ) ) ;
#1176 = ORIENTED_EDGE ( 'NONE', *, *, #1080, .F. ) ;
#1177 = EDGE_CURVE ( 'NONE', #489, #97, #518, .T. ) ;
#1178 = LINE ( 'NONE', #817, #586 ) ;
#1179 = AXIS2_PLACEMENT_3D ( 'NONE', #16, #291, #571 ) ;
#1180 = CARTESIAN_POINT ( 'NONE',  ( 430.1919145159533855, 3.122849337825750222E-15, 25.49999999999982947 ) ) ;
#1181 = TOROIDAL_SURFACE ( 'NONE', #826, 30.50000000000000000, 5.000000000000000000 ) ;
#1182 = ORIENTED_EDGE ( 'NONE', *, *, #250, .F. ) ;
#1183 = CIRCLE ( 'NONE', #977, 25.75000000000000000 ) ;
#1184 = ORIENTED_EDGE ( 'NONE', *, *, #128, .F. ) ;
#1185 = CARTESIAN_POINT ( 'NONE',  ( 500.0000000000000000, 27.25000000000000000, -2.250000000000085265 ) ) ;
#1186 = ADVANCED_FACE ( 'NONE', ( #874 ), #46, .T. ) ;
#1187 = FACE_OUTER_BOUND ( 'NONE', #1016, .T. ) ;
#1188 = DIRECTION ( 'NONE',  ( -0.000000000000000000, -1.000000000000000000, -0.000000000000000000 ) ) ;
#1189 = ORIENTED_EDGE ( 'NONE', *, *, #574, .T. ) ;
#1190 = ORIENTED_EDGE ( 'NONE', *, *, #1075, .T. ) ;
#1191 = DIRECTION ( 'NONE',  ( 0.000000000000000000, 0.000000000000000000, 1.000000000000000000 ) ) ;
ENDSEC;
END-ISO-10303-21;
