ISO-10303-21;
HEADER;
FILE_DESCRIPTION (( 'STEP AP203' ),
    '1' );
FILE_NAME ('79-8414 - 45mm x 2000mm.STEP',
    '2026-09-15T22:03:17',
    ( '' ),
    ( '' ),
    'SwSTEP 2.0',
    'SolidWorks 2026',
    '' );
FILE_SCHEMA (( 'CONFIG_CONTROL_DESIGN' ));
ENDSEC;

DATA;
#1 = VERTEX_POINT ( 'NONE', #284 ) ;
#2 = APPROVAL_DATE_TIME ( #80, #865 ) ;
#3 = AXIS2_PLACEMENT_3D ( 'NONE', #617, #978, #1086 ) ;
#4 = DIRECTION ( 'NONE',  ( -1.000000000000000000, -0.000000000000000000, 1.836970198721035604E-16 ) ) ;
#5 = LINE ( 'NONE', #372, #625 ) ;
#6 = ORIENTED_EDGE ( 'NONE', *, *, #1046, .T. ) ;
#7 = DIRECTION ( 'NONE',  ( 0.000000000000000000, 0.000000000000000000, -1.000000000000000000 ) ) ;
#8 = APPROVAL_STATUS ( 'not_yet_approved' ) ;
#9 = PLANE ( 'NONE',  #391 ) ;
#10 = LINE ( 'NONE', #845, #1178 ) ;
#11 = ADVANCED_FACE ( 'NONE', ( #450 ), #373, .F. ) ;
#12 = ADVANCED_FACE ( 'NONE', ( #839 ), #1002, .T. ) ;
#13 = VERTEX_POINT ( 'NONE', #374 ) ;
#14 = DIRECTION ( 'NONE',  ( -1.000000000000000000, 0.000000000000000000, 1.836970198721029688E-16 ) ) ;
#15 = DIRECTION ( 'NONE',  ( 1.000000000000000000, 0.000000000000000000, -1.836970198721029688E-16 ) ) ;
#16 = CARTESIAN_POINT ( 'NONE',  ( 929.3102796124104543, 0.000000000000000000, -3.544085487734140599E-13 ) ) ;
#17 = DIRECTION ( 'NONE',  ( 2.249639673992793528E-32, 1.000000000000000000, 1.224646799147353207E-16 ) ) ;
#18 = CIRCLE ( 'NONE', #582, 24.25000000000000355 ) ;
#19 = DIRECTION ( 'NONE',  ( 0.9396926207859142011, 4.188538737676800713E-17, 0.3420201433256528922 ) ) ;
#20 = EDGE_LOOP ( 'NONE', ( #808, #225 ) ) ;
#21 = CARTESIAN_POINT ( 'NONE',  ( 935.8816349035413396, 2.357445088358666196E-15, -19.25000000000035882 ) ) ;
#22 = ORIENTED_EDGE ( 'NONE', *, *, #310, .F. ) ;
#23 = CARTESIAN_POINT ( 'NONE',  ( 974.0000000000000000, 2.250000000000000000, -22.63846284534372444 ) ) ;
#24 = CC_DESIGN_DATE_AND_TIME_ASSIGNMENT ( #456, #843, ( #399 ) ) ;
#25 = PLANE ( 'NONE',  #1022 ) ;
#26 = ORIENTED_EDGE ( 'NONE', *, *, #235, .T. ) ;
#27 = VECTOR ( 'NONE', #876, 1000.000000000000000 ) ;
#28 = APPROVAL_PERSON_ORGANIZATION ( #664, #865, #375 ) ;
#29 = EDGE_LOOP ( 'NONE', ( #832, #908, #492, #965 ) ) ;
#30 = DIRECTION ( 'NONE',  ( 0.000000000000000000, 0.000000000000000000, -1.000000000000000000 ) ) ;
#31 = UNCERTAINTY_MEASURE_WITH_UNIT (LENGTH_MEASURE( 1.000000000000000082E-05 ), #977, 'distance_accuracy_value', 'NONE');
#32 = DIRECTION ( 'NONE',  ( 1.000000000000000000, 0.000000000000000000, -1.836970198721029688E-16 ) ) ;
#33 = ORIENTED_EDGE ( 'NONE', *, *, #68, .T. ) ;
#34 = TOROIDAL_SURFACE ( 'NONE', #551, 19.25000000000009237, 5.000000000000000000 ) ;
#35 = ADVANCED_FACE ( 'NONE', ( #744 ), #1107, .T. ) ;
#36 = ORIENTED_EDGE ( 'NONE', *, *, #973, .F. ) ;
#37 = PLANE ( 'NONE',  #197 ) ;
#38 = ORIENTED_EDGE ( 'NONE', *, *, #97, .T. ) ;
#39 = AXIS2_PLACEMENT_3D ( 'NONE', #265, #638, #245 ) ;
#40 = ORIENTED_EDGE ( 'NONE', *, *, #589, .F. ) ;
#41 = CARTESIAN_POINT ( 'NONE',  ( 1000.000000000000000, -22.63846284534354325, 2.249999999999822364 ) ) ;
#42 = CIRCLE ( 'NONE', #463, 22.75000000000000355 ) ;
#43 = CIRCLE ( 'NONE', #467, 22.80153689607040945 ) ;
#44 = ORIENTED_EDGE ( 'NONE', *, *, #635, .T. ) ;
#45 = CARTESIAN_POINT ( 'NONE',  ( 1000.000000000000000, 22.63846284534354325, 2.249999999999822364 ) ) ;
#46 = AXIS2_PLACEMENT_3D ( 'NONE', #905, #444, #708 ) ;
#47 = CC_DESIGN_PERSON_AND_ORGANIZATION_ASSIGNMENT ( #648, #275, ( #399 ) ) ;
#48 = ORIENTED_EDGE ( 'NONE', *, *, #259, .F. ) ;
#49 = DIRECTION ( 'NONE',  ( -0.000000000000000000, -1.000000000000000000, -0.000000000000000000 ) ) ;
#50 = DIRECTION ( 'NONE',  ( -1.836970198721029688E-16, 0.000000000000000000, -1.000000000000000000 ) ) ;
#51 = CARTESIAN_POINT ( 'NONE',  ( 930.1919145159527034, 0.000000000000000000, -3.545705024778094362E-13 ) ) ;
#52 = VERTEX_POINT ( 'NONE', #146 ) ;
#53 = DIRECTION ( 'NONE',  ( 1.000000000000000000, 0.000000000000000000, -1.836970198721029688E-16 ) ) ;
#54 = LINE ( 'NONE', #514, #156 ) ;
#55 = AXIS2_PLACEMENT_3D ( 'NONE', #154, #166, #1170 ) ;
#56 = EDGE_CURVE ( 'NONE', #1130, #1029, #1043, .T. ) ;
#57 = EDGE_LOOP ( 'NONE', ( #779, #246, #1163, #930 ) ) ;
#58 = DIRECTION ( 'NONE',  ( -1.000000000000000000, -0.000000000000000000, 1.836970198721029688E-16 ) ) ;
#59 = CARTESIAN_POINT ( 'NONE',  ( 1000.000000000000000, 0.000000000000000000, -1.836970198721029747E-13 ) ) ;
#60 = ADVANCED_FACE ( 'NONE', ( #229 ), #848, .T. ) ;
#61 = ADVANCED_FACE ( 'NONE', ( #580 ), #410, .F. ) ;
#62 = CARTESIAN_POINT ( 'NONE',  ( 935.8816349035413396, 0.000000000000000000, -1.719186672848120401E-13 ) ) ;
#63 = CIRCLE ( 'NONE', #193, 22.80153689607040945 ) ;
#64 = ORIENTED_EDGE ( 'NONE', *, *, #778, .T. ) ;
#65 = LOCAL_TIME ( 0, 3, 17.00000000000000000, #1108 ) ;
#66 = CARTESIAN_POINT ( 'NONE',  ( 974.0000000000000000, 0.000000000000000000, -1.789208973554282786E-13 ) ) ;
#67 = CARTESIAN_POINT ( 'NONE',  ( 935.0000000000000000, 0.000000000000000000, -1.717567135804162851E-13 ) ) ;
#68 = EDGE_CURVE ( 'NONE', #230, #119, #152, .T. ) ;
#69 = ORIENTED_EDGE ( 'NONE', *, *, #135, .T. ) ;
#70 = PLANE ( 'NONE',  #1048 ) ;
#71 = FACE_OUTER_BOUND ( 'NONE', #29, .T. ) ;
#72 = CARTESIAN_POINT ( 'NONE',  ( 974.0000000000000000, 0.000000000000000000, -1.789208973554282786E-13 ) ) ;
#73 = VERTEX_POINT ( 'NONE', #963 ) ;
#74 = FACE_OUTER_BOUND ( 'NONE', #57, .T. ) ;
#75 = ADVANCED_FACE ( 'NONE', ( #428 ), #1137, .T. ) ;
#76 = DIRECTION ( 'NONE',  ( 1.000000000000000000, -0.000000000000000000, -1.836970198721029688E-16 ) ) ;
#77 = DIRECTION ( 'NONE',  ( 0.000000000000000000, -1.000000000000000000, 0.000000000000000000 ) ) ;
#78 = EDGE_CURVE ( 'NONE', #241, #128, #54, .T. ) ;
#79 = VERTEX_POINT ( 'NONE', #790 ) ;
#80 = DATE_AND_TIME ( #753, #991 ) ;
#81 = VECTOR ( 'NONE', #1035, 1000.000000000000000 ) ;
#82 = CARTESIAN_POINT ( 'NONE',  ( 935.8816349035413396, 0.000000000000000000, -1.719186672848120401E-13 ) ) ;
#83 = ADVANCED_FACE ( 'NONE', ( #1155 ), #696, .T. ) ;
#84 = DIRECTION ( 'NONE',  ( 1.000000000000000000, 0.000000000000000000, -1.836970198721029688E-16 ) ) ;
#85 = ORIENTED_EDGE ( 'NONE', *, *, #258, .T. ) ;
#86 = ORIENTED_EDGE ( 'NONE', *, *, #902, .F. ) ;
#87 = PERSON_AND_ORGANIZATION ( #540, #107 ) ;
#88 = LINE ( 'NONE', #941, #426 ) ;
#89 = CIRCLE ( 'NONE', #764, 22.75000000000000355 ) ;
#90 = DIRECTION ( 'NONE',  ( -0.000000000000000000, -1.000000000000000000, -0.000000000000000000 ) ) ;
#91 = ORIENTED_EDGE ( 'NONE', *, *, #712, .F. ) ;
#92 = DIRECTION ( 'NONE',  ( 1.000000000000000000, 0.000000000000000000, -1.836970198721029688E-16 ) ) ;
#93 = SHAPE_DEFINITION_REPRESENTATION ( #1061, #860 ) ;
#94 = CARTESIAN_POINT ( 'NONE',  ( 974.0000000000000000, -2.250000000000000000, -24.25000000000018474 ) ) ;
#95 = APPROVAL ( #1097, 'UNSPECIFIED' ) ;
#96 = CARTESIAN_POINT ( 'NONE',  ( 929.3102796124104543, 2.755455298081544778E-15, 22.49999999999964473 ) ) ;
#97 = EDGE_CURVE ( 'NONE', #856, #422, #619, .T. ) ;
#98 = CIRCLE ( 'NONE', #717, 24.25000000000000355 ) ;
#99 = ORIENTED_EDGE ( 'NONE', *, *, #953, .T. ) ;
#100 = EDGE_LOOP ( 'NONE', ( #133, #680, #1151, #919, #574, #557, #691, #1117, #882, #535, #1143, #1040 ) ) ;
#101 = CIRCLE ( 'NONE', #775, 22.50000000000000000 ) ;
#102 = VECTOR ( 'NONE', #596, 1000.000000000000000 ) ;
#103 = CARTESIAN_POINT ( 'NONE',  ( 974.0000000000000000, 0.000000000000000000, -22.75000000000018474 ) ) ;
#104 = CIRCLE ( 'NONE', #315, 22.75000000000000355 ) ;
#105 = AXIS2_PLACEMENT_3D ( 'NONE', #325, #1134, #681 ) ;
#106 = DIRECTION ( 'NONE',  ( 1.000000000000000000, 0.000000000000000000, -1.836970198721029688E-16 ) ) ;
#107 = ORGANIZATION ( 'UNSPECIFIED', 'UNSPECIFIED', '' ) ;
#108 = ORIENTED_EDGE ( 'NONE', *, *, #830, .T. ) ;
#109 = DIRECTION ( 'NONE',  ( 0.000000000000000000, 0.000000000000000000, -1.000000000000000000 ) ) ;
#110 = FACE_OUTER_BOUND ( 'NONE', #114, .T. ) ;
#111 = VERTEX_POINT ( 'NONE', #1125 ) ;
#112 = DIRECTION ( 'NONE',  ( 1.000000000000000000, 0.000000000000000000, -1.836970198721029688E-16 ) ) ;
#113 = EDGE_CURVE ( 'NONE', #280, #920, #816, .T. ) ;
#114 = EDGE_LOOP ( 'NONE', ( #64, #1052, #295, #1168 ) ) ;
#115 = FACE_OUTER_BOUND ( 'NONE', #429, .T. ) ;
#116 = AXIS2_PLACEMENT_3D ( 'NONE', #277, #577, #385 ) ;
#117 = CARTESIAN_POINT ( 'NONE',  ( 935.0000000000000000, -22.63846284534353970, 2.249999999999833911 ) ) ;
#118 = ORIENTED_EDGE ( 'NONE', *, *, #1138, .T. ) ;
#119 = VERTEX_POINT ( 'NONE', #786 ) ;
#120 = PLANE ( 'NONE',  #449 ) ;
#121 = AXIS2_PLACEMENT_3D ( 'NONE', #626, #77, #990 ) ;
#122 = DIRECTION ( 'NONE',  ( 1.000000000000000000, 0.000000000000000000, -1.836970198721029688E-16 ) ) ;
#123 = VERTEX_POINT ( 'NONE', #1118 ) ;
#124 = ORIENTED_EDGE ( 'NONE', *, *, #407, .T. ) ;
#125 = DIRECTION ( 'NONE',  ( -1.000000000000000000, 0.000000000000000000, 1.836970198721029688E-16 ) ) ;
#126 = DIRECTION ( 'NONE',  ( 1.000000000000000000, 0.000000000000000000, -1.836970198721029934E-16 ) ) ;
#127 = ADVANCED_FACE ( 'NONE', ( #322 ), #466, .F. ) ;
#128 = VERTEX_POINT ( 'NONE', #1028 ) ;
#129 = ORIENTED_EDGE ( 'NONE', *, *, #726, .T. ) ;
#130 = DIRECTION ( 'NONE',  ( 0.000000000000000000, 0.000000000000000000, 1.000000000000000000 ) ) ;
#131 = DIRECTION ( 'NONE',  ( 1.000000000000000000, 0.000000000000000000, -1.836970198721029688E-16 ) ) ;
#132 = EDGE_CURVE ( 'NONE', #674, #747, #561, .T. ) ;
#133 = ORIENTED_EDGE ( 'NONE', *, *, #548, .F. ) ;
#134 = CARTESIAN_POINT ( 'NONE',  ( 935.0000000000000000, 2.249999999999999112, -22.63846284534371378 ) ) ;
#135 = EDGE_CURVE ( 'NONE', #1130, #338, #101, .T. ) ;
#136 = ORIENTED_EDGE ( 'NONE', *, *, #330, .F. ) ;
#137 = CARTESIAN_POINT ( 'NONE',  ( 935.0000000000000000, -2.249999999999999112, -22.63846284534371378 ) ) ;
#138 = DIRECTION ( 'NONE',  ( 0.000000000000000000, 0.000000000000000000, -1.000000000000000000 ) ) ;
#139 = AXIS2_PLACEMENT_3D ( 'NONE', #663, #705, #1067 ) ;
#140 = CIRCLE ( 'NONE', #447, 22.75000000000000355 ) ;
#141 = CARTESIAN_POINT ( 'NONE',  ( 1000.000000000000000, 0.000000000000000000, -3.673940397442059493E-13 ) ) ;
#142 = VECTOR ( 'NONE', #829, 1000.000000000000000 ) ;
#143 = VERTEX_POINT ( 'NONE', #45 ) ;
#144 = DIRECTION ( 'NONE',  ( 0.000000000000000000, -3.641531520770513453E-14, 1.000000000000000000 ) ) ;
#145 = LINE ( 'NONE', #789, #102 ) ;
#146 = CARTESIAN_POINT ( 'NONE',  ( 1000.000000000000000, -2.249999999999999556, 22.63846284534335851 ) ) ;
#147 = AXIS2_PLACEMENT_3D ( 'NONE', #314, #404, #794 ) ;
#148 = EDGE_CURVE ( 'NONE', #500, #153, #353, .T. ) ;
#149 = ORIENTED_EDGE ( 'NONE', *, *, #319, .F. ) ;
#150 = DIRECTION ( 'NONE',  ( 1.000000000000000000, -0.000000000000000000, -1.836970198721029688E-16 ) ) ;
#151 = CARTESIAN_POINT ( 'NONE',  ( 930.1919145159527034, 0.000000000000000000, -22.50000000000035172 ) ) ;
#152 = LINE ( 'NONE', #796, #927 ) ;
#153 = VERTEX_POINT ( 'NONE', #239 ) ;
#154 = CARTESIAN_POINT ( 'NONE',  ( 934.1715341869131635, 0.000000000000000000, -2.634530368155378202E-13 ) ) ;
#155 = CARTESIAN_POINT ( 'NONE',  ( 929.3102796124104543, 0.000000000000000000, -3.544085487734135045E-13 ) ) ;
#156 = VECTOR ( 'NONE', #421, 1000.000000000000000 ) ;
#157 = AXIS2_PLACEMENT_3D ( 'NONE', #430, #899, #728 ) ;
#158 = ORIENTED_EDGE ( 'NONE', *, *, #243, .T. ) ;
#159 = LINE ( 'NONE', #616, #470 ) ;
#160 = AXIS2_PLACEMENT_3D ( 'NONE', #719, #1083, #1090 ) ;
#161 = DIRECTION ( 'NONE',  ( 0.000000000000000000, 0.000000000000000000, -1.000000000000000000 ) ) ;
#162 = CARTESIAN_POINT ( 'NONE',  ( 1000.000000000000000, -2.250000000000000000, -24.25000000000018829 ) ) ;
#163 = EDGE_CURVE ( 'NONE', #1013, #402, #613, .T. ) ;
#164 = EDGE_LOOP ( 'NONE', ( #640, #317, #1019, #803 ) ) ;
#165 = DIRECTION ( 'NONE',  ( 0.000000000000000000, 0.000000000000000000, -1.000000000000000000 ) ) ;
#166 = DIRECTION ( 'NONE',  ( -1.000000000000000000, -0.000000000000000000, 1.836970198721041767E-16 ) ) ;
#167 = DIRECTION ( 'NONE',  ( 1.000000000000000000, 0.000000000000000000, -1.836970198721029688E-16 ) ) ;
#168 = ADVANCED_FACE ( 'NONE', ( #480 ), #673, .T. ) ;
#169 = EDGE_LOOP ( 'NONE', ( #486, #940, #598, #149 ) ) ;
#170 = VECTOR ( 'NONE', #282, 1000.000000000000000 ) ;
#171 = VERTEX_POINT ( 'NONE', #442 ) ;
#172 = DIRECTION ( 'NONE',  ( -1.000000000000000000, -0.000000000000000000, 1.836970198721029688E-16 ) ) ;
#173 = LINE ( 'NONE', #162, #192 ) ;
#174 = ORIENTED_EDGE ( 'NONE', *, *, #323, .F. ) ;
#175 = ORIENTED_EDGE ( 'NONE', *, *, #826, .T. ) ;
#176 = DATE_TIME_ROLE ( 'classification_date' ) ;
#177 = TOROIDAL_SURFACE ( 'NONE', #199, 19.25000000000009237, 5.000000000000000000 ) ;
#178 = CARTESIAN_POINT ( 'NONE',  ( 974.0000000000000000, 22.63846284534354325, 2.249999999999827249 ) ) ;
#179 = DIRECTION ( 'NONE',  ( 0.000000000000000000, 0.000000000000000000, 1.000000000000000000 ) ) ;
#180 = ORIENTED_EDGE ( 'NONE', *, *, #451, .T. ) ;
#181 = VERTEX_POINT ( 'NONE', #901 ) ;
#182 = DIRECTION ( 'NONE',  ( 1.000000000000000000, 0.000000000000000000, 0.000000000000000000 ) ) ;
#183 = ADVANCED_FACE ( 'NONE', ( #896 ), #519, .F. ) ;
#184 = EDGE_CURVE ( 'NONE', #405, #594, #1094, .T. ) ;
#185 = CARTESIAN_POINT ( 'NONE',  ( 935.0000000000000000, 0.000000000000000000, -1.717567135804162851E-13 ) ) ;
#186 = CIRCLE ( 'NONE', #825, 24.25000000000000355 ) ;
#187 = LINE ( 'NONE', #458, #781 ) ;
#188 = CARTESIAN_POINT ( 'NONE',  ( 1000.000000000000000, 0.000000000000000000, -3.673940397442059493E-13 ) ) ;
#189 = PERSON_AND_ORGANIZATION ( #540, #107 ) ;
#190 = DIRECTION ( 'NONE',  ( -1.000000000000000000, -0.000000000000000000, 1.836970198721029688E-16 ) ) ;
#191 = CARTESIAN_POINT ( 'NONE',  ( -1000.000000000000000, 2.571758278209462960E-15, 20.99999999999999645 ) ) ;
#192 = VECTOR ( 'NONE', #1171, 1000.000000000000000 ) ;
#193 = AXIS2_PLACEMENT_3D ( 'NONE', #1184, #361, #270 ) ;
#194 = ORIENTED_EDGE ( 'NONE', *, *, #276, .F. ) ;
#195 = CALENDAR_DATE ( 2026, 16, 9 ) ;
#196 = CIRCLE ( 'NONE', #873, 5.000000000000000888 ) ;
#197 = AXIS2_PLACEMENT_3D ( 'NONE', #879, #948, #772 ) ;
#198 = DIRECTION ( 'NONE',  ( 0.000000000000000000, -1.224646799147352961E-16, 1.000000000000000000 ) ) ;
#199 = AXIS2_PLACEMENT_3D ( 'NONE', #1041, #857, #512 ) ;
#200 = AXIS2_PLACEMENT_3D ( 'NONE', #247, #631, #358 ) ;
#201 = CARTESIAN_POINT ( 'NONE',  ( 974.0000000000000000, 24.14539293529927377, 2.249999999999827249 ) ) ;
#202 = VERTEX_POINT ( 'NONE', #801 ) ;
#203 = LOCAL_TIME ( 0, 3, 17.00000000000000000, #1187 ) ;
#204 = DIRECTION ( 'NONE',  ( 0.000000000000000000, 0.000000000000000000, 1.000000000000000000 ) ) ;
#205 = ORIENTED_EDGE ( 'NONE', *, *, #437, .F. ) ;
#206 = CARTESIAN_POINT ( 'NONE',  ( 974.0000000000000000, -24.14539293529927377, 2.249999999999827249 ) ) ;
#207 = DIRECTION ( 'NONE',  ( -1.000000000000000000, -0.000000000000000000, 1.836970198721029688E-16 ) ) ;
#208 = ORIENTED_EDGE ( 'NONE', *, *, #802, .F. ) ;
#209 = EDGE_CURVE ( 'NONE', #279, #847, #42, .T. ) ;
#210 = DIRECTION ( 'NONE',  ( 1.836970198721029688E-16, 0.000000000000000000, 1.000000000000000000 ) ) ;
#211 = ORIENTED_EDGE ( 'NONE', *, *, #276, .T. ) ;
#212 = DIRECTION ( 'NONE',  ( 1.000000000000000000, 0.000000000000000000, -1.836970198721029688E-16 ) ) ;
#213 = CIRCLE ( 'NONE', #55, 23.94846310392975397 ) ;
#214 = DIRECTION ( 'NONE',  ( 1.000000000000000000, 0.000000000000000000, -1.836970198721029688E-16 ) ) ;
#215 = EDGE_LOOP ( 'NONE', ( #630, #1045, #566, #944 ) ) ;
#216 = ORIENTED_EDGE ( 'NONE', *, *, #56, .T. ) ;
#217 = LINE ( 'NONE', #766, #27 ) ;
#218 = AXIS2_PLACEMENT_3D ( 'NONE', #575, #939, #297 ) ;
#219 = ADVANCED_FACE ( 'NONE', ( #711 ), #721, .F. ) ;
#220 = ORIENTED_EDGE ( 'NONE', *, *, #678, .F. ) ;
#221 = ORIENTED_EDGE ( 'NONE', *, *, #258, .F. ) ;
#222 = CARTESIAN_POINT ( 'NONE',  ( 974.0000000000000000, 0.000000000000000000, -1.789208973554282786E-13 ) ) ;
#223 = EDGE_CURVE ( 'NONE', #338, #123, #196, .T. ) ;
#224 = DIRECTION ( 'NONE',  ( 1.836970198721029934E-16, -0.000000000000000000, 1.000000000000000000 ) ) ;
#225 = ORIENTED_EDGE ( 'NONE', *, *, #1051, .T. ) ;
#226 = VERTEX_POINT ( 'NONE', #645 ) ;
#227 = DIRECTION ( 'NONE',  ( 1.000000000000000000, 0.000000000000000000, -1.836970198721029688E-16 ) ) ;
#228 = FACE_OUTER_BOUND ( 'NONE', #636, .T. ) ;
#229 = FACE_OUTER_BOUND ( 'NONE', #887, .T. ) ;
#230 = VERTEX_POINT ( 'NONE', #346 ) ;
#231 = EDGE_CURVE ( 'NONE', #763, #1, #98, .T. ) ;
#232 = CARTESIAN_POINT ( 'NONE',  ( 1000.000000000000000, -2.250000000000000000, -24.14539293529946207 ) ) ;
#233 = FACE_OUTER_BOUND ( 'NONE', #491, .T. ) ;
#234 = CARTESIAN_POINT ( 'NONE',  ( -1000.000000000000000, 0.000000000000000000, 0.000000000000000000 ) ) ;
#235 = EDGE_CURVE ( 'NONE', #181, #579, #949, .T. ) ;
#236 = AXIS2_PLACEMENT_3D ( 'NONE', #1004, #840, #834 ) ;
#237 = ORIENTED_EDGE ( 'NONE', *, *, #601, .F. ) ;
#238 = CARTESIAN_POINT ( 'NONE',  ( 935.8816349035413396, 0.000000000000000000, 19.24999999999982947 ) ) ;
#239 = CARTESIAN_POINT ( 'NONE',  ( -1000.000000000000000, 2.755455298081566471E-15, 22.49999999999999645 ) ) ;
#240 = AXIS2_PLACEMENT_3D ( 'NONE', #585, #32, #398 ) ;
#241 = VERTEX_POINT ( 'NONE', #633 ) ;
#242 = DIRECTION ( 'NONE',  ( 1.836970198721029688E-16, 0.000000000000000000, 1.000000000000000000 ) ) ;
#243 = EDGE_CURVE ( 'NONE', #1025, #13, #350, .T. ) ;
#244 = DIRECTION ( 'NONE',  ( -1.000000000000000000, 0.000000000000000000, 1.836970198721029688E-16 ) ) ;
#245 = DIRECTION ( 'NONE',  ( 1.836970198721035604E-16, 0.000000000000000000, 1.000000000000000000 ) ) ;
#246 = ORIENTED_EDGE ( 'NONE', *, *, #327, .T. ) ;
#247 = CARTESIAN_POINT ( 'NONE',  ( 1000.000000000000000, 0.000000000000000000, -1.836970198721029747E-13 ) ) ;
#248 = VECTOR ( 'NONE', #167, 1000.000000000000000 ) ;
#249 = CARTESIAN_POINT ( 'NONE',  ( 935.0000000000000000, -2.249999999999999112, 22.63846284534336561 ) ) ;
#250 = LINE ( 'NONE', #534, #980 ) ;
#251 = VECTOR ( 'NONE', #112, 1000.000000000000000 ) ;
#252 = CIRCLE ( 'NONE', #928, 22.75000000000000355 ) ;
#253 = CIRCLE ( 'NONE', #932, 22.50000000000000000 ) ;
#254 = ORIENTED_EDGE ( 'NONE', *, *, #1074, .T. ) ;
#255 = DIRECTION ( 'NONE',  ( -1.836970198721029688E-16, 0.000000000000000000, -1.000000000000000000 ) ) ;
#256 = VECTOR ( 'NONE', #799, 1000.000000000000000 ) ;
#257 = LINE ( 'NONE', #521, #652 ) ;
#258 = EDGE_CURVE ( 'NONE', #52, #856, #173, .T. ) ;
#259 = EDGE_CURVE ( 'NONE', #603, #171, #446, .T. ) ;
#260 = CARTESIAN_POINT ( 'NONE',  ( 974.0000000000000000, 0.000000000000000000, -1.789208973554282786E-13 ) ) ;
#261 = ORIENTED_EDGE ( 'NONE', *, *, #209, .F. ) ;
#262 = FACE_BOUND ( 'NONE', #20, .T. ) ;
#263 = APPLICATION_CONTEXT ( 'configuration controlled 3d designs of mechanical parts and assemblies' ) ;
#264 = CARTESIAN_POINT ( 'NONE',  ( 935.0000000000000000, -24.14539293529927022, 2.249999999999833911 ) ) ;
#265 = CARTESIAN_POINT ( 'NONE',  ( 929.3102796124104543, 0.000000000000000000, -3.544085487734140599E-13 ) ) ;
#266 = AXIS2_PLACEMENT_3D ( 'NONE', #1104, #754, #656 ) ;
#267 = DIRECTION ( 'NONE',  ( 1.836970198721035604E-16, 0.000000000000000000, 1.000000000000000000 ) ) ;
#268 = PERSON_AND_ORGANIZATION_ROLE ( 'creator' ) ;
#269 = CARTESIAN_POINT ( 'NONE',  ( 935.0000000000000000, -22.63846284534353970, -2.250000000000164313 ) ) ;
#270 = DIRECTION ( 'NONE',  ( 0.000000000000000000, 0.000000000000000000, 1.000000000000000000 ) ) ;
#271 = EDGE_LOOP ( 'NONE', ( #1133, #526, #6, #588 ) ) ;
#272 = AXIS2_PLACEMENT_3D ( 'NONE', #234, #1161, #336 ) ;
#273 = EDGE_CURVE ( 'NONE', #1096, #821, #752, .T. ) ;
#274 = ORIENTED_EDGE ( 'NONE', *, *, #795, .T. ) ;
#275 = PERSON_AND_ORGANIZATION_ROLE ( 'creator' ) ;
#276 = EDGE_CURVE ( 'NONE', #674, #181, #824, .T. ) ;
#277 = CARTESIAN_POINT ( 'NONE',  ( 1000.000000000000000, 0.000000000000000000, -3.673940397442059493E-13 ) ) ;
#278 = CARTESIAN_POINT ( 'NONE',  ( 1000.000000000000000, -24.14539293529927377, 2.249999999999822364 ) ) ;
#279 = VERTEX_POINT ( 'NONE', #716 ) ;
#280 = VERTEX_POINT ( 'NONE', #735 ) ;
#281 = COORDINATED_UNIVERSAL_TIME_OFFSET ( 1, 0, .AHEAD. ) ;
#282 = DIRECTION ( 'NONE',  ( -0.000000000000000000, -1.000000000000000000, -0.000000000000000000 ) ) ;
#283 = DIRECTION ( 'NONE',  ( 1.000000000000000000, -0.000000000000000000, -1.836970198721029688E-16 ) ) ;
#284 = CARTESIAN_POINT ( 'NONE',  ( 974.0000000000000000, 0.000000000000000000, -24.25000000000018829 ) ) ;
#285 = CALENDAR_DATE ( 2026, 16, 9 ) ;
#286 = CARTESIAN_POINT ( 'NONE',  ( 929.3102796124104543, 3.367778697655221307E-15, -27.50000000000035527 ) ) ;
#287 = DIRECTION ( 'NONE',  ( 1.000000000000000000, 0.000000000000000000, -1.836970198721041767E-16 ) ) ;
#288 = ORIENTED_EDGE ( 'NONE', *, *, #678, .T. ) ;
#289 = DIRECTION ( 'NONE',  ( 0.000000000000000000, -1.224646799147352714E-16, 1.000000000000000000 ) ) ;
#290 = VECTOR ( 'NONE', #90, 1000.000000000000000 ) ;
#291 = CARTESIAN_POINT ( 'NONE',  ( 1000.000000000000000, -2.250000000000000000, 24.14539293529908903 ) ) ;
#292 = VECTOR ( 'NONE', #947, 1000.000000000000000 ) ;
#293 = CC_DESIGN_DATE_AND_TIME_ASSIGNMENT ( #1113, #176, ( #572 ) ) ;
#294 = CARTESIAN_POINT ( 'NONE',  ( 1000.000000000000000, 0.000000000000000000, -1.836970198721029747E-13 ) ) ;
#295 = ORIENTED_EDGE ( 'NONE', *, *, #337, .F. ) ;
#296 = EDGE_CURVE ( 'NONE', #128, #859, #334, .T. ) ;
#297 = DIRECTION ( 'NONE',  ( 0.000000000000000000, 0.000000000000000000, -1.000000000000000000 ) ) ;
#298 = EDGE_LOOP ( 'NONE', ( #702, #653, #85, #38 ) ) ;
#299 = CYLINDRICAL_SURFACE ( 'NONE', #724, 24.25000000000000355 ) ;
#300 = AXIS2_PLACEMENT_3D ( 'NONE', #1036, #214, #138 ) ;
#301 = DIRECTION ( 'NONE',  ( 1.000000000000000000, -0.000000000000000000, -1.836970198721029688E-16 ) ) ;
#302 = ORIENTED_EDGE ( 'NONE', *, *, #424, .F. ) ;
#303 = ORIENTED_EDGE ( 'NONE', *, *, #135, .F. ) ;
#304 = CARTESIAN_POINT ( 'NONE',  ( 934.6845644019016390, 2.760222134438428581E-15, 22.53892417275053717 ) ) ;
#305 = DESIGN_CONTEXT ( 'detailed design', #263, 'design' ) ;
#306 = CARTESIAN_POINT ( 'NONE',  ( -1000.000000000000000, 0.000000000000000000, -22.50000000000000000 ) ) ;
#307 = ORIENTED_EDGE ( 'NONE', *, *, #671, .F. ) ;
#308 = AXIS2_PLACEMENT_3D ( 'NONE', #1079, #84, #907 ) ;
#309 = EDGE_CURVE ( 'NONE', #153, #338, #250, .T. ) ;
#310 = EDGE_CURVE ( 'NONE', #1025, #1038, #1162, .T. ) ;
#311 = ORIENTED_EDGE ( 'NONE', *, *, #1001, .F. ) ;
#312 = FACE_OUTER_BOUND ( 'NONE', #713, .T. ) ;
#313 = AXIS2_PLACEMENT_3D ( 'NONE', #1186, #92, #7 ) ;
#314 = CARTESIAN_POINT ( 'NONE',  ( 930.1919145159527034, 0.000000000000000000, -3.545705024778094362E-13 ) ) ;
#315 = AXIS2_PLACEMENT_3D ( 'NONE', #62, #386, #751 ) ;
#316 = CIRCLE ( 'NONE', #414, 22.75000000000000355 ) ;
#317 = ORIENTED_EDGE ( 'NONE', *, *, #826, .F. ) ;
#318 = ORIENTED_EDGE ( 'NONE', *, *, #384, .T. ) ;
#319 = EDGE_CURVE ( 'NONE', #946, #171, #797, .T. ) ;
#320 = CARTESIAN_POINT ( 'NONE',  ( -1000.000000000000000, 0.000000000000000000, 0.000000000000000000 ) ) ;
#321 = CARTESIAN_POINT ( 'NONE',  ( 931.5334105440272197, 0.000000000000000000, -21.39199796489188898 ) ) ;
#322 = FACE_OUTER_BOUND ( 'NONE', #950, .T. ) ;
#323 = EDGE_CURVE ( 'NONE', #123, #1029, #63, .T. ) ;
#324 = ORIENTED_EDGE ( 'NONE', *, *, #424, .T. ) ;
#325 = CARTESIAN_POINT ( 'NONE',  ( -1000.000000000000000, 0.000000000000000000, 0.000000000000000000 ) ) ;
#326 = CARTESIAN_POINT ( 'NONE',  ( -1000.000000000000000, 0.000000000000000000, -22.50000000000000000 ) ) ;
#327 = EDGE_CURVE ( 'NONE', #1101, #672, #104, .T. ) ;
#328 = VECTOR ( 'NONE', #974, 1000.000000000000000 ) ;
#329 = CARTESIAN_POINT ( 'NONE',  ( 930.7049447309411789, 0.000000000000000000, -3.546647445994071912E-13 ) ) ;
#330 = EDGE_CURVE ( 'NONE', #763, #279, #762, .T. ) ;
#331 = ORIENTED_EDGE ( 'NONE', *, *, #902, .T. ) ;
#332 = CARTESIAN_POINT ( 'NONE',  ( 935.8816349035413396, 0.000000000000000000, -22.75000000000017764 ) ) ;
#333 = DIRECTION ( 'NONE',  ( -1.000000000000000000, -0.000000000000000000, 1.836970198721029688E-16 ) ) ;
#334 = CIRCLE ( 'NONE', #308, 24.25000000000000355 ) ;
#335 = PRODUCT ( '79-8414 - 45mm x 2000mm', '79-8414 - 45mm x 2000mm', '', ( #363 ) ) ;
#336 = DIRECTION ( 'NONE',  ( 0.000000000000000000, 0.000000000000000000, -1.000000000000000000 ) ) ;
#337 = EDGE_CURVE ( 'NONE', #937, #1096, #484, .T. ) ;
#338 = VERTEX_POINT ( 'NONE', #96 ) ;
#339 = CARTESIAN_POINT ( 'NONE',  ( 974.0000000000000000, -22.63846284534354325, 2.249999999999827249 ) ) ;
#340 = DIRECTION ( 'NONE',  ( 1.836970198721029688E-16, 0.000000000000000000, 1.000000000000000000 ) ) ;
#341 = DIRECTION ( 'NONE',  ( 0.000000000000000000, 1.421085471520200372E-14, 1.000000000000000000 ) ) ;
#342 = AXIS2_PLACEMENT_3D ( 'NONE', #82, #895, #161 ) ;
#343 = VERTEX_POINT ( 'NONE', #573 ) ;
#344 = EDGE_CURVE ( 'NONE', #123, #747, #187, .T. ) ;
#345 = DIRECTION ( 'NONE',  ( 1.000000000000000000, 0.000000000000000000, -1.836970198721035604E-16 ) ) ;
#346 = CARTESIAN_POINT ( 'NONE',  ( 974.0000000000000000, 2.250000000000000000, 22.63846284534335140 ) ) ;
#347 = EDGE_CURVE ( 'NONE', #1123, #13, #1111, .T. ) ;
#348 = ORIENTED_EDGE ( 'NONE', *, *, #622, .T. ) ;
#349 = DIRECTION ( 'NONE',  ( -0.000000000000000000, -1.000000000000000000, -0.000000000000000000 ) ) ;
#350 = CIRCLE ( 'NONE', #587, 20.99999999999999645 ) ;
#351 = DIRECTION ( 'NONE',  ( 0.000000000000000000, 0.000000000000000000, 1.000000000000000000 ) ) ;
#352 = DIRECTION ( 'NONE',  ( 1.000000000000000000, 0.000000000000000000, -1.836970198721029688E-16 ) ) ;
#353 = CIRCLE ( 'NONE', #272, 22.50000000000000000 ) ;
#354 = CIRCLE ( 'NONE', #874, 20.99999999999999645 ) ;
#355 = AXIS2_PLACEMENT_3D ( 'NONE', #94, #1115, #1016 ) ;
#356 = VECTOR ( 'NONE', #242, 1000.000000000000000 ) ;
#357 = ORIENTED_EDGE ( 'NONE', *, *, #687, .T. ) ;
#358 = DIRECTION ( 'NONE',  ( 0.000000000000000000, 0.000000000000000000, -1.000000000000000000 ) ) ;
#359 = APPROVAL_PERSON_ORGANIZATION ( #379, #95, #1003 ) ;
#360 = CARTESIAN_POINT ( 'NONE',  ( 931.5334105440272197, 0.000000000000000000, -3.548169313003369920E-13 ) ) ;
#361 = DIRECTION ( 'NONE',  ( 1.000000000000000000, 0.000000000000000000, -1.836970198721035604E-16 ) ) ;
#362 = ORIENTED_EDGE ( 'NONE', *, *, #536, .F. ) ;
#363 = MECHANICAL_CONTEXT ( 'NONE', #807, 'mechanical' ) ;
#364 = PLANE ( 'NONE',  #355 ) ;
#365 = EDGE_CURVE ( 'NONE', #1038, #603, #931, .T. ) ;
#366 = DIRECTION ( 'NONE',  ( 0.000000000000000000, 0.000000000000000000, -1.000000000000000000 ) ) ;
#367 = ORIENTED_EDGE ( 'NONE', *, *, #401, .F. ) ;
#368 = AXIS2_PLACEMENT_3D ( 'NONE', #238, #815, #704 ) ;
#369 = ORIENTED_EDGE ( 'NONE', *, *, #1109, .F. ) ;
#370 = COORDINATED_UNIVERSAL_TIME_OFFSET ( 1, 0, .AHEAD. ) ;
#371 = FACE_OUTER_BOUND ( 'NONE', #395, .T. ) ;
#372 = CARTESIAN_POINT ( 'NONE',  ( 1000.000000000000000, 2.250000000000000000, -24.25000000000018829 ) ) ;
#373 = TOROIDAL_SURFACE ( 'NONE', #406, 19.25000000000009237, 3.500000000000000000 ) ;
#374 = CARTESIAN_POINT ( 'NONE',  ( 929.3102796124104543, 0.000000000000000000, -21.00000000000035172 ) ) ;
#375 = APPROVAL_ROLE ( '' ) ;
#376 = DIRECTION ( 'NONE',  ( 1.836970198721029688E-16, 0.000000000000000000, 1.000000000000000000 ) ) ;
#377 = CARTESIAN_POINT ( 'NONE',  ( 1000.000000000000000, 24.25000000000000355, 2.249999999999822364 ) ) ;
#378 = EDGE_LOOP ( 'NONE', ( #898, #331, #175, #855 ) ) ;
#379 = PERSON_AND_ORGANIZATION ( #540, #107 ) ;
#380 = CARTESIAN_POINT ( 'NONE',  ( 974.0000000000000000, 24.25000000000000355, -2.250000000000172307 ) ) ;
#381 = DIRECTION ( 'NONE',  ( 0.000000000000000000, 0.000000000000000000, -1.000000000000000000 ) ) ;
#382 = DIRECTION ( 'NONE',  ( 1.000000000000000000, 0.000000000000000000, -1.836970198721029688E-16 ) ) ;
#383 = APPLICATION_PROTOCOL_DEFINITION ( 'international standard', 'config_control_design', 1994, #807 ) ;
#384 = EDGE_CURVE ( 'NONE', #1007, #1018, #1144, .T. ) ;
#385 = DIRECTION ( 'NONE',  ( -1.836970198721029688E-16, 0.000000000000000000, -1.000000000000000000 ) ) ;
#386 = DIRECTION ( 'NONE',  ( 1.000000000000000000, 0.000000000000000000, -1.836970198721029688E-16 ) ) ;
#387 = ORIENTED_EDGE ( 'NONE', *, *, #184, .T. ) ;
#388 = CARTESIAN_POINT ( 'NONE',  ( 929.3102796124104543, 0.000000000000000000, -3.544085487734135045E-13 ) ) ;
#389 = ORIENTED_EDGE ( 'NONE', *, *, #524, .F. ) ;
#390 = FACE_OUTER_BOUND ( 'NONE', #960, .T. ) ;
#391 = AXIS2_PLACEMENT_3D ( 'NONE', #560, #547, #376 ) ;
#392 = CARTESIAN_POINT ( 'NONE',  ( -1000.000000000000000, 0.000000000000000000, 0.000000000000000000 ) ) ;
#393 = ORIENTED_EDGE ( 'NONE', *, *, #209, .T. ) ;
#394 = CC_DESIGN_SECURITY_CLASSIFICATION ( #572, ( #546 ) ) ;
#395 = EDGE_LOOP ( 'NONE', ( #544, #718, #1068, #220, #357, #690, #443, #86, #324, #36, #393, #741 ) ) ;
#396 = DIRECTION ( 'NONE',  ( 1.000000000000000000, 0.000000000000000000, -1.836970198721029688E-16 ) ) ;
#397 = CONICAL_SURFACE ( 'NONE', #147, 22.50000000000000000, 0.3490658503988492978 ) ;
#398 = DIRECTION ( 'NONE',  ( 0.000000000000000000, 0.000000000000000000, -1.000000000000000000 ) ) ;
#399 = PRODUCT_DEFINITION ( 'UNKNOWN', '', #546, #305 ) ;
#400 = ORIENTED_EDGE ( 'NONE', *, *, #344, .F. ) ;
#401 = EDGE_CURVE ( 'NONE', #1123, #497, #354, .T. ) ;
#402 = VERTEX_POINT ( 'NONE', #563 ) ;
#403 = DIRECTION ( 'NONE',  ( 1.836970198721029688E-16, 0.000000000000000000, 1.000000000000000000 ) ) ;
#404 = DIRECTION ( 'NONE',  ( 1.000000000000000000, 0.000000000000000000, -1.836970198721041767E-16 ) ) ;
#405 = VERTEX_POINT ( 'NONE', #201 ) ;
#406 = AXIS2_PLACEMENT_3D ( 'NONE', #924, #468, #267 ) ;
#407 = EDGE_CURVE ( 'NONE', #1101, #171, #505, .T. ) ;
#408 = VERTEX_POINT ( 'NONE', #942 ) ;
#409 = CARTESIAN_POINT ( 'NONE',  ( 1000.000000000000000, -24.14539293529927377, -2.250000000000177192 ) ) ;
#410 = TOROIDAL_SURFACE ( 'NONE', #982, 27.50000000000000000, 5.000000000000000000 ) ;
#411 = AXIS2_PLACEMENT_3D ( 'NONE', #1024, #831, #755 ) ;
#412 = DIRECTION ( 'NONE',  ( -1.000000000000000000, -0.000000000000000000, 1.836970198721035604E-16 ) ) ;
#413 = VECTOR ( 'NONE', #207, 1000.000000000000000 ) ;
#414 = AXIS2_PLACEMENT_3D ( 'NONE', #1064, #150, #423 ) ;
#415 = VERTEX_POINT ( 'NONE', #473 ) ;
#416 = DIRECTION ( 'NONE',  ( -1.000000000000000000, -0.000000000000000000, 1.836970198721035604E-16 ) ) ;
#417 = APPROVAL_PERSON_ORGANIZATION ( #553, #639, #921 ) ;
#418 = ORIENTED_EDGE ( 'NONE', *, *, #679, .T. ) ;
#419 = LINE ( 'NONE', #1140, #81 ) ;
#420 = DIRECTION ( 'NONE',  ( 1.836970198721035850E-16, 0.000000000000000000, 1.000000000000000000 ) ) ;
#421 = DIRECTION ( 'NONE',  ( 1.000000000000000000, 0.000000000000000000, -1.836970198721029688E-16 ) ) ;
#422 = VERTEX_POINT ( 'NONE', #278 ) ;
#423 = DIRECTION ( 'NONE',  ( 0.000000000000000000, 0.000000000000000000, 1.000000000000000000 ) ) ;
#424 = EDGE_CURVE ( 'NONE', #415, #343, #252, .T. ) ;
#425 = DIRECTION ( 'NONE',  ( 0.000000000000000000, 0.000000000000000000, 1.000000000000000000 ) ) ;
#426 = VECTOR ( 'NONE', #457, 1000.000000000000000 ) ;
#427 = ADVANCED_FACE ( 'NONE', ( #110 ), #25, .F. ) ;
#428 = FACE_OUTER_BOUND ( 'NONE', #685, .T. ) ;
#429 = EDGE_LOOP ( 'NONE', ( #158, #108, #914, #22 ) ) ;
#430 = CARTESIAN_POINT ( 'NONE',  ( 1000.000000000000000, 0.000000000000000000, -1.836970198721029747E-13 ) ) ;
#431 = CARTESIAN_POINT ( 'NONE',  ( 929.3102796124104543, 0.000000000000000000, -3.544085487734140599E-13 ) ) ;
#432 = AXIS2_PLACEMENT_3D ( 'NONE', #1190, #818, #1100 ) ;
#433 = DIRECTION ( 'NONE',  ( 1.000000000000000000, 0.000000000000000000, -1.836970198721029934E-16 ) ) ;
#434 = ORIENTED_EDGE ( 'NONE', *, *, #743, .T. ) ;
#435 = CARTESIAN_POINT ( 'NONE',  ( 935.8816349035413396, 0.000000000000000000, -1.719186672848120401E-13 ) ) ;
#436 = DIRECTION ( 'NONE',  ( -1.000000000000000000, -0.000000000000000000, 1.836970198721029688E-16 ) ) ;
#437 = EDGE_CURVE ( 'NONE', #821, #111, #776, .T. ) ;
#438 = EDGE_CURVE ( 'NONE', #859, #73, #676, .T. ) ;
#439 = ORIENTED_EDGE ( 'NONE', *, *, #1138, .F. ) ;
#440 = CARTESIAN_POINT ( 'NONE',  ( -1000.000000000000000, 0.000000000000000000, 0.000000000000000000 ) ) ;
#441 = DIRECTION ( 'NONE',  ( 1.000000000000000000, -0.000000000000000000, -1.836970198721029688E-16 ) ) ;
#442 = CARTESIAN_POINT ( 'NONE',  ( 934.6845644019016390, 0.000000000000000000, -22.53892417275124416 ) ) ;
#443 = ORIENTED_EDGE ( 'NONE', *, *, #1039, .T. ) ;
#444 = DIRECTION ( 'NONE',  ( -1.000000000000000000, -0.000000000000000000, 1.836970198721035604E-16 ) ) ;
#445 = CARTESIAN_POINT ( 'NONE',  ( 974.0000000000000000, -2.250000000000000000, -24.14539293529945851 ) ) ;
#446 = LINE ( 'NONE', #892, #893 ) ;
#447 = AXIS2_PLACEMENT_3D ( 'NONE', #954, #883, #1058 ) ;
#448 = EDGE_LOOP ( 'NONE', ( #303, #216, #174, #520 ) ) ;
#449 = AXIS2_PLACEMENT_3D ( 'NONE', #869, #125, #686 ) ;
#450 = FACE_OUTER_BOUND ( 'NONE', #475, .T. ) ;
#451 = EDGE_CURVE ( 'NONE', #1038, #946, #10, .T. ) ;
#452 = DIRECTION ( 'NONE',  ( 0.000000000000000000, -6.217248937900876626E-15, 1.000000000000000000 ) ) ;
#453 = CARTESIAN_POINT ( 'NONE',  ( 929.3102796124104543, 0.000000000000000000, 27.49999999999964473 ) ) ;
#454 = CIRCLE ( 'NONE', #240, 24.25000000000000355 ) ;
#455 = VERTEX_POINT ( 'NONE', #746 ) ;
#456 = DATE_AND_TIME ( #285, #65 ) ;
#457 = DIRECTION ( 'NONE',  ( 1.000000000000000000, 0.000000000000000000, -1.836970198721029688E-16 ) ) ;
#458 = CARTESIAN_POINT ( 'NONE',  ( 930.1919145159527034, 2.755455298081544778E-15, 22.49999999999964473 ) ) ;
#459 = EDGE_CURVE ( 'NONE', #847, #1013, #568, .T. ) ;
#460 = ORIENTED_EDGE ( 'NONE', *, *, #562, .F. ) ;
#461 = ORIENTED_EDGE ( 'NONE', *, *, #973, .T. ) ;
#462 = PLANE ( 'NONE',  #266 ) ;
#463 = AXIS2_PLACEMENT_3D ( 'NONE', #72, #1166, #341 ) ;
#464 = DIRECTION ( 'NONE',  ( 1.836970198721029934E-16, -0.000000000000000000, 1.000000000000000000 ) ) ;
#465 = ORIENTED_EDGE ( 'NONE', *, *, #459, .F. ) ;
#466 = CONICAL_SURFACE ( 'NONE', #1080, 21.09046106882112781, 0.3490658503988492978 ) ;
#467 = AXIS2_PLACEMENT_3D ( 'NONE', #1011, #657, #1017 ) ;
#468 = DIRECTION ( 'NONE',  ( -1.000000000000000000, -0.000000000000000000, 1.836970198721035604E-16 ) ) ;
#469 = AXIS2_PLACEMENT_3D ( 'NONE', #852, #287, #1105 ) ;
#470 = VECTOR ( 'NONE', #349, 1000.000000000000000 ) ;
#471 = FACE_OUTER_BOUND ( 'NONE', #792, .T. ) ;
#472 = CONICAL_SURFACE ( 'NONE', #629, 21.09046106882112781, 0.3490658503988492978 ) ;
#473 = CARTESIAN_POINT ( 'NONE',  ( 1000.000000000000000, -22.63846284534354325, -2.250000000000177192 ) ) ;
#474 = EDGE_CURVE ( 'NONE', #594, #143, #549, .T. ) ;
#475 = EDGE_LOOP ( 'NONE', ( #418, #124, #552, #531 ) ) ;
#476 = APPLICATION_PROTOCOL_DEFINITION ( 'international standard', 'config_control_design', 1994, #263 ) ;
#477 = DIRECTION ( 'NONE',  ( 0.000000000000000000, 0.000000000000000000, -1.000000000000000000 ) ) ;
#478 = DIRECTION ( 'NONE',  ( -0.000000000000000000, -1.000000000000000000, -0.000000000000000000 ) ) ;
#479 = EDGE_LOOP ( 'NONE', ( #302, #951, #318, #609 ) ) ;
#480 = FACE_OUTER_BOUND ( 'NONE', #770, .T. ) ;
#481 = VECTOR ( 'NONE', #1165, 1000.000000000000114 ) ;
#482 = EDGE_LOOP ( 'NONE', ( #634, #1158, #597, #576 ) ) ;
#483 = DIRECTION ( 'NONE',  ( 0.000000000000000000, 0.000000000000000000, 1.000000000000000000 ) ) ;
#484 = LINE ( 'NONE', #117, #413 ) ;
#485 = EDGE_CURVE ( 'NONE', #408, #688, #5, .T. ) ;
#486 = ORIENTED_EDGE ( 'NONE', *, *, #451, .F. ) ;
#487 = ORIENTED_EDGE ( 'NONE', *, *, #296, .F. ) ;
#488 = CARTESIAN_POINT ( 'NONE',  ( 934.1715341869131635, 0.000000000000000000, -23.94846310393011635 ) ) ;
#489 = EDGE_CURVE ( 'NONE', #1029, #123, #43, .T. ) ;
#490 = CARTESIAN_POINT ( 'NONE',  ( 974.0000000000000000, 24.25000000000000355, 2.249999999999827249 ) ) ;
#491 = EDGE_LOOP ( 'NONE', ( #387, #661, #550, #1185 ) ) ;
#492 = ORIENTED_EDGE ( 'NONE', *, *, #310, .T. ) ;
#493 = CARTESIAN_POINT ( 'NONE',  ( 931.0203803290386304, 0.000000000000000000, -22.80153689607076473 ) ) ;
#494 = CIRCLE ( 'NONE', #1131, 22.53892417275089244 ) ;
#495 = CARTESIAN_POINT ( 'NONE',  ( 974.0000000000000000, 0.000000000000000000, -1.789208973554282786E-13 ) ) ;
#496 = ORIENTED_EDGE ( 'NONE', *, *, #231, .T. ) ;
#497 = VERTEX_POINT ( 'NONE', #191 ) ;
#498 = CARTESIAN_POINT ( 'NONE',  ( 1000.000000000000000, 24.25000000000000355, 2.249999999999822364 ) ) ;
#499 = CARTESIAN_POINT ( 'NONE',  ( 1000.000000000000000, 0.000000000000000000, -3.673940397442059493E-13 ) ) ;
#500 = VERTEX_POINT ( 'NONE', #326 ) ;
#501 = DIRECTION ( 'NONE',  ( 1.836970198721029934E-16, -0.000000000000000000, 1.000000000000000000 ) ) ;
#502 = ORIENTED_EDGE ( 'NONE', *, *, #56, .F. ) ;
#503 = DIRECTION ( 'NONE',  ( -1.000000000000000000, -0.000000000000000000, 1.836970198721029688E-16 ) ) ;
#504 = AXIS2_PLACEMENT_3D ( 'NONE', #260, #1072, #1176 ) ;
#505 = CIRCLE ( 'NONE', #411, 3.499999999999999556 ) ;
#506 = LINE ( 'NONE', #858, #710 ) ;
#507 = CIRCLE ( 'NONE', #967, 24.25000000000000355 ) ;
#508 = VECTOR ( 'NONE', #227, 1000.000000000000000 ) ;
#509 = DIRECTION ( 'NONE',  ( 0.000000000000000000, -1.224646799147352714E-16, 1.000000000000000000 ) ) ;
#510 = ADVANCED_FACE ( 'NONE', ( #600 ), #962, .T. ) ;
#511 = ORIENTED_EDGE ( 'NONE', *, *, #489, .T. ) ;
#512 = DIRECTION ( 'NONE',  ( 1.836970198721035850E-16, 0.000000000000000000, 1.000000000000000000 ) ) ;
#513 = DIRECTION ( 'NONE',  ( 0.000000000000000000, 0.000000000000000000, 1.000000000000000000 ) ) ;
#514 = CARTESIAN_POINT ( 'NONE',  ( 935.0000000000000000, 2.249999999999999112, -24.14539293529944786 ) ) ;
#515 = ORIENTED_EDGE ( 'NONE', *, *, #184, .F. ) ;
#516 = LINE ( 'NONE', #997, #256 ) ;
#517 = DIRECTION ( 'NONE',  ( -1.000000000000000000, -0.000000000000000000, 1.836970198721029688E-16 ) ) ;
#518 = AXIS2_PLACEMENT_3D ( 'NONE', #805, #244, #1091 ) ;
#519 = CYLINDRICAL_SURFACE ( 'NONE', #1177, 22.75000000000000355 ) ;
#520 = ORIENTED_EDGE ( 'NONE', *, *, #223, .F. ) ;
#521 = CARTESIAN_POINT ( 'NONE',  ( 935.0000000000000000, 2.249999999999999112, 22.63846284534336561 ) ) ;
#522 = ADVANCED_FACE ( 'NONE', ( #767 ), #37, .F. ) ;
#523 = DIRECTION ( 'NONE',  ( 1.000000000000000000, -0.000000000000000000, -1.836970198721029688E-16 ) ) ;
#524 = EDGE_CURVE ( 'NONE', #226, #202, #140, .T. ) ;
#525 = CC_DESIGN_APPROVAL ( #639, ( #572 ) ) ;
#526 = ORIENTED_EDGE ( 'NONE', *, *, #309, .T. ) ;
#527 = DIRECTION ( 'NONE',  ( 1.000000000000000000, 0.000000000000000000, -1.836970198721029688E-16 ) ) ;
#528 = CARTESIAN_POINT ( 'NONE',  ( 1000.000000000000000, 2.250000000000000000, 24.14539293529908903 ) ) ;
#529 = CARTESIAN_POINT ( 'NONE',  ( 935.0000000000000000, 24.14539293529927022, 2.249999999999833911 ) ) ;
#530 = ADVANCED_FACE ( 'NONE', ( #233 ), #1042, .F. ) ;
#531 = ORIENTED_EDGE ( 'NONE', *, *, #769, .F. ) ;
#532 = CARTESIAN_POINT ( 'NONE',  ( 974.0000000000000000, 0.000000000000000000, -1.789208973554282786E-13 ) ) ;
#533 = CIRCLE ( 'NONE', #697, 24.25000000000000355 ) ;
#534 = CARTESIAN_POINT ( 'NONE',  ( -1000.000000000000000, 2.755455298081544778E-15, 22.50000000000000000 ) ) ;
#535 = ORIENTED_EDGE ( 'NONE', *, *, #1109, .T. ) ;
#536 = EDGE_CURVE ( 'NONE', #455, #859, #591, .T. ) ;
#537 = ORIENTED_EDGE ( 'NONE', *, *, #344, .T. ) ;
#538 = PERSON_AND_ORGANIZATION_ROLE ( 'design_supplier' ) ;
#539 = DIRECTION ( 'NONE',  ( 1.000000000000000000, 0.000000000000000000, -1.836970198721029688E-16 ) ) ;
#540 = PERSON ( 'UNSPECIFIED', 'UNSPECIFIED', 'UNSPECIFIED', ('UNSPECIFIED'), ('UNSPECIFIED'), ('UNSPECIFIED') ) ;
#541 = CARTESIAN_POINT ( 'NONE',  ( 935.0000000000000000, 2.969768487932332076E-15, 24.24999999999982947 ) ) ;
#542 = ORIENTED_EDGE ( 'NONE', *, *, #1059, .T. ) ;
#543 = AXIS2_PLACEMENT_3D ( 'NONE', #668, #4, #922 ) ;
#544 = ORIENTED_EDGE ( 'NONE', *, *, #679, .F. ) ;
#545 = APPROVAL_STATUS ( 'not_yet_approved' ) ;
#546 = PRODUCT_DEFINITION_FORMATION_WITH_SPECIFIED_SOURCE ( 'ANY', '', #335, .NOT_KNOWN. ) ;
#547 = DIRECTION ( 'NONE',  ( -1.000000000000000000, 0.000000000000000000, 1.836970198721029688E-16 ) ) ;
#548 = EDGE_CURVE ( 'NONE', #672, #226, #689, .T. ) ;
#549 = LINE ( 'NONE', #377, #290 ) ;
#550 = ORIENTED_EDGE ( 'NONE', *, *, #1167, .F. ) ;
#551 = AXIS2_PLACEMENT_3D ( 'NONE', #700, #412, #420 ) ;
#552 = ORIENTED_EDGE ( 'NONE', *, *, #655, .T. ) ;
#553 = PERSON_AND_ORGANIZATION ( #540, #107 ) ;
#554 = LINE ( 'NONE', #1021, #142 ) ;
#555 = DIRECTION ( 'NONE',  ( 0.9396926207859142011, 4.188538737676800713E-17, 0.3420201433256528922 ) ) ;
#556 = EDGE_CURVE ( 'NONE', #1101, #847, #145, .T. ) ;
#557 = ORIENTED_EDGE ( 'NONE', *, *, #1114, .T. ) ;
#558 = ORIENTED_EDGE ( 'NONE', *, *, #485, .F. ) ;
#559 = PERSON_AND_ORGANIZATION_ROLE ( 'classification_officer' ) ;
#560 = CARTESIAN_POINT ( 'NONE',  ( 974.0000000000000000, 0.000000000000000000, -1.789208973554282786E-13 ) ) ;
#561 = CIRCLE ( 'NONE', #218, 5.000000000000000888 ) ;
#562 = EDGE_CURVE ( 'NONE', #455, #405, #1012, .T. ) ;
#563 = CARTESIAN_POINT ( 'NONE',  ( 1000.000000000000000, 2.249999999999999556, -22.63846284534372799 ) ) ;
#564 = ADVANCED_FACE ( 'NONE', ( #228 ), #397, .T. ) ;
#565 = ADVANCED_FACE ( 'NONE', ( #606 ), #34, .T. ) ;
#566 = ORIENTED_EDGE ( 'NONE', *, *, #1114, .F. ) ;
#567 = VECTOR ( 'NONE', #1000, 1000.000000000000000 ) ;
#568 = CIRCLE ( 'NONE', #662, 22.75000000000000355 ) ;
#569 = DIRECTION ( 'NONE',  ( 1.000000000000000000, 0.000000000000000000, -1.836970198721029688E-16 ) ) ;
#570 = CIRCLE ( 'NONE', #838, 20.99999999999999645 ) ;
#571 = DIRECTION ( 'NONE',  ( 1.000000000000000000, 0.000000000000000000, -1.836970198721029688E-16 ) ) ;
#572 = SECURITY_CLASSIFICATION ( '', '', #934 ) ;
#573 = CARTESIAN_POINT ( 'NONE',  ( 1000.000000000000000, -2.250000000000000000, -22.63846284534372444 ) ) ;
#574 = ORIENTED_EDGE ( 'NONE', *, *, #163, .T. ) ;
#575 = CARTESIAN_POINT ( 'NONE',  ( 935.8816349035413396, 0.000000000000000000, 19.24999999999982947 ) ) ;
#576 = ORIENTED_EDGE ( 'NONE', *, *, #1074, .F. ) ;
#577 = DIRECTION ( 'NONE',  ( 1.000000000000000000, 0.000000000000000000, -1.836970198721029688E-16 ) ) ;
#578 = CARTESIAN_POINT ( 'NONE',  ( -1000.000000000000000, 0.000000000000000000, -20.99999999999999645 ) ) ;
#579 = VERTEX_POINT ( 'NONE', #968 ) ;
#580 = FACE_OUTER_BOUND ( 'NONE', #448, .T. ) ;
#581 = CC_DESIGN_PERSON_AND_ORGANIZATION_ASSIGNMENT ( #87, #732, ( #335 ) ) ;
#582 = AXIS2_PLACEMENT_3D ( 'NONE', #66, #441, #351 ) ;
#583 = ORIENTED_EDGE ( 'NONE', *, *, #730, .F. ) ;
#584 = LINE ( 'NONE', #1152, #292 ) ;
#585 = CARTESIAN_POINT ( 'NONE',  ( 1000.000000000000000, 0.000000000000000000, -1.836970198721029747E-13 ) ) ;
#586 = ORIENTED_EDGE ( 'NONE', *, *, #726, .F. ) ;
#587 = AXIS2_PLACEMENT_3D ( 'NONE', #155, #436, #806 ) ;
#588 = ORIENTED_EDGE ( 'NONE', *, *, #635, .F. ) ;
#589 = EDGE_CURVE ( 'NONE', #1018, #343, #506, .T. ) ;
#590 = LINE ( 'NONE', #137, #1181 ) ;
#591 = LINE ( 'NONE', #958, #1121 ) ;
#592 = EDGE_CURVE ( 'NONE', #280, #674, #186, .T. ) ;
#593 = ORIENTED_EDGE ( 'NONE', *, *, #778, .F. ) ;
#594 = VERTEX_POINT ( 'NONE', #1160 ) ;
#595 = CYLINDRICAL_SURFACE ( 'NONE', #105, 20.99999999999999645 ) ;
#596 = DIRECTION ( 'NONE',  ( 1.000000000000000000, 0.000000000000000000, -1.836970198721029688E-16 ) ) ;
#597 = ORIENTED_EDGE ( 'NONE', *, *, #1088, .F. ) ;
#598 = ORIENTED_EDGE ( 'NONE', *, *, #259, .T. ) ;
#599 = CARTESIAN_POINT ( 'NONE',  ( 929.3102796124104543, 0.000000000000000000, -3.544085487734135045E-13 ) ) ;
#600 = FACE_OUTER_BOUND ( 'NONE', #479, .T. ) ;
#601 = EDGE_CURVE ( 'NONE', #688, #119, #783, .T. ) ;
#602 = DIRECTION ( 'NONE',  ( -1.836970198721029688E-16, 0.000000000000000000, -1.000000000000000000 ) ) ;
#603 = VERTEX_POINT ( 'NONE', #321 ) ;
#604 = DIRECTION ( 'NONE',  ( 1.000000000000000000, 0.000000000000000000, -1.836970198721029688E-16 ) ) ;
#605 = ORIENTED_EDGE ( 'NONE', *, *, #915, .T. ) ;
#606 = FACE_OUTER_BOUND ( 'NONE', #1063, .T. ) ;
#607 = CARTESIAN_POINT ( 'NONE',  ( 929.3102796124104543, 3.367778697655221307E-15, -27.50000000000035527 ) ) ;
#608 =( GEOMETRIC_REPRESENTATION_CONTEXT ( 3 ) GLOBAL_UNCERTAINTY_ASSIGNED_CONTEXT ( ( #31 ) ) GLOBAL_UNIT_ASSIGNED_CONTEXT ( ( #977, #888, #971 ) ) REPRESENTATION_CONTEXT ( 'NONE', 'WORKASPACE' ) );
#609 = ORIENTED_EDGE ( 'NONE', *, *, #589, .T. ) ;
#610 = LINE ( 'NONE', #1169, #628 ) ;
#611 = CARTESIAN_POINT ( 'NONE',  ( 935.0000000000000000, -2.249999999999999112, -24.14539293529944786 ) ) ;
#612 = CIRCLE ( 'NONE', #342, 22.75000000000000355 ) ;
#613 = LINE ( 'NONE', #134, #251 ) ;
#614 = ADVANCED_FACE ( 'NONE', ( #695 ), #1054, .F. ) ;
#615 = EDGE_LOOP ( 'NONE', ( #1173, #542, #1106, #850 ) ) ;
#616 = CARTESIAN_POINT ( 'NONE',  ( 974.0000000000000000, 24.25000000000000355, 2.249999999999827249 ) ) ;
#617 = CARTESIAN_POINT ( 'NONE',  ( 974.0000000000000000, -2.250000000000000000, -24.25000000000018474 ) ) ;
#618 = DIRECTION ( 'NONE',  ( 0.000000000000000000, 0.000000000000000000, -1.000000000000000000 ) ) ;
#619 = CIRCLE ( 'NONE', #139, 24.25000000000000355 ) ;
#620 = ORIENTED_EDGE ( 'NONE', *, *, #309, .F. ) ;
#621 = CARTESIAN_POINT ( 'NONE',  ( 935.0000000000000000, -24.14539293529927377, -2.250000000000164313 ) ) ;
#622 = EDGE_CURVE ( 'NONE', #594, #688, #454, .T. ) ;
#623 = CARTESIAN_POINT ( 'NONE',  ( 934.6845644019016390, 0.000000000000000000, -3.553957888731870374E-13 ) ) ;
#624 = AXIS2_PLACEMENT_3D ( 'NONE', #21, #1150, #509 ) ;
#625 = VECTOR ( 'NONE', #740, 1000.000000000000000 ) ;
#626 = CARTESIAN_POINT ( 'NONE',  ( 929.3102796124104543, 0.000000000000000000, 27.49999999999964473 ) ) ;
#627 = AXIS2_PLACEMENT_3D ( 'NONE', #936, #15, #660 ) ;
#628 = VECTOR ( 'NONE', #804, 1000.000000000000000 ) ;
#629 = AXIS2_PLACEMENT_3D ( 'NONE', #993, #703, #165 ) ;
#630 = ORIENTED_EDGE ( 'NONE', *, *, #296, .T. ) ;
#631 = DIRECTION ( 'NONE',  ( 1.000000000000000000, 0.000000000000000000, -1.836970198721029688E-16 ) ) ;
#632 = DIRECTION ( 'NONE',  ( 0.000000000000000000, 0.000000000000000000, -1.000000000000000000 ) ) ;
#633 = CARTESIAN_POINT ( 'NONE',  ( 974.0000000000000000, 2.250000000000000000, -24.14539293529945851 ) ) ;
#634 = ORIENTED_EDGE ( 'NONE', *, *, #562, .T. ) ;
#635 = EDGE_CURVE ( 'NONE', #500, #1130, #1135, .T. ) ;
#636 = EDGE_LOOP ( 'NONE', ( #400, #1056, #129, #434 ) ) ;
#637 = AXIS2_PLACEMENT_3D ( 'NONE', #286, #17, #198 ) ;
#638 = DIRECTION ( 'NONE',  ( -1.000000000000000000, -0.000000000000000000, 1.836970198721035604E-16 ) ) ;
#639 = APPROVAL ( #545, 'UNSPECIFIED' ) ;
#640 = ORIENTED_EDGE ( 'NONE', *, *, #437, .T. ) ;
#641 = ORIENTED_EDGE ( 'NONE', *, *, #536, .T. ) ;
#642 = PERSON_AND_ORGANIZATION ( #540, #107 ) ;
#643 = LINE ( 'NONE', #380, #170 ) ;
#644 = AXIS2_PLACEMENT_3D ( 'NONE', #1033, #501, #433 ) ;
#645 = CARTESIAN_POINT ( 'NONE',  ( 974.0000000000000000, 2.786071468060229748E-15, 22.74999999999982236 ) ) ;
#646 = EDGE_LOOP ( 'NONE', ( #99, #26, #583, #389, #1146, #33 ) ) ;
#647 = ORIENTED_EDGE ( 'NONE', *, *, #68, .F. ) ;
#648 = PERSON_AND_ORGANIZATION ( #540, #107 ) ;
#649 = FACE_OUTER_BOUND ( 'NONE', #378, .T. ) ;
#650 = CARTESIAN_POINT ( 'NONE',  ( 974.0000000000000000, 24.25000000000000355, 2.249999999999827249 ) ) ;
#651 = ORIENTED_EDGE ( 'NONE', *, *, #78, .F. ) ;
#652 = VECTOR ( 'NONE', #517, 1000.000000000000000 ) ;
#653 = ORIENTED_EDGE ( 'NONE', *, *, #687, .F. ) ;
#654 = CC_DESIGN_PERSON_AND_ORGANIZATION_ASSIGNMENT ( #189, #268, ( #546 ) ) ;
#655 = EDGE_CURVE ( 'NONE', #171, #946, #494, .T. ) ;
#656 = DIRECTION ( 'NONE',  ( 1.000000000000000000, 0.000000000000000000, -1.836970198721029934E-16 ) ) ;
#657 = DIRECTION ( 'NONE',  ( 1.000000000000000000, 0.000000000000000000, -1.836970198721035604E-16 ) ) ;
#658 = ORIENTED_EDGE ( 'NONE', *, *, #897, .F. ) ;
#659 = PLANE ( 'NONE',  #116 ) ;
#660 = DIRECTION ( 'NONE',  ( 0.000000000000000000, 0.000000000000000000, -1.000000000000000000 ) ) ;
#661 = ORIENTED_EDGE ( 'NONE', *, *, #474, .T. ) ;
#662 = AXIS2_PLACEMENT_3D ( 'NONE', #929, #283, #179 ) ;
#663 = CARTESIAN_POINT ( 'NONE',  ( 1000.000000000000000, 0.000000000000000000, -1.836970198721029747E-13 ) ) ;
#664 = PERSON_AND_ORGANIZATION ( #540, #107 ) ;
#665 = AXIS2_PLACEMENT_3D ( 'NONE', #926, #14, #403 ) ;
#666 = AXIS2_PLACEMENT_3D ( 'NONE', #222, #780, #863 ) ;
#667 = EDGE_LOOP ( 'NONE', ( #992, #658 ) ) ;
#668 = CARTESIAN_POINT ( 'NONE',  ( 929.3102796124104543, 0.000000000000000000, -3.544085487734140599E-13 ) ) ;
#669 = CC_DESIGN_APPROVAL ( #865, ( #546 ) ) ;
#670 = DIRECTION ( 'NONE',  ( 0.000000000000000000, 0.000000000000000000, 1.000000000000000000 ) ) ;
#671 = EDGE_CURVE ( 'NONE', #408, #230, #257, .T. ) ;
#672 = VERTEX_POINT ( 'NONE', #890 ) ;
#673 = PLANE ( 'NONE',  #644 ) ;
#674 = VERTEX_POINT ( 'NONE', #994 ) ;
#675 = LINE ( 'NONE', #498, #819 ) ;
#676 = LINE ( 'NONE', #836, #1081 ) ;
#677 = EDGE_LOOP ( 'NONE', ( #1139, #461, #40, #875 ) ) ;
#678 = EDGE_CURVE ( 'NONE', #52, #202, #709, .T. ) ;
#679 = EDGE_CURVE ( 'NONE', #672, #1101, #612, .T. ) ;
#680 = ORIENTED_EDGE ( 'NONE', *, *, #327, .F. ) ;
#681 = DIRECTION ( 'NONE',  ( 0.000000000000000000, 0.000000000000000000, -1.000000000000000000 ) ) ;
#682 = DIRECTION ( 'NONE',  ( 1.000000000000000000, 0.000000000000000000, -1.836970198721029688E-16 ) ) ;
#683 = ORIENTED_EDGE ( 'NONE', *, *, #243, .F. ) ;
#684 = AXIS2_PLACEMENT_3D ( 'NONE', #51, #880, #1055 ) ;
#685 = EDGE_LOOP ( 'NONE', ( #511, #537, #118, #586 ) ) ;
#686 = DIRECTION ( 'NONE',  ( 1.836970198721029688E-16, 0.000000000000000000, 1.000000000000000000 ) ) ;
#687 = EDGE_CURVE ( 'NONE', #52, #937, #89, .T. ) ;
#688 = VERTEX_POINT ( 'NONE', #528 ) ;
#689 = LINE ( 'NONE', #870, #1142 ) ;
#690 = ORIENTED_EDGE ( 'NONE', *, *, #337, .T. ) ;
#691 = ORIENTED_EDGE ( 'NONE', *, *, #849, .F. ) ;
#692 = DIRECTION ( 'NONE',  ( 0.000000000000000000, 0.000000000000000000, -1.000000000000000000 ) ) ;
#693 = EDGE_CURVE ( 'NONE', #603, #1038, #918, .T. ) ;
#694 = ADVANCED_FACE ( 'NONE', ( #71 ), #1037, .T. ) ;
#695 = FACE_OUTER_BOUND ( 'NONE', #615, .T. ) ;
#696 = PLANE ( 'NONE',  #773 ) ;
#697 = AXIS2_PLACEMENT_3D ( 'NONE', #435, #345, #483 ) ;
#698 = EDGE_LOOP ( 'NONE', ( #502, #785, #1089, #955 ) ) ;
#699 = CARTESIAN_POINT ( 'NONE',  ( -1000.000000000000000, 2.571758278209441267E-15, 20.99999999999999645 ) ) ;
#700 = CARTESIAN_POINT ( 'NONE',  ( 935.8816349035413396, 0.000000000000000000, -2.637671772208635526E-13 ) ) ;
#701 = DIRECTION ( 'NONE',  ( 1.000000000000000000, 0.000000000000000000, -1.836970198721041767E-16 ) ) ;
#702 = ORIENTED_EDGE ( 'NONE', *, *, #979, .F. ) ;
#703 = DIRECTION ( 'NONE',  ( 1.000000000000000000, 0.000000000000000000, -1.836970198721041767E-16 ) ) ;
#704 = DIRECTION ( 'NONE',  ( 0.000000000000000000, 0.000000000000000000, -1.000000000000000000 ) ) ;
#705 = DIRECTION ( 'NONE',  ( 1.000000000000000000, 0.000000000000000000, -1.836970198721029688E-16 ) ) ;
#706 = ADVANCED_FACE ( 'NONE', ( #800 ), #823, .F. ) ;
#707 = ORIENTED_EDGE ( 'NONE', *, *, #1059, .F. ) ;
#708 = DIRECTION ( 'NONE',  ( 1.836970198721035604E-16, 0.000000000000000000, 1.000000000000000000 ) ) ;
#709 = LINE ( 'NONE', #249, #1070 ) ;
#710 = VECTOR ( 'NONE', #1141, 1000.000000000000000 ) ;
#711 = FACE_OUTER_BOUND ( 'NONE', #698, .T. ) ;
#712 = EDGE_CURVE ( 'NONE', #1, #241, #18, .T. ) ;
#713 = EDGE_LOOP ( 'NONE', ( #194, #1034, #956, #1082, #274, #862, #1075, #205, #593, #872, #813, #1050 ) ) ;
#714 = CARTESIAN_POINT ( 'NONE',  ( 974.0000000000000000, 2.250000000000000000, -24.25000000000018474 ) ) ;
#715 = DIRECTION ( 'NONE',  ( 0.000000000000000000, 0.000000000000000000, -1.000000000000000000 ) ) ;
#716 = CARTESIAN_POINT ( 'NONE',  ( 974.0000000000000000, -2.250000000000000000, -22.63846284534372444 ) ) ;
#717 = AXIS2_PLACEMENT_3D ( 'NONE', #811, #523, #981 ) ;
#718 = ORIENTED_EDGE ( 'NONE', *, *, #548, .T. ) ;
#719 = CARTESIAN_POINT ( 'NONE',  ( 934.1715341869131635, 0.000000000000000000, -2.634530368155378202E-13 ) ) ;
#720 = DIRECTION ( 'NONE',  ( -1.000000000000000000, -0.000000000000000000, 1.836970198721041767E-16 ) ) ;
#721 = TOROIDAL_SURFACE ( 'NONE', #39, 27.50000000000000000, 5.000000000000000000 ) ;
#722 = AXIS2_PLACEMENT_3D ( 'NONE', #499, #122, #50 ) ;
#723 = DIRECTION ( 'NONE',  ( 0.9396926207859139790, 0.000000000000000000, -0.3420201433256532808 ) ) ;
#724 = AXIS2_PLACEMENT_3D ( 'NONE', #771, #396, #30 ) ;
#725 = AXIS2_PLACEMENT_3D ( 'NONE', #714, #1180, #809 ) ;
#726 = EDGE_CURVE ( 'NONE', #1029, #920, #1071, .T. ) ;
#727 = EDGE_LOOP ( 'NONE', ( #221, #288, #759, #976 ) ) ;
#728 = DIRECTION ( 'NONE',  ( 0.000000000000000000, 0.000000000000000000, -1.000000000000000000 ) ) ;
#729 = CARTESIAN_POINT ( 'NONE',  ( 974.0000000000000000, -2.250000000000000000, -24.25000000000018474 ) ) ;
#730 = EDGE_CURVE ( 'NONE', #202, #579, #999, .T. ) ;
#731 = EDGE_LOOP ( 'NONE', ( #737, #348, #558, #369 ) ) ;
#732 = PERSON_AND_ORGANIZATION_ROLE ( 'design_owner' ) ;
#733 = CARTESIAN_POINT ( 'NONE',  ( -1000.000000000000000, 0.000000000000000000, 0.000000000000000000 ) ) ;
#734 = CIRCLE ( 'NONE', #943, 22.75000000000000355 ) ;
#735 = CARTESIAN_POINT ( 'NONE',  ( 935.8816349035413396, 0.000000000000000000, -24.25000000000017764 ) ) ;
#736 = EDGE_LOOP ( 'NONE', ( #1006, #894, #439, #765 ) ) ;
#737 = ORIENTED_EDGE ( 'NONE', *, *, #474, .F. ) ;
#738 = APPROVAL_DATE_TIME ( #1015, #95 ) ;
#739 = CLOSED_SHELL ( 'NONE', ( #11, #884, #127, #614, #989, #61, #75, #12, #881, #853, #988, #510, #35, #837, #83, #183, #60, #1157, #564, #219, #565, #1023, #1172, #694, #1093, #1095, #742, #706, #891, #522, #912, #1010, #530, #168, #812, #427, #903 ) ) ;
#740 = DIRECTION ( 'NONE',  ( 1.836970198721029688E-16, 0.000000000000000000, 1.000000000000000000 ) ) ;
#741 = ORIENTED_EDGE ( 'NONE', *, *, #556, .F. ) ;
#742 = ADVANCED_FACE ( 'NONE', ( #810 ), #1175, .T. ) ;
#743 = EDGE_CURVE ( 'NONE', #920, #747, #213, .T. ) ;
#744 = FACE_OUTER_BOUND ( 'NONE', #215, .T. ) ;
#745 = CARTESIAN_POINT ( 'NONE',  ( 974.0000000000000000, -22.63846284534354325, -2.250000000000172307 ) ) ;
#746 = CARTESIAN_POINT ( 'NONE',  ( 974.0000000000000000, 24.14539293529927733, -2.250000000000172307 ) ) ;
#747 = VERTEX_POINT ( 'NONE', #910 ) ;
#748 = ORIENTED_EDGE ( 'NONE', *, *, #78, .T. ) ;
#749 = EDGE_CURVE ( 'NONE', #230, #226, #734, .T. ) ;
#750 = CYLINDRICAL_SURFACE ( 'NONE', #877, 24.25000000000000355 ) ;
#751 = DIRECTION ( 'NONE',  ( 0.000000000000000000, 0.000000000000000000, -1.000000000000000000 ) ) ;
#752 = LINE ( 'NONE', #911, #871 ) ;
#753 = CALENDAR_DATE ( 2026, 16, 9 ) ;
#754 = DIRECTION ( 'NONE',  ( 1.836970198721029934E-16, -0.000000000000000000, 1.000000000000000000 ) ) ;
#755 = DIRECTION ( 'NONE',  ( 0.000000000000000000, -1.224646799147353947E-16, 1.000000000000000000 ) ) ;
#756 = ORIENTED_EDGE ( 'NONE', *, *, #953, .F. ) ;
#757 = DIRECTION ( 'NONE',  ( 1.836970198721035604E-16, 0.000000000000000000, 1.000000000000000000 ) ) ;
#758 = CIRCLE ( 'NONE', #913, 22.50000000000000000 ) ;
#759 = ORIENTED_EDGE ( 'NONE', *, *, #730, .T. ) ;
#760 = CARTESIAN_POINT ( 'NONE',  ( 931.5334105440272197, 2.689993158972769761E-15, 21.39199796489118199 ) ) ;
#761 = AXIS2_PLACEMENT_3D ( 'NONE', #1008, #1119, #182 ) ;
#762 = LINE ( 'NONE', #1122, #1084 ) ;
#763 = VERTEX_POINT ( 'NONE', #445 ) ;
#764 = AXIS2_PLACEMENT_3D ( 'NONE', #59, #539, #906 ) ;
#765 = ORIENTED_EDGE ( 'NONE', *, *, #132, .F. ) ;
#766 = CARTESIAN_POINT ( 'NONE',  ( 974.0000000000000000, 2.250000000000000000, -24.25000000000018474 ) ) ;
#767 = FACE_OUTER_BOUND ( 'NONE', #1126, .T. ) ;
#768 = EDGE_LOOP ( 'NONE', ( #496, #868, #605, #465, #261, #136 ) ) ;
#769 = EDGE_CURVE ( 'NONE', #672, #946, #998, .T. ) ;
#770 = EDGE_LOOP ( 'NONE', ( #254, #798, #1112, #362 ) ) ;
#771 = CARTESIAN_POINT ( 'NONE',  ( 935.0000000000000000, 0.000000000000000000, -1.717567135804162851E-13 ) ) ;
#772 = DIRECTION ( 'NONE',  ( 0.000000000000000000, -0.000000000000000000, 1.000000000000000000 ) ) ;
#773 = AXIS2_PLACEMENT_3D ( 'NONE', #141, #945, #602 ) ;
#774 = ORIENTED_EDGE ( 'NONE', *, *, #743, .F. ) ;
#775 = AXIS2_PLACEMENT_3D ( 'NONE', #388, #885, #204 ) ;
#776 = CIRCLE ( 'NONE', #817, 24.25000000000000355 ) ;
#777 = CC_DESIGN_PERSON_AND_ORGANIZATION_ASSIGNMENT ( #642, #538, ( #546 ) ) ;
#778 = EDGE_CURVE ( 'NONE', #422, #821, #1183, .T. ) ;
#779 = ORIENTED_EDGE ( 'NONE', *, *, #407, .F. ) ;
#780 = DIRECTION ( 'NONE',  ( 1.000000000000000000, -0.000000000000000000, -1.836970198721029688E-16 ) ) ;
#781 = VECTOR ( 'NONE', #555, 1000.000000000000114 ) ;
#782 = CIRCLE ( 'NONE', #666, 22.75000000000000355 ) ;
#783 = LINE ( 'NONE', #1149, #861 ) ;
#784 = CC_DESIGN_APPROVAL ( #95, ( #399 ) ) ;
#785 = ORIENTED_EDGE ( 'NONE', *, *, #1046, .F. ) ;
#786 = CARTESIAN_POINT ( 'NONE',  ( 974.0000000000000000, 2.250000000000000000, 24.14539293529909258 ) ) ;
#787 = ORIENTED_EDGE ( 'NONE', *, *, #113, .F. ) ;
#788 = FACE_OUTER_BOUND ( 'NONE', #736, .T. ) ;
#789 = CARTESIAN_POINT ( 'NONE',  ( 935.0000000000000000, 0.000000000000000000, -22.75000000000017764 ) ) ;
#790 = CARTESIAN_POINT ( 'NONE',  ( 974.0000000000000000, 22.63846284534354325, -2.250000000000172307 ) ) ;
#791 = AXIS2_PLACEMENT_3D ( 'NONE', #360, #900, #715 ) ;
#792 = EDGE_LOOP ( 'NONE', ( #1044, #211, #756, #237, #1136, #515, #460, #641, #487, #651, #91, #311 ) ) ;
#793 = FACE_OUTER_BOUND ( 'NONE', #169, .T. ) ;
#794 = DIRECTION ( 'NONE',  ( 0.000000000000000000, 0.000000000000000000, -1.000000000000000000 ) ) ;
#795 = EDGE_CURVE ( 'NONE', #763, #1018, #1065, .T. ) ;
#796 = CARTESIAN_POINT ( 'NONE',  ( 974.0000000000000000, 2.250000000000000000, -24.25000000000018474 ) ) ;
#797 = CIRCLE ( 'NONE', #432, 22.53892417275089244 ) ;
#798 = ORIENTED_EDGE ( 'NONE', *, *, #849, .T. ) ;
#799 = DIRECTION ( 'NONE',  ( 1.000000000000000000, 0.000000000000000000, -1.836970198721029688E-16 ) ) ;
#800 = FACE_OUTER_BOUND ( 'NONE', #768, .T. ) ;
#801 = CARTESIAN_POINT ( 'NONE',  ( 974.0000000000000000, -2.250000000000000000, 22.63846284534335140 ) ) ;
#802 = EDGE_CURVE ( 'NONE', #674, #280, #533, .T. ) ;
#803 = ORIENTED_EDGE ( 'NONE', *, *, #273, .T. ) ;
#804 = DIRECTION ( 'NONE',  ( -0.000000000000000000, -1.000000000000000000, -0.000000000000000000 ) ) ;
#805 = CARTESIAN_POINT ( 'NONE',  ( 974.0000000000000000, 0.000000000000000000, -1.789208973554282786E-13 ) ) ;
#806 = DIRECTION ( 'NONE',  ( 0.000000000000000000, 0.000000000000000000, -1.000000000000000000 ) ) ;
#807 = APPLICATION_CONTEXT ( 'configuration controlled 3d designs of mechanical parts and assemblies' ) ;
#808 = ORIENTED_EDGE ( 'NONE', *, *, #401, .T. ) ;
#809 = DIRECTION ( 'NONE',  ( 0.000000000000000000, -0.000000000000000000, 1.000000000000000000 ) ) ;
#810 = FACE_OUTER_BOUND ( 'NONE', #677, .T. ) ;
#811 = CARTESIAN_POINT ( 'NONE',  ( 974.0000000000000000, 0.000000000000000000, -1.789208973554282786E-13 ) ) ;
#812 = ADVANCED_FACE ( 'NONE', ( #649 ), #462, .T. ) ;
#813 = ORIENTED_EDGE ( 'NONE', *, *, #938, .T. ) ;
#814 = PLANE ( 'NONE',  #725 ) ;
#815 = DIRECTION ( 'NONE',  ( 0.000000000000000000, -1.000000000000000000, 0.000000000000000000 ) ) ;
#816 = CIRCLE ( 'NONE', #624, 5.000000000000000888 ) ;
#817 = AXIS2_PLACEMENT_3D ( 'NONE', #917, #301, #670 ) ;
#818 = DIRECTION ( 'NONE',  ( -1.000000000000000000, -0.000000000000000000, 1.836970198721041767E-16 ) ) ;
#819 = VECTOR ( 'NONE', #49, 1000.000000000000000 ) ;
#820 = VECTOR ( 'NONE', #58, 1000.000000000000000 ) ;
#821 = VERTEX_POINT ( 'NONE', #206 ) ;
#822 = COORDINATED_UNIVERSAL_TIME_OFFSET ( 1, 0, .AHEAD. ) ;
#823 = PLANE ( 'NONE',  #518 ) ;
#824 = LINE ( 'NONE', #541, #248 ) ;
#825 = AXIS2_PLACEMENT_3D ( 'NONE', #864, #1049, #513 ) ;
#826 = EDGE_CURVE ( 'NONE', #904, #111, #643, .T. ) ;
#827 = ORIENTED_EDGE ( 'NONE', *, *, #365, .F. ) ;
#828 = CALENDAR_DATE ( 2026, 16, 9 ) ;
#829 = DIRECTION ( 'NONE',  ( -0.000000000000000000, -1.000000000000000000, -0.000000000000000000 ) ) ;
#830 = EDGE_CURVE ( 'NONE', #13, #603, #1156, .T. ) ;
#831 = DIRECTION ( 'NONE',  ( 2.249639673992793528E-32, 1.000000000000000000, 1.224646799147353207E-16 ) ) ;
#832 = ORIENTED_EDGE ( 'NONE', *, *, #830, .F. ) ;
#833 = CALENDAR_DATE ( 2026, 16, 9 ) ;
#834 = DIRECTION ( 'NONE',  ( 0.000000000000000000, 0.000000000000000000, -1.000000000000000000 ) ) ;
#835 = AXIS2_PLACEMENT_3D ( 'NONE', #842, #382, #975 ) ;
#836 = CARTESIAN_POINT ( 'NONE',  ( 1000.000000000000000, 24.25000000000000355, -2.250000000000177192 ) ) ;
#837 = ADVANCED_FACE ( 'NONE', ( #1030 ), #659, .T. ) ;
#838 = AXIS2_PLACEMENT_3D ( 'NONE', #320, #604, #692 ) ;
#839 = FACE_OUTER_BOUND ( 'NONE', #271, .T. ) ;
#840 = DIRECTION ( 'NONE',  ( 1.000000000000000000, 0.000000000000000000, -1.836970198721029688E-16 ) ) ;
#841 = DIRECTION ( 'NONE',  ( 1.836970198721029688E-16, 0.000000000000000000, 1.000000000000000000 ) ) ;
#842 = CARTESIAN_POINT ( 'NONE',  ( -1000.000000000000000, 0.000000000000000000, 0.000000000000000000 ) ) ;
#843 = DATE_TIME_ROLE ( 'creation_date' ) ;
#844 = CYLINDRICAL_SURFACE ( 'NONE', #236, 22.75000000000000355 ) ;
#845 = CARTESIAN_POINT ( 'NONE',  ( 930.7049447309411789, 2.582836564047365857E-15, 21.09046106882077254 ) ) ;
#846 = VECTOR ( 'NONE', #340, 1000.000000000000000 ) ;
#847 = VERTEX_POINT ( 'NONE', #103 ) ;
#848 = CYLINDRICAL_SURFACE ( 'NONE', #835, 22.50000000000000000 ) ;
#849 = EDGE_CURVE ( 'NONE', #79, #73, #88, .T. ) ;
#850 = ORIENTED_EDGE ( 'NONE', *, *, #347, .F. ) ;
#851 = FACE_OUTER_BOUND ( 'NONE', #727, .T. ) ;
#852 = CARTESIAN_POINT ( 'NONE',  ( 931.5334105440272197, 0.000000000000000000, -3.548169313003369920E-13 ) ) ;
#853 = ADVANCED_FACE ( 'NONE', ( #471 ), #750, .T. ) ;
#854 = AXIS2_PLACEMENT_3D ( 'NONE', #188, #569, #933 ) ;
#855 = ORIENTED_EDGE ( 'NONE', *, *, #1073, .F. ) ;
#856 = VERTEX_POINT ( 'NONE', #291 ) ;
#857 = DIRECTION ( 'NONE',  ( -1.000000000000000000, -0.000000000000000000, 1.836970198721035604E-16 ) ) ;
#858 = CARTESIAN_POINT ( 'NONE',  ( 1000.000000000000000, -2.250000000000000000, -24.25000000000018829 ) ) ;
#859 = VERTEX_POINT ( 'NONE', #1120 ) ;
#860 = ADVANCED_BREP_SHAPE_REPRESENTATION ( '79-8414 - 45mm x 2000mm', ( #1092, #761 ), #608 ) ;
#861 = VECTOR ( 'NONE', #333, 1000.000000000000000 ) ;
#862 = ORIENTED_EDGE ( 'NONE', *, *, #384, .F. ) ;
#863 = DIRECTION ( 'NONE',  ( 0.000000000000000000, 0.000000000000000000, 1.000000000000000000 ) ) ;
#864 = CARTESIAN_POINT ( 'NONE',  ( 935.8816349035413396, 0.000000000000000000, -1.719186672848120401E-13 ) ) ;
#865 = APPROVAL ( #8, 'UNSPECIFIED' ) ;
#866 = EDGE_CURVE ( 'NONE', #415, #1007, #554, .T. ) ;
#867 = ORIENTED_EDGE ( 'NONE', *, *, #655, .F. ) ;
#868 = ORIENTED_EDGE ( 'NONE', *, *, #712, .T. ) ;
#869 = CARTESIAN_POINT ( 'NONE',  ( 974.0000000000000000, 0.000000000000000000, -1.789208973554282786E-13 ) ) ;
#870 = CARTESIAN_POINT ( 'NONE',  ( 935.0000000000000000, 2.786071468060228959E-15, 22.74999999999982947 ) ) ;
#871 = VECTOR ( 'NONE', #995, 1000.000000000000000 ) ;
#872 = ORIENTED_EDGE ( 'NONE', *, *, #97, .F. ) ;
#873 = AXIS2_PLACEMENT_3D ( 'NONE', #453, #1087, #618 ) ;
#874 = AXIS2_PLACEMENT_3D ( 'NONE', #392, #106, #381 ) ;
#875 = ORIENTED_EDGE ( 'NONE', *, *, #795, .F. ) ;
#876 = DIRECTION ( 'NONE',  ( 1.836970198721029688E-16, 0.000000000000000000, 1.000000000000000000 ) ) ;
#877 = AXIS2_PLACEMENT_3D ( 'NONE', #185, #1009, #477 ) ;
#878 = CIRCLE ( 'NONE', #157, 22.75000000000000355 ) ;
#879 = CARTESIAN_POINT ( 'NONE',  ( 974.0000000000000000, 2.250000000000000000, -24.25000000000018474 ) ) ;
#880 = DIRECTION ( 'NONE',  ( 1.000000000000000000, 0.000000000000000000, -1.836970198721041767E-16 ) ) ;
#881 = ADVANCED_FACE ( 'NONE', ( #371 ), #844, .F. ) ;
#882 = ORIENTED_EDGE ( 'NONE', *, *, #1167, .T. ) ;
#883 = DIRECTION ( 'NONE',  ( 1.000000000000000000, -0.000000000000000000, -1.836970198721029688E-16 ) ) ;
#884 = ADVANCED_FACE ( 'NONE', ( #115 ), #1124, .T. ) ;
#885 = DIRECTION ( 'NONE',  ( -1.000000000000000000, -0.000000000000000000, 1.836970198721035604E-16 ) ) ;
#886 = VECTOR ( 'NONE', #172, 1000.000000000000000 ) ;
#887 = EDGE_LOOP ( 'NONE', ( #620, #1102, #44, #69 ) ) ;
#888 =( NAMED_UNIT ( * ) PLANE_ANGLE_UNIT ( ) SI_UNIT ( $, .RADIAN. ) );
#889 = PRODUCT_RELATED_PRODUCT_CATEGORY ( 'detail', '', ( #335 ) ) ;
#890 = CARTESIAN_POINT ( 'NONE',  ( 935.8816349035413396, 2.786071468060229748E-15, 22.74999999999982947 ) ) ;
#891 = ADVANCED_FACE ( 'NONE', ( #851 ), #364, .T. ) ;
#892 = CARTESIAN_POINT ( 'NONE',  ( 930.7049447309411789, 0.000000000000000000, -21.09046106882147953 ) ) ;
#893 = VECTOR ( 'NONE', #723, 1000.000000000000114 ) ;
#894 = ORIENTED_EDGE ( 'NONE', *, *, #113, .T. ) ;
#895 = DIRECTION ( 'NONE',  ( 1.000000000000000000, 0.000000000000000000, -1.836970198721029688E-16 ) ) ;
#896 = FACE_OUTER_BOUND ( 'NONE', #100, .T. ) ;
#897 = EDGE_CURVE ( 'NONE', #153, #500, #758, .T. ) ;
#898 = ORIENTED_EDGE ( 'NONE', *, *, #866, .F. ) ;
#899 = DIRECTION ( 'NONE',  ( 1.000000000000000000, 0.000000000000000000, -1.836970198721029688E-16 ) ) ;
#900 = DIRECTION ( 'NONE',  ( 1.000000000000000000, 0.000000000000000000, -1.836970198721041767E-16 ) ) ;
#901 = CARTESIAN_POINT ( 'NONE',  ( 974.0000000000000000, 2.969768487932332470E-15, 24.24999999999982592 ) ) ;
#902 = EDGE_CURVE ( 'NONE', #415, #904, #1099, .T. ) ;
#903 = ADVANCED_FACE ( 'NONE', ( #935 ), #9, .F. ) ;
#904 = VERTEX_POINT ( 'NONE', #745 ) ;
#905 = CARTESIAN_POINT ( 'NONE',  ( 935.8816349035413396, 0.000000000000000000, -2.637671772208635526E-13 ) ) ;
#906 = DIRECTION ( 'NONE',  ( 0.000000000000000000, 0.000000000000000000, -1.000000000000000000 ) ) ;
#907 = DIRECTION ( 'NONE',  ( 0.000000000000000000, 0.000000000000000000, -1.000000000000000000 ) ) ;
#908 = ORIENTED_EDGE ( 'NONE', *, *, #1062, .T. ) ;
#909 = VERTEX_POINT ( 'NONE', #178 ) ;
#910 = CARTESIAN_POINT ( 'NONE',  ( 934.1715341869131635, 2.932840868472607502E-15, 23.94846310392940936 ) ) ;
#911 = CARTESIAN_POINT ( 'NONE',  ( 974.0000000000000000, 24.25000000000000355, 2.249999999999827249 ) ) ;
#912 = ADVANCED_FACE ( 'NONE', ( #916 ), #1110, .F. ) ;
#913 = AXIS2_PLACEMENT_3D ( 'NONE', #733, #571, #109 ) ;
#914 = ORIENTED_EDGE ( 'NONE', *, *, #693, .T. ) ;
#915 = EDGE_CURVE ( 'NONE', #241, #1013, #217, .T. ) ;
#916 = FACE_OUTER_BOUND ( 'NONE', #646, .T. ) ;
#917 = CARTESIAN_POINT ( 'NONE',  ( 974.0000000000000000, 0.000000000000000000, -1.789208973554282786E-13 ) ) ;
#918 = CIRCLE ( 'NONE', #791, 21.39199796489153371 ) ;
#919 = ORIENTED_EDGE ( 'NONE', *, *, #459, .T. ) ;
#920 = VERTEX_POINT ( 'NONE', #488 ) ;
#921 = APPROVAL_ROLE ( '' ) ;
#922 = DIRECTION ( 'NONE',  ( 1.836970198721035604E-16, 0.000000000000000000, 1.000000000000000000 ) ) ;
#923 = DIRECTION ( 'NONE',  ( 0.000000000000000000, 0.000000000000000000, -1.000000000000000000 ) ) ;
#924 = CARTESIAN_POINT ( 'NONE',  ( 935.8816349035413396, 0.000000000000000000, -2.637671772208635526E-13 ) ) ;
#925 = APPROVAL_DATE_TIME ( #1103, #639 ) ;
#926 = CARTESIAN_POINT ( 'NONE',  ( 974.0000000000000000, 0.000000000000000000, -1.789208973554282786E-13 ) ) ;
#927 = VECTOR ( 'NONE', #210, 1000.000000000000000 ) ;
#928 = AXIS2_PLACEMENT_3D ( 'NONE', #294, #1031, #923 ) ;
#929 = CARTESIAN_POINT ( 'NONE',  ( 974.0000000000000000, 0.000000000000000000, -1.789208973554282786E-13 ) ) ;
#930 = ORIENTED_EDGE ( 'NONE', *, *, #319, .T. ) ;
#931 = CIRCLE ( 'NONE', #469, 21.39199796489153371 ) ;
#932 = AXIS2_PLACEMENT_3D ( 'NONE', #1147, #957, #130 ) ;
#933 = DIRECTION ( 'NONE',  ( -1.836970198721029688E-16, 0.000000000000000000, -1.000000000000000000 ) ) ;
#934 = SECURITY_CLASSIFICATION_LEVEL ( 'unclassified' ) ;
#935 = FACE_OUTER_BOUND ( 'NONE', #164, .T. ) ;
#936 = CARTESIAN_POINT ( 'NONE',  ( 1000.000000000000000, 0.000000000000000000, -1.836970198721029747E-13 ) ) ;
#937 = VERTEX_POINT ( 'NONE', #41 ) ;
#938 = EDGE_CURVE ( 'NONE', #856, #579, #419, .T. ) ;
#939 = DIRECTION ( 'NONE',  ( 0.000000000000000000, -1.000000000000000000, 0.000000000000000000 ) ) ;
#940 = ORIENTED_EDGE ( 'NONE', *, *, #693, .F. ) ;
#941 = CARTESIAN_POINT ( 'NONE',  ( 935.0000000000000000, 22.63846284534353970, -2.250000000000164313 ) ) ;
#942 = CARTESIAN_POINT ( 'NONE',  ( 1000.000000000000000, 2.250000000000000000, 22.63846284534335496 ) ) ;
#943 = AXIS2_PLACEMENT_3D ( 'NONE', #532, #76, #452 ) ;
#944 = ORIENTED_EDGE ( 'NONE', *, *, #1129, .F. ) ;
#945 = DIRECTION ( 'NONE',  ( 1.000000000000000000, 0.000000000000000000, -1.836970198721029688E-16 ) ) ;
#946 = VERTEX_POINT ( 'NONE', #304 ) ;
#947 = DIRECTION ( 'NONE',  ( 1.000000000000000000, 0.000000000000000000, -1.836970198721029688E-16 ) ) ;
#948 = DIRECTION ( 'NONE',  ( -0.000000000000000000, 1.000000000000000000, 0.000000000000000000 ) ) ;
#949 = CIRCLE ( 'NONE', #504, 24.25000000000000355 ) ;
#950 = EDGE_LOOP ( 'NONE', ( #827, #180, #867, #48 ) ) ;
#951 = ORIENTED_EDGE ( 'NONE', *, *, #866, .T. ) ;
#952 = CARTESIAN_POINT ( 'NONE',  ( 929.3102796124104543, 2.571758278209441267E-15, 20.99999999999964473 ) ) ;
#953 = EDGE_CURVE ( 'NONE', #119, #181, #507, .T. ) ;
#954 = CARTESIAN_POINT ( 'NONE',  ( 974.0000000000000000, 0.000000000000000000, -1.789208973554282786E-13 ) ) ;
#955 = ORIENTED_EDGE ( 'NONE', *, *, #489, .F. ) ;
#956 = ORIENTED_EDGE ( 'NONE', *, *, #1001, .T. ) ;
#957 = DIRECTION ( 'NONE',  ( -1.000000000000000000, -0.000000000000000000, 1.836970198721035604E-16 ) ) ;
#958 = CARTESIAN_POINT ( 'NONE',  ( 935.0000000000000000, 24.14539293529927377, -2.250000000000164313 ) ) ;
#959 = ORIENTED_EDGE ( 'NONE', *, *, #347, .T. ) ;
#960 = EDGE_LOOP ( 'NONE', ( #707, #367, #959, #683 ) ) ;
#961 = FACE_OUTER_BOUND ( 'NONE', #482, .T. ) ;
#962 = PLANE ( 'NONE',  #722 ) ;
#963 = CARTESIAN_POINT ( 'NONE',  ( 1000.000000000000000, 22.63846284534354325, -2.250000000000177192 ) ) ;
#964 = AXIS2_PLACEMENT_3D ( 'NONE', #490, #224, #126 ) ;
#965 = ORIENTED_EDGE ( 'NONE', *, *, #365, .T. ) ;
#966 = LINE ( 'NONE', #621, #820 ) ;
#967 = AXIS2_PLACEMENT_3D ( 'NONE', #1047, #1057, #144 ) ;
#968 = CARTESIAN_POINT ( 'NONE',  ( 974.0000000000000000, -2.250000000000000000, 24.14539293529909258 ) ) ;
#969 = DIRECTION ( 'NONE',  ( 2.249639673992793528E-32, 1.000000000000000000, 1.224646799147353207E-16 ) ) ;
#970 = ORIENTED_EDGE ( 'NONE', *, *, #601, .T. ) ;
#971 =( NAMED_UNIT ( * ) SI_UNIT ( $, .STERADIAN. ) SOLID_ANGLE_UNIT ( ) );
#972 = VECTOR ( 'NONE', #682, 1000.000000000000000 ) ;
#973 = EDGE_CURVE ( 'NONE', #279, #343, #590, .T. ) ;
#974 = DIRECTION ( 'NONE',  ( 1.000000000000000000, 0.000000000000000000, -1.836970198721029688E-16 ) ) ;
#975 = DIRECTION ( 'NONE',  ( 0.000000000000000000, 0.000000000000000000, -1.000000000000000000 ) ) ;
#976 = ORIENTED_EDGE ( 'NONE', *, *, #938, .F. ) ;
#977 =( LENGTH_UNIT ( ) NAMED_UNIT ( * ) SI_UNIT ( .MILLI., .METRE. ) );
#978 = DIRECTION ( 'NONE',  ( -0.000000000000000000, 1.000000000000000000, 0.000000000000000000 ) ) ;
#979 = EDGE_CURVE ( 'NONE', #937, #422, #675, .T. ) ;
#980 = VECTOR ( 'NONE', #1005, 1000.000000000000000 ) ;
#981 = DIRECTION ( 'NONE',  ( 0.000000000000000000, 1.421085471520200372E-14, 1.000000000000000000 ) ) ;
#982 = AXIS2_PLACEMENT_3D ( 'NONE', #16, #416, #757 ) ;
#983 = ORIENTED_EDGE ( 'NONE', *, *, #485, .T. ) ;
#984 = LINE ( 'NONE', #1069, #356 ) ;
#985 = VECTOR ( 'NONE', #1116, 1000.000000000000000 ) ;
#986 = CIRCLE ( 'NONE', #200, 22.75000000000000355 ) ;
#987 = DIRECTION ( 'NONE',  ( -1.000000000000000000, -0.000000000000000000, 1.836970198721029688E-16 ) ) ;
#988 = ADVANCED_FACE ( 'NONE', ( #312 ), #299, .T. ) ;
#989 = ADVANCED_FACE ( 'NONE', ( #788 ), #177, .T. ) ;
#990 = DIRECTION ( 'NONE',  ( 0.000000000000000000, 0.000000000000000000, -1.000000000000000000 ) ) ;
#991 = LOCAL_TIME ( 0, 3, 17.00000000000000000, #822 ) ;
#992 = ORIENTED_EDGE ( 'NONE', *, *, #148, .F. ) ;
#993 = CARTESIAN_POINT ( 'NONE',  ( 930.7049447309411789, 0.000000000000000000, -3.546647445994071912E-13 ) ) ;
#994 = CARTESIAN_POINT ( 'NONE',  ( 935.8816349035413396, 2.969768487932332470E-15, 24.24999999999983302 ) ) ;
#995 = DIRECTION ( 'NONE',  ( -0.000000000000000000, -1.000000000000000000, -0.000000000000000000 ) ) ;
#996 = ORIENTED_EDGE ( 'NONE', *, *, #163, .F. ) ;
#997 = CARTESIAN_POINT ( 'NONE',  ( 935.0000000000000000, 22.63846284534353970, 2.249999999999833911 ) ) ;
#998 = CIRCLE ( 'NONE', #368, 3.499999999999999556 ) ;
#999 = LINE ( 'NONE', #729, #846 ) ;
#1000 = DIRECTION ( 'NONE',  ( 1.000000000000000000, 0.000000000000000000, -1.836970198721029688E-16 ) ) ;
#1001 = EDGE_CURVE ( 'NONE', #280, #1, #584, .T. ) ;
#1002 = CYLINDRICAL_SURFACE ( 'NONE', #313, 22.50000000000000000 ) ;
#1003 = APPROVAL_ROLE ( '' ) ;
#1004 = CARTESIAN_POINT ( 'NONE',  ( 935.0000000000000000, 0.000000000000000000, -1.717567135804162851E-13 ) ) ;
#1005 = DIRECTION ( 'NONE',  ( 1.000000000000000000, 0.000000000000000000, -1.836970198721029688E-16 ) ) ;
#1006 = ORIENTED_EDGE ( 'NONE', *, *, #592, .F. ) ;
#1007 = VERTEX_POINT ( 'NONE', #409 ) ;
#1008 = CARTESIAN_POINT ( 'NONE',  ( 0.000000000000000000, 0.000000000000000000, 0.000000000000000000 ) ) ;
#1009 = DIRECTION ( 'NONE',  ( 1.000000000000000000, 0.000000000000000000, -1.836970198721029688E-16 ) ) ;
#1010 = ADVANCED_FACE ( 'NONE', ( #961 ), #120, .F. ) ;
#1011 = CARTESIAN_POINT ( 'NONE',  ( 931.0203803290386304, 0.000000000000000000, -3.547226891787392369E-13 ) ) ;
#1012 = CIRCLE ( 'NONE', #1189, 24.25000000000000355 ) ;
#1013 = VERTEX_POINT ( 'NONE', #23 ) ;
#1014 = ORIENTED_EDGE ( 'NONE', *, *, #1129, .T. ) ;
#1015 = DATE_AND_TIME ( #833, #1066 ) ;
#1016 = DIRECTION ( 'NONE',  ( 0.000000000000000000, -0.000000000000000000, 1.000000000000000000 ) ) ;
#1017 = DIRECTION ( 'NONE',  ( 0.000000000000000000, 0.000000000000000000, 1.000000000000000000 ) ) ;
#1018 = VERTEX_POINT ( 'NONE', #232 ) ;
#1019 = ORIENTED_EDGE ( 'NONE', *, *, #1039, .F. ) ;
#1020 = PERSON_AND_ORGANIZATION ( #540, #107 ) ;
#1021 = CARTESIAN_POINT ( 'NONE',  ( 1000.000000000000000, 24.25000000000000355, -2.250000000000177192 ) ) ;
#1022 = AXIS2_PLACEMENT_3D ( 'NONE', #650, #464, #1128 ) ;
#1023 = ADVANCED_FACE ( 'NONE', ( #390 ), #595, .F. ) ;
#1024 = CARTESIAN_POINT ( 'NONE',  ( 935.8816349035413396, 2.357445088358666196E-15, -19.25000000000035882 ) ) ;
#1025 = VERTEX_POINT ( 'NONE', #952 ) ;
#1026 = VECTOR ( 'NONE', #190, 1000.000000000000000 ) ;
#1027 = CIRCLE ( 'NONE', #160, 23.94846310392975397 ) ;
#1028 = CARTESIAN_POINT ( 'NONE',  ( 1000.000000000000000, 2.250000000000000000, -24.14539293529946207 ) ) ;
#1029 = VERTEX_POINT ( 'NONE', #493 ) ;
#1030 = FACE_OUTER_BOUND ( 'NONE', #298, .T. ) ;
#1031 = DIRECTION ( 'NONE',  ( 1.000000000000000000, 0.000000000000000000, -1.836970198721029688E-16 ) ) ;
#1032 = EDGE_LOOP ( 'NONE', ( #748, #1014, #996, #1191 ) ) ;
#1033 = CARTESIAN_POINT ( 'NONE',  ( 974.0000000000000000, 24.25000000000000355, -2.250000000000172307 ) ) ;
#1034 = ORIENTED_EDGE ( 'NONE', *, *, #802, .T. ) ;
#1035 = DIRECTION ( 'NONE',  ( -1.000000000000000000, -0.000000000000000000, 1.836970198721029688E-16 ) ) ;
#1036 = CARTESIAN_POINT ( 'NONE',  ( -1000.000000000000000, 0.000000000000000000, 0.000000000000000000 ) ) ;
#1037 = TOROIDAL_SURFACE ( 'NONE', #1098, 27.50000000000000000, 6.500000000000000888 ) ;
#1038 = VERTEX_POINT ( 'NONE', #760 ) ;
#1039 = EDGE_CURVE ( 'NONE', #1096, #904, #782, .T. ) ;
#1040 = ORIENTED_EDGE ( 'NONE', *, *, #749, .T. ) ;
#1041 = CARTESIAN_POINT ( 'NONE',  ( 935.8816349035413396, 0.000000000000000000, -2.637671772208635526E-13 ) ) ;
#1042 = PLANE ( 'NONE',  #964 ) ;
#1043 = CIRCLE ( 'NONE', #1078, 5.000000000000000888 ) ;
#1044 = ORIENTED_EDGE ( 'NONE', *, *, #592, .T. ) ;
#1045 = ORIENTED_EDGE ( 'NONE', *, *, #438, .T. ) ;
#1046 = EDGE_CURVE ( 'NONE', #338, #1130, #253, .T. ) ;
#1047 = CARTESIAN_POINT ( 'NONE',  ( 974.0000000000000000, 0.000000000000000000, -1.789208973554282786E-13 ) ) ;
#1048 = AXIS2_PLACEMENT_3D ( 'NONE', #440, #527, #255 ) ;
#1049 = DIRECTION ( 'NONE',  ( 1.000000000000000000, 0.000000000000000000, -1.836970198721035604E-16 ) ) ;
#1050 = ORIENTED_EDGE ( 'NONE', *, *, #235, .F. ) ;
#1051 = EDGE_CURVE ( 'NONE', #497, #1123, #570, .T. ) ;
#1052 = ORIENTED_EDGE ( 'NONE', *, *, #273, .F. ) ;
#1053 = LINE ( 'NONE', #699, #508 ) ;
#1054 = CYLINDRICAL_SURFACE ( 'NONE', #300, 20.99999999999999645 ) ;
#1055 = DIRECTION ( 'NONE',  ( 0.000000000000000000, 0.000000000000000000, -1.000000000000000000 ) ) ;
#1056 = ORIENTED_EDGE ( 'NONE', *, *, #323, .T. ) ;
#1057 = DIRECTION ( 'NONE',  ( 1.000000000000000000, -0.000000000000000000, -1.836970198721029688E-16 ) ) ;
#1058 = DIRECTION ( 'NONE',  ( 0.000000000000000000, 0.000000000000000000, 1.000000000000000000 ) ) ;
#1059 = EDGE_CURVE ( 'NONE', #497, #1025, #1053, .T. ) ;
#1060 = DIRECTION ( 'NONE',  ( 0.000000000000000000, 0.000000000000000000, -1.000000000000000000 ) ) ;
#1061 = PRODUCT_DEFINITION_SHAPE ( 'NONE', 'NONE',  #399 ) ;
#1062 = EDGE_CURVE ( 'NONE', #13, #1025, #1145, .T. ) ;
#1063 = EDGE_LOOP ( 'NONE', ( #787, #208, #1179, #774 ) ) ;
#1064 = CARTESIAN_POINT ( 'NONE',  ( 974.0000000000000000, 0.000000000000000000, -1.789208973554282786E-13 ) ) ;
#1065 = LINE ( 'NONE', #611, #328 ) ;
#1066 = LOCAL_TIME ( 0, 3, 17.00000000000000000, #281 ) ;
#1067 = DIRECTION ( 'NONE',  ( 0.000000000000000000, 0.000000000000000000, -1.000000000000000000 ) ) ;
#1068 = ORIENTED_EDGE ( 'NONE', *, *, #524, .T. ) ;
#1069 = CARTESIAN_POINT ( 'NONE',  ( 1000.000000000000000, 2.250000000000000000, -24.25000000000018829 ) ) ;
#1070 = VECTOR ( 'NONE', #987, 1000.000000000000000 ) ;
#1071 = LINE ( 'NONE', #151, #481 ) ;
#1072 = DIRECTION ( 'NONE',  ( 1.000000000000000000, -0.000000000000000000, -1.836970198721029688E-16 ) ) ;
#1073 = EDGE_CURVE ( 'NONE', #1007, #111, #966, .T. ) ;
#1074 = EDGE_CURVE ( 'NONE', #455, #79, #610, .T. ) ;
#1075 = ORIENTED_EDGE ( 'NONE', *, *, #1073, .T. ) ;
#1076 = CARTESIAN_POINT ( 'NONE',  ( 929.3102796124104543, 0.000000000000000000, -22.50000000000034817 ) ) ;
#1077 = DIRECTION ( 'NONE',  ( 1.836970198721035604E-16, 0.000000000000000000, 1.000000000000000000 ) ) ;
#1078 = AXIS2_PLACEMENT_3D ( 'NONE', #607, #969, #289 ) ;
#1079 = CARTESIAN_POINT ( 'NONE',  ( 1000.000000000000000, 0.000000000000000000, -1.836970198721029747E-13 ) ) ;
#1080 = AXIS2_PLACEMENT_3D ( 'NONE', #329, #701, #1060 ) ;
#1081 = VECTOR ( 'NONE', #478, 1000.000000000000000 ) ;
#1082 = ORIENTED_EDGE ( 'NONE', *, *, #231, .F. ) ;
#1083 = DIRECTION ( 'NONE',  ( -1.000000000000000000, -0.000000000000000000, 1.836970198721041767E-16 ) ) ;
#1084 = VECTOR ( 'NONE', #841, 1000.000000000000000 ) ;
#1085 = TOROIDAL_SURFACE ( 'NONE', #46, 19.25000000000009237, 3.500000000000000000 ) ;
#1086 = DIRECTION ( 'NONE',  ( 0.000000000000000000, -0.000000000000000000, 1.000000000000000000 ) ) ;
#1087 = DIRECTION ( 'NONE',  ( 0.000000000000000000, -1.000000000000000000, 0.000000000000000000 ) ) ;
#1088 = EDGE_CURVE ( 'NONE', #79, #909, #316, .T. ) ;
#1089 = ORIENTED_EDGE ( 'NONE', *, *, #223, .T. ) ;
#1090 = DIRECTION ( 'NONE',  ( 0.000000000000000000, 0.000000000000000000, -1.000000000000000000 ) ) ;
#1091 = DIRECTION ( 'NONE',  ( 1.836970198721029688E-16, 0.000000000000000000, 1.000000000000000000 ) ) ;
#1092 = MANIFOLD_SOLID_BREP ( 'Cut-Extrude-Thin1', #739 ) ;
#1093 = ADVANCED_FACE ( 'NONE', ( #74 ), #1085, .F. ) ;
#1094 = LINE ( 'NONE', #529, #567 ) ;
#1095 = ADVANCED_FACE ( 'NONE', ( #1164 ), #814, .F. ) ;
#1096 = VERTEX_POINT ( 'NONE', #339 ) ;
#1097 = APPROVAL_STATUS ( 'not_yet_approved' ) ;
#1098 = AXIS2_PLACEMENT_3D ( 'NONE', #431, #1188, #1077 ) ;
#1099 = LINE ( 'NONE', #269, #1026 ) ;
#1100 = DIRECTION ( 'NONE',  ( 0.000000000000000000, 0.000000000000000000, -1.000000000000000000 ) ) ;
#1101 = VERTEX_POINT ( 'NONE', #332 ) ;
#1102 = ORIENTED_EDGE ( 'NONE', *, *, #897, .T. ) ;
#1103 = DATE_AND_TIME ( #195, #203 ) ;
#1104 = CARTESIAN_POINT ( 'NONE',  ( 974.0000000000000000, 24.25000000000000355, -2.250000000000172307 ) ) ;
#1105 = DIRECTION ( 'NONE',  ( 0.000000000000000000, 0.000000000000000000, -1.000000000000000000 ) ) ;
#1106 = ORIENTED_EDGE ( 'NONE', *, *, #1062, .F. ) ;
#1107 = PLANE ( 'NONE',  #854 ) ;
#1108 = COORDINATED_UNIVERSAL_TIME_OFFSET ( 1, 0, .AHEAD. ) ;
#1109 = EDGE_CURVE ( 'NONE', #143, #408, #986, .T. ) ;
#1110 = PLANE ( 'NONE',  #665 ) ;
#1111 = LINE ( 'NONE', #578, #985 ) ;
#1112 = ORIENTED_EDGE ( 'NONE', *, *, #438, .F. ) ;
#1113 = DATE_AND_TIME ( #828, #1148 ) ;
#1114 = EDGE_CURVE ( 'NONE', #402, #73, #878, .T. ) ;
#1115 = DIRECTION ( 'NONE',  ( -0.000000000000000000, 1.000000000000000000, 0.000000000000000000 ) ) ;
#1116 = DIRECTION ( 'NONE',  ( 1.000000000000000000, 0.000000000000000000, -1.836970198721029688E-16 ) ) ;
#1117 = ORIENTED_EDGE ( 'NONE', *, *, #1088, .T. ) ;
#1118 = CARTESIAN_POINT ( 'NONE',  ( 931.0203803290386304, 2.862611893006948682E-15, 22.80153689607005418 ) ) ;
#1119 = DIRECTION ( 'NONE',  ( 0.000000000000000000, 0.000000000000000000, 1.000000000000000000 ) ) ;
#1120 = CARTESIAN_POINT ( 'NONE',  ( 1000.000000000000000, 24.14539293529927733, -2.250000000000177192 ) ) ;
#1121 = VECTOR ( 'NONE', #53, 1000.000000000000000 ) ;
#1122 = CARTESIAN_POINT ( 'NONE',  ( 974.0000000000000000, -2.250000000000000000, -24.25000000000018474 ) ) ;
#1123 = VERTEX_POINT ( 'NONE', #1174 ) ;
#1124 = TOROIDAL_SURFACE ( 'NONE', #543, 27.50000000000000000, 6.500000000000000888 ) ;
#1125 = CARTESIAN_POINT ( 'NONE',  ( 974.0000000000000000, -24.14539293529927733, -2.250000000000172307 ) ) ;
#1126 = EDGE_LOOP ( 'NONE', ( #970, #647, #307, #983 ) ) ;
#1127 = DIRECTION ( 'NONE',  ( 0.000000000000000000, 0.000000000000000000, -1.000000000000000000 ) ) ;
#1128 = DIRECTION ( 'NONE',  ( 1.000000000000000000, 0.000000000000000000, -1.836970198721029934E-16 ) ) ;
#1129 = EDGE_CURVE ( 'NONE', #128, #402, #984, .T. ) ;
#1130 = VERTEX_POINT ( 'NONE', #1076 ) ;
#1131 = AXIS2_PLACEMENT_3D ( 'NONE', #623, #720, #632 ) ;
#1132 = EDGE_CURVE ( 'NONE', #405, #909, #159, .T. ) ;
#1133 = ORIENTED_EDGE ( 'NONE', *, *, #148, .T. ) ;
#1134 = DIRECTION ( 'NONE',  ( 1.000000000000000000, 0.000000000000000000, -1.836970198721029688E-16 ) ) ;
#1135 = LINE ( 'NONE', #306, #972 ) ;
#1136 = ORIENTED_EDGE ( 'NONE', *, *, #622, .F. ) ;
#1137 = CONICAL_SURFACE ( 'NONE', #684, 22.50000000000000000, 0.3490658503988492978 ) ;
#1138 = EDGE_CURVE ( 'NONE', #747, #920, #1027, .T. ) ;
#1139 = ORIENTED_EDGE ( 'NONE', *, *, #330, .T. ) ;
#1140 = CARTESIAN_POINT ( 'NONE',  ( 935.0000000000000000, -2.249999999999999112, 24.14539293529909969 ) ) ;
#1141 = DIRECTION ( 'NONE',  ( 1.836970198721029688E-16, 0.000000000000000000, 1.000000000000000000 ) ) ;
#1142 = VECTOR ( 'NONE', #131, 1000.000000000000000 ) ;
#1143 = ORIENTED_EDGE ( 'NONE', *, *, #671, .T. ) ;
#1144 = CIRCLE ( 'NONE', #627, 24.25000000000000355 ) ;
#1145 = CIRCLE ( 'NONE', #1182, 20.99999999999999645 ) ;
#1146 = ORIENTED_EDGE ( 'NONE', *, *, #749, .F. ) ;
#1147 = CARTESIAN_POINT ( 'NONE',  ( 929.3102796124104543, 0.000000000000000000, -3.544085487734135045E-13 ) ) ;
#1148 = LOCAL_TIME ( 0, 3, 17.00000000000000000, #370 ) ;
#1149 = CARTESIAN_POINT ( 'NONE',  ( 935.0000000000000000, 2.249999999999999112, 24.14539293529909969 ) ) ;
#1150 = DIRECTION ( 'NONE',  ( 2.249639673992793528E-32, 1.000000000000000000, 1.224646799147353207E-16 ) ) ;
#1151 = ORIENTED_EDGE ( 'NONE', *, *, #556, .T. ) ;
#1152 = CARTESIAN_POINT ( 'NONE',  ( 935.0000000000000000, 0.000000000000000000, -24.25000000000017764 ) ) ;
#1153 = CC_DESIGN_PERSON_AND_ORGANIZATION_ASSIGNMENT ( #1020, #559, ( #572 ) ) ;
#1154 = DIRECTION ( 'NONE',  ( 1.000000000000000000, -0.000000000000000000, -1.836970198721029688E-16 ) ) ;
#1155 = FACE_OUTER_BOUND ( 'NONE', #731, .T. ) ;
#1156 = CIRCLE ( 'NONE', #637, 6.500000000000002665 ) ;
#1157 = ADVANCED_FACE ( 'NONE', ( #262, #1159 ), #70, .F. ) ;
#1158 = ORIENTED_EDGE ( 'NONE', *, *, #1132, .T. ) ;
#1159 = FACE_OUTER_BOUND ( 'NONE', #667, .T. ) ;
#1160 = CARTESIAN_POINT ( 'NONE',  ( 1000.000000000000000, 24.14539293529927377, 2.249999999999822364 ) ) ;
#1161 = DIRECTION ( 'NONE',  ( 1.000000000000000000, 0.000000000000000000, -1.836970198721029688E-16 ) ) ;
#1162 = CIRCLE ( 'NONE', #121, 6.500000000000002665 ) ;
#1163 = ORIENTED_EDGE ( 'NONE', *, *, #769, .T. ) ;
#1164 = FACE_OUTER_BOUND ( 'NONE', #1032, .T. ) ;
#1165 = DIRECTION ( 'NONE',  ( 0.9396926207859139790, 0.000000000000000000, -0.3420201433256532808 ) ) ;
#1166 = DIRECTION ( 'NONE',  ( 1.000000000000000000, -0.000000000000000000, -1.836970198721029688E-16 ) ) ;
#1167 = EDGE_CURVE ( 'NONE', #909, #143, #516, .T. ) ;
#1168 = ORIENTED_EDGE ( 'NONE', *, *, #979, .T. ) ;
#1169 = CARTESIAN_POINT ( 'NONE',  ( 974.0000000000000000, 24.25000000000000355, -2.250000000000172307 ) ) ;
#1170 = DIRECTION ( 'NONE',  ( 0.000000000000000000, 0.000000000000000000, -1.000000000000000000 ) ) ;
#1171 = DIRECTION ( 'NONE',  ( 1.836970198721029688E-16, 0.000000000000000000, 1.000000000000000000 ) ) ;
#1172 = ADVANCED_FACE ( 'NONE', ( #793 ), #472, .F. ) ;
#1173 = ORIENTED_EDGE ( 'NONE', *, *, #1051, .F. ) ;
#1174 = CARTESIAN_POINT ( 'NONE',  ( -1000.000000000000000, 0.000000000000000000, -20.99999999999999645 ) ) ;
#1175 = PLANE ( 'NONE',  #3 ) ;
#1176 = DIRECTION ( 'NONE',  ( 0.000000000000000000, 0.000000000000000000, 1.000000000000000000 ) ) ;
#1177 = AXIS2_PLACEMENT_3D ( 'NONE', #67, #352, #366 ) ;
#1178 = VECTOR ( 'NONE', #19, 1000.000000000000114 ) ;
#1179 = ORIENTED_EDGE ( 'NONE', *, *, #132, .T. ) ;
#1180 = DIRECTION ( 'NONE',  ( -0.000000000000000000, 1.000000000000000000, 0.000000000000000000 ) ) ;
#1181 = VECTOR ( 'NONE', #212, 1000.000000000000000 ) ;
#1182 = AXIS2_PLACEMENT_3D ( 'NONE', #599, #503, #1127 ) ;
#1183 = LINE ( 'NONE', #264, #886 ) ;
#1184 = CARTESIAN_POINT ( 'NONE',  ( 931.0203803290386304, 0.000000000000000000, -3.547226891787392369E-13 ) ) ;
#1185 = ORIENTED_EDGE ( 'NONE', *, *, #1132, .F. ) ;
#1186 = CARTESIAN_POINT ( 'NONE',  ( -1000.000000000000000, 0.000000000000000000, 0.000000000000000000 ) ) ;
#1187 = COORDINATED_UNIVERSAL_TIME_OFFSET ( 1, 0, .AHEAD. ) ;
#1188 = DIRECTION ( 'NONE',  ( -1.000000000000000000, -0.000000000000000000, 1.836970198721035604E-16 ) ) ;
#1189 = AXIS2_PLACEMENT_3D ( 'NONE', #495, #1154, #425 ) ;
#1190 = CARTESIAN_POINT ( 'NONE',  ( 934.6845644019016390, 0.000000000000000000, -3.553957888731870374E-13 ) ) ;
#1191 = ORIENTED_EDGE ( 'NONE', *, *, #915, .F. ) ;
ENDSEC;
END-ISO-10303-21;
