ISO-10303-21;
HEADER;
FILE_DESCRIPTION (( 'STEP AP203' ),
    '1' );
FILE_NAME ('79-8461 - 45mm x 1000mm.STEP',
    '2026-09-15T22:03:21',
    ( '' ),
    ( '' ),
    'SwSTEP 2.0',
    'SolidWorks 2026',
    '' );
FILE_SCHEMA (( 'CONFIG_CONTROL_DESIGN' ));
ENDSEC;

DATA;
#1 = DIRECTION ( 'NONE',  ( 0.000000000000000000, 0.000000000000000000, -1.000000000000000000 ) ) ;
#2 = ORIENTED_EDGE ( 'NONE', *, *, #193, .F. ) ;
#3 = EDGE_CURVE ( 'NONE', #793, #651, #1007, .T. ) ;
#4 = EDGE_LOOP ( 'NONE', ( #415, #1058, #502, #1087 ) ) ;
#5 = CARTESIAN_POINT ( 'NONE',  ( 435.0000000000000000, -24.14539293529927022, 2.249999999999925837 ) ) ;
#6 = CARTESIAN_POINT ( 'NONE',  ( -500.0000000000000000, 0.000000000000000000, 0.000000000000000000 ) ) ;
#7 = AXIS2_PLACEMENT_3D ( 'NONE', #264, #633, #362 ) ;
#8 = LINE ( 'NONE', #281, #756 ) ;
#9 = VERTEX_POINT ( 'NONE', #282 ) ;
#10 = CARTESIAN_POINT ( 'NONE',  ( 431.0203803290411884, 2.862611893006943160E-15, 22.80153689607028156 ) ) ;
#11 = ORIENTED_EDGE ( 'NONE', *, *, #483, .F. ) ;
#12 = ADVANCED_FACE ( 'NONE', ( #561 ), #929, .F. ) ;
#13 = DIRECTION ( 'NONE',  ( 1.000000000000000000, 0.000000000000000000, -1.836970198721029688E-16 ) ) ;
#14 = DIRECTION ( 'NONE',  ( 0.000000000000000000, 0.000000000000000000, 1.000000000000000000 ) ) ;
#15 = VECTOR ( 'NONE', #138, 1000.000000000000000 ) ;
#16 = VECTOR ( 'NONE', #616, 1000.000000000000000 ) ;
#17 =( GEOMETRIC_REPRESENTATION_CONTEXT ( 3 ) GLOBAL_UNCERTAINTY_ASSIGNED_CONTEXT ( ( #667 ) ) GLOBAL_UNIT_ASSIGNED_CONTEXT ( ( #944, #714, #252 ) ) REPRESENTATION_CONTEXT ( 'NONE', 'WORKASPACE' ) );
#18 = DIRECTION ( 'NONE',  ( -1.000000000000000000, -0.000000000000000000, 1.836970198721015389E-16 ) ) ;
#19 = PLANE ( 'NONE',  #1033 ) ;
#20 = ORIENTED_EDGE ( 'NONE', *, *, #417, .T. ) ;
#21 = DIRECTION ( 'NONE',  ( 1.000000000000000000, -0.000000000000000000, -1.836970198721029688E-16 ) ) ;
#22 = ADVANCED_FACE ( 'NONE', ( #909 ), #218, .F. ) ;
#23 = LINE ( 'NONE', #291, #182 ) ;
#24 = LINE ( 'NONE', #943, #914 ) ;
#25 = CARTESIAN_POINT ( 'NONE',  ( 474.0000000000000000, 0.000000000000000000, -22.75000000000008882 ) ) ;
#26 = FACE_OUTER_BOUND ( 'NONE', #713, .T. ) ;
#27 = DIRECTION ( 'NONE',  ( 1.000000000000000000, 0.000000000000000000, -1.836970198721029688E-16 ) ) ;
#28 = CARTESIAN_POINT ( 'NONE',  ( 429.3102796124128417, 0.000000000000000000, 27.49999999999982947 ) ) ;
#29 = ORIENTED_EDGE ( 'NONE', *, *, #660, .F. ) ;
#30 = CIRCLE ( 'NONE', #1141, 22.75000000000000355 ) ;
#31 = VECTOR ( 'NONE', #1162, 1000.000000000000000 ) ;
#32 = VECTOR ( 'NONE', #1017, 1000.000000000000000 ) ;
#33 = ADVANCED_FACE ( 'NONE', ( #1189 ), #19, .F. ) ;
#34 = DIRECTION ( 'NONE',  ( 0.000000000000000000, -0.000000000000000000, 1.000000000000000000 ) ) ;
#35 = CARTESIAN_POINT ( 'NONE',  ( 474.0000000000000000, 24.25000000000000355, 2.249999999999919176 ) ) ;
#36 = CARTESIAN_POINT ( 'NONE',  ( 429.3102796124128417, 2.755455298081544778E-15, 22.49999999999982947 ) ) ;
#37 = VERTEX_POINT ( 'NONE', #464 ) ;
#38 = CARTESIAN_POINT ( 'NONE',  ( 434.1715341869150393, 2.932840868472591331E-15, 23.94846310392946265 ) ) ;
#39 = CARTESIAN_POINT ( 'NONE',  ( 500.0000000000000000, 0.000000000000000000, -9.184850993605148733E-14 ) ) ;
#40 = EDGE_CURVE ( 'NONE', #735, #799, #716, .T. ) ;
#41 = DIRECTION ( 'NONE',  ( 1.000000000000000000, -0.000000000000000000, -1.836970198721029688E-16 ) ) ;
#42 = ORIENTED_EDGE ( 'NONE', *, *, #642, .T. ) ;
#43 = CARTESIAN_POINT ( 'NONE',  ( 435.0000000000000000, 2.969768487932332076E-15, 24.24999999999992539 ) ) ;
#44 = CARTESIAN_POINT ( 'NONE',  ( 474.0000000000000000, 0.000000000000000000, -8.707238741937679131E-14 ) ) ;
#45 = EDGE_CURVE ( 'NONE', #425, #458, #93, .T. ) ;
#46 = VERTEX_POINT ( 'NONE', #831 ) ;
#47 = AXIS2_PLACEMENT_3D ( 'NONE', #97, #913, #198 ) ;
#48 = AXIS2_PLACEMENT_3D ( 'NONE', #808, #825, #999 ) ;
#49 = DIRECTION ( 'NONE',  ( 0.9396926207859103153, 4.188538737676927054E-17, 0.3420201433256632173 ) ) ;
#50 = AXIS2_PLACEMENT_3D ( 'NONE', #1055, #209, #575 ) ;
#51 = ORIENTED_EDGE ( 'NONE', *, *, #212, .T. ) ;
#52 = VERTEX_POINT ( 'NONE', #111 ) ;
#53 = FACE_OUTER_BOUND ( 'NONE', #320, .T. ) ;
#54 = ORIENTED_EDGE ( 'NONE', *, *, #747, .T. ) ;
#55 = APPROVAL_DATE_TIME ( #878, #768 ) ;
#56 = ORIENTED_EDGE ( 'NONE', *, *, #519, .F. ) ;
#57 = DIRECTION ( 'NONE',  ( 1.000000000000000000, 0.000000000000000000, -1.836970198721029934E-16 ) ) ;
#58 = EDGE_CURVE ( 'NONE', #9, #685, #474, .T. ) ;
#59 = CARTESIAN_POINT ( 'NONE',  ( 474.0000000000000000, 0.000000000000000000, -8.707238741937679131E-14 ) ) ;
#60 = ORIENTED_EDGE ( 'NONE', *, *, #249, .T. ) ;
#61 = VERTEX_POINT ( 'NONE', #1103 ) ;
#62 = CIRCLE ( 'NONE', #305, 22.75000000000000355 ) ;
#63 = LINE ( 'NONE', #1173, #91 ) ;
#64 = EDGE_CURVE ( 'NONE', #61, #918, #1020, .T. ) ;
#65 = CARTESIAN_POINT ( 'NONE',  ( -500.0000000000000000, 0.000000000000000000, -20.99999999999999645 ) ) ;
#66 = ORIENTED_EDGE ( 'NONE', *, *, #962, .T. ) ;
#67 = ADVANCED_FACE ( 'NONE', ( #635 ), #565, .T. ) ;
#68 = ORIENTED_EDGE ( 'NONE', *, *, #688, .T. ) ;
#69 = CIRCLE ( 'NONE', #259, 5.000000000000000888 ) ;
#70 = DIRECTION ( 'NONE',  ( 1.000000000000000000, 0.000000000000000000, -1.836970198721000845E-16 ) ) ;
#71 = DIRECTION ( 'NONE',  ( 0.000000000000000000, 0.000000000000000000, 1.000000000000000000 ) ) ;
#72 = ORIENTED_EDGE ( 'NONE', *, *, #3, .F. ) ;
#73 = PERSON_AND_ORGANIZATION_ROLE ( 'classification_officer' ) ;
#74 = EDGE_LOOP ( 'NONE', ( #923, #728, #1119, #288 ) ) ;
#75 = EDGE_CURVE ( 'NONE', #90, #1077, #1086, .T. ) ;
#76 = DIRECTION ( 'NONE',  ( 0.000000000000000000, 0.000000000000000000, -1.000000000000000000 ) ) ;
#77 = CARTESIAN_POINT ( 'NONE',  ( 474.0000000000000000, -22.63846284534354325, -2.250000000000080380 ) ) ;
#78 = VERTEX_POINT ( 'NONE', #1121 ) ;
#79 = DIRECTION ( 'NONE',  ( 0.000000000000000000, 0.000000000000000000, -1.000000000000000000 ) ) ;
#80 = ORIENTED_EDGE ( 'NONE', *, *, #979, .F. ) ;
#81 = EDGE_CURVE ( 'NONE', #174, #452, #845, .T. ) ;
#82 = CARTESIAN_POINT ( 'NONE',  ( 474.0000000000000000, 2.250000000000000000, -24.25000000000009237 ) ) ;
#83 = AXIS2_PLACEMENT_3D ( 'NONE', #1050, #858, #298 ) ;
#84 = CYLINDRICAL_SURFACE ( 'NONE', #547, 22.50000000000000000 ) ;
#85 = APPLICATION_CONTEXT ( 'configuration controlled 3d designs of mechanical parts and assemblies' ) ;
#86 = DIRECTION ( 'NONE',  ( -0.000000000000000000, -1.000000000000000000, -0.000000000000000000 ) ) ;
#87 = AXIS2_PLACEMENT_3D ( 'NONE', #904, #373, #924 ) ;
#88 = ORIENTED_EDGE ( 'NONE', *, *, #753, .F. ) ;
#89 = FACE_OUTER_BOUND ( 'NONE', #925, .T. ) ;
#90 = VERTEX_POINT ( 'NONE', #453 ) ;
#91 = VECTOR ( 'NONE', #998, 1000.000000000000000 ) ;
#92 = CC_DESIGN_APPROVAL ( #768, ( #682 ) ) ;
#93 = LINE ( 'NONE', #732, #1179 ) ;
#94 = ORIENTED_EDGE ( 'NONE', *, *, #99, .T. ) ;
#95 = DIRECTION ( 'NONE',  ( -1.000000000000000000, 0.000000000000000000, 1.836970198721029688E-16 ) ) ;
#96 = VERTEX_POINT ( 'NONE', #657 ) ;
#97 = CARTESIAN_POINT ( 'NONE',  ( 435.8816349035434428, 2.357445088358661068E-15, -19.25000000000017408 ) ) ;
#98 = CARTESIAN_POINT ( 'NONE',  ( 500.0000000000000000, 2.250000000000000000, -24.14539293529936614 ) ) ;
#99 = EDGE_CURVE ( 'NONE', #90, #263, #752, .T. ) ;
#100 = CARTESIAN_POINT ( 'NONE',  ( 474.0000000000000000, 24.25000000000000355, -2.250000000000080380 ) ) ;
#101 = CARTESIAN_POINT ( 'NONE',  ( 500.0000000000000000, 2.250000000000000000, 24.14539293529918496 ) ) ;
#102 = VERTEX_POINT ( 'NONE', #203 ) ;
#103 = CYLINDRICAL_SURFACE ( 'NONE', #568, 24.25000000000000355 ) ;
#104 = DIRECTION ( 'NONE',  ( 1.836970198721015389E-16, 0.000000000000000000, 1.000000000000000000 ) ) ;
#105 = DESIGN_CONTEXT ( 'detailed design', #411, 'design' ) ;
#106 = CIRCLE ( 'NONE', #87, 24.25000000000000355 ) ;
#107 = CARTESIAN_POINT ( 'NONE',  ( 474.0000000000000000, 24.25000000000000355, 2.249999999999919176 ) ) ;
#108 = DIRECTION ( 'NONE',  ( -1.000000000000000000, -0.000000000000000000, 1.836970198721015389E-16 ) ) ;
#109 = ORIENTED_EDGE ( 'NONE', *, *, #650, .F. ) ;
#110 = TOROIDAL_SURFACE ( 'NONE', #409, 27.50000000000000000, 5.000000000000000000 ) ;
#111 = CARTESIAN_POINT ( 'NONE',  ( 500.0000000000000000, 2.250000000000000000, -22.63846284534363562 ) ) ;
#112 = AXIS2_PLACEMENT_3D ( 'NONE', #978, #332, #518 ) ;
#113 = CIRCLE ( 'NONE', #1128, 22.75000000000000355 ) ;
#114 = DIRECTION ( 'NONE',  ( -0.000000000000000000, -1.000000000000000000, -0.000000000000000000 ) ) ;
#115 = LINE ( 'NONE', #1044, #640 ) ;
#116 = ADVANCED_FACE ( 'NONE', ( #1191 ), #327, .F. ) ;
#117 = CARTESIAN_POINT ( 'NONE',  ( 429.3102796124128417, 0.000000000000000000, -22.50000000000016698 ) ) ;
#118 = FACE_OUTER_BOUND ( 'NONE', #805, .T. ) ;
#119 = CARTESIAN_POINT ( 'NONE',  ( 500.0000000000000000, 2.250000000000000000, 22.63846284534345799 ) ) ;
#120 = EDGE_CURVE ( 'NONE', #1149, #793, #62, .T. ) ;
#121 = AXIS2_PLACEMENT_3D ( 'NONE', #580, #656, #951 ) ;
#122 = LINE ( 'NONE', #398, #123 ) ;
#123 = VECTOR ( 'NONE', #1138, 1000.000000000000000 ) ;
#124 = DIRECTION ( 'NONE',  ( 0.000000000000000000, 0.000000000000000000, -1.000000000000000000 ) ) ;
#125 = DIRECTION ( 'NONE',  ( 0.000000000000000000, -1.224646799147352714E-16, 1.000000000000000000 ) ) ;
#126 = EDGE_LOOP ( 'NONE', ( #671, #72, #228, #1166 ) ) ;
#127 = DIRECTION ( 'NONE',  ( -1.000000000000000000, -0.000000000000000000, 1.836970198721029688E-16 ) ) ;
#128 = CIRCLE ( 'NONE', #583, 24.25000000000000355 ) ;
#129 = EDGE_CURVE ( 'NONE', #550, #1170, #285, .T. ) ;
#130 = AXIS2_PLACEMENT_3D ( 'NONE', #6, #1061, #233 ) ;
#131 = EDGE_LOOP ( 'NONE', ( #169, #444, #167, #1075 ) ) ;
#132 = CARTESIAN_POINT ( 'NONE',  ( 500.0000000000000000, 2.250000000000000000, -24.25000000000009592 ) ) ;
#133 = FACE_OUTER_BOUND ( 'NONE', #1018, .T. ) ;
#134 = DIRECTION ( 'NONE',  ( 1.000000000000000000, 0.000000000000000000, -1.836970198721015389E-16 ) ) ;
#135 = ORIENTED_EDGE ( 'NONE', *, *, #820, .T. ) ;
#136 = DIRECTION ( 'NONE',  ( 0.000000000000000000, 0.000000000000000000, -1.000000000000000000 ) ) ;
#137 = ADVANCED_FACE ( 'NONE', ( #1013 ), #381, .T. ) ;
#138 = DIRECTION ( 'NONE',  ( 1.000000000000000000, 0.000000000000000000, -1.836970198721029688E-16 ) ) ;
#139 = CARTESIAN_POINT ( 'NONE',  ( 474.0000000000000000, -22.63846284534354325, 2.249999999999919176 ) ) ;
#140 = CARTESIAN_POINT ( 'NONE',  ( 474.0000000000000000, -24.14539293529927733, -2.250000000000080380 ) ) ;
#141 = ORIENTED_EDGE ( 'NONE', *, *, #1021, .T. ) ;
#142 = CARTESIAN_POINT ( 'NONE',  ( -500.0000000000000000, 2.571758278209451916E-15, 20.99999999999999645 ) ) ;
#143 = ORIENTED_EDGE ( 'NONE', *, *, #1137, .T. ) ;
#144 = AXIS2_PLACEMENT_3D ( 'NONE', #815, #108, #835 ) ;
#145 = AXIS2_PLACEMENT_3D ( 'NONE', #429, #698, #1168 ) ;
#146 = DIRECTION ( 'NONE',  ( 0.000000000000000000, 0.000000000000000000, -1.000000000000000000 ) ) ;
#147 = LOCAL_TIME ( 0, 3, 21.00000000000000000, #899 ) ;
#148 = EDGE_LOOP ( 'NONE', ( #905, #141, #742, #419 ) ) ;
#149 = CALENDAR_DATE ( 2026, 16, 9 ) ;
#150 = ORIENTED_EDGE ( 'NONE', *, *, #1029, .F. ) ;
#151 = EDGE_CURVE ( 'NONE', #550, #1082, #1105, .T. ) ;
#152 = CARTESIAN_POINT ( 'NONE',  ( 500.0000000000000000, -2.249999999999999556, 22.63846284534345799 ) ) ;
#153 = DIRECTION ( 'NONE',  ( 1.000000000000000000, 0.000000000000000000, -1.836970198721029688E-16 ) ) ;
#154 = ORIENTED_EDGE ( 'NONE', *, *, #1143, .T. ) ;
#155 = APPROVAL_STATUS ( 'not_yet_approved' ) ;
#156 = EDGE_LOOP ( 'NONE', ( #1152, #178, #1023, #436 ) ) ;
#157 = EDGE_CURVE ( 'NONE', #877, #771, #30, .T. ) ;
#158 = FACE_OUTER_BOUND ( 'NONE', #645, .T. ) ;
#159 = DIRECTION ( 'NONE',  ( 1.000000000000000000, -0.000000000000000000, -1.836970198721029688E-16 ) ) ;
#160 = VERTEX_POINT ( 'NONE', #824 ) ;
#161 = DATE_TIME_ROLE ( 'classification_date' ) ;
#162 = EDGE_LOOP ( 'NONE', ( #911, #1180, #997, #247 ) ) ;
#163 = CARTESIAN_POINT ( 'NONE',  ( 435.0000000000000000, 2.249999999999999112, 22.63846284534346154 ) ) ;
#164 = LINE ( 'NONE', #1074, #832 ) ;
#165 = EDGE_CURVE ( 'NONE', #877, #891, #1110, .T. ) ;
#166 = AXIS2_PLACEMENT_3D ( 'NONE', #980, #159, #692 ) ;
#167 = ORIENTED_EDGE ( 'NONE', *, *, #650, .T. ) ;
#168 = VECTOR ( 'NONE', #49, 1000.000000000000227 ) ;
#169 = ORIENTED_EDGE ( 'NONE', *, *, #344, .F. ) ;
#170 = DIRECTION ( 'NONE',  ( 0.000000000000000000, 0.000000000000000000, -1.000000000000000000 ) ) ;
#171 = LINE ( 'NONE', #624, #32 ) ;
#172 = EDGE_LOOP ( 'NONE', ( #337, #213, #829, #192 ) ) ;
#173 = EDGE_CURVE ( 'NONE', #1156, #160, #649, .T. ) ;
#174 = VERTEX_POINT ( 'NONE', #1185 ) ;
#175 = LINE ( 'NONE', #442, #739 ) ;
#176 = ORIENTED_EDGE ( 'NONE', *, *, #397, .F. ) ;
#177 = DIRECTION ( 'NONE',  ( 0.000000000000000000, 0.000000000000000000, -1.000000000000000000 ) ) ;
#178 = ORIENTED_EDGE ( 'NONE', *, *, #632, .T. ) ;
#179 = DIRECTION ( 'NONE',  ( -1.000000000000000000, -0.000000000000000000, 1.836970198721015389E-16 ) ) ;
#180 = VECTOR ( 'NONE', #287, 1000.000000000000000 ) ;
#181 = DIRECTION ( 'NONE',  ( -1.000000000000000000, -0.000000000000000000, 1.836970198721015389E-16 ) ) ;
#182 = VECTOR ( 'NONE', #562, 1000.000000000000000 ) ;
#183 = ORIENTED_EDGE ( 'NONE', *, *, #403, .T. ) ;
#184 = ORIENTED_EDGE ( 'NONE', *, *, #471, .T. ) ;
#185 = CIRCLE ( 'NONE', #296, 22.50000000000000000 ) ;
#186 = DIRECTION ( 'NONE',  ( -1.836970198721029688E-16, 0.000000000000000000, -1.000000000000000000 ) ) ;
#187 = ADVANCED_FACE ( 'NONE', ( #678 ), #1139, .F. ) ;
#188 = LINE ( 'NONE', #554, #1183 ) ;
#189 = VERTEX_POINT ( 'NONE', #25 ) ;
#190 = ORIENTED_EDGE ( 'NONE', *, *, #157, .T. ) ;
#191 = CARTESIAN_POINT ( 'NONE',  ( 435.8816349035434428, 0.000000000000000000, -8.007015734876094399E-14 ) ) ;
#192 = ORIENTED_EDGE ( 'NONE', *, *, #711, .F. ) ;
#193 = EDGE_CURVE ( 'NONE', #631, #691, #887, .T. ) ;
#194 = DIRECTION ( 'NONE',  ( 0.000000000000000000, 0.000000000000000000, -1.000000000000000000 ) ) ;
#195 = ORIENTED_EDGE ( 'NONE', *, *, #360, .T. ) ;
#196 = PLANE ( 'NONE',  #426 ) ;
#197 = ORIENTED_EDGE ( 'NONE', *, *, #1118, .F. ) ;
#198 = DIRECTION ( 'NONE',  ( 0.000000000000000000, -1.224646799147352714E-16, 1.000000000000000000 ) ) ;
#199 = ADVANCED_FACE ( 'NONE', ( #862 ), #912, .T. ) ;
#200 = FACE_OUTER_BOUND ( 'NONE', #541, .T. ) ;
#201 = VECTOR ( 'NONE', #266, 1000.000000000000000 ) ;
#202 = DIRECTION ( 'NONE',  ( -1.000000000000000000, 0.000000000000000000, 1.836970198721029688E-16 ) ) ;
#203 = CARTESIAN_POINT ( 'NONE',  ( 500.0000000000000000, -2.250000000000000000, 24.14539293529918496 ) ) ;
#204 = VECTOR ( 'NONE', #610, 1000.000000000000000 ) ;
#205 = AXIS2_PLACEMENT_3D ( 'NONE', #1026, #725, #926 ) ;
#206 = DIRECTION ( 'NONE',  ( -1.000000000000000000, -0.000000000000000000, 1.836970198721029688E-16 ) ) ;
#207 = EDGE_CURVE ( 'NONE', #621, #1077, #757, .T. ) ;
#208 = DIRECTION ( 'NONE',  ( 0.000000000000000000, 0.000000000000000000, -1.000000000000000000 ) ) ;
#209 = DIRECTION ( 'NONE',  ( 1.000000000000000000, 0.000000000000000000, -1.836970198721000845E-16 ) ) ;
#210 = DIRECTION ( 'NONE',  ( 1.000000000000000000, -0.000000000000000000, -1.836970198721029688E-16 ) ) ;
#211 = DIRECTION ( 'NONE',  ( -1.000000000000000000, -0.000000000000000000, 1.836970198721029688E-16 ) ) ;
#212 = EDGE_CURVE ( 'NONE', #1042, #458, #482, .T. ) ;
#213 = ORIENTED_EDGE ( 'NONE', *, *, #1150, .T. ) ;
#214 = AXIS2_PLACEMENT_3D ( 'NONE', #746, #812, #186 ) ;
#215 = CYLINDRICAL_SURFACE ( 'NONE', #545, 22.75000000000000355 ) ;
#216 = PLANE ( 'NONE',  #1066 ) ;
#217 = DIRECTION ( 'NONE',  ( 1.836970198721029688E-16, 0.000000000000000000, 1.000000000000000000 ) ) ;
#218 = TOROIDAL_SURFACE ( 'NONE', #144, 27.50000000000000000, 5.000000000000000000 ) ;
#219 = DIRECTION ( 'NONE',  ( -0.000000000000000000, 1.000000000000000000, 0.000000000000000000 ) ) ;
#220 = ORIENTED_EDGE ( 'NONE', *, *, #241, .F. ) ;
#221 = ADVANCED_FACE ( 'NONE', ( #118 ), #1135, .F. ) ;
#222 = DIRECTION ( 'NONE',  ( 0.000000000000000000, 0.000000000000000000, -1.000000000000000000 ) ) ;
#223 = DIRECTION ( 'NONE',  ( 0.000000000000000000, 0.000000000000000000, -1.000000000000000000 ) ) ;
#224 = DIRECTION ( 'NONE',  ( 1.000000000000000000, 0.000000000000000000, -1.836970198721029934E-16 ) ) ;
#225 = ORIENTED_EDGE ( 'NONE', *, *, #338, .F. ) ;
#226 = CARTESIAN_POINT ( 'NONE',  ( 435.0000000000000000, 22.63846284534353970, 2.249999999999925837 ) ) ;
#227 = CARTESIAN_POINT ( 'NONE',  ( 435.8816349035434428, 2.357445088358661068E-15, -19.25000000000017408 ) ) ;
#228 = ORIENTED_EDGE ( 'NONE', *, *, #120, .F. ) ;
#229 = AXIS2_PLACEMENT_3D ( 'NONE', #723, #549, #468 ) ;
#230 = EDGE_CURVE ( 'NONE', #336, #160, #789, .T. ) ;
#231 = DATE_AND_TIME ( #1171, #646 ) ;
#232 = ORIENTED_EDGE ( 'NONE', *, *, #165, .F. ) ;
#233 = DIRECTION ( 'NONE',  ( 0.000000000000000000, 0.000000000000000000, -1.000000000000000000 ) ) ;
#234 = CIRCLE ( 'NONE', #274, 20.99999999999999645 ) ;
#235 = LINE ( 'NONE', #323, #1049 ) ;
#236 = CIRCLE ( 'NONE', #934, 23.94846310392965094 ) ;
#237 = AXIS2_PLACEMENT_3D ( 'NONE', #525, #514, #170 ) ;
#238 = LINE ( 'NONE', #501, #168 ) ;
#239 = VECTOR ( 'NONE', #953, 1000.000000000000000 ) ;
#240 = ORIENTED_EDGE ( 'NONE', *, *, #1052, .T. ) ;
#241 = EDGE_CURVE ( 'NONE', #877, #102, #115, .T. ) ;
#242 = EDGE_LOOP ( 'NONE', ( #358, #811, #724, #446 ) ) ;
#243 = CARTESIAN_POINT ( 'NONE',  ( 435.0000000000000000, 2.786071468060228959E-15, 22.74999999999992184 ) ) ;
#244 = DIRECTION ( 'NONE',  ( 0.000000000000000000, -1.224646799147353947E-16, 1.000000000000000000 ) ) ;
#245 = ORIENTED_EDGE ( 'NONE', *, *, #688, .F. ) ;
#246 = DIRECTION ( 'NONE',  ( 0.000000000000000000, 0.000000000000000000, 1.000000000000000000 ) ) ;
#247 = ORIENTED_EDGE ( 'NONE', *, *, #800, .T. ) ;
#248 = CARTESIAN_POINT ( 'NONE',  ( -500.0000000000000000, 0.000000000000000000, 0.000000000000000000 ) ) ;
#249 = EDGE_CURVE ( 'NONE', #621, #355, #734, .T. ) ;
#250 = DIRECTION ( 'NONE',  ( 0.000000000000000000, 0.000000000000000000, -1.000000000000000000 ) ) ;
#251 = ORIENTED_EDGE ( 'NONE', *, *, #1118, .T. ) ;
#252 =( NAMED_UNIT ( * ) SI_UNIT ( $, .STERADIAN. ) SOLID_ANGLE_UNIT ( ) );
#253 = EDGE_LOOP ( 'NONE', ( #1019, #823, #1115, #240, #555, #517, #607, #326, #655, #782, #347, #143 ) ) ;
#254 = FACE_OUTER_BOUND ( 'NONE', #131, .T. ) ;
#255 = ADVANCED_FACE ( 'NONE', ( #133 ), #1031, .F. ) ;
#256 = PLANE ( 'NONE',  #1111 ) ;
#257 = CONICAL_SURFACE ( 'NONE', #237, 21.09046106882113492, 0.3490658503988602890 ) ;
#258 = EDGE_LOOP ( 'NONE', ( #463, #994, #1060, #284 ) ) ;
#259 = AXIS2_PLACEMENT_3D ( 'NONE', #844, #863, #125 ) ;
#260 = ORIENTED_EDGE ( 'NONE', *, *, #318, .F. ) ;
#261 = CYLINDRICAL_SURFACE ( 'NONE', #145, 22.50000000000000000 ) ;
#262 = PLANE ( 'NONE',  #871 ) ;
#263 = VERTEX_POINT ( 'NONE', #479 ) ;
#264 = CARTESIAN_POINT ( 'NONE',  ( 434.1715341869150393, 0.000000000000000000, -1.256802719114609047E-13 ) ) ;
#265 = VERTEX_POINT ( 'NONE', #766 ) ;
#266 = DIRECTION ( 'NONE',  ( 1.836970198721029688E-16, 0.000000000000000000, 1.000000000000000000 ) ) ;
#267 = DIRECTION ( 'NONE',  ( 0.000000000000000000, 0.000000000000000000, -1.000000000000000000 ) ) ;
#268 = ORIENTED_EDGE ( 'NONE', *, *, #1093, .T. ) ;
#269 = CARTESIAN_POINT ( 'NONE',  ( -500.0000000000000000, 2.755455298081544778E-15, 22.50000000000000000 ) ) ;
#270 = ORIENTED_EDGE ( 'NONE', *, *, #286, .F. ) ;
#271 = ADVANCED_FACE ( 'NONE', ( #477 ), #676, .F. ) ;
#272 = CARTESIAN_POINT ( 'NONE',  ( 474.0000000000000000, 0.000000000000000000, -8.707238741937679131E-14 ) ) ;
#273 = AXIS2_PLACEMENT_3D ( 'NONE', #749, #663, #208 ) ;
#274 = AXIS2_PLACEMENT_3D ( 'NONE', #810, #1008, #79 ) ;
#275 = VERTEX_POINT ( 'NONE', #760 ) ;
#276 = AXIS2_PLACEMENT_3D ( 'NONE', #319, #340, #687 ) ;
#277 = ORIENTED_EDGE ( 'NONE', *, *, #448, .F. ) ;
#278 = ADVANCED_FACE ( 'NONE', ( #587 ), #215, .F. ) ;
#279 = CIRCLE ( 'NONE', #1147, 24.25000000000000355 ) ;
#280 = DIRECTION ( 'NONE',  ( 1.000000000000000000, 0.000000000000000000, -1.836970198721029688E-16 ) ) ;
#281 = CARTESIAN_POINT ( 'NONE',  ( 500.0000000000000000, 24.25000000000000355, -2.250000000000085265 ) ) ;
#282 = CARTESIAN_POINT ( 'NONE',  ( 500.0000000000000000, -24.14539293529927377, 2.249999999999914291 ) ) ;
#283 = CARTESIAN_POINT ( 'NONE',  ( 435.8816349035434428, 0.000000000000000000, 19.24999999999992184 ) ) ;
#284 = ORIENTED_EDGE ( 'NONE', *, *, #448, .T. ) ;
#285 = LINE ( 'NONE', #643, #1062 ) ;
#286 = EDGE_CURVE ( 'NONE', #891, #883, #23, .T. ) ;
#287 = DIRECTION ( 'NONE',  ( 1.000000000000000000, 0.000000000000000000, -1.836970198721029688E-16 ) ) ;
#288 = ORIENTED_EDGE ( 'NONE', *, *, #938, .F. ) ;
#289 = DIRECTION ( 'NONE',  ( -1.000000000000000000, -0.000000000000000000, 1.836970198721029688E-16 ) ) ;
#290 = EDGE_CURVE ( 'NONE', #534, #1077, #522, .T. ) ;
#291 = CARTESIAN_POINT ( 'NONE',  ( 474.0000000000000000, -2.250000000000000000, -24.25000000000009237 ) ) ;
#292 = FACE_OUTER_BOUND ( 'NONE', #817, .T. ) ;
#293 = DIRECTION ( 'NONE',  ( 0.000000000000000000, 0.000000000000000000, 1.000000000000000000 ) ) ;
#294 = CONICAL_SURFACE ( 'NONE', #394, 22.50000000000000000, 0.3490658503988602890 ) ;
#295 = AXIS2_PLACEMENT_3D ( 'NONE', #532, #901, #76 ) ;
#296 = AXIS2_PLACEMENT_3D ( 'NONE', #596, #777, #1142 ) ;
#297 = DIRECTION ( 'NONE',  ( -1.000000000000000000, -0.000000000000000000, 1.836970198721000845E-16 ) ) ;
#298 = DIRECTION ( 'NONE',  ( 0.000000000000000000, -3.641531520770513453E-14, 1.000000000000000000 ) ) ;
#299 = CARTESIAN_POINT ( 'NONE',  ( 474.0000000000000000, -2.250000000000000000, -24.14539293529935904 ) ) ;
#300 = ORIENTED_EDGE ( 'NONE', *, *, #632, .F. ) ;
#301 = CARTESIAN_POINT ( 'NONE',  ( 474.0000000000000000, 22.63846284534354325, 2.249999999999919176 ) ) ;
#302 = DIRECTION ( 'NONE',  ( 1.000000000000000000, 0.000000000000000000, -1.836970198721029934E-16 ) ) ;
#303 = PLANE ( 'NONE',  #356 ) ;
#304 = APPROVAL ( #530, 'UNSPECIFIED' ) ;
#305 = AXIS2_PLACEMENT_3D ( 'NONE', #726, #21, #14 ) ;
#306 = CARTESIAN_POINT ( 'NONE',  ( 435.0000000000000000, 0.000000000000000000, -7.990820364436478514E-14 ) ) ;
#307 = DIRECTION ( 'NONE',  ( -1.000000000000000000, -0.000000000000000000, 1.836970198721029688E-16 ) ) ;
#308 = CARTESIAN_POINT ( 'NONE',  ( 435.8816349035434428, 0.000000000000000000, -22.75000000000008171 ) ) ;
#309 = ORIENTED_EDGE ( 'NONE', *, *, #40, .F. ) ;
#310 = VECTOR ( 'NONE', #765, 1000.000000000000000 ) ;
#311 = VECTOR ( 'NONE', #727, 1000.000000000000000 ) ;
#312 = PERSON ( 'UNSPECIFIED', 'UNSPECIFIED', 'UNSPECIFIED', ('UNSPECIFIED'), ('UNSPECIFIED'), ('UNSPECIFIED') ) ;
#313 = AXIS2_PLACEMENT_3D ( 'NONE', #933, #1122, #475 ) ;
#314 = FACE_OUTER_BOUND ( 'NONE', #258, .T. ) ;
#315 = EDGE_LOOP ( 'NONE', ( #707, #488, #195, #260 ) ) ;
#316 = CARTESIAN_POINT ( 'NONE',  ( 429.3102796124128417, 0.000000000000000000, -21.00000000000016698 ) ) ;
#317 = VERTEX_POINT ( 'NONE', #816 ) ;
#318 = EDGE_CURVE ( 'NONE', #317, #1042, #847, .T. ) ;
#319 = CARTESIAN_POINT ( 'NONE',  ( 429.3102796124128417, 3.367778697655221307E-15, -27.50000000000017053 ) ) ;
#320 = EDGE_LOOP ( 'NONE', ( #183, #135, #809, #885 ) ) ;
#321 = DATE_TIME_ROLE ( 'creation_date' ) ;
#322 = ORIENTED_EDGE ( 'NONE', *, *, #1129, .T. ) ;
#323 = CARTESIAN_POINT ( 'NONE',  ( 474.0000000000000000, -2.250000000000000000, -24.25000000000009237 ) ) ;
#324 = ADVANCED_FACE ( 'NONE', ( #1107 ), #910, .T. ) ;
#325 = FACE_OUTER_BOUND ( 'NONE', #695, .T. ) ;
#326 = ORIENTED_EDGE ( 'NONE', *, *, #81, .T. ) ;
#327 = TOROIDAL_SURFACE ( 'NONE', #601, 19.25000000000004974, 3.500000000000000000 ) ;
#328 = EDGE_CURVE ( 'NONE', #918, #52, #647, .T. ) ;
#329 = MECHANICAL_CONTEXT ( 'NONE', #85, 'mechanical' ) ;
#330 = ORIENTED_EDGE ( 'NONE', *, *, #1070, .F. ) ;
#331 = AXIS2_PLACEMENT_3D ( 'NONE', #1181, #457, #828 ) ;
#332 = DIRECTION ( 'NONE',  ( 1.000000000000000000, 0.000000000000000000, -1.836970198721029688E-16 ) ) ;
#333 = CIRCLE ( 'NONE', #935, 5.000000000000000888 ) ;
#334 = LINE ( 'NONE', #699, #849 ) ;
#335 = TOROIDAL_SURFACE ( 'NONE', #205, 19.25000000000004974, 3.500000000000000000 ) ;
#336 = VERTEX_POINT ( 'NONE', #1024 ) ;
#337 = ORIENTED_EDGE ( 'NONE', *, *, #694, .F. ) ;
#338 = EDGE_CURVE ( 'NONE', #1098, #977, #106, .T. ) ;
#339 = CARTESIAN_POINT ( 'NONE',  ( 435.0000000000000000, -2.249999999999999112, -24.14539293529935193 ) ) ;
#340 = DIRECTION ( 'NONE',  ( 2.249639673992768896E-32, 1.000000000000000000, 1.224646799147353207E-16 ) ) ;
#341 = VERTEX_POINT ( 'NONE', #101 ) ;
#342 = PERSON_AND_ORGANIZATION ( #312, #473 ) ;
#343 = ORIENTED_EDGE ( 'NONE', *, *, #1093, .F. ) ;
#344 = EDGE_CURVE ( 'NONE', #265, #1131, #1100, .T. ) ;
#345 = FACE_OUTER_BOUND ( 'NONE', #148, .T. ) ;
#346 = PLANE ( 'NONE',  #791 ) ;
#347 = ORIENTED_EDGE ( 'NONE', *, *, #947, .T. ) ;
#348 = COORDINATED_UNIVERSAL_TIME_OFFSET ( 1, 0, .AHEAD. ) ;
#349 = ORIENTED_EDGE ( 'NONE', *, *, #1177, .F. ) ;
#350 = DIRECTION ( 'NONE',  ( 0.000000000000000000, 0.000000000000000000, -1.000000000000000000 ) ) ;
#351 = AXIS2_PLACEMENT_3D ( 'NONE', #540, #439, #803 ) ;
#352 = ADVANCED_FACE ( 'NONE', ( #200 ), #462, .F. ) ;
#353 = AXIS2_PLACEMENT_3D ( 'NONE', #668, #588, #484 ) ;
#354 = CARTESIAN_POINT ( 'NONE',  ( 500.0000000000000000, 24.14539293529927733, -2.250000000000085265 ) ) ;
#355 = VERTEX_POINT ( 'NONE', #10 ) ;
#356 = AXIS2_PLACEMENT_3D ( 'NONE', #963, #219, #1148 ) ;
#357 = CARTESIAN_POINT ( 'NONE',  ( 474.0000000000000000, 0.000000000000000000, -8.707238741937680393E-14 ) ) ;
#358 = ORIENTED_EDGE ( 'NONE', *, *, #1150, .F. ) ;
#359 = CARTESIAN_POINT ( 'NONE',  ( 474.0000000000000000, -2.250000000000000000, -22.63846284534362496 ) ) ;
#360 = EDGE_CURVE ( 'NONE', #458, #1042, #907, .T. ) ;
#361 = ORIENTED_EDGE ( 'NONE', *, *, #483, .T. ) ;
#362 = DIRECTION ( 'NONE',  ( 0.000000000000000000, 0.000000000000000000, -1.000000000000000000 ) ) ;
#363 = ORIENTED_EDGE ( 'NONE', *, *, #995, .F. ) ;
#364 = DIRECTION ( 'NONE',  ( 0.000000000000000000, 0.000000000000000000, -1.000000000000000000 ) ) ;
#365 = CARTESIAN_POINT ( 'NONE',  ( 429.3102796124128417, 0.000000000000000000, 27.49999999999982947 ) ) ;
#366 = ORIENTED_EDGE ( 'NONE', *, *, #995, .T. ) ;
#367 = EDGE_CURVE ( 'NONE', #1082, #550, #234, .T. ) ;
#368 = ORIENTED_EDGE ( 'NONE', *, *, #424, .T. ) ;
#369 = DIRECTION ( 'NONE',  ( 1.000000000000000000, -0.000000000000000000, -1.836970198721029688E-16 ) ) ;
#370 = AXIS2_PLACEMENT_3D ( 'NONE', #404, #202, #939 ) ;
#371 = DIRECTION ( 'NONE',  ( 1.000000000000000000, 0.000000000000000000, -1.836970198721029688E-16 ) ) ;
#372 = ORIENTED_EDGE ( 'NONE', *, *, #212, .F. ) ;
#373 = DIRECTION ( 'NONE',  ( 1.000000000000000000, -0.000000000000000000, -1.836970198721029688E-16 ) ) ;
#374 = AXIS2_PLACEMENT_3D ( 'NONE', #1057, #414, #780 ) ;
#375 = ADVANCED_BREP_SHAPE_REPRESENTATION ( '79-8461 - 45mm x 1000mm', ( #584, #1184 ), #17 ) ;
#376 = ORIENTED_EDGE ( 'NONE', *, *, #704, .F. ) ;
#377 = AXIS2_PLACEMENT_3D ( 'NONE', #881, #1091, #1154 ) ;
#378 = DIRECTION ( 'NONE',  ( 0.000000000000000000, 0.000000000000000000, -1.000000000000000000 ) ) ;
#379 = ADVANCED_FACE ( 'NONE', ( #89 ), #196, .F. ) ;
#380 = CIRCLE ( 'NONE', #396, 22.80153689607045209 ) ;
#381 = PLANE ( 'NONE',  #214 ) ;
#382 = DIRECTION ( 'NONE',  ( 1.836970198721015389E-16, 0.000000000000000000, 1.000000000000000000 ) ) ;
#383 = CARTESIAN_POINT ( 'NONE',  ( 474.0000000000000000, 0.000000000000000000, -8.707238741937680393E-14 ) ) ;
#384 = DIRECTION ( 'NONE',  ( 1.836970198721029688E-16, 0.000000000000000000, 1.000000000000000000 ) ) ;
#385 = ORIENTED_EDGE ( 'NONE', *, *, #129, .T. ) ;
#386 = DIRECTION ( 'NONE',  ( -1.000000000000000000, -0.000000000000000000, 1.836970198721029688E-16 ) ) ;
#387 = ADVANCED_FACE ( 'NONE', ( #822 ), #837, .T. ) ;
#388 = CARTESIAN_POINT ( 'NONE',  ( 431.5334105440296639, 0.000000000000000000, -21.39199796489174332 ) ) ;
#389 = DIRECTION ( 'NONE',  ( 1.000000000000000000, 0.000000000000000000, -1.836970198721015389E-16 ) ) ;
#390 = AXIS2_PLACEMENT_3D ( 'NONE', #191, #1004, #653 ) ;
#391 = LINE ( 'NONE', #956, #15 ) ;
#392 = AXIS2_PLACEMENT_3D ( 'NONE', #283, #1001, #177 ) ;
#393 = DIRECTION ( 'NONE',  ( 0.9396926207859103153, 4.188538737676927054E-17, 0.3420201433256632173 ) ) ;
#394 = AXIS2_PLACEMENT_3D ( 'NONE', #684, #755, #1053 ) ;
#395 = CIRCLE ( 'NONE', #313, 24.25000000000000355 ) ;
#396 = AXIS2_PLACEMENT_3D ( 'NONE', #764, #134, #293 ) ;
#397 = EDGE_CURVE ( 'NONE', #715, #78, #577, .T. ) ;
#398 = CARTESIAN_POINT ( 'NONE',  ( 474.0000000000000000, 24.25000000000000355, -2.250000000000080380 ) ) ;
#399 = DIRECTION ( 'NONE',  ( 1.000000000000000000, 0.000000000000000000, -1.836970198721029688E-16 ) ) ;
#400 = CARTESIAN_POINT ( 'NONE',  ( 435.0000000000000000, 0.000000000000000000, -24.25000000000008527 ) ) ;
#401 = ORIENTED_EDGE ( 'NONE', *, *, #947, .F. ) ;
#402 = CARTESIAN_POINT ( 'NONE',  ( 500.0000000000000000, 0.000000000000000000, -1.836970198721029747E-13 ) ) ;
#403 = EDGE_CURVE ( 'NONE', #715, #174, #122, .T. ) ;
#404 = CARTESIAN_POINT ( 'NONE',  ( 474.0000000000000000, 0.000000000000000000, -8.707238741937680393E-14 ) ) ;
#405 = DIRECTION ( 'NONE',  ( 0.000000000000000000, 0.000000000000000000, 1.000000000000000000 ) ) ;
#406 = ORIENTED_EDGE ( 'NONE', *, *, #736, .T. ) ;
#407 = DIRECTION ( 'NONE',  ( 0.000000000000000000, 0.000000000000000000, 1.000000000000000000 ) ) ;
#408 = DIRECTION ( 'NONE',  ( 1.836970198721029934E-16, -0.000000000000000000, 1.000000000000000000 ) ) ;
#409 = AXIS2_PLACEMENT_3D ( 'NONE', #867, #960, #1151 ) ;
#410 = EDGE_CURVE ( 'NONE', #771, #9, #574, .T. ) ;
#411 = APPLICATION_CONTEXT ( 'configuration controlled 3d designs of mechanical parts and assemblies' ) ;
#412 = CIRCLE ( 'NONE', #1015, 3.499999999999999556 ) ;
#413 = TOROIDAL_SURFACE ( 'NONE', #490, 19.25000000000004974, 5.000000000000000000 ) ;
#414 = DIRECTION ( 'NONE',  ( 1.000000000000000000, 0.000000000000000000, -1.836970198721029688E-16 ) ) ;
#415 = ORIENTED_EDGE ( 'NONE', *, *, #99, .F. ) ;
#416 = APPROVAL_ROLE ( '' ) ;
#417 = EDGE_CURVE ( 'NONE', #263, #691, #677, .T. ) ;
#418 = LINE ( 'NONE', #592, #31 ) ;
#419 = ORIENTED_EDGE ( 'NONE', *, *, #505, .F. ) ;
#420 = SHAPE_DEFINITION_REPRESENTATION ( #1187, #375 ) ;
#421 = EDGE_LOOP ( 'NONE', ( #971, #599, #88, #618 ) ) ;
#422 = DIRECTION ( 'NONE',  ( -1.000000000000000000, -0.000000000000000000, 1.836970198721029688E-16 ) ) ;
#423 = CARTESIAN_POINT ( 'NONE',  ( 431.0203803290411884, 0.000000000000000000, -22.80153689607062262 ) ) ;
#424 = EDGE_CURVE ( 'NONE', #715, #799, #1036, .T. ) ;
#425 = VERTEX_POINT ( 'NONE', #388 ) ;
#426 = AXIS2_PLACEMENT_3D ( 'NONE', #357, #95, #384 ) ;
#427 = COORDINATED_UNIVERSAL_TIME_OFFSET ( 1, 0, .AHEAD. ) ;
#428 = ORIENTED_EDGE ( 'NONE', *, *, #286, .T. ) ;
#429 = CARTESIAN_POINT ( 'NONE',  ( -500.0000000000000000, 0.000000000000000000, 0.000000000000000000 ) ) ;
#430 = CIRCLE ( 'NONE', #374, 22.75000000000000355 ) ;
#431 = DIRECTION ( 'NONE',  ( 1.836970198721029934E-16, -0.000000000000000000, 1.000000000000000000 ) ) ;
#432 = CC_DESIGN_APPROVAL ( #304, ( #972 ) ) ;
#433 = ORIENTED_EDGE ( 'NONE', *, *, #970, .F. ) ;
#434 = CC_DESIGN_PERSON_AND_ORGANIZATION_ASSIGNMENT ( #982, #73, ( #682 ) ) ;
#435 = PERSON_AND_ORGANIZATION ( #312, #473 ) ;
#436 = ORIENTED_EDGE ( 'NONE', *, *, #129, .F. ) ;
#437 = DIRECTION ( 'NONE',  ( -1.000000000000000000, -0.000000000000000000, 1.836970198721029688E-16 ) ) ;
#438 = CARTESIAN_POINT ( 'NONE',  ( -500.0000000000000000, 0.000000000000000000, 0.000000000000000000 ) ) ;
#439 = DIRECTION ( 'NONE',  ( 1.000000000000000000, 0.000000000000000000, -1.836970198721029688E-16 ) ) ;
#440 = CARTESIAN_POINT ( 'NONE',  ( 0.000000000000000000, 0.000000000000000000, 0.000000000000000000 ) ) ;
#441 = ORIENTED_EDGE ( 'NONE', *, *, #64, .T. ) ;
#442 = CARTESIAN_POINT ( 'NONE',  ( 474.0000000000000000, 24.25000000000000355, 2.249999999999919176 ) ) ;
#443 = CARTESIAN_POINT ( 'NONE',  ( 429.3102796124128417, 0.000000000000000000, -1.707115289013109842E-13 ) ) ;
#444 = ORIENTED_EDGE ( 'NONE', *, *, #1012, .T. ) ;
#445 = AXIS2_PLACEMENT_3D ( 'NONE', #957, #762, #852 ) ;
#446 = ORIENTED_EDGE ( 'NONE', *, *, #249, .F. ) ;
#447 = DIRECTION ( 'NONE',  ( 0.000000000000000000, 0.000000000000000000, -1.000000000000000000 ) ) ;
#448 = EDGE_CURVE ( 'NONE', #1077, #534, #236, .T. ) ;
#449 = CIRCLE ( 'NONE', #738, 22.50000000000000000 ) ;
#450 = TOROIDAL_SURFACE ( 'NONE', #489, 27.50000000000000000, 6.500000000000000888 ) ;
#451 = LOCAL_TIME ( 0, 3, 21.00000000000000000, #348 ) ;
#452 = VERTEX_POINT ( 'NONE', #301 ) ;
#453 = CARTESIAN_POINT ( 'NONE',  ( 435.8816349035434428, 0.000000000000000000, -24.25000000000008527 ) ) ;
#454 = APPROVAL ( #804, 'UNSPECIFIED' ) ;
#455 = CARTESIAN_POINT ( 'NONE',  ( 500.0000000000000000, 0.000000000000000000, -9.184850993605148733E-14 ) ) ;
#456 = ORIENTED_EDGE ( 'NONE', *, *, #970, .T. ) ;
#457 = DIRECTION ( 'NONE',  ( -1.000000000000000000, 0.000000000000000000, 1.836970198721029688E-16 ) ) ;
#458 = VERTEX_POINT ( 'NONE', #940 ) ;
#459 = CARTESIAN_POINT ( 'NONE',  ( 435.8816349035434428, 0.000000000000000000, -1.259944123167866877E-13 ) ) ;
#460 = ORIENTED_EDGE ( 'NONE', *, *, #120, .T. ) ;
#461 = ADVANCED_FACE ( 'NONE', ( #292 ), #216, .T. ) ;
#462 = PLANE ( 'NONE',  #331 ) ;
#463 = ORIENTED_EDGE ( 'NONE', *, *, #675, .F. ) ;
#464 = CARTESIAN_POINT ( 'NONE',  ( -500.0000000000000000, 0.000000000000000000, -22.50000000000000000 ) ) ;
#465 = FACE_OUTER_BOUND ( 'NONE', #949, .T. ) ;
#466 = DIRECTION ( 'NONE',  ( 1.836970198721029688E-16, 0.000000000000000000, 1.000000000000000000 ) ) ;
#467 = VECTOR ( 'NONE', #114, 1000.000000000000000 ) ;
#468 = DIRECTION ( 'NONE',  ( 0.000000000000000000, -0.000000000000000000, 1.000000000000000000 ) ) ;
#469 = CIRCLE ( 'NONE', #48, 24.25000000000000355 ) ;
#470 = EDGE_LOOP ( 'NONE', ( #60, #1182, #593, #481 ) ) ;
#471 = EDGE_CURVE ( 'NONE', #102, #883, #24, .T. ) ;
#472 = APPROVAL_PERSON_ORGANIZATION ( #523, #768, #416 ) ;
#473 = ORGANIZATION ( 'UNSPECIFIED', 'UNSPECIFIED', '' ) ;
#474 = LINE ( 'NONE', #5, #658 ) ;
#475 = DIRECTION ( 'NONE',  ( 0.000000000000000000, 0.000000000000000000, 1.000000000000000000 ) ) ;
#476 = LINE ( 'NONE', #132, #1014 ) ;
#477 = FACE_OUTER_BOUND ( 'NONE', #775, .T. ) ;
#478 = FACE_OUTER_BOUND ( 'NONE', #162, .T. ) ;
#479 = CARTESIAN_POINT ( 'NONE',  ( 435.8816349035434428, 2.969768487932332470E-15, 24.24999999999992539 ) ) ;
#480 = CARTESIAN_POINT ( 'NONE',  ( 474.0000000000000000, 0.000000000000000000, -8.707238741937679131E-14 ) ) ;
#481 = ORIENTED_EDGE ( 'NONE', *, *, #207, .F. ) ;
#482 = CIRCLE ( 'NONE', #445, 22.53892417275076809 ) ;
#483 = EDGE_CURVE ( 'NONE', #275, #891, #507, .T. ) ;
#484 = DIRECTION ( 'NONE',  ( 0.000000000000000000, 0.000000000000000000, -1.000000000000000000 ) ) ;
#485 = VECTOR ( 'NONE', #729, 1000.000000000000000 ) ;
#486 = CARTESIAN_POINT ( 'NONE',  ( 430.7049447309436800, 2.582836564047366646E-15, 21.09046106882096439 ) ) ;
#487 = AXIS2_PLACEMENT_3D ( 'NONE', #1080, #153, #250 ) ;
#488 = ORIENTED_EDGE ( 'NONE', *, *, #683, .T. ) ;
#489 = AXIS2_PLACEMENT_3D ( 'NONE', #833, #18, #382 ) ;
#490 = AXIS2_PLACEMENT_3D ( 'NONE', #1072, #638, #964 ) ;
#491 = EDGE_CURVE ( 'NONE', #263, #534, #770, .T. ) ;
#492 = VERTEX_POINT ( 'NONE', #748 ) ;
#493 = DIRECTION ( 'NONE',  ( 0.000000000000000000, 0.000000000000000000, -1.000000000000000000 ) ) ;
#494 = EDGE_CURVE ( 'NONE', #1095, #341, #476, .T. ) ;
#495 = DIRECTION ( 'NONE',  ( 1.000000000000000000, 0.000000000000000000, -1.836970198721029688E-16 ) ) ;
#496 = DIRECTION ( 'NONE',  ( 0.000000000000000000, -7.993605777301127091E-15, 1.000000000000000000 ) ) ;
#497 = ORIENTED_EDGE ( 'NONE', *, *, #360, .F. ) ;
#498 = DIRECTION ( 'NONE',  ( 1.000000000000000000, 0.000000000000000000, -1.836970198721029688E-16 ) ) ;
#499 = EDGE_CURVE ( 'NONE', #61, #735, #391, .T. ) ;
#500 = ORIENTED_EDGE ( 'NONE', *, *, #165, .T. ) ;
#501 = CARTESIAN_POINT ( 'NONE',  ( 430.1919145159552045, 2.755455298081544778E-15, 22.49999999999982947 ) ) ;
#502 = ORIENTED_EDGE ( 'NONE', *, *, #290, .F. ) ;
#503 = AXIS2_PLACEMENT_3D ( 'NONE', #569, #1032, #364 ) ;
#504 = APPLICATION_PROTOCOL_DEFINITION ( 'international standard', 'config_control_design', 1994, #411 ) ;
#505 = EDGE_CURVE ( 'NONE', #700, #651, #579, .T. ) ;
#506 = ORIENTED_EDGE ( 'NONE', *, *, #45, .F. ) ;
#507 = CIRCLE ( 'NONE', #1047, 22.75000000000000355 ) ;
#508 = CIRCLE ( 'NONE', #377, 21.39199796489157279 ) ;
#509 = CIRCLE ( 'NONE', #853, 20.99999999999999645 ) ;
#510 = DIRECTION ( 'NONE',  ( 1.000000000000000000, -0.000000000000000000, -1.836970198721029688E-16 ) ) ;
#511 = ORIENTED_EDGE ( 'NONE', *, *, #922, .F. ) ;
#512 = CALENDAR_DATE ( 2026, 16, 9 ) ;
#513 = ORIENTED_EDGE ( 'NONE', *, *, #338, .T. ) ;
#514 = DIRECTION ( 'NONE',  ( 1.000000000000000000, 0.000000000000000000, -1.836970198721000845E-16 ) ) ;
#515 = DIRECTION ( 'NONE',  ( 1.000000000000000000, 0.000000000000000000, -1.836970198721029688E-16 ) ) ;
#516 = VERTEX_POINT ( 'NONE', #117 ) ;
#517 = ORIENTED_EDGE ( 'NONE', *, *, #753, .T. ) ;
#518 = DIRECTION ( 'NONE',  ( -1.836970198721029688E-16, 0.000000000000000000, -1.000000000000000000 ) ) ;
#519 = EDGE_CURVE ( 'NONE', #96, #1095, #892, .T. ) ;
#520 = CARTESIAN_POINT ( 'NONE',  ( 474.0000000000000000, -24.14539293529927377, 2.249999999999919176 ) ) ;
#521 = ORIENTED_EDGE ( 'NONE', *, *, #736, .F. ) ;
#522 = CIRCLE ( 'NONE', #7, 23.94846310392965094 ) ;
#523 = PERSON_AND_ORGANIZATION ( #312, #473 ) ;
#524 = ORIENTED_EDGE ( 'NONE', *, *, #367, .T. ) ;
#525 = CARTESIAN_POINT ( 'NONE',  ( 430.7049447309436800, 0.000000000000000000, -1.709677247273046709E-13 ) ) ;
#526 = CIRCLE ( 'NONE', #166, 22.75000000000000355 ) ;
#527 = CARTESIAN_POINT ( 'NONE',  ( 429.3102796124128417, 2.571758278209441267E-15, 20.99999999999982947 ) ) ;
#528 = VECTOR ( 'NONE', #679, 1000.000000000000000 ) ;
#529 = ORIENTED_EDGE ( 'NONE', *, *, #471, .F. ) ;
#530 = APPROVAL_STATUS ( 'not_yet_approved' ) ;
#531 = ORIENTED_EDGE ( 'NONE', *, *, #704, .T. ) ;
#532 = CARTESIAN_POINT ( 'NONE',  ( 435.8816349035434428, 0.000000000000000000, -8.007015734876094399E-14 ) ) ;
#533 = FACE_OUTER_BOUND ( 'NONE', #879, .T. ) ;
#534 = VERTEX_POINT ( 'NONE', #38 ) ;
#535 = ORIENTED_EDGE ( 'NONE', *, *, #397, .T. ) ;
#536 = ADVANCED_FACE ( 'NONE', ( #478 ), #843, .T. ) ;
#537 = FACE_OUTER_BOUND ( 'NONE', #421, .T. ) ;
#538 = PRODUCT ( '79-8461 - 45mm x 1000mm', '79-8461 - 45mm x 1000mm', '', ( #329 ) ) ;
#539 = DIRECTION ( 'NONE',  ( -0.000000000000000000, -1.000000000000000000, -0.000000000000000000 ) ) ;
#540 = CARTESIAN_POINT ( 'NONE',  ( 435.0000000000000000, 0.000000000000000000, -7.990820364436478514E-14 ) ) ;
#541 = EDGE_LOOP ( 'NONE', ( #781, #366, #270, #11, #1069, #826 ) ) ;
#542 = ADVANCED_FACE ( 'NONE', ( #314 ), #294, .T. ) ;
#543 = CLOSED_SHELL ( 'NONE', ( #116, #779, #271, #576, #1003, #22, #1056, #930, #12, #553, #1046, #137, #875, #536, #461, #278, #842, #544, #542, #586, #67, #187, #889, #199, #1041, #806, #324, #255, #387, #1164, #352, #379, #221, #625, #827, #785, #33 ) ) ;
#544 = ADVANCED_FACE ( 'NONE', ( #1130, #1038 ), #974, .F. ) ;
#545 = AXIS2_PLACEMENT_3D ( 'NONE', #306, #1030, #136 ) ;
#546 = AXIS2_PLACEMENT_3D ( 'NONE', #438, #796, #888 ) ;
#547 = AXIS2_PLACEMENT_3D ( 'NONE', #248, #783, #894 ) ;
#548 = ORIENTED_EDGE ( 'NONE', *, *, #573, .F. ) ;
#549 = DIRECTION ( 'NONE',  ( -0.000000000000000000, 1.000000000000000000, 0.000000000000000000 ) ) ;
#550 = VERTEX_POINT ( 'NONE', #65 ) ;
#551 = CARTESIAN_POINT ( 'NONE',  ( -500.0000000000000000, 0.000000000000000000, 0.000000000000000000 ) ) ;
#552 = FACE_OUTER_BOUND ( 'NONE', #4, .T. ) ;
#553 = ADVANCED_FACE ( 'NONE', ( #325 ), #1155, .T. ) ;
#554 = CARTESIAN_POINT ( 'NONE',  ( 500.0000000000000000, 2.250000000000000000, -24.25000000000009592 ) ) ;
#555 = ORIENTED_EDGE ( 'NONE', *, *, #328, .T. ) ;
#556 = CARTESIAN_POINT ( 'NONE',  ( 435.0000000000000000, 2.249999999999999112, -22.63846284534361786 ) ) ;
#557 = ORIENTED_EDGE ( 'NONE', *, *, #1143, .F. ) ;
#558 = DIRECTION ( 'NONE',  ( 0.9396926207859102043, 0.000000000000000000, -0.3420201433256635504 ) ) ;
#559 = LINE ( 'NONE', #107, #718 ) ;
#560 = EDGE_CURVE ( 'NONE', #1131, #516, #449, .T. ) ;
#561 = FACE_OUTER_BOUND ( 'NONE', #759, .T. ) ;
#562 = DIRECTION ( 'NONE',  ( 1.836970198721029688E-16, 0.000000000000000000, 1.000000000000000000 ) ) ;
#563 = ORIENTED_EDGE ( 'NONE', *, *, #839, .F. ) ;
#564 = DIRECTION ( 'NONE',  ( 1.836970198721029688E-16, 0.000000000000000000, 1.000000000000000000 ) ) ;
#565 = TOROIDAL_SURFACE ( 'NONE', #866, 19.25000000000004974, 5.000000000000000000 ) ;
#566 = CARTESIAN_POINT ( 'NONE',  ( 474.0000000000000000, 0.000000000000000000, -8.707238741937679131E-14 ) ) ;
#567 = AXIS2_PLACEMENT_3D ( 'NONE', #443, #181, #630 ) ;
#568 = AXIS2_PLACEMENT_3D ( 'NONE', #830, #13, #378 ) ;
#569 = CARTESIAN_POINT ( 'NONE',  ( 500.0000000000000000, 0.000000000000000000, -9.184850993605148733E-14 ) ) ;
#570 = DIRECTION ( 'NONE',  ( 1.000000000000000000, 0.000000000000000000, -1.836970198721029688E-16 ) ) ;
#571 = CARTESIAN_POINT ( 'NONE',  ( -500.0000000000000000, 0.000000000000000000, 0.000000000000000000 ) ) ;
#572 = LINE ( 'NONE', #486, #895 ) ;
#573 = EDGE_CURVE ( 'NONE', #790, #160, #164, .T. ) ;
#574 = LINE ( 'NONE', #761, #467 ) ;
#575 = DIRECTION ( 'NONE',  ( 0.000000000000000000, 0.000000000000000000, -1.000000000000000000 ) ) ;
#576 = ADVANCED_FACE ( 'NONE', ( #876 ), #786, .F. ) ;
#577 = CIRCLE ( 'NONE', #1064, 24.25000000000000355 ) ;
#578 = ORIENTED_EDGE ( 'NONE', *, *, #1052, .F. ) ;
#579 = LINE ( 'NONE', #841, #659 ) ;
#580 = CARTESIAN_POINT ( 'NONE',  ( 431.0203803290411884, 0.000000000000000000, -1.710256693066367419E-13 ) ) ;
#581 = LINE ( 'NONE', #400, #992 ) ;
#582 = AXIS2_PLACEMENT_3D ( 'NONE', #1048, #1133, #493 ) ;
#583 = AXIS2_PLACEMENT_3D ( 'NONE', #721, #1092, #267 ) ;
#584 = MANIFOLD_SOLID_BREP ( 'Cut-Extrude-Thin1', #543 ) ;
#585 = CONICAL_SURFACE ( 'NONE', #50, 22.50000000000000000, 0.3490658503988602890 ) ;
#586 = ADVANCED_FACE ( 'NONE', ( #802 ), #110, .F. ) ;
#587 = FACE_OUTER_BOUND ( 'NONE', #253, .T. ) ;
#588 = DIRECTION ( 'NONE',  ( 0.000000000000000000, -1.000000000000000000, 0.000000000000000000 ) ) ;
#589 = DIRECTION ( 'NONE',  ( 1.836970198721015389E-16, 0.000000000000000000, 1.000000000000000000 ) ) ;
#590 = LINE ( 'NONE', #958, #1071 ) ;
#591 = EDGE_CURVE ( 'NONE', #492, #96, #986, .T. ) ;
#592 = CARTESIAN_POINT ( 'NONE',  ( -500.0000000000000000, 2.571758278209441267E-15, 20.99999999999999645 ) ) ;
#593 = ORIENTED_EDGE ( 'NONE', *, *, #290, .T. ) ;
#594 = DIRECTION ( 'NONE',  ( 1.000000000000000000, -0.000000000000000000, -1.836970198721029688E-16 ) ) ;
#595 = ORIENTED_EDGE ( 'NONE', *, *, #494, .T. ) ;
#596 = CARTESIAN_POINT ( 'NONE',  ( -500.0000000000000000, 0.000000000000000000, 0.000000000000000000 ) ) ;
#597 = VECTOR ( 'NONE', #564, 1000.000000000000000 ) ;
#598 = DIRECTION ( 'NONE',  ( 2.249639673992768896E-32, 1.000000000000000000, 1.224646799147353207E-16 ) ) ;
#599 = ORIENTED_EDGE ( 'NONE', *, *, #1134, .T. ) ;
#600 = PERSON_AND_ORGANIZATION ( #312, #473 ) ;
#601 = AXIS2_PLACEMENT_3D ( 'NONE', #737, #179, #104 ) ;
#602 = ORIENTED_EDGE ( 'NONE', *, *, #1070, .T. ) ;
#603 = VECTOR ( 'NONE', #422, 1000.000000000000000 ) ;
#604 = LINE ( 'NONE', #973, #603 ) ;
#605 = LOCAL_TIME ( 0, 3, 21.00000000000000000, #968 ) ;
#606 = DIRECTION ( 'NONE',  ( 1.000000000000000000, 0.000000000000000000, -1.836970198721029688E-16 ) ) ;
#607 = ORIENTED_EDGE ( 'NONE', *, *, #820, .F. ) ;
#608 = VERTEX_POINT ( 'NONE', #527 ) ;
#609 = EDGE_CURVE ( 'NONE', #685, #651, #868, .T. ) ;
#610 = DIRECTION ( 'NONE',  ( 1.000000000000000000, 0.000000000000000000, -1.836970198721029688E-16 ) ) ;
#611 = DIRECTION ( 'NONE',  ( 0.000000000000000000, 0.000000000000000000, 1.000000000000000000 ) ) ;
#612 = ORIENTED_EDGE ( 'NONE', *, *, #1021, .F. ) ;
#613 = DATE_AND_TIME ( #512, #952 ) ;
#614 = ORIENTED_EDGE ( 'NONE', *, *, #560, .T. ) ;
#615 = CC_DESIGN_DATE_AND_TIME_ASSIGNMENT ( #231, #321, ( #669 ) ) ;
#616 = DIRECTION ( 'NONE',  ( 1.000000000000000000, 0.000000000000000000, -1.836970198721029688E-16 ) ) ;
#617 = DIRECTION ( 'NONE',  ( -1.000000000000000000, -0.000000000000000000, 1.836970198721015389E-16 ) ) ;
#618 = ORIENTED_EDGE ( 'NONE', *, *, #719, .F. ) ;
#619 = AXIS2_PLACEMENT_3D ( 'NONE', #551, #743, #447 ) ;
#620 = APPROVAL_DATE_TIME ( #613, #454 ) ;
#621 = VERTEX_POINT ( 'NONE', #423 ) ;
#622 = FACE_OUTER_BOUND ( 'NONE', #838, .T. ) ;
#623 = AXIS2_PLACEMENT_3D ( 'NONE', #1051, #670, #767 ) ;
#624 = CARTESIAN_POINT ( 'NONE',  ( 435.0000000000000000, 0.000000000000000000, -22.75000000000008171 ) ) ;
#625 = ADVANCED_FACE ( 'NONE', ( #53 ), #346, .T. ) ;
#626 = ORIENTED_EDGE ( 'NONE', *, *, #505, .T. ) ;
#627 = APPLICATION_PROTOCOL_DEFINITION ( 'international standard', 'config_control_design', 1994, #85 ) ;
#628 = ORIENTED_EDGE ( 'NONE', *, *, #915, .F. ) ;
#629 = DIRECTION ( 'NONE',  ( -1.000000000000000000, -0.000000000000000000, 1.836970198721029688E-16 ) ) ;
#630 = DIRECTION ( 'NONE',  ( 0.000000000000000000, 0.000000000000000000, 1.000000000000000000 ) ) ;
#631 = VERTEX_POINT ( 'NONE', #1169 ) ;
#632 = EDGE_CURVE ( 'NONE', #1082, #608, #418, .T. ) ;
#633 = DIRECTION ( 'NONE',  ( -1.000000000000000000, -0.000000000000000000, 1.836970198721000845E-16 ) ) ;
#634 = ORIENTED_EDGE ( 'NONE', *, *, #719, .T. ) ;
#635 = FACE_OUTER_BOUND ( 'NONE', #693, .T. ) ;
#636 = FACE_OUTER_BOUND ( 'NONE', #1190, .T. ) ;
#637 = ORIENTED_EDGE ( 'NONE', *, *, #660, .T. ) ;
#638 = DIRECTION ( 'NONE',  ( -1.000000000000000000, -0.000000000000000000, 1.836970198721015389E-16 ) ) ;
#639 = DIRECTION ( 'NONE',  ( -1.000000000000000000, -0.000000000000000000, 1.836970198721000845E-16 ) ) ;
#640 = VECTOR ( 'NONE', #217, 1000.000000000000000 ) ;
#641 = EDGE_LOOP ( 'NONE', ( #674, #1175, #322, #1163 ) ) ;
#642 = EDGE_CURVE ( 'NONE', #1170, #425, #696, .T. ) ;
#643 = CARTESIAN_POINT ( 'NONE',  ( -500.0000000000000000, 0.000000000000000000, -20.99999999999999645 ) ) ;
#644 = DIRECTION ( 'NONE',  ( 1.000000000000000000, 0.000000000000000000, -1.836970198721029688E-16 ) ) ;
#645 = EDGE_LOOP ( 'NONE', ( #1174, #975, #614, #109 ) ) ;
#646 = LOCAL_TIME ( 0, 3, 21.00000000000000000, #427 ) ;
#647 = LINE ( 'NONE', #556, #485 ) ;
#648 = ORIENTED_EDGE ( 'NONE', *, *, #45, .T. ) ;
#649 = LINE ( 'NONE', #1116, #597 ) ;
#650 = EDGE_CURVE ( 'NONE', #37, #516, #334, .T. ) ;
#651 = VERTEX_POINT ( 'NONE', #140 ) ;
#652 = ORIENTED_EDGE ( 'NONE', *, *, #151, .T. ) ;
#653 = DIRECTION ( 'NONE',  ( 0.000000000000000000, 0.000000000000000000, 1.000000000000000000 ) ) ;
#654 = EDGE_CURVE ( 'NONE', #317, #1094, #430, .T. ) ;
#655 = ORIENTED_EDGE ( 'NONE', *, *, #1109, .T. ) ;
#656 = DIRECTION ( 'NONE',  ( 1.000000000000000000, 0.000000000000000000, -1.836970198721015389E-16 ) ) ;
#657 = CARTESIAN_POINT ( 'NONE',  ( 500.0000000000000000, 22.63846284534354325, 2.249999999999914291 ) ) ;
#658 = VECTOR ( 'NONE', #289, 1000.000000000000000 ) ;
#659 = VECTOR ( 'NONE', #206, 1000.000000000000000 ) ;
#660 = EDGE_CURVE ( 'NONE', #790, #189, #526, .T. ) ;
#661 = DIRECTION ( 'NONE',  ( 0.000000000000000000, 0.000000000000000000, 1.000000000000000000 ) ) ;
#662 = CIRCLE ( 'NONE', #1034, 20.99999999999999645 ) ;
#663 = DIRECTION ( 'NONE',  ( 1.000000000000000000, 0.000000000000000000, -1.836970198721000845E-16 ) ) ;
#664 = APPROVAL_PERSON_ORGANIZATION ( #342, #304, #1165 ) ;
#665 = DIRECTION ( 'NONE',  ( 0.000000000000000000, 0.000000000000000000, -1.000000000000000000 ) ) ;
#666 = FACE_OUTER_BOUND ( 'NONE', #745, .T. ) ;
#667 = UNCERTAINTY_MEASURE_WITH_UNIT (LENGTH_MEASURE( 1.000000000000000082E-05 ), #944, 'distance_accuracy_value', 'NONE');
#668 = CARTESIAN_POINT ( 'NONE',  ( 435.8816349035434428, 0.000000000000000000, 19.24999999999992184 ) ) ;
#669 = PRODUCT_DEFINITION ( 'UNKNOWN', '', #972, #105 ) ;
#670 = DIRECTION ( 'NONE',  ( 1.000000000000000000, -0.000000000000000000, -1.836970198721029688E-16 ) ) ;
#671 = ORIENTED_EDGE ( 'NONE', *, *, #609, .T. ) ;
#672 = DIRECTION ( 'NONE',  ( 1.000000000000000000, -0.000000000000000000, -1.836970198721029688E-16 ) ) ;
#673 = CARTESIAN_POINT ( 'NONE',  ( 430.1919145159552045, 0.000000000000000000, -22.50000000000017053 ) ) ;
#674 = ORIENTED_EDGE ( 'NONE', *, *, #642, .F. ) ;
#675 = EDGE_CURVE ( 'NONE', #355, #534, #238, .T. ) ;
#676 = CONICAL_SURFACE ( 'NONE', #273, 21.09046106882113492, 0.3490658503988602890 ) ;
#677 = LINE ( 'NONE', #43, #310 ) ;
#678 = FACE_OUTER_BOUND ( 'NONE', #1101, .T. ) ;
#679 = DIRECTION ( 'NONE',  ( 1.000000000000000000, 0.000000000000000000, -1.836970198721029688E-16 ) ) ;
#680 = VECTOR ( 'NONE', #896, 1000.000000000000000 ) ;
#681 = ORIENTED_EDGE ( 'NONE', *, *, #499, .F. ) ;
#682 = SECURITY_CLASSIFICATION ( '', '', #1068 ) ;
#683 = EDGE_CURVE ( 'NONE', #1094, #458, #412, .T. ) ;
#684 = CARTESIAN_POINT ( 'NONE',  ( 430.1919145159552045, 0.000000000000000000, -1.708734826057069411E-13 ) ) ;
#685 = VERTEX_POINT ( 'NONE', #520 ) ;
#686 = CARTESIAN_POINT ( 'NONE',  ( 435.8816349035434428, 0.000000000000000000, -8.007015734876094399E-14 ) ) ;
#687 = DIRECTION ( 'NONE',  ( 0.000000000000000000, -1.224646799147353700E-16, 1.000000000000000000 ) ) ;
#688 = EDGE_CURVE ( 'NONE', #78, #492, #706, .T. ) ;
#689 = ORIENTED_EDGE ( 'NONE', *, *, #403, .F. ) ;
#690 = PERSON_AND_ORGANIZATION ( #312, #473 ) ;
#691 = VERTEX_POINT ( 'NONE', #1006 ) ;
#692 = DIRECTION ( 'NONE',  ( 0.000000000000000000, 1.421085471520200372E-14, 1.000000000000000000 ) ) ;
#693 = EDGE_LOOP ( 'NONE', ( #987, #349, #981, #277 ) ) ;
#694 = EDGE_CURVE ( 'NONE', #516, #1131, #990, .T. ) ;
#695 = EDGE_LOOP ( 'NONE', ( #94, #20, #2, #433, #521, #245, #176, #368, #309, #681, #197, #343 ) ) ;
#696 = CIRCLE ( 'NONE', #276, 6.499999999999999112 ) ;
#697 = CIRCLE ( 'NONE', #969, 24.25000000000000355 ) ;
#698 = DIRECTION ( 'NONE',  ( 1.000000000000000000, 0.000000000000000000, -1.836970198721029688E-16 ) ) ;
#699 = CARTESIAN_POINT ( 'NONE',  ( -500.0000000000000000, 0.000000000000000000, -22.50000000000000000 ) ) ;
#700 = VERTEX_POINT ( 'NONE', #1022 ) ;
#701 = PERSON_AND_ORGANIZATION_ROLE ( 'creator' ) ;
#702 = EDGE_CURVE ( 'NONE', #1094, #189, #171, .T. ) ;
#703 = ORIENTED_EDGE ( 'NONE', *, *, #58, .T. ) ;
#704 = EDGE_CURVE ( 'NONE', #700, #1156, #697, .T. ) ;
#705 = LINE ( 'NONE', #243, #204 ) ;
#706 = LINE ( 'NONE', #928, #311 ) ;
#707 = ORIENTED_EDGE ( 'NONE', *, *, #654, .T. ) ;
#708 = DATE_AND_TIME ( #1157, #147 ) ;
#709 = ORIENTED_EDGE ( 'NONE', *, *, #800, .F. ) ;
#710 = DIRECTION ( 'NONE',  ( 1.836970198721029688E-16, 0.000000000000000000, 1.000000000000000000 ) ) ;
#711 = EDGE_CURVE ( 'NONE', #1131, #355, #333, .T. ) ;
#712 = CARTESIAN_POINT ( 'NONE',  ( 474.0000000000000000, 24.25000000000000355, -2.250000000000080380 ) ) ;
#713 = EDGE_LOOP ( 'NONE', ( #456, #80, #401, #595 ) ) ;
#714 =( NAMED_UNIT ( * ) PLANE_ANGLE_UNIT ( ) SI_UNIT ( $, .RADIAN. ) );
#715 = VERTEX_POINT ( 'NONE', #1188 ) ;
#716 = CIRCLE ( 'NONE', #503, 24.25000000000000355 ) ;
#717 = CARTESIAN_POINT ( 'NONE',  ( 474.0000000000000000, 2.250000000000000000, -22.63846284534362496 ) ) ;
#718 = VECTOR ( 'NONE', #86, 1000.000000000000000 ) ;
#719 = EDGE_CURVE ( 'NONE', #735, #52, #188, .T. ) ;
#720 = CIRCLE ( 'NONE', #130, 22.50000000000000000 ) ;
#721 = CARTESIAN_POINT ( 'NONE',  ( 500.0000000000000000, 0.000000000000000000, -9.184850993605148733E-14 ) ) ;
#722 = ORIENTED_EDGE ( 'NONE', *, *, #151, .F. ) ;
#723 = CARTESIAN_POINT ( 'NONE',  ( 474.0000000000000000, -2.250000000000000000, -24.25000000000009237 ) ) ;
#724 = ORIENTED_EDGE ( 'NONE', *, *, #711, .T. ) ;
#725 = DIRECTION ( 'NONE',  ( -1.000000000000000000, -0.000000000000000000, 1.836970198721015389E-16 ) ) ;
#726 = CARTESIAN_POINT ( 'NONE',  ( 474.0000000000000000, 0.000000000000000000, -8.707238741937679131E-14 ) ) ;
#727 = DIRECTION ( 'NONE',  ( 1.000000000000000000, 0.000000000000000000, -1.836970198721029688E-16 ) ) ;
#728 = ORIENTED_EDGE ( 'NONE', *, *, #573, .T. ) ;
#729 = DIRECTION ( 'NONE',  ( 1.000000000000000000, 0.000000000000000000, -1.836970198721029688E-16 ) ) ;
#730 = EDGE_LOOP ( 'NONE', ( #220, #500, #428, #529 ) ) ;
#731 = CARTESIAN_POINT ( 'NONE',  ( 434.6845644019035717, 2.760222134438413199E-15, 22.53892417275059756 ) ) ;
#732 = CARTESIAN_POINT ( 'NONE',  ( 430.7049447309436800, 0.000000000000000000, -21.09046106882130545 ) ) ;
#733 = ORIENTED_EDGE ( 'NONE', *, *, #410, .T. ) ;
#734 = CIRCLE ( 'NONE', #121, 22.80153689607045209 ) ;
#735 = VERTEX_POINT ( 'NONE', #98 ) ;
#736 = EDGE_CURVE ( 'NONE', #492, #341, #469, .T. ) ;
#737 = CARTESIAN_POINT ( 'NONE',  ( 435.8816349035434428, 0.000000000000000000, -1.259944123167866877E-13 ) ) ;
#738 = AXIS2_PLACEMENT_3D ( 'NONE', #965, #617, #611 ) ;
#739 = VECTOR ( 'NONE', #1079, 1000.000000000000000 ) ;
#740 = ORIENTED_EDGE ( 'NONE', *, *, #499, .T. ) ;
#741 = CARTESIAN_POINT ( 'NONE',  ( 434.6845644019035717, 0.000000000000000000, -1.716987690010843909E-13 ) ) ;
#742 = ORIENTED_EDGE ( 'NONE', *, *, #3, .T. ) ;
#743 = DIRECTION ( 'NONE',  ( 1.000000000000000000, 0.000000000000000000, -1.836970198721029688E-16 ) ) ;
#744 = DIRECTION ( 'NONE',  ( -1.000000000000000000, 0.000000000000000000, 1.836970198721029688E-16 ) ) ;
#745 = EDGE_LOOP ( 'NONE', ( #869, #66, #1002, #51 ) ) ;
#746 = CARTESIAN_POINT ( 'NONE',  ( 500.0000000000000000, 0.000000000000000000, -1.836970198721029747E-13 ) ) ;
#747 = EDGE_CURVE ( 'NONE', #336, #700, #8, .T. ) ;
#748 = CARTESIAN_POINT ( 'NONE',  ( 500.0000000000000000, 24.14539293529927377, 2.249999999999914291 ) ) ;
#749 = CARTESIAN_POINT ( 'NONE',  ( 430.7049447309436800, 0.000000000000000000, -1.709677247273046709E-13 ) ) ;
#750 = DIRECTION ( 'NONE',  ( 0.000000000000000000, 0.000000000000000000, 1.000000000000000000 ) ) ;
#751 = AXIS2_PLACEMENT_3D ( 'NONE', #35, #408, #302 ) ;
#752 = CIRCLE ( 'NONE', #390, 24.25000000000000355 ) ;
#753 = EDGE_CURVE ( 'NONE', #52, #1025, #834, .T. ) ;
#754 = VECTOR ( 'NONE', #570, 1000.000000000000000 ) ;
#755 = DIRECTION ( 'NONE',  ( 1.000000000000000000, 0.000000000000000000, -1.836970198721000845E-16 ) ) ;
#756 = VECTOR ( 'NONE', #539, 1000.000000000000000 ) ;
#757 = LINE ( 'NONE', #673, #1159 ) ;
#758 = DIRECTION ( 'NONE',  ( -1.000000000000000000, -0.000000000000000000, 1.836970198721029688E-16 ) ) ;
#759 = EDGE_LOOP ( 'NONE', ( #1146, #1088, #361, #232, #190, #154, #460, #612, #1172, #548, #637, #983 ) ) ;
#760 = CARTESIAN_POINT ( 'NONE',  ( 474.0000000000000000, 2.786071468060228959E-15, 22.74999999999991473 ) ) ;
#761 = CARTESIAN_POINT ( 'NONE',  ( 500.0000000000000000, 24.25000000000000355, 2.249999999999914291 ) ) ;
#762 = DIRECTION ( 'NONE',  ( -1.000000000000000000, -0.000000000000000000, 1.836970198721000845E-16 ) ) ;
#763 = EDGE_CURVE ( 'NONE', #1149, #685, #559, .T. ) ;
#764 = CARTESIAN_POINT ( 'NONE',  ( 431.0203803290411884, 0.000000000000000000, -1.710256693066367419E-13 ) ) ;
#765 = DIRECTION ( 'NONE',  ( 1.000000000000000000, 0.000000000000000000, -1.836970198721029688E-16 ) ) ;
#766 = CARTESIAN_POINT ( 'NONE',  ( -500.0000000000000000, 2.755455298081555033E-15, 22.50000000000000000 ) ) ;
#767 = DIRECTION ( 'NONE',  ( 0.000000000000000000, 0.000000000000000000, 1.000000000000000000 ) ) ;
#768 = APPROVAL ( #155, 'UNSPECIFIED' ) ;
#769 = CARTESIAN_POINT ( 'NONE',  ( 474.0000000000000000, -2.250000000000000000, -24.25000000000009237 ) ) ;
#770 = CIRCLE ( 'NONE', #353, 5.000000000000000888 ) ;
#771 = VERTEX_POINT ( 'NONE', #814 ) ;
#772 = DIRECTION ( 'NONE',  ( 0.000000000000000000, -1.000000000000000000, 0.000000000000000000 ) ) ;
#773 = VECTOR ( 'NONE', #437, 1000.000000000000000 ) ;
#774 = CARTESIAN_POINT ( 'NONE',  ( -500.0000000000000000, 0.000000000000000000, 0.000000000000000000 ) ) ;
#775 = EDGE_LOOP ( 'NONE', ( #1081, #602, #497, #506 ) ) ;
#776 = PERSON_AND_ORGANIZATION ( #312, #473 ) ;
#777 = DIRECTION ( 'NONE',  ( 1.000000000000000000, 0.000000000000000000, -1.836970198721029688E-16 ) ) ;
#778 = CARTESIAN_POINT ( 'NONE',  ( 474.0000000000000000, -2.250000000000000000, 22.63846284534345443 ) ) ;
#779 = ADVANCED_FACE ( 'NONE', ( #533 ), #450, .T. ) ;
#780 = DIRECTION ( 'NONE',  ( 0.000000000000000000, 0.000000000000000000, -1.000000000000000000 ) ) ;
#781 = ORIENTED_EDGE ( 'NONE', *, *, #193, .T. ) ;
#782 = ORIENTED_EDGE ( 'NONE', *, *, #519, .T. ) ;
#783 = DIRECTION ( 'NONE',  ( 1.000000000000000000, 0.000000000000000000, -1.836970198721029688E-16 ) ) ;
#784 = AXIS2_PLACEMENT_3D ( 'NONE', #39, #399, #1120 ) ;
#785 = ADVANCED_FACE ( 'NONE', ( #465 ), #256, .F. ) ;
#786 = CYLINDRICAL_SURFACE ( 'NONE', #966, 20.99999999999999645 ) ;
#787 = ORIENTED_EDGE ( 'NONE', *, *, #230, .F. ) ;
#788 = DIRECTION ( 'NONE',  ( 1.000000000000000000, 0.000000000000000000, 0.000000000000000000 ) ) ;
#789 = CIRCLE ( 'NONE', #784, 22.75000000000000355 ) ;
#790 = VERTEX_POINT ( 'NONE', #359 ) ;
#791 = AXIS2_PLACEMENT_3D ( 'NONE', #712, #431, #224 ) ;
#792 = AXIS2_PLACEMENT_3D ( 'NONE', #886, #794, #57 ) ;
#793 = VERTEX_POINT ( 'NONE', #77 ) ;
#794 = DIRECTION ( 'NONE',  ( 1.836970198721029934E-16, -0.000000000000000000, 1.000000000000000000 ) ) ;
#795 = CIRCLE ( 'NONE', #623, 24.25000000000000355 ) ;
#796 = DIRECTION ( 'NONE',  ( 1.000000000000000000, 0.000000000000000000, -1.836970198721029688E-16 ) ) ;
#797 = ORIENTED_EDGE ( 'NONE', *, *, #848, .F. ) ;
#798 = PERSON_AND_ORGANIZATION_ROLE ( 'design_owner' ) ;
#799 = VERTEX_POINT ( 'NONE', #354 ) ;
#800 = EDGE_CURVE ( 'NONE', #102, #9, #128, .T. ) ;
#801 = CARTESIAN_POINT ( 'NONE',  ( 429.3102796124128417, 0.000000000000000000, -1.707115289013109842E-13 ) ) ;
#802 = FACE_OUTER_BOUND ( 'NONE', #242, .T. ) ;
#803 = DIRECTION ( 'NONE',  ( 0.000000000000000000, 0.000000000000000000, -1.000000000000000000 ) ) ;
#804 = APPROVAL_STATUS ( 'not_yet_approved' ) ;
#805 = EDGE_LOOP ( 'NONE', ( #68, #1000, #821, #563 ) ) ;
#806 = ADVANCED_FACE ( 'NONE', ( #636 ), #262, .F. ) ;
#807 = PLANE ( 'NONE',  #112 ) ;
#808 = CARTESIAN_POINT ( 'NONE',  ( 500.0000000000000000, 0.000000000000000000, -9.184850993605148733E-14 ) ) ;
#809 = ORIENTED_EDGE ( 'NONE', *, *, #1134, .F. ) ;
#810 = CARTESIAN_POINT ( 'NONE',  ( -500.0000000000000000, 0.000000000000000000, 0.000000000000000000 ) ) ;
#811 = ORIENTED_EDGE ( 'NONE', *, *, #560, .F. ) ;
#812 = DIRECTION ( 'NONE',  ( 1.000000000000000000, 0.000000000000000000, -1.836970198721029688E-16 ) ) ;
#813 = CIRCLE ( 'NONE', #295, 22.75000000000000355 ) ;
#814 = CARTESIAN_POINT ( 'NONE',  ( 500.0000000000000000, -22.63846284534354325, 2.249999999999914291 ) ) ;
#815 = CARTESIAN_POINT ( 'NONE',  ( 429.3102796124128417, 0.000000000000000000, -1.707115289013103026E-13 ) ) ;
#816 = CARTESIAN_POINT ( 'NONE',  ( 435.8816349035434428, 2.786071468060229748E-15, 22.74999999999991829 ) ) ;
#817 = EDGE_LOOP ( 'NONE', ( #931, #406, #872, #56 ) ) ;
#818 = DIRECTION ( 'NONE',  ( -1.000000000000000000, -0.000000000000000000, 1.836970198721015389E-16 ) ) ;
#819 = CARTESIAN_POINT ( 'NONE',  ( 474.0000000000000000, 0.000000000000000000, -24.25000000000009592 ) ) ;
#820 = EDGE_CURVE ( 'NONE', #174, #1025, #63, .T. ) ;
#821 = ORIENTED_EDGE ( 'NONE', *, *, #1109, .F. ) ;
#822 = FACE_OUTER_BOUND ( 'NONE', #730, .T. ) ;
#823 = ORIENTED_EDGE ( 'NONE', *, *, #962, .F. ) ;
#824 = CARTESIAN_POINT ( 'NONE',  ( 500.0000000000000000, -2.250000000000000000, -22.63846284534362496 ) ) ;
#825 = DIRECTION ( 'NONE',  ( 1.000000000000000000, 0.000000000000000000, -1.836970198721029688E-16 ) ) ;
#826 = ORIENTED_EDGE ( 'NONE', *, *, #979, .T. ) ;
#827 = ADVANCED_FACE ( 'NONE', ( #345 ), #906, .T. ) ;
#828 = DIRECTION ( 'NONE',  ( 1.836970198721029688E-16, 0.000000000000000000, 1.000000000000000000 ) ) ;
#829 = ORIENTED_EDGE ( 'NONE', *, *, #1099, .F. ) ;
#830 = CARTESIAN_POINT ( 'NONE',  ( 435.0000000000000000, 0.000000000000000000, -7.990820364436478514E-14 ) ) ;
#831 = CARTESIAN_POINT ( 'NONE',  ( 431.5334105440296639, 2.689993158972764633E-15, 21.39199796489140226 ) ) ;
#832 = VECTOR ( 'NONE', #515, 1000.000000000000000 ) ;
#833 = CARTESIAN_POINT ( 'NONE',  ( 429.3102796124128417, 0.000000000000000000, -1.707115289013103026E-13 ) ) ;
#834 = CIRCLE ( 'NONE', #893, 22.75000000000000355 ) ;
#835 = DIRECTION ( 'NONE',  ( 1.836970198721015389E-16, 0.000000000000000000, 1.000000000000000000 ) ) ;
#836 = AXIS2_PLACEMENT_3D ( 'NONE', #44, #41, #405 ) ;
#837 = PLANE ( 'NONE',  #1123 ) ;
#838 = EDGE_LOOP ( 'NONE', ( #330, #628, #648, #372 ) ) ;
#839 = EDGE_CURVE ( 'NONE', #78, #452, #175, .T. ) ;
#840 = DIRECTION ( 'NONE',  ( 1.836970198721015389E-16, 0.000000000000000000, 1.000000000000000000 ) ) ;
#841 = CARTESIAN_POINT ( 'NONE',  ( 435.0000000000000000, -24.14539293529927377, -2.250000000000072387 ) ) ;
#842 = ADVANCED_FACE ( 'NONE', ( #254 ), #84, .T. ) ;
#843 = PLANE ( 'NONE',  #1144 ) ;
#844 = CARTESIAN_POINT ( 'NONE',  ( 429.3102796124128417, 3.367778697655221307E-15, -27.50000000000017053 ) ) ;
#845 = CIRCLE ( 'NONE', #948, 22.75000000000000355 ) ;
#846 = ORIENTED_EDGE ( 'NONE', *, *, #938, .T. ) ;
#847 = CIRCLE ( 'NONE', #392, 3.499999999999999556 ) ;
#848 = EDGE_CURVE ( 'NONE', #608, #1170, #662, .T. ) ;
#849 = VECTOR ( 'NONE', #1065, 1000.000000000000000 ) ;
#850 = DIRECTION ( 'NONE',  ( -0.000000000000000000, 1.000000000000000000, 0.000000000000000000 ) ) ;
#851 = AXIS2_PLACEMENT_3D ( 'NONE', #991, #70, #350 ) ;
#852 = DIRECTION ( 'NONE',  ( 0.000000000000000000, 0.000000000000000000, -1.000000000000000000 ) ) ;
#853 = AXIS2_PLACEMENT_3D ( 'NONE', #1126, #758, #665 ) ;
#854 = LINE ( 'NONE', #226, #528 ) ;
#855 = ORIENTED_EDGE ( 'NONE', *, *, #173, .T. ) ;
#856 = CC_DESIGN_PERSON_AND_ORGANIZATION_ASSIGNMENT ( #600, #1076, ( #972 ) ) ;
#857 = CARTESIAN_POINT ( 'NONE',  ( 474.0000000000000000, 0.000000000000000000, -8.707238741937679131E-14 ) ) ;
#858 = DIRECTION ( 'NONE',  ( 1.000000000000000000, -0.000000000000000000, -1.836970198721029688E-16 ) ) ;
#859 = FACE_OUTER_BOUND ( 'NONE', #470, .T. ) ;
#860 = EDGE_LOOP ( 'NONE', ( #150, #890 ) ) ;
#861 = DIRECTION ( 'NONE',  ( -1.836970198721029688E-16, 0.000000000000000000, -1.000000000000000000 ) ) ;
#862 = FACE_OUTER_BOUND ( 'NONE', #641, .T. ) ;
#863 = DIRECTION ( 'NONE',  ( 2.249639673992768896E-32, 1.000000000000000000, 1.224646799147353207E-16 ) ) ;
#864 = ORIENTED_EDGE ( 'NONE', *, *, #915, .T. ) ;
#865 = EDGE_CURVE ( 'NONE', #317, #275, #705, .T. ) ;
#866 = AXIS2_PLACEMENT_3D ( 'NONE', #459, #818, #840 ) ;
#867 = CARTESIAN_POINT ( 'NONE',  ( 429.3102796124128417, 0.000000000000000000, -1.707115289013103026E-13 ) ) ;
#868 = CIRCLE ( 'NONE', #1127, 24.25000000000000355 ) ;
#869 = ORIENTED_EDGE ( 'NONE', *, *, #683, .F. ) ;
#870 = DATE_AND_TIME ( #996, #451 ) ;
#871 = AXIS2_PLACEMENT_3D ( 'NONE', #959, #1132, #1063 ) ;
#872 = ORIENTED_EDGE ( 'NONE', *, *, #494, .F. ) ;
#873 = CIRCLE ( 'NONE', #1167, 6.499999999999999112 ) ;
#874 = CARTESIAN_POINT ( 'NONE',  ( 435.0000000000000000, -22.63846284534353970, -2.250000000000072387 ) ) ;
#875 = ADVANCED_FACE ( 'NONE', ( #537 ), #807, .T. ) ;
#876 = FACE_OUTER_BOUND ( 'NONE', #156, .T. ) ;
#877 = VERTEX_POINT ( 'NONE', #152 ) ;
#878 = DATE_AND_TIME ( #149, #605 ) ;
#879 = EDGE_LOOP ( 'NONE', ( #1108, #42, #864, #900 ) ) ;
#880 = CC_DESIGN_PERSON_AND_ORGANIZATION_ASSIGNMENT ( #776, #798, ( #538 ) ) ;
#881 = CARTESIAN_POINT ( 'NONE',  ( 431.5334105440296639, 0.000000000000000000, -1.711199114282344970E-13 ) ) ;
#882 = CARTESIAN_POINT ( 'NONE',  ( 500.0000000000000000, 24.25000000000000355, 2.249999999999914291 ) ) ;
#883 = VERTEX_POINT ( 'NONE', #1176 ) ;
#884 = PERSON_AND_ORGANIZATION_ROLE ( 'creator' ) ;
#885 = ORIENTED_EDGE ( 'NONE', *, *, #424, .F. ) ;
#886 = CARTESIAN_POINT ( 'NONE',  ( 474.0000000000000000, 24.25000000000000355, -2.250000000000080380 ) ) ;
#887 = CIRCLE ( 'NONE', #83, 24.25000000000000355 ) ;
#888 = DIRECTION ( 'NONE',  ( -1.836970198721029688E-16, 0.000000000000000000, -1.000000000000000000 ) ) ;
#889 = ADVANCED_FACE ( 'NONE', ( #622 ), #257, .F. ) ;
#890 = ORIENTED_EDGE ( 'NONE', *, *, #1012, .F. ) ;
#891 = VERTEX_POINT ( 'NONE', #778 ) ;
#892 = CIRCLE ( 'NONE', #582, 22.75000000000000355 ) ;
#893 = AXIS2_PLACEMENT_3D ( 'NONE', #1085, #371, #194 ) ;
#894 = DIRECTION ( 'NONE',  ( 0.000000000000000000, 0.000000000000000000, -1.000000000000000000 ) ) ;
#895 = VECTOR ( 'NONE', #393, 1000.000000000000227 ) ;
#896 = DIRECTION ( 'NONE',  ( -0.000000000000000000, -1.000000000000000000, -0.000000000000000000 ) ) ;
#897 = ORIENTED_EDGE ( 'NONE', *, *, #1177, .T. ) ;
#898 = EDGE_CURVE ( 'NONE', #46, #425, #1089, .T. ) ;
#899 = COORDINATED_UNIVERSAL_TIME_OFFSET ( 1, 0, .AHEAD. ) ;
#900 = ORIENTED_EDGE ( 'NONE', *, *, #1129, .F. ) ;
#901 = DIRECTION ( 'NONE',  ( 1.000000000000000000, 0.000000000000000000, -1.836970198721029688E-16 ) ) ;
#902 = DIRECTION ( 'NONE',  ( 1.000000000000000000, 0.000000000000000000, -1.836970198721029934E-16 ) ) ;
#903 = ORIENTED_EDGE ( 'NONE', *, *, #64, .F. ) ;
#904 = CARTESIAN_POINT ( 'NONE',  ( 474.0000000000000000, 0.000000000000000000, -8.707238741937679131E-14 ) ) ;
#905 = ORIENTED_EDGE ( 'NONE', *, *, #747, .F. ) ;
#906 = PLANE ( 'NONE',  #792 ) ;
#907 = CIRCLE ( 'NONE', #1161, 22.53892417275076809 ) ;
#908 = DIRECTION ( 'NONE',  ( 0.000000000000000000, -1.000000000000000000, 0.000000000000000000 ) ) ;
#909 = FACE_OUTER_BOUND ( 'NONE', #172, .T. ) ;
#910 = PLANE ( 'NONE',  #229 ) ;
#911 = ORIENTED_EDGE ( 'NONE', *, *, #410, .F. ) ;
#912 = TOROIDAL_SURFACE ( 'NONE', #945, 27.50000000000000000, 6.500000000000000888 ) ;
#913 = DIRECTION ( 'NONE',  ( 2.249639673992768896E-32, 1.000000000000000000, 1.224646799147353207E-16 ) ) ;
#914 = VECTOR ( 'NONE', #307, 1000.000000000000000 ) ;
#915 = EDGE_CURVE ( 'NONE', #425, #46, #508, .T. ) ;
#916 = VECTOR ( 'NONE', #1104, 1000.000000000000000 ) ;
#917 = ORIENTED_EDGE ( 'NONE', *, *, #609, .F. ) ;
#918 = VERTEX_POINT ( 'NONE', #717 ) ;
#919 = DIRECTION ( 'NONE',  ( 1.000000000000000000, 0.000000000000000000, -1.836970198721029688E-16 ) ) ;
#920 = CC_DESIGN_PERSON_AND_ORGANIZATION_ASSIGNMENT ( #435, #884, ( #669 ) ) ;
#921 = DIRECTION ( 'NONE',  ( 1.836970198721029688E-16, 0.000000000000000000, 1.000000000000000000 ) ) ;
#922 = EDGE_CURVE ( 'NONE', #1098, #790, #235, .T. ) ;
#923 = ORIENTED_EDGE ( 'NONE', *, *, #922, .T. ) ;
#924 = DIRECTION ( 'NONE',  ( 0.000000000000000000, 1.421085471520200372E-14, 1.000000000000000000 ) ) ;
#925 = EDGE_LOOP ( 'NONE', ( #535, #1054, #1106, #689 ) ) ;
#926 = DIRECTION ( 'NONE',  ( 1.836970198721015389E-16, 0.000000000000000000, 1.000000000000000000 ) ) ;
#927 = CARTESIAN_POINT ( 'NONE',  ( 435.0000000000000000, -2.249999999999999112, 22.63846284534346154 ) ) ;
#928 = CARTESIAN_POINT ( 'NONE',  ( 435.0000000000000000, 24.14539293529927022, 2.249999999999925837 ) ) ;
#929 = CYLINDRICAL_SURFACE ( 'NONE', #351, 22.75000000000000355 ) ;
#930 = ADVANCED_FACE ( 'NONE', ( #158 ), #261, .T. ) ;
#931 = ORIENTED_EDGE ( 'NONE', *, *, #591, .F. ) ;
#932 = DIRECTION ( 'NONE',  ( 0.000000000000000000, 0.000000000000000000, 1.000000000000000000 ) ) ;
#933 = CARTESIAN_POINT ( 'NONE',  ( 474.0000000000000000, 0.000000000000000000, -8.707238741937679131E-14 ) ) ;
#934 = AXIS2_PLACEMENT_3D ( 'NONE', #950, #297, #222 ) ;
#935 = AXIS2_PLACEMENT_3D ( 'NONE', #365, #908, #1097 ) ;
#936 = APPROVAL_PERSON_ORGANIZATION ( #690, #454, #976 ) ;
#937 = CARTESIAN_POINT ( 'NONE',  ( 500.0000000000000000, 0.000000000000000000, -1.836970198721029747E-13 ) ) ;
#938 = EDGE_CURVE ( 'NONE', #1098, #1156, #1073, .T. ) ;
#939 = DIRECTION ( 'NONE',  ( 1.836970198721029688E-16, 0.000000000000000000, 1.000000000000000000 ) ) ;
#940 = CARTESIAN_POINT ( 'NONE',  ( 434.6845644019035717, 0.000000000000000000, -22.53892417275093862 ) ) ;
#941 = DIRECTION ( 'NONE',  ( 1.000000000000000000, 0.000000000000000000, -1.836970198721029688E-16 ) ) ;
#942 = EDGE_LOOP ( 'NONE', ( #1067, #897, #268, #225, #846, #376, #626, #917, #961, #709, #184, #363 ) ) ;
#943 = CARTESIAN_POINT ( 'NONE',  ( 435.0000000000000000, -2.249999999999999112, 24.14539293529919561 ) ) ;
#944 =( LENGTH_UNIT ( ) NAMED_UNIT ( * ) SI_UNIT ( .MILLI., .METRE. ) );
#945 = AXIS2_PLACEMENT_3D ( 'NONE', #1037, #1125, #589 ) ;
#946 = LINE ( 'NONE', #874, #1090 ) ;
#947 = EDGE_CURVE ( 'NONE', #1095, #954, #984, .T. ) ;
#948 = AXIS2_PLACEMENT_3D ( 'NONE', #272, #369, #932 ) ;
#949 = EDGE_LOOP ( 'NONE', ( #703, #1158, #557, #733 ) ) ;
#950 = CARTESIAN_POINT ( 'NONE',  ( 434.1715341869150393, 0.000000000000000000, -1.256802719114609047E-13 ) ) ;
#951 = DIRECTION ( 'NONE',  ( 0.000000000000000000, 0.000000000000000000, 1.000000000000000000 ) ) ;
#952 = LOCAL_TIME ( 0, 3, 21.00000000000000000, #1153 ) ;
#953 = DIRECTION ( 'NONE',  ( -0.000000000000000000, -1.000000000000000000, -0.000000000000000000 ) ) ;
#954 = VERTEX_POINT ( 'NONE', #1084 ) ;
#955 = CARTESIAN_POINT ( 'NONE',  ( 500.0000000000000000, 22.63846284534354325, -2.250000000000085265 ) ) ;
#956 = CARTESIAN_POINT ( 'NONE',  ( 435.0000000000000000, 2.249999999999999112, -24.14539293529935193 ) ) ;
#957 = CARTESIAN_POINT ( 'NONE',  ( 434.6845644019035717, 0.000000000000000000, -1.716987690010843909E-13 ) ) ;
#958 = CARTESIAN_POINT ( 'NONE',  ( 435.0000000000000000, -22.63846284534353970, 2.249999999999925837 ) ) ;
#959 = CARTESIAN_POINT ( 'NONE',  ( 474.0000000000000000, 2.250000000000000000, -24.25000000000009237 ) ) ;
#960 = DIRECTION ( 'NONE',  ( -1.000000000000000000, -0.000000000000000000, 1.836970198721015389E-16 ) ) ;
#961 = ORIENTED_EDGE ( 'NONE', *, *, #58, .F. ) ;
#962 = EDGE_CURVE ( 'NONE', #1094, #317, #813, .T. ) ;
#963 = CARTESIAN_POINT ( 'NONE',  ( 474.0000000000000000, 2.250000000000000000, -24.25000000000009237 ) ) ;
#964 = DIRECTION ( 'NONE',  ( 1.836970198721015389E-16, 0.000000000000000000, 1.000000000000000000 ) ) ;
#965 = CARTESIAN_POINT ( 'NONE',  ( 429.3102796124128417, 0.000000000000000000, -1.707115289013109842E-13 ) ) ;
#966 = AXIS2_PLACEMENT_3D ( 'NONE', #774, #606, #146 ) ;
#967 = EDGE_LOOP ( 'NONE', ( #652, #524 ) ) ;
#968 = COORDINATED_UNIVERSAL_TIME_OFFSET ( 1, 0, .AHEAD. ) ;
#969 = AXIS2_PLACEMENT_3D ( 'NONE', #455, #644, #1 ) ;
#970 = EDGE_CURVE ( 'NONE', #341, #631, #604, .T. ) ;
#971 = ORIENTED_EDGE ( 'NONE', *, *, #40, .T. ) ;
#972 = PRODUCT_DEFINITION_FORMATION_WITH_SPECIFIED_SOURCE ( 'ANY', '', #538, .NOT_KNOWN. ) ;
#973 = CARTESIAN_POINT ( 'NONE',  ( 435.0000000000000000, 2.249999999999999112, 24.14539293529919561 ) ) ;
#974 = PLANE ( 'NONE',  #546 ) ;
#975 = ORIENTED_EDGE ( 'NONE', *, *, #344, .T. ) ;
#976 = APPROVAL_ROLE ( '' ) ;
#977 = VERTEX_POINT ( 'NONE', #819 ) ;
#978 = CARTESIAN_POINT ( 'NONE',  ( 500.0000000000000000, 0.000000000000000000, -1.836970198721029747E-13 ) ) ;
#979 = EDGE_CURVE ( 'NONE', #954, #631, #1117, .T. ) ;
#980 = CARTESIAN_POINT ( 'NONE',  ( 474.0000000000000000, 0.000000000000000000, -8.707238741937679131E-14 ) ) ;
#981 = ORIENTED_EDGE ( 'NONE', *, *, #491, .T. ) ;
#982 = PERSON_AND_ORGANIZATION ( #312, #473 ) ;
#983 = ORIENTED_EDGE ( 'NONE', *, *, #702, .F. ) ;
#984 = LINE ( 'NONE', #163, #773 ) ;
#985 = CC_DESIGN_DATE_AND_TIME_ASSIGNMENT ( #870, #161, ( #682 ) ) ;
#986 = LINE ( 'NONE', #882, #680 ) ;
#987 = ORIENTED_EDGE ( 'NONE', *, *, #75, .F. ) ;
#988 = APPROVAL_DATE_TIME ( #708, #304 ) ;
#989 = EDGE_LOOP ( 'NONE', ( #787, #54, #531, #855 ) ) ;
#990 = CIRCLE ( 'NONE', #567, 22.50000000000000000 ) ;
#991 = CARTESIAN_POINT ( 'NONE',  ( 431.5334105440296639, 0.000000000000000000, -1.711199114282344970E-13 ) ) ;
#992 = VECTOR ( 'NONE', #941, 1000.000000000000000 ) ;
#993 = CARTESIAN_POINT ( 'NONE',  ( 474.0000000000000000, 24.25000000000000355, 2.249999999999919176 ) ) ;
#994 = ORIENTED_EDGE ( 'NONE', *, *, #1099, .T. ) ;
#995 = EDGE_CURVE ( 'NONE', #691, #883, #395, .T. ) ;
#996 = CALENDAR_DATE ( 2026, 16, 9 ) ;
#997 = ORIENTED_EDGE ( 'NONE', *, *, #241, .T. ) ;
#998 = DIRECTION ( 'NONE',  ( 1.000000000000000000, 0.000000000000000000, -1.836970198721029688E-16 ) ) ;
#999 = DIRECTION ( 'NONE',  ( 0.000000000000000000, 0.000000000000000000, -1.000000000000000000 ) ) ;
#1000 = ORIENTED_EDGE ( 'NONE', *, *, #591, .T. ) ;
#1001 = DIRECTION ( 'NONE',  ( 0.000000000000000000, -1.000000000000000000, 0.000000000000000000 ) ) ;
#1002 = ORIENTED_EDGE ( 'NONE', *, *, #318, .T. ) ;
#1003 = ADVANCED_FACE ( 'NONE', ( #552 ), #413, .T. ) ;
#1004 = DIRECTION ( 'NONE',  ( 1.000000000000000000, 0.000000000000000000, -1.836970198721015389E-16 ) ) ;
#1005 = VECTOR ( 'NONE', #386, 1000.000000000000000 ) ;
#1006 = CARTESIAN_POINT ( 'NONE',  ( 474.0000000000000000, 2.969768487932332076E-15, 24.24999999999991829 ) ) ;
#1007 = LINE ( 'NONE', #100, #1009 ) ;
#1008 = DIRECTION ( 'NONE',  ( 1.000000000000000000, 0.000000000000000000, -1.836970198721029688E-16 ) ) ;
#1009 = VECTOR ( 'NONE', #1113, 1000.000000000000000 ) ;
#1010 = ORIENTED_EDGE ( 'NONE', *, *, #328, .F. ) ;
#1011 = AXIS2_PLACEMENT_3D ( 'NONE', #571, #495, #124 ) ;
#1012 = EDGE_CURVE ( 'NONE', #265, #37, #720, .T. ) ;
#1013 = FACE_OUTER_BOUND ( 'NONE', #989, .T. ) ;
#1014 = VECTOR ( 'NONE', #1043, 1000.000000000000000 ) ;
#1015 = AXIS2_PLACEMENT_3D ( 'NONE', #227, #598, #244 ) ;
#1016 = CC_DESIGN_APPROVAL ( #454, ( #669 ) ) ;
#1017 = DIRECTION ( 'NONE',  ( 1.000000000000000000, 0.000000000000000000, -1.836970198721029688E-16 ) ) ;
#1018 = EDGE_LOOP ( 'NONE', ( #513, #251, #441, #578, #29, #511 ) ) ;
#1019 = ORIENTED_EDGE ( 'NONE', *, *, #865, .F. ) ;
#1020 = LINE ( 'NONE', #82, #201 ) ;
#1021 = EDGE_CURVE ( 'NONE', #336, #793, #946, .T. ) ;
#1022 = CARTESIAN_POINT ( 'NONE',  ( 500.0000000000000000, -24.14539293529927377, -2.250000000000085265 ) ) ;
#1023 = ORIENTED_EDGE ( 'NONE', *, *, #1186, .F. ) ;
#1024 = CARTESIAN_POINT ( 'NONE',  ( 500.0000000000000000, -22.63846284534354325, -2.250000000000085265 ) ) ;
#1025 = VERTEX_POINT ( 'NONE', #955 ) ;
#1026 = CARTESIAN_POINT ( 'NONE',  ( 435.8816349035434428, 0.000000000000000000, -1.259944123167866877E-13 ) ) ;
#1027 = DIRECTION ( 'NONE',  ( 0.000000000000000000, 0.000000000000000000, -1.000000000000000000 ) ) ;
#1028 = CARTESIAN_POINT ( 'NONE',  ( 474.0000000000000000, 2.250000000000000000, -24.25000000000009237 ) ) ;
#1029 = EDGE_CURVE ( 'NONE', #37, #265, #185, .T. ) ;
#1030 = DIRECTION ( 'NONE',  ( 1.000000000000000000, 0.000000000000000000, -1.836970198721029688E-16 ) ) ;
#1031 = PLANE ( 'NONE',  #370 ) ;
#1032 = DIRECTION ( 'NONE',  ( 1.000000000000000000, 0.000000000000000000, -1.836970198721029688E-16 ) ) ;
#1033 = AXIS2_PLACEMENT_3D ( 'NONE', #383, #744, #466 ) ;
#1034 = AXIS2_PLACEMENT_3D ( 'NONE', #801, #629, #1160 ) ;
#1035 = CIRCLE ( 'NONE', #836, 22.75000000000000355 ) ;
#1036 = LINE ( 'NONE', #1124, #754 ) ;
#1037 = CARTESIAN_POINT ( 'NONE',  ( 429.3102796124128417, 0.000000000000000000, -1.707115289013103026E-13 ) ) ;
#1038 = FACE_OUTER_BOUND ( 'NONE', #860, .T. ) ;
#1039 = DIRECTION ( 'NONE',  ( 0.9396926207859102043, 0.000000000000000000, -0.3420201433256635504 ) ) ;
#1040 = CARTESIAN_POINT ( 'NONE',  ( 500.0000000000000000, 24.25000000000000355, -2.250000000000085265 ) ) ;
#1041 = ADVANCED_FACE ( 'NONE', ( #666 ), #335, .F. ) ;
#1042 = VERTEX_POINT ( 'NONE', #731 ) ;
#1043 = DIRECTION ( 'NONE',  ( 1.836970198721029688E-16, 0.000000000000000000, 1.000000000000000000 ) ) ;
#1044 = CARTESIAN_POINT ( 'NONE',  ( 500.0000000000000000, -2.250000000000000000, -24.25000000000009592 ) ) ;
#1045 = LINE ( 'NONE', #1040, #239 ) ;
#1046 = ADVANCED_FACE ( 'NONE', ( #1102 ), #103, .T. ) ;
#1047 = AXIS2_PLACEMENT_3D ( 'NONE', #857, #210, #407 ) ;
#1048 = CARTESIAN_POINT ( 'NONE',  ( 500.0000000000000000, 0.000000000000000000, -9.184850993605148733E-14 ) ) ;
#1049 = VECTOR ( 'NONE', #710, 1000.000000000000000 ) ;
#1050 = CARTESIAN_POINT ( 'NONE',  ( 474.0000000000000000, 0.000000000000000000, -8.707238741937679131E-14 ) ) ;
#1051 = CARTESIAN_POINT ( 'NONE',  ( 474.0000000000000000, 0.000000000000000000, -8.707238741937679131E-14 ) ) ;
#1052 = EDGE_CURVE ( 'NONE', #189, #918, #1035, .T. ) ;
#1053 = DIRECTION ( 'NONE',  ( 0.000000000000000000, 0.000000000000000000, -1.000000000000000000 ) ) ;
#1054 = ORIENTED_EDGE ( 'NONE', *, *, #839, .T. ) ;
#1055 = CARTESIAN_POINT ( 'NONE',  ( 430.1919145159552045, 0.000000000000000000, -1.708734826057069411E-13 ) ) ;
#1056 = ADVANCED_FACE ( 'NONE', ( #859 ), #585, .T. ) ;
#1057 = CARTESIAN_POINT ( 'NONE',  ( 435.8816349035434428, 0.000000000000000000, -8.007015734876094399E-14 ) ) ;
#1058 = ORIENTED_EDGE ( 'NONE', *, *, #75, .T. ) ;
#1059 = PERSON_AND_ORGANIZATION ( #312, #473 ) ;
#1060 = ORIENTED_EDGE ( 'NONE', *, *, #207, .T. ) ;
#1061 = DIRECTION ( 'NONE',  ( 1.000000000000000000, 0.000000000000000000, -1.836970198721029688E-16 ) ) ;
#1062 = VECTOR ( 'NONE', #280, 1000.000000000000000 ) ;
#1063 = DIRECTION ( 'NONE',  ( 0.000000000000000000, -0.000000000000000000, 1.000000000000000000 ) ) ;
#1064 = AXIS2_PLACEMENT_3D ( 'NONE', #566, #672, #661 ) ;
#1065 = DIRECTION ( 'NONE',  ( 1.000000000000000000, 0.000000000000000000, -1.836970198721029688E-16 ) ) ;
#1066 = AXIS2_PLACEMENT_3D ( 'NONE', #937, #27, #861 ) ;
#1067 = ORIENTED_EDGE ( 'NONE', *, *, #417, .F. ) ;
#1068 = SECURITY_CLASSIFICATION_LEVEL ( 'unclassified' ) ;
#1069 = ORIENTED_EDGE ( 'NONE', *, *, #1137, .F. ) ;
#1070 = EDGE_CURVE ( 'NONE', #46, #1042, #572, .T. ) ;
#1071 = VECTOR ( 'NONE', #211, 1000.000000000000000 ) ;
#1072 = CARTESIAN_POINT ( 'NONE',  ( 435.8816349035434428, 0.000000000000000000, -1.259944123167866877E-13 ) ) ;
#1073 = LINE ( 'NONE', #339, #16 ) ;
#1074 = CARTESIAN_POINT ( 'NONE',  ( 435.0000000000000000, -2.249999999999999112, -22.63846284534361786 ) ) ;
#1075 = ORIENTED_EDGE ( 'NONE', *, *, #694, .T. ) ;
#1076 = PERSON_AND_ORGANIZATION_ROLE ( 'design_supplier' ) ;
#1077 = VERTEX_POINT ( 'NONE', #1140 ) ;
#1078 = CC_DESIGN_PERSON_AND_ORGANIZATION_ASSIGNMENT ( #1059, #701, ( #972 ) ) ;
#1079 = DIRECTION ( 'NONE',  ( -0.000000000000000000, -1.000000000000000000, -0.000000000000000000 ) ) ;
#1080 = CARTESIAN_POINT ( 'NONE',  ( 435.0000000000000000, 0.000000000000000000, -7.990820364436478514E-14 ) ) ;
#1081 = ORIENTED_EDGE ( 'NONE', *, *, #898, .F. ) ;
#1082 = VERTEX_POINT ( 'NONE', #142 ) ;
#1083 = PRODUCT_RELATED_PRODUCT_CATEGORY ( 'detail', '', ( #538 ) ) ;
#1084 = CARTESIAN_POINT ( 'NONE',  ( 474.0000000000000000, 2.250000000000000000, 22.63846284534345443 ) ) ;
#1085 = CARTESIAN_POINT ( 'NONE',  ( 500.0000000000000000, 0.000000000000000000, -9.184850993605148733E-14 ) ) ;
#1086 = CIRCLE ( 'NONE', #47, 5.000000000000000888 ) ;
#1087 = ORIENTED_EDGE ( 'NONE', *, *, #491, .F. ) ;
#1088 = ORIENTED_EDGE ( 'NONE', *, *, #865, .T. ) ;
#1089 = CIRCLE ( 'NONE', #851, 21.39199796489157279 ) ;
#1090 = VECTOR ( 'NONE', #127, 1000.000000000000000 ) ;
#1091 = DIRECTION ( 'NONE',  ( 1.000000000000000000, 0.000000000000000000, -1.836970198721000845E-16 ) ) ;
#1092 = DIRECTION ( 'NONE',  ( 1.000000000000000000, 0.000000000000000000, -1.836970198721029688E-16 ) ) ;
#1093 = EDGE_CURVE ( 'NONE', #90, #977, #581, .T. ) ;
#1094 = VERTEX_POINT ( 'NONE', #308 ) ;
#1095 = VERTEX_POINT ( 'NONE', #119 ) ;
#1096 = CARTESIAN_POINT ( 'NONE',  ( 500.0000000000000000, 0.000000000000000000, -9.184850993605148733E-14 ) ) ;
#1097 = DIRECTION ( 'NONE',  ( 0.000000000000000000, 0.000000000000000000, -1.000000000000000000 ) ) ;
#1098 = VERTEX_POINT ( 'NONE', #299 ) ;
#1099 = EDGE_CURVE ( 'NONE', #355, #621, #380, .T. ) ;
#1100 = LINE ( 'NONE', #269, #180 ) ;
#1101 = EDGE_LOOP ( 'NONE', ( #300, #722, #385, #797 ) ) ;
#1102 = FACE_OUTER_BOUND ( 'NONE', #942, .T. ) ;
#1103 = CARTESIAN_POINT ( 'NONE',  ( 474.0000000000000000, 2.250000000000000000, -24.14539293529935904 ) ) ;
#1104 = DIRECTION ( 'NONE',  ( 1.836970198721029688E-16, 0.000000000000000000, 1.000000000000000000 ) ) ;
#1105 = CIRCLE ( 'NONE', #619, 20.99999999999999645 ) ;
#1106 = ORIENTED_EDGE ( 'NONE', *, *, #81, .F. ) ;
#1107 = FACE_OUTER_BOUND ( 'NONE', #74, .T. ) ;
#1108 = ORIENTED_EDGE ( 'NONE', *, *, #848, .T. ) ;
#1109 = EDGE_CURVE ( 'NONE', #452, #96, #854, .T. ) ;
#1110 = LINE ( 'NONE', #927, #1005 ) ;
#1111 = AXIS2_PLACEMENT_3D ( 'NONE', #993, #1178, #902 ) ;
#1112 = CC_DESIGN_SECURITY_CLASSIFICATION ( #682, ( #972 ) ) ;
#1113 = DIRECTION ( 'NONE',  ( -0.000000000000000000, -1.000000000000000000, -0.000000000000000000 ) ) ;
#1114 = DIRECTION ( 'NONE',  ( 0.000000000000000000, 0.000000000000000000, -1.000000000000000000 ) ) ;
#1115 = ORIENTED_EDGE ( 'NONE', *, *, #702, .T. ) ;
#1116 = CARTESIAN_POINT ( 'NONE',  ( 500.0000000000000000, -2.250000000000000000, -24.25000000000009592 ) ) ;
#1117 = LINE ( 'NONE', #1028, #916 ) ;
#1118 = EDGE_CURVE ( 'NONE', #977, #61, #795, .T. ) ;
#1119 = ORIENTED_EDGE ( 'NONE', *, *, #173, .F. ) ;
#1120 = DIRECTION ( 'NONE',  ( 0.000000000000000000, 0.000000000000000000, -1.000000000000000000 ) ) ;
#1121 = CARTESIAN_POINT ( 'NONE',  ( 474.0000000000000000, 24.14539293529927377, 2.249999999999919176 ) ) ;
#1122 = DIRECTION ( 'NONE',  ( 1.000000000000000000, -0.000000000000000000, -1.836970198721029688E-16 ) ) ;
#1123 = AXIS2_PLACEMENT_3D ( 'NONE', #769, #850, #34 ) ;
#1124 = CARTESIAN_POINT ( 'NONE',  ( 435.0000000000000000, 24.14539293529927377, -2.250000000000072387 ) ) ;
#1125 = DIRECTION ( 'NONE',  ( -1.000000000000000000, -0.000000000000000000, 1.836970198721015389E-16 ) ) ;
#1126 = CARTESIAN_POINT ( 'NONE',  ( 429.3102796124128417, 0.000000000000000000, -1.707115289013109842E-13 ) ) ;
#1127 = AXIS2_PLACEMENT_3D ( 'NONE', #59, #510, #71 ) ;
#1128 = AXIS2_PLACEMENT_3D ( 'NONE', #480, #594, #496 ) ;
#1129 = EDGE_CURVE ( 'NONE', #608, #46, #873, .T. ) ;
#1130 = FACE_BOUND ( 'NONE', #967, .T. ) ;
#1131 = VERTEX_POINT ( 'NONE', #36 ) ;
#1132 = DIRECTION ( 'NONE',  ( -0.000000000000000000, 1.000000000000000000, 0.000000000000000000 ) ) ;
#1133 = DIRECTION ( 'NONE',  ( 1.000000000000000000, 0.000000000000000000, -1.836970198721029688E-16 ) ) ;
#1134 = EDGE_CURVE ( 'NONE', #799, #1025, #1045, .T. ) ;
#1135 = PLANE ( 'NONE',  #751 ) ;
#1136 = CARTESIAN_POINT ( 'NONE',  ( 500.0000000000000000, -2.250000000000000000, -24.14539293529936614 ) ) ;
#1137 = EDGE_CURVE ( 'NONE', #954, #275, #113, .T. ) ;
#1138 = DIRECTION ( 'NONE',  ( -0.000000000000000000, -1.000000000000000000, -0.000000000000000000 ) ) ;
#1139 = CYLINDRICAL_SURFACE ( 'NONE', #1011, 20.99999999999999645 ) ;
#1140 = CARTESIAN_POINT ( 'NONE',  ( 434.1715341869150393, 0.000000000000000000, -23.94846310392980371 ) ) ;
#1141 = AXIS2_PLACEMENT_3D ( 'NONE', #1096, #919, #1027 ) ;
#1142 = DIRECTION ( 'NONE',  ( 0.000000000000000000, 0.000000000000000000, -1.000000000000000000 ) ) ;
#1143 = EDGE_CURVE ( 'NONE', #771, #1149, #590, .T. ) ;
#1144 = AXIS2_PLACEMENT_3D ( 'NONE', #402, #498, #1145 ) ;
#1145 = DIRECTION ( 'NONE',  ( -1.836970198721029688E-16, 0.000000000000000000, -1.000000000000000000 ) ) ;
#1146 = ORIENTED_EDGE ( 'NONE', *, *, #654, .F. ) ;
#1147 = AXIS2_PLACEMENT_3D ( 'NONE', #686, #389, #750 ) ;
#1148 = DIRECTION ( 'NONE',  ( 0.000000000000000000, -0.000000000000000000, 1.000000000000000000 ) ) ;
#1149 = VERTEX_POINT ( 'NONE', #139 ) ;
#1150 = EDGE_CURVE ( 'NONE', #516, #621, #69, .T. ) ;
#1151 = DIRECTION ( 'NONE',  ( 1.836970198721015389E-16, 0.000000000000000000, 1.000000000000000000 ) ) ;
#1152 = ORIENTED_EDGE ( 'NONE', *, *, #367, .F. ) ;
#1153 = COORDINATED_UNIVERSAL_TIME_OFFSET ( 1, 0, .AHEAD. ) ;
#1154 = DIRECTION ( 'NONE',  ( 0.000000000000000000, 0.000000000000000000, -1.000000000000000000 ) ) ;
#1155 = CYLINDRICAL_SURFACE ( 'NONE', #487, 24.25000000000000355 ) ;
#1156 = VERTEX_POINT ( 'NONE', #1136 ) ;
#1157 = CALENDAR_DATE ( 2026, 16, 9 ) ;
#1158 = ORIENTED_EDGE ( 'NONE', *, *, #763, .F. ) ;
#1159 = VECTOR ( 'NONE', #1039, 1000.000000000000114 ) ;
#1160 = DIRECTION ( 'NONE',  ( 0.000000000000000000, 0.000000000000000000, -1.000000000000000000 ) ) ;
#1161 = AXIS2_PLACEMENT_3D ( 'NONE', #741, #639, #1114 ) ;
#1162 = DIRECTION ( 'NONE',  ( 1.000000000000000000, 0.000000000000000000, -1.836970198721029688E-16 ) ) ;
#1163 = ORIENTED_EDGE ( 'NONE', *, *, #898, .T. ) ;
#1164 = ADVANCED_FACE ( 'NONE', ( #26 ), #303, .F. ) ;
#1165 = APPROVAL_ROLE ( '' ) ;
#1166 = ORIENTED_EDGE ( 'NONE', *, *, #763, .T. ) ;
#1167 = AXIS2_PLACEMENT_3D ( 'NONE', #28, #772, #223 ) ;
#1168 = DIRECTION ( 'NONE',  ( 0.000000000000000000, 0.000000000000000000, -1.000000000000000000 ) ) ;
#1169 = CARTESIAN_POINT ( 'NONE',  ( 474.0000000000000000, 2.250000000000000000, 24.14539293529918851 ) ) ;
#1170 = VERTEX_POINT ( 'NONE', #316 ) ;
#1171 = CALENDAR_DATE ( 2026, 16, 9 ) ;
#1172 = ORIENTED_EDGE ( 'NONE', *, *, #230, .T. ) ;
#1173 = CARTESIAN_POINT ( 'NONE',  ( 435.0000000000000000, 22.63846284534353970, -2.250000000000072387 ) ) ;
#1174 = ORIENTED_EDGE ( 'NONE', *, *, #1029, .T. ) ;
#1175 = ORIENTED_EDGE ( 'NONE', *, *, #1186, .T. ) ;
#1176 = CARTESIAN_POINT ( 'NONE',  ( 474.0000000000000000, -2.250000000000000000, 24.14539293529918851 ) ) ;
#1177 = EDGE_CURVE ( 'NONE', #263, #90, #279, .T. ) ;
#1178 = DIRECTION ( 'NONE',  ( 1.836970198721029934E-16, -0.000000000000000000, 1.000000000000000000 ) ) ;
#1179 = VECTOR ( 'NONE', #558, 1000.000000000000114 ) ;
#1180 = ORIENTED_EDGE ( 'NONE', *, *, #157, .F. ) ;
#1181 = CARTESIAN_POINT ( 'NONE',  ( 474.0000000000000000, 0.000000000000000000, -8.707238741937680393E-14 ) ) ;
#1182 = ORIENTED_EDGE ( 'NONE', *, *, #675, .T. ) ;
#1183 = VECTOR ( 'NONE', #921, 1000.000000000000000 ) ;
#1184 = AXIS2_PLACEMENT_3D ( 'NONE', #440, #246, #788 ) ;
#1185 = CARTESIAN_POINT ( 'NONE',  ( 474.0000000000000000, 22.63846284534354325, -2.250000000000080380 ) ) ;
#1186 = EDGE_CURVE ( 'NONE', #1170, #608, #509, .T. ) ;
#1187 = PRODUCT_DEFINITION_SHAPE ( 'NONE', 'NONE',  #669 ) ;
#1188 = CARTESIAN_POINT ( 'NONE',  ( 474.0000000000000000, 24.14539293529927733, -2.250000000000080380 ) ) ;
#1189 = FACE_OUTER_BOUND ( 'NONE', #126, .T. ) ;
#1190 = EDGE_LOOP ( 'NONE', ( #740, #634, #1010, #903 ) ) ;
#1191 = FACE_OUTER_BOUND ( 'NONE', #315, .T. ) ;
ENDSEC;
END-ISO-10303-21;
