ISO-10303-21;
HEADER;
FILE_DESCRIPTION (( 'STEP AP203' ),
    '1' );
FILE_NAME ('79-8464 - Stegmuff. 48-45-42.STEP',
    '2026-09-15T22:04:01',
    ( '' ),
    ( '' ),
    'SwSTEP 2.0',
    'SolidWorks 2026',
    '' );
FILE_SCHEMA (( 'CONFIG_CONTROL_DESIGN' ));
ENDSEC;

DATA;
#1 = EDGE_CURVE ( 'NONE', #728, #893, #1037, .T. ) ;
#2 = CARTESIAN_POINT ( 'NONE',  ( -26.66346035225550182, -19.49999999999997513, 2.388061258337337361E-15 ) ) ;
#3 = ORIENTED_EDGE ( 'NONE', *, *, #1053, .F. ) ;
#4 = ADVANCED_FACE ( 'NONE', ( #185 ), #673, .F. ) ;
#5 =( LENGTH_UNIT ( ) NAMED_UNIT ( * ) SI_UNIT ( .MILLI., .METRE. ) );
#6 = CARTESIAN_POINT ( 'NONE',  ( 28.91346035225556577, 1.254345658676081754E-14, 0.000000000000000000 ) ) ;
#7 = AXIS2_PLACEMENT_3D ( 'NONE', #634, #813, #449 ) ;
#8 = ORIENTED_EDGE ( 'NONE', *, *, #649, .T. ) ;
#9 = ORIENTED_EDGE ( 'NONE', *, *, #949, .F. ) ;
#10 = EDGE_CURVE ( 'NONE', #920, #744, #467, .T. ) ;
#11 = AXIS2_PLACEMENT_3D ( 'NONE', #107, #851, #690 ) ;
#12 = AXIS2_PLACEMENT_3D ( 'NONE', #786, #429, #702 ) ;
#13 = CIRCLE ( 'NONE', #620, 2.999999999999999112 ) ;
#14 = FACE_OUTER_BOUND ( 'NONE', #560, .T. ) ;
#15 = VERTEX_POINT ( 'NONE', #867 ) ;
#16 = EDGE_CURVE ( 'NONE', #629, #701, #729, .T. ) ;
#17 = CARTESIAN_POINT ( 'NONE',  ( 26.66346035225554445, 25.50000000000000355, 3.122849337825749039E-15 ) ) ;
#18 = ORIENTED_EDGE ( 'NONE', *, *, #509, .T. ) ;
#19 = APPROVAL_PERSON_ORGANIZATION ( #777, #704, #510 ) ;
#20 = DIRECTION ( 'NONE',  ( -1.000000000000000000, 3.241712115390480395E-18, -0.000000000000000000 ) ) ;
#21 = ORIENTED_EDGE ( 'NONE', *, *, #336, .F. ) ;
#22 = VECTOR ( 'NONE', #20, 1000.000000000000000 ) ;
#23 = DIRECTION ( 'NONE',  ( 1.000000000000000000, -3.241712115390480395E-18, 0.000000000000000000 ) ) ;
#24 = APPROVAL_PERSON_ORGANIZATION ( #183, #658, #193 ) ;
#25 = CYLINDRICAL_SURFACE ( 'NONE', #501, 22.49999999999998934 ) ;
#26 = AXIS2_PLACEMENT_3D ( 'NONE', #231, #531, #611 ) ;
#27 = AXIS2_PLACEMENT_3D ( 'NONE', #1011, #422, #48 ) ;
#28 = CALENDAR_DATE ( 2026, 16, 9 ) ;
#29 = APPROVAL ( #698, 'UNSPECIFIED' ) ;
#30 = AXIS2_PLACEMENT_3D ( 'NONE', #846, #671, #401 ) ;
#31 = EDGE_CURVE ( 'NONE', #921, #998, #62, .T. ) ;
#32 = ORIENTED_EDGE ( 'NONE', *, *, #699, .F. ) ;
#33 = DIRECTION ( 'NONE',  ( -1.000000000000000000, 3.241712115390480395E-18, -0.000000000000000000 ) ) ;
#34 = DATE_TIME_ROLE ( 'classification_date' ) ;
#35 = DIRECTION ( 'NONE',  ( 1.000000000000000000, -3.241712115390480395E-18, 0.000000000000000000 ) ) ;
#36 = EDGE_CURVE ( 'NONE', #398, #248, #211, .T. ) ;
#37 = APPROVAL_DATE_TIME ( #270, #704 ) ;
#38 = ORIENTED_EDGE ( 'NONE', *, *, #848, .F. ) ;
#39 = ORIENTED_EDGE ( 'NONE', *, *, #649, .F. ) ;
#40 = CC_DESIGN_PERSON_AND_ORGANIZATION_ASSIGNMENT ( #354, #346, ( #321 ) ) ;
#41 = VECTOR ( 'NONE', #627, 1000.000000000000000 ) ;
#42 = ADVANCED_FACE ( 'NONE', ( #784 ), #700, .F. ) ;
#43 = CIRCLE ( 'NONE', #179, 22.49999999999998579 ) ;
#44 = PERSON_AND_ORGANIZATION_ROLE ( 'design_owner' ) ;
#45 = AXIS2_PLACEMENT_3D ( 'NONE', #530, #606, #942 ) ;
#46 = CIRCLE ( 'NONE', #643, 19.49999999999998579 ) ;
#47 = ORIENTED_EDGE ( 'NONE', *, *, #848, .T. ) ;
#48 = DIRECTION ( 'NONE',  ( 0.000000000000000000, 1.000000000000000000, 0.000000000000000000 ) ) ;
#49 = EDGE_CURVE ( 'NONE', #248, #398, #603, .T. ) ;
#50 = CARTESIAN_POINT ( 'NONE',  ( -30.86923171819556799, -23.99999999999997158, 0.000000000000000000 ) ) ;
#51 = DIRECTION ( 'NONE',  ( -1.000000000000000000, 3.241712115390480395E-18, -0.000000000000000000 ) ) ;
#52 = EDGE_CURVE ( 'NONE', #190, #147, #570, .T. ) ;
#53 = DIRECTION ( 'NONE',  ( 0.000000000000000000, -1.000000000000000000, 0.000000000000000000 ) ) ;
#54 = DIRECTION ( 'NONE',  ( -1.000000000000000000, 3.241712115390480395E-18, -0.000000000000000000 ) ) ;
#55 = ORIENTED_EDGE ( 'NONE', *, *, #364, .T. ) ;
#56 = DIRECTION ( 'NONE',  ( 0.000000000000000000, 1.000000000000000000, 0.000000000000000000 ) ) ;
#57 = CARTESIAN_POINT ( 'NONE',  ( -28.16346035225550537, 22.09807621135332312, 0.000000000000000000 ) ) ;
#58 = FACE_OUTER_BOUND ( 'NONE', #830, .T. ) ;
#59 = DIRECTION ( 'NONE',  ( -1.000000000000000000, 3.241712115390480395E-18, -0.000000000000000000 ) ) ;
#60 = TOROIDAL_SURFACE ( 'NONE', #196, 23.99999999999998579, 3.000000000000000000 ) ;
#61 = DIRECTION ( 'NONE',  ( 3.969952365870146765E-34, 1.224646799147353207E-16, 1.000000000000000000 ) ) ;
#62 = CIRCLE ( 'NONE', #860, 20.99999999999998579 ) ;
#63 = EDGE_CURVE ( 'NONE', #966, #893, #973, .T. ) ;
#64 = DIRECTION ( 'NONE',  ( -1.000000000000000000, 3.241712115390480395E-18, -0.000000000000000000 ) ) ;
#65 = ORIENTED_EDGE ( 'NONE', *, *, #265, .F. ) ;
#66 = TOROIDAL_SURFACE ( 'NONE', #827, 20.99999999999998579, 3.000000000000000000 ) ;
#67 = CARTESIAN_POINT ( 'NONE',  ( -26.71730792954887690, -21.20096189432331713, 2.596369012272807471E-15 ) ) ;
#68 = CARTESIAN_POINT ( 'NONE',  ( -27.41346035225550182, -20.79903810567663669, 2.547147544146074274E-15 ) ) ;
#69 = CARTESIAN_POINT ( 'NONE',  ( 26.66346035225554445, 1.255075043902044596E-14, 0.000000000000000000 ) ) ;
#70 = ORIENTED_EDGE ( 'NONE', *, *, #592, .T. ) ;
#71 = EDGE_CURVE ( 'NONE', #223, #168, #748, .T. ) ;
#72 = DIRECTION ( 'NONE',  ( 0.000000000000000000, -1.000000000000000000, 1.224646799147351975E-16 ) ) ;
#73 = CARTESIAN_POINT ( 'NONE',  ( 85.00000000000000000, 1.236164017167439692E-14, 0.000000000000000000 ) ) ;
#74 = LINE ( 'NONE', #235, #291 ) ;
#75 = ORIENTED_EDGE ( 'NONE', *, *, #994, .F. ) ;
#76 = APPLICATION_PROTOCOL_DEFINITION ( 'international standard', 'config_control_design', 1994, #898 ) ;
#77 = AXIS2_PLACEMENT_3D ( 'NONE', #931, #134, #621 ) ;
#78 = CARTESIAN_POINT ( 'NONE',  ( -30.86923171819556799, 19.50000000000000000, 2.388061258337336967E-15 ) ) ;
#79 = ORGANIZATION ( 'UNSPECIFIED', 'UNSPECIFIED', '' ) ;
#80 = DIRECTION ( 'NONE',  ( 0.000000000000000000, 1.000000000000000000, 0.000000000000000000 ) ) ;
#81 = ORIENTED_EDGE ( 'NONE', *, *, #237, .T. ) ;
#82 = VECTOR ( 'NONE', #584, 1000.000000000000000 ) ;
#83 = DIRECTION ( 'NONE',  ( 0.000000000000000000, -1.000000000000000000, 0.000000000000000000 ) ) ;
#84 = EDGE_CURVE ( 'NONE', #200, #585, #274, .T. ) ;
#85 = CARTESIAN_POINT ( 'NONE',  ( -85.00000000000000000, 19.50000000000000000, 2.388061258337336967E-15 ) ) ;
#86 = ORIENTED_EDGE ( 'NONE', *, *, #929, .T. ) ;
#87 = LINE ( 'NONE', #502, #856 ) ;
#88 = DIRECTION ( 'NONE',  ( 0.000000000000000000, -1.000000000000000000, 0.000000000000000000 ) ) ;
#89 = CARTESIAN_POINT ( 'NONE',  ( 30.86923171819556799, 1.253711653902891648E-14, 0.000000000000000000 ) ) ;
#90 = EDGE_CURVE ( 'NONE', #701, #895, #955, .T. ) ;
#91 = ORIENTED_EDGE ( 'NONE', *, *, #987, .F. ) ;
#92 = ORIENTED_EDGE ( 'NONE', *, *, #1017, .T. ) ;
#93 = CARTESIAN_POINT ( 'NONE',  ( -85.00000000000000000, 22.50000000000000355, 2.755455298081543200E-15 ) ) ;
#94 = LOCAL_TIME ( 0, 4, 1.000000000000000000, #438 ) ;
#95 = FACE_OUTER_BOUND ( 'NONE', #657, .T. ) ;
#96 = DIRECTION ( 'NONE',  ( 0.000000000000000000, 1.000000000000000000, 0.000000000000000000 ) ) ;
#97 = VECTOR ( 'NONE', #647, 1000.000000000000000 ) ;
#98 = ORIENTED_EDGE ( 'NONE', *, *, #1062, .F. ) ;
#99 = EDGE_CURVE ( 'NONE', #384, #966, #341, .T. ) ;
#100 = VECTOR ( 'NONE', #1020, 1000.000000000000000 ) ;
#101 = CIRCLE ( 'NONE', #1009, 22.29903810567663669 ) ;
#102 = FACE_OUTER_BOUND ( 'NONE', #914, .T. ) ;
#103 = ORIENTED_EDGE ( 'NONE', *, *, #319, .T. ) ;
#104 = ADVANCED_FACE ( 'NONE', ( #58 ), #137, .T. ) ;
#105 = ADVANCED_FACE ( 'NONE', ( #383 ), #484, .T. ) ;
#106 = ORIENTED_EDGE ( 'NONE', *, *, #1003, .T. ) ;
#107 = CARTESIAN_POINT ( 'NONE',  ( -85.00000000000000000, 1.291273123129077766E-14, 0.000000000000000000 ) ) ;
#108 = APPROVAL_DATE_TIME ( #424, #29 ) ;
#109 = ADVANCED_FACE ( 'NONE', ( #710 ), #814, .F. ) ;
#110 = DIRECTION ( 'NONE',  ( -1.000000000000000000, 0.000000000000000000, 0.000000000000000000 ) ) ;
#111 = DIRECTION ( 'NONE',  ( -1.000000000000000000, 3.241712115390480395E-18, -0.000000000000000000 ) ) ;
#112 = CARTESIAN_POINT ( 'NONE',  ( -26.66346035225550182, 1.272362096394472862E-14, 0.000000000000000000 ) ) ;
#113 = AXIS2_PLACEMENT_3D ( 'NONE', #555, #216, #298 ) ;
#114 = PERSON_AND_ORGANIZATION_ROLE ( 'design_supplier' ) ;
#115 = AXIS2_PLACEMENT_3D ( 'NONE', #896, #1058, #145 ) ;
#116 = CIRCLE ( 'NONE', #715, 2.999999999999999112 ) ;
#117 = EDGE_LOOP ( 'NONE', ( #880, #758, #932, #32 ) ) ;
#118 = DIRECTION ( 'NONE',  ( 0.000000000000000000, -1.000000000000000000, 0.000000000000000000 ) ) ;
#119 = ORIENTED_EDGE ( 'NONE', *, *, #788, .T. ) ;
#120 = CARTESIAN_POINT ( 'NONE',  ( 26.66346035225554445, 1.255075043902044596E-14, 0.000000000000000000 ) ) ;
#121 = VERTEX_POINT ( 'NONE', #131 ) ;
#122 = CARTESIAN_POINT ( 'NONE',  ( 29.36923171819555378, 1.254197910720200315E-14, 0.000000000000000000 ) ) ;
#123 = CIRCLE ( 'NONE', #466, 23.59807621135329114 ) ;
#124 = CIRCLE ( 'NONE', #443, 20.10288568297001177 ) ;
#125 = CARTESIAN_POINT ( 'NONE',  ( -30.86923171819556799, -23.99999999999997158, 0.000000000000000000 ) ) ;
#126 = CIRCLE ( 'NONE', #12, 19.49999999999998579 ) ;
#127 = DIRECTION ( 'NONE',  ( 1.000000000000000000, -3.241712115390480395E-18, 0.000000000000000000 ) ) ;
#128 = ADVANCED_FACE ( 'NONE', ( #388 ), #749, .F. ) ;
#129 = DIRECTION ( 'NONE',  ( 1.000000000000000000, -3.241712115390480395E-18, 0.000000000000000000 ) ) ;
#130 = CARTESIAN_POINT ( 'NONE',  ( -26.66346035225550182, -20.99999999999997513, 0.000000000000000000 ) ) ;
#131 = CARTESIAN_POINT ( 'NONE',  ( 85.00000000000000000, -23.99999999999997158, 0.000000000000000000 ) ) ;
#132 = CARTESIAN_POINT ( 'NONE',  ( 30.81538414090220002, 22.70096189432334555, 0.000000000000000000 ) ) ;
#133 = ORIENTED_EDGE ( 'NONE', *, *, #286, .T. ) ;
#134 = DIRECTION ( 'NONE',  ( 1.000000000000000000, -3.241712115390480395E-18, 0.000000000000000000 ) ) ;
#135 = CARTESIAN_POINT ( 'NONE',  ( -30.86923171819556799, 1.273725486393625653E-14, 0.000000000000000000 ) ) ;
#136 = ADVANCED_FACE ( 'NONE', ( #461 ), #956, .T. ) ;
#137 = CYLINDRICAL_SURFACE ( 'NONE', #26, 20.99999999999998579 ) ;
#138 = DIRECTION ( 'NONE',  ( -1.000000000000000000, 3.241712115390480395E-18, -0.000000000000000000 ) ) ;
#139 = CIRCLE ( 'NONE', #272, 1.500000000000001332 ) ;
#140 = CARTESIAN_POINT ( 'NONE',  ( 30.86923171819556799, 22.50000000000000000, 2.755455298081542806E-15 ) ) ;
#141 = DIRECTION ( 'NONE',  ( 1.000000000000000000, -3.241712115390480395E-18, 0.000000000000000000 ) ) ;
#142 = AXIS2_PLACEMENT_3D ( 'NONE', #828, #581, #922 ) ;
#143 = AXIS2_PLACEMENT_3D ( 'NONE', #866, #191, #518 ) ;
#144 = ORIENTED_EDGE ( 'NONE', *, *, #63, .F. ) ;
#145 = DIRECTION ( 'NONE',  ( 0.000000000000000000, -1.000000000000000000, 0.000000000000000000 ) ) ;
#146 = ORIENTED_EDGE ( 'NONE', *, *, #972, .F. ) ;
#147 = VERTEX_POINT ( 'NONE', #894 ) ;
#148 = AXIS2_PLACEMENT_3D ( 'NONE', #919, #331, #574 ) ;
#149 = DIRECTION ( 'NONE',  ( -1.000000000000000000, 3.241712115390480395E-18, -0.000000000000000000 ) ) ;
#150 = ORIENTED_EDGE ( 'NONE', *, *, #723, .F. ) ;
#151 = FACE_OUTER_BOUND ( 'NONE', #803, .T. ) ;
#152 = ORIENTED_EDGE ( 'NONE', *, *, #1, .T. ) ;
#153 = EDGE_CURVE ( 'NONE', #411, #618, #662, .T. ) ;
#154 = DIRECTION ( 'NONE',  ( 0.000000000000000000, -1.000000000000000000, -1.224646799147353454E-16 ) ) ;
#155 = CARTESIAN_POINT ( 'NONE',  ( 30.11923171819556089, 22.29903810567665090, 0.000000000000000000 ) ) ;
#156 = ORIENTED_EDGE ( 'NONE', *, *, #84, .T. ) ;
#157 = DIRECTION ( 'NONE',  ( 0.000000000000000000, 1.000000000000000000, 0.000000000000000000 ) ) ;
#158 = CIRCLE ( 'NONE', #586, 22.49999999999998579 ) ;
#159 = PRODUCT_DEFINITION_FORMATION_WITH_SPECIFIED_SOURCE ( 'ANY', '', #598, .NOT_KNOWN. ) ;
#160 = AXIS2_PLACEMENT_3D ( 'NONE', #888, #1038, #293 ) ;
#161 = CARTESIAN_POINT ( 'NONE',  ( -27.46730792954888045, 1.272622680637496710E-14, 0.000000000000000000 ) ) ;
#162 = ORIENTED_EDGE ( 'NONE', *, *, #902, .F. ) ;
#163 = ORIENTED_EDGE ( 'NONE', *, *, #319, .F. ) ;
#164 = AXIS2_PLACEMENT_3D ( 'NONE', #498, #317, #900 ) ;
#165 = CARTESIAN_POINT ( 'NONE',  ( 30.11923171819556089, -22.29903810567662248, 2.730844564018175024E-15 ) ) ;
#166 = EDGE_CURVE ( 'NONE', #121, #1064, #706, .T. ) ;
#167 = DIRECTION ( 'NONE',  ( 0.000000000000000000, 1.000000000000000000, 0.000000000000000000 ) ) ;
#168 = VERTEX_POINT ( 'NONE', #808 ) ;
#169 = ORIENTED_EDGE ( 'NONE', *, *, #666, .F. ) ;
#170 = DIRECTION ( 'NONE',  ( -1.000000000000000000, 3.241712115390480395E-18, -0.000000000000000000 ) ) ;
#171 = CARTESIAN_POINT ( 'NONE',  ( 28.91346035225556577, -21.60288568297001532, 2.688217522208858832E-15 ) ) ;
#172 = ADVANCED_FACE ( 'NONE', ( #720 ), #275, .T. ) ;
#173 = DIRECTION ( 'NONE',  ( 0.000000000000000000, -1.000000000000000000, 1.224646799147353454E-16 ) ) ;
#174 = VERTEX_POINT ( 'NONE', #68 ) ;
#175 = ORIENTED_EDGE ( 'NONE', *, *, #16, .F. ) ;
#176 = CARTESIAN_POINT ( 'NONE',  ( -27.41346035225550182, 1.272605224803127195E-14, 0.000000000000000000 ) ) ;
#177 = EDGE_CURVE ( 'NONE', #701, #629, #486, .T. ) ;
#178 = CARTESIAN_POINT ( 'NONE',  ( 26.66346035225554445, 22.50000000000000355, 2.755455298081543200E-15 ) ) ;
#179 = AXIS2_PLACEMENT_3D ( 'NONE', #485, #667, #83 ) ;
#180 = VERTEX_POINT ( 'NONE', #171 ) ;
#181 = AXIS2_PLACEMENT_3D ( 'NONE', #1026, #450, #881 ) ;
#182 = CIRCLE ( 'NONE', #164, 1.500000000000001332 ) ;
#183 = PERSON_AND_ORGANIZATION ( #899, #79 ) ;
#184 = CARTESIAN_POINT ( 'NONE',  ( -27.46730792954888045, 1.272622680637496710E-14, 0.000000000000000000 ) ) ;
#185 = FACE_OUTER_BOUND ( 'NONE', #811, .T. ) ;
#186 = ORIENTED_EDGE ( 'NONE', *, *, #279, .F. ) ;
#187 = EDGE_CURVE ( 'NONE', #1047, #794, #414, .T. ) ;
#188 = COORDINATED_UNIVERSAL_TIME_OFFSET ( 1, 0, .AHEAD. ) ;
#189 = DIRECTION ( 'NONE',  ( 0.000000000000000000, -1.000000000000000000, 0.000000000000000000 ) ) ;
#190 = VERTEX_POINT ( 'NONE', #913 ) ;
#191 = DIRECTION ( 'NONE',  ( 1.000000000000000000, -3.241712115390480395E-18, 0.000000000000000000 ) ) ;
#192 = DIRECTION ( 'NONE',  ( -1.000000000000000000, 0.000000000000000000, 0.000000000000000000 ) ) ;
#193 = APPROVAL_ROLE ( '' ) ;
#194 = FACE_OUTER_BOUND ( 'NONE', #219, .T. ) ;
#195 = ORIENTED_EDGE ( 'NONE', *, *, #780, .T. ) ;
#196 = AXIS2_PLACEMENT_3D ( 'NONE', #135, #790, #297 ) ;
#197 = DIRECTION ( 'NONE',  ( 0.000000000000000000, 1.000000000000000000, 0.000000000000000000 ) ) ;
#198 = AXIS2_PLACEMENT_3D ( 'NONE', #778, #693, #1024 ) ;
#199 = ADVANCED_FACE ( 'NONE', ( #95 ), #553, .T. ) ;
#200 = VERTEX_POINT ( 'NONE', #78 ) ;
#201 = CARTESIAN_POINT ( 'NONE',  ( 28.91346035225556577, 21.60288568297004375, 0.000000000000000000 ) ) ;
#202 = COORDINATED_UNIVERSAL_TIME_OFFSET ( 1, 0, .AHEAD. ) ;
#203 = EDGE_CURVE ( 'NONE', #798, #895, #871, .T. ) ;
#204 = ORIENTED_EDGE ( 'NONE', *, *, #418, .T. ) ;
#205 = ORIENTED_EDGE ( 'NONE', *, *, #336, .T. ) ;
#206 = DIRECTION ( 'NONE',  ( 1.000000000000000000, -3.241712115390480395E-18, 0.000000000000000000 ) ) ;
#207 = ADVANCED_FACE ( 'NONE', ( #505 ), #785, .T. ) ;
#208 = DIRECTION ( 'NONE',  ( 0.000000000000000000, -1.000000000000000000, 0.000000000000000000 ) ) ;
#209 = LINE ( 'NONE', #779, #100 ) ;
#210 = AXIS2_PLACEMENT_3D ( 'NONE', #952, #454, #1013 ) ;
#211 = CIRCLE ( 'NONE', #198, 20.99999999999998579 ) ;
#212 = DIRECTION ( 'NONE',  ( 0.000000000000000000, -0.000000000000000000, -1.000000000000000000 ) ) ;
#213 = DIRECTION ( 'NONE',  ( -1.000000000000000000, 3.241712115390480395E-18, -0.000000000000000000 ) ) ;
#214 = VECTOR ( 'NONE', #712, 1000.000000000000000 ) ;
#215 = CIRCLE ( 'NONE', #489, 22.29903810567663669 ) ;
#216 = DIRECTION ( 'NONE',  ( -1.000000000000000000, 3.241712115390480395E-18, -0.000000000000000000 ) ) ;
#217 = EDGE_LOOP ( 'NONE', ( #755, #1010, #152, #144 ) ) ;
#218 = CARTESIAN_POINT ( 'NONE',  ( 85.00000000000000000, 24.00000000000000000, 0.000000000000000000 ) ) ;
#219 = EDGE_LOOP ( 'NONE', ( #915, #465, #1016, #21 ) ) ;
#220 = DIRECTION ( 'NONE',  ( -1.000000000000000000, 3.241712115390480395E-18, -0.000000000000000000 ) ) ;
#221 = CARTESIAN_POINT ( 'NONE',  ( 29.36923171819555378, 1.254197910720200315E-14, 0.000000000000000000 ) ) ;
#222 = CARTESIAN_POINT ( 'NONE',  ( 30.86923171819556799, 1.253711653902891648E-14, 0.000000000000000000 ) ) ;
#223 = VERTEX_POINT ( 'NONE', #984 ) ;
#224 = LINE ( 'NONE', #957, #234 ) ;
#225 = VERTEX_POINT ( 'NONE', #492 ) ;
#226 = DIRECTION ( 'NONE',  ( -1.000000000000000000, 3.241712115390480395E-18, -0.000000000000000000 ) ) ;
#227 = ORIENTED_EDGE ( 'NONE', *, *, #929, .F. ) ;
#228 = DIRECTION ( 'NONE',  ( 3.241712115390480395E-18, 1.000000000000000000, 0.000000000000000000 ) ) ;
#229 = ORIENTED_EDGE ( 'NONE', *, *, #909, .F. ) ;
#230 = CIRCLE ( 'NONE', #77, 23.99999999999998579 ) ;
#231 = CARTESIAN_POINT ( 'NONE',  ( -85.00000000000000000, 1.291273123129077766E-14, 0.000000000000000000 ) ) ;
#232 = ADVANCED_FACE ( 'NONE', ( #353 ), #868, .F. ) ;
#233 = VECTOR ( 'NONE', #437, 1000.000000000000114 ) ;
#234 = VECTOR ( 'NONE', #54, 1000.000000000000000 ) ;
#235 = CARTESIAN_POINT ( 'NONE',  ( 30.81538414090220002, -22.70096189432332068, 2.780066032144910588E-15 ) ) ;
#236 = CARTESIAN_POINT ( 'NONE',  ( -85.00000000000000000, 1.291273123129077766E-14, 0.000000000000000000 ) ) ;
#237 = EDGE_CURVE ( 'NONE', #180, #262, #925, .T. ) ;
#238 = CARTESIAN_POINT ( 'NONE',  ( -30.86923171819556799, 21.00000000000000000, 2.571758278209440083E-15 ) ) ;
#239 = ORIENTED_EDGE ( 'NONE', *, *, #440, .F. ) ;
#240 = DIRECTION ( 'NONE',  ( 1.000000000000000000, -3.241712115390480395E-18, 0.000000000000000000 ) ) ;
#241 = DIRECTION ( 'NONE',  ( 1.000000000000000000, -3.241712115390480395E-18, 0.000000000000000000 ) ) ;
#242 = ORIENTED_EDGE ( 'NONE', *, *, #534, .F. ) ;
#243 = EDGE_LOOP ( 'NONE', ( #928, #499 ) ) ;
#244 = DIRECTION ( 'NONE',  ( -3.969952365870146765E-34, -1.224646799147353207E-16, 1.000000000000000000 ) ) ;
#245 = AXIS2_PLACEMENT_3D ( 'NONE', #1028, #213, #943 ) ;
#246 = CARTESIAN_POINT ( 'NONE',  ( -30.86923171819556799, 1.273725486393625810E-14, 0.000000000000000000 ) ) ;
#247 = AXIS2_PLACEMENT_3D ( 'NONE', #112, #206, #343 ) ;
#248 = VERTEX_POINT ( 'NONE', #609 ) ;
#249 = CIRCLE ( 'NONE', #863, 21.40192378864667333 ) ;
#250 = CARTESIAN_POINT ( 'NONE',  ( 30.11923171819556089, 1.253954782311545982E-14, 0.000000000000000000 ) ) ;
#251 = ORIENTED_EDGE ( 'NONE', *, *, #635, .T. ) ;
#252 = CARTESIAN_POINT ( 'NONE',  ( 29.36923171819555378, -23.59807621135327693, 2.889930849826910753E-15 ) ) ;
#253 = DIRECTION ( 'NONE',  ( 1.000000000000000000, -3.241712115390480395E-18, 0.000000000000000000 ) ) ;
#254 = ORIENTED_EDGE ( 'NONE', *, *, #1048, .T. ) ;
#255 = DIRECTION ( 'NONE',  ( 1.000000000000000000, -3.241712115390480395E-18, 0.000000000000000000 ) ) ;
#256 = CIRCLE ( 'NONE', #337, 20.99999999999998579 ) ;
#257 = DIRECTION ( 'NONE',  ( 1.000000000000000000, -3.241712115390480395E-18, 0.000000000000000000 ) ) ;
#258 = EDGE_LOOP ( 'NONE', ( #719, #884, #458, #38 ) ) ;
#259 = AXIS2_PLACEMENT_3D ( 'NONE', #965, #305, #873 ) ;
#260 = CIRCLE ( 'NONE', #874, 22.09807621135331601 ) ;
#261 = APPROVAL_DATE_TIME ( #520, #658 ) ;
#262 = VERTEX_POINT ( 'NONE', #201 ) ;
#263 = ADVANCED_FACE ( 'NONE', ( #864 ), #526, .T. ) ;
#264 = LINE ( 'NONE', #696, #233 ) ;
#265 = EDGE_CURVE ( 'NONE', #585, #907, #824, .T. ) ;
#266 = PERSON_AND_ORGANIZATION ( #899, #79 ) ;
#267 = DIRECTION ( 'NONE',  ( -1.000000000000000000, 0.000000000000000000, 0.000000000000000000 ) ) ;
#268 = DIRECTION ( 'NONE',  ( 0.000000000000000000, -1.000000000000000000, 0.000000000000000000 ) ) ;
#269 = ADVANCED_FACE ( 'NONE', ( #1015 ), #675, .T. ) ;
#270 = DATE_AND_TIME ( #28, #764 ) ;
#271 = ORIENTED_EDGE ( 'NONE', *, *, #592, .F. ) ;
#272 = AXIS2_PLACEMENT_3D ( 'NONE', #543, #1035, #72 ) ;
#273 = DIRECTION ( 'NONE',  ( 1.000000000000000000, -3.241712115390480395E-18, 0.000000000000000000 ) ) ;
#274 = CIRCLE ( 'NONE', #160, 4.500000000000000888 ) ;
#275 = CONICAL_SURFACE ( 'NONE', #342, 23.99999999999998579, 0.5235987755983053660 ) ;
#276 = EDGE_CURVE ( 'NONE', #168, #223, #572, .T. ) ;
#277 = VERTEX_POINT ( 'NONE', #441 ) ;
#278 = CARTESIAN_POINT ( 'NONE',  ( -85.00000000000000000, 1.291273123129077766E-14, 0.000000000000000000 ) ) ;
#279 = EDGE_CURVE ( 'NONE', #629, #798, #209, .T. ) ;
#280 = ORIENTED_EDGE ( 'NONE', *, *, #635, .F. ) ;
#281 = EDGE_CURVE ( 'NONE', #529, #1045, #264, .T. ) ;
#282 = FACE_OUTER_BOUND ( 'NONE', #754, .T. ) ;
#283 = DIRECTION ( 'NONE',  ( 1.000000000000000000, -3.241712115390480395E-18, 0.000000000000000000 ) ) ;
#284 = DIRECTION ( 'NONE',  ( -1.000000000000000000, 3.241712115390480395E-18, -0.000000000000000000 ) ) ;
#285 = CARTESIAN_POINT ( 'NONE',  ( -30.86923171819556799, 1.273725486393625653E-14, 0.000000000000000000 ) ) ;
#286 = EDGE_CURVE ( 'NONE', #333, #121, #977, .T. ) ;
#287 = CARTESIAN_POINT ( 'NONE',  ( -28.16346035225550537, 1.272848353211781529E-14, 0.000000000000000000 ) ) ;
#288 = ORIENTED_EDGE ( 'NONE', *, *, #788, .F. ) ;
#289 = CIRCLE ( 'NONE', #727, 3.000000000000002665 ) ;
#290 = DIRECTION ( 'NONE',  ( 0.000000000000000000, -0.000000000000000000, -1.000000000000000000 ) ) ;
#291 = VECTOR ( 'NONE', #793, 1000.000000000000114 ) ;
#292 = AXIS2_PLACEMENT_3D ( 'NONE', #89, #253, #415 ) ;
#293 = DIRECTION ( 'NONE',  ( 0.000000000000000000, -1.000000000000000000, -1.224646799147352714E-16 ) ) ;
#294 = DIRECTION ( 'NONE',  ( 0.000000000000000000, 0.000000000000000000, -1.000000000000000000 ) ) ;
#295 = EDGE_LOOP ( 'NONE', ( #288, #659 ) ) ;
#296 = CC_DESIGN_PERSON_AND_ORGANIZATION_ASSIGNMENT ( #593, #114, ( #159 ) ) ;
#297 = DIRECTION ( 'NONE',  ( -3.241712115390480395E-18, -1.000000000000000000, 0.000000000000000000 ) ) ;
#298 = DIRECTION ( 'NONE',  ( -3.241712115390480395E-18, -1.000000000000000000, 0.000000000000000000 ) ) ;
#299 = ORIENTED_EDGE ( 'NONE', *, *, #626, .T. ) ;
#300 = DIRECTION ( 'NONE',  ( -1.000000000000000000, 3.241712115390480395E-18, -0.000000000000000000 ) ) ;
#301 = ORIENTED_EDGE ( 'NONE', *, *, #567, .F. ) ;
#302 = LINE ( 'NONE', #622, #802 ) ;
#303 = DIRECTION ( 'NONE',  ( 0.000000000000000000, 1.000000000000000000, 0.000000000000000000 ) ) ;
#304 = ORIENTED_EDGE ( 'NONE', *, *, #16, .T. ) ;
#305 = DIRECTION ( 'NONE',  ( -1.000000000000000000, 3.241712115390480395E-18, -0.000000000000000000 ) ) ;
#306 = ORIENTED_EDGE ( 'NONE', *, *, #10, .F. ) ;
#307 = AXIS2_PLACEMENT_3D ( 'NONE', #911, #244, #154 ) ;
#308 = AXIS2_PLACEMENT_3D ( 'NONE', #685, #111, #268 ) ;
#309 = FACE_BOUND ( 'NONE', #243, .T. ) ;
#310 = DIRECTION ( 'NONE',  ( -3.241712115390480395E-18, -1.000000000000000000, 0.000000000000000000 ) ) ;
#311 = ORIENTED_EDGE ( 'NONE', *, *, #633, .T. ) ;
#312 = LINE ( 'NONE', #826, #640 ) ;
#313 = CARTESIAN_POINT ( 'NONE',  ( 30.06538414090219291, 1.253972238145915496E-14, 0.000000000000000000 ) ) ;
#314 = DIRECTION ( 'NONE',  ( 1.000000000000000000, -3.241712115390480395E-18, 0.000000000000000000 ) ) ;
#315 = ORIENTED_EDGE ( 'NONE', *, *, #10, .T. ) ;
#316 = DIRECTION ( 'NONE',  ( -1.000000000000000000, 3.241712115390480395E-18, -0.000000000000000000 ) ) ;
#317 = DIRECTION ( 'NONE',  ( 0.000000000000000000, 0.000000000000000000, -1.000000000000000000 ) ) ;
#318 = EDGE_LOOP ( 'NONE', ( #9, #423, #47, #631 ) ) ;
#319 = EDGE_CURVE ( 'NONE', #1064, #850, #843, .T. ) ;
#320 = ORIENTED_EDGE ( 'NONE', *, *, #166, .F. ) ;
#321 = SECURITY_CLASSIFICATION ( '', '', #944 ) ;
#322 = CARTESIAN_POINT ( 'NONE',  ( -85.00000000000000000, 19.50000000000000000, 2.388061258337336967E-15 ) ) ;
#323 = DIRECTION ( 'NONE',  ( -1.000000000000000000, 3.241712115390480395E-18, -0.000000000000000000 ) ) ;
#324 = AXIS2_PLACEMENT_3D ( 'NONE', #725, #1056, #88 ) ;
#325 = ORIENTED_EDGE ( 'NONE', *, *, #780, .F. ) ;
#326 = ORIENTED_EDGE ( 'NONE', *, *, #400, .F. ) ;
#327 = DIRECTION ( 'NONE',  ( -1.000000000000000000, 3.241712115390480395E-18, -0.000000000000000000 ) ) ;
#328 = CARTESIAN_POINT ( 'NONE',  ( -28.61923171819557155, 20.10288568297002598, 0.000000000000000000 ) ) ;
#329 = ORIENTED_EDGE ( 'NONE', *, *, #349, .F. ) ;
#330 = ADVANCED_FACE ( 'NONE', ( #1025 ), #470, .F. ) ;
#331 = DIRECTION ( 'NONE',  ( -1.000000000000000000, 3.241712115390480395E-18, -0.000000000000000000 ) ) ;
#332 = ORIENTED_EDGE ( 'NONE', *, *, #372, .F. ) ;
#333 = VERTEX_POINT ( 'NONE', #776 ) ;
#334 = DIRECTION ( 'NONE',  ( 0.000000000000000000, 0.000000000000000000, -1.000000000000000000 ) ) ;
#335 = DIRECTION ( 'NONE',  ( 1.000000000000000000, 0.000000000000000000, 0.000000000000000000 ) ) ;
#336 = EDGE_CURVE ( 'NONE', #1047, #529, #926, .T. ) ;
#337 = AXIS2_PLACEMENT_3D ( 'NONE', #594, #129, #189 ) ;
#338 = DIRECTION ( 'NONE',  ( 0.000000000000000000, -1.000000000000000000, 0.000000000000000000 ) ) ;
#339 = AXIS2_PLACEMENT_3D ( 'NONE', #930, #683, #335 ) ;
#340 = ORIENTED_EDGE ( 'NONE', *, *, #833, .T. ) ;
#341 = CIRCLE ( 'NONE', #954, 21.40192378864667333 ) ;
#342 = AXIS2_PLACEMENT_3D ( 'NONE', #878, #141, #477 ) ;
#343 = DIRECTION ( 'NONE',  ( 0.000000000000000000, 1.000000000000000000, 0.000000000000000000 ) ) ;
#344 = CIRCLE ( 'NONE', #488, 1.500000000000001332 ) ;
#345 = AXIS2_PLACEMENT_3D ( 'NONE', #985, #314, #96 ) ;
#346 = PERSON_AND_ORGANIZATION_ROLE ( 'classification_officer' ) ;
#347 = DIRECTION ( 'NONE',  ( 0.000000000000000000, 1.000000000000000000, 0.000000000000000000 ) ) ;
#348 = ORIENTED_EDGE ( 'NONE', *, *, #945, .F. ) ;
#349 = EDGE_CURVE ( 'NONE', #1045, #794, #1060, .T. ) ;
#350 = DIRECTION ( 'NONE',  ( 0.000000000000000000, 1.000000000000000000, 0.000000000000000000 ) ) ;
#351 = DATE_AND_TIME ( #774, #1021 ) ;
#352 = ORIENTED_EDGE ( 'NONE', *, *, #1053, .T. ) ;
#353 = FACE_OUTER_BOUND ( 'NONE', #906, .T. ) ;
#354 = PERSON_AND_ORGANIZATION ( #899, #79 ) ;
#355 = ORIENTED_EDGE ( 'NONE', *, *, #1, .F. ) ;
#356 = AXIS2_PLACEMENT_3D ( 'NONE', #853, #703, #761 ) ;
#357 = AXIS2_PLACEMENT_3D ( 'NONE', #426, #1034, #795 ) ;
#358 = ORIENTED_EDGE ( 'NONE', *, *, #812, .T. ) ;
#359 = DIRECTION ( 'NONE',  ( 0.000000000000000000, 1.000000000000000000, 0.000000000000000000 ) ) ;
#360 = APPROVAL_STATUS ( 'not_yet_approved' ) ;
#361 = ORIENTED_EDGE ( 'NONE', *, *, #36, .T. ) ;
#362 = DIRECTION ( 'NONE',  ( -3.241712115390480395E-18, -1.000000000000000000, 0.000000000000000000 ) ) ;
#363 = CARTESIAN_POINT ( 'NONE',  ( 30.86923171819556799, 1.253711653902891648E-14, 0.000000000000000000 ) ) ;
#364 = EDGE_CURVE ( 'NONE', #618, #411, #126, .T. ) ;
#365 = CARTESIAN_POINT ( 'NONE',  ( 30.86923171819556799, 1.253711653902891648E-14, 0.000000000000000000 ) ) ;
#366 = ORIENTED_EDGE ( 'NONE', *, *, #90, .T. ) ;
#367 = CARTESIAN_POINT ( 'NONE',  ( -28.16346035225550537, -22.09807621135329470, 2.706233829954810003E-15 ) ) ;
#368 = CYLINDRICAL_SURFACE ( 'NONE', #747, 20.99999999999998579 ) ;
#369 = DIRECTION ( 'NONE',  ( 1.000000000000000000, -3.241712115390480395E-18, 0.000000000000000000 ) ) ;
#370 = ORIENTED_EDGE ( 'NONE', *, *, #945, .T. ) ;
#371 = DIRECTION ( 'NONE',  ( 3.969952365870146765E-34, 1.224646799147353207E-16, 1.000000000000000000 ) ) ;
#372 = EDGE_CURVE ( 'NONE', #174, #225, #751, .T. ) ;
#373 = ORIENTED_EDGE ( 'NONE', *, *, #349, .T. ) ;
#374 = AXIS2_PLACEMENT_3D ( 'NONE', #417, #334, #192 ) ;
#375 = AXIS2_PLACEMENT_3D ( 'NONE', #472, #226, #539 ) ;
#376 = CARTESIAN_POINT ( 'NONE',  ( -85.00000000000000000, 20.99999999999999645, 2.571758278209440083E-15 ) ) ;
#377 = AXIS2_PLACEMENT_3D ( 'NONE', #563, #506, #990 ) ;
#378 = DIRECTION ( 'NONE',  ( -1.000000000000000000, 3.241712115390480395E-18, -0.000000000000000000 ) ) ;
#379 = FACE_OUTER_BOUND ( 'NONE', #295, .T. ) ;
#380 = ORIENTED_EDGE ( 'NONE', *, *, #610, .T. ) ;
#381 = ADVANCED_FACE ( 'NONE', ( #282 ), #950, .T. ) ;
#382 = DIRECTION ( 'NONE',  ( -1.000000000000000000, 3.241712115390480395E-18, -0.000000000000000000 ) ) ;
#383 = FACE_OUTER_BOUND ( 'NONE', #557, .T. ) ;
#384 = VERTEX_POINT ( 'NONE', #879 ) ;
#385 = DIRECTION ( 'NONE',  ( 0.000000000000000000, -1.000000000000000000, 0.000000000000000000 ) ) ;
#386 = ORIENTED_EDGE ( 'NONE', *, *, #616, .T. ) ;
#387 = ADVANCED_FACE ( 'NONE', ( #464 ), #872, .F. ) ;
#388 = FACE_OUTER_BOUND ( 'NONE', #607, .T. ) ;
#389 = ORIENTED_EDGE ( 'NONE', *, *, #534, .T. ) ;
#390 = CC_DESIGN_SECURITY_CLASSIFICATION ( #321, ( #159 ) ) ;
#391 = CIRCLE ( 'NONE', #7, 4.500000000000000888 ) ;
#392 = CC_DESIGN_PERSON_AND_ORGANIZATION_ASSIGNMENT ( #419, #44, ( #598 ) ) ;
#393 = DIRECTION ( 'NONE',  ( 0.000000000000000000, 1.000000000000000000, 0.000000000000000000 ) ) ;
#394 = ADVANCED_FACE ( 'NONE', ( #617 ), #395, .F. ) ;
#395 = TOROIDAL_SURFACE ( 'NONE', #535, 25.49999999999998934, 3.000000000000000000 ) ;
#396 = AXIS2_PLACEMENT_3D ( 'NONE', #218, #718, #478 ) ;
#397 = FACE_OUTER_BOUND ( 'NONE', #591, .T. ) ;
#398 = VERTEX_POINT ( 'NONE', #809 ) ;
#399 = CARTESIAN_POINT ( 'NONE',  ( 28.16346035225555866, 22.90192378864669465, 0.000000000000000000 ) ) ;
#400 = EDGE_CURVE ( 'NONE', #794, #850, #910, .T. ) ;
#401 = DIRECTION ( 'NONE',  ( -1.000000000000000000, 0.000000000000000000, 0.000000000000000000 ) ) ;
#402 = ORIENTED_EDGE ( 'NONE', *, *, #462, .F. ) ;
#403 = DIRECTION ( 'NONE',  ( 3.241712115390480395E-18, 1.000000000000000000, 0.000000000000000000 ) ) ;
#404 = DIRECTION ( 'NONE',  ( 0.000000000000000000, 1.000000000000000000, 0.000000000000000000 ) ) ;
#405 = ORIENTED_EDGE ( 'NONE', *, *, #626, .F. ) ;
#406 = ORIENTED_EDGE ( 'NONE', *, *, #508, .T. ) ;
#407 = AXIS2_PLACEMENT_3D ( 'NONE', #971, #724, #1054 ) ;
#408 = AXIS2_PLACEMENT_3D ( 'NONE', #801, #369, #303 ) ;
#409 = AXIS2_PLACEMENT_3D ( 'NONE', #964, #623, #53 ) ;
#410 = CARTESIAN_POINT ( 'NONE',  ( -85.00000000000000000, 1.291273123129077766E-14, 0.000000000000000000 ) ) ;
#411 = VERTEX_POINT ( 'NONE', #892 ) ;
#412 = CONICAL_SURFACE ( 'NONE', #960, 22.49999999999998934, 0.5235987755982984826 ) ;
#413 = TOROIDAL_SURFACE ( 'NONE', #1042, 19.49999999999998934, 3.000000000000000000 ) ;
#414 = LINE ( 'NONE', #487, #939 ) ;
#415 = DIRECTION ( 'NONE',  ( 3.241712115390480395E-18, 1.000000000000000000, 0.000000000000000000 ) ) ;
#416 = ORIENTED_EDGE ( 'NONE', *, *, #508, .F. ) ;
#417 = CARTESIAN_POINT ( 'NONE',  ( -26.66346035225550182, 19.50000000000000355, 0.000000000000000000 ) ) ;
#418 = EDGE_CURVE ( 'NONE', #277, #223, #975, .T. ) ;
#419 = PERSON_AND_ORGANIZATION ( #899, #79 ) ;
#420 = DIRECTION ( 'NONE',  ( 1.000000000000000000, -3.241712115390480395E-18, 0.000000000000000000 ) ) ;
#421 = EDGE_LOOP ( 'NONE', ( #882, #481, #1041, #672 ) ) ;
#422 = DIRECTION ( 'NONE',  ( 1.000000000000000000, -3.241712115390480395E-18, 0.000000000000000000 ) ) ;
#423 = ORIENTED_EDGE ( 'NONE', *, *, #372, .T. ) ;
#424 = DATE_AND_TIME ( #587, #819 ) ;
#425 = CIRCLE ( 'NONE', #869, 4.500000000000003553 ) ;
#426 = CARTESIAN_POINT ( 'NONE',  ( -30.86923171819556799, 1.273725486393625810E-14, 0.000000000000000000 ) ) ;
#427 = VECTOR ( 'NONE', #1065, 1000.000000000000000 ) ;
#428 = DIRECTION ( 'NONE',  ( 1.000000000000000000, -3.241712115390480395E-18, 0.000000000000000000 ) ) ;
#429 = DIRECTION ( 'NONE',  ( -1.000000000000000000, 3.241712115390480395E-18, -0.000000000000000000 ) ) ;
#430 = PRODUCT_DEFINITION_SHAPE ( 'NONE', 'NONE',  #1039 ) ;
#431 = CIRCLE ( 'NONE', #115, 20.99999999999998224 ) ;
#432 = CIRCLE ( 'NONE', #377, 4.500000000000000888 ) ;
#433 = SHAPE_DEFINITION_REPRESENTATION ( #430, #583 ) ;
#434 = CC_DESIGN_DATE_AND_TIME_ASSIGNMENT ( #852, #34, ( #321 ) ) ;
#435 = EDGE_CURVE ( 'NONE', #180, #1052, #74, .T. ) ;
#436 = ORIENTED_EDGE ( 'NONE', *, *, #52, .F. ) ;
#437 = DIRECTION ( 'NONE',  ( 0.8660254037844352659, -0.5000000000000056621, 6.123233995736835061E-17 ) ) ;
#438 = COORDINATED_UNIVERSAL_TIME_OFFSET ( 1, 0, .AHEAD. ) ;
#439 = ORIENTED_EDGE ( 'NONE', *, *, #63, .T. ) ;
#440 = EDGE_CURVE ( 'NONE', #262, #551, #726, .T. ) ;
#441 = CARTESIAN_POINT ( 'NONE',  ( 26.66346035225554445, -22.49999999999997513, 0.000000000000000000 ) ) ;
#442 = DIRECTION ( 'NONE',  ( 0.000000000000000000, -1.000000000000000000, 0.000000000000000000 ) ) ;
#443 = AXIS2_PLACEMENT_3D ( 'NONE', #661, #240, #393 ) ;
#444 = DIRECTION ( 'NONE',  ( -1.000000000000000000, 3.241712115390480395E-18, -0.000000000000000000 ) ) ;
#445 = AXIS2_PLACEMENT_3D ( 'NONE', #733, #644, #750 ) ;
#446 = EDGE_CURVE ( 'NONE', #1052, #744, #344, .T. ) ;
#447 = CIRCLE ( 'NONE', #807, 22.49999999999998934 ) ;
#448 = DIRECTION ( 'NONE',  ( 0.000000000000000000, -1.000000000000000000, 1.224646799147353454E-16 ) ) ;
#449 = DIRECTION ( 'NONE',  ( -1.000000000000000000, 0.000000000000000000, 0.000000000000000000 ) ) ;
#450 = DIRECTION ( 'NONE',  ( -1.000000000000000000, 3.241712115390480395E-18, -0.000000000000000000 ) ) ;
#451 = ORIENTED_EDGE ( 'NONE', *, *, #456, .T. ) ;
#452 = CARTESIAN_POINT ( 'NONE',  ( 26.66346035225554445, 1.255075043902044596E-14, 0.000000000000000000 ) ) ;
#453 = ORIENTED_EDGE ( 'NONE', *, *, #902, .T. ) ;
#454 = DIRECTION ( 'NONE',  ( -1.000000000000000000, 3.241712115390480395E-18, -0.000000000000000000 ) ) ;
#455 = FACE_OUTER_BOUND ( 'NONE', #117, .T. ) ;
#456 = EDGE_CURVE ( 'NONE', #895, #798, #431, .T. ) ;
#457 = DIRECTION ( 'NONE',  ( 0.8660254037844388186, 0.4999999999999996669, 0.000000000000000000 ) ) ;
#458 = ORIENTED_EDGE ( 'NONE', *, *, #31, .T. ) ;
#459 = ORIENTED_EDGE ( 'NONE', *, *, #187, .T. ) ;
#460 = DIRECTION ( 'NONE',  ( -1.000000000000000000, 3.241712115390480395E-18, -0.000000000000000000 ) ) ;
#461 = FACE_OUTER_BOUND ( 'NONE', #986, .T. ) ;
#462 = EDGE_CURVE ( 'NONE', #333, #850, #224, .T. ) ;
#463 = ORIENTED_EDGE ( 'NONE', *, *, #400, .T. ) ;
#464 = FACE_OUTER_BOUND ( 'NONE', #740, .T. ) ;
#465 = ORIENTED_EDGE ( 'NONE', *, *, #610, .F. ) ;
#466 = AXIS2_PLACEMENT_3D ( 'NONE', #221, #284, #877 ) ;
#467 = CIRCLE ( 'NONE', #504, 22.49999999999998579 ) ;
#468 = AXIS2_PLACEMENT_3D ( 'NONE', #313, #844, #648 ) ;
#469 = CARTESIAN_POINT ( 'NONE',  ( -85.00000000000000000, -20.99999999999997158, 0.000000000000000000 ) ) ;
#470 = TOROIDAL_SURFACE ( 'NONE', #45, 19.49999999999998934, 1.500000000000000000 ) ;
#471 = CIRCLE ( 'NONE', #148, 22.49999999999998934 ) ;
#472 = CARTESIAN_POINT ( 'NONE',  ( -85.00000000000000000, 1.291273123129077766E-14, 0.000000000000000000 ) ) ;
#473 = ADVANCED_FACE ( 'NONE', ( #532 ), #996, .T. ) ;
#474 = DIRECTION ( 'NONE',  ( 1.000000000000000000, -3.241712115390480395E-18, 0.000000000000000000 ) ) ;
#475 = ORIENTED_EDGE ( 'NONE', *, *, #818, .T. ) ;
#476 = DIRECTION ( 'NONE',  ( 0.000000000000000000, -1.000000000000000000, 0.000000000000000000 ) ) ;
#477 = DIRECTION ( 'NONE',  ( 0.000000000000000000, 1.000000000000000000, 0.000000000000000000 ) ) ;
#478 = DIRECTION ( 'NONE',  ( -3.241712115390480395E-18, -1.000000000000000000, 0.000000000000000000 ) ) ;
#479 = ORIENTED_EDGE ( 'NONE', *, *, #1022, .F. ) ;
#480 = CARTESIAN_POINT ( 'NONE',  ( -26.71730792954887690, 21.20096189432334555, 0.000000000000000000 ) ) ;
#481 = ORIENTED_EDGE ( 'NONE', *, *, #818, .F. ) ;
#482 = ADVANCED_FACE ( 'NONE', ( #151 ), #66, .T. ) ;
#483 = CC_DESIGN_APPROVAL ( #29, ( #321 ) ) ;
#484 = TOROIDAL_SURFACE ( 'NONE', #113, 25.49999999999998934, 4.500000000000000888 ) ;
#485 = CARTESIAN_POINT ( 'NONE',  ( 30.86923171819556799, 1.253711653902891648E-14, 0.000000000000000000 ) ) ;
#486 = CIRCLE ( 'NONE', #324, 20.99999999999998579 ) ;
#487 = CARTESIAN_POINT ( 'NONE',  ( 30.06538414090219291, 24.00000000000000000, 0.000000000000000000 ) ) ;
#488 = AXIS2_PLACEMENT_3D ( 'NONE', #883, #371, #707 ) ;
#489 = AXIS2_PLACEMENT_3D ( 'NONE', #250, #1063, #490 ) ;
#490 = DIRECTION ( 'NONE',  ( 0.000000000000000000, 1.000000000000000000, 0.000000000000000000 ) ) ;
#491 = ORIENTED_EDGE ( 'NONE', *, *, #36, .F. ) ;
#492 = CARTESIAN_POINT ( 'NONE',  ( -27.41346035225550182, 20.79903810567666511, 0.000000000000000000 ) ) ;
#493 = EDGE_LOOP ( 'NONE', ( #186, #304, #366, #840 ) ) ;
#494 = DIRECTION ( 'NONE',  ( 3.969952365870146765E-34, 1.224646799147353207E-16, 1.000000000000000000 ) ) ;
#495 = ORIENTED_EDGE ( 'NONE', *, *, #1030, .T. ) ;
#496 = ORIENTED_EDGE ( 'NONE', *, *, #52, .T. ) ;
#497 = CYLINDRICAL_SURFACE ( 'NONE', #601, 20.99999999999998579 ) ;
#498 = CARTESIAN_POINT ( 'NONE',  ( 30.86923171819556799, 21.00000000000000000, 0.000000000000000000 ) ) ;
#499 = ORIENTED_EDGE ( 'NONE', *, *, #364, .F. ) ;
#500 = ORIENTED_EDGE ( 'NONE', *, *, #521, .F. ) ;
#501 = AXIS2_PLACEMENT_3D ( 'NONE', #682, #51, #554 ) ;
#502 = CARTESIAN_POINT ( 'NONE',  ( -85.00000000000000000, 21.00000000000000000, 2.571758278209440083E-15 ) ) ;
#503 = VECTOR ( 'NONE', #327, 1000.000000000000000 ) ;
#504 = AXIS2_PLACEMENT_3D ( 'NONE', #936, #35, #524 ) ;
#505 = FACE_OUTER_BOUND ( 'NONE', #1050, .T. ) ;
#506 = DIRECTION ( 'NONE',  ( -3.969952365870146765E-34, -1.224646799147353207E-16, 1.000000000000000000 ) ) ;
#507 = ORIENTED_EDGE ( 'NONE', *, *, #71, .F. ) ;
#508 = EDGE_CURVE ( 'NONE', #893, #728, #260, .T. ) ;
#509 = EDGE_CURVE ( 'NONE', #612, #277, #447, .T. ) ;
#510 = APPROVAL_ROLE ( '' ) ;
#511 = CARTESIAN_POINT ( 'NONE',  ( -29.36923171819557155, 1.273239229576316986E-14, 0.000000000000000000 ) ) ;
#512 = EDGE_LOOP ( 'NONE', ( #451, #546 ) ) ;
#513 = ADVANCED_FACE ( 'NONE', ( #722, #379 ), #545, .F. ) ;
#514 = CARTESIAN_POINT ( 'NONE',  ( 30.86923171819556799, 24.00000000000000000, 2.939152317953646317E-15 ) ) ;
#515 = PERSON_AND_ORGANIZATION ( #899, #79 ) ;
#516 = FACE_OUTER_BOUND ( 'NONE', #792, .T. ) ;
#517 = ORIENTED_EDGE ( 'NONE', *, *, #633, .F. ) ;
#518 = DIRECTION ( 'NONE',  ( 0.000000000000000000, 1.000000000000000000, 0.000000000000000000 ) ) ;
#519 = FACE_OUTER_BOUND ( 'NONE', #831, .T. ) ;
#520 = DATE_AND_TIME ( #759, #94 ) ;
#521 = EDGE_CURVE ( 'NONE', #1052, #551, #101, .T. ) ;
#522 = AXIS2_PLACEMENT_3D ( 'NONE', #542, #61, #448 ) ;
#523 = DIRECTION ( 'NONE',  ( 0.000000000000000000, 1.000000000000000000, 0.000000000000000000 ) ) ;
#524 = DIRECTION ( 'NONE',  ( 0.000000000000000000, -1.000000000000000000, 0.000000000000000000 ) ) ;
#525 = AXIS2_PLACEMENT_3D ( 'NONE', #946, #862, #442 ) ;
#526 = CYLINDRICAL_SURFACE ( 'NONE', #1007, 20.99999999999998579 ) ;
#527 = AXIS2_PLACEMENT_3D ( 'NONE', #1032, #138, #1040 ) ;
#528 = DIRECTION ( 'NONE',  ( 1.000000000000000000, -3.241712115390480395E-18, 0.000000000000000000 ) ) ;
#529 = VERTEX_POINT ( 'NONE', #550 ) ;
#530 = CARTESIAN_POINT ( 'NONE',  ( -26.66346035225550182, 1.272362096394472704E-14, 0.000000000000000000 ) ) ;
#531 = DIRECTION ( 'NONE',  ( -1.000000000000000000, 3.241712115390480395E-18, -0.000000000000000000 ) ) ;
#532 = FACE_OUTER_BOUND ( 'NONE', #541, .T. ) ;
#533 = UNCERTAINTY_MEASURE_WITH_UNIT (LENGTH_MEASURE( 1.000000000000000082E-05 ), #5, 'distance_accuracy_value', 'NONE');
#534 = EDGE_CURVE ( 'NONE', #585, #225, #540, .T. ) ;
#535 = AXIS2_PLACEMENT_3D ( 'NONE', #452, #59, #645 ) ;
#536 = CIRCLE ( 'NONE', #680, 21.60288568297002953 ) ;
#537 = CARTESIAN_POINT ( 'NONE',  ( 85.00000000000000000, 1.236164017167439692E-14, 0.000000000000000000 ) ) ;
#538 = DIRECTION ( 'NONE',  ( 3.241712115390480010E-18, 1.000000000000000000, 0.000000000000000000 ) ) ;
#539 = DIRECTION ( 'NONE',  ( 0.000000000000000000, 1.000000000000000000, 0.000000000000000000 ) ) ;
#540 = LINE ( 'NONE', #480, #82 ) ;
#541 = EDGE_LOOP ( 'NONE', ( #475, #156, #646, #632 ) ) ;
#542 = CARTESIAN_POINT ( 'NONE',  ( 30.86923171819556799, -20.99999999999997513, 2.571758278209440083E-15 ) ) ;
#543 = CARTESIAN_POINT ( 'NONE',  ( -26.66346035225550182, -19.49999999999997513, 2.388061258337337361E-15 ) ) ;
#544 = DIRECTION ( 'NONE',  ( 1.000000000000000000, -3.241712115390480395E-18, 0.000000000000000000 ) ) ;
#545 = PLANE ( 'NONE',  #396 ) ;
#546 = ORIENTED_EDGE ( 'NONE', *, *, #203, .T. ) ;
#547 = ADVANCED_FACE ( 'NONE', ( #397 ), #573, .F. ) ;
#548 = CARTESIAN_POINT ( 'NONE',  ( -85.00000000000000000, -23.99999999999997158, 0.000000000000000000 ) ) ;
#549 = EDGE_LOOP ( 'NONE', ( #491, #254, #796, #229 ) ) ;
#550 = CARTESIAN_POINT ( 'NONE',  ( 28.16346035225555866, -22.90192378864666622, 2.847303808017594561E-15 ) ) ;
#551 = VERTEX_POINT ( 'NONE', #155 ) ;
#552 = CIRCLE ( 'NONE', #210, 23.99999999999998579 ) ;
#553 = TOROIDAL_SURFACE ( 'NONE', #445, 19.49999999999998934, 3.000000000000000000 ) ;
#554 = DIRECTION ( 'NONE',  ( 0.000000000000000000, -1.000000000000000000, 0.000000000000000000 ) ) ;
#555 = CARTESIAN_POINT ( 'NONE',  ( 26.66346035225554445, 1.255075043902044596E-14, 0.000000000000000000 ) ) ;
#556 = EDGE_LOOP ( 'NONE', ( #175, #495, #854, #669 ) ) ;
#557 = EDGE_LOOP ( 'NONE', ( #741, #386, #817, #348 ) ) ;
#558 = LINE ( 'NONE', #67, #41 ) ;
#559 = DIRECTION ( 'NONE',  ( 0.000000000000000000, -1.000000000000000000, 0.000000000000000000 ) ) ;
#560 = EDGE_LOOP ( 'NONE', ( #815, #958, #271, #239 ) ) ;
#561 = ADVANCED_FACE ( 'NONE', ( #668 ), #413, .T. ) ;
#562 = CARTESIAN_POINT ( 'NONE',  ( -85.00000000000000000, 22.50000000000000000, 2.755455298081542806E-15 ) ) ;
#563 = CARTESIAN_POINT ( 'NONE',  ( 26.66346035225554445, 25.50000000000000355, 3.122849337825749039E-15 ) ) ;
#564 = EDGE_LOOP ( 'NONE', ( #689, #565, #575, #834 ) ) ;
#565 = ORIENTED_EDGE ( 'NONE', *, *, #660, .T. ) ;
#566 = CC_DESIGN_APPROVAL ( #658, ( #159 ) ) ;
#567 = EDGE_CURVE ( 'NONE', #262, #180, #536, .T. ) ;
#568 = TOROIDAL_SURFACE ( 'NONE', #245, 25.49999999999998934, 3.000000000000000000 ) ;
#569 = EDGE_CURVE ( 'NONE', #277, #529, #697, .T. ) ;
#570 = CIRCLE ( 'NONE', #823, 22.49999999999998579 ) ;
#571 = CARTESIAN_POINT ( 'NONE',  ( 30.86923171819556799, -23.99999999999997158, 0.000000000000000000 ) ) ;
#572 = CIRCLE ( 'NONE', #247, 22.49999999999998934 ) ;
#573 = CONICAL_SURFACE ( 'NONE', #345, 21.20096189432333134, 0.5235987755982984826 ) ;
#574 = DIRECTION ( 'NONE',  ( 0.000000000000000000, -1.000000000000000000, 0.000000000000000000 ) ) ;
#575 = ORIENTED_EDGE ( 'NONE', *, *, #1017, .F. ) ;
#576 = EDGE_LOOP ( 'NONE', ( #496, #600 ) ) ;
#577 = CARTESIAN_POINT ( 'NONE',  ( -85.00000000000000000, 1.291273123129077766E-14, 0.000000000000000000 ) ) ;
#578 = ADVANCED_FACE ( 'NONE', ( #1000 ), #738, .T. ) ;
#579 = DIRECTION ( 'NONE',  ( 1.000000000000000000, -3.241712115390480395E-18, 0.000000000000000000 ) ) ;
#580 = ORIENTED_EDGE ( 'NONE', *, *, #760, .F. ) ;
#581 = DIRECTION ( 'NONE',  ( -1.000000000000000000, 3.241712115390480395E-18, -0.000000000000000000 ) ) ;
#582 = ADVANCED_FACE ( 'NONE', ( #997 ), #412, .T. ) ;
#583 = ADVANCED_BREP_SHAPE_REPRESENTATION ( '79-8464 - Stegmuff. 48-45-42', ( #655, #339 ), #746 ) ;
#584 = DIRECTION ( 'NONE',  ( 0.8660254037844388186, 0.4999999999999996669, 0.000000000000000000 ) ) ;
#585 = VERTEX_POINT ( 'NONE', #328 ) ;
#586 = AXIS2_PLACEMENT_3D ( 'NONE', #537, #220, #338 ) ;
#587 = CALENDAR_DATE ( 2026, 16, 9 ) ;
#588 = VECTOR ( 'NONE', #457, 1000.000000000000000 ) ;
#589 = AXIS2_PLACEMENT_3D ( 'NONE', #222, #544, #1044 ) ;
#590 = AXIS2_PLACEMENT_3D ( 'NONE', #122, #444, #855 ) ;
#591 = EDGE_LOOP ( 'NONE', ( #162, #65, #389, #332 ) ) ;
#592 = EDGE_CURVE ( 'NONE', #551, #1052, #215, .T. ) ;
#593 = PERSON_AND_ORGANIZATION ( #899, #79 ) ;
#594 = CARTESIAN_POINT ( 'NONE',  ( -26.66346035225550182, 1.272362096394472862E-14, 0.000000000000000000 ) ) ;
#595 = ORIENTED_EDGE ( 'NONE', *, *, #90, .F. ) ;
#596 = ADVANCED_FACE ( 'NONE', ( #14 ), #787, .F. ) ;
#597 = COORDINATED_UNIVERSAL_TIME_OFFSET ( 1, 0, .AHEAD. ) ;
#598 = PRODUCT ( '79-8464 - Stegmuff. 48-45-42', '79-8464 - Stegmuff. 48-45-42', '', ( #688 ) ) ;
#599 = CYLINDRICAL_SURFACE ( 'NONE', #842, 22.49999999999998579 ) ;
#600 = ORIENTED_EDGE ( 'NONE', *, *, #771, .T. ) ;
#601 = AXIS2_PLACEMENT_3D ( 'NONE', #577, #170, #1061 ) ;
#602 = PERSON_AND_ORGANIZATION_ROLE ( 'creator' ) ;
#603 = CIRCLE ( 'NONE', #783, 20.99999999999998579 ) ;
#604 = CARTESIAN_POINT ( 'NONE',  ( -26.66346035225550182, 1.272362096394472862E-14, 0.000000000000000000 ) ) ;
#605 = CLOSED_SHELL ( 'NONE', ( #473, #330, #105, #918, #42, #596, #1043, #734, #232, #875, #561, #394, #652, #381, #207, #861, #582, #104, #961, #263, #677, #739, #172, #578, #513, #482, #841, #199, #387, #109, #547, #933, #4, #838, #128, #269, #959, #136 ) ) ;
#606 = DIRECTION ( 'NONE',  ( 1.000000000000000000, -3.241712115390480395E-18, 0.000000000000000000 ) ) ;
#607 = EDGE_LOOP ( 'NONE', ( #1014, #982, #8, #315 ) ) ;
#608 = ORIENTED_EDGE ( 'NONE', *, *, #177, .F. ) ;
#609 = CARTESIAN_POINT ( 'NONE',  ( 26.66346035225554445, -20.99999999999997513, 0.000000000000000000 ) ) ;
#610 = EDGE_CURVE ( 'NONE', #277, #612, #471, .T. ) ;
#611 = DIRECTION ( 'NONE',  ( 0.000000000000000000, -1.000000000000000000, 0.000000000000000000 ) ) ;
#612 = VERTEX_POINT ( 'NONE', #178 ) ;
#613 = DIRECTION ( 'NONE',  ( 0.000000000000000000, -1.000000000000000000, 0.000000000000000000 ) ) ;
#614 = FACE_OUTER_BOUND ( 'NONE', #745, .T. ) ;
#615 = DIRECTION ( 'NONE',  ( 0.000000000000000000, 1.000000000000000000, 0.000000000000000000 ) ) ;
#616 = EDGE_CURVE ( 'NONE', #398, #262, #432, .T. ) ;
#617 = FACE_OUTER_BOUND ( 'NONE', #564, .T. ) ;
#618 = VERTEX_POINT ( 'NONE', #85 ) ;
#619 = AXIS2_PLACEMENT_3D ( 'NONE', #969, #804, #310 ) ;
#620 = AXIS2_PLACEMENT_3D ( 'NONE', #2, #494, #173 ) ;
#621 = DIRECTION ( 'NONE',  ( 0.000000000000000000, 1.000000000000000000, 0.000000000000000000 ) ) ;
#622 = CARTESIAN_POINT ( 'NONE',  ( -85.00000000000000000, -20.99999999999997513, 0.000000000000000000 ) ) ;
#623 = DIRECTION ( 'NONE',  ( -1.000000000000000000, 3.241712115390480395E-18, -0.000000000000000000 ) ) ;
#624 = DIRECTION ( 'NONE',  ( 0.000000000000000000, -1.000000000000000000, 0.000000000000000000 ) ) ;
#625 = ORIENTED_EDGE ( 'NONE', *, *, #71, .T. ) ;
#626 = EDGE_CURVE ( 'NONE', #893, #168, #752, .T. ) ;
#627 = DIRECTION ( 'NONE',  ( 0.8660254037844388186, -0.4999999999999996669, 6.123233995736762338E-17 ) ) ;
#628 = DIRECTION ( 'NONE',  ( -1.000000000000000000, 3.241712115390480395E-18, -0.000000000000000000 ) ) ;
#629 = VERTEX_POINT ( 'NONE', #238 ) ;
#630 = DIRECTION ( 'NONE',  ( 0.000000000000000000, 1.000000000000000000, 0.000000000000000000 ) ) ;
#631 = ORIENTED_EDGE ( 'NONE', *, *, #699, .T. ) ;
#632 = ORIENTED_EDGE ( 'NONE', *, *, #833, .F. ) ;
#633 = EDGE_CURVE ( 'NONE', #200, #15, #46, .T. ) ;
#634 = CARTESIAN_POINT ( 'NONE',  ( 26.66346035225554445, -25.49999999999997513, 0.000000000000000000 ) ) ;
#635 = EDGE_CURVE ( 'NONE', #728, #223, #13, .T. ) ;
#636 = CARTESIAN_POINT ( 'NONE',  ( -29.36923171819557155, 1.273239229576316986E-14, 0.000000000000000000 ) ) ;
#637 = ORIENTED_EDGE ( 'NONE', *, *, #771, .F. ) ;
#638 = DIRECTION ( 'NONE',  ( -1.000000000000000000, 0.000000000000000000, 0.000000000000000000 ) ) ;
#639 = ORIENTED_EDGE ( 'NONE', *, *, #84, .F. ) ;
#640 = VECTOR ( 'NONE', #897, 1000.000000000000000 ) ;
#641 = AXIS2_PLACEMENT_3D ( 'NONE', #940, #428, #770 ) ;
#642 = FACE_OUTER_BOUND ( 'NONE', #512, .T. ) ;
#643 = AXIS2_PLACEMENT_3D ( 'NONE', #246, #656, #559 ) ;
#644 = DIRECTION ( 'NONE',  ( 1.000000000000000000, -3.241712115390480395E-18, 0.000000000000000000 ) ) ;
#645 = DIRECTION ( 'NONE',  ( -3.241712115390480395E-18, -1.000000000000000000, 0.000000000000000000 ) ) ;
#646 = ORIENTED_EDGE ( 'NONE', *, *, #265, .T. ) ;
#647 = DIRECTION ( 'NONE',  ( -1.000000000000000000, 3.241712115390480395E-18, -0.000000000000000000 ) ) ;
#648 = DIRECTION ( 'NONE',  ( 0.000000000000000000, 1.000000000000000000, 0.000000000000000000 ) ) ;
#649 = EDGE_CURVE ( 'NONE', #551, #920, #182, .T. ) ;
#650 = DIRECTION ( 'NONE',  ( 1.000000000000000000, -3.241712115390480395E-18, 0.000000000000000000 ) ) ;
#651 = ORIENTED_EDGE ( 'NONE', *, *, #177, .T. ) ;
#652 = ADVANCED_FACE ( 'NONE', ( #102 ), #772, .T. ) ;
#653 = ORIENTED_EDGE ( 'NONE', *, *, #1030, .F. ) ;
#654 = DIRECTION ( 'NONE',  ( -1.000000000000000000, 3.241712115390480395E-18, -0.000000000000000000 ) ) ;
#655 = MANIFOLD_SOLID_BREP ( 'Shell1', #605 ) ;
#656 = DIRECTION ( 'NONE',  ( -1.000000000000000000, 3.241712115390480395E-18, -0.000000000000000000 ) ) ;
#657 = EDGE_LOOP ( 'NONE', ( #280, #416, #299, #507 ) ) ;
#658 = APPROVAL ( #360, 'UNSPECIFIED' ) ;
#659 = ORIENTED_EDGE ( 'NONE', *, *, #286, .F. ) ;
#660 = EDGE_CURVE ( 'NONE', #612, #1047, #116, .T. ) ;
#661 = CARTESIAN_POINT ( 'NONE',  ( -28.61923171819557155, 1.272996101167663126E-14, 0.000000000000000000 ) ) ;
#662 = CIRCLE ( 'NONE', #375, 19.49999999999998579 ) ;
#663 = DIRECTION ( 'NONE',  ( 1.000000000000000000, -3.241712115390480395E-18, 0.000000000000000000 ) ) ;
#664 = EDGE_LOOP ( 'NONE', ( #75, #453, #98, #242 ) ) ;
#665 = ORIENTED_EDGE ( 'NONE', *, *, #435, .F. ) ;
#666 = EDGE_CURVE ( 'NONE', #966, #384, #249, .T. ) ;
#667 = DIRECTION ( 'NONE',  ( 1.000000000000000000, -3.241712115390480395E-18, 0.000000000000000000 ) ) ;
#668 = FACE_OUTER_BOUND ( 'NONE', #976, .T. ) ;
#669 = ORIENTED_EDGE ( 'NONE', *, *, #812, .F. ) ;
#670 = LINE ( 'NONE', #322, #692 ) ;
#671 = DIRECTION ( 'NONE',  ( 0.000000000000000000, 0.000000000000000000, -1.000000000000000000 ) ) ;
#672 = ORIENTED_EDGE ( 'NONE', *, *, #153, .T. ) ;
#673 = CONICAL_SURFACE ( 'NONE', #641, 22.70096189432333134, 0.5235987755983053660 ) ;
#674 = PRODUCT_RELATED_PRODUCT_CATEGORY ( 'detail', '', ( #598 ) ) ;
#675 = TOROIDAL_SURFACE ( 'NONE', #908, 25.49999999999998934, 4.500000000000000888 ) ;
#676 = FACE_OUTER_BOUND ( 'NONE', #1001, .T. ) ;
#677 = ADVANCED_FACE ( 'NONE', ( #516 ), #993, .T. ) ;
#678 = AXIS2_PLACEMENT_3D ( 'NONE', #1051, #294, #638 ) ;
#679 = ORIENTED_EDGE ( 'NONE', *, *, #446, .T. ) ;
#680 = AXIS2_PLACEMENT_3D ( 'NONE', #6, #241, #80 ) ;
#681 = CARTESIAN_POINT ( 'NONE',  ( 30.86923171819556799, 1.253711653902891648E-14, 0.000000000000000000 ) ) ;
#682 = CARTESIAN_POINT ( 'NONE',  ( -85.00000000000000000, 1.291273123129077766E-14, 0.000000000000000000 ) ) ;
#683 = DIRECTION ( 'NONE',  ( 0.000000000000000000, 0.000000000000000000, 1.000000000000000000 ) ) ;
#684 = CARTESIAN_POINT ( 'NONE',  ( 30.86923171819556799, -22.49999999999997158, 0.000000000000000000 ) ) ;
#685 = CARTESIAN_POINT ( 'NONE',  ( -28.16346035225550537, 1.272848353211781529E-14, 0.000000000000000000 ) ) ;
#686 = CC_DESIGN_PERSON_AND_ORGANIZATION_ASSIGNMENT ( #266, #602, ( #1039 ) ) ;
#687 = DIRECTION ( 'NONE',  ( -1.000000000000000000, 3.241712115390480395E-18, -0.000000000000000000 ) ) ;
#688 = MECHANICAL_CONTEXT ( 'NONE', #898, 'mechanical' ) ;
#689 = ORIENTED_EDGE ( 'NONE', *, *, #509, .F. ) ;
#690 = DIRECTION ( 'NONE',  ( 0.000000000000000000, -1.000000000000000000, 0.000000000000000000 ) ) ;
#691 = APPROVAL_ROLE ( '' ) ;
#692 = VECTOR ( 'NONE', #1002, 1000.000000000000000 ) ;
#693 = DIRECTION ( 'NONE',  ( -1.000000000000000000, 3.241712115390480395E-18, -0.000000000000000000 ) ) ;
#694 = AXIS2_PLACEMENT_3D ( 'NONE', #947, #687, #613 ) ;
#695 = ORIENTED_EDGE ( 'NONE', *, *, #418, .F. ) ;
#696 = CARTESIAN_POINT ( 'NONE',  ( 30.06538414090219291, -23.99999999999997158, 2.939152317953646317E-15 ) ) ;
#697 = CIRCLE ( 'NONE', #941, 2.999999999999999112 ) ;
#698 = APPROVAL_STATUS ( 'not_yet_approved' ) ;
#699 = EDGE_CURVE ( 'NONE', #998, #921, #256, .T. ) ;
#700 = CYLINDRICAL_SURFACE ( 'NONE', #181, 22.49999999999998579 ) ;
#701 = VERTEX_POINT ( 'NONE', #876 ) ;
#702 = DIRECTION ( 'NONE',  ( 0.000000000000000000, 1.000000000000000000, 0.000000000000000000 ) ) ;
#703 = DIRECTION ( 'NONE',  ( -1.000000000000000000, 3.241712115390480395E-18, -0.000000000000000000 ) ) ;
#704 = APPROVAL ( #765, 'UNSPECIFIED' ) ;
#705 = FACE_OUTER_BOUND ( 'NONE', #318, .T. ) ;
#706 = LINE ( 'NONE', #548, #730 ) ;
#707 = DIRECTION ( 'NONE',  ( 0.000000000000000000, -1.000000000000000000, 1.224646799147351975E-16 ) ) ;
#708 = CYLINDRICAL_SURFACE ( 'NONE', #356, 22.49999999999998934 ) ;
#709 = CARTESIAN_POINT ( 'NONE',  ( -85.00000000000000000, 1.291273123129077766E-14, 0.000000000000000000 ) ) ;
#710 = FACE_OUTER_BOUND ( 'NONE', #421, .T. ) ;
#711 = CIRCLE ( 'NONE', #522, 2.999999999999999112 ) ;
#712 = DIRECTION ( 'NONE',  ( -1.000000000000000000, 3.241712115390480395E-18, -0.000000000000000000 ) ) ;
#713 = EDGE_LOOP ( 'NONE', ( #1059, #92, #459, #86 ) ) ;
#714 = AXIS2_PLACEMENT_3D ( 'NONE', #763, #23, #350 ) ;
#715 = AXIS2_PLACEMENT_3D ( 'NONE', #17, #839, #757 ) ;
#716 = DIRECTION ( 'NONE',  ( 0.000000000000000000, -1.000000000000000000, 0.000000000000000000 ) ) ;
#717 = ORIENTED_EDGE ( 'NONE', *, *, #99, .T. ) ;
#718 = DIRECTION ( 'NONE',  ( -1.000000000000000000, 3.241712115390480395E-18, 0.000000000000000000 ) ) ;
#719 = ORIENTED_EDGE ( 'NONE', *, *, #1062, .T. ) ;
#720 = FACE_OUTER_BOUND ( 'NONE', #713, .T. ) ;
#721 = EDGE_LOOP ( 'NONE', ( #402, #133, #810, #103 ) ) ;
#722 = FACE_BOUND ( 'NONE', #576, .T. ) ;
#723 = EDGE_CURVE ( 'NONE', #850, #1064, #230, .T. ) ;
#724 = DIRECTION ( 'NONE',  ( 1.000000000000000000, -3.241712115390480395E-18, 0.000000000000000000 ) ) ;
#725 = CARTESIAN_POINT ( 'NONE',  ( -30.86923171819556799, 1.273725486393625810E-14, 0.000000000000000000 ) ) ;
#726 = LINE ( 'NONE', #132, #825 ) ;
#727 = AXIS2_PLACEMENT_3D ( 'NONE', #125, #212, #110 ) ;
#728 = VERTEX_POINT ( 'NONE', #367 ) ;
#729 = CIRCLE ( 'NONE', #525, 20.99999999999998579 ) ;
#730 = VECTOR ( 'NONE', #149, 1000.000000000000000 ) ;
#731 = AXIS2_PLACEMENT_3D ( 'NONE', #773, #33, #197 ) ;
#732 = FACE_OUTER_BOUND ( 'NONE', #549, .T. ) ;
#733 = CARTESIAN_POINT ( 'NONE',  ( -26.66346035225550182, 1.272362096394472704E-14, 0.000000000000000000 ) ) ;
#734 = ADVANCED_FACE ( 'NONE', ( #962 ), #991, .F. ) ;
#735 = CARTESIAN_POINT ( 'NONE',  ( 26.66346035225554445, -25.49999999999997513, 0.000000000000000000 ) ) ;
#736 = ORIENTED_EDGE ( 'NONE', *, *, #1003, .F. ) ;
#737 = CARTESIAN_POINT ( 'NONE',  ( -85.00000000000000000, -22.49999999999997158, 0.000000000000000000 ) ) ;
#738 = CYLINDRICAL_SURFACE ( 'NONE', #912, 23.99999999999998579 ) ;
#739 = ADVANCED_FACE ( 'NONE', ( #614 ), #708, .T. ) ;
#740 = EDGE_LOOP ( 'NONE', ( #653, #608, #358, #169 ) ) ;
#741 = ORIENTED_EDGE ( 'NONE', *, *, #49, .T. ) ;
#742 = DIRECTION ( 'NONE',  ( 0.000000000000000000, 1.000000000000000000, 0.000000000000000000 ) ) ;
#743 = CARTESIAN_POINT ( 'NONE',  ( -26.66346035225550182, 1.272362096394472704E-14, 0.000000000000000000 ) ) ;
#744 = VERTEX_POINT ( 'NONE', #684 ) ;
#745 = EDGE_LOOP ( 'NONE', ( #146, #18, #204, #625 ) ) ;
#746 =( GEOMETRIC_REPRESENTATION_CONTEXT ( 3 ) GLOBAL_UNCERTAINTY_ASSIGNED_CONTEXT ( ( #533 ) ) GLOBAL_UNIT_ASSIGNED_CONTEXT ( ( #5, #837, #999 ) ) REPRESENTATION_CONTEXT ( 'NONE', 'WORKASPACE' ) );
#747 = AXIS2_PLACEMENT_3D ( 'NONE', #709, #382, #476 ) ;
#748 = CIRCLE ( 'NONE', #408, 22.49999999999998934 ) ;
#749 = TOROIDAL_SURFACE ( 'NONE', #589, 20.99999999999998579, 1.500000000000000000 ) ;
#750 = DIRECTION ( 'NONE',  ( 3.241712115390480010E-18, 1.000000000000000000, 0.000000000000000000 ) ) ;
#751 = CIRCLE ( 'NONE', #731, 20.79903810567665090 ) ;
#752 = CIRCLE ( 'NONE', #30, 2.999999999999999112 ) ;
#753 = DIRECTION ( 'NONE',  ( 0.000000000000000000, -1.000000000000000000, 0.000000000000000000 ) ) ;
#754 = EDGE_LOOP ( 'NONE', ( #119, #1019, #891, #320 ) ) ;
#755 = ORIENTED_EDGE ( 'NONE', *, *, #666, .T. ) ;
#756 = LINE ( 'NONE', #93, #97 ) ;
#757 = DIRECTION ( 'NONE',  ( 0.000000000000000000, -1.000000000000000000, -1.224646799147353454E-16 ) ) ;
#758 = ORIENTED_EDGE ( 'NONE', *, *, #49, .F. ) ;
#759 = CALENDAR_DATE ( 2026, 16, 9 ) ;
#760 = EDGE_CURVE ( 'NONE', #15, #411, #927, .T. ) ;
#761 = DIRECTION ( 'NONE',  ( 0.000000000000000000, -1.000000000000000000, 0.000000000000000000 ) ) ;
#762 = EDGE_LOOP ( 'NONE', ( #637, #1005, #736, #3 ) ) ;
#763 = CARTESIAN_POINT ( 'NONE',  ( -28.61923171819557155, 1.272996101167663126E-14, 0.000000000000000000 ) ) ;
#764 = LOCAL_TIME ( 0, 4, 1.000000000000000000, #188 ) ;
#765 = APPROVAL_STATUS ( 'not_yet_approved' ) ;
#766 = CIRCLE ( 'NONE', #800, 20.79903810567665090 ) ;
#767 = CC_DESIGN_PERSON_AND_ORGANIZATION_ASSIGNMENT ( #515, #1008, ( #159 ) ) ;
#768 = AXIS2_PLACEMENT_3D ( 'NONE', #285, #628, #968 ) ;
#769 = CARTESIAN_POINT ( 'NONE',  ( -26.71730792954887690, 1.272379552228842535E-14, 0.000000000000000000 ) ) ;
#770 = DIRECTION ( 'NONE',  ( 0.000000000000000000, 1.000000000000000000, 0.000000000000000000 ) ) ;
#771 = EDGE_CURVE ( 'NONE', #147, #190, #158, .T. ) ;
#772 = TOROIDAL_SURFACE ( 'NONE', #292, 20.99999999999998579, 3.000000000000000000 ) ;
#773 = CARTESIAN_POINT ( 'NONE',  ( -27.41346035225550182, 1.272605224803127195E-14, 0.000000000000000000 ) ) ;
#774 = CALENDAR_DATE ( 2026, 16, 9 ) ;
#775 = ORIENTED_EDGE ( 'NONE', *, *, #456, .F. ) ;
#776 = CARTESIAN_POINT ( 'NONE',  ( 85.00000000000000000, 24.00000000000000000, 2.939152317953646317E-15 ) ) ;
#777 = PERSON_AND_ORGANIZATION ( #899, #79 ) ;
#778 = CARTESIAN_POINT ( 'NONE',  ( 26.66346035225554445, 1.255075043902044596E-14, 0.000000000000000000 ) ) ;
#779 = CARTESIAN_POINT ( 'NONE',  ( -85.00000000000000000, 21.00000000000000000, 2.571758278209440083E-15 ) ) ;
#780 = EDGE_CURVE ( 'NONE', #1045, #1064, #711, .T. ) ;
#781 = AXIS2_PLACEMENT_3D ( 'NONE', #184, #257, #523 ) ;
#782 = AXIS2_PLACEMENT_3D ( 'NONE', #903, #255, #157 ) ;
#783 = AXIS2_PLACEMENT_3D ( 'NONE', #948, #791, #208 ) ;
#784 = FACE_OUTER_BOUND ( 'NONE', #762, .T. ) ;
#785 = CONICAL_SURFACE ( 'NONE', #468, 23.99999999999998579, 0.5235987755983053660 ) ;
#786 = CARTESIAN_POINT ( 'NONE',  ( -85.00000000000000000, 1.291273123129077766E-14, 0.000000000000000000 ) ) ;
#787 = CONICAL_SURFACE ( 'NONE', #845, 22.70096189432333134, 0.5235987755983053660 ) ;
#788 = EDGE_CURVE ( 'NONE', #121, #333, #552, .T. ) ;
#789 = CARTESIAN_POINT ( 'NONE',  ( 29.36923171819555378, 23.59807621135330535, 0.000000000000000000 ) ) ;
#790 = DIRECTION ( 'NONE',  ( -1.000000000000000000, 3.241712115390480395E-18, -0.000000000000000000 ) ) ;
#791 = DIRECTION ( 'NONE',  ( -1.000000000000000000, 3.241712115390480395E-18, -0.000000000000000000 ) ) ;
#792 = EDGE_LOOP ( 'NONE', ( #479, #717, #439, #406 ) ) ;
#793 = DIRECTION ( 'NONE',  ( 0.8660254037844352659, -0.5000000000000056621, 6.123233995736835061E-17 ) ) ;
#794 = VERTEX_POINT ( 'NONE', #789 ) ;
#795 = DIRECTION ( 'NONE',  ( 0.000000000000000000, -1.000000000000000000, 0.000000000000000000 ) ) ;
#796 = ORIENTED_EDGE ( 'NONE', *, *, #31, .F. ) ;
#797 = DIRECTION ( 'NONE',  ( -1.000000000000000000, 3.241712115390480395E-18, -0.000000000000000000 ) ) ;
#798 = VERTEX_POINT ( 'NONE', #376 ) ;
#799 = CARTESIAN_POINT ( 'NONE',  ( -85.00000000000000000, -19.49999999999997158, 0.000000000000000000 ) ) ;
#800 = AXIS2_PLACEMENT_3D ( 'NONE', #176, #316, #742 ) ;
#801 = CARTESIAN_POINT ( 'NONE',  ( -26.66346035225550182, 1.272362096394472862E-14, 0.000000000000000000 ) ) ;
#802 = VECTOR ( 'NONE', #1029, 1000.000000000000000 ) ;
#803 = EDGE_LOOP ( 'NONE', ( #325, #227, #463, #163 ) ) ;
#804 = DIRECTION ( 'NONE',  ( -1.000000000000000000, 3.241712115390480395E-18, -0.000000000000000000 ) ) ;
#805 = ORIENTED_EDGE ( 'NONE', *, *, #276, .T. ) ;
#806 = AXIS2_PLACEMENT_3D ( 'NONE', #681, #273, #359 ) ;
#807 = AXIS2_PLACEMENT_3D ( 'NONE', #69, #64, #385 ) ;
#808 = CARTESIAN_POINT ( 'NONE',  ( -26.66346035225550182, 22.50000000000000355, 2.755455298081543200E-15 ) ) ;
#809 = CARTESIAN_POINT ( 'NONE',  ( 26.66346035225554445, 21.00000000000000000, 2.571758278209440083E-15 ) ) ;
#810 = ORIENTED_EDGE ( 'NONE', *, *, #166, .T. ) ;
#811 = EDGE_LOOP ( 'NONE', ( #665, #301, #924, #500 ) ) ;
#812 = EDGE_CURVE ( 'NONE', #701, #384, #289, .T. ) ;
#813 = DIRECTION ( 'NONE',  ( 0.000000000000000000, -0.000000000000000000, -1.000000000000000000 ) ) ;
#814 = CYLINDRICAL_SURFACE ( 'NONE', #409, 19.49999999999998579 ) ;
#815 = ORIENTED_EDGE ( 'NONE', *, *, #237, .F. ) ;
#816 = CARTESIAN_POINT ( 'NONE',  ( -85.00000000000000000, -22.49999999999997513, 0.000000000000000000 ) ) ;
#817 = ORIENTED_EDGE ( 'NONE', *, *, #567, .T. ) ;
#818 = EDGE_CURVE ( 'NONE', #15, #200, #905, .T. ) ;
#819 = LOCAL_TIME ( 0, 4, 1.000000000000000000, #849 ) ;
#820 = DIRECTION ( 'NONE',  ( 3.241712115390480010E-18, 1.000000000000000000, 0.000000000000000000 ) ) ;
#821 = ORIENTED_EDGE ( 'NONE', *, *, #972, .T. ) ;
#822 = LOCAL_TIME ( 0, 4, 1.000000000000000000, #202 ) ;
#823 = AXIS2_PLACEMENT_3D ( 'NONE', #73, #378, #716 ) ;
#824 = CIRCLE ( 'NONE', #714, 20.10288568297001177 ) ;
#825 = VECTOR ( 'NONE', #979, 1000.000000000000114 ) ;
#826 = CARTESIAN_POINT ( 'NONE',  ( -27.46730792954888045, -22.49999999999997513, 2.755455298081543200E-15 ) ) ;
#827 = AXIS2_PLACEMENT_3D ( 'NONE', #365, #474, #228 ) ;
#828 = CARTESIAN_POINT ( 'NONE',  ( -85.00000000000000000, 1.291273123129077766E-14, 0.000000000000000000 ) ) ;
#829 = DIRECTION ( 'NONE',  ( 0.000000000000000000, -0.000000000000000000, -1.000000000000000000 ) ) ;
#830 = EDGE_LOOP ( 'NONE', ( #651, #992, #775, #595 ) ) ;
#831 = EDGE_LOOP ( 'NONE', ( #380, #821, #805, #695 ) ) ;
#832 = LINE ( 'NONE', #562, #503 ) ;
#833 = EDGE_CURVE ( 'NONE', #15, #907, #425, .T. ) ;
#834 = ORIENTED_EDGE ( 'NONE', *, *, #569, .F. ) ;
#835 = ORIENTED_EDGE ( 'NONE', *, *, #187, .F. ) ;
#836 = ORIENTED_EDGE ( 'NONE', *, *, #276, .F. ) ;
#837 =( NAMED_UNIT ( * ) PLANE_ANGLE_UNIT ( ) SI_UNIT ( $, .RADIAN. ) );
#838 = ADVANCED_FACE ( 'NONE', ( #676 ), #599, .F. ) ;
#839 = DIRECTION ( 'NONE',  ( -3.969952365870146765E-34, -1.224646799147353207E-16, 1.000000000000000000 ) ) ;
#840 = ORIENTED_EDGE ( 'NONE', *, *, #203, .F. ) ;
#841 = ADVANCED_FACE ( 'NONE', ( #194 ), #568, .F. ) ;
#842 = AXIS2_PLACEMENT_3D ( 'NONE', #935, #460, #1004 ) ;
#843 = CIRCLE ( 'NONE', #806, 23.99999999999998579 ) ;
#844 = DIRECTION ( 'NONE',  ( 1.000000000000000000, -3.241712115390480395E-18, 0.000000000000000000 ) ) ;
#845 = AXIS2_PLACEMENT_3D ( 'NONE', #923, #663, #404 ) ;
#846 = CARTESIAN_POINT ( 'NONE',  ( -26.66346035225550182, 19.50000000000000355, 0.000000000000000000 ) ) ;
#847 = ORIENTED_EDGE ( 'NONE', *, *, #281, .T. ) ;
#848 = EDGE_CURVE ( 'NONE', #225, #998, #857, .T. ) ;
#849 = COORDINATED_UNIVERSAL_TIME_OFFSET ( 1, 0, .AHEAD. ) ;
#850 = VERTEX_POINT ( 'NONE', #514 ) ;
#851 = DIRECTION ( 'NONE',  ( -1.000000000000000000, 3.241712115390480395E-18, -0.000000000000000000 ) ) ;
#852 = DATE_AND_TIME ( #1018, #822 ) ;
#853 = CARTESIAN_POINT ( 'NONE',  ( -85.00000000000000000, 1.291273123129077766E-14, 0.000000000000000000 ) ) ;
#854 = ORIENTED_EDGE ( 'NONE', *, *, #99, .F. ) ;
#855 = DIRECTION ( 'NONE',  ( 0.000000000000000000, -1.000000000000000000, 0.000000000000000000 ) ) ;
#856 = VECTOR ( 'NONE', #654, 1000.000000000000000 ) ;
#857 = CIRCLE ( 'NONE', #374, 1.500000000000001332 ) ;
#858 = PERSON_AND_ORGANIZATION ( #899, #79 ) ;
#859 = CC_DESIGN_DATE_AND_TIME_ASSIGNMENT ( #351, #934, ( #1039 ) ) ;
#860 = AXIS2_PLACEMENT_3D ( 'NONE', #604, #528, #865 ) ;
#861 = ADVANCED_FACE ( 'NONE', ( #519 ), #25, .T. ) ;
#862 = DIRECTION ( 'NONE',  ( -1.000000000000000000, 3.241712115390480395E-18, -0.000000000000000000 ) ) ;
#863 = AXIS2_PLACEMENT_3D ( 'NONE', #511, #420, #56 ) ;
#864 = FACE_OUTER_BOUND ( 'NONE', #493, .T. ) ;
#865 = DIRECTION ( 'NONE',  ( 0.000000000000000000, -1.000000000000000000, 0.000000000000000000 ) ) ;
#866 = CARTESIAN_POINT ( 'NONE',  ( 28.16346035225555866, 1.254588787084735930E-14, 0.000000000000000000 ) ) ;
#867 = CARTESIAN_POINT ( 'NONE',  ( -30.86923171819556799, -19.49999999999997158, 0.000000000000000000 ) ) ;
#868 = CYLINDRICAL_SURFACE ( 'NONE', #11, 19.49999999999998579 ) ;
#869 = AXIS2_PLACEMENT_3D ( 'NONE', #50, #290, #267 ) ;
#870 = DIRECTION ( 'NONE',  ( -1.000000000000000000, 3.241712115390480395E-18, -0.000000000000000000 ) ) ;
#871 = CIRCLE ( 'NONE', #142, 20.99999999999998224 ) ;
#872 = TOROIDAL_SURFACE ( 'NONE', #619, 23.99999999999998579, 3.000000000000000000 ) ;
#873 = DIRECTION ( 'NONE',  ( 0.000000000000000000, -1.000000000000000000, 0.000000000000000000 ) ) ;
#874 = AXIS2_PLACEMENT_3D ( 'NONE', #287, #797, #624 ) ;
#875 = ADVANCED_FACE ( 'NONE', ( #953 ), #60, .F. ) ;
#876 = CARTESIAN_POINT ( 'NONE',  ( -30.86923171819556799, -20.99999999999997513, 0.000000000000000000 ) ) ;
#877 = DIRECTION ( 'NONE',  ( 0.000000000000000000, -1.000000000000000000, 0.000000000000000000 ) ) ;
#878 = CARTESIAN_POINT ( 'NONE',  ( 30.06538414090219291, 1.253972238145915496E-14, 0.000000000000000000 ) ) ;
#879 = CARTESIAN_POINT ( 'NONE',  ( -29.36923171819557155, -21.40192378864665912, 2.663606788145491839E-15 ) ) ;
#880 = ORIENTED_EDGE ( 'NONE', *, *, #1048, .F. ) ;
#881 = DIRECTION ( 'NONE',  ( 0.000000000000000000, -1.000000000000000000, 0.000000000000000000 ) ) ;
#882 = ORIENTED_EDGE ( 'NONE', *, *, #980, .F. ) ;
#883 = CARTESIAN_POINT ( 'NONE',  ( 30.86923171819556799, -20.99999999999997513, 2.571758278209440083E-15 ) ) ;
#884 = ORIENTED_EDGE ( 'NONE', *, *, #949, .T. ) ;
#885 = APPLICATION_CONTEXT ( 'configuration controlled 3d designs of mechanical parts and assemblies' ) ;
#886 = APPROVAL_PERSON_ORGANIZATION ( #858, #29, #691 ) ;
#887 = DIRECTION ( 'NONE',  ( 1.000000000000000000, -3.241712115390480395E-18, 0.000000000000000000 ) ) ;
#888 = CARTESIAN_POINT ( 'NONE',  ( -30.86923171819556799, 24.00000000000000000, 2.939152317953646317E-15 ) ) ;
#889 = TOROIDAL_SURFACE ( 'NONE', #407, 19.49999999999998934, 1.500000000000000000 ) ;
#890 = VECTOR ( 'NONE', #870, 1000.000000000000000 ) ;
#891 = ORIENTED_EDGE ( 'NONE', *, *, #723, .T. ) ;
#892 = CARTESIAN_POINT ( 'NONE',  ( -85.00000000000000000, -19.49999999999997158, 0.000000000000000000 ) ) ;
#893 = VERTEX_POINT ( 'NONE', #57 ) ;
#894 = CARTESIAN_POINT ( 'NONE',  ( 85.00000000000000000, 22.50000000000000000, 2.755455298081542806E-15 ) ) ;
#895 = VERTEX_POINT ( 'NONE', #469 ) ;
#896 = CARTESIAN_POINT ( 'NONE',  ( -85.00000000000000000, 1.291273123129077766E-14, 0.000000000000000000 ) ) ;
#897 = DIRECTION ( 'NONE',  ( 0.8660254037844388186, -0.4999999999999996669, 6.123233995736762338E-17 ) ) ;
#898 = APPLICATION_CONTEXT ( 'configuration controlled 3d designs of mechanical parts and assemblies' ) ;
#899 = PERSON ( 'UNSPECIFIED', 'UNSPECIFIED', 'UNSPECIFIED', ('UNSPECIFIED'), ('UNSPECIFIED'), ('UNSPECIFIED') ) ;
#900 = DIRECTION ( 'NONE',  ( -1.000000000000000000, 0.000000000000000000, 0.000000000000000000 ) ) ;
#901 = EDGE_LOOP ( 'NONE', ( #970, #361, #370, #81 ) ) ;
#902 = EDGE_CURVE ( 'NONE', #907, #174, #558, .T. ) ;
#903 = CARTESIAN_POINT ( 'NONE',  ( 28.16346035225555866, 1.254588787084735930E-14, 0.000000000000000000 ) ) ;
#904 = DIRECTION ( 'NONE',  ( -1.000000000000000000, 0.000000000000000000, 0.000000000000000000 ) ) ;
#905 = CIRCLE ( 'NONE', #357, 19.49999999999998579 ) ;
#906 = EDGE_LOOP ( 'NONE', ( #517, #981, #55, #580 ) ) ;
#907 = VERTEX_POINT ( 'NONE', #963 ) ;
#908 = AXIS2_PLACEMENT_3D ( 'NONE', #120, #937, #362 ) ;
#909 = EDGE_CURVE ( 'NONE', #248, #921, #302, .T. ) ;
#910 = CIRCLE ( 'NONE', #678, 2.999999999999999112 ) ;
#911 = CARTESIAN_POINT ( 'NONE',  ( -30.86923171819556799, 24.00000000000000000, 2.939152317953646317E-15 ) ) ;
#912 = AXIS2_PLACEMENT_3D ( 'NONE', #410, #323, #753 ) ;
#913 = CARTESIAN_POINT ( 'NONE',  ( 85.00000000000000000, -22.49999999999997158, 0.000000000000000000 ) ) ;
#914 = EDGE_LOOP ( 'NONE', ( #329, #195, #150, #326 ) ) ;
#915 = ORIENTED_EDGE ( 'NONE', *, *, #660, .F. ) ;
#916 = CARTESIAN_POINT ( 'NONE',  ( -26.66346035225550182, 21.00000000000000000, 2.571758278209440083E-15 ) ) ;
#917 = DIRECTION ( 'NONE',  ( 0.8660254037844352659, 0.5000000000000056621, 0.000000000000000000 ) ) ;
#918 = ADVANCED_FACE ( 'NONE', ( #967 ), #938, .F. ) ;
#919 = CARTESIAN_POINT ( 'NONE',  ( 26.66346035225554445, 1.255075043902044596E-14, 0.000000000000000000 ) ) ;
#920 = VERTEX_POINT ( 'NONE', #140 ) ;
#921 = VERTEX_POINT ( 'NONE', #130 ) ;
#922 = DIRECTION ( 'NONE',  ( 0.000000000000000000, -1.000000000000000000, 0.000000000000000000 ) ) ;
#923 = CARTESIAN_POINT ( 'NONE',  ( 30.81538414090220002, 1.253729109737261321E-14, 0.000000000000000000 ) ) ;
#924 = ORIENTED_EDGE ( 'NONE', *, *, #440, .T. ) ;
#925 = CIRCLE ( 'NONE', #27, 21.60288568297002953 ) ;
#926 = CIRCLE ( 'NONE', #143, 22.90192378864668044 ) ;
#927 = LINE ( 'NONE', #799, #22 ) ;
#928 = ORIENTED_EDGE ( 'NONE', *, *, #153, .F. ) ;
#929 = EDGE_CURVE ( 'NONE', #794, #1045, #123, .T. ) ;
#930 = CARTESIAN_POINT ( 'NONE',  ( 0.000000000000000000, 0.000000000000000000, 0.000000000000000000 ) ) ;
#931 = CARTESIAN_POINT ( 'NONE',  ( 30.86923171819556799, 1.253711653902891648E-14, 0.000000000000000000 ) ) ;
#932 = ORIENTED_EDGE ( 'NONE', *, *, #909, .T. ) ;
#933 = ADVANCED_FACE ( 'NONE', ( #455 ), #368, .F. ) ;
#934 = DATE_TIME_ROLE ( 'creation_date' ) ;
#935 = CARTESIAN_POINT ( 'NONE',  ( -85.00000000000000000, 1.291273123129077766E-14, 0.000000000000000000 ) ) ;
#936 = CARTESIAN_POINT ( 'NONE',  ( 30.86923171819556799, 1.253711653902891648E-14, 0.000000000000000000 ) ) ;
#937 = DIRECTION ( 'NONE',  ( -1.000000000000000000, 3.241712115390480395E-18, -0.000000000000000000 ) ) ;
#938 = TOROIDAL_SURFACE ( 'NONE', #1055, 20.99999999999998579, 1.500000000000000000 ) ;
#939 = VECTOR ( 'NONE', #917, 1000.000000000000114 ) ;
#940 = CARTESIAN_POINT ( 'NONE',  ( 30.81538414090220002, 1.253729109737261321E-14, 0.000000000000000000 ) ) ;
#941 = AXIS2_PLACEMENT_3D ( 'NONE', #735, #829, #904 ) ;
#942 = DIRECTION ( 'NONE',  ( 3.241712115390480395E-18, 1.000000000000000000, 0.000000000000000000 ) ) ;
#943 = DIRECTION ( 'NONE',  ( -3.241712115390480395E-18, -1.000000000000000000, 0.000000000000000000 ) ) ;
#944 = SECURITY_CLASSIFICATION_LEVEL ( 'unclassified' ) ;
#945 = EDGE_CURVE ( 'NONE', #248, #180, #391, .T. ) ;
#946 = CARTESIAN_POINT ( 'NONE',  ( -30.86923171819556799, 1.273725486393625810E-14, 0.000000000000000000 ) ) ;
#947 = CARTESIAN_POINT ( 'NONE',  ( 85.00000000000000000, 1.236164017167439692E-14, 0.000000000000000000 ) ) ;
#948 = CARTESIAN_POINT ( 'NONE',  ( 26.66346035225554445, 1.255075043902044596E-14, 0.000000000000000000 ) ) ;
#949 = EDGE_CURVE ( 'NONE', #174, #921, #139, .T. ) ;
#950 = CYLINDRICAL_SURFACE ( 'NONE', #259, 23.99999999999998579 ) ;
#951 = AXIS2_PLACEMENT_3D ( 'NONE', #769, #283, #347 ) ;
#952 = CARTESIAN_POINT ( 'NONE',  ( 85.00000000000000000, 1.236164017167439692E-14, 0.000000000000000000 ) ) ;
#953 = FACE_OUTER_BOUND ( 'NONE', #556, .T. ) ;
#954 = AXIS2_PLACEMENT_3D ( 'NONE', #636, #127, #615 ) ;
#955 = LINE ( 'NONE', #1031, #890 ) ;
#956 = TOROIDAL_SURFACE ( 'NONE', #768, 23.99999999999998579, 4.500000000000000888 ) ;
#957 = CARTESIAN_POINT ( 'NONE',  ( -85.00000000000000000, 24.00000000000000000, 2.939152317953646317E-15 ) ) ;
#958 = ORIENTED_EDGE ( 'NONE', *, *, #435, .T. ) ;
#959 = ADVANCED_FACE ( 'NONE', ( #705 ), #889, .F. ) ;
#960 = AXIS2_PLACEMENT_3D ( 'NONE', #161, #579, #167 ) ;
#961 = ADVANCED_FACE ( 'NONE', ( #309, #642 ), #978, .F. ) ;
#962 = FACE_OUTER_BOUND ( 'NONE', #664, .T. ) ;
#963 = CARTESIAN_POINT ( 'NONE',  ( -28.61923171819557155, -20.10288568296999756, 2.504520502336755321E-15 ) ) ;
#964 = CARTESIAN_POINT ( 'NONE',  ( -85.00000000000000000, 1.291273123129077766E-14, 0.000000000000000000 ) ) ;
#965 = CARTESIAN_POINT ( 'NONE',  ( -85.00000000000000000, 1.291273123129077766E-14, 0.000000000000000000 ) ) ;
#966 = VERTEX_POINT ( 'NONE', #995 ) ;
#967 = FACE_OUTER_BOUND ( 'NONE', #988, .T. ) ;
#968 = DIRECTION ( 'NONE',  ( -3.241712115390480395E-18, -1.000000000000000000, 0.000000000000000000 ) ) ;
#969 = CARTESIAN_POINT ( 'NONE',  ( -30.86923171819556799, 1.273725486393625653E-14, 0.000000000000000000 ) ) ;
#970 = ORIENTED_EDGE ( 'NONE', *, *, #616, .F. ) ;
#971 = CARTESIAN_POINT ( 'NONE',  ( -26.66346035225550182, 1.272362096394472704E-14, 0.000000000000000000 ) ) ;
#972 = EDGE_CURVE ( 'NONE', #612, #168, #756, .T. ) ;
#973 = LINE ( 'NONE', #1049, #588 ) ;
#974 = CIRCLE ( 'NONE', #782, 22.90192378864668044 ) ;
#975 = LINE ( 'NONE', #816, #214 ) ;
#976 = EDGE_LOOP ( 'NONE', ( #355, #251, #836, #405 ) ) ;
#977 = CIRCLE ( 'NONE', #694, 23.99999999999998579 ) ;
#978 = PLANE ( 'NONE',  #1023 ) ;
#979 = DIRECTION ( 'NONE',  ( 0.8660254037844352659, 0.5000000000000056621, 0.000000000000000000 ) ) ;
#980 = EDGE_CURVE ( 'NONE', #200, #618, #670, .T. ) ;
#981 = ORIENTED_EDGE ( 'NONE', *, *, #980, .T. ) ;
#982 = ORIENTED_EDGE ( 'NONE', *, *, #521, .T. ) ;
#983 = DIRECTION ( 'NONE',  ( 1.000000000000000000, -3.241712115390480395E-18, 0.000000000000000000 ) ) ;
#984 = CARTESIAN_POINT ( 'NONE',  ( -26.66346035225550182, -22.49999999999997513, 0.000000000000000000 ) ) ;
#985 = CARTESIAN_POINT ( 'NONE',  ( -26.71730792954887690, 1.272379552228842535E-14, 0.000000000000000000 ) ) ;
#986 = EDGE_LOOP ( 'NONE', ( #639, #311, #340, #1033 ) ) ;
#987 = EDGE_CURVE ( 'NONE', #147, #920, #832, .T. ) ;
#988 = EDGE_LOOP ( 'NONE', ( #70, #679, #106, #39 ) ) ;
#989 = LINE ( 'NONE', #737, #427 ) ;
#990 = DIRECTION ( 'NONE',  ( 0.000000000000000000, -1.000000000000000000, -1.224646799147352714E-16 ) ) ;
#991 = CONICAL_SURFACE ( 'NONE', #951, 21.20096189432333134, 0.5235987755982984826 ) ;
#992 = ORIENTED_EDGE ( 'NONE', *, *, #279, .T. ) ;
#993 = CONICAL_SURFACE ( 'NONE', #781, 22.49999999999998934, 0.5235987755982984826 ) ;
#994 = EDGE_CURVE ( 'NONE', #907, #585, #124, .T. ) ;
#995 = CARTESIAN_POINT ( 'NONE',  ( -29.36923171819557155, 21.40192378864668754, 0.000000000000000000 ) ) ;
#996 = TOROIDAL_SURFACE ( 'NONE', #527, 23.99999999999998579, 4.500000000000000888 ) ;
#997 = FACE_OUTER_BOUND ( 'NONE', #217, .T. ) ;
#998 = VERTEX_POINT ( 'NONE', #916 ) ;
#999 =( NAMED_UNIT ( * ) SI_UNIT ( $, .STERADIAN. ) SOLID_ANGLE_UNIT ( ) );
#1000 = FACE_OUTER_BOUND ( 'NONE', #721, .T. ) ;
#1001 = EDGE_LOOP ( 'NONE', ( #91, #436, #352, #306 ) ) ;
#1002 = DIRECTION ( 'NONE',  ( -1.000000000000000000, 3.241712115390480395E-18, -0.000000000000000000 ) ) ;
#1003 = EDGE_CURVE ( 'NONE', #744, #920, #43, .T. ) ;
#1004 = DIRECTION ( 'NONE',  ( 0.000000000000000000, -1.000000000000000000, 0.000000000000000000 ) ) ;
#1005 = ORIENTED_EDGE ( 'NONE', *, *, #987, .T. ) ;
#1006 = DESIGN_CONTEXT ( 'detailed design', #885, 'design' ) ;
#1007 = AXIS2_PLACEMENT_3D ( 'NONE', #278, #1027, #118 ) ;
#1008 = PERSON_AND_ORGANIZATION_ROLE ( 'creator' ) ;
#1009 = AXIS2_PLACEMENT_3D ( 'NONE', #1046, #300, #630 ) ;
#1010 = ORIENTED_EDGE ( 'NONE', *, *, #1022, .T. ) ;
#1011 = CARTESIAN_POINT ( 'NONE',  ( 28.91346035225556577, 1.254345658676081754E-14, 0.000000000000000000 ) ) ;
#1012 = APPLICATION_PROTOCOL_DEFINITION ( 'international standard', 'config_control_design', 1994, #885 ) ;
#1013 = DIRECTION ( 'NONE',  ( 0.000000000000000000, -1.000000000000000000, 0.000000000000000000 ) ) ;
#1014 = ORIENTED_EDGE ( 'NONE', *, *, #446, .F. ) ;
#1015 = FACE_OUTER_BOUND ( 'NONE', #901, .T. ) ;
#1016 = ORIENTED_EDGE ( 'NONE', *, *, #569, .T. ) ;
#1017 = EDGE_CURVE ( 'NONE', #529, #1047, #974, .T. ) ;
#1018 = CALENDAR_DATE ( 2026, 16, 9 ) ;
#1019 = ORIENTED_EDGE ( 'NONE', *, *, #462, .T. ) ;
#1020 = DIRECTION ( 'NONE',  ( -1.000000000000000000, 3.241712115390480395E-18, -0.000000000000000000 ) ) ;
#1021 = LOCAL_TIME ( 0, 4, 1.000000000000000000, #597 ) ;
#1022 = EDGE_CURVE ( 'NONE', #384, #728, #312, .T. ) ;
#1023 = AXIS2_PLACEMENT_3D ( 'NONE', #236, #983, #403 ) ;
#1024 = DIRECTION ( 'NONE',  ( 0.000000000000000000, -1.000000000000000000, 0.000000000000000000 ) ) ;
#1025 = FACE_OUTER_BOUND ( 'NONE', #258, .T. ) ;
#1026 = CARTESIAN_POINT ( 'NONE',  ( -85.00000000000000000, 1.291273123129077766E-14, 0.000000000000000000 ) ) ;
#1027 = DIRECTION ( 'NONE',  ( -1.000000000000000000, 3.241712115390480395E-18, -0.000000000000000000 ) ) ;
#1028 = CARTESIAN_POINT ( 'NONE',  ( 26.66346035225554445, 1.255075043902044596E-14, 0.000000000000000000 ) ) ;
#1029 = DIRECTION ( 'NONE',  ( -1.000000000000000000, 3.241712115390480395E-18, -0.000000000000000000 ) ) ;
#1030 = EDGE_CURVE ( 'NONE', #629, #966, #1057, .T. ) ;
#1031 = CARTESIAN_POINT ( 'NONE',  ( -85.00000000000000000, -20.99999999999997513, 0.000000000000000000 ) ) ;
#1032 = CARTESIAN_POINT ( 'NONE',  ( -30.86923171819556799, 1.273725486393625653E-14, 0.000000000000000000 ) ) ;
#1033 = ORIENTED_EDGE ( 'NONE', *, *, #994, .T. ) ;
#1034 = DIRECTION ( 'NONE',  ( -1.000000000000000000, 3.241712115390480395E-18, -0.000000000000000000 ) ) ;
#1035 = DIRECTION ( 'NONE',  ( 3.969952365870146765E-34, 1.224646799147353207E-16, 1.000000000000000000 ) ) ;
#1036 = CC_DESIGN_APPROVAL ( #704, ( #1039 ) ) ;
#1037 = CIRCLE ( 'NONE', #308, 22.09807621135331601 ) ;
#1038 = DIRECTION ( 'NONE',  ( -3.969952365870146765E-34, -1.224646799147353207E-16, 1.000000000000000000 ) ) ;
#1039 = PRODUCT_DEFINITION ( 'UNKNOWN', '', #159, #1006 ) ;
#1040 = DIRECTION ( 'NONE',  ( -3.241712115390480395E-18, -1.000000000000000000, 0.000000000000000000 ) ) ;
#1041 = ORIENTED_EDGE ( 'NONE', *, *, #760, .T. ) ;
#1042 = AXIS2_PLACEMENT_3D ( 'NONE', #743, #650, #820 ) ;
#1043 = ADVANCED_FACE ( 'NONE', ( #732 ), #497, .F. ) ;
#1044 = DIRECTION ( 'NONE',  ( 3.241712115390480010E-18, 1.000000000000000000, 0.000000000000000000 ) ) ;
#1045 = VERTEX_POINT ( 'NONE', #252 ) ;
#1046 = CARTESIAN_POINT ( 'NONE',  ( 30.11923171819556089, 1.253954782311545982E-14, 0.000000000000000000 ) ) ;
#1047 = VERTEX_POINT ( 'NONE', #399 ) ;
#1048 = EDGE_CURVE ( 'NONE', #398, #998, #87, .T. ) ;
#1049 = CARTESIAN_POINT ( 'NONE',  ( -27.46730792954888045, 22.50000000000000355, 0.000000000000000000 ) ) ;
#1050 = EDGE_LOOP ( 'NONE', ( #205, #847, #373, #835 ) ) ;
#1051 = CARTESIAN_POINT ( 'NONE',  ( 30.86923171819556799, 21.00000000000000000, 0.000000000000000000 ) ) ;
#1052 = VERTEX_POINT ( 'NONE', #165 ) ;
#1053 = EDGE_CURVE ( 'NONE', #190, #744, #989, .T. ) ;
#1054 = DIRECTION ( 'NONE',  ( 3.241712115390480395E-18, 1.000000000000000000, 0.000000000000000000 ) ) ;
#1055 = AXIS2_PLACEMENT_3D ( 'NONE', #363, #887, #538 ) ;
#1056 = DIRECTION ( 'NONE',  ( -1.000000000000000000, 3.241712115390480395E-18, -0.000000000000000000 ) ) ;
#1057 = CIRCLE ( 'NONE', #307, 2.999999999999999112 ) ;
#1058 = DIRECTION ( 'NONE',  ( -1.000000000000000000, 3.241712115390480395E-18, -0.000000000000000000 ) ) ;
#1059 = ORIENTED_EDGE ( 'NONE', *, *, #281, .F. ) ;
#1060 = CIRCLE ( 'NONE', #590, 23.59807621135329114 ) ;
#1061 = DIRECTION ( 'NONE',  ( 0.000000000000000000, -1.000000000000000000, 0.000000000000000000 ) ) ;
#1062 = EDGE_CURVE ( 'NONE', #225, #174, #766, .T. ) ;
#1063 = DIRECTION ( 'NONE',  ( -1.000000000000000000, 3.241712115390480395E-18, -0.000000000000000000 ) ) ;
#1064 = VERTEX_POINT ( 'NONE', #571 ) ;
#1065 = DIRECTION ( 'NONE',  ( -1.000000000000000000, 3.241712115390480395E-18, -0.000000000000000000 ) ) ;
ENDSEC;
END-ISO-10303-21;
