ISO-10303-21;
HEADER;
FILE_DESCRIPTION (( 'STEP AP203' ),
    '1' );
FILE_NAME ('79-8470 - Stegmuff. 54-51.5-48.5.STEP',
    '2026-09-15T22:04:04',
    ( '' ),
    ( '' ),
    'SwSTEP 2.0',
    'SolidWorks 2026',
    '' );
FILE_SCHEMA (( 'CONFIG_CONTROL_DESIGN' ));
ENDSEC;

DATA;
#1 = CARTESIAN_POINT ( 'NONE',  ( 29.97489415089816589, 1.254001572395607411E-14, 0.000000000000000000 ) ) ;
#2 = CC_DESIGN_PERSON_AND_ORGANIZATION_ASSIGNMENT ( #38, #868, ( #930 ) ) ;
#3 = ORIENTED_EDGE ( 'NONE', *, *, #330, .T. ) ;
#4 = DIRECTION ( 'NONE',  ( -1.000000000000000000, 3.241712115390480395E-18, -0.000000000000000000 ) ) ;
#5 = CIRCLE ( 'NONE', #246, 24.24999999999997868 ) ;
#6 = AXIS2_PLACEMENT_3D ( 'NONE', #305, #710, #779 ) ;
#7 = ADVANCED_FACE ( 'NONE', ( #866 ), #685, .F. ) ;
#8 = AXIS2_PLACEMENT_3D ( 'NONE', #572, #633, #1051 ) ;
#9 = DIRECTION ( 'NONE',  ( 1.000000000000000000, -3.241712115390480395E-18, 0.000000000000000000 ) ) ;
#10 = AXIS2_PLACEMENT_3D ( 'NONE', #416, #4, #334 ) ;
#11 = VERTEX_POINT ( 'NONE', #111 ) ;
#12 = CARTESIAN_POINT ( 'NONE',  ( 26.95213548685032734, 1.254981463733921896E-14, 0.000000000000000000 ) ) ;
#13 = AXIS2_PLACEMENT_3D ( 'NONE', #1054, #902, #493 ) ;
#14 = EDGE_CURVE ( 'NONE', #855, #722, #607, .T. ) ;
#15 = DIRECTION ( 'NONE',  ( 3.241712115390480395E-18, 1.000000000000000000, 0.000000000000000000 ) ) ;
#16 = EDGE_CURVE ( 'NONE', #339, #634, #315, .T. ) ;
#17 = ORIENTED_EDGE ( 'NONE', *, *, #330, .F. ) ;
#18 = DIRECTION ( 'NONE',  ( 0.000000000000000000, -1.000000000000000000, 0.000000000000000000 ) ) ;
#19 = DIRECTION ( 'NONE',  ( 0.000000000000000000, -1.000000000000000000, -1.224646799147352714E-16 ) ) ;
#20 = DIRECTION ( 'NONE',  ( -1.000000000000000000, 3.241712115390480395E-18, -0.000000000000000000 ) ) ;
#21 = CARTESIAN_POINT ( 'NONE',  ( -30.72489415089816589, 27.25000000000000355, 3.337162527676536337E-15 ) ) ;
#22 = CARTESIAN_POINT ( 'NONE',  ( -85.00000000000000000, 1.291273123129077766E-14, 0.000000000000000000 ) ) ;
#23 = LOCAL_TIME ( 0, 4, 4.000000000000000000, #373 ) ;
#24 = TOROIDAL_SURFACE ( 'NONE', #335, 22.74999999999997868, 1.500000000000000000 ) ;
#25 = COORDINATED_UNIVERSAL_TIME_OFFSET ( 1, 0, .AHEAD. ) ;
#26 = AXIS2_PLACEMENT_3D ( 'NONE', #379, #446, #451 ) ;
#27 = DIRECTION ( 'NONE',  ( 0.000000000000000000, -1.000000000000000000, 0.000000000000000000 ) ) ;
#28 = DIRECTION ( 'NONE',  ( -1.000000000000000000, 0.000000000000000000, 0.000000000000000000 ) ) ;
#29 = TOROIDAL_SURFACE ( 'NONE', #877, 23.99999999999998579, 1.500000000000000000 ) ;
#30 = CARTESIAN_POINT ( 'NONE',  ( 26.95213548685032734, -24.24999999999996447, 0.000000000000000000 ) ) ;
#31 = AXIS2_PLACEMENT_3D ( 'NONE', #586, #184, #921 ) ;
#32 = FACE_OUTER_BOUND ( 'NONE', #456, .T. ) ;
#33 = TOROIDAL_SURFACE ( 'NONE', #422, 27.24999999999998934, 4.500000000000000888 ) ;
#34 = EDGE_CURVE ( 'NONE', #870, #855, #104, .T. ) ;
#35 = ORIENTED_EDGE ( 'NONE', *, *, #1060, .T. ) ;
#36 = CARTESIAN_POINT ( 'NONE',  ( -85.00000000000000000, -22.74999999999997158, 0.000000000000000000 ) ) ;
#37 = CARTESIAN_POINT ( 'NONE',  ( -27.32297036225151032, 1.272575890553435281E-14, 0.000000000000000000 ) ) ;
#38 = PERSON_AND_ORGANIZATION ( #741, #986 ) ;
#39 = COORDINATED_UNIVERSAL_TIME_OFFSET ( 1, 0, .AHEAD. ) ;
#40 = ORIENTED_EDGE ( 'NONE', *, *, #294, .T. ) ;
#41 = LINE ( 'NONE', #533, #941 ) ;
#42 = CARTESIAN_POINT ( 'NONE',  ( -85.00000000000000000, 1.291273123129077766E-14, 0.000000000000000000 ) ) ;
#43 = DIRECTION ( 'NONE',  ( 1.000000000000000000, -3.241712115390480395E-18, 0.000000000000000000 ) ) ;
#44 = APPLICATION_PROTOCOL_DEFINITION ( 'international standard', 'config_control_design', 1994, #748 ) ;
#45 = EDGE_LOOP ( 'NONE', ( #919, #567 ) ) ;
#46 = EDGE_CURVE ( 'NONE', #390, #73, #1001, .T. ) ;
#47 = CIRCLE ( 'NONE', #128, 24.24999999999998579 ) ;
#48 = DIRECTION ( 'NONE',  ( 1.000000000000000000, -3.241712115390480395E-18, 0.000000000000000000 ) ) ;
#49 = DIRECTION ( 'NONE',  ( 1.000000000000000000, -3.241712115390480395E-18, 0.000000000000000000 ) ) ;
#50 = CIRCLE ( 'NONE', #31, 26.99999999999998934 ) ;
#51 = AXIS2_PLACEMENT_3D ( 'NONE', #37, #375, #380 ) ;
#52 = PERSON_AND_ORGANIZATION ( #741, #986 ) ;
#53 = ADVANCED_FACE ( 'NONE', ( #274 ), #743, .F. ) ;
#54 = FACE_OUTER_BOUND ( 'NONE', #279, .T. ) ;
#55 = ADVANCED_FACE ( 'NONE', ( #342 ), #517, .T. ) ;
#56 = CARTESIAN_POINT ( 'NONE',  ( -26.51912278495813169, 22.74999999999999289, 0.000000000000000000 ) ) ;
#57 = ORIENTED_EDGE ( 'NONE', *, *, #1021, .T. ) ;
#58 = EDGE_CURVE ( 'NONE', #320, #157, #943, .T. ) ;
#59 = ORIENTED_EDGE ( 'NONE', *, *, #810, .T. ) ;
#60 = DIRECTION ( 'NONE',  ( 0.8660254037844394848, -0.4999999999999985012, 6.123233995736747547E-17 ) ) ;
#61 = ORIENTED_EDGE ( 'NONE', *, *, #596, .T. ) ;
#62 = AXIS2_PLACEMENT_3D ( 'NONE', #176, #760, #27 ) ;
#63 = CARTESIAN_POINT ( 'NONE',  ( -85.00000000000000000, 1.291273123129077766E-14, 0.000000000000000000 ) ) ;
#64 = TOROIDAL_SURFACE ( 'NONE', #297, 23.99999999999998579, 3.000000000000000000 ) ;
#65 = VERTEX_POINT ( 'NONE', #768 ) ;
#66 = AXIS2_PLACEMENT_3D ( 'NONE', #849, #358, #28 ) ;
#67 = ADVANCED_FACE ( 'NONE', ( #431 ), #209, .F. ) ;
#68 = AXIS2_PLACEMENT_3D ( 'NONE', #284, #124, #871 ) ;
#69 = CARTESIAN_POINT ( 'NONE',  ( -26.57297036225150322, 1.272332762144780948E-14, 0.000000000000000000 ) ) ;
#70 = FACE_OUTER_BOUND ( 'NONE', #973, .T. ) ;
#71 = ORIENTED_EDGE ( 'NONE', *, *, #14, .F. ) ;
#72 = DIRECTION ( 'NONE',  ( 3.969952365870146765E-34, 1.224646799147353207E-16, 1.000000000000000000 ) ) ;
#73 = VERTEX_POINT ( 'NONE', #36 ) ;
#74 = CARTESIAN_POINT ( 'NONE',  ( 30.72489415089817300, 1.253758443986952920E-14, 0.000000000000000000 ) ) ;
#75 = ORIENTED_EDGE ( 'NONE', *, *, #507, .T. ) ;
#76 = DIRECTION ( 'NONE',  ( 0.000000000000000000, -1.000000000000000000, 0.000000000000000000 ) ) ;
#77 = ORIENTED_EDGE ( 'NONE', *, *, #318, .T. ) ;
#78 = DIRECTION ( 'NONE',  ( 0.000000000000000000, 1.000000000000000000, 0.000000000000000000 ) ) ;
#79 = VECTOR ( 'NONE', #551, 1000.000000000000000 ) ;
#80 = SECURITY_CLASSIFICATION ( '', '', #138 ) ;
#81 = ORIENTED_EDGE ( 'NONE', *, *, #266, .F. ) ;
#82 = AXIS2_PLACEMENT_3D ( 'NONE', #12, #340, #995 ) ;
#83 = FACE_OUTER_BOUND ( 'NONE', #325, .T. ) ;
#84 = EDGE_LOOP ( 'NONE', ( #483, #827, #263, #196 ) ) ;
#85 = CYLINDRICAL_SURFACE ( 'NONE', #1039, 22.74999999999998579 ) ;
#86 = DIRECTION ( 'NONE',  ( 0.000000000000000000, -1.000000000000000000, 0.000000000000000000 ) ) ;
#87 = VERTEX_POINT ( 'NONE', #997 ) ;
#88 = DIRECTION ( 'NONE',  ( 3.241712115390480395E-18, 1.000000000000000000, 0.000000000000000000 ) ) ;
#89 = EDGE_CURVE ( 'NONE', #963, #799, #817, .T. ) ;
#90 = DIRECTION ( 'NONE',  ( -1.000000000000000000, 3.241712115390480395E-18, -0.000000000000000000 ) ) ;
#91 = ORIENTED_EDGE ( 'NONE', *, *, #391, .F. ) ;
#92 = DIRECTION ( 'NONE',  ( -1.000000000000000000, 3.241712115390480395E-18, -0.000000000000000000 ) ) ;
#93 = VECTOR ( 'NONE', #570, 1000.000000000000000 ) ;
#94 = ADVANCED_FACE ( 'NONE', ( #1003 ), #145, .T. ) ;
#95 = VECTOR ( 'NONE', #163, 1000.000000000000000 ) ;
#96 = LINE ( 'NONE', #575, #860 ) ;
#97 = EDGE_LOOP ( 'NONE', ( #991, #374 ) ) ;
#98 = DIRECTION ( 'NONE',  ( 3.969952365870146765E-34, 1.224646799147353207E-16, 1.000000000000000000 ) ) ;
#99 = CARTESIAN_POINT ( 'NONE',  ( -30.72489415089816589, 1.273678696309564381E-14, 0.000000000000000000 ) ) ;
#100 = DIRECTION ( 'NONE',  ( -1.000000000000000000, 0.000000000000000000, 0.000000000000000000 ) ) ;
#101 = EDGE_CURVE ( 'NONE', #157, #619, #353, .T. ) ;
#102 = CARTESIAN_POINT ( 'NONE',  ( 84.99999999999997158, 25.50000000000000000, 3.122849337825748645E-15 ) ) ;
#103 = CARTESIAN_POINT ( 'NONE',  ( -85.00000000000000000, 24.25000000000000000, 2.969768487932330104E-15 ) ) ;
#104 = LINE ( 'NONE', #119, #671 ) ;
#105 = CARTESIAN_POINT ( 'NONE',  ( 26.95213548685032734, -25.74999999999996803, 0.000000000000000000 ) ) ;
#106 = EDGE_CURVE ( 'NONE', #408, #444, #421, .T. ) ;
#107 = DIRECTION ( 'NONE',  ( -3.241712115390480395E-18, -1.000000000000000000, 0.000000000000000000 ) ) ;
#108 = APPLICATION_PROTOCOL_DEFINITION ( 'international standard', 'config_control_design', 1994, #824 ) ;
#109 = SHAPE_DEFINITION_REPRESENTATION ( #797, #252 ) ;
#110 = EDGE_LOOP ( 'NONE', ( #773, #885, #935, #449 ) ) ;
#111 = CARTESIAN_POINT ( 'NONE',  ( 29.97489415089816589, -25.29903810567662958, 3.098238603762382046E-15 ) ) ;
#112 = EDGE_CURVE ( 'NONE', #65, #122, #540, .T. ) ;
#113 = DIRECTION ( 'NONE',  ( -1.000000000000000000, 3.241712115390480395E-18, -0.000000000000000000 ) ) ;
#114 = AXIS2_PLACEMENT_3D ( 'NONE', #178, #845, #189 ) ;
#115 = DIRECTION ( 'NONE',  ( -1.000000000000000000, 3.241712115390480395E-18, -0.000000000000000000 ) ) ;
#116 = VECTOR ( 'NONE', #595, 1000.000000000000000 ) ;
#117 = EDGE_CURVE ( 'NONE', #640, #634, #709, .T. ) ;
#118 = EDGE_LOOP ( 'NONE', ( #541, #726, #960, #207 ) ) ;
#119 = CARTESIAN_POINT ( 'NONE',  ( 29.92104657360479436, 26.99999999999999645, 0.000000000000000000 ) ) ;
#120 = CARTESIAN_POINT ( 'NONE',  ( -27.26912278495813524, 1.272558434719065766E-14, 0.000000000000000000 ) ) ;
#121 = CARTESIAN_POINT ( 'NONE',  ( 26.95213548685032734, 24.24999999999999289, 2.969768487932329315E-15 ) ) ;
#122 = VERTEX_POINT ( 'NONE', #620 ) ;
#123 = ORIENTED_EDGE ( 'NONE', *, *, #989, .T. ) ;
#124 = DIRECTION ( 'NONE',  ( -1.000000000000000000, 3.241712115390480395E-18, -0.000000000000000000 ) ) ;
#125 = DIRECTION ( 'NONE',  ( -1.000000000000000000, 3.241712115390480395E-18, -0.000000000000000000 ) ) ;
#126 = ADVANCED_FACE ( 'NONE', ( #54 ), #555, .T. ) ;
#127 = AXIS2_PLACEMENT_3D ( 'NONE', #312, #321, #891 ) ;
#128 = AXIS2_PLACEMENT_3D ( 'NONE', #99, #425, #86 ) ;
#129 = AXIS2_PLACEMENT_3D ( 'NONE', #445, #282, #844 ) ;
#130 = DIRECTION ( 'NONE',  ( 0.000000000000000000, -1.000000000000000000, 0.000000000000000000 ) ) ;
#131 = EDGE_LOOP ( 'NONE', ( #273, #59, #717, #751 ) ) ;
#132 = AXIS2_PLACEMENT_3D ( 'NONE', #519, #1013, #428 ) ;
#133 = ORIENTED_EDGE ( 'NONE', *, *, #1032, .T. ) ;
#134 = DIRECTION ( 'NONE',  ( -1.000000000000000000, 3.241712115390480395E-18, -0.000000000000000000 ) ) ;
#135 = CARTESIAN_POINT ( 'NONE',  ( 30.72489415089817300, 1.253758443986952920E-14, 0.000000000000000000 ) ) ;
#136 = ADVANCED_FACE ( 'NONE', ( #534 ), #774, .T. ) ;
#137 = EDGE_LOOP ( 'NONE', ( #700, #564, #57, #240 ) ) ;
#138 = SECURITY_CLASSIFICATION_LEVEL ( 'unclassified' ) ;
#139 = CARTESIAN_POINT ( 'NONE',  ( 30.72489415089817300, -23.99999999999997158, 2.939152317953646317E-15 ) ) ;
#140 = VERTEX_POINT ( 'NONE', #298 ) ;
#141 = ADVANCED_FACE ( 'NONE', ( #791 ), #782, .F. ) ;
#142 = ORIENTED_EDGE ( 'NONE', *, *, #833, .T. ) ;
#143 = LINE ( 'NONE', #1045, #144 ) ;
#144 = VECTOR ( 'NONE', #239, 1000.000000000000000 ) ;
#145 = CONICAL_SURFACE ( 'NONE', #278, 26.99999999999998224, 0.5235987755982971503 ) ;
#146 = AXIS2_PLACEMENT_3D ( 'NONE', #233, #732, #323 ) ;
#147 = CIRCLE ( 'NONE', #478, 26.99999999999998579 ) ;
#148 = ADVANCED_FACE ( 'NONE', ( #704 ), #920, .F. ) ;
#149 = ORIENTED_EDGE ( 'NONE', *, *, #267, .F. ) ;
#150 = AXIS2_PLACEMENT_3D ( 'NONE', #210, #770, #612 ) ;
#151 = DIRECTION ( 'NONE',  ( 1.000000000000000000, -3.241712115390480395E-18, 0.000000000000000000 ) ) ;
#152 = ORIENTED_EDGE ( 'NONE', *, *, #412, .T. ) ;
#153 = CARTESIAN_POINT ( 'NONE',  ( -28.01912278495814235, 1.272801563127719942E-14, 0.000000000000000000 ) ) ;
#154 = VERTEX_POINT ( 'NONE', #531 ) ;
#155 = EDGE_CURVE ( 'NONE', #1027, #408, #463, .T. ) ;
#156 = DIRECTION ( 'NONE',  ( -1.000000000000000000, 3.241712115390480395E-18, -0.000000000000000000 ) ) ;
#157 = VERTEX_POINT ( 'NONE', #638 ) ;
#158 = DIRECTION ( 'NONE',  ( -3.969952365870146765E-34, -1.224646799147353207E-16, 1.000000000000000000 ) ) ;
#159 = ORIENTED_EDGE ( 'NONE', *, *, #469, .F. ) ;
#160 = TOROIDAL_SURFACE ( 'NONE', #665, 23.99999999999998579, 1.500000000000000000 ) ;
#161 = CARTESIAN_POINT ( 'NONE',  ( 29.22489415089816944, 26.59807621135331956, 0.000000000000000000 ) ) ;
#162 = ORIENTED_EDGE ( 'NONE', *, *, #591, .F. ) ;
#163 = DIRECTION ( 'NONE',  ( 0.8660254037844394848, -0.4999999999999985012, 6.123233995736747547E-17 ) ) ;
#164 = TOROIDAL_SURFACE ( 'NONE', #522, 28.74999999999997868, 4.500000000000000888 ) ;
#165 = CC_DESIGN_APPROVAL ( #681, ( #930 ) ) ;
#166 = PLANE ( 'NONE',  #823 ) ;
#167 = CIRCLE ( 'NONE', #766, 26.59807621135330535 ) ;
#168 = CARTESIAN_POINT ( 'NONE',  ( 30.72489415089817300, 1.253758443986952920E-14, 0.000000000000000000 ) ) ;
#169 = EDGE_LOOP ( 'NONE', ( #630, #513, #559, #837 ) ) ;
#170 = DIRECTION ( 'NONE',  ( -1.000000000000000000, 0.000000000000000000, 0.000000000000000000 ) ) ;
#171 = EDGE_CURVE ( 'NONE', #887, #157, #260, .T. ) ;
#172 = CARTESIAN_POINT ( 'NONE',  ( -26.51912278495813169, 1.272315306310411275E-14, 0.000000000000000000 ) ) ;
#173 = EDGE_LOOP ( 'NONE', ( #292, #3, #1050, #831 ) ) ;
#174 = DIRECTION ( 'NONE',  ( 0.000000000000000000, -1.000000000000000000, 0.000000000000000000 ) ) ;
#175 = EDGE_CURVE ( 'NONE', #320, #614, #800, .T. ) ;
#176 = CARTESIAN_POINT ( 'NONE',  ( -26.51912278495813169, 1.272315306310411275E-14, 0.000000000000000000 ) ) ;
#177 = ORIENTED_EDGE ( 'NONE', *, *, #46, .T. ) ;
#178 = CARTESIAN_POINT ( 'NONE',  ( -30.72489415089816589, 1.273678696309564381E-14, 0.000000000000000000 ) ) ;
#179 = AXIS2_PLACEMENT_3D ( 'NONE', #676, #338, #836 ) ;
#180 = EDGE_CURVE ( 'NONE', #371, #870, #589, .T. ) ;
#181 = DIRECTION ( 'NONE',  ( 1.000000000000000000, -3.241712115390480395E-18, 0.000000000000000000 ) ) ;
#182 = CIRCLE ( 'NONE', #880, 4.499999999999997335 ) ;
#183 = DIRECTION ( 'NONE',  ( -1.000000000000000000, 3.241712115390480395E-18, -0.000000000000000000 ) ) ;
#184 = DIRECTION ( 'NONE',  ( -1.000000000000000000, 3.241712115390480395E-18, -0.000000000000000000 ) ) ;
#185 = FACE_BOUND ( 'NONE', #45, .T. ) ;
#186 = EDGE_CURVE ( 'NONE', #634, #640, #336, .T. ) ;
#187 = DIRECTION ( 'NONE',  ( 0.8660254037844364872, 0.5000000000000037748, 0.000000000000000000 ) ) ;
#188 = EDGE_LOOP ( 'NONE', ( #994, #637, #327, #71 ) ) ;
#189 = DIRECTION ( 'NONE',  ( 0.000000000000000000, -1.000000000000000000, 0.000000000000000000 ) ) ;
#190 = DIRECTION ( 'NONE',  ( 1.000000000000000000, -3.241712115390480395E-18, 0.000000000000000000 ) ) ;
#191 = DIRECTION ( 'NONE',  ( 0.000000000000000000, 1.000000000000000000, 0.000000000000000000 ) ) ;
#192 = CC_DESIGN_APPROVAL ( #652, ( #80 ) ) ;
#193 = CIRCLE ( 'NONE', #903, 24.24999999999998224 ) ;
#194 = COORDINATED_UNIVERSAL_TIME_OFFSET ( 1, 0, .AHEAD. ) ;
#195 = EDGE_LOOP ( 'NONE', ( #793, #1029, #785, #794 ) ) ;
#196 = ORIENTED_EDGE ( 'NONE', *, *, #583, .F. ) ;
#197 = LINE ( 'NONE', #832, #749 ) ;
#198 = FACE_OUTER_BOUND ( 'NONE', #1042, .T. ) ;
#199 = ADVANCED_FACE ( 'NONE', ( #402 ), #818, .T. ) ;
#200 = DATE_TIME_ROLE ( 'classification_date' ) ;
#201 = EDGE_LOOP ( 'NONE', ( #571, #772, #557, #807 ) ) ;
#202 = DIRECTION ( 'NONE',  ( -1.000000000000000000, 3.241712115390480395E-18, -0.000000000000000000 ) ) ;
#203 = FACE_OUTER_BOUND ( 'NONE', #84, .T. ) ;
#204 = EDGE_CURVE ( 'NONE', #950, #660, #477, .T. ) ;
#205 = DIRECTION ( 'NONE',  ( 1.000000000000000000, -3.241712115390480395E-18, 0.000000000000000000 ) ) ;
#206 = LINE ( 'NONE', #775, #285 ) ;
#207 = ORIENTED_EDGE ( 'NONE', *, *, #236, .T. ) ;
#208 = CONICAL_SURFACE ( 'NONE', #554, 26.99999999999998224, 0.5235987755982971503 ) ;
#209 = CONICAL_SURFACE ( 'NONE', #259, 24.45096189432332778, 0.5235987755983032566 ) ;
#210 = CARTESIAN_POINT ( 'NONE',  ( 28.45213548685031668, 1.254495206916613387E-14, 0.000000000000000000 ) ) ;
#211 = ORIENTED_EDGE ( 'NONE', *, *, #352, .F. ) ;
#212 = CIRCLE ( 'NONE', #492, 25.34807621135329470 ) ;
#213 = VECTOR ( 'NONE', #752, 1000.000000000000000 ) ;
#214 = ORIENTED_EDGE ( 'NONE', *, *, #175, .T. ) ;
#215 = DIRECTION ( 'NONE',  ( 1.000000000000000000, -3.241712115390480395E-18, 0.000000000000000000 ) ) ;
#216 = LINE ( 'NONE', #616, #337 ) ;
#217 = ORIENTED_EDGE ( 'NONE', *, *, #1030, .F. ) ;
#218 = ORIENTED_EDGE ( 'NONE', *, *, #376, .F. ) ;
#219 = EDGE_CURVE ( 'NONE', #308, #415, #354, .T. ) ;
#220 = CARTESIAN_POINT ( 'NONE',  ( -85.00000000000000000, 22.75000000000000000, 2.786071468060226593E-15 ) ) ;
#221 = EDGE_LOOP ( 'NONE', ( #731, #214 ) ) ;
#222 = DATE_AND_TIME ( #714, #759 ) ;
#223 = DIRECTION ( 'NONE',  ( 1.000000000000000000, -3.241712115390480395E-18, 0.000000000000000000 ) ) ;
#224 = AXIS2_PLACEMENT_3D ( 'NONE', #496, #341, #332 ) ;
#225 = VERTEX_POINT ( 'NONE', #501 ) ;
#226 = DIRECTION ( 'NONE',  ( 0.8660254037844364872, -0.5000000000000037748, 6.123233995736814107E-17 ) ) ;
#227 = EDGE_CURVE ( 'NONE', #122, #65, #280, .T. ) ;
#228 = AXIS2_PLACEMENT_3D ( 'NONE', #74, #394, #723 ) ;
#229 = CONICAL_SURFACE ( 'NONE', #51, 25.74999999999998224, 0.5235987755983032566 ) ;
#230 = VERTEX_POINT ( 'NONE', #309 ) ;
#231 = DIRECTION ( 'NONE',  ( 1.000000000000000000, -3.241712115390480395E-18, 0.000000000000000000 ) ) ;
#232 = ORIENTED_EDGE ( 'NONE', *, *, #645, .F. ) ;
#233 = CARTESIAN_POINT ( 'NONE',  ( -30.72489415089816589, 1.273678696309564381E-14, 0.000000000000000000 ) ) ;
#234 = EDGE_CURVE ( 'NONE', #308, #371, #958, .T. ) ;
#235 = FACE_OUTER_BOUND ( 'NONE', #936, .T. ) ;
#236 = EDGE_CURVE ( 'NONE', #73, #390, #491, .T. ) ;
#237 = EDGE_LOOP ( 'NONE', ( #218, #1033, #552, #232 ) ) ;
#238 = ADVANCED_FACE ( 'NONE', ( #828 ), #29, .F. ) ;
#239 = DIRECTION ( 'NONE',  ( -1.000000000000000000, 3.241712115390480395E-18, -0.000000000000000000 ) ) ;
#240 = ORIENTED_EDGE ( 'NONE', *, *, #645, .T. ) ;
#241 = DIRECTION ( 'NONE',  ( 0.000000000000000000, -1.000000000000000000, 0.000000000000000000 ) ) ;
#242 = DIRECTION ( 'NONE',  ( -1.000000000000000000, 3.241712115390480395E-18, -0.000000000000000000 ) ) ;
#243 = DIRECTION ( 'NONE',  ( -1.000000000000000000, 3.241712115390480395E-18, -0.000000000000000000 ) ) ;
#244 = ORIENTED_EDGE ( 'NONE', *, *, #578, .T. ) ;
#245 = DIRECTION ( 'NONE',  ( 1.000000000000000000, -3.241712115390480395E-18, 0.000000000000000000 ) ) ;
#246 = AXIS2_PLACEMENT_3D ( 'NONE', #476, #485, #76 ) ;
#247 = AXIS2_PLACEMENT_3D ( 'NONE', #484, #158, #740 ) ;
#248 = AXIS2_PLACEMENT_3D ( 'NONE', #56, #461, #526 ) ;
#249 = CARTESIAN_POINT ( 'NONE',  ( -85.00000000000000000, -25.74999999999996803, 0.000000000000000000 ) ) ;
#250 = EDGE_LOOP ( 'NONE', ( #510, #470, #979, #217 ) ) ;
#251 = DIRECTION ( 'NONE',  ( 3.241712115390480395E-18, 1.000000000000000000, 0.000000000000000000 ) ) ;
#252 = ADVANCED_BREP_SHAPE_REPRESENTATION ( '79-8470 - Stegmuff. 54-51.5-48.5', ( #515, #934 ), #331 ) ;
#253 = CARTESIAN_POINT ( 'NONE',  ( 30.72489415089817300, 1.253758443986952920E-14, 0.000000000000000000 ) ) ;
#254 = ORIENTED_EDGE ( 'NONE', *, *, #14, .T. ) ;
#255 = CARTESIAN_POINT ( 'NONE',  ( 28.45213548685031668, -26.15192378864664846, 3.230005932751142294E-15 ) ) ;
#256 = CARTESIAN_POINT ( 'NONE',  ( 26.95213548685032734, -28.74999999999996803, 0.000000000000000000 ) ) ;
#257 = DIRECTION ( 'NONE',  ( 0.000000000000000000, -0.000000000000000000, -1.000000000000000000 ) ) ;
#258 = CIRCLE ( 'NONE', #875, 24.65192378864668044 ) ;
#259 = AXIS2_PLACEMENT_3D ( 'NONE', #663, #1012, #529 ) ;
#260 = CIRCLE ( 'NONE', #573, 1.500000000000001332 ) ;
#261 = DIRECTION ( 'NONE',  ( 1.000000000000000000, -3.241712115390480395E-18, 0.000000000000000000 ) ) ;
#262 = AXIS2_PLACEMENT_3D ( 'NONE', #769, #363, #686 ) ;
#263 = ORIENTED_EDGE ( 'NONE', *, *, #721, .T. ) ;
#264 = DIRECTION ( 'NONE',  ( 0.000000000000000000, -1.000000000000000000, 0.000000000000000000 ) ) ;
#265 = DIRECTION ( 'NONE',  ( 0.000000000000000000, 1.000000000000000000, 0.000000000000000000 ) ) ;
#266 = EDGE_CURVE ( 'NONE', #703, #602, #801, .T. ) ;
#267 = EDGE_CURVE ( 'NONE', #497, #722, #147, .T. ) ;
#268 = EDGE_CURVE ( 'NONE', #415, #225, #568, .T. ) ;
#269 = EDGE_LOOP ( 'NONE', ( #561, #767, #790, #597 ) ) ;
#270 = FACE_OUTER_BOUND ( 'NONE', #237, .T. ) ;
#271 = CARTESIAN_POINT ( 'NONE',  ( -28.47489415089815168, 23.35288568297003664, 0.000000000000000000 ) ) ;
#272 = DIRECTION ( 'NONE',  ( 0.000000000000000000, 0.000000000000000000, 1.000000000000000000 ) ) ;
#273 = ORIENTED_EDGE ( 'NONE', *, *, #469, .T. ) ;
#274 = FACE_OUTER_BOUND ( 'NONE', #931, .T. ) ;
#275 = ADVANCED_FACE ( 'NONE', ( #822 ), #985, .T. ) ;
#276 = CARTESIAN_POINT ( 'NONE',  ( -85.00000000000000000, 22.75000000000000000, 2.786071468060226593E-15 ) ) ;
#277 = DIRECTION ( 'NONE',  ( -3.241712115390480395E-18, -1.000000000000000000, 0.000000000000000000 ) ) ;
#278 = AXIS2_PLACEMENT_3D ( 'NONE', #761, #215, #1019 ) ;
#279 = EDGE_LOOP ( 'NONE', ( #1058, #796, #593, #300 ) ) ;
#280 = CIRCLE ( 'NONE', #146, 22.74999999999998579 ) ;
#281 = EDGE_CURVE ( 'NONE', #963, #140, #747, .T. ) ;
#282 = DIRECTION ( 'NONE',  ( -1.000000000000000000, 3.241712115390480395E-18, -0.000000000000000000 ) ) ;
#283 = ADVANCED_FACE ( 'NONE', ( #70 ), #543, .T. ) ;
#284 = CARTESIAN_POINT ( 'NONE',  ( 84.99999999999997158, 1.236164017167439692E-14, 0.000000000000000000 ) ) ;
#285 = VECTOR ( 'NONE', #60, 1000.000000000000000 ) ;
#286 = EDGE_LOOP ( 'NONE', ( #1008, #883, #735, #400 ) ) ;
#287 = FACE_OUTER_BOUND ( 'NONE', #584, .T. ) ;
#288 = PRODUCT_RELATED_PRODUCT_CATEGORY ( 'detail', '', ( #1024 ) ) ;
#289 = EDGE_CURVE ( 'NONE', #516, #950, #971, .T. ) ;
#290 = APPROVAL_ROLE ( '' ) ;
#291 = CALENDAR_DATE ( 2026, 16, 9 ) ;
#292 = ORIENTED_EDGE ( 'NONE', *, *, #998, .F. ) ;
#293 = CARTESIAN_POINT ( 'NONE',  ( 26.95213548685032734, 1.254981463733921896E-14, 0.000000000000000000 ) ) ;
#294 = EDGE_CURVE ( 'NONE', #812, #230, #50, .T. ) ;
#295 = APPROVAL_DATE_TIME ( #222, #622 ) ;
#296 = ORIENTED_EDGE ( 'NONE', *, *, #906, .F. ) ;
#297 = AXIS2_PLACEMENT_3D ( 'NONE', #135, #43, #468 ) ;
#298 = CARTESIAN_POINT ( 'NONE',  ( -28.01912278495814235, -25.34807621135328048, 3.104244039677697656E-15 ) ) ;
#299 = DIRECTION ( 'NONE',  ( 1.000000000000000000, -3.241712115390480395E-18, 0.000000000000000000 ) ) ;
#300 = ORIENTED_EDGE ( 'NONE', *, *, #542, .F. ) ;
#301 = AXIS2_PLACEMENT_3D ( 'NONE', #480, #257, #1004 ) ;
#302 = AXIS2_PLACEMENT_3D ( 'NONE', #644, #242, #851 ) ;
#303 = EDGE_CURVE ( 'NONE', #870, #415, #878, .T. ) ;
#304 = VERTEX_POINT ( 'NONE', #839 ) ;
#305 = CARTESIAN_POINT ( 'NONE',  ( 30.72489415089817300, 1.253758443986952920E-14, 0.000000000000000000 ) ) ;
#306 = CYLINDRICAL_SURFACE ( 'NONE', #857, 26.99999999999998579 ) ;
#307 = DIRECTION ( 'NONE',  ( -1.000000000000000000, 3.241712115390480395E-18, -0.000000000000000000 ) ) ;
#308 = VERTEX_POINT ( 'NONE', #105 ) ;
#309 = CARTESIAN_POINT ( 'NONE',  ( 84.99999999999997158, -26.99999999999997513, 0.000000000000000000 ) ) ;
#310 = PERSON_AND_ORGANIZATION ( #741, #986 ) ;
#311 = EDGE_LOOP ( 'NONE', ( #1062, #984, #75, #91 ) ) ;
#312 = CARTESIAN_POINT ( 'NONE',  ( -85.00000000000000000, 1.291273123129077766E-14, 0.000000000000000000 ) ) ;
#313 = AXIS2_PLACEMENT_3D ( 'NONE', #168, #9, #926 ) ;
#314 = ORIENTED_EDGE ( 'NONE', *, *, #1000, .F. ) ;
#315 = CIRCLE ( 'NONE', #1053, 4.500000000000000888 ) ;
#316 = DIRECTION ( 'NONE',  ( -1.000000000000000000, 3.241712115390480395E-18, -0.000000000000000000 ) ) ;
#317 = AXIS2_PLACEMENT_3D ( 'NONE', #1034, #945, #1025 ) ;
#318 = EDGE_CURVE ( 'NONE', #87, #516, #1056, .T. ) ;
#319 = DIRECTION ( 'NONE',  ( 1.000000000000000000, -3.241712115390480395E-18, 0.000000000000000000 ) ) ;
#320 = VERTEX_POINT ( 'NONE', #102 ) ;
#321 = DIRECTION ( 'NONE',  ( -1.000000000000000000, 3.241712115390480395E-18, -0.000000000000000000 ) ) ;
#322 = ORIENTED_EDGE ( 'NONE', *, *, #1011, .T. ) ;
#323 = DIRECTION ( 'NONE',  ( 0.000000000000000000, -1.000000000000000000, 0.000000000000000000 ) ) ;
#324 = CARTESIAN_POINT ( 'NONE',  ( -30.72489415089816589, 27.25000000000000355, 3.337162527676536337E-15 ) ) ;
#325 = EDGE_LOOP ( 'NONE', ( #133, #879, #322, #739 ) ) ;
#326 = FACE_OUTER_BOUND ( 'NONE', #528, .T. ) ;
#327 = ORIENTED_EDGE ( 'NONE', *, *, #1011, .F. ) ;
#328 = CARTESIAN_POINT ( 'NONE',  ( -85.00000000000000000, 1.291273123129077766E-14, 0.000000000000000000 ) ) ;
#329 = DIRECTION ( 'NONE',  ( 0.8660254037844364872, 0.5000000000000037748, 0.000000000000000000 ) ) ;
#330 = EDGE_CURVE ( 'NONE', #683, #339, #590, .T. ) ;
#331 =( GEOMETRIC_REPRESENTATION_CONTEXT ( 3 ) GLOBAL_UNCERTAINTY_ASSIGNED_CONTEXT ( ( #753 ) ) GLOBAL_UNIT_ASSIGNED_CONTEXT ( ( #750, #438, #852 ) ) REPRESENTATION_CONTEXT ( 'NONE', 'WORKASPACE' ) );
#332 = DIRECTION ( 'NONE',  ( -3.241712115390480395E-18, -1.000000000000000000, 0.000000000000000000 ) ) ;
#333 = EDGE_LOOP ( 'NONE', ( #314, #410, #894, #821 ) ) ;
#334 = DIRECTION ( 'NONE',  ( 0.000000000000000000, -1.000000000000000000, 0.000000000000000000 ) ) ;
#335 = AXIS2_PLACEMENT_3D ( 'NONE', #172, #261, #15 ) ;
#336 = CIRCLE ( 'NONE', #672, 24.85288568297000111 ) ;
#337 = VECTOR ( 'NONE', #372, 1000.000000000000000 ) ;
#338 = DIRECTION ( 'NONE',  ( 1.000000000000000000, -3.241712115390480395E-18, 0.000000000000000000 ) ) ;
#339 = VERTEX_POINT ( 'NONE', #30 ) ;
#340 = DIRECTION ( 'NONE',  ( -1.000000000000000000, 3.241712115390480395E-18, -0.000000000000000000 ) ) ;
#341 = DIRECTION ( 'NONE',  ( -1.000000000000000000, 3.241712115390480395E-18, -0.000000000000000000 ) ) ;
#342 = FACE_OUTER_BOUND ( 'NONE', #609, .T. ) ;
#343 = DIRECTION ( 'NONE',  ( 0.8660254037844364872, -0.5000000000000037748, 6.123233995736814107E-17 ) ) ;
#344 = EDGE_CURVE ( 'NONE', #140, #963, #212, .T. ) ;
#345 = LINE ( 'NONE', #249, #781 ) ;
#346 = ORIENTED_EDGE ( 'NONE', *, *, #34, .F. ) ;
#347 = ADVANCED_FACE ( 'NONE', ( #664 ), #730, .T. ) ;
#348 = APPROVAL_PERSON_ORGANIZATION ( #52, #681, #771 ) ;
#349 = DIRECTION ( 'NONE',  ( 0.000000000000000000, -1.000000000000000000, -1.224646799147352714E-16 ) ) ;
#350 = CARTESIAN_POINT ( 'NONE',  ( -28.47489415089815168, 1.272949311083601381E-14, 0.000000000000000000 ) ) ;
#351 = EDGE_CURVE ( 'NONE', #65, #532, #405, .T. ) ;
#352 = EDGE_CURVE ( 'NONE', #950, #140, #668, .T. ) ;
#353 = CIRCLE ( 'NONE', #6, 25.49999999999998579 ) ;
#354 = CIRCLE ( 'NONE', #457, 2.999999999999999112 ) ;
#355 = CIRCLE ( 'NONE', #624, 26.59807621135330535 ) ;
#356 = LINE ( 'NONE', #103, #835 ) ;
#357 = VECTOR ( 'NONE', #329, 999.9999999999998863 ) ;
#358 = DIRECTION ( 'NONE',  ( 0.000000000000000000, 0.000000000000000000, -1.000000000000000000 ) ) ;
#359 = DIRECTION ( 'NONE',  ( -3.241712115390480395E-18, -1.000000000000000000, 0.000000000000000000 ) ) ;
#360 = DIRECTION ( 'NONE',  ( -1.000000000000000000, 3.241712115390480395E-18, 0.000000000000000000 ) ) ;
#361 = EDGE_CURVE ( 'NONE', #855, #225, #355, .T. ) ;
#362 = DIRECTION ( 'NONE',  ( 0.000000000000000000, 0.000000000000000000, -1.000000000000000000 ) ) ;
#363 = DIRECTION ( 'NONE',  ( -1.000000000000000000, 3.241712115390480395E-18, -0.000000000000000000 ) ) ;
#364 = DIRECTION ( 'NONE',  ( 1.000000000000000000, -3.241712115390480395E-18, 0.000000000000000000 ) ) ;
#365 = ORIENTED_EDGE ( 'NONE', *, *, #175, .F. ) ;
#366 = DIRECTION ( 'NONE',  ( -1.000000000000000000, 3.241712115390480395E-18, -0.000000000000000000 ) ) ;
#367 = CARTESIAN_POINT ( 'NONE',  ( -85.00000000000000000, 1.291273123129077766E-14, 0.000000000000000000 ) ) ;
#368 = AXIS2_PLACEMENT_3D ( 'NONE', #592, #418, #744 ) ;
#369 = AXIS2_PLACEMENT_3D ( 'NONE', #63, #243, #641 ) ;
#370 = DATE_AND_TIME ( #527, #474 ) ;
#371 = VERTEX_POINT ( 'NONE', #594 ) ;
#372 = DIRECTION ( 'NONE',  ( -1.000000000000000000, 3.241712115390480395E-18, -0.000000000000000000 ) ) ;
#373 = COORDINATED_UNIVERSAL_TIME_OFFSET ( 1, 0, .AHEAD. ) ;
#374 = ORIENTED_EDGE ( 'NONE', *, *, #805, .T. ) ;
#375 = DIRECTION ( 'NONE',  ( 1.000000000000000000, -3.241712115390480395E-18, 0.000000000000000000 ) ) ;
#376 = EDGE_CURVE ( 'NONE', #140, #611, #437, .T. ) ;
#377 = APPROVAL_ROLE ( '' ) ;
#378 = ORIENTED_EDGE ( 'NONE', *, *, #16, .F. ) ;
#379 = CARTESIAN_POINT ( 'NONE',  ( -30.72489415089816589, 1.273678696309564381E-14, 0.000000000000000000 ) ) ;
#380 = DIRECTION ( 'NONE',  ( 0.000000000000000000, 1.000000000000000000, 0.000000000000000000 ) ) ;
#381 = CC_DESIGN_SECURITY_CLASSIFICATION ( #80, ( #487 ) ) ;
#382 = ORIENTED_EDGE ( 'NONE', *, *, #281, .T. ) ;
#383 = CONICAL_SURFACE ( 'NONE', #503, 24.45096189432332778, 0.5235987755983032566 ) ;
#384 = DIRECTION ( 'NONE',  ( -1.000000000000000000, 3.241712115390480395E-18, -0.000000000000000000 ) ) ;
#385 = AXIS2_PLACEMENT_3D ( 'NONE', #882, #134, #467 ) ;
#386 = CIRCLE ( 'NONE', #610, 23.35288568297002243 ) ;
#387 = ADVANCED_FACE ( 'NONE', ( #270 ), #625, .T. ) ;
#388 = CARTESIAN_POINT ( 'NONE',  ( 30.72489415089817300, 27.00000000000000000, 3.306546357697851761E-15 ) ) ;
#389 = ADVANCED_FACE ( 'NONE', ( #999 ), #850, .F. ) ;
#390 = VERTEX_POINT ( 'NONE', #276 ) ;
#391 = EDGE_CURVE ( 'NONE', #122, #1027, #182, .T. ) ;
#392 = CARTESIAN_POINT ( 'NONE',  ( -85.00000000000000000, -24.24999999999996803, 0.000000000000000000 ) ) ;
#393 = ORIENTED_EDGE ( 'NONE', *, *, #117, .F. ) ;
#394 = DIRECTION ( 'NONE',  ( 1.000000000000000000, -3.241712115390480395E-18, 0.000000000000000000 ) ) ;
#395 = FACE_BOUND ( 'NONE', #221, .T. ) ;
#396 = ORIENTED_EDGE ( 'NONE', *, *, #58, .F. ) ;
#397 = CIRCLE ( 'NONE', #742, 1.500000000000001332 ) ;
#398 = CC_DESIGN_PERSON_AND_ORGANIZATION_ASSIGNMENT ( #310, #789, ( #487 ) ) ;
#399 = DIRECTION ( 'NONE',  ( 0.000000000000000000, -1.000000000000000000, 0.000000000000000000 ) ) ;
#400 = ORIENTED_EDGE ( 'NONE', *, *, #106, .F. ) ;
#401 = AXIS2_PLACEMENT_3D ( 'NONE', #427, #362, #667 ) ;
#402 = FACE_OUTER_BOUND ( 'NONE', #169, .T. ) ;
#403 = EDGE_CURVE ( 'NONE', #371, #799, #197, .T. ) ;
#404 = AXIS2_PLACEMENT_3D ( 'NONE', #525, #48, #948 ) ;
#405 = CIRCLE ( 'NONE', #674, 4.500000000000000888 ) ;
#406 = FACE_OUTER_BOUND ( 'NONE', #311, .T. ) ;
#407 = CIRCLE ( 'NONE', #82, 24.24999999999997868 ) ;
#408 = VERTEX_POINT ( 'NONE', #661 ) ;
#409 = CARTESIAN_POINT ( 'NONE',  ( 84.99999999999997158, 27.00000000000000711, 3.306546357697852550E-15 ) ) ;
#410 = ORIENTED_EDGE ( 'NONE', *, *, #412, .F. ) ;
#411 = DIRECTION ( 'NONE',  ( 0.000000000000000000, 1.000000000000000000, 0.000000000000000000 ) ) ;
#412 = EDGE_CURVE ( 'NONE', #339, #683, #407, .T. ) ;
#413 = PLANE ( 'NONE',  #675 ) ;
#414 = CARTESIAN_POINT ( 'NONE',  ( 26.95213548685032734, 28.74999999999999289, 3.520859547548637876E-15 ) ) ;
#415 = VERTEX_POINT ( 'NONE', #255 ) ;
#416 = CARTESIAN_POINT ( 'NONE',  ( -85.00000000000000000, 1.291273123129077766E-14, 0.000000000000000000 ) ) ;
#417 = EDGE_CURVE ( 'NONE', #122, #73, #504, .T. ) ;
#418 = DIRECTION ( 'NONE',  ( -1.000000000000000000, 3.241712115390480395E-18, -0.000000000000000000 ) ) ;
#419 = ORIENTED_EDGE ( 'NONE', *, *, #617, .F. ) ;
#420 = DIRECTION ( 'NONE',  ( 0.000000000000000000, 1.000000000000000000, 0.000000000000000000 ) ) ;
#421 = CIRCLE ( 'NONE', #489, 24.04903810567664024 ) ;
#422 = AXIS2_PLACEMENT_3D ( 'NONE', #639, #861, #107 ) ;
#423 = ORIENTED_EDGE ( 'NONE', *, *, #112, .T. ) ;
#424 = CARTESIAN_POINT ( 'NONE',  ( -85.00000000000000000, -22.74999999999997158, 0.000000000000000000 ) ) ;
#425 = DIRECTION ( 'NONE',  ( -1.000000000000000000, 3.241712115390480395E-18, -0.000000000000000000 ) ) ;
#426 = EDGE_CURVE ( 'NONE', #640, #887, #41, .T. ) ;
#427 = CARTESIAN_POINT ( 'NONE',  ( -26.51912278495813169, 22.74999999999999289, 0.000000000000000000 ) ) ;
#428 = DIRECTION ( 'NONE',  ( 0.000000000000000000, -1.000000000000000000, 0.000000000000000000 ) ) ;
#429 = PERSON_AND_ORGANIZATION_ROLE ( 'design_owner' ) ;
#430 = DIRECTION ( 'NONE',  ( 3.241712115390480395E-18, 1.000000000000000000, 0.000000000000000000 ) ) ;
#431 = FACE_OUTER_BOUND ( 'NONE', #286, .T. ) ;
#432 = DIRECTION ( 'NONE',  ( 3.241712115390480395E-18, 1.000000000000000000, 0.000000000000000000 ) ) ;
#433 = CARTESIAN_POINT ( 'NONE',  ( 30.72489415089817300, -26.99999999999997158, 0.000000000000000000 ) ) ;
#434 = CIRCLE ( 'NONE', #569, 25.74999999999998224 ) ;
#435 = LOCAL_TIME ( 0, 4, 4.000000000000000000, #194 ) ;
#436 = ORIENTED_EDGE ( 'NONE', *, *, #805, .F. ) ;
#437 = CIRCLE ( 'NONE', #544, 2.999999999999999112 ) ;
#438 =( NAMED_UNIT ( * ) PLANE_ANGLE_UNIT ( ) SI_UNIT ( $, .RADIAN. ) );
#439 = AXIS2_PLACEMENT_3D ( 'NONE', #598, #190, #432 ) ;
#440 = DIRECTION ( 'NONE',  ( 0.000000000000000000, -0.000000000000000000, -1.000000000000000000 ) ) ;
#441 = CARTESIAN_POINT ( 'NONE',  ( 29.22489415089816944, 1.254244700804261586E-14, 0.000000000000000000 ) ) ;
#442 = CARTESIAN_POINT ( 'NONE',  ( 30.72489415089817300, -25.49999999999997158, 0.000000000000000000 ) ) ;
#443 = CC_DESIGN_PERSON_AND_ORGANIZATION_ASSIGNMENT ( #783, #429, ( #1024 ) ) ;
#444 = VERTEX_POINT ( 'NONE', #684 ) ;
#445 = CARTESIAN_POINT ( 'NONE',  ( 26.95213548685032734, 1.254981463733921896E-14, 0.000000000000000000 ) ) ;
#446 = DIRECTION ( 'NONE',  ( -1.000000000000000000, 3.241712115390480395E-18, -0.000000000000000000 ) ) ;
#447 = FACE_OUTER_BOUND ( 'NONE', #873, .T. ) ;
#448 = PERSON_AND_ORGANIZATION ( #741, #986 ) ;
#449 = ORIENTED_EDGE ( 'NONE', *, *, #847, .F. ) ;
#450 = ORIENTED_EDGE ( 'NONE', *, *, #458, .T. ) ;
#451 = DIRECTION ( 'NONE',  ( 0.000000000000000000, -1.000000000000000000, 0.000000000000000000 ) ) ;
#452 = CARTESIAN_POINT ( 'NONE',  ( -26.51912278495813169, 1.272315306310411275E-14, 0.000000000000000000 ) ) ;
#453 = DIRECTION ( 'NONE',  ( -3.241712115390480395E-18, -1.000000000000000000, 0.000000000000000000 ) ) ;
#454 = CIRCLE ( 'NONE', #179, 26.99999999999998579 ) ;
#455 = PERSON_AND_ORGANIZATION_ROLE ( 'classification_officer' ) ;
#456 = EDGE_LOOP ( 'NONE', ( #396, #162, #580, #912 ) ) ;
#457 = AXIS2_PLACEMENT_3D ( 'NONE', #718, #558, #170 ) ;
#458 = EDGE_CURVE ( 'NONE', #1027, #532, #386, .T. ) ;
#459 = CARTESIAN_POINT ( 'NONE',  ( -27.32297036225151032, 1.272575890553435281E-14, 0.000000000000000000 ) ) ;
#460 = AXIS2_PLACEMENT_3D ( 'NONE', #626, #364, #792 ) ;
#461 = DIRECTION ( 'NONE',  ( 0.000000000000000000, 0.000000000000000000, -1.000000000000000000 ) ) ;
#462 = ORIENTED_EDGE ( 'NONE', *, *, #403, .T. ) ;
#463 = LINE ( 'NONE', #1031, #745 ) ;
#464 = PERSON_AND_ORGANIZATION ( #741, #986 ) ;
#465 = ORIENTED_EDGE ( 'NONE', *, *, #906, .T. ) ;
#466 = ADVANCED_FACE ( 'NONE', ( #185, #814 ), #166, .F. ) ;
#467 = DIRECTION ( 'NONE',  ( 0.000000000000000000, -1.000000000000000000, 0.000000000000000000 ) ) ;
#468 = DIRECTION ( 'NONE',  ( 3.241712115390480395E-18, 1.000000000000000000, 0.000000000000000000 ) ) ;
#469 = EDGE_CURVE ( 'NONE', #887, #11, #841, .T. ) ;
#470 = ORIENTED_EDGE ( 'NONE', *, *, #155, .T. ) ;
#471 = CARTESIAN_POINT ( 'NONE',  ( -85.00000000000000000, -24.24999999999997158, 0.000000000000000000 ) ) ;
#472 = ORIENTED_EDGE ( 'NONE', *, *, #426, .F. ) ;
#473 = ADVANCED_FACE ( 'NONE', ( #32 ), #679, .F. ) ;
#474 = LOCAL_TIME ( 0, 4, 4.000000000000000000, #1022 ) ;
#475 = AXIS2_PLACEMENT_3D ( 'NONE', #452, #49, #530 ) ;
#476 = CARTESIAN_POINT ( 'NONE',  ( -26.51912278495813169, 1.272315306310411275E-14, 0.000000000000000000 ) ) ;
#477 = CIRCLE ( 'NONE', #8, 24.65192378864668044 ) ;
#478 = AXIS2_PLACEMENT_3D ( 'NONE', #893, #980, #498 ) ;
#479 = ADVANCED_FACE ( 'NONE', ( #406 ), #33, .T. ) ;
#480 = CARTESIAN_POINT ( 'NONE',  ( -30.72489415089816589, -27.24999999999997513, 0.000000000000000000 ) ) ;
#481 = ORIENTED_EDGE ( 'NONE', *, *, #58, .T. ) ;
#482 = DIRECTION ( 'NONE',  ( 3.969952365870146765E-34, 1.224646799147353207E-16, 1.000000000000000000 ) ) ;
#483 = ORIENTED_EDGE ( 'NONE', *, *, #673, .T. ) ;
#484 = CARTESIAN_POINT ( 'NONE',  ( 26.95213548685032734, 28.74999999999999289, 3.520859547548637876E-15 ) ) ;
#485 = DIRECTION ( 'NONE',  ( 1.000000000000000000, -3.241712115390480395E-18, 0.000000000000000000 ) ) ;
#486 = ADVANCED_FACE ( 'NONE', ( #395, #975 ), #413, .F. ) ;
#487 = PRODUCT_DEFINITION_FORMATION_WITH_SPECIFIED_SOURCE ( 'ANY', '', #1024, .NOT_KNOWN. ) ;
#488 = ORIENTED_EDGE ( 'NONE', *, *, #982, .F. ) ;
#489 = AXIS2_PLACEMENT_3D ( 'NONE', #120, #615, #548 ) ;
#490 = DIRECTION ( 'NONE',  ( -1.000000000000000000, 0.000000000000000000, 0.000000000000000000 ) ) ;
#491 = CIRCLE ( 'NONE', #728, 22.74999999999998579 ) ;
#492 = AXIS2_PLACEMENT_3D ( 'NONE', #917, #755, #18 ) ;
#493 = DIRECTION ( 'NONE',  ( 0.000000000000000000, -1.000000000000000000, 0.000000000000000000 ) ) ;
#494 = CIRCLE ( 'NONE', #150, 26.15192378864666267 ) ;
#495 = ADVANCED_FACE ( 'NONE', ( #235 ), #961, .F. ) ;
#496 = CARTESIAN_POINT ( 'NONE',  ( 26.95213548685032734, 1.254981463733921896E-14, 0.000000000000000000 ) ) ;
#497 = VERTEX_POINT ( 'NONE', #433 ) ;
#498 = DIRECTION ( 'NONE',  ( 0.000000000000000000, 1.000000000000000000, 0.000000000000000000 ) ) ;
#499 = DIRECTION ( 'NONE',  ( -1.000000000000000000, 3.241712115390480395E-18, -0.000000000000000000 ) ) ;
#500 = ORIENTED_EDGE ( 'NONE', *, *, #180, .F. ) ;
#501 = CARTESIAN_POINT ( 'NONE',  ( 29.22489415089816944, -26.59807621135329114, 3.257324889571117775E-15 ) ) ;
#502 = ORIENTED_EDGE ( 'NONE', *, *, #318, .F. ) ;
#503 = AXIS2_PLACEMENT_3D ( 'NONE', #69, #223, #964 ) ;
#504 = LINE ( 'NONE', #424, #213 ) ;
#505 = AXIS2_PLACEMENT_3D ( 'NONE', #414, #658, #19 ) ;
#506 = EDGE_CURVE ( 'NONE', #87, #660, #574, .T. ) ;
#507 = EDGE_CURVE ( 'NONE', #532, #1027, #508, .T. ) ;
#508 = CIRCLE ( 'NONE', #910, 23.35288568297002243 ) ;
#509 = CARTESIAN_POINT ( 'NONE',  ( -28.01912278495814235, 25.34807621135330535, 0.000000000000000000 ) ) ;
#510 = ORIENTED_EDGE ( 'NONE', *, *, #458, .F. ) ;
#511 = CARTESIAN_POINT ( 'NONE',  ( 28.45213548685031668, 1.254495206916613387E-14, 0.000000000000000000 ) ) ;
#512 = FACE_OUTER_BOUND ( 'NONE', #131, .T. ) ;
#513 = ORIENTED_EDGE ( 'NONE', *, *, #376, .T. ) ;
#514 = DIRECTION ( 'NONE',  ( 0.000000000000000000, 1.000000000000000000, 0.000000000000000000 ) ) ;
#515 = MANIFOLD_SOLID_BREP ( 'Shell1', #1037 ) ;
#516 = VERTEX_POINT ( 'NONE', #923 ) ;
#517 = CYLINDRICAL_SURFACE ( 'NONE', #606, 24.24999999999998579 ) ;
#518 = CIRCLE ( 'NONE', #889, 26.99999999999998934 ) ;
#519 = CARTESIAN_POINT ( 'NONE',  ( 26.95213548685032734, 1.254981463733921896E-14, 0.000000000000000000 ) ) ;
#520 = EDGE_CURVE ( 'NONE', #812, #722, #650, .T. ) ;
#521 = DIRECTION ( 'NONE',  ( -3.969952365870146765E-34, -1.224646799147353207E-16, 1.000000000000000000 ) ) ;
#522 = AXIS2_PLACEMENT_3D ( 'NONE', #293, #1014, #277 ) ;
#523 = ORIENTED_EDGE ( 'NONE', *, *, #998, .T. ) ;
#524 = DIRECTION ( 'NONE',  ( 0.000000000000000000, -1.000000000000000000, 0.000000000000000000 ) ) ;
#525 = CARTESIAN_POINT ( 'NONE',  ( 29.20213548685031313, 1.254252078507959053E-14, 0.000000000000000000 ) ) ;
#526 = DIRECTION ( 'NONE',  ( -1.000000000000000000, 0.000000000000000000, 0.000000000000000000 ) ) ;
#527 = CALENDAR_DATE ( 2026, 16, 9 ) ;
#528 = EDGE_LOOP ( 'NONE', ( #623, #970, #244, #346 ) ) ;
#529 = DIRECTION ( 'NONE',  ( 0.000000000000000000, 1.000000000000000000, 0.000000000000000000 ) ) ;
#530 = DIRECTION ( 'NONE',  ( 3.241712115390480395E-18, 1.000000000000000000, 0.000000000000000000 ) ) ;
#531 = CARTESIAN_POINT ( 'NONE',  ( -26.51912278495813169, 24.24999999999999289, 2.969768487932329315E-15 ) ) ;
#532 = VERTEX_POINT ( 'NONE', #271 ) ;
#533 = CARTESIAN_POINT ( 'NONE',  ( 30.67104657360479081, 25.70096189432333489, 0.000000000000000000 ) ) ;
#534 = FACE_OUTER_BOUND ( 'NONE', #809, .T. ) ;
#535 = FACE_OUTER_BOUND ( 'NONE', #550, .T. ) ;
#536 = ORIENTED_EDGE ( 'NONE', *, *, #777, .T. ) ;
#537 = CIRCLE ( 'NONE', #62, 24.24999999999997868 ) ;
#538 = AXIS2_PLACEMENT_3D ( 'NONE', #579, #848, #915 ) ;
#539 = CARTESIAN_POINT ( 'NONE',  ( 0.000000000000000000, 0.000000000000000000, 0.000000000000000000 ) ) ;
#540 = CIRCLE ( 'NONE', #26, 22.74999999999998579 ) ;
#541 = ORIENTED_EDGE ( 'NONE', *, *, #881, .F. ) ;
#542 = EDGE_CURVE ( 'NONE', #660, #963, #757, .T. ) ;
#543 = TOROIDAL_SURFACE ( 'NONE', #228, 23.99999999999998579, 3.000000000000000000 ) ;
#544 = AXIS2_PLACEMENT_3D ( 'NONE', #928, #98, #763 ) ;
#545 = FACE_OUTER_BOUND ( 'NONE', #188, .T. ) ;
#546 = PERSON_AND_ORGANIZATION ( #741, #986 ) ;
#547 = ORIENTED_EDGE ( 'NONE', *, *, #542, .T. ) ;
#548 = DIRECTION ( 'NONE',  ( 0.000000000000000000, 1.000000000000000000, 0.000000000000000000 ) ) ;
#549 = CARTESIAN_POINT ( 'NONE',  ( 29.22489415089816944, 1.254244700804261586E-14, 0.000000000000000000 ) ) ;
#550 = EDGE_LOOP ( 'NONE', ( #211, #892, #547, #382 ) ) ;
#551 = DIRECTION ( 'NONE',  ( -1.000000000000000000, 3.241712115390480395E-18, -0.000000000000000000 ) ) ;
#552 = ORIENTED_EDGE ( 'NONE', *, *, #89, .T. ) ;
#553 = ADVANCED_FACE ( 'NONE', ( #599 ), #933, .T. ) ;
#554 = AXIS2_PLACEMENT_3D ( 'NONE', #647, #983, #886 ) ;
#555 = CONICAL_SURFACE ( 'NONE', #765, 25.74999999999998224, 0.5235987755983032566 ) ;
#556 = CYLINDRICAL_SURFACE ( 'NONE', #127, 24.24999999999997868 ) ;
#557 = ORIENTED_EDGE ( 'NONE', *, *, #171, .T. ) ;
#558 = DIRECTION ( 'NONE',  ( 0.000000000000000000, -0.000000000000000000, -1.000000000000000000 ) ) ;
#559 = ORIENTED_EDGE ( 'NONE', *, *, #833, .F. ) ;
#560 = CARTESIAN_POINT ( 'NONE',  ( 30.72489415089817300, -23.99999999999997158, 2.939152317953646317E-15 ) ) ;
#561 = ORIENTED_EDGE ( 'NONE', *, *, #268, .F. ) ;
#562 = CARTESIAN_POINT ( 'NONE',  ( 30.72489415089817300, 24.00000000000000000, 0.000000000000000000 ) ) ;
#563 = CARTESIAN_POINT ( 'NONE',  ( 30.67104657360479081, 1.253775899821322592E-14, 0.000000000000000000 ) ) ;
#564 = ORIENTED_EDGE ( 'NONE', *, *, #1044, .T. ) ;
#565 = ADVANCED_FACE ( 'NONE', ( #825 ), #85, .F. ) ;
#566 = FACE_OUTER_BOUND ( 'NONE', #110, .T. ) ;
#567 = ORIENTED_EDGE ( 'NONE', *, *, #46, .F. ) ;
#568 = LINE ( 'NONE', #577, #95 ) ;
#569 = AXIS2_PLACEMENT_3D ( 'NONE', #712, #151, #629 ) ;
#570 = DIRECTION ( 'NONE',  ( -1.000000000000000000, 3.241712115390480395E-18, -0.000000000000000000 ) ) ;
#571 = ORIENTED_EDGE ( 'NONE', *, *, #810, .F. ) ;
#572 = CARTESIAN_POINT ( 'NONE',  ( -29.22489415089815523, 1.273192439492255872E-14, 0.000000000000000000 ) ) ;
#573 = AXIS2_PLACEMENT_3D ( 'NONE', #562, #913, #490 ) ;
#574 = CIRCLE ( 'NONE', #863, 2.999999999999999112 ) ;
#575 = CARTESIAN_POINT ( 'NONE',  ( -26.57297036225150322, 24.45096189432334199, 0.000000000000000000 ) ) ;
#576 = ORIENTED_EDGE ( 'NONE', *, *, #106, .T. ) ;
#577 = CARTESIAN_POINT ( 'NONE',  ( 29.92104657360479436, -26.99999999999996803, 3.306546357697851367E-15 ) ) ;
#578 = EDGE_CURVE ( 'NONE', #225, #855, #167, .T. ) ;
#579 = CARTESIAN_POINT ( 'NONE',  ( 26.95213548685032734, 1.254981463733921896E-14, 0.000000000000000000 ) ) ;
#580 = ORIENTED_EDGE ( 'NONE', *, *, #756, .T. ) ;
#581 = EDGE_CURVE ( 'NONE', #415, #870, #494, .T. ) ;
#582 = DIRECTION ( 'NONE',  ( 0.000000000000000000, -0.000000000000000000, -1.000000000000000000 ) ) ;
#583 = EDGE_CURVE ( 'NONE', #444, #154, #711, .T. ) ;
#584 = EDGE_LOOP ( 'NONE', ( #965, #61, #159, #472 ) ) ;
#585 = VECTOR ( 'NONE', #307, 1000.000000000000000 ) ;
#586 = CARTESIAN_POINT ( 'NONE',  ( 84.99999999999997158, 1.236164017167439692E-14, 0.000000000000000000 ) ) ;
#587 = DIRECTION ( 'NONE',  ( 1.000000000000000000, -3.241712115390480395E-18, 0.000000000000000000 ) ) ;
#588 = AXIS2_PLACEMENT_3D ( 'NONE', #778, #183, #1017 ) ;
#589 = CIRCLE ( 'NONE', #247, 2.999999999999999112 ) ;
#590 = CIRCLE ( 'NONE', #132, 24.24999999999997868 ) ;
#591 = EDGE_CURVE ( 'NONE', #614, #320, #695, .T. ) ;
#592 = CARTESIAN_POINT ( 'NONE',  ( 29.97489415089816589, 1.254001572395607411E-14, 0.000000000000000000 ) ) ;
#593 = ORIENTED_EDGE ( 'NONE', *, *, #344, .T. ) ;
#594 = CARTESIAN_POINT ( 'NONE',  ( 26.95213548685032734, 25.74999999999999645, 3.153465507804432037E-15 ) ) ;
#595 = DIRECTION ( 'NONE',  ( -1.000000000000000000, 3.241712115390480395E-18, -0.000000000000000000 ) ) ;
#596 = EDGE_CURVE ( 'NONE', #634, #11, #206, .T. ) ;
#597 = ORIENTED_EDGE ( 'NONE', *, *, #361, .T. ) ;
#598 = CARTESIAN_POINT ( 'NONE',  ( -26.51912278495813169, 1.272315306310411275E-14, 0.000000000000000000 ) ) ;
#599 = FACE_OUTER_BOUND ( 'NONE', #137, .T. ) ;
#600 = APPROVAL_STATUS ( 'not_yet_approved' ) ;
#601 = DESIGN_CONTEXT ( 'detailed design', #824, 'design' ) ;
#602 = VERTEX_POINT ( 'NONE', #780 ) ;
#603 = ORIENTED_EDGE ( 'NONE', *, *, #426, .T. ) ;
#604 = CARTESIAN_POINT ( 'NONE',  ( -30.72489415089816589, -27.24999999999997513, 0.000000000000000000 ) ) ;
#605 = CARTESIAN_POINT ( 'NONE',  ( -29.22489415089815523, 24.65192378864669465, 0.000000000000000000 ) ) ;
#606 = AXIS2_PLACEMENT_3D ( 'NONE', #42, #366, #856 ) ;
#607 = CIRCLE ( 'NONE', #66, 2.999999999999999112 ) ;
#608 = APPROVAL_DATE_TIME ( #1015, #681 ) ;
#609 = EDGE_LOOP ( 'NONE', ( #123, #713, #81, #296 ) ) ;
#610 = AXIS2_PLACEMENT_3D ( 'NONE', #350, #587, #191 ) ;
#611 = VERTEX_POINT ( 'NONE', #691 ) ;
#612 = DIRECTION ( 'NONE',  ( 0.000000000000000000, 1.000000000000000000, 0.000000000000000000 ) ) ;
#613 = DATE_AND_TIME ( #784, #435 ) ;
#614 = VERTEX_POINT ( 'NONE', #787 ) ;
#615 = DIRECTION ( 'NONE',  ( -1.000000000000000000, 3.241712115390480395E-18, -0.000000000000000000 ) ) ;
#616 = CARTESIAN_POINT ( 'NONE',  ( -85.00000000000000000, -24.24999999999996447, 0.000000000000000000 ) ) ;
#617 = EDGE_CURVE ( 'NONE', #339, #304, #216, .T. ) ;
#618 = ADVANCED_FACE ( 'NONE', ( #535 ), #229, .T. ) ;
#619 = VERTEX_POINT ( 'NONE', #442 ) ;
#620 = CARTESIAN_POINT ( 'NONE',  ( -30.72489415089816589, -22.74999999999997158, 0.000000000000000000 ) ) ;
#621 = DIRECTION ( 'NONE',  ( -1.000000000000000000, 3.241712115390480395E-18, -0.000000000000000000 ) ) ;
#622 = APPROVAL ( #946, 'UNSPECIFIED' ) ;
#623 = ORIENTED_EDGE ( 'NONE', *, *, #303, .T. ) ;
#624 = AXIS2_PLACEMENT_3D ( 'NONE', #441, #113, #264 ) ;
#625 = TOROIDAL_SURFACE ( 'NONE', #439, 22.74999999999997868, 3.000000000000000000 ) ;
#626 = CARTESIAN_POINT ( 'NONE',  ( 30.67104657360479081, 1.253775899821322592E-14, 0.000000000000000000 ) ) ;
#627 = ORIENTED_EDGE ( 'NONE', *, *, #506, .T. ) ;
#628 = ADVANCED_FACE ( 'NONE', ( #287 ), #924, .F. ) ;
#629 = DIRECTION ( 'NONE',  ( 0.000000000000000000, 1.000000000000000000, 0.000000000000000000 ) ) ;
#630 = ORIENTED_EDGE ( 'NONE', *, *, #344, .F. ) ;
#631 = CC_DESIGN_DATE_AND_TIME_ASSIGNMENT ( #370, #952, ( #930 ) ) ;
#632 = FACE_OUTER_BOUND ( 'NONE', #250, .T. ) ;
#633 = DIRECTION ( 'NONE',  ( 1.000000000000000000, -3.241712115390480395E-18, 0.000000000000000000 ) ) ;
#634 = VERTEX_POINT ( 'NONE', #705 ) ;
#635 = VECTOR ( 'NONE', #666, 1000.000000000000000 ) ;
#636 = DIRECTION ( 'NONE',  ( -3.241712115390480395E-18, -1.000000000000000000, 0.000000000000000000 ) ) ;
#637 = ORIENTED_EDGE ( 'NONE', *, *, #862, .T. ) ;
#638 = CARTESIAN_POINT ( 'NONE',  ( 30.72489415089817300, 25.50000000000000000, 3.122849337825748645E-15 ) ) ;
#639 = CARTESIAN_POINT ( 'NONE',  ( -30.72489415089816589, 1.273678696309564381E-14, 0.000000000000000000 ) ) ;
#640 = VERTEX_POINT ( 'NONE', #698 ) ;
#641 = DIRECTION ( 'NONE',  ( 0.000000000000000000, -1.000000000000000000, 0.000000000000000000 ) ) ;
#642 = EDGE_LOOP ( 'NONE', ( #502, #627, #865, #655 ) ) ;
#643 = DIRECTION ( 'NONE',  ( 1.000000000000000000, -3.241712115390480395E-18, 0.000000000000000000 ) ) ;
#644 = CARTESIAN_POINT ( 'NONE',  ( -85.00000000000000000, 1.291273123129077766E-14, 0.000000000000000000 ) ) ;
#645 = EDGE_CURVE ( 'NONE', #611, #799, #786, .T. ) ;
#646 = ORIENTED_EDGE ( 'NONE', *, *, #351, .F. ) ;
#647 = CARTESIAN_POINT ( 'NONE',  ( 29.92104657360479436, 1.254019028229976926E-14, 0.000000000000000000 ) ) ;
#648 = ORIENTED_EDGE ( 'NONE', *, *, #881, .T. ) ;
#649 = DIRECTION ( 'NONE',  ( -1.000000000000000000, 3.241712115390480395E-18, -0.000000000000000000 ) ) ;
#650 = LINE ( 'NONE', #929, #116 ) ;
#651 = CC_DESIGN_APPROVAL ( #622, ( #487 ) ) ;
#652 = APPROVAL ( #600, 'UNSPECIFIED' ) ;
#653 = ADVANCED_FACE ( 'NONE', ( #687 ), #164, .T. ) ;
#654 = CARTESIAN_POINT ( 'NONE',  ( -29.22489415089815523, -24.65192378864666978, 3.061616997868381465E-15 ) ) ;
#655 = ORIENTED_EDGE ( 'NONE', *, *, #289, .F. ) ;
#656 = DIRECTION ( 'NONE',  ( -1.000000000000000000, 3.241712115390480395E-18, -0.000000000000000000 ) ) ;
#657 = AXIS2_PLACEMENT_3D ( 'NONE', #872, #125, #453 ) ;
#658 = DIRECTION ( 'NONE',  ( -3.969952365870146765E-34, -1.224646799147353207E-16, 1.000000000000000000 ) ) ;
#659 = ADVANCED_FACE ( 'NONE', ( #203 ), #707, .F. ) ;
#660 = VERTEX_POINT ( 'NONE', #605 ) ;
#661 = CARTESIAN_POINT ( 'NONE',  ( -27.26912278495813524, -24.04903810567662603, 2.945157753868962322E-15 ) ) ;
#662 = CARTESIAN_POINT ( 'NONE',  ( -26.51912278495813169, -22.74999999999996447, 2.786071468060225804E-15 ) ) ;
#663 = CARTESIAN_POINT ( 'NONE',  ( -26.57297036225150322, 1.272332762144780948E-14, 0.000000000000000000 ) ) ;
#664 = FACE_OUTER_BOUND ( 'NONE', #815, .T. ) ;
#665 = AXIS2_PLACEMENT_3D ( 'NONE', #253, #181, #430 ) ;
#666 = DIRECTION ( 'NONE',  ( -1.000000000000000000, 3.241712115390480395E-18, -0.000000000000000000 ) ) ;
#667 = DIRECTION ( 'NONE',  ( -1.000000000000000000, 0.000000000000000000, 0.000000000000000000 ) ) ;
#668 = LINE ( 'NONE', #678, #820 ) ;
#669 = LOCAL_TIME ( 0, 4, 4.000000000000000000, #39 ) ;
#670 = DIRECTION ( 'NONE',  ( 1.000000000000000000, -3.241712115390480395E-18, 0.000000000000000000 ) ) ;
#671 = VECTOR ( 'NONE', #677, 1000.000000000000000 ) ;
#672 = AXIS2_PLACEMENT_3D ( 'NONE', #1065, #813, #78 ) ;
#673 = EDGE_CURVE ( 'NONE', #444, #408, #1036, .T. ) ;
#674 = AXIS2_PLACEMENT_3D ( 'NONE', #21, #1009, #349 ) ;
#675 = AXIS2_PLACEMENT_3D ( 'NONE', #733, #360, #1005 ) ;
#676 = CARTESIAN_POINT ( 'NONE',  ( 30.72489415089817300, 1.253758443986952920E-14, 0.000000000000000000 ) ) ;
#677 = DIRECTION ( 'NONE',  ( 0.8660254037844394848, 0.4999999999999985012, 0.000000000000000000 ) ) ;
#678 = CARTESIAN_POINT ( 'NONE',  ( -27.32297036225151032, -25.74999999999996803, 3.153465507804432037E-15 ) ) ;
#679 = CYLINDRICAL_SURFACE ( 'NONE', #302, 25.49999999999998579 ) ;
#680 = ADVANCED_FACE ( 'NONE', ( #198 ), #1028, .F. ) ;
#681 = APPROVAL ( #758, 'UNSPECIFIED' ) ;
#682 = DATE_AND_TIME ( #291, #669 ) ;
#683 = VERTEX_POINT ( 'NONE', #121 ) ;
#684 = CARTESIAN_POINT ( 'NONE',  ( -27.26912278495813524, 24.04903810567665445, 0.000000000000000000 ) ) ;
#685 = CYLINDRICAL_SURFACE ( 'NONE', #957, 24.24999999999997868 ) ;
#686 = DIRECTION ( 'NONE',  ( 0.000000000000000000, -1.000000000000000000, 0.000000000000000000 ) ) ;
#687 = FACE_OUTER_BOUND ( 'NONE', #173, .T. ) ;
#688 = DIRECTION ( 'NONE',  ( 1.000000000000000000, 0.000000000000000000, 0.000000000000000000 ) ) ;
#689 = ORIENTED_EDGE ( 'NONE', *, *, #303, .F. ) ;
#690 = CARTESIAN_POINT ( 'NONE',  ( -85.00000000000000000, 25.50000000000000000, 3.122849337825748645E-15 ) ) ;
#691 = CARTESIAN_POINT ( 'NONE',  ( -26.51912278495813169, -25.74999999999996803, 0.000000000000000000 ) ) ;
#692 = TOROIDAL_SURFACE ( 'NONE', #224, 28.74999999999997868, 4.500000000000000888 ) ;
#693 = AXIS2_PLACEMENT_3D ( 'NONE', #153, #656, #992 ) ;
#694 = ORIENTED_EDGE ( 'NONE', *, *, #219, .T. ) ;
#695 = CIRCLE ( 'NONE', #68, 25.49999999999998579 ) ;
#696 = ADVANCED_FACE ( 'NONE', ( #545 ), #64, .T. ) ;
#697 = ADVANCED_FACE ( 'NONE', ( #447 ), #1049, .T. ) ;
#698 = CARTESIAN_POINT ( 'NONE',  ( 29.20213548685031313, 24.85288568297001532, 0.000000000000000000 ) ) ;
#699 = PERSON_AND_ORGANIZATION ( #741, #986 ) ;
#700 = ORIENTED_EDGE ( 'NONE', *, *, #403, .F. ) ;
#701 = DIRECTION ( 'NONE',  ( 0.8660254037844394848, 0.4999999999999985012, 0.000000000000000000 ) ) ;
#702 = CARTESIAN_POINT ( 'NONE',  ( -26.51912278495813169, 1.272315306310411275E-14, 0.000000000000000000 ) ) ;
#703 = VERTEX_POINT ( 'NONE', #392 ) ;
#704 = FACE_OUTER_BOUND ( 'NONE', #642, .T. ) ;
#705 = CARTESIAN_POINT ( 'NONE',  ( 29.20213548685031313, -24.85288568296998690, 3.070919646942405776E-15 ) ) ;
#706 = ORIENTED_EDGE ( 'NONE', *, *, #117, .T. ) ;
#707 = TOROIDAL_SURFACE ( 'NONE', #475, 22.74999999999997868, 1.500000000000000000 ) ;
#708 = ORIENTED_EDGE ( 'NONE', *, *, #417, .F. ) ;
#709 = CIRCLE ( 'NONE', #404, 24.85288568297000111 ) ;
#710 = DIRECTION ( 'NONE',  ( 1.000000000000000000, -3.241712115390480395E-18, 0.000000000000000000 ) ) ;
#711 = CIRCLE ( 'NONE', #248, 1.500000000000001332 ) ;
#712 = CARTESIAN_POINT ( 'NONE',  ( -26.51912278495813169, 1.272315306310411275E-14, 0.000000000000000000 ) ) ;
#713 = ORIENTED_EDGE ( 'NONE', *, *, #968, .T. ) ;
#714 = CALENDAR_DATE ( 2026, 16, 9 ) ;
#715 = ORIENTED_EDGE ( 'NONE', *, *, #361, .F. ) ;
#716 = DIRECTION ( 'NONE',  ( 0.000000000000000000, -1.000000000000000000, 0.000000000000000000 ) ) ;
#717 = ORIENTED_EDGE ( 'NONE', *, *, #982, .T. ) ;
#718 = CARTESIAN_POINT ( 'NONE',  ( 26.95213548685032734, -28.74999999999996803, 0.000000000000000000 ) ) ;
#719 = EDGE_LOOP ( 'NONE', ( #17, #1010, #1048, #419 ) ) ;
#720 = CARTESIAN_POINT ( 'NONE',  ( -85.00000000000000000, 1.291273123129077766E-14, 0.000000000000000000 ) ) ;
#721 = EDGE_CURVE ( 'NONE', #304, #154, #5, .T. ) ;
#722 = VERTEX_POINT ( 'NONE', #388 ) ;
#723 = DIRECTION ( 'NONE',  ( 3.241712115390480395E-18, 1.000000000000000000, 0.000000000000000000 ) ) ;
#724 = DIRECTION ( 'NONE',  ( 0.000000000000000000, -1.000000000000000000, -1.224646799147353454E-16 ) ) ;
#725 = AXIS2_PLACEMENT_3D ( 'NONE', #806, #156, #636 ) ;
#726 = ORIENTED_EDGE ( 'NONE', *, *, #227, .F. ) ;
#727 = VECTOR ( 'NONE', #202, 1000.000000000000000 ) ;
#728 = AXIS2_PLACEMENT_3D ( 'NONE', #328, #974, #411 ) ;
#729 = DIRECTION ( 'NONE',  ( 0.000000000000000000, -1.000000000000000000, 1.224646799147351975E-16 ) ) ;
#730 = TOROIDAL_SURFACE ( 'NONE', #907, 27.24999999999998934, 4.500000000000000888 ) ;
#731 = ORIENTED_EDGE ( 'NONE', *, *, #591, .T. ) ;
#732 = DIRECTION ( 'NONE',  ( -1.000000000000000000, 3.241712115390480395E-18, -0.000000000000000000 ) ) ;
#733 = CARTESIAN_POINT ( 'NONE',  ( 84.99999999999998579, 27.00000000000000355, 0.000000000000000000 ) ) ;
#734 = DIRECTION ( 'NONE',  ( 0.000000000000000000, -1.000000000000000000, 1.224646799147353454E-16 ) ) ;
#735 = ORIENTED_EDGE ( 'NONE', *, *, #1030, .T. ) ;
#736 = CARTESIAN_POINT ( 'NONE',  ( 84.99999999999997158, 1.236164017167439692E-14, 0.000000000000000000 ) ) ;
#737 = DIRECTION ( 'NONE',  ( 3.241712115390480395E-18, 1.000000000000000000, 0.000000000000000000 ) ) ;
#738 = ADVANCED_FACE ( 'NONE', ( #83 ), #306, .T. ) ;
#739 = ORIENTED_EDGE ( 'NONE', *, *, #777, .F. ) ;
#740 = DIRECTION ( 'NONE',  ( 0.000000000000000000, -1.000000000000000000, -1.224646799147353454E-16 ) ) ;
#741 = PERSON ( 'UNSPECIFIED', 'UNSPECIFIED', 'UNSPECIFIED', ('UNSPECIFIED'), ('UNSPECIFIED'), ('UNSPECIFIED') ) ;
#742 = AXIS2_PLACEMENT_3D ( 'NONE', #139, #72, #729 ) ;
#743 = TOROIDAL_SURFACE ( 'NONE', #129, 28.74999999999997868, 3.000000000000000000 ) ;
#744 = DIRECTION ( 'NONE',  ( 0.000000000000000000, 1.000000000000000000, 0.000000000000000000 ) ) ;
#745 = VECTOR ( 'NONE', #226, 999.9999999999998863 ) ;
#746 = DIRECTION ( 'NONE',  ( -1.000000000000000000, 3.241712115390480395E-18, -0.000000000000000000 ) ) ;
#747 = CIRCLE ( 'NONE', #693, 25.34807621135329470 ) ;
#748 = APPLICATION_CONTEXT ( 'configuration controlled 3d designs of mechanical parts and assemblies' ) ;
#749 = VECTOR ( 'NONE', #92, 1000.000000000000000 ) ;
#750 =( LENGTH_UNIT ( ) NAMED_UNIT ( * ) SI_UNIT ( .MILLI., .METRE. ) );
#751 = ORIENTED_EDGE ( 'NONE', *, *, #171, .F. ) ;
#752 = DIRECTION ( 'NONE',  ( -1.000000000000000000, 3.241712115390480395E-18, -0.000000000000000000 ) ) ;
#753 = UNCERTAINTY_MEASURE_WITH_UNIT (LENGTH_MEASURE( 1.000000000000000082E-05 ), #750, 'distance_accuracy_value', 'NONE');
#754 = CARTESIAN_POINT ( 'NONE',  ( -85.00000000000000000, 1.291273123129077766E-14, 0.000000000000000000 ) ) ;
#755 = DIRECTION ( 'NONE',  ( -1.000000000000000000, 3.241712115390480395E-18, -0.000000000000000000 ) ) ;
#756 = EDGE_CURVE ( 'NONE', #614, #619, #966, .T. ) ;
#757 = LINE ( 'NONE', #981, #357 ) ;
#758 = APPROVAL_STATUS ( 'not_yet_approved' ) ;
#759 = LOCAL_TIME ( 0, 4, 4.000000000000000000, #25 ) ;
#760 = DIRECTION ( 'NONE',  ( 1.000000000000000000, -3.241712115390480395E-18, 0.000000000000000000 ) ) ;
#761 = CARTESIAN_POINT ( 'NONE',  ( 29.92104657360479436, 1.254019028229976926E-14, 0.000000000000000000 ) ) ;
#762 = AXIS2_PLACEMENT_3D ( 'NONE', #874, #621, #130 ) ;
#763 = DIRECTION ( 'NONE',  ( 0.000000000000000000, -1.000000000000000000, 1.224646799147353454E-16 ) ) ;
#764 = CARTESIAN_POINT ( 'NONE',  ( -28.47489415089815168, 1.272949311083601381E-14, 0.000000000000000000 ) ) ;
#765 = AXIS2_PLACEMENT_3D ( 'NONE', #459, #205, #867 ) ;
#766 = AXIS2_PLACEMENT_3D ( 'NONE', #549, #115, #1035 ) ;
#767 = ORIENTED_EDGE ( 'NONE', *, *, #581, .T. ) ;
#768 = CARTESIAN_POINT ( 'NONE',  ( -30.72489415089816589, 22.75000000000000000, 2.786071468060226593E-15 ) ) ;
#769 = CARTESIAN_POINT ( 'NONE',  ( -85.00000000000000000, 1.291273123129077766E-14, 0.000000000000000000 ) ) ;
#770 = DIRECTION ( 'NONE',  ( 1.000000000000000000, -3.241712115390480395E-18, 0.000000000000000000 ) ) ;
#771 = APPROVAL_ROLE ( '' ) ;
#772 = ORIENTED_EDGE ( 'NONE', *, *, #976, .T. ) ;
#773 = ORIENTED_EDGE ( 'NONE', *, *, #506, .F. ) ;
#774 = CYLINDRICAL_SURFACE ( 'NONE', #385, 25.74999999999998224 ) ;
#775 = CARTESIAN_POINT ( 'NONE',  ( 30.67104657360479081, -25.70096189432330647, 3.147460071889115243E-15 ) ) ;
#776 = EDGE_LOOP ( 'NONE', ( #942, #576, #804, #35 ) ) ;
#777 = EDGE_CURVE ( 'NONE', #230, #497, #143, .T. ) ;
#778 = CARTESIAN_POINT ( 'NONE',  ( -85.00000000000000000, 1.291273123129077766E-14, 0.000000000000000000 ) ) ;
#779 = DIRECTION ( 'NONE',  ( 0.000000000000000000, -1.000000000000000000, 0.000000000000000000 ) ) ;
#780 = CARTESIAN_POINT ( 'NONE',  ( -85.00000000000000000, 24.24999999999999645, 2.969768487932329709E-15 ) ) ;
#781 = VECTOR ( 'NONE', #996, 1000.000000000000000 ) ;
#782 = TOROIDAL_SURFACE ( 'NONE', #317, 28.74999999999997868, 3.000000000000000000 ) ;
#783 = PERSON_AND_ORGANIZATION ( #741, #986 ) ;
#784 = CALENDAR_DATE ( 2026, 16, 9 ) ;
#785 = ORIENTED_EDGE ( 'NONE', *, *, #581, .F. ) ;
#786 = CIRCLE ( 'NONE', #959, 25.74999999999998224 ) ;
#787 = CARTESIAN_POINT ( 'NONE',  ( 84.99999999999997158, -25.49999999999997158, 0.000000000000000000 ) ) ;
#788 = ORIENTED_EDGE ( 'NONE', *, *, #1021, .F. ) ;
#789 = PERSON_AND_ORGANIZATION_ROLE ( 'creator' ) ;
#790 = ORIENTED_EDGE ( 'NONE', *, *, #34, .T. ) ;
#791 = FACE_OUTER_BOUND ( 'NONE', #195, .T. ) ;
#792 = DIRECTION ( 'NONE',  ( 0.000000000000000000, 1.000000000000000000, 0.000000000000000000 ) ) ;
#793 = ORIENTED_EDGE ( 'NONE', *, *, #1044, .F. ) ;
#794 = ORIENTED_EDGE ( 'NONE', *, *, #219, .F. ) ;
#795 = DIRECTION ( 'NONE',  ( -1.000000000000000000, 3.241712115390480395E-18, -0.000000000000000000 ) ) ;
#796 = ORIENTED_EDGE ( 'NONE', *, *, #352, .T. ) ;
#797 = PRODUCT_DEFINITION_SHAPE ( 'NONE', 'NONE',  #930 ) ;
#798 = CIRCLE ( 'NONE', #956, 1.500000000000001332 ) ;
#799 = VERTEX_POINT ( 'NONE', #819 ) ;
#800 = CIRCLE ( 'NONE', #904, 25.49999999999998579 ) ;
#801 = CIRCLE ( 'NONE', #840, 24.24999999999998224 ) ;
#802 = AXIS2_PLACEMENT_3D ( 'NONE', #563, #670, #987 ) ;
#803 = CARTESIAN_POINT ( 'NONE',  ( -85.00000000000000000, -25.49999999999997158, 0.000000000000000000 ) ) ;
#804 = ORIENTED_EDGE ( 'NONE', *, *, #583, .T. ) ;
#805 = EDGE_CURVE ( 'NONE', #602, #703, #193, .T. ) ;
#806 = CARTESIAN_POINT ( 'NONE',  ( -30.72489415089816589, 1.273678696309564381E-14, 0.000000000000000000 ) ) ;
#807 = ORIENTED_EDGE ( 'NONE', *, *, #101, .T. ) ;
#808 = ADVANCED_FACE ( 'NONE', ( #632 ), #383, .F. ) ;
#809 = EDGE_LOOP ( 'NONE', ( #1064, #462, #142, #788 ) ) ;
#810 = EDGE_CURVE ( 'NONE', #11, #619, #397, .T. ) ;
#811 = CARTESIAN_POINT ( 'NONE',  ( 29.97489415089816589, 25.29903810567665801, 0.000000000000000000 ) ) ;
#812 = VERTEX_POINT ( 'NONE', #409 ) ;
#813 = DIRECTION ( 'NONE',  ( 1.000000000000000000, -3.241712115390480395E-18, 0.000000000000000000 ) ) ;
#814 = FACE_OUTER_BOUND ( 'NONE', #97, .T. ) ;
#815 = EDGE_LOOP ( 'NONE', ( #646, #423, #897, #450 ) ) ;
#816 = CIRCLE ( 'NONE', #538, 25.74999999999998224 ) ;
#817 = CIRCLE ( 'NONE', #401, 2.999999999999999112 ) ;
#818 = TOROIDAL_SURFACE ( 'NONE', #940, 22.74999999999997868, 3.000000000000000000 ) ;
#819 = CARTESIAN_POINT ( 'NONE',  ( -26.51912278495813169, 25.74999999999999645, 3.153465507804432037E-15 ) ) ;
#820 = VECTOR ( 'NONE', #343, 999.9999999999998863 ) ;
#821 = ORIENTED_EDGE ( 'NONE', *, *, #1060, .F. ) ;
#822 = FACE_OUTER_BOUND ( 'NONE', #869, .T. ) ;
#823 = AXIS2_PLACEMENT_3D ( 'NONE', #22, #1061, #737 ) ;
#824 = APPLICATION_CONTEXT ( 'configuration controlled 3d designs of mechanical parts and assemblies' ) ;
#825 = FACE_OUTER_BOUND ( 'NONE', #118, .T. ) ;
#826 = FACE_OUTER_BOUND ( 'NONE', #890, .T. ) ;
#827 = ORIENTED_EDGE ( 'NONE', *, *, #925, .T. ) ;
#828 = FACE_OUTER_BOUND ( 'NONE', #201, .T. ) ;
#829 = ADVANCED_FACE ( 'NONE', ( #1057 ), #556, .F. ) ;
#830 = FACE_OUTER_BOUND ( 'NONE', #776, .T. ) ;
#831 = ORIENTED_EDGE ( 'NONE', *, *, #186, .T. ) ;
#832 = CARTESIAN_POINT ( 'NONE',  ( -85.00000000000000000, 25.74999999999999645, 3.153465507804432037E-15 ) ) ;
#833 = EDGE_CURVE ( 'NONE', #799, #611, #434, .T. ) ;
#834 = CIRCLE ( 'NONE', #368, 25.29903810567664380 ) ;
#835 = VECTOR ( 'NONE', #90, 1000.000000000000000 ) ;
#836 = DIRECTION ( 'NONE',  ( 0.000000000000000000, 1.000000000000000000, 0.000000000000000000 ) ) ;
#837 = ORIENTED_EDGE ( 'NONE', *, *, #89, .F. ) ;
#838 = AXIS2_PLACEMENT_3D ( 'NONE', #909, #649, #901 ) ;
#839 = CARTESIAN_POINT ( 'NONE',  ( -26.51912278495813169, -24.24999999999996447, 0.000000000000000000 ) ) ;
#840 = AXIS2_PLACEMENT_3D ( 'NONE', #967, #316, #174 ) ;
#841 = CIRCLE ( 'NONE', #1006, 25.29903810567664380 ) ;
#842 = ADVANCED_FACE ( 'NONE', ( #566 ), #937, .F. ) ;
#843 = CARTESIAN_POINT ( 'NONE',  ( -28.47489415089815168, -23.35288568297000822, 2.902530712059645736E-15 ) ) ;
#844 = DIRECTION ( 'NONE',  ( -3.241712115390480395E-18, -1.000000000000000000, 0.000000000000000000 ) ) ;
#845 = DIRECTION ( 'NONE',  ( -1.000000000000000000, 3.241712115390480395E-18, -0.000000000000000000 ) ) ;
#846 = DIRECTION ( 'NONE',  ( -1.000000000000000000, 3.241712115390480395E-18, -0.000000000000000000 ) ) ;
#847 = EDGE_CURVE ( 'NONE', #660, #950, #258, .T. ) ;
#848 = DIRECTION ( 'NONE',  ( -1.000000000000000000, 3.241712115390480395E-18, -0.000000000000000000 ) ) ;
#849 = CARTESIAN_POINT ( 'NONE',  ( 30.72489415089817300, 24.00000000000000000, 0.000000000000000000 ) ) ;
#850 = CYLINDRICAL_SURFACE ( 'NONE', #262, 22.74999999999998579 ) ;
#851 = DIRECTION ( 'NONE',  ( 0.000000000000000000, -1.000000000000000000, 0.000000000000000000 ) ) ;
#852 =( NAMED_UNIT ( * ) SI_UNIT ( $, .STERADIAN. ) SOLID_ANGLE_UNIT ( ) );
#853 = APPROVAL_DATE_TIME ( #682, #652 ) ;
#854 = APPROVAL_PERSON_ORGANIZATION ( #448, #622, #290 ) ;
#855 = VERTEX_POINT ( 'NONE', #161 ) ;
#856 = DIRECTION ( 'NONE',  ( 0.000000000000000000, -1.000000000000000000, 0.000000000000000000 ) ) ;
#857 = AXIS2_PLACEMENT_3D ( 'NONE', #978, #795, #399 ) ;
#858 = CARTESIAN_POINT ( 'NONE',  ( -30.72489415089816589, 1.273678696309564381E-14, 0.000000000000000000 ) ) ;
#859 = CC_DESIGN_DATE_AND_TIME_ASSIGNMENT ( #613, #200, ( #80 ) ) ;
#860 = VECTOR ( 'NONE', #187, 999.9999999999998863 ) ;
#861 = DIRECTION ( 'NONE',  ( -1.000000000000000000, 3.241712115390480395E-18, -0.000000000000000000 ) ) ;
#862 = EDGE_CURVE ( 'NONE', #225, #497, #1018, .T. ) ;
#863 = AXIS2_PLACEMENT_3D ( 'NONE', #324, #521, #724 ) ;
#864 = MECHANICAL_CONTEXT ( 'NONE', #748, 'mechanical' ) ;
#865 = ORIENTED_EDGE ( 'NONE', *, *, #204, .F. ) ;
#866 = FACE_OUTER_BOUND ( 'NONE', #719, .T. ) ;
#867 = DIRECTION ( 'NONE',  ( 0.000000000000000000, 1.000000000000000000, 0.000000000000000000 ) ) ;
#868 = PERSON_AND_ORGANIZATION_ROLE ( 'creator' ) ;
#869 = EDGE_LOOP ( 'NONE', ( #1055, #40, #536, #927 ) ) ;
#870 = VERTEX_POINT ( 'NONE', #1041 ) ;
#871 = DIRECTION ( 'NONE',  ( 0.000000000000000000, -1.000000000000000000, 0.000000000000000000 ) ) ;
#872 = CARTESIAN_POINT ( 'NONE',  ( -30.72489415089816589, 1.273678696309564381E-14, 0.000000000000000000 ) ) ;
#873 = EDGE_LOOP ( 'NONE', ( #895, #77, #465, #436 ) ) ;
#874 = CARTESIAN_POINT ( 'NONE',  ( -85.00000000000000000, 1.291273123129077766E-14, 0.000000000000000000 ) ) ;
#875 = AXIS2_PLACEMENT_3D ( 'NONE', #972, #231, #899 ) ;
#876 = ORIENTED_EDGE ( 'NONE', *, *, #294, .F. ) ;
#877 = AXIS2_PLACEMENT_3D ( 'NONE', #1047, #643, #88 ) ;
#878 = CIRCLE ( 'NONE', #922, 26.15192378864666267 ) ;
#879 = ORIENTED_EDGE ( 'NONE', *, *, #520, .T. ) ;
#880 = AXIS2_PLACEMENT_3D ( 'NONE', #604, #582, #938 ) ;
#881 = EDGE_CURVE ( 'NONE', #65, #390, #1063, .T. ) ;
#882 = CARTESIAN_POINT ( 'NONE',  ( -85.00000000000000000, 1.291273123129077766E-14, 0.000000000000000000 ) ) ;
#883 = ORIENTED_EDGE ( 'NONE', *, *, #507, .F. ) ;
#884 = PERSON_AND_ORGANIZATION_ROLE ( 'design_supplier' ) ;
#885 = ORIENTED_EDGE ( 'NONE', *, *, #989, .F. ) ;
#886 = DIRECTION ( 'NONE',  ( 0.000000000000000000, 1.000000000000000000, 0.000000000000000000 ) ) ;
#887 = VERTEX_POINT ( 'NONE', #811 ) ;
#888 = LINE ( 'NONE', #471, #93 ) ;
#889 = AXIS2_PLACEMENT_3D ( 'NONE', #911, #499, #993 ) ;
#890 = EDGE_LOOP ( 'NONE', ( #152, #523, #706, #378 ) ) ;
#891 = DIRECTION ( 'NONE',  ( 0.000000000000000000, -1.000000000000000000, 0.000000000000000000 ) ) ;
#892 = ORIENTED_EDGE ( 'NONE', *, *, #204, .T. ) ;
#893 = CARTESIAN_POINT ( 'NONE',  ( 30.72489415089817300, 1.253758443986952920E-14, 0.000000000000000000 ) ) ;
#894 = ORIENTED_EDGE ( 'NONE', *, *, #617, .T. ) ;
#895 = ORIENTED_EDGE ( 'NONE', *, *, #968, .F. ) ;
#896 = DIRECTION ( 'NONE',  ( -1.000000000000000000, 3.241712115390480395E-18, -0.000000000000000000 ) ) ;
#897 = ORIENTED_EDGE ( 'NONE', *, *, #391, .T. ) ;
#898 = ADVANCED_FACE ( 'NONE', ( #326 ), #208, .T. ) ;
#899 = DIRECTION ( 'NONE',  ( 0.000000000000000000, 1.000000000000000000, 0.000000000000000000 ) ) ;
#900 = ORIENTED_EDGE ( 'NONE', *, *, #756, .F. ) ;
#901 = DIRECTION ( 'NONE',  ( 0.000000000000000000, -1.000000000000000000, 0.000000000000000000 ) ) ;
#902 = DIRECTION ( 'NONE',  ( -1.000000000000000000, 3.241712115390480395E-18, -0.000000000000000000 ) ) ;
#903 = AXIS2_PLACEMENT_3D ( 'NONE', #720, #384, #716 ) ;
#904 = AXIS2_PLACEMENT_3D ( 'NONE', #736, #896, #241 ) ;
#905 = DIRECTION ( 'NONE',  ( 0.000000000000000000, -1.000000000000000000, 1.224646799147351975E-16 ) ) ;
#906 = EDGE_CURVE ( 'NONE', #516, #703, #888, .T. ) ;
#907 = AXIS2_PLACEMENT_3D ( 'NONE', #858, #746, #359 ) ;
#908 = ORIENTED_EDGE ( 'NONE', *, *, #234, .F. ) ;
#909 = CARTESIAN_POINT ( 'NONE',  ( 26.95213548685032734, 1.254981463733921896E-14, 0.000000000000000000 ) ) ;
#910 = AXIS2_PLACEMENT_3D ( 'NONE', #764, #319, #265 ) ;
#911 = CARTESIAN_POINT ( 'NONE',  ( 84.99999999999997158, 1.236164017167439692E-14, 0.000000000000000000 ) ) ;
#912 = ORIENTED_EDGE ( 'NONE', *, *, #101, .F. ) ;
#913 = DIRECTION ( 'NONE',  ( 0.000000000000000000, 0.000000000000000000, -1.000000000000000000 ) ) ;
#914 = ADVANCED_FACE ( 'NONE', ( #826 ), #692, .T. ) ;
#915 = DIRECTION ( 'NONE',  ( 0.000000000000000000, -1.000000000000000000, 0.000000000000000000 ) ) ;
#916 = ORIENTED_EDGE ( 'NONE', *, *, #1032, .F. ) ;
#917 = CARTESIAN_POINT ( 'NONE',  ( -28.01912278495814235, 1.272801563127719942E-14, 0.000000000000000000 ) ) ;
#918 = AXIS2_PLACEMENT_3D ( 'NONE', #939, #1023, #949 ) ;
#919 = ORIENTED_EDGE ( 'NONE', *, *, #236, .F. ) ;
#920 = TOROIDAL_SURFACE ( 'NONE', #657, 27.24999999999998934, 3.000000000000000000 ) ;
#921 = DIRECTION ( 'NONE',  ( 0.000000000000000000, -1.000000000000000000, 0.000000000000000000 ) ) ;
#922 = AXIS2_PLACEMENT_3D ( 'NONE', #511, #932, #420 ) ;
#923 = CARTESIAN_POINT ( 'NONE',  ( -30.72489415089816589, -24.24999999999997158, 0.000000000000000000 ) ) ;
#924 = CONICAL_SURFACE ( 'NONE', #460, 25.70096189432332068, 0.5235987755982971503 ) ;
#925 = EDGE_CURVE ( 'NONE', #408, #304, #798, .T. ) ;
#926 = DIRECTION ( 'NONE',  ( 0.000000000000000000, -1.000000000000000000, 0.000000000000000000 ) ) ;
#927 = ORIENTED_EDGE ( 'NONE', *, *, #267, .T. ) ;
#928 = CARTESIAN_POINT ( 'NONE',  ( -26.51912278495813169, -22.74999999999996447, 2.786071468060225804E-15 ) ) ;
#929 = CARTESIAN_POINT ( 'NONE',  ( -85.00000000000000000, 27.00000000000000000, 3.306546357697851761E-15 ) ) ;
#930 = PRODUCT_DEFINITION ( 'UNKNOWN', '', #487, #601 ) ;
#931 = EDGE_LOOP ( 'NONE', ( #500, #908, #694, #689 ) ) ;
#932 = DIRECTION ( 'NONE',  ( 1.000000000000000000, -3.241712115390480395E-18, 0.000000000000000000 ) ) ;
#933 = CYLINDRICAL_SURFACE ( 'NONE', #13, 25.74999999999998224 ) ;
#934 = AXIS2_PLACEMENT_3D ( 'NONE', #539, #272, #688 ) ;
#935 = ORIENTED_EDGE ( 'NONE', *, *, #289, .T. ) ;
#936 = EDGE_LOOP ( 'NONE', ( #947, #393, #603, #1043 ) ) ;
#937 = TOROIDAL_SURFACE ( 'NONE', #725, 27.24999999999998934, 3.000000000000000000 ) ;
#938 = DIRECTION ( 'NONE',  ( -1.000000000000000000, 0.000000000000000000, 0.000000000000000000 ) ) ;
#939 = CARTESIAN_POINT ( 'NONE',  ( -27.26912278495813524, 1.272558434719065766E-14, 0.000000000000000000 ) ) ;
#940 = AXIS2_PLACEMENT_3D ( 'NONE', #1059, #245, #251 ) ;
#941 = VECTOR ( 'NONE', #701, 1000.000000000000000 ) ;
#942 = ORIENTED_EDGE ( 'NONE', *, *, #925, .F. ) ;
#943 = LINE ( 'NONE', #690, #727 ) ;
#944 = CC_DESIGN_PERSON_AND_ORGANIZATION_ASSIGNMENT ( #699, #455, ( #80 ) ) ;
#945 = DIRECTION ( 'NONE',  ( -1.000000000000000000, 3.241712115390480395E-18, -0.000000000000000000 ) ) ;
#946 = APPROVAL_STATUS ( 'not_yet_approved' ) ;
#947 = ORIENTED_EDGE ( 'NONE', *, *, #596, .F. ) ;
#948 = DIRECTION ( 'NONE',  ( 0.000000000000000000, 1.000000000000000000, 0.000000000000000000 ) ) ;
#949 = DIRECTION ( 'NONE',  ( 0.000000000000000000, 1.000000000000000000, 0.000000000000000000 ) ) ;
#950 = VERTEX_POINT ( 'NONE', #654 ) ;
#951 = ADVANCED_FACE ( 'NONE', ( #830 ), #24, .F. ) ;
#952 = DATE_TIME_ROLE ( 'creation_date' ) ;
#953 = ORIENTED_EDGE ( 'NONE', *, *, #112, .F. ) ;
#954 = APPROVAL_PERSON_ORGANIZATION ( #464, #652, #377 ) ;
#955 = DIRECTION ( 'NONE',  ( 0.000000000000000000, -1.000000000000000000, 0.000000000000000000 ) ) ;
#956 = AXIS2_PLACEMENT_3D ( 'NONE', #662, #1007, #905 ) ;
#957 = AXIS2_PLACEMENT_3D ( 'NONE', #754, #20, #524 ) ;
#958 = CIRCLE ( 'NONE', #838, 25.74999999999998224 ) ;
#959 = AXIS2_PLACEMENT_3D ( 'NONE', #702, #299, #962 ) ;
#960 = ORIENTED_EDGE ( 'NONE', *, *, #417, .T. ) ;
#961 = CONICAL_SURFACE ( 'NONE', #802, 25.70096189432332068, 0.5235987755982971503 ) ;
#962 = DIRECTION ( 'NONE',  ( 0.000000000000000000, 1.000000000000000000, 0.000000000000000000 ) ) ;
#963 = VERTEX_POINT ( 'NONE', #509 ) ;
#964 = DIRECTION ( 'NONE',  ( 0.000000000000000000, 1.000000000000000000, 0.000000000000000000 ) ) ;
#965 = ORIENTED_EDGE ( 'NONE', *, *, #186, .F. ) ;
#966 = LINE ( 'NONE', #803, #585 ) ;
#967 = CARTESIAN_POINT ( 'NONE',  ( -85.00000000000000000, 1.291273123129077766E-14, 0.000000000000000000 ) ) ;
#968 = EDGE_CURVE ( 'NONE', #87, #602, #356, .T. ) ;
#969 = CIRCLE ( 'NONE', #505, 4.500000000000000888 ) ;
#970 = ORIENTED_EDGE ( 'NONE', *, *, #268, .T. ) ;
#971 = CIRCLE ( 'NONE', #301, 3.000000000000002665 ) ;
#972 = CARTESIAN_POINT ( 'NONE',  ( -29.22489415089815523, 1.273192439492255872E-14, 0.000000000000000000 ) ) ;
#973 = EDGE_LOOP ( 'NONE', ( #1016, #715, #254, #149 ) ) ;
#974 = DIRECTION ( 'NONE',  ( -1.000000000000000000, 3.241712115390480395E-18, -0.000000000000000000 ) ) ;
#975 = FACE_OUTER_BOUND ( 'NONE', #977, .T. ) ;
#976 = EDGE_CURVE ( 'NONE', #11, #887, #834, .T. ) ;
#977 = EDGE_LOOP ( 'NONE', ( #916, #876 ) ) ;
#978 = CARTESIAN_POINT ( 'NONE',  ( -85.00000000000000000, 1.291273123129077766E-14, 0.000000000000000000 ) ) ;
#979 = ORIENTED_EDGE ( 'NONE', *, *, #673, .F. ) ;
#980 = DIRECTION ( 'NONE',  ( 1.000000000000000000, -3.241712115390480395E-18, 0.000000000000000000 ) ) ;
#981 = CARTESIAN_POINT ( 'NONE',  ( -27.32297036225151032, 25.74999999999999645, 0.000000000000000000 ) ) ;
#982 = EDGE_CURVE ( 'NONE', #619, #157, #1052, .T. ) ;
#983 = DIRECTION ( 'NONE',  ( 1.000000000000000000, -3.241712115390480395E-18, 0.000000000000000000 ) ) ;
#984 = ORIENTED_EDGE ( 'NONE', *, *, #351, .T. ) ;
#985 = CYLINDRICAL_SURFACE ( 'NONE', #10, 26.99999999999998579 ) ;
#986 = ORGANIZATION ( 'UNSPECIFIED', 'UNSPECIFIED', '' ) ;
#987 = DIRECTION ( 'NONE',  ( 0.000000000000000000, 1.000000000000000000, 0.000000000000000000 ) ) ;
#988 = AXIS2_PLACEMENT_3D ( 'NONE', #560, #482, #734 ) ;
#989 = EDGE_CURVE ( 'NONE', #516, #87, #47, .T. ) ;
#990 = CARTESIAN_POINT ( 'NONE',  ( -85.00000000000000000, 24.24999999999999289, 2.969768487932329315E-15 ) ) ;
#991 = ORIENTED_EDGE ( 'NONE', *, *, #266, .T. ) ;
#992 = DIRECTION ( 'NONE',  ( 0.000000000000000000, -1.000000000000000000, 0.000000000000000000 ) ) ;
#993 = DIRECTION ( 'NONE',  ( 0.000000000000000000, -1.000000000000000000, 0.000000000000000000 ) ) ;
#994 = ORIENTED_EDGE ( 'NONE', *, *, #578, .F. ) ;
#995 = DIRECTION ( 'NONE',  ( 0.000000000000000000, -1.000000000000000000, 0.000000000000000000 ) ) ;
#996 = DIRECTION ( 'NONE',  ( -1.000000000000000000, 3.241712115390480395E-18, -0.000000000000000000 ) ) ;
#997 = CARTESIAN_POINT ( 'NONE',  ( -30.72489415089816589, 24.25000000000000000, 2.969768487932330104E-15 ) ) ;
#998 = EDGE_CURVE ( 'NONE', #683, #640, #969, .T. ) ;
#999 = FACE_OUTER_BOUND ( 'NONE', #1046, .T. ) ;
#1000 = EDGE_CURVE ( 'NONE', #683, #154, #1002, .T. ) ;
#1001 = CIRCLE ( 'NONE', #588, 22.74999999999998579 ) ;
#1002 = LINE ( 'NONE', #990, #635 ) ;
#1003 = FACE_OUTER_BOUND ( 'NONE', #269, .T. ) ;
#1004 = DIRECTION ( 'NONE',  ( -1.000000000000000000, 0.000000000000000000, 0.000000000000000000 ) ) ;
#1005 = DIRECTION ( 'NONE',  ( -3.241712115390480395E-18, -1.000000000000000000, 0.000000000000000000 ) ) ;
#1006 = AXIS2_PLACEMENT_3D ( 'NONE', #1, #846, #514 ) ;
#1007 = DIRECTION ( 'NONE',  ( 3.969952365870146765E-34, 1.224646799147353207E-16, 1.000000000000000000 ) ) ;
#1008 = ORIENTED_EDGE ( 'NONE', *, *, #155, .F. ) ;
#1009 = DIRECTION ( 'NONE',  ( -3.969952365870146765E-34, -1.224646799147353207E-16, 1.000000000000000000 ) ) ;
#1010 = ORIENTED_EDGE ( 'NONE', *, *, #1000, .T. ) ;
#1011 = EDGE_CURVE ( 'NONE', #722, #497, #454, .T. ) ;
#1012 = DIRECTION ( 'NONE',  ( 1.000000000000000000, -3.241712115390480395E-18, 0.000000000000000000 ) ) ;
#1013 = DIRECTION ( 'NONE',  ( -1.000000000000000000, 3.241712115390480395E-18, -0.000000000000000000 ) ) ;
#1014 = DIRECTION ( 'NONE',  ( -1.000000000000000000, 3.241712115390480395E-18, -0.000000000000000000 ) ) ;
#1015 = DATE_AND_TIME ( #1026, #23 ) ;
#1016 = ORIENTED_EDGE ( 'NONE', *, *, #862, .F. ) ;
#1017 = DIRECTION ( 'NONE',  ( 0.000000000000000000, 1.000000000000000000, 0.000000000000000000 ) ) ;
#1018 = CIRCLE ( 'NONE', #988, 2.999999999999999112 ) ;
#1019 = DIRECTION ( 'NONE',  ( 0.000000000000000000, 1.000000000000000000, 0.000000000000000000 ) ) ;
#1020 = DIRECTION ( 'NONE',  ( -1.000000000000000000, 3.241712115390480395E-18, -0.000000000000000000 ) ) ;
#1021 = EDGE_CURVE ( 'NONE', #308, #611, #345, .T. ) ;
#1022 = COORDINATED_UNIVERSAL_TIME_OFFSET ( 1, 0, .AHEAD. ) ;
#1023 = DIRECTION ( 'NONE',  ( -1.000000000000000000, 3.241712115390480395E-18, -0.000000000000000000 ) ) ;
#1024 = PRODUCT ( '79-8470 - Stegmuff. 54-51.5-48.5', '79-8470 - Stegmuff. 54-51.5-48.5', '', ( #864 ) ) ;
#1025 = DIRECTION ( 'NONE',  ( -3.241712115390480395E-18, -1.000000000000000000, 0.000000000000000000 ) ) ;
#1026 = CALENDAR_DATE ( 2026, 16, 9 ) ;
#1027 = VERTEX_POINT ( 'NONE', #843 ) ;
#1028 = CYLINDRICAL_SURFACE ( 'NONE', #762, 25.49999999999998579 ) ;
#1029 = ORIENTED_EDGE ( 'NONE', *, *, #180, .T. ) ;
#1030 = EDGE_CURVE ( 'NONE', #532, #444, #96, .T. ) ;
#1031 = CARTESIAN_POINT ( 'NONE',  ( -26.57297036225150322, -24.45096189432331357, 2.994379221995696702E-15 ) ) ;
#1032 = EDGE_CURVE ( 'NONE', #230, #812, #518, .T. ) ;
#1033 = ORIENTED_EDGE ( 'NONE', *, *, #281, .F. ) ;
#1034 = CARTESIAN_POINT ( 'NONE',  ( 26.95213548685032734, 1.254981463733921896E-14, 0.000000000000000000 ) ) ;
#1035 = DIRECTION ( 'NONE',  ( 0.000000000000000000, -1.000000000000000000, 0.000000000000000000 ) ) ;
#1036 = CIRCLE ( 'NONE', #918, 24.04903810567664024 ) ;
#1037 = CLOSED_SHELL ( 'NONE', ( #479, #659, #914, #1040, #680, #628, #7, #808, #389, #148, #199, #141, #696, #738, #898, #136, #126, #55, #466, #697, #618, #553, #94, #275, #486, #283, #53, #387, #842, #565, #67, #829, #495, #473, #238, #653, #951, #347 ) ) ;
#1038 = CC_DESIGN_PERSON_AND_ORGANIZATION_ASSIGNMENT ( #546, #884, ( #487 ) ) ;
#1039 = AXIS2_PLACEMENT_3D ( 'NONE', #367, #1020, #955 ) ;
#1040 = ADVANCED_FACE ( 'NONE', ( #512 ), #160, .F. ) ;
#1041 = CARTESIAN_POINT ( 'NONE',  ( 28.45213548685031668, 26.15192378864667688, 0.000000000000000000 ) ) ;
#1042 = EDGE_LOOP ( 'NONE', ( #365, #481, #488, #900 ) ) ;
#1043 = ORIENTED_EDGE ( 'NONE', *, *, #976, .F. ) ;
#1044 = EDGE_CURVE ( 'NONE', #371, #308, #816, .T. ) ;
#1045 = CARTESIAN_POINT ( 'NONE',  ( -85.00000000000000000, -26.99999999999997158, 0.000000000000000000 ) ) ;
#1046 = EDGE_LOOP ( 'NONE', ( #953, #648, #177, #708 ) ) ;
#1047 = CARTESIAN_POINT ( 'NONE',  ( 30.72489415089817300, 1.253758443986952920E-14, 0.000000000000000000 ) ) ;
#1048 = ORIENTED_EDGE ( 'NONE', *, *, #721, .F. ) ;
#1049 = CYLINDRICAL_SURFACE ( 'NONE', #369, 24.24999999999998579 ) ;
#1050 = ORIENTED_EDGE ( 'NONE', *, *, #16, .T. ) ;
#1051 = DIRECTION ( 'NONE',  ( 0.000000000000000000, 1.000000000000000000, 0.000000000000000000 ) ) ;
#1052 = CIRCLE ( 'NONE', #313, 25.49999999999998579 ) ;
#1053 = AXIS2_PLACEMENT_3D ( 'NONE', #256, #440, #100 ) ;
#1054 = CARTESIAN_POINT ( 'NONE',  ( -85.00000000000000000, 1.291273123129077766E-14, 0.000000000000000000 ) ) ;
#1055 = ORIENTED_EDGE ( 'NONE', *, *, #520, .F. ) ;
#1056 = CIRCLE ( 'NONE', #114, 24.24999999999998579 ) ;
#1057 = FACE_OUTER_BOUND ( 'NONE', #333, .T. ) ;
#1058 = ORIENTED_EDGE ( 'NONE', *, *, #847, .T. ) ;
#1059 = CARTESIAN_POINT ( 'NONE',  ( -26.51912278495813169, 1.272315306310411275E-14, 0.000000000000000000 ) ) ;
#1060 = EDGE_CURVE ( 'NONE', #154, #304, #537, .T. ) ;
#1061 = DIRECTION ( 'NONE',  ( 1.000000000000000000, -3.241712115390480395E-18, 0.000000000000000000 ) ) ;
#1062 = ORIENTED_EDGE ( 'NONE', *, *, #227, .T. ) ;
#1063 = LINE ( 'NONE', #220, #79 ) ;
#1064 = ORIENTED_EDGE ( 'NONE', *, *, #234, .T. ) ;
#1065 = CARTESIAN_POINT ( 'NONE',  ( 29.20213548685031313, 1.254252078507959053E-14, 0.000000000000000000 ) ) ;
ENDSEC;
END-ISO-10303-21;
