ISO-10303-21;
HEADER;
FILE_DESCRIPTION (( 'STEP AP203' ),
    '1' );
FILE_NAME ('79-8469 - Stegmuff. 51-48-45.STEP',
    '2026-09-15T22:04:03',
    ( '' ),
    ( '' ),
    'SwSTEP 2.0',
    'SolidWorks 2026',
    '' );
FILE_SCHEMA (( 'CONFIG_CONTROL_DESIGN' ));
ENDSEC;

DATA;
#1 = DIRECTION ( 'NONE',  ( 1.000000000000000000, -3.241712115390480395E-18, 0.000000000000000000 ) ) ;
#2 = CC_DESIGN_DATE_AND_TIME_ASSIGNMENT ( #939, #526, ( #769 ) ) ;
#3 = ORIENTED_EDGE ( 'NONE', *, *, #667, .T. ) ;
#4 = DIRECTION ( 'NONE',  ( 0.000000000000000000, -0.000000000000000000, -1.000000000000000000 ) ) ;
#5 = DIRECTION ( 'NONE',  ( -3.241712115390480395E-18, -1.000000000000000000, 0.000000000000000000 ) ) ;
#6 = CARTESIAN_POINT ( 'NONE',  ( -30.86923171819558220, 1.273725486393625810E-14, 0.000000000000000000 ) ) ;
#7 = ORIENTED_EDGE ( 'NONE', *, *, #1045, .F. ) ;
#8 = AXIS2_PLACEMENT_3D ( 'NONE', #567, #72, #809 ) ;
#9 = CARTESIAN_POINT ( 'NONE',  ( 30.81538414090219291, 24.20096189432335265, 0.000000000000000000 ) ) ;
#10 = ADVANCED_FACE ( 'NONE', ( #783 ), #188, .F. ) ;
#11 = AXIS2_PLACEMENT_3D ( 'NONE', #858, #535, #274 ) ;
#12 = CIRCLE ( 'NONE', #287, 25.49999999999999645 ) ;
#13 = AXIS2_PLACEMENT_3D ( 'NONE', #576, #926, #748 ) ;
#14 = DIRECTION ( 'NONE',  ( 0.000000000000000000, 1.000000000000000000, 0.000000000000000000 ) ) ;
#15 = DIRECTION ( 'NONE',  ( 3.241712115390480010E-18, 1.000000000000000000, 0.000000000000000000 ) ) ;
#16 = ORIENTED_EDGE ( 'NONE', *, *, #685, .T. ) ;
#17 = FACE_OUTER_BOUND ( 'NONE', #867, .T. ) ;
#18 = ADVANCED_FACE ( 'NONE', ( #375 ), #605, .T. ) ;
#19 = DIRECTION ( 'NONE',  ( 0.000000000000000000, 1.000000000000000000, 0.000000000000000000 ) ) ;
#20 = EDGE_LOOP ( 'NONE', ( #595, #724, #405, #798 ) ) ;
#21 = CARTESIAN_POINT ( 'NONE',  ( 30.86923171819556799, 1.253711653902891648E-14, 0.000000000000000000 ) ) ;
#22 = CYLINDRICAL_SURFACE ( 'NONE', #918, 23.99999999999999289 ) ;
#23 = ORIENTED_EDGE ( 'NONE', *, *, #278, .F. ) ;
#24 = PERSON ( 'UNSPECIFIED', 'UNSPECIFIED', 'UNSPECIFIED', ('UNSPECIFIED'), ('UNSPECIFIED'), ('UNSPECIFIED') ) ;
#25 = COORDINATED_UNIVERSAL_TIME_OFFSET ( 1, 0, .AHEAD. ) ;
#26 = AXIS2_PLACEMENT_3D ( 'NONE', #647, #1052, #628 ) ;
#27 = AXIS2_PLACEMENT_3D ( 'NONE', #897, #735, #887 ) ;
#28 = AXIS2_PLACEMENT_3D ( 'NONE', #752, #183, #110 ) ;
#29 = AXIS2_PLACEMENT_3D ( 'NONE', #225, #965, #712 ) ;
#30 = DIRECTION ( 'NONE',  ( -1.000000000000000000, 3.241712115390480395E-18, -0.000000000000000000 ) ) ;
#31 = PRODUCT_DEFINITION_FORMATION_WITH_SPECIFIED_SOURCE ( 'ANY', '', #568, .NOT_KNOWN. ) ;
#32 = AXIS2_PLACEMENT_3D ( 'NONE', #465, #711, #300 ) ;
#33 = CC_DESIGN_PERSON_AND_ORGANIZATION_ASSIGNMENT ( #608, #944, ( #568 ) ) ;
#34 = CARTESIAN_POINT ( 'NONE',  ( -28.16346035225555156, -23.59807621135329114, 2.889930849826912330E-15 ) ) ;
#35 = PERSON_AND_ORGANIZATION ( #24, #839 ) ;
#36 = ORIENTED_EDGE ( 'NONE', *, *, #55, .F. ) ;
#37 = CARTESIAN_POINT ( 'NONE',  ( -26.66346035225554445, 1.272362096394472704E-14, 0.000000000000000000 ) ) ;
#38 = ADVANCED_FACE ( 'NONE', ( #707 ), #928, .T. ) ;
#39 = ORIENTED_EDGE ( 'NONE', *, *, #402, .F. ) ;
#40 = VERTEX_POINT ( 'NONE', #442 ) ;
#41 = CYLINDRICAL_SURFACE ( 'NONE', #1019, 25.49999999999999645 ) ;
#42 = ORIENTED_EDGE ( 'NONE', *, *, #402, .T. ) ;
#43 = DATE_TIME_ROLE ( 'creation_date' ) ;
#44 = VERTEX_POINT ( 'NONE', #34 ) ;
#45 = ADVANCED_FACE ( 'NONE', ( #67 ), #223, .F. ) ;
#46 = AXIS2_PLACEMENT_3D ( 'NONE', #374, #30, #1024 ) ;
#47 = DIRECTION ( 'NONE',  ( 0.000000000000000000, -1.000000000000000000, 0.000000000000000000 ) ) ;
#48 = TOROIDAL_SURFACE ( 'NONE', #837, 22.50000000000000000, 3.000000000000000000 ) ;
#49 = CIRCLE ( 'NONE', #635, 20.99999999999998934 ) ;
#50 = CC_DESIGN_APPROVAL ( #631, ( #31 ) ) ;
#51 = ORIENTED_EDGE ( 'NONE', *, *, #675, .F. ) ;
#52 = DIRECTION ( 'NONE',  ( 0.000000000000000000, 0.000000000000000000, 1.000000000000000000 ) ) ;
#53 = VERTEX_POINT ( 'NONE', #968 ) ;
#54 = EDGE_CURVE ( 'NONE', #44, #570, #434, .T. ) ;
#55 = EDGE_CURVE ( 'NONE', #1030, #485, #1059, .T. ) ;
#56 = CARTESIAN_POINT ( 'NONE',  ( -85.00000000000000000, 24.00000000000000711, 2.939152317953647106E-15 ) ) ;
#57 = EDGE_CURVE ( 'NONE', #776, #620, #218, .T. ) ;
#58 = EDGE_LOOP ( 'NONE', ( #826, #292, #768, #699 ) ) ;
#59 = ORIENTED_EDGE ( 'NONE', *, *, #571, .F. ) ;
#60 = CARTESIAN_POINT ( 'NONE',  ( -85.00000000000000000, 1.291273123129077766E-14, 0.000000000000000000 ) ) ;
#61 = CARTESIAN_POINT ( 'NONE',  ( 30.11923171819556799, -23.79903810567664380, 2.914541583890280901E-15 ) ) ;
#62 = ORIENTED_EDGE ( 'NONE', *, *, #423, .T. ) ;
#63 = DIRECTION ( 'NONE',  ( 3.241712115390480395E-18, 1.000000000000000000, 0.000000000000000000 ) ) ;
#64 = CARTESIAN_POINT ( 'NONE',  ( -85.00000000000000000, 22.50000000000000711, 2.755455298081543594E-15 ) ) ;
#65 = VECTOR ( 'NONE', #120, 1000.000000000000000 ) ;
#66 = AXIS2_PLACEMENT_3D ( 'NONE', #581, #998, #19 ) ;
#67 = FACE_OUTER_BOUND ( 'NONE', #532, .T. ) ;
#68 = APPROVAL ( #195, 'UNSPECIFIED' ) ;
#69 = CIRCLE ( 'NONE', #671, 23.99999999999999289 ) ;
#70 = ORIENTED_EDGE ( 'NONE', *, *, #705, .F. ) ;
#71 = DIRECTION ( 'NONE',  ( 0.000000000000000000, -1.000000000000000000, 0.000000000000000000 ) ) ;
#72 = DIRECTION ( 'NONE',  ( -1.000000000000000000, 3.241712115390480395E-18, -0.000000000000000000 ) ) ;
#73 = CARTESIAN_POINT ( 'NONE',  ( -26.66346035225554445, 1.272362096394472862E-14, 0.000000000000000000 ) ) ;
#74 = ORIENTED_EDGE ( 'NONE', *, *, #997, .F. ) ;
#75 = CC_DESIGN_PERSON_AND_ORGANIZATION_ASSIGNMENT ( #291, #786, ( #769 ) ) ;
#76 = DIRECTION ( 'NONE',  ( 1.000000000000000000, -3.241712115390480395E-18, 0.000000000000000000 ) ) ;
#77 = EDGE_CURVE ( 'NONE', #138, #356, #235, .T. ) ;
#78 = CARTESIAN_POINT ( 'NONE',  ( 28.16346035225550537, 24.40192378864668754, 0.000000000000000000 ) ) ;
#79 = CARTESIAN_POINT ( 'NONE',  ( 26.66346035225550182, -22.49999999999997868, 0.000000000000000000 ) ) ;
#80 = ORIENTED_EDGE ( 'NONE', *, *, #147, .F. ) ;
#81 = DIRECTION ( 'NONE',  ( 3.241712115390480395E-18, 1.000000000000000000, 0.000000000000000000 ) ) ;
#82 = CARTESIAN_POINT ( 'NONE',  ( -26.71730792954891243, -22.70096189432332423, 2.780066032144911376E-15 ) ) ;
#83 = DIRECTION ( 'NONE',  ( 1.000000000000000000, -3.241712115390480395E-18, 0.000000000000000000 ) ) ;
#84 = AXIS2_PLACEMENT_3D ( 'NONE', #610, #847, #930 ) ;
#85 = ORIENTED_EDGE ( 'NONE', *, *, #196, .T. ) ;
#86 = TOROIDAL_SURFACE ( 'NONE', #11, 20.99999999999999289, 1.500000000000000000 ) ;
#87 = CARTESIAN_POINT ( 'NONE',  ( 30.11923171819556799, 23.79903810567666866, 0.000000000000000000 ) ) ;
#88 = DIRECTION ( 'NONE',  ( 1.000000000000000000, -3.241712115390480395E-18, 0.000000000000000000 ) ) ;
#89 = DIRECTION ( 'NONE',  ( 0.000000000000000000, 1.000000000000000000, 0.000000000000000000 ) ) ;
#90 = ORIENTED_EDGE ( 'NONE', *, *, #780, .T. ) ;
#91 = DIRECTION ( 'NONE',  ( 1.000000000000000000, -3.241712115390480395E-18, 0.000000000000000000 ) ) ;
#92 = DIRECTION ( 'NONE',  ( 0.8660254037844359321, -0.5000000000000046629, 6.123233995736822735E-17 ) ) ;
#93 = CARTESIAN_POINT ( 'NONE',  ( -85.00000000000000000, 1.291273123129077766E-14, 0.000000000000000000 ) ) ;
#94 = ADVANCED_FACE ( 'NONE', ( #732, #890 ), #470, .F. ) ;
#95 = ORIENTED_EDGE ( 'NONE', *, *, #667, .F. ) ;
#96 = FACE_OUTER_BOUND ( 'NONE', #58, .T. ) ;
#97 = CARTESIAN_POINT ( 'NONE',  ( -85.00000000000000000, -25.49999999999998224, 0.000000000000000000 ) ) ;
#98 = CARTESIAN_POINT ( 'NONE',  ( 26.66346035225550182, 1.255075043902044596E-14, 0.000000000000000000 ) ) ;
#99 = ORIENTED_EDGE ( 'NONE', *, *, #997, .T. ) ;
#100 = EDGE_CURVE ( 'NONE', #620, #505, #267, .T. ) ;
#101 = DIRECTION ( 'NONE',  ( 0.000000000000000000, -1.000000000000000000, 0.000000000000000000 ) ) ;
#102 = AXIS2_PLACEMENT_3D ( 'NONE', #566, #472, #957 ) ;
#103 = AXIS2_PLACEMENT_3D ( 'NONE', #21, #91, #1000 ) ;
#104 = CIRCLE ( 'NONE', #250, 21.60288568297003309 ) ;
#105 = CYLINDRICAL_SURFACE ( 'NONE', #785, 23.99999999999999289 ) ;
#106 = ORIENTED_EDGE ( 'NONE', *, *, #449, .T. ) ;
#107 = DIRECTION ( 'NONE',  ( 0.000000000000000000, -1.000000000000000000, -1.224646799147352714E-16 ) ) ;
#108 = PRODUCT_RELATED_PRODUCT_CATEGORY ( 'detail', '', ( #568 ) ) ;
#109 = EDGE_CURVE ( 'NONE', #977, #1032, #871, .T. ) ;
#110 = DIRECTION ( 'NONE',  ( 0.000000000000000000, -1.000000000000000000, 0.000000000000000000 ) ) ;
#111 = EDGE_LOOP ( 'NONE', ( #1011, #385, #70, #678 ) ) ;
#112 = CALENDAR_DATE ( 2026, 16, 9 ) ;
#113 = EDGE_CURVE ( 'NONE', #661, #728, #824, .T. ) ;
#114 = CARTESIAN_POINT ( 'NONE',  ( -85.00000000000000000, 1.291273123129077766E-14, 0.000000000000000000 ) ) ;
#115 = DIRECTION ( 'NONE',  ( 0.000000000000000000, -1.000000000000000000, 0.000000000000000000 ) ) ;
#116 = APPROVAL_DATE_TIME ( #458, #631 ) ;
#117 = VECTOR ( 'NONE', #578, 1000.000000000000000 ) ;
#118 = EDGE_CURVE ( 'NONE', #776, #368, #415, .T. ) ;
#119 = VECTOR ( 'NONE', #827, 1000.000000000000000 ) ;
#120 = DIRECTION ( 'NONE',  ( 0.8660254037844388186, 0.4999999999999996669, 0.000000000000000000 ) ) ;
#121 = AXIS2_PLACEMENT_3D ( 'NONE', #1049, #399, #556 ) ;
#122 = ORIENTED_EDGE ( 'NONE', *, *, #77, .F. ) ;
#123 = VERTEX_POINT ( 'NONE', #79 ) ;
#124 = MANIFOLD_SOLID_BREP ( 'Shell1', #638 ) ;
#125 = DIRECTION ( 'NONE',  ( 0.8660254037844388186, -0.4999999999999996669, 6.123233995736762338E-17 ) ) ;
#126 = ORIENTED_EDGE ( 'NONE', *, *, #109, .F. ) ;
#127 =( NAMED_UNIT ( * ) SI_UNIT ( $, .STERADIAN. ) SOLID_ANGLE_UNIT ( ) );
#128 = DESIGN_CONTEXT ( 'detailed design', #794, 'design' ) ;
#129 = ORIENTED_EDGE ( 'NONE', *, *, #594, .T. ) ;
#130 = DIRECTION ( 'NONE',  ( 0.000000000000000000, -1.000000000000000000, 0.000000000000000000 ) ) ;
#131 = VERTEX_POINT ( 'NONE', #404 ) ;
#132 = DATE_AND_TIME ( #1007, #413 ) ;
#133 = EDGE_LOOP ( 'NONE', ( #7, #400, #315, #169 ) ) ;
#134 = CIRCLE ( 'NONE', #749, 1.500000000000001332 ) ;
#135 = CARTESIAN_POINT ( 'NONE',  ( 30.81538414090219291, -24.20096189432332423, 2.963763052017014099E-15 ) ) ;
#136 = CIRCLE ( 'NONE', #1038, 23.10288568297002243 ) ;
#137 = AXIS2_PLACEMENT_3D ( 'NONE', #795, #486, #386 ) ;
#138 = VERTEX_POINT ( 'NONE', #1053 ) ;
#139 = VERTEX_POINT ( 'NONE', #61 ) ;
#140 = EDGE_CURVE ( 'NONE', #977, #970, #1023, .T. ) ;
#141 = CARTESIAN_POINT ( 'NONE',  ( -85.00000000000000000, 1.291273123129077766E-14, 0.000000000000000000 ) ) ;
#142 = DIRECTION ( 'NONE',  ( 1.000000000000000000, -3.241712115390480395E-18, 0.000000000000000000 ) ) ;
#143 = SHAPE_DEFINITION_REPRESENTATION ( #629, #401 ) ;
#144 = EDGE_LOOP ( 'NONE', ( #514, #1050, #471, #589 ) ) ;
#145 = CARTESIAN_POINT ( 'NONE',  ( 85.00000000000000000, 25.50000000000000355, 3.122849337825749433E-15 ) ) ;
#146 = DIRECTION ( 'NONE',  ( 0.000000000000000000, 1.000000000000000000, 0.000000000000000000 ) ) ;
#147 = EDGE_CURVE ( 'NONE', #970, #489, #104, .T. ) ;
#148 = CARTESIAN_POINT ( 'NONE',  ( -85.00000000000000000, -23.99999999999997868, 0.000000000000000000 ) ) ;
#149 = ORIENTED_EDGE ( 'NONE', *, *, #761, .F. ) ;
#150 = CARTESIAN_POINT ( 'NONE',  ( -85.00000000000000000, 1.291273123129077766E-14, 0.000000000000000000 ) ) ;
#151 = VECTOR ( 'NONE', #910, 1000.000000000000000 ) ;
#152 = DIRECTION ( 'NONE',  ( -1.000000000000000000, 3.241712115390480395E-18, -0.000000000000000000 ) ) ;
#153 = AXIS2_PLACEMENT_3D ( 'NONE', #491, #251, #14 ) ;
#154 = CIRCLE ( 'NONE', #137, 4.500000000000000888 ) ;
#155 = EDGE_CURVE ( 'NONE', #570, #505, #232, .T. ) ;
#156 = EDGE_LOOP ( 'NONE', ( #39, #501, #680, #557 ) ) ;
#157 = DIRECTION ( 'NONE',  ( -1.000000000000000000, 3.241712115390480395E-18, -0.000000000000000000 ) ) ;
#158 = CARTESIAN_POINT ( 'NONE',  ( -28.61923171819555733, -21.60288568297001888, 2.688217522208860410E-15 ) ) ;
#159 = DIRECTION ( 'NONE',  ( 0.000000000000000000, 1.000000000000000000, 0.000000000000000000 ) ) ;
#160 = EDGE_LOOP ( 'NONE', ( #692, #431, #1055, #583 ) ) ;
#161 = ADVANCED_FACE ( 'NONE', ( #164 ), #653, .T. ) ;
#162 = DIRECTION ( 'NONE',  ( 0.8660254037844359321, -0.5000000000000046629, 6.123233995736822735E-17 ) ) ;
#163 = CARTESIAN_POINT ( 'NONE',  ( -30.86923171819558220, 25.50000000000000355, 3.122849337825749433E-15 ) ) ;
#164 = FACE_OUTER_BOUND ( 'NONE', #790, .T. ) ;
#165 = ORIENTED_EDGE ( 'NONE', *, *, #269, .F. ) ;
#166 = CARTESIAN_POINT ( 'NONE',  ( -85.00000000000000000, -20.99999999999997868, 0.000000000000000000 ) ) ;
#167 = DIRECTION ( 'NONE',  ( 0.000000000000000000, -1.000000000000000000, 0.000000000000000000 ) ) ;
#168 = DIRECTION ( 'NONE',  ( 0.000000000000000000, -1.000000000000000000, 0.000000000000000000 ) ) ;
#169 = ORIENTED_EDGE ( 'NONE', *, *, #1041, .T. ) ;
#170 = AXIS2_PLACEMENT_3D ( 'NONE', #419, #758, #516 ) ;
#171 = AXIS2_PLACEMENT_3D ( 'NONE', #488, #228, #963 ) ;
#172 = DIRECTION ( 'NONE',  ( 0.000000000000000000, -1.000000000000000000, 0.000000000000000000 ) ) ;
#173 = EDGE_CURVE ( 'NONE', #341, #369, #530, .T. ) ;
#174 = DIRECTION ( 'NONE',  ( 0.000000000000000000, -1.000000000000000000, 0.000000000000000000 ) ) ;
#175 = ORIENTED_EDGE ( 'NONE', *, *, #295, .F. ) ;
#176 = CARTESIAN_POINT ( 'NONE',  ( -30.86923171819558220, 21.00000000000000355, 2.571758278209440478E-15 ) ) ;
#177 = DIRECTION ( 'NONE',  ( -1.000000000000000000, 3.241712115390480395E-18, -0.000000000000000000 ) ) ;
#178 = ADVANCED_FACE ( 'NONE', ( #953 ), #48, .T. ) ;
#179 = CARTESIAN_POINT ( 'NONE',  ( 85.00000000000000000, 1.236164017167439692E-14, 0.000000000000000000 ) ) ;
#180 = EDGE_LOOP ( 'NONE', ( #861, #175, #943, #856 ) ) ;
#181 = FACE_OUTER_BOUND ( 'NONE', #611, .T. ) ;
#182 = DIRECTION ( 'NONE',  ( -1.000000000000000000, 3.241712115390480395E-18, -0.000000000000000000 ) ) ;
#183 = DIRECTION ( 'NONE',  ( -1.000000000000000000, 3.241712115390480395E-18, -0.000000000000000000 ) ) ;
#184 = EDGE_LOOP ( 'NONE', ( #380, #290, #350, #275 ) ) ;
#185 = TOROIDAL_SURFACE ( 'NONE', #782, 26.99999999999999645, 3.000000000000000000 ) ;
#186 = DIRECTION ( 'NONE',  ( 1.000000000000000000, -3.241712115390480395E-18, 0.000000000000000000 ) ) ;
#187 = CIRCLE ( 'NONE', #360, 23.79903810567665801 ) ;
#188 = CONICAL_SURFACE ( 'NONE', #755, 24.20096189432333844, 0.5235987755982984826 ) ;
#189 = FACE_OUTER_BOUND ( 'NONE', #695, .T. ) ;
#190 = EDGE_LOOP ( 'NONE', ( #538, #326, #527, #835 ) ) ;
#191 = LINE ( 'NONE', #416, #266 ) ;
#192 = EDGE_CURVE ( 'NONE', #817, #779, #751, .T. ) ;
#193 = CARTESIAN_POINT ( 'NONE',  ( 28.16346035225550537, -24.40192378864665912, 3.031000827889698467E-15 ) ) ;
#194 = ORIENTED_EDGE ( 'NONE', *, *, #449, .F. ) ;
#195 = APPROVAL_STATUS ( 'not_yet_approved' ) ;
#196 = EDGE_CURVE ( 'NONE', #999, #139, #187, .T. ) ;
#197 = DIRECTION ( 'NONE',  ( -1.000000000000000000, 0.000000000000000000, 0.000000000000000000 ) ) ;
#198 = VERTEX_POINT ( 'NONE', #907 ) ;
#199 = COORDINATED_UNIVERSAL_TIME_OFFSET ( 1, 0, .AHEAD. ) ;
#200 = ORIENTED_EDGE ( 'NONE', *, *, #438, .F. ) ;
#201 = CONICAL_SURFACE ( 'NONE', #934, 23.99999999999999289, 0.5235987755983042558 ) ;
#202 = CIRCLE ( 'NONE', #28, 20.99999999999998934 ) ;
#203 = FACE_OUTER_BOUND ( 'NONE', #133, .T. ) ;
#204 = ADVANCED_FACE ( 'NONE', ( #259 ), #105, .T. ) ;
#205 = ORIENTED_EDGE ( 'NONE', *, *, #761, .T. ) ;
#206 = CARTESIAN_POINT ( 'NONE',  ( -26.66346035225554445, 21.00000000000000711, 0.000000000000000000 ) ) ;
#207 = EDGE_CURVE ( 'NONE', #319, #716, #717, .T. ) ;
#208 = EDGE_LOOP ( 'NONE', ( #90, #3, #863, #277 ) ) ;
#209 = CARTESIAN_POINT ( 'NONE',  ( 29.36923171819556799, -25.09807621135329825, 3.073627869699016630E-15 ) ) ;
#210 = ORIENTED_EDGE ( 'NONE', *, *, #592, .T. ) ;
#211 = FACE_OUTER_BOUND ( 'NONE', #180, .T. ) ;
#212 = CONICAL_SURFACE ( 'NONE', #66, 22.70096189432333844, 0.5235987755983042558 ) ;
#213 = TOROIDAL_SURFACE ( 'NONE', #838, 25.49999999999999289, 4.500000000000000888 ) ;
#214 = AXIS2_PLACEMENT_3D ( 'NONE', #975, #649, #895 ) ;
#215 = ORIENTED_EDGE ( 'NONE', *, *, #542, .F. ) ;
#216 = FACE_OUTER_BOUND ( 'NONE', #296, .T. ) ;
#217 = CARTESIAN_POINT ( 'NONE',  ( 29.36923171819556799, 1.254197910720200157E-14, 0.000000000000000000 ) ) ;
#218 = LINE ( 'NONE', #148, #561 ) ;
#219 = ORIENTED_EDGE ( 'NONE', *, *, #100, .T. ) ;
#220 = ADVANCED_FACE ( 'NONE', ( #990 ), #212, .F. ) ;
#221 = DIRECTION ( 'NONE',  ( 1.000000000000000000, -3.241712115390480395E-18, 0.000000000000000000 ) ) ;
#222 = CARTESIAN_POINT ( 'NONE',  ( 30.86923171819556799, 22.50000000000001421, 0.000000000000000000 ) ) ;
#223 = CYLINDRICAL_SURFACE ( 'NONE', #447, 22.49999999999999289 ) ;
#224 = ORIENTED_EDGE ( 'NONE', *, *, #207, .F. ) ;
#225 = CARTESIAN_POINT ( 'NONE',  ( -85.00000000000000000, 1.291273123129077766E-14, 0.000000000000000000 ) ) ;
#226 = DIRECTION ( 'NONE',  ( -1.000000000000000000, 3.241712115390480395E-18, -0.000000000000000000 ) ) ;
#227 = ADVANCED_FACE ( 'NONE', ( #189 ), #886, .F. ) ;
#228 = DIRECTION ( 'NONE',  ( 1.000000000000000000, -3.241712115390480395E-18, 0.000000000000000000 ) ) ;
#229 = AXIS2_PLACEMENT_3D ( 'NONE', #996, #433, #342 ) ;
#230 =( GEOMETRIC_REPRESENTATION_CONTEXT ( 3 ) GLOBAL_UNCERTAINTY_ASSIGNED_CONTEXT ( ( #521 ) ) GLOBAL_UNIT_ASSIGNED_CONTEXT ( ( #454, #770, #127 ) ) REPRESENTATION_CONTEXT ( 'NONE', 'WORKASPACE' ) );
#231 = ORIENTED_EDGE ( 'NONE', *, *, #273, .T. ) ;
#232 = CIRCLE ( 'NONE', #214, 2.999999999999999112 ) ;
#233 = CYLINDRICAL_SURFACE ( 'NONE', #246, 20.99999999999998934 ) ;
#234 = DIRECTION ( 'NONE',  ( 0.000000000000000000, 0.000000000000000000, -1.000000000000000000 ) ) ;
#235 = LINE ( 'NONE', #569, #722 ) ;
#236 = ADVANCED_FACE ( 'NONE', ( #244 ), #329, .T. ) ;
#237 = ORIENTED_EDGE ( 'NONE', *, *, #348, .T. ) ;
#238 = DIRECTION ( 'NONE',  ( 0.000000000000000000, 1.000000000000000000, 0.000000000000000000 ) ) ;
#239 = CARTESIAN_POINT ( 'NONE',  ( 26.66346035225550182, 1.255075043902044596E-14, 0.000000000000000000 ) ) ;
#240 = CARTESIAN_POINT ( 'NONE',  ( 30.86923171819556799, -25.49999999999998224, 0.000000000000000000 ) ) ;
#241 = ORIENTED_EDGE ( 'NONE', *, *, #418, .T. ) ;
#242 = DIRECTION ( 'NONE',  ( 1.000000000000000000, -3.241712115390480395E-18, 0.000000000000000000 ) ) ;
#243 = FACE_OUTER_BOUND ( 'NONE', #955, .T. ) ;
#244 = FACE_OUTER_BOUND ( 'NONE', #697, .T. ) ;
#245 = VECTOR ( 'NONE', #834, 1000.000000000000000 ) ;
#246 = AXIS2_PLACEMENT_3D ( 'NONE', #657, #549, #71 ) ;
#247 = ORIENTED_EDGE ( 'NONE', *, *, #113, .T. ) ;
#248 = AXIS2_PLACEMENT_3D ( 'NONE', #546, #1036, #960 ) ;
#249 = DIRECTION ( 'NONE',  ( -1.000000000000000000, 3.241712115390480395E-18, -0.000000000000000000 ) ) ;
#250 = AXIS2_PLACEMENT_3D ( 'NONE', #314, #1062, #309 ) ;
#251 = DIRECTION ( 'NONE',  ( 1.000000000000000000, -3.241712115390480395E-18, 0.000000000000000000 ) ) ;
#252 = CARTESIAN_POINT ( 'NONE',  ( -85.00000000000000000, 1.291273123129077766E-14, 0.000000000000000000 ) ) ;
#253 = ORIENTED_EDGE ( 'NONE', *, *, #967, .T. ) ;
#254 = DIRECTION ( 'NONE',  ( -3.969952365870146765E-34, -1.224646799147353207E-16, 1.000000000000000000 ) ) ;
#255 = LINE ( 'NONE', #97, #616 ) ;
#256 = DIRECTION ( 'NONE',  ( 0.000000000000000000, -1.000000000000000000, 0.000000000000000000 ) ) ;
#257 = ORIENTED_EDGE ( 'NONE', *, *, #730, .T. ) ;
#258 = CARTESIAN_POINT ( 'NONE',  ( 26.66346035225550182, 1.255075043902044596E-14, 0.000000000000000000 ) ) ;
#259 = FACE_OUTER_BOUND ( 'NONE', #425, .T. ) ;
#260 = ORIENTED_EDGE ( 'NONE', *, *, #846, .T. ) ;
#261 = CIRCLE ( 'NONE', #698, 2.999999999999999112 ) ;
#262 = AXIS2_PLACEMENT_3D ( 'NONE', #822, #88, #1065 ) ;
#263 = CARTESIAN_POINT ( 'NONE',  ( -26.66346035225554445, 1.272362096394472862E-14, 0.000000000000000000 ) ) ;
#264 = CIRCLE ( 'NONE', #904, 25.09807621135331246 ) ;
#265 = TOROIDAL_SURFACE ( 'NONE', #500, 20.99999999999999289, 1.500000000000000000 ) ;
#266 = VECTOR ( 'NONE', #249, 1000.000000000000000 ) ;
#267 = CIRCLE ( 'NONE', #857, 23.99999999999999289 ) ;
#268 = DIRECTION ( 'NONE',  ( -1.000000000000000000, 3.241712115390480395E-18, -0.000000000000000000 ) ) ;
#269 = EDGE_CURVE ( 'NONE', #1025, #885, #700, .T. ) ;
#270 = ORIENTED_EDGE ( 'NONE', *, *, #343, .F. ) ;
#271 = EDGE_CURVE ( 'NONE', #570, #44, #525, .T. ) ;
#272 = APPROVAL_DATE_TIME ( #764, #940 ) ;
#273 = EDGE_CURVE ( 'NONE', #123, #1030, #588, .T. ) ;
#274 = DIRECTION ( 'NONE',  ( 3.241712115390480010E-18, 1.000000000000000000, 0.000000000000000000 ) ) ;
#275 = ORIENTED_EDGE ( 'NONE', *, *, #780, .F. ) ;
#276 = PERSON_AND_ORGANIZATION ( #24, #839 ) ;
#277 = ORIENTED_EDGE ( 'NONE', *, *, #469, .F. ) ;
#278 = EDGE_CURVE ( 'NONE', #779, #570, #439, .T. ) ;
#279 = DIRECTION ( 'NONE',  ( -1.000000000000000000, 3.241712115390480395E-18, -0.000000000000000000 ) ) ;
#280 = ORIENTED_EDGE ( 'NONE', *, *, #310, .T. ) ;
#281 = AXIS2_PLACEMENT_3D ( 'NONE', #141, #873, #317 ) ;
#282 = ORIENTED_EDGE ( 'NONE', *, *, #379, .T. ) ;
#283 = AXIS2_PLACEMENT_3D ( 'NONE', #1058, #316, #397 ) ;
#284 = EDGE_CURVE ( 'NONE', #123, #1063, #479, .T. ) ;
#285 = AXIS2_PLACEMENT_3D ( 'NONE', #6, #512, #256 ) ;
#286 = EDGE_CURVE ( 'NONE', #1063, #123, #1056, .T. ) ;
#287 = AXIS2_PLACEMENT_3D ( 'NONE', #456, #288, #1013 ) ;
#288 = DIRECTION ( 'NONE',  ( 1.000000000000000000, -3.241712115390480395E-18, 0.000000000000000000 ) ) ;
#289 = CIRCLE ( 'NONE', #989, 2.999999999999999112 ) ;
#290 = ORIENTED_EDGE ( 'NONE', *, *, #118, .F. ) ;
#291 = PERSON_AND_ORGANIZATION ( #24, #839 ) ;
#292 = ORIENTED_EDGE ( 'NONE', *, *, #742, .T. ) ;
#293 = CC_DESIGN_PERSON_AND_ORGANIZATION_ASSIGNMENT ( #864, #359, ( #335 ) ) ;
#294 = FACE_OUTER_BOUND ( 'NONE', #208, .T. ) ;
#295 = EDGE_CURVE ( 'NONE', #1032, #977, #202, .T. ) ;
#296 = EDGE_LOOP ( 'NONE', ( #703, #270, #253, #565 ) ) ;
#297 = APPROVAL_STATUS ( 'not_yet_approved' ) ;
#298 = EDGE_LOOP ( 'NONE', ( #793, #1014, #282, #548 ) ) ;
#299 = CARTESIAN_POINT ( 'NONE',  ( -85.00000000000000000, -20.99999999999997868, 0.000000000000000000 ) ) ;
#300 = DIRECTION ( 'NONE',  ( 0.000000000000000000, 1.000000000000000000, 0.000000000000000000 ) ) ;
#301 = ADVANCED_FACE ( 'NONE', ( #994 ), #634, .T. ) ;
#302 = ORIENTED_EDGE ( 'NONE', *, *, #942, .T. ) ;
#303 = DIRECTION ( 'NONE',  ( 0.000000000000000000, 1.000000000000000000, 0.000000000000000000 ) ) ;
#304 = CIRCLE ( 'NONE', #1035, 21.60288568297003309 ) ;
#305 = DIRECTION ( 'NONE',  ( 0.000000000000000000, 1.000000000000000000, 0.000000000000000000 ) ) ;
#306 = CIRCLE ( 'NONE', #600, 22.49999999999999289 ) ;
#307 = AXIS2_PLACEMENT_3D ( 'NONE', #518, #242, #347 ) ;
#308 = LOCAL_TIME ( 0, 4, 3.000000000000000000, #199 ) ;
#309 = DIRECTION ( 'NONE',  ( 0.000000000000000000, 1.000000000000000000, 0.000000000000000000 ) ) ;
#310 = EDGE_CURVE ( 'NONE', #728, #661, #136, .T. ) ;
#311 = AXIS2_PLACEMENT_3D ( 'NONE', #520, #848, #115 ) ;
#312 = EDGE_LOOP ( 'NONE', ( #534, #844, #891, #219 ) ) ;
#313 = LINE ( 'NONE', #56, #387 ) ;
#314 = CARTESIAN_POINT ( 'NONE',  ( -28.61923171819555733, 1.272996101167662968E-14, 0.000000000000000000 ) ) ;
#315 = ORIENTED_EDGE ( 'NONE', *, *, #648, .T. ) ;
#316 = DIRECTION ( 'NONE',  ( -1.000000000000000000, 3.241712115390480395E-18, -0.000000000000000000 ) ) ;
#317 = DIRECTION ( 'NONE',  ( 0.000000000000000000, -1.000000000000000000, 0.000000000000000000 ) ) ;
#318 = DIRECTION ( 'NONE',  ( 0.000000000000000000, 1.000000000000000000, 0.000000000000000000 ) ) ;
#319 = VERTEX_POINT ( 'NONE', #659 ) ;
#320 = DIRECTION ( 'NONE',  ( 0.000000000000000000, 1.000000000000000000, 0.000000000000000000 ) ) ;
#321 = CIRCLE ( 'NONE', #46, 22.49999999999998934 ) ;
#322 = CYLINDRICAL_SURFACE ( 'NONE', #281, 20.99999999999998934 ) ;
#323 = VECTOR ( 'NONE', #92, 1000.000000000000000 ) ;
#324 = AXIS2_PLACEMENT_3D ( 'NONE', #499, #984, #15 ) ;
#325 = DIRECTION ( 'NONE',  ( 0.000000000000000000, -1.000000000000000000, -1.224646799147352714E-16 ) ) ;
#326 = ORIENTED_EDGE ( 'NONE', *, *, #704, .T. ) ;
#327 = CARTESIAN_POINT ( 'NONE',  ( 30.11923171819556799, 1.253954782311545982E-14, 0.000000000000000000 ) ) ;
#328 = DIRECTION ( 'NONE',  ( 3.969952365870146765E-34, 1.224646799147353207E-16, 1.000000000000000000 ) ) ;
#329 = CYLINDRICAL_SURFACE ( 'NONE', #373, 22.49999999999999289 ) ;
#330 = ORIENTED_EDGE ( 'NONE', *, *, #898, .F. ) ;
#331 = DIRECTION ( 'NONE',  ( 0.000000000000000000, 1.000000000000000000, 0.000000000000000000 ) ) ;
#332 = FACE_BOUND ( 'NONE', #743, .T. ) ;
#333 = DIRECTION ( 'NONE',  ( 0.8660254037844359321, 0.5000000000000046629, 0.000000000000000000 ) ) ;
#334 = VERTEX_POINT ( 'NONE', #240 ) ;
#335 = PRODUCT_DEFINITION ( 'UNKNOWN', '', #31, #128 ) ;
#336 = CARTESIAN_POINT ( 'NONE',  ( 26.66346035225550182, 27.00000000000001066, 3.306546357697853339E-15 ) ) ;
#337 = CARTESIAN_POINT ( 'NONE',  ( 26.66346035225550182, -23.99999999999997868, 0.000000000000000000 ) ) ;
#338 = DIRECTION ( 'NONE',  ( -1.000000000000000000, 3.241712115390480395E-18, -0.000000000000000000 ) ) ;
#339 = CIRCLE ( 'NONE', #969, 23.99999999999999289 ) ;
#340 = TOROIDAL_SURFACE ( 'NONE', #410, 22.50000000000000000, 3.000000000000000000 ) ;
#341 = VERTEX_POINT ( 'NONE', #574 ) ;
#342 = DIRECTION ( 'NONE',  ( 0.000000000000000000, -1.000000000000000000, -1.224646799147353454E-16 ) ) ;
#343 = EDGE_CURVE ( 'NONE', #716, #319, #306, .T. ) ;
#344 = CARTESIAN_POINT ( 'NONE',  ( 30.86923171819556799, 22.50000000000001421, 0.000000000000000000 ) ) ;
#345 = CARTESIAN_POINT ( 'NONE',  ( -85.00000000000000000, -22.49999999999997868, 0.000000000000000000 ) ) ;
#346 = ORIENTED_EDGE ( 'NONE', *, *, #1045, .T. ) ;
#347 = DIRECTION ( 'NONE',  ( 0.000000000000000000, 1.000000000000000000, 0.000000000000000000 ) ) ;
#348 = EDGE_CURVE ( 'NONE', #970, #341, #746, .T. ) ;
#349 = DIRECTION ( 'NONE',  ( -1.000000000000000000, 3.241712115390480395E-18, -0.000000000000000000 ) ) ;
#350 = ORIENTED_EDGE ( 'NONE', *, *, #1047, .T. ) ;
#351 = DIRECTION ( 'NONE',  ( -1.000000000000000000, 3.241712115390480395E-18, -0.000000000000000000 ) ) ;
#352 = ADVANCED_FACE ( 'NONE', ( #539 ), #452, .F. ) ;
#353 = EDGE_CURVE ( 'NONE', #420, #53, #264, .T. ) ;
#354 = LINE ( 'NONE', #683, #65 ) ;
#355 = EDGE_CURVE ( 'NONE', #139, #356, #1003, .T. ) ;
#356 = VERTEX_POINT ( 'NONE', #694 ) ;
#357 = AXIS2_PLACEMENT_3D ( 'NONE', #60, #804, #403 ) ;
#358 = TOROIDAL_SURFACE ( 'NONE', #954, 26.99999999999999645, 4.500000000000000888 ) ;
#359 = PERSON_AND_ORGANIZATION_ROLE ( 'creator' ) ;
#360 = AXIS2_PLACEMENT_3D ( 'NONE', #922, #672, #89 ) ;
#361 = TOROIDAL_SURFACE ( 'NONE', #601, 26.99999999999999645, 3.000000000000000000 ) ;
#362 = CC_DESIGN_APPROVAL ( #68, ( #335 ) ) ;
#363 = DIRECTION ( 'NONE',  ( 3.241712115390480780E-18, 1.000000000000000000, 0.000000000000000000 ) ) ;
#364 = CARTESIAN_POINT ( 'NONE',  ( 30.81538414090219291, 1.253729109737261321E-14, 0.000000000000000000 ) ) ;
#365 = ADVANCED_FACE ( 'NONE', ( #927 ), #86, .F. ) ;
#366 = ORIENTED_EDGE ( 'NONE', *, *, #140, .F. ) ;
#367 = CARTESIAN_POINT ( 'NONE',  ( -85.00000000000000000, 1.291273123129077766E-14, 0.000000000000000000 ) ) ;
#368 = VERTEX_POINT ( 'NONE', #370 ) ;
#369 = VERTEX_POINT ( 'NONE', #941 ) ;
#370 = CARTESIAN_POINT ( 'NONE',  ( 26.66346035225550182, 24.00000000000000711, 2.939152317953647106E-15 ) ) ;
#371 = ORIENTED_EDGE ( 'NONE', *, *, #355, .F. ) ;
#372 = ORIENTED_EDGE ( 'NONE', *, *, #660, .T. ) ;
#373 = AXIS2_PLACEMENT_3D ( 'NONE', #252, #338, #825 ) ;
#374 = CARTESIAN_POINT ( 'NONE',  ( -85.00000000000000000, 1.291273123129077766E-14, 0.000000000000000000 ) ) ;
#375 = FACE_OUTER_BOUND ( 'NONE', #20, .T. ) ;
#376 = APPROVAL_ROLE ( '' ) ;
#377 = ORIENTED_EDGE ( 'NONE', *, *, #967, .F. ) ;
#378 = FACE_OUTER_BOUND ( 'NONE', #673, .T. ) ;
#379 = EDGE_CURVE ( 'NONE', #341, #485, #388, .T. ) ;
#380 = ORIENTED_EDGE ( 'NONE', *, *, #981, .F. ) ;
#381 = VERTEX_POINT ( 'NONE', #193 ) ;
#382 = DIRECTION ( 'NONE',  ( 0.000000000000000000, 1.000000000000000000, 0.000000000000000000 ) ) ;
#383 = CARTESIAN_POINT ( 'NONE',  ( -27.46730792954891953, 1.272622680637496710E-14, 0.000000000000000000 ) ) ;
#384 = DIRECTION ( 'NONE',  ( 0.000000000000000000, 1.000000000000000000, 0.000000000000000000 ) ) ;
#385 = ORIENTED_EDGE ( 'NONE', *, *, #981, .T. ) ;
#386 = DIRECTION ( 'NONE',  ( -1.000000000000000000, 0.000000000000000000, 0.000000000000000000 ) ) ;
#387 = VECTOR ( 'NONE', #545, 1000.000000000000000 ) ;
#388 = CIRCLE ( 'NONE', #799, 1.500000000000001332 ) ;
#389 = AXIS2_PLACEMENT_3D ( 'NONE', #503, #507, #676 ) ;
#390 = CARTESIAN_POINT ( 'NONE',  ( -85.00000000000000000, 22.50000000000000711, 2.755455298081543594E-15 ) ) ;
#391 = AXIS2_PLACEMENT_3D ( 'NONE', #37, #773, #363 ) ;
#392 = CIRCLE ( 'NONE', #870, 4.500000000000003553 ) ;
#393 = CARTESIAN_POINT ( 'NONE',  ( -85.00000000000000000, 1.291273123129077766E-14, 0.000000000000000000 ) ) ;
#394 = AXIS2_PLACEMENT_3D ( 'NONE', #805, #475, #723 ) ;
#395 = ORIENTED_EDGE ( 'NONE', *, *, #923, .F. ) ;
#396 = ADVANCED_FACE ( 'NONE', ( #203 ), #41, .T. ) ;
#397 = DIRECTION ( 'NONE',  ( -3.241712115390480395E-18, -1.000000000000000000, 0.000000000000000000 ) ) ;
#398 = CARTESIAN_POINT ( 'NONE',  ( 26.66346035225550182, 1.255075043902044596E-14, 0.000000000000000000 ) ) ;
#399 = DIRECTION ( 'NONE',  ( 1.000000000000000000, -3.241712115390480395E-18, 0.000000000000000000 ) ) ;
#400 = ORIENTED_EDGE ( 'NONE', *, *, #691, .T. ) ;
#401 = ADVANCED_BREP_SHAPE_REPRESENTATION ( '79-8469 - Stegmuff. 51-48-45', ( #124, #446 ), #230 ) ;
#402 = EDGE_CURVE ( 'NONE', #728, #139, #852, .T. ) ;
#403 = DIRECTION ( 'NONE',  ( 0.000000000000000000, -1.000000000000000000, 0.000000000000000000 ) ) ;
#404 = CARTESIAN_POINT ( 'NONE',  ( -85.00000000000000000, 22.50000000000000355, 2.755455298081543200E-15 ) ) ;
#405 = ORIENTED_EDGE ( 'NONE', *, *, #278, .T. ) ;
#406 = DIRECTION ( 'NONE',  ( -1.000000000000000000, 3.241712115390480395E-18, -0.000000000000000000 ) ) ;
#407 = CIRCLE ( 'NONE', #26, 23.99999999999999289 ) ;
#408 = CARTESIAN_POINT ( 'NONE',  ( 28.91346035225550537, 23.10288568297003309, 0.000000000000000000 ) ) ;
#409 = ADVANCED_FACE ( 'NONE', ( #777 ), #888, .T. ) ;
#410 = AXIS2_PLACEMENT_3D ( 'NONE', #490, #76, #63 ) ;
#411 = CARTESIAN_POINT ( 'NONE',  ( -30.86923171819558220, 1.273725486393625810E-14, 0.000000000000000000 ) ) ;
#412 = AXIS2_PLACEMENT_3D ( 'NONE', #662, #841, #331 ) ;
#413 = LOCAL_TIME ( 0, 4, 3.000000000000000000, #849 ) ;
#414 = ORIENTED_EDGE ( 'NONE', *, *, #872, .T. ) ;
#415 = CIRCLE ( 'NONE', #689, 23.99999999999999289 ) ;
#416 = CARTESIAN_POINT ( 'NONE',  ( -85.00000000000000000, 25.50000000000000711, 3.122849337825749828E-15 ) ) ;
#417 = DIRECTION ( 'NONE',  ( 0.000000000000000000, -1.000000000000000000, 1.224646799147351975E-16 ) ) ;
#418 = EDGE_CURVE ( 'NONE', #991, #517, #1008, .T. ) ;
#419 = CARTESIAN_POINT ( 'NONE',  ( -28.16346035225555156, 1.272848353211781529E-14, 0.000000000000000000 ) ) ;
#420 = VERTEX_POINT ( 'NONE', #209 ) ;
#421 = CARTESIAN_POINT ( 'NONE',  ( 26.66346035225550182, -26.99999999999998224, 0.000000000000000000 ) ) ;
#422 = CARTESIAN_POINT ( 'NONE',  ( -26.66346035225554445, -20.99999999999998224, 2.571758278209440872E-15 ) ) ;
#423 = EDGE_CURVE ( 'NONE', #40, #334, #12, .T. ) ;
#424 = CARTESIAN_POINT ( 'NONE',  ( -30.86923171819558220, 1.273725486393625810E-14, 0.000000000000000000 ) ) ;
#425 = EDGE_LOOP ( 'NONE', ( #575, #961, #754, #916 ) ) ;
#426 = FACE_OUTER_BOUND ( 'NONE', #812, .T. ) ;
#427 = DIRECTION ( 'NONE',  ( 0.000000000000000000, 0.000000000000000000, -1.000000000000000000 ) ) ;
#428 = TOROIDAL_SURFACE ( 'NONE', #597, 25.49999999999999289, 4.500000000000000888 ) ;
#429 = DIRECTION ( 'NONE',  ( -1.000000000000000000, 3.241712115390480395E-18, -0.000000000000000000 ) ) ;
#430 = AXIS2_PLACEMENT_3D ( 'NONE', #745, #740, #167 ) ;
#431 = ORIENTED_EDGE ( 'NONE', *, *, #271, .F. ) ;
#432 = TOROIDAL_SURFACE ( 'NONE', #823, 25.49999999999999289, 3.000000000000000000 ) ;
#433 = DIRECTION ( 'NONE',  ( -3.969952365870146765E-34, -1.224646799147353207E-16, 1.000000000000000000 ) ) ;
#434 = CIRCLE ( 'NONE', #394, 23.59807621135329825 ) ;
#435 = DIRECTION ( 'NONE',  ( -1.000000000000000000, 3.241712115390480395E-18, -0.000000000000000000 ) ) ;
#436 = EDGE_LOOP ( 'NONE', ( #875, #632, #231, #806 ) ) ;
#437 = CARTESIAN_POINT ( 'NONE',  ( -30.86923171819558220, -20.99999999999997868, 0.000000000000000000 ) ) ;
#438 = EDGE_CURVE ( 'NONE', #517, #356, #69, .T. ) ;
#439 = LINE ( 'NONE', #911, #245 ) ;
#440 = ORIENTED_EDGE ( 'NONE', *, *, #469, .T. ) ;
#441 = DIRECTION ( 'NONE',  ( 0.000000000000000000, -1.000000000000000000, 0.000000000000000000 ) ) ;
#442 = CARTESIAN_POINT ( 'NONE',  ( 30.86923171819556799, 25.50000000000000711, 3.122849337825749828E-15 ) ) ;
#443 = VECTOR ( 'NONE', #226, 1000.000000000000000 ) ;
#444 = CALENDAR_DATE ( 2026, 16, 9 ) ;
#445 = CIRCLE ( 'NONE', #482, 22.49999999999999289 ) ;
#446 = AXIS2_PLACEMENT_3D ( 'NONE', #702, #52, #688 ) ;
#447 = AXIS2_PLACEMENT_3D ( 'NONE', #393, #152, #483 ) ;
#448 = CARTESIAN_POINT ( 'NONE',  ( 30.86923171819556799, 1.253711653902891648E-14, 0.000000000000000000 ) ) ;
#449 = EDGE_CURVE ( 'NONE', #131, #980, #321, .T. ) ;
#450 = ORIENTED_EDGE ( 'NONE', *, *, #109, .T. ) ;
#451 = APPLICATION_PROTOCOL_DEFINITION ( 'international standard', 'config_control_design', 1994, #547 ) ;
#452 = CYLINDRICAL_SURFACE ( 'NONE', #543, 23.99999999999999289 ) ;
#453 = EDGE_LOOP ( 'NONE', ( #74, #865, #656, #280 ) ) ;
#454 =( LENGTH_UNIT ( ) NAMED_UNIT ( * ) SI_UNIT ( .MILLI., .METRE. ) );
#455 = EDGE_LOOP ( 'NONE', ( #855, #257, #1009, #789 ) ) ;
#456 = CARTESIAN_POINT ( 'NONE',  ( 30.86923171819556799, 1.253711653902891648E-14, 0.000000000000000000 ) ) ;
#457 = EDGE_LOOP ( 'NONE', ( #896, #99, #247, #395 ) ) ;
#458 = DATE_AND_TIME ( #929, #582 ) ;
#459 = ORIENTED_EDGE ( 'NONE', *, *, #925, .T. ) ;
#460 = AXIS2_PLACEMENT_3D ( 'NONE', #422, #328, #417 ) ;
#461 = ADVANCED_FACE ( 'NONE', ( #294 ), #818, .T. ) ;
#462 = VECTOR ( 'NONE', #508, 1000.000000000000000 ) ;
#463 = CC_DESIGN_SECURITY_CLASSIFICATION ( #769, ( #31 ) ) ;
#464 = FACE_OUTER_BOUND ( 'NONE', #908, .T. ) ;
#465 = CARTESIAN_POINT ( 'NONE',  ( -27.46730792954891953, 1.272622680637496710E-14, 0.000000000000000000 ) ) ;
#466 = EDGE_LOOP ( 'NONE', ( #602, #205 ) ) ;
#467 = ADVANCED_FACE ( 'NONE', ( #464 ), #22, .F. ) ;
#468 = CARTESIAN_POINT ( 'NONE',  ( 30.86923171819556799, 1.253711653902891648E-14, 0.000000000000000000 ) ) ;
#469 = EDGE_CURVE ( 'NONE', #617, #53, #354, .T. ) ;
#470 = PLANE ( 'NONE',  #772 ) ;
#471 = ORIENTED_EDGE ( 'NONE', *, *, #147, .T. ) ;
#472 = DIRECTION ( 'NONE',  ( 1.000000000000000000, -3.241712115390480395E-18, 0.000000000000000000 ) ) ;
#473 = DIRECTION ( 'NONE',  ( -3.969952365870146765E-34, -1.224646799147353207E-16, 1.000000000000000000 ) ) ;
#474 = EDGE_CURVE ( 'NONE', #368, #776, #1054, .T. ) ;
#475 = DIRECTION ( 'NONE',  ( -1.000000000000000000, 3.241712115390480395E-18, -0.000000000000000000 ) ) ;
#476 = ORIENTED_EDGE ( 'NONE', *, *, #286, .F. ) ;
#477 = DIRECTION ( 'NONE',  ( -1.000000000000000000, 3.241712115390480395E-18, -0.000000000000000000 ) ) ;
#478 = CIRCLE ( 'NONE', #884, 2.999999999999999112 ) ;
#479 = CIRCLE ( 'NONE', #669, 22.49999999999999289 ) ;
#480 = AXIS2_PLACEMENT_3D ( 'NONE', #239, #899, #5 ) ;
#481 = CARTESIAN_POINT ( 'NONE',  ( -26.66346035225554445, 24.00000000000000711, 2.939152317953647106E-15 ) ) ;
#482 = AXIS2_PLACEMENT_3D ( 'NONE', #263, #186, #101 ) ;
#483 = DIRECTION ( 'NONE',  ( 0.000000000000000000, -1.000000000000000000, 0.000000000000000000 ) ) ;
#484 = EDGE_CURVE ( 'NONE', #319, #779, #261, .T. ) ;
#485 = VERTEX_POINT ( 'NONE', #654 ) ;
#486 = DIRECTION ( 'NONE',  ( 0.000000000000000000, -0.000000000000000000, -1.000000000000000000 ) ) ;
#487 = CARTESIAN_POINT ( 'NONE',  ( -28.61923171819555733, 1.272996101167662968E-14, 0.000000000000000000 ) ) ;
#488 = CARTESIAN_POINT ( 'NONE',  ( -26.66346035225554445, 1.272362096394472862E-14, 0.000000000000000000 ) ) ;
#489 = VERTEX_POINT ( 'NONE', #158 ) ;
#490 = CARTESIAN_POINT ( 'NONE',  ( 30.86923171819556799, 1.253711653902891648E-14, 0.000000000000000000 ) ) ;
#491 = CARTESIAN_POINT ( 'NONE',  ( 28.16346035225550537, 1.254588787084735930E-14, 0.000000000000000000 ) ) ;
#492 = CARTESIAN_POINT ( 'NONE',  ( 30.06538414090219291, 1.253972238145915496E-14, 0.000000000000000000 ) ) ;
#493 = EDGE_LOOP ( 'NONE', ( #149, #241, #912, #122 ) ) ;
#494 = CARTESIAN_POINT ( 'NONE',  ( -85.00000000000000000, 1.291273123129077766E-14, 0.000000000000000000 ) ) ;
#495 = EDGE_CURVE ( 'NONE', #356, #517, #339, .T. ) ;
#496 = AXIS2_PLACEMENT_3D ( 'NONE', #217, #1034, #878 ) ;
#497 = CARTESIAN_POINT ( 'NONE',  ( -29.36923171819556444, 22.90192378864669465, 0.000000000000000000 ) ) ;
#498 = CIRCLE ( 'NONE', #27, 2.999999999999999112 ) ;
#499 = CARTESIAN_POINT ( 'NONE',  ( 30.86923171819556799, 1.253711653902891648E-14, 0.000000000000000000 ) ) ;
#500 = AXIS2_PLACEMENT_3D ( 'NONE', #987, #913, #679 ) ;
#501 = ORIENTED_EDGE ( 'NONE', *, *, #113, .F. ) ;
#502 = EDGE_CURVE ( 'NONE', #138, #991, #407, .T. ) ;
#503 = CARTESIAN_POINT ( 'NONE',  ( 30.86923171819556799, -22.49999999999998579, 2.755455298081544778E-15 ) ) ;
#504 = DIRECTION ( 'NONE',  ( 1.000000000000000000, -3.241712115390480395E-18, 0.000000000000000000 ) ) ;
#505 = VERTEX_POINT ( 'NONE', #481 ) ;
#506 = DIRECTION ( 'NONE',  ( -1.000000000000000000, 0.000000000000000000, 0.000000000000000000 ) ) ;
#507 = DIRECTION ( 'NONE',  ( 3.969952365870146765E-34, 1.224646799147353207E-16, 1.000000000000000000 ) ) ;
#508 = DIRECTION ( 'NONE',  ( -1.000000000000000000, 3.241712115390480395E-18, -0.000000000000000000 ) ) ;
#509 = EDGE_LOOP ( 'NONE', ( #607, #414, #787, #774 ) ) ;
#510 = DIRECTION ( 'NONE',  ( -1.000000000000000000, 3.241712115390480395E-18, -0.000000000000000000 ) ) ;
#511 = DIRECTION ( 'NONE',  ( -1.000000000000000000, 0.000000000000000000, 0.000000000000000000 ) ) ;
#512 = DIRECTION ( 'NONE',  ( -1.000000000000000000, 3.241712115390480395E-18, -0.000000000000000000 ) ) ;
#513 = AXIS2_PLACEMENT_3D ( 'NONE', #727, #639, #318 ) ;
#514 = ORIENTED_EDGE ( 'NONE', *, *, #295, .T. ) ;
#515 = EDGE_CURVE ( 'NONE', #368, #505, #313, .T. ) ;
#516 = DIRECTION ( 'NONE',  ( 0.000000000000000000, -1.000000000000000000, 0.000000000000000000 ) ) ;
#517 = VERTEX_POINT ( 'NONE', #951 ) ;
#518 = CARTESIAN_POINT ( 'NONE',  ( 30.81538414090219291, 1.253729109737261321E-14, 0.000000000000000000 ) ) ;
#519 = DIRECTION ( 'NONE',  ( 1.000000000000000000, -3.241712115390480395E-18, 0.000000000000000000 ) ) ;
#520 = CARTESIAN_POINT ( 'NONE',  ( -85.00000000000000000, 1.291273123129077766E-14, 0.000000000000000000 ) ) ;
#521 = UNCERTAINTY_MEASURE_WITH_UNIT (LENGTH_MEASURE( 1.000000000000000082E-05 ), #454, 'distance_accuracy_value', 'NONE');
#522 = ADVANCED_FACE ( 'NONE', ( #1048 ), #962, .T. ) ;
#523 = CARTESIAN_POINT ( 'NONE',  ( 29.36923171819556799, 1.254197910720200157E-14, 0.000000000000000000 ) ) ;
#524 = ORIENTED_EDGE ( 'NONE', *, *, #192, .F. ) ;
#525 = CIRCLE ( 'NONE', #170, 23.59807621135329825 ) ;
#526 = DATE_TIME_ROLE ( 'classification_date' ) ;
#527 = ORIENTED_EDGE ( 'NONE', *, *, #423, .F. ) ;
#528 = VECTOR ( 'NONE', #1018, 1000.000000000000000 ) ;
#529 = LOCAL_TIME ( 0, 4, 3.000000000000000000, #25 ) ;
#530 = CIRCLE ( 'NONE', #513, 22.29903810567665090 ) ;
#531 = DIRECTION ( 'NONE',  ( -1.000000000000000000, 3.241712115390480395E-18, -0.000000000000000000 ) ) ;
#532 = EDGE_LOOP ( 'NONE', ( #476, #665, #36, #763 ) ) ;
#533 = PERSON_AND_ORGANIZATION_ROLE ( 'creator' ) ;
#534 = ORIENTED_EDGE ( 'NONE', *, *, #515, .F. ) ;
#535 = DIRECTION ( 'NONE',  ( 1.000000000000000000, -3.241712115390480395E-18, 0.000000000000000000 ) ) ;
#536 = ORIENTED_EDGE ( 'NONE', *, *, #343, .T. ) ;
#537 = DATE_AND_TIME ( #444, #1040 ) ;
#538 = ORIENTED_EDGE ( 'NONE', *, *, #353, .F. ) ;
#539 = FACE_OUTER_BOUND ( 'NONE', #493, .T. ) ;
#540 = DIRECTION ( 'NONE',  ( 0.000000000000000000, 1.000000000000000000, 0.000000000000000000 ) ) ;
#541 = EDGE_CURVE ( 'NONE', #779, #817, #651, .T. ) ;
#542 = EDGE_CURVE ( 'NONE', #369, #341, #734, .T. ) ;
#543 = AXIS2_PLACEMENT_3D ( 'NONE', #367, #606, #706 ) ;
#544 = VECTOR ( 'NONE', #162, 1000.000000000000000 ) ;
#545 = DIRECTION ( 'NONE',  ( -1.000000000000000000, 3.241712115390480395E-18, -0.000000000000000000 ) ) ;
#546 = CARTESIAN_POINT ( 'NONE',  ( -29.36923171819556444, 1.273239229576316986E-14, 0.000000000000000000 ) ) ;
#547 = APPLICATION_CONTEXT ( 'configuration controlled 3d designs of mechanical parts and assemblies' ) ;
#548 = ORIENTED_EDGE ( 'NONE', *, *, #958, .T. ) ;
#549 = DIRECTION ( 'NONE',  ( -1.000000000000000000, 3.241712115390480395E-18, -0.000000000000000000 ) ) ;
#550 = CARTESIAN_POINT ( 'NONE',  ( -27.41346035225554445, 1.272605224803127195E-14, 0.000000000000000000 ) ) ;
#551 = DIRECTION ( 'NONE',  ( -1.000000000000000000, 3.241712115390480395E-18, -0.000000000000000000 ) ) ;
#552 = ORIENTED_EDGE ( 'NONE', *, *, #1061, .T. ) ;
#553 = DIRECTION ( 'NONE',  ( -1.000000000000000000, 3.241712115390480395E-18, -0.000000000000000000 ) ) ;
#554 = CARTESIAN_POINT ( 'NONE',  ( -28.16346035225555156, 23.59807621135331956, 0.000000000000000000 ) ) ;
#555 = ADVANCED_FACE ( 'NONE', ( #211 ), #322, .F. ) ;
#556 = DIRECTION ( 'NONE',  ( 0.000000000000000000, 1.000000000000000000, 0.000000000000000000 ) ) ;
#557 = ORIENTED_EDGE ( 'NONE', *, *, #846, .F. ) ;
#558 = DIRECTION ( 'NONE',  ( -1.000000000000000000, 3.241712115390480395E-18, -0.000000000000000000 ) ) ;
#559 = CIRCLE ( 'NONE', #389, 2.999999999999999112 ) ;
#560 = DIRECTION ( 'NONE',  ( -1.000000000000000000, 3.241712115390480395E-18, -0.000000000000000000 ) ) ;
#561 = VECTOR ( 'NONE', #562, 1000.000000000000000 ) ;
#562 = DIRECTION ( 'NONE',  ( -1.000000000000000000, 3.241712115390480395E-18, -0.000000000000000000 ) ) ;
#563 = AXIS2_PLACEMENT_3D ( 'NONE', #883, #737, #325 ) ;
#564 = ADVANCED_FACE ( 'NONE', ( #378 ), #201, .T. ) ;
#565 = ORIENTED_EDGE ( 'NONE', *, *, #541, .F. ) ;
#566 = CARTESIAN_POINT ( 'NONE',  ( 30.86923171819556799, 1.253711653902891648E-14, 0.000000000000000000 ) ) ;
#567 = CARTESIAN_POINT ( 'NONE',  ( -85.00000000000000000, 1.291273123129077766E-14, 0.000000000000000000 ) ) ;
#568 = PRODUCT ( '79-8469 - Stegmuff. 51-48-45', '79-8469 - Stegmuff. 51-48-45', '', ( #932 ) ) ;
#569 = CARTESIAN_POINT ( 'NONE',  ( -85.00000000000000000, -23.99999999999997868, 0.000000000000000000 ) ) ;
#570 = VERTEX_POINT ( 'NONE', #554 ) ;
#571 = EDGE_CURVE ( 'NONE', #319, #131, #889, .T. ) ;
#572 = PLANE ( 'NONE',  #736 ) ;
#573 = DIRECTION ( 'NONE',  ( -3.241712115390480395E-18, -1.000000000000000000, 0.000000000000000000 ) ) ;
#574 = CARTESIAN_POINT ( 'NONE',  ( -27.41346035225554445, 22.29903810567666511, 0.000000000000000000 ) ) ;
#575 = ORIENTED_EDGE ( 'NONE', *, *, #118, .T. ) ;
#576 = CARTESIAN_POINT ( 'NONE',  ( -30.86923171819558220, -25.49999999999997868, 0.000000000000000000 ) ) ;
#577 = CIRCLE ( 'NONE', #8, 22.49999999999998934 ) ;
#578 = DIRECTION ( 'NONE',  ( -1.000000000000000000, 3.241712115390480395E-18, -0.000000000000000000 ) ) ;
#579 = VECTOR ( 'NONE', #177, 1000.000000000000000 ) ;
#580 = AXIS2_PLACEMENT_3D ( 'NONE', #843, #429, #174 ) ;
#581 = CARTESIAN_POINT ( 'NONE',  ( -26.71730792954891243, 1.272379552228842535E-14, 0.000000000000000000 ) ) ;
#582 = LOCAL_TIME ( 0, 4, 3.000000000000000000, #1015 ) ;
#583 = ORIENTED_EDGE ( 'NONE', *, *, #100, .F. ) ;
#584 = AXIS2_PLACEMENT_3D ( 'NONE', #411, #792, #810 ) ;
#585 = CARTESIAN_POINT ( 'NONE',  ( -30.86923171819558220, 1.273725486393625653E-14, 0.000000000000000000 ) ) ;
#586 = CARTESIAN_POINT ( 'NONE',  ( -30.86923171819558220, -22.49999999999997868, 0.000000000000000000 ) ) ;
#587 = EDGE_CURVE ( 'NONE', #1063, #485, #796, .T. ) ;
#588 = LINE ( 'NONE', #345, #462 ) ;
#589 = ORIENTED_EDGE ( 'NONE', *, *, #1061, .F. ) ;
#590 = FACE_OUTER_BOUND ( 'NONE', #111, .T. ) ;
#591 = CARTESIAN_POINT ( 'NONE',  ( 30.06538414090219291, -25.49999999999998224, 3.122849337825749828E-15 ) ) ;
#592 = EDGE_CURVE ( 'NONE', #53, #420, #952, .T. ) ;
#593 = CARTESIAN_POINT ( 'NONE',  ( -26.66346035225554445, 1.272362096394472704E-14, 0.000000000000000000 ) ) ;
#594 = EDGE_CURVE ( 'NONE', #53, #40, #478, .T. ) ;
#595 = ORIENTED_EDGE ( 'NONE', *, *, #942, .F. ) ;
#596 = CARTESIAN_POINT ( 'NONE',  ( 85.00000000000000000, -25.49999999999997868, 0.000000000000000000 ) ) ;
#597 = AXIS2_PLACEMENT_3D ( 'NONE', #663, #988, #573 ) ;
#598 = DIRECTION ( 'NONE',  ( 0.000000000000000000, -1.000000000000000000, 0.000000000000000000 ) ) ;
#599 = CIRCLE ( 'NONE', #262, 24.40192378864667333 ) ;
#600 = AXIS2_PLACEMENT_3D ( 'NONE', #424, #900, #168 ) ;
#601 = AXIS2_PLACEMENT_3D ( 'NONE', #258, #351, #982 ) ;
#602 = ORIENTED_EDGE ( 'NONE', *, *, #502, .T. ) ;
#603 = EDGE_CURVE ( 'NONE', #489, #970, #304, .T. ) ;
#604 = CARTESIAN_POINT ( 'NONE',  ( -85.00000000000000000, -22.49999999999997513, 0.000000000000000000 ) ) ;
#605 = CONICAL_SURFACE ( 'NONE', #32, 23.99999999999999289, 0.5235987755983042558 ) ;
#606 = DIRECTION ( 'NONE',  ( -1.000000000000000000, 3.241712115390480395E-18, -0.000000000000000000 ) ) ;
#607 = ORIENTED_EDGE ( 'NONE', *, *, #54, .F. ) ;
#608 = PERSON_AND_ORGANIZATION ( #24, #839 ) ;
#609 = ADVANCED_FACE ( 'NONE', ( #882 ), #185, .F. ) ;
#610 = CARTESIAN_POINT ( 'NONE',  ( 30.06538414090219291, 1.253972238145915496E-14, 0.000000000000000000 ) ) ;
#611 = EDGE_LOOP ( 'NONE', ( #224, #995, #524, #377 ) ) ;
#612 = SECURITY_CLASSIFICATION_LEVEL ( 'unclassified' ) ;
#613 = EDGE_CURVE ( 'NONE', #980, #131, #577, .T. ) ;
#614 = ORIENTED_EDGE ( 'NONE', *, *, #1041, .F. ) ;
#615 = CARTESIAN_POINT ( 'NONE',  ( 30.86923171819556799, -22.49999999999998579, 2.755455298081544778E-15 ) ) ;
#616 = VECTOR ( 'NONE', #983, 1000.000000000000000 ) ;
#617 = VERTEX_POINT ( 'NONE', #78 ) ;
#618 = VECTOR ( 'NONE', #668, 1000.000000000000000 ) ;
#619 = PERSON_AND_ORGANIZATION ( #24, #839 ) ;
#620 = VERTEX_POINT ( 'NONE', #710 ) ;
#621 = ORIENTED_EDGE ( 'NONE', *, *, #196, .F. ) ;
#622 = ORIENTED_EDGE ( 'NONE', *, *, #77, .T. ) ;
#623 = DIRECTION ( 'NONE',  ( 0.000000000000000000, -1.000000000000000000, 1.224646799147351975E-16 ) ) ;
#624 = EDGE_CURVE ( 'NONE', #1032, #880, #1028, .T. ) ;
#625 = ORIENTED_EDGE ( 'NONE', *, *, #502, .F. ) ;
#626 = APPROVAL_ROLE ( '' ) ;
#627 = ORIENTED_EDGE ( 'NONE', *, *, #592, .F. ) ;
#628 = DIRECTION ( 'NONE',  ( 0.000000000000000000, -1.000000000000000000, 0.000000000000000000 ) ) ;
#629 = PRODUCT_DEFINITION_SHAPE ( 'NONE', 'NONE',  #335 ) ;
#630 = DIRECTION ( 'NONE',  ( 1.000000000000000000, -3.241712115390480395E-18, 0.000000000000000000 ) ) ;
#631 = APPROVAL ( #696, 'UNSPECIFIED' ) ;
#632 = ORIENTED_EDGE ( 'NONE', *, *, #284, .F. ) ;
#633 = FACE_OUTER_BOUND ( 'NONE', #986, .T. ) ;
#634 = TOROIDAL_SURFACE ( 'NONE', #767, 20.99999999999999289, 3.000000000000000000 ) ;
#635 = AXIS2_PLACEMENT_3D ( 'NONE', #150, #477, #320 ) ;
#636 = APPROVAL_PERSON_ORGANIZATION ( #276, #631, #376 ) ;
#637 = DIRECTION ( 'NONE',  ( 1.000000000000000000, -3.241712115390480395E-18, 0.000000000000000000 ) ) ;
#638 = CLOSED_SHELL ( 'NONE', ( #985, #1029, #853, #227, #352, #948, #45, #220, #842, #1031, #301, #1012, #814, #38, #461, #204, #564, #236, #807, #522, #18, #811, #161, #396, #94, #178, #609, #409, #829, #555, #1027, #892, #10, #467, #903, #757, #365, #642 ) ) ;
#639 = DIRECTION ( 'NONE',  ( -1.000000000000000000, 3.241712115390480395E-18, -0.000000000000000000 ) ) ;
#640 = EDGE_LOOP ( 'NONE', ( #1046, #627, #129, #614 ) ) ;
#641 = CARTESIAN_POINT ( 'NONE',  ( -26.66346035225554445, 1.272362096394472862E-14, 0.000000000000000000 ) ) ;
#642 = ADVANCED_FACE ( 'NONE', ( #243 ), #428, .T. ) ;
#643 = DIRECTION ( 'NONE',  ( 0.000000000000000000, 1.000000000000000000, 0.000000000000000000 ) ) ;
#644 = CARTESIAN_POINT ( 'NONE',  ( 85.00000000000000000, 25.50000000000000355, 0.000000000000000000 ) ) ;
#645 = ORIENTED_EDGE ( 'NONE', *, *, #571, .T. ) ;
#646 = DIRECTION ( 'NONE',  ( -3.241712115390480395E-18, -1.000000000000000000, 0.000000000000000000 ) ) ;
#647 = CARTESIAN_POINT ( 'NONE',  ( 85.00000000000000000, 1.236164017167439692E-14, 0.000000000000000000 ) ) ;
#648 = EDGE_CURVE ( 'NONE', #1025, #334, #255, .T. ) ;
#649 = DIRECTION ( 'NONE',  ( 0.000000000000000000, 0.000000000000000000, -1.000000000000000000 ) ) ;
#650 = ORIENTED_EDGE ( 'NONE', *, *, #925, .F. ) ;
#651 = CIRCLE ( 'NONE', #715, 22.90192378864668044 ) ;
#652 = LINE ( 'NONE', #893, #544 ) ;
#653 = CONICAL_SURFACE ( 'NONE', #971, 25.49999999999999645, 0.5235987755982984826 ) ;
#654 = CARTESIAN_POINT ( 'NONE',  ( -26.66346035225554445, 22.50000000000000711, 2.755455298081543594E-15 ) ) ;
#655 = DIRECTION ( 'NONE',  ( -1.000000000000000000, 3.241712115390480395E-18, -0.000000000000000000 ) ) ;
#656 = ORIENTED_EDGE ( 'NONE', *, *, #923, .T. ) ;
#657 = CARTESIAN_POINT ( 'NONE',  ( -85.00000000000000000, 1.291273123129077766E-14, 0.000000000000000000 ) ) ;
#658 = FACE_OUTER_BOUND ( 'NONE', #453, .T. ) ;
#659 = CARTESIAN_POINT ( 'NONE',  ( -30.86923171819558220, 22.50000000000000711, 2.755455298081543594E-15 ) ) ;
#660 = EDGE_CURVE ( 'NONE', #977, #198, #833, .T. ) ;
#661 = VERTEX_POINT ( 'NONE', #408 ) ;
#662 = CARTESIAN_POINT ( 'NONE',  ( -26.71730792954891243, 1.272379552228842535E-14, 0.000000000000000000 ) ) ;
#663 = CARTESIAN_POINT ( 'NONE',  ( -30.86923171819558220, 1.273725486393625653E-14, 0.000000000000000000 ) ) ;
#664 = DIRECTION ( 'NONE',  ( 0.000000000000000000, -1.000000000000000000, 0.000000000000000000 ) ) ;
#665 = ORIENTED_EDGE ( 'NONE', *, *, #587, .T. ) ;
#666 = DIRECTION ( 'NONE',  ( -1.000000000000000000, 0.000000000000000000, 0.000000000000000000 ) ) ;
#667 = EDGE_CURVE ( 'NONE', #381, #420, #914, .T. ) ;
#668 = DIRECTION ( 'NONE',  ( -1.000000000000000000, 3.241712115390480395E-18, -0.000000000000000000 ) ) ;
#669 = AXIS2_PLACEMENT_3D ( 'NONE', #98, #979, #677 ) ;
#670 = AXIS2_PLACEMENT_3D ( 'NONE', #494, #553, #801 ) ;
#671 = AXIS2_PLACEMENT_3D ( 'NONE', #448, #519, #47 ) ;
#672 = DIRECTION ( 'NONE',  ( -1.000000000000000000, 3.241712115390480395E-18, -0.000000000000000000 ) ) ;
#673 = EDGE_LOOP ( 'NONE', ( #931, #302, #1039, #23 ) ) ;
#674 = DIRECTION ( 'NONE',  ( -1.000000000000000000, 3.241712115390480395E-18, -0.000000000000000000 ) ) ;
#675 = EDGE_CURVE ( 'NONE', #999, #517, #134, .T. ) ;
#676 = DIRECTION ( 'NONE',  ( 0.000000000000000000, -1.000000000000000000, 1.224646799147353454E-16 ) ) ;
#677 = DIRECTION ( 'NONE',  ( 0.000000000000000000, -1.000000000000000000, 0.000000000000000000 ) ) ;
#678 = ORIENTED_EDGE ( 'NONE', *, *, #1047, .F. ) ;
#679 = DIRECTION ( 'NONE',  ( 3.241712115390480010E-18, 1.000000000000000000, 0.000000000000000000 ) ) ;
#680 = ORIENTED_EDGE ( 'NONE', *, *, #976, .T. ) ;
#681 = CARTESIAN_POINT ( 'NONE',  ( 85.00000000000000000, 24.00000000000000711, 2.939152317953647106E-15 ) ) ;
#682 = VECTOR ( 'NONE', #974, 1000.000000000000000 ) ;
#683 = CARTESIAN_POINT ( 'NONE',  ( 30.06538414090219291, 25.50000000000000711, 0.000000000000000000 ) ) ;
#684 = CIRCLE ( 'NONE', #820, 23.79903810567665801 ) ;
#685 = EDGE_CURVE ( 'NONE', #716, #980, #750, .T. ) ;
#686 = CIRCLE ( 'NONE', #13, 3.000000000000002665 ) ;
#687 = ORIENTED_EDGE ( 'NONE', *, *, #495, .T. ) ;
#688 = DIRECTION ( 'NONE',  ( 1.000000000000000000, 0.000000000000000000, 0.000000000000000000 ) ) ;
#689 = AXIS2_PLACEMENT_3D ( 'NONE', #1044, #655, #797 ) ;
#690 = DIRECTION ( 'NONE',  ( -1.000000000000000000, 3.241712115390480395E-18, -0.000000000000000000 ) ) ;
#691 = EDGE_CURVE ( 'NONE', #885, #1025, #868, .T. ) ;
#692 = ORIENTED_EDGE ( 'NONE', *, *, #872, .F. ) ;
#693 = EDGE_LOOP ( 'NONE', ( #1016, #346, #62, #901 ) ) ;
#694 = CARTESIAN_POINT ( 'NONE',  ( 30.86923171819556799, -23.99999999999997868, 0.000000000000000000 ) ) ;
#695 = EDGE_LOOP ( 'NONE', ( #85, #778, #687, #51 ) ) ;
#696 = APPROVAL_STATUS ( 'not_yet_approved' ) ;
#697 = EDGE_LOOP ( 'NONE', ( #536, #645, #1020, #771 ) ) ;
#698 = AXIS2_PLACEMENT_3D ( 'NONE', #163, #473, #966 ) ;
#699 = ORIENTED_EDGE ( 'NONE', *, *, #379, .F. ) ;
#700 = CIRCLE ( 'NONE', #920, 25.49999999999999289 ) ;
#701 = CIRCLE ( 'NONE', #229, 2.999999999999999112 ) ;
#702 = CARTESIAN_POINT ( 'NONE',  ( 0.000000000000000000, 0.000000000000000000, 0.000000000000000000 ) ) ;
#703 = ORIENTED_EDGE ( 'NONE', *, *, #484, .F. ) ;
#704 = EDGE_CURVE ( 'NONE', #420, #334, #559, .T. ) ;
#705 = EDGE_CURVE ( 'NONE', #381, #617, #784, .T. ) ;
#706 = DIRECTION ( 'NONE',  ( 0.000000000000000000, -1.000000000000000000, 0.000000000000000000 ) ) ;
#707 = FACE_OUTER_BOUND ( 'NONE', #693, .T. ) ;
#708 = APPLICATION_PROTOCOL_DEFINITION ( 'international standard', 'config_control_design', 1994, #794 ) ;
#709 = ORIENTED_EDGE ( 'NONE', *, *, #691, .F. ) ;
#710 = CARTESIAN_POINT ( 'NONE',  ( -26.66346035225554445, -23.99999999999997868, 0.000000000000000000 ) ) ;
#711 = DIRECTION ( 'NONE',  ( 1.000000000000000000, -3.241712115390480395E-18, 0.000000000000000000 ) ) ;
#712 = DIRECTION ( 'NONE',  ( 0.000000000000000000, -1.000000000000000000, 0.000000000000000000 ) ) ;
#713 = DIRECTION ( 'NONE',  ( 1.000000000000000000, -3.241712115390480395E-18, 0.000000000000000000 ) ) ;
#714 = DIRECTION ( 'NONE',  ( 3.241712115390480395E-18, 1.000000000000000000, 0.000000000000000000 ) ) ;
#715 = AXIS2_PLACEMENT_3D ( 'NONE', #894, #637, #146 ) ;
#716 = VERTEX_POINT ( 'NONE', #586 ) ;
#717 = CIRCLE ( 'NONE', #285, 22.49999999999999289 ) ;
#718 = TOROIDAL_SURFACE ( 'NONE', #480, 26.99999999999999645, 4.500000000000000888 ) ;
#719 = CARTESIAN_POINT ( 'NONE',  ( -85.00000000000000000, 1.291273123129077766E-14, 0.000000000000000000 ) ) ;
#720 = VECTOR ( 'NONE', #333, 1000.000000000000000 ) ;
#721 = DIRECTION ( 'NONE',  ( -1.000000000000000000, 0.000000000000000000, 0.000000000000000000 ) ) ;
#722 = VECTOR ( 'NONE', #551, 1000.000000000000000 ) ;
#723 = DIRECTION ( 'NONE',  ( 0.000000000000000000, -1.000000000000000000, 0.000000000000000000 ) ) ;
#724 = ORIENTED_EDGE ( 'NONE', *, *, #192, .T. ) ;
#725 = FACE_OUTER_BOUND ( 'NONE', #933, .T. ) ;
#726 = DIRECTION ( 'NONE',  ( -3.241712115390480395E-18, -1.000000000000000000, 0.000000000000000000 ) ) ;
#727 = CARTESIAN_POINT ( 'NONE',  ( -27.41346035225554445, 1.272605224803127195E-14, 0.000000000000000000 ) ) ;
#728 = VERTEX_POINT ( 'NONE', #828 ) ;
#729 = CYLINDRICAL_SURFACE ( 'NONE', #29, 22.49999999999999289 ) ;
#730 = EDGE_CURVE ( 'NONE', #489, #369, #815, .T. ) ;
#731 = DIRECTION ( 'NONE',  ( 0.000000000000000000, -1.000000000000000000, 0.000000000000000000 ) ) ;
#732 = FACE_BOUND ( 'NONE', #466, .T. ) ;
#733 = ORIENTED_EDGE ( 'NONE', *, *, #207, .T. ) ;
#734 = CIRCLE ( 'NONE', #1001, 22.29903810567665090 ) ;
#735 = DIRECTION ( 'NONE',  ( 3.969952365870146765E-34, 1.224646799147353207E-16, 1.000000000000000000 ) ) ;
#736 = AXIS2_PLACEMENT_3D ( 'NONE', #719, #221, #81 ) ;
#737 = DIRECTION ( 'NONE',  ( -3.969952365870146765E-34, -1.224646799147353207E-16, 1.000000000000000000 ) ) ;
#738 = ORIENTED_EDGE ( 'NONE', *, *, #624, .F. ) ;
#739 = DIRECTION ( 'NONE',  ( 0.000000000000000000, -0.000000000000000000, -1.000000000000000000 ) ) ;
#740 = DIRECTION ( 'NONE',  ( -1.000000000000000000, 3.241712115390480395E-18, -0.000000000000000000 ) ) ;
#741 = CARTESIAN_POINT ( 'NONE',  ( -26.71730792954891243, 22.70096189432335265, 0.000000000000000000 ) ) ;
#742 = EDGE_CURVE ( 'NONE', #369, #1030, #919, .T. ) ;
#743 = EDGE_LOOP ( 'NONE', ( #330, #650 ) ) ;
#744 = LINE ( 'NONE', #9, #119 ) ;
#745 = CARTESIAN_POINT ( 'NONE',  ( 85.00000000000000000, 1.236164017167439692E-14, 0.000000000000000000 ) ) ;
#746 = LINE ( 'NONE', #741, #720 ) ;
#747 = ORIENTED_EDGE ( 'NONE', *, *, #418, .F. ) ;
#748 = DIRECTION ( 'NONE',  ( -1.000000000000000000, 0.000000000000000000, 0.000000000000000000 ) ) ;
#749 = AXIS2_PLACEMENT_3D ( 'NONE', #344, #427, #511 ) ;
#750 = LINE ( 'NONE', #906, #579 ) ;
#751 = CIRCLE ( 'NONE', #248, 22.90192378864668044 ) ;
#752 = CARTESIAN_POINT ( 'NONE',  ( -30.86923171819558220, 1.273725486393625810E-14, 0.000000000000000000 ) ) ;
#753 = CC_DESIGN_APPROVAL ( #940, ( #769 ) ) ;
#754 = ORIENTED_EDGE ( 'NONE', *, *, #876, .T. ) ;
#755 = AXIS2_PLACEMENT_3D ( 'NONE', #364, #947, #540 ) ;
#756 = CARTESIAN_POINT ( 'NONE',  ( -30.86923171819558220, 1.273725486393625653E-14, 0.000000000000000000 ) ) ;
#757 = ADVANCED_FACE ( 'NONE', ( #658 ), #718, .T. ) ;
#758 = DIRECTION ( 'NONE',  ( -1.000000000000000000, 3.241712115390480395E-18, -0.000000000000000000 ) ) ;
#759 = ORIENTED_EDGE ( 'NONE', *, *, #675, .T. ) ;
#760 = FACE_OUTER_BOUND ( 'NONE', #144, .T. ) ;
#761 = EDGE_CURVE ( 'NONE', #991, #138, #800, .T. ) ;
#762 = DIRECTION ( 'NONE',  ( 3.241712115390480780E-18, 1.000000000000000000, 0.000000000000000000 ) ) ;
#763 = ORIENTED_EDGE ( 'NONE', *, *, #273, .F. ) ;
#764 = DATE_AND_TIME ( #112, #529 ) ;
#765 = DIRECTION ( 'NONE',  ( 0.000000000000000000, -1.000000000000000000, 0.000000000000000000 ) ) ;
#766 = CIRCLE ( 'NONE', #902, 23.99999999999999289 ) ;
#767 = AXIS2_PLACEMENT_3D ( 'NONE', #593, #1, #762 ) ;
#768 = ORIENTED_EDGE ( 'NONE', *, *, #55, .T. ) ;
#769 = SECURITY_CLASSIFICATION ( '', '', #612 ) ;
#770 =( NAMED_UNIT ( * ) PLANE_ANGLE_UNIT ( ) SI_UNIT ( $, .RADIAN. ) );
#771 = ORIENTED_EDGE ( 'NONE', *, *, #685, .F. ) ;
#772 = AXIS2_PLACEMENT_3D ( 'NONE', #644, #879, #816 ) ;
#773 = DIRECTION ( 'NONE',  ( 1.000000000000000000, -3.241712115390480395E-18, 0.000000000000000000 ) ) ;
#774 = ORIENTED_EDGE ( 'NONE', *, *, #155, .F. ) ;
#775 = PERSON_AND_ORGANIZATION ( #24, #839 ) ;
#776 = VERTEX_POINT ( 'NONE', #337 ) ;
#777 = FACE_OUTER_BOUND ( 'NONE', #160, .T. ) ;
#778 = ORIENTED_EDGE ( 'NONE', *, *, #355, .T. ) ;
#779 = VERTEX_POINT ( 'NONE', #497 ) ;
#780 = EDGE_CURVE ( 'NONE', #617, #381, #599, .T. ) ;
#781 = CARTESIAN_POINT ( 'NONE',  ( -85.00000000000000000, 1.291273123129077766E-14, 0.000000000000000000 ) ) ;
#782 = AXIS2_PLACEMENT_3D ( 'NONE', #398, #788, #726 ) ;
#783 = FACE_OUTER_BOUND ( 'NONE', #156, .T. ) ;
#784 = CIRCLE ( 'NONE', #153, 24.40192378864667333 ) ;
#785 = AXIS2_PLACEMENT_3D ( 'NONE', #93, #435, #598 ) ;
#786 = PERSON_AND_ORGANIZATION_ROLE ( 'classification_officer' ) ;
#787 = ORIENTED_EDGE ( 'NONE', *, *, #876, .F. ) ;
#788 = DIRECTION ( 'NONE',  ( -1.000000000000000000, 3.241712115390480395E-18, -0.000000000000000000 ) ) ;
#789 = ORIENTED_EDGE ( 'NONE', *, *, #348, .F. ) ;
#790 = EDGE_LOOP ( 'NONE', ( #95, #924, #440, #210 ) ) ;
#791 = DIRECTION ( 'NONE',  ( 0.000000000000000000, 1.000000000000000000, 0.000000000000000000 ) ) ;
#792 = DIRECTION ( 'NONE',  ( -1.000000000000000000, 3.241712115390480395E-18, -0.000000000000000000 ) ) ;
#793 = ORIENTED_EDGE ( 'NONE', *, *, #742, .F. ) ;
#794 = APPLICATION_CONTEXT ( 'configuration controlled 3d designs of mechanical parts and assemblies' ) ;
#795 = CARTESIAN_POINT ( 'NONE',  ( 26.66346035225550182, -26.99999999999998224, 0.000000000000000000 ) ) ;
#796 = LINE ( 'NONE', #390, #682 ) ;
#797 = DIRECTION ( 'NONE',  ( 0.000000000000000000, -1.000000000000000000, 0.000000000000000000 ) ) ;
#798 = ORIENTED_EDGE ( 'NONE', *, *, #271, .T. ) ;
#799 = AXIS2_PLACEMENT_3D ( 'NONE', #206, #862, #197 ) ;
#800 = CIRCLE ( 'NONE', #430, 23.99999999999999289 ) ;
#801 = DIRECTION ( 'NONE',  ( 0.000000000000000000, -1.000000000000000000, 0.000000000000000000 ) ) ;
#802 = CONICAL_SURFACE ( 'NONE', #307, 24.20096189432333844, 0.5235987755982984826 ) ;
#803 = APPROVAL_PERSON_ORGANIZATION ( #775, #68, #1010 ) ;
#804 = DIRECTION ( 'NONE',  ( -1.000000000000000000, 3.241712115390480395E-18, -0.000000000000000000 ) ) ;
#805 = CARTESIAN_POINT ( 'NONE',  ( -28.16346035225555156, 1.272848353211781529E-14, 0.000000000000000000 ) ) ;
#806 = ORIENTED_EDGE ( 'NONE', *, *, #958, .F. ) ;
#807 = ADVANCED_FACE ( 'NONE', ( #332, #725 ), #572, .F. ) ;
#808 = FACE_OUTER_BOUND ( 'NONE', #190, .T. ) ;
#809 = DIRECTION ( 'NONE',  ( 0.000000000000000000, -1.000000000000000000, 0.000000000000000000 ) ) ;
#810 = DIRECTION ( 'NONE',  ( 0.000000000000000000, -1.000000000000000000, 0.000000000000000000 ) ) ;
#811 = ADVANCED_FACE ( 'NONE', ( #819 ), #1042, .T. ) ;
#812 = EDGE_LOOP ( 'NONE', ( #950, #42, #621, #945 ) ) ;
#813 = CARTESIAN_POINT ( 'NONE',  ( -29.36923171819556444, -22.90192378864666622, 2.847303808017595350E-15 ) ) ;
#814 = ADVANCED_FACE ( 'NONE', ( #808 ), #340, .T. ) ;
#815 = LINE ( 'NONE', #82, #323 ) ;
#816 = DIRECTION ( 'NONE',  ( -3.241712115390480395E-18, -1.000000000000000000, 0.000000000000000000 ) ) ;
#817 = VERTEX_POINT ( 'NONE', #813 ) ;
#818 = CONICAL_SURFACE ( 'NONE', #84, 25.49999999999999645, 0.5235987755982984826 ) ;
#819 = FACE_OUTER_BOUND ( 'NONE', #312, .T. ) ;
#820 = AXIS2_PLACEMENT_3D ( 'NONE', #327, #406, #382 ) ;
#821 = TOROIDAL_SURFACE ( 'NONE', #102, 22.50000000000000000, 1.500000000000000000 ) ;
#822 = CARTESIAN_POINT ( 'NONE',  ( 28.16346035225550537, 1.254588787084735930E-14, 0.000000000000000000 ) ) ;
#823 = AXIS2_PLACEMENT_3D ( 'NONE', #756, #510, #917 ) ;
#824 = CIRCLE ( 'NONE', #121, 23.10288568297002243 ) ;
#825 = DIRECTION ( 'NONE',  ( 0.000000000000000000, -1.000000000000000000, 0.000000000000000000 ) ) ;
#826 = ORIENTED_EDGE ( 'NONE', *, *, #173, .T. ) ;
#827 = DIRECTION ( 'NONE',  ( 0.8660254037844388186, 0.4999999999999996669, 0.000000000000000000 ) ) ;
#828 = CARTESIAN_POINT ( 'NONE',  ( 28.91346035225550537, -23.10288568297000822, 2.871914542080963132E-15 ) ) ;
#829 = ADVANCED_FACE ( 'NONE', ( #216 ), #1002, .F. ) ;
#830 = CARTESIAN_POINT ( 'NONE',  ( 28.91346035225550537, 1.254345658676081912E-14, 0.000000000000000000 ) ) ;
#831 = EDGE_LOOP ( 'NONE', ( #126, #372, #459, #738 ) ) ;
#832 = CARTESIAN_POINT ( 'NONE',  ( 26.66346035225550182, 22.50000000000000711, 2.755455298081543594E-15 ) ) ;
#833 = LINE ( 'NONE', #993, #618 ) ;
#834 = DIRECTION ( 'NONE',  ( 0.8660254037844359321, 0.5000000000000046629, 0.000000000000000000 ) ) ;
#835 = ORIENTED_EDGE ( 'NONE', *, *, #594, .F. ) ;
#836 = CARTESIAN_POINT ( 'NONE',  ( -26.66346035225554445, -22.49999999999997868, 0.000000000000000000 ) ) ;
#837 = AXIS2_PLACEMENT_3D ( 'NONE', #874, #142, #714 ) ;
#838 = AXIS2_PLACEMENT_3D ( 'NONE', #585, #674, #992 ) ;
#839 = ORGANIZATION ( 'UNSPECIFIED', 'UNSPECIFIED', '' ) ;
#840 = ORIENTED_EDGE ( 'NONE', *, *, #613, .T. ) ;
#841 = DIRECTION ( 'NONE',  ( 1.000000000000000000, -3.241712115390480395E-18, 0.000000000000000000 ) ) ;
#842 = ADVANCED_FACE ( 'NONE', ( #881 ), #233, .F. ) ;
#843 = CARTESIAN_POINT ( 'NONE',  ( 26.66346035225550182, 1.255075043902044596E-14, 0.000000000000000000 ) ) ;
#844 = ORIENTED_EDGE ( 'NONE', *, *, #474, .T. ) ;
#845 = COORDINATED_UNIVERSAL_TIME_OFFSET ( 1, 0, .AHEAD. ) ;
#846 = EDGE_CURVE ( 'NONE', #139, #999, #684, .T. ) ;
#847 = DIRECTION ( 'NONE',  ( 1.000000000000000000, -3.241712115390480395E-18, 0.000000000000000000 ) ) ;
#848 = DIRECTION ( 'NONE',  ( -1.000000000000000000, 3.241712115390480395E-18, -0.000000000000000000 ) ) ;
#849 = COORDINATED_UNIVERSAL_TIME_OFFSET ( 1, 0, .AHEAD. ) ;
#850 = CC_DESIGN_PERSON_AND_ORGANIZATION_ASSIGNMENT ( #619, #1021, ( #31 ) ) ;
#851 = AXIS2_PLACEMENT_3D ( 'NONE', #1004, #268, #765 ) ;
#852 = LINE ( 'NONE', #135, #936 ) ;
#853 = ADVANCED_FACE ( 'NONE', ( #877 ), #358, .T. ) ;
#854 = AXIS2_PLACEMENT_3D ( 'NONE', #615, #935, #623 ) ;
#855 = ORIENTED_EDGE ( 'NONE', *, *, #603, .F. ) ;
#856 = ORIENTED_EDGE ( 'NONE', *, *, #898, .T. ) ;
#857 = AXIS2_PLACEMENT_3D ( 'NONE', #73, #83, #159 ) ;
#858 = CARTESIAN_POINT ( 'NONE',  ( -26.66346035225554445, 1.272362096394472704E-14, 0.000000000000000000 ) ) ;
#859 = ORIENTED_EDGE ( 'NONE', *, *, #603, .T. ) ;
#860 = PERSON_AND_ORGANIZATION ( #24, #839 ) ;
#861 = ORIENTED_EDGE ( 'NONE', *, *, #660, .F. ) ;
#862 = DIRECTION ( 'NONE',  ( 0.000000000000000000, 0.000000000000000000, -1.000000000000000000 ) ) ;
#863 = ORIENTED_EDGE ( 'NONE', *, *, #353, .T. ) ;
#864 = PERSON_AND_ORGANIZATION ( #24, #839 ) ;
#865 = ORIENTED_EDGE ( 'NONE', *, *, #286, .T. ) ;
#866 = CARTESIAN_POINT ( 'NONE',  ( -85.00000000000000000, 24.00000000000000711, 2.939152317953647106E-15 ) ) ;
#867 = EDGE_LOOP ( 'NONE', ( #938, #80, #237, #215 ) ) ;
#868 = CIRCLE ( 'NONE', #937, 25.49999999999999289 ) ;
#869 = CONICAL_SURFACE ( 'NONE', #412, 22.70096189432333844, 0.5235987755983042558 ) ;
#870 = AXIS2_PLACEMENT_3D ( 'NONE', #1064, #4, #666 ) ;
#871 = CIRCLE ( 'NONE', #584, 20.99999999999998934 ) ;
#872 = EDGE_CURVE ( 'NONE', #44, #620, #498, .T. ) ;
#873 = DIRECTION ( 'NONE',  ( -1.000000000000000000, 3.241712115390480395E-18, -0.000000000000000000 ) ) ;
#874 = CARTESIAN_POINT ( 'NONE',  ( 30.86923171819556799, 1.253711653902891648E-14, 0.000000000000000000 ) ) ;
#875 = ORIENTED_EDGE ( 'NONE', *, *, #587, .F. ) ;
#876 = EDGE_CURVE ( 'NONE', #505, #620, #766, .T. ) ;
#877 = FACE_OUTER_BOUND ( 'NONE', #457, .T. ) ;
#878 = DIRECTION ( 'NONE',  ( 0.000000000000000000, -1.000000000000000000, 0.000000000000000000 ) ) ;
#879 = DIRECTION ( 'NONE',  ( -1.000000000000000000, 3.241712115390480395E-18, 0.000000000000000000 ) ) ;
#880 = VERTEX_POINT ( 'NONE', #166 ) ;
#881 = FACE_OUTER_BOUND ( 'NONE', #831, .T. ) ;
#882 = FACE_OUTER_BOUND ( 'NONE', #184, .T. ) ;
#883 = CARTESIAN_POINT ( 'NONE',  ( -30.86923171819558220, 25.50000000000000355, 3.122849337825749433E-15 ) ) ;
#884 = AXIS2_PLACEMENT_3D ( 'NONE', #222, #234, #721 ) ;
#885 = VERTEX_POINT ( 'NONE', #145 ) ;
#886 = TOROIDAL_SURFACE ( 'NONE', #324, 22.50000000000000000, 1.500000000000000000 ) ;
#887 = DIRECTION ( 'NONE',  ( 0.000000000000000000, -1.000000000000000000, 1.224646799147353454E-16 ) ) ;
#888 = TOROIDAL_SURFACE ( 'NONE', #391, 20.99999999999999289, 3.000000000000000000 ) ;
#889 = LINE ( 'NONE', #64, #443 ) ;
#890 = FACE_OUTER_BOUND ( 'NONE', #964, .T. ) ;
#891 = ORIENTED_EDGE ( 'NONE', *, *, #57, .T. ) ;
#892 = ADVANCED_FACE ( 'NONE', ( #973 ), #729, .F. ) ;
#893 = CARTESIAN_POINT ( 'NONE',  ( -27.46730792954891953, -23.99999999999997868, 2.939152317953647106E-15 ) ) ;
#894 = CARTESIAN_POINT ( 'NONE',  ( -29.36923171819556444, 1.273239229576316986E-14, 0.000000000000000000 ) ) ;
#895 = DIRECTION ( 'NONE',  ( -1.000000000000000000, 0.000000000000000000, 0.000000000000000000 ) ) ;
#896 = ORIENTED_EDGE ( 'NONE', *, *, #284, .T. ) ;
#897 = CARTESIAN_POINT ( 'NONE',  ( -26.66346035225554445, -20.99999999999998224, 2.571758278209440872E-15 ) ) ;
#898 = EDGE_CURVE ( 'NONE', #880, #198, #905, .T. ) ;
#899 = DIRECTION ( 'NONE',  ( -1.000000000000000000, 3.241712115390480395E-18, -0.000000000000000000 ) ) ;
#900 = DIRECTION ( 'NONE',  ( -1.000000000000000000, 3.241712115390480395E-18, -0.000000000000000000 ) ) ;
#901 = ORIENTED_EDGE ( 'NONE', *, *, #648, .F. ) ;
#902 = AXIS2_PLACEMENT_3D ( 'NONE', #641, #978, #238 ) ;
#903 = ADVANCED_FACE ( 'NONE', ( #633 ), #821, .F. ) ;
#904 = AXIS2_PLACEMENT_3D ( 'NONE', #523, #690, #946 ) ;
#905 = CIRCLE ( 'NONE', #921, 20.99999999999998934 ) ;
#906 = CARTESIAN_POINT ( 'NONE',  ( -85.00000000000000000, -22.49999999999997868, 0.000000000000000000 ) ) ;
#907 = CARTESIAN_POINT ( 'NONE',  ( -85.00000000000000000, 21.00000000000000355, 2.571758278209440478E-15 ) ) ;
#908 = EDGE_LOOP ( 'NONE', ( #747, #625, #622, #200 ) ) ;
#909 = CARTESIAN_POINT ( 'NONE',  ( -28.61923171819555733, 21.60288568297004730, 0.000000000000000000 ) ) ;
#910 = DIRECTION ( 'NONE',  ( 0.8660254037844388186, -0.4999999999999996669, 6.123233995736762338E-17 ) ) ;
#911 = CARTESIAN_POINT ( 'NONE',  ( -27.46730792954891953, 24.00000000000000711, 0.000000000000000000 ) ) ;
#912 = ORIENTED_EDGE ( 'NONE', *, *, #495, .F. ) ;
#913 = DIRECTION ( 'NONE',  ( 1.000000000000000000, -3.241712115390480395E-18, 0.000000000000000000 ) ) ;
#914 = LINE ( 'NONE', #591, #151 ) ;
#915 = DIRECTION ( 'NONE',  ( 0.000000000000000000, 1.000000000000000000, 0.000000000000000000 ) ) ;
#916 = ORIENTED_EDGE ( 'NONE', *, *, #57, .F. ) ;
#917 = DIRECTION ( 'NONE',  ( -3.241712115390480395E-18, -1.000000000000000000, 0.000000000000000000 ) ) ;
#918 = AXIS2_PLACEMENT_3D ( 'NONE', #114, #279, #441 ) ;
#919 = CIRCLE ( 'NONE', #460, 1.500000000000001332 ) ;
#920 = AXIS2_PLACEMENT_3D ( 'NONE', #179, #349, #664 ) ;
#921 = AXIS2_PLACEMENT_3D ( 'NONE', #1033, #558, #303 ) ;
#922 = CARTESIAN_POINT ( 'NONE',  ( 30.11923171819556799, 1.253954782311545982E-14, 0.000000000000000000 ) ) ;
#923 = EDGE_CURVE ( 'NONE', #123, #728, #154, .T. ) ;
#924 = ORIENTED_EDGE ( 'NONE', *, *, #705, .T. ) ;
#925 = EDGE_CURVE ( 'NONE', #198, #880, #49, .T. ) ;
#926 = DIRECTION ( 'NONE',  ( 0.000000000000000000, -0.000000000000000000, -1.000000000000000000 ) ) ;
#927 = FACE_OUTER_BOUND ( 'NONE', #298, .T. ) ;
#928 = CYLINDRICAL_SURFACE ( 'NONE', #311, 25.49999999999999645 ) ;
#929 = CALENDAR_DATE ( 2026, 16, 9 ) ;
#930 = DIRECTION ( 'NONE',  ( 0.000000000000000000, 1.000000000000000000, 0.000000000000000000 ) ) ;
#931 = ORIENTED_EDGE ( 'NONE', *, *, #541, .T. ) ;
#932 = MECHANICAL_CONTEXT ( 'NONE', #547, 'mechanical' ) ;
#933 = EDGE_LOOP ( 'NONE', ( #840, #106 ) ) ;
#934 = AXIS2_PLACEMENT_3D ( 'NONE', #383, #959, #791 ) ;
#935 = DIRECTION ( 'NONE',  ( 3.969952365870146765E-34, 1.224646799147353207E-16, 1.000000000000000000 ) ) ;
#936 = VECTOR ( 'NONE', #125, 1000.000000000000000 ) ;
#937 = AXIS2_PLACEMENT_3D ( 'NONE', #1060, #182, #172 ) ;
#938 = ORIENTED_EDGE ( 'NONE', *, *, #730, .F. ) ;
#939 = DATE_AND_TIME ( #1026, #308 ) ;
#940 = APPROVAL ( #297, 'UNSPECIFIED' ) ;
#941 = CARTESIAN_POINT ( 'NONE',  ( -27.41346035225554445, -22.29903810567663669, 2.730844564018176601E-15 ) ) ;
#942 = EDGE_CURVE ( 'NONE', #817, #44, #652, .T. ) ;
#943 = ORIENTED_EDGE ( 'NONE', *, *, #624, .T. ) ;
#944 = PERSON_AND_ORGANIZATION_ROLE ( 'design_owner' ) ;
#945 = ORIENTED_EDGE ( 'NONE', *, *, #976, .F. ) ;
#946 = DIRECTION ( 'NONE',  ( 0.000000000000000000, -1.000000000000000000, 0.000000000000000000 ) ) ;
#947 = DIRECTION ( 'NONE',  ( 1.000000000000000000, -3.241712115390480395E-18, 0.000000000000000000 ) ) ;
#948 = ADVANCED_FACE ( 'NONE', ( #426 ), #802, .F. ) ;
#949 = APPROVAL_DATE_TIME ( #537, #68 ) ;
#950 = ORIENTED_EDGE ( 'NONE', *, *, #310, .F. ) ;
#951 = CARTESIAN_POINT ( 'NONE',  ( 30.86923171819556799, 24.00000000000000711, 2.939152317953647106E-15 ) ) ;
#952 = CIRCLE ( 'NONE', #496, 25.09807621135331246 ) ;
#953 = FACE_OUTER_BOUND ( 'NONE', #640, .T. ) ;
#954 = AXIS2_PLACEMENT_3D ( 'NONE', #1051, #157, #646 ) ;
#955 = EDGE_LOOP ( 'NONE', ( #366, #450, #552, #859 ) ) ;
#956 = CIRCLE ( 'NONE', #103, 25.49999999999999645 ) ;
#957 = DIRECTION ( 'NONE',  ( 3.241712115390480010E-18, 1.000000000000000000, 0.000000000000000000 ) ) ;
#958 = EDGE_CURVE ( 'NONE', #485, #1030, #445, .T. ) ;
#959 = DIRECTION ( 'NONE',  ( 1.000000000000000000, -3.241712115390480395E-18, 0.000000000000000000 ) ) ;
#960 = DIRECTION ( 'NONE',  ( 0.000000000000000000, 1.000000000000000000, 0.000000000000000000 ) ) ;
#961 = ORIENTED_EDGE ( 'NONE', *, *, #515, .T. ) ;
#962 = CYLINDRICAL_SURFACE ( 'NONE', #357, 22.49999999999999289 ) ;
#963 = DIRECTION ( 'NONE',  ( 0.000000000000000000, -1.000000000000000000, 0.000000000000000000 ) ) ;
#964 = EDGE_LOOP ( 'NONE', ( #165, #709 ) ) ;
#965 = DIRECTION ( 'NONE',  ( -1.000000000000000000, 3.241712115390480395E-18, -0.000000000000000000 ) ) ;
#966 = DIRECTION ( 'NONE',  ( 0.000000000000000000, -1.000000000000000000, -1.224646799147353454E-16 ) ) ;
#967 = EDGE_CURVE ( 'NONE', #716, #817, #686, .T. ) ;
#968 = CARTESIAN_POINT ( 'NONE',  ( 29.36923171819556799, 25.09807621135332667, 0.000000000000000000 ) ) ;
#969 = AXIS2_PLACEMENT_3D ( 'NONE', #468, #713, #731 ) ;
#970 = VERTEX_POINT ( 'NONE', #909 ) ;
#971 = AXIS2_PLACEMENT_3D ( 'NONE', #492, #630, #384 ) ;
#972 = CIRCLE ( 'NONE', #1057, 4.500000000000000888 ) ;
#973 = FACE_OUTER_BOUND ( 'NONE', #436, .T. ) ;
#974 = DIRECTION ( 'NONE',  ( -1.000000000000000000, 3.241712115390480395E-18, -0.000000000000000000 ) ) ;
#975 = CARTESIAN_POINT ( 'NONE',  ( -26.66346035225554445, 21.00000000000000711, 0.000000000000000000 ) ) ;
#976 = EDGE_CURVE ( 'NONE', #661, #999, #744, .T. ) ;
#977 = VERTEX_POINT ( 'NONE', #176 ) ;
#978 = DIRECTION ( 'NONE',  ( 1.000000000000000000, -3.241712115390480395E-18, 0.000000000000000000 ) ) ;
#979 = DIRECTION ( 'NONE',  ( -1.000000000000000000, 3.241712115390480395E-18, -0.000000000000000000 ) ) ;
#980 = VERTEX_POINT ( 'NONE', #604 ) ;
#981 = EDGE_CURVE ( 'NONE', #368, #617, #701, .T. ) ;
#982 = DIRECTION ( 'NONE',  ( -3.241712115390480395E-18, -1.000000000000000000, 0.000000000000000000 ) ) ;
#983 = DIRECTION ( 'NONE',  ( -1.000000000000000000, 3.241712115390480395E-18, -0.000000000000000000 ) ) ;
#984 = DIRECTION ( 'NONE',  ( 1.000000000000000000, -3.241712115390480395E-18, 0.000000000000000000 ) ) ;
#985 = ADVANCED_FACE ( 'NONE', ( #760 ), #213, .T. ) ;
#986 = EDGE_LOOP ( 'NONE', ( #371, #260, #759, #1022 ) ) ;
#987 = CARTESIAN_POINT ( 'NONE',  ( -26.66346035225554445, 1.272362096394472704E-14, 0.000000000000000000 ) ) ;
#988 = DIRECTION ( 'NONE',  ( -1.000000000000000000, 3.241712115390480395E-18, -0.000000000000000000 ) ) ;
#989 = AXIS2_PLACEMENT_3D ( 'NONE', #421, #739, #506 ) ;
#990 = FACE_OUTER_BOUND ( 'NONE', #455, .T. ) ;
#991 = VERTEX_POINT ( 'NONE', #681 ) ;
#992 = DIRECTION ( 'NONE',  ( -3.241712115390480395E-18, -1.000000000000000000, 0.000000000000000000 ) ) ;
#993 = CARTESIAN_POINT ( 'NONE',  ( -85.00000000000000000, 21.00000000000000355, 2.571758278209440478E-15 ) ) ;
#994 = FACE_OUTER_BOUND ( 'NONE', #509, .T. ) ;
#995 = ORIENTED_EDGE ( 'NONE', *, *, #484, .T. ) ;
#996 = CARTESIAN_POINT ( 'NONE',  ( 26.66346035225550182, 27.00000000000001066, 3.306546357697853339E-15 ) ) ;
#997 = EDGE_CURVE ( 'NONE', #1063, #661, #972, .T. ) ;
#998 = DIRECTION ( 'NONE',  ( 1.000000000000000000, -3.241712115390480395E-18, 0.000000000000000000 ) ) ;
#999 = VERTEX_POINT ( 'NONE', #87 ) ;
#1000 = DIRECTION ( 'NONE',  ( 0.000000000000000000, 1.000000000000000000, 0.000000000000000000 ) ) ;
#1001 = AXIS2_PLACEMENT_3D ( 'NONE', #550, #560, #305 ) ;
#1002 = TOROIDAL_SURFACE ( 'NONE', #283, 25.49999999999999289, 3.000000000000000000 ) ;
#1003 = CIRCLE ( 'NONE', #854, 1.500000000000001332 ) ;
#1004 = CARTESIAN_POINT ( 'NONE',  ( 26.66346035225550182, 1.255075043902044596E-14, 0.000000000000000000 ) ) ;
#1005 = APPROVAL_PERSON_ORGANIZATION ( #860, #940, #626 ) ;
#1006 = EDGE_LOOP ( 'NONE', ( #59, #733, #16, #194 ) ) ;
#1007 = CALENDAR_DATE ( 2026, 16, 9 ) ;
#1008 = LINE ( 'NONE', #866, #528 ) ;
#1009 = ORIENTED_EDGE ( 'NONE', *, *, #173, .F. ) ;
#1010 = APPROVAL_ROLE ( '' ) ;
#1011 = ORIENTED_EDGE ( 'NONE', *, *, #474, .F. ) ;
#1012 = ADVANCED_FACE ( 'NONE', ( #590 ), #361, .F. ) ;
#1013 = DIRECTION ( 'NONE',  ( 0.000000000000000000, 1.000000000000000000, 0.000000000000000000 ) ) ;
#1014 = ORIENTED_EDGE ( 'NONE', *, *, #542, .T. ) ;
#1015 = COORDINATED_UNIVERSAL_TIME_OFFSET ( 1, 0, .AHEAD. ) ;
#1016 = ORIENTED_EDGE ( 'NONE', *, *, #269, .T. ) ;
#1017 = CC_DESIGN_DATE_AND_TIME_ASSIGNMENT ( #132, #43, ( #335 ) ) ;
#1018 = DIRECTION ( 'NONE',  ( -1.000000000000000000, 3.241712115390480395E-18, -0.000000000000000000 ) ) ;
#1019 = AXIS2_PLACEMENT_3D ( 'NONE', #781, #531, #130 ) ;
#1020 = ORIENTED_EDGE ( 'NONE', *, *, #613, .F. ) ;
#1021 = PERSON_AND_ORGANIZATION_ROLE ( 'design_supplier' ) ;
#1022 = ORIENTED_EDGE ( 'NONE', *, *, #438, .T. ) ;
#1023 = CIRCLE ( 'NONE', #563, 4.500000000000000888 ) ;
#1024 = DIRECTION ( 'NONE',  ( 0.000000000000000000, -1.000000000000000000, 0.000000000000000000 ) ) ;
#1025 = VERTEX_POINT ( 'NONE', #596 ) ;
#1026 = CALENDAR_DATE ( 2026, 16, 9 ) ;
#1027 = ADVANCED_FACE ( 'NONE', ( #17 ), #869, .F. ) ;
#1028 = LINE ( 'NONE', #299, #117 ) ;
#1029 = ADVANCED_FACE ( 'NONE', ( #96 ), #265, .F. ) ;
#1030 = VERTEX_POINT ( 'NONE', #836 ) ;
#1031 = ADVANCED_FACE ( 'NONE', ( #181 ), #432, .F. ) ;
#1032 = VERTEX_POINT ( 'NONE', #437 ) ;
#1033 = CARTESIAN_POINT ( 'NONE',  ( -85.00000000000000000, 1.291273123129077766E-14, 0.000000000000000000 ) ) ;
#1034 = DIRECTION ( 'NONE',  ( -1.000000000000000000, 3.241712115390480395E-18, -0.000000000000000000 ) ) ;
#1035 = AXIS2_PLACEMENT_3D ( 'NONE', #487, #1043, #643 ) ;
#1036 = DIRECTION ( 'NONE',  ( 1.000000000000000000, -3.241712115390480395E-18, 0.000000000000000000 ) ) ;
#1037 = CC_DESIGN_PERSON_AND_ORGANIZATION_ASSIGNMENT ( #35, #533, ( #31 ) ) ;
#1038 = AXIS2_PLACEMENT_3D ( 'NONE', #830, #504, #915 ) ;
#1039 = ORIENTED_EDGE ( 'NONE', *, *, #54, .T. ) ;
#1040 = LOCAL_TIME ( 0, 4, 3.000000000000000000, #845 ) ;
#1041 = EDGE_CURVE ( 'NONE', #334, #40, #956, .T. ) ;
#1042 = CYLINDRICAL_SURFACE ( 'NONE', #670, 23.99999999999999289 ) ;
#1043 = DIRECTION ( 'NONE',  ( 1.000000000000000000, -3.241712115390480395E-18, 0.000000000000000000 ) ) ;
#1044 = CARTESIAN_POINT ( 'NONE',  ( 26.66346035225550182, 1.255075043902044596E-14, 0.000000000000000000 ) ) ;
#1045 = EDGE_CURVE ( 'NONE', #885, #40, #191, .T. ) ;
#1046 = ORIENTED_EDGE ( 'NONE', *, *, #704, .F. ) ;
#1047 = EDGE_CURVE ( 'NONE', #776, #381, #289, .T. ) ;
#1048 = FACE_OUTER_BOUND ( 'NONE', #1006, .T. ) ;
#1049 = CARTESIAN_POINT ( 'NONE',  ( 28.91346035225550537, 1.254345658676081912E-14, 0.000000000000000000 ) ) ;
#1050 = ORIENTED_EDGE ( 'NONE', *, *, #140, .T. ) ;
#1051 = CARTESIAN_POINT ( 'NONE',  ( 26.66346035225550182, 1.255075043902044596E-14, 0.000000000000000000 ) ) ;
#1052 = DIRECTION ( 'NONE',  ( -1.000000000000000000, 3.241712115390480395E-18, -0.000000000000000000 ) ) ;
#1053 = CARTESIAN_POINT ( 'NONE',  ( 85.00000000000000000, -23.99999999999997868, 0.000000000000000000 ) ) ;
#1054 = CIRCLE ( 'NONE', #851, 23.99999999999999289 ) ;
#1055 = ORIENTED_EDGE ( 'NONE', *, *, #155, .T. ) ;
#1056 = CIRCLE ( 'NONE', #580, 22.49999999999999289 ) ;
#1057 = AXIS2_PLACEMENT_3D ( 'NONE', #336, #254, #107 ) ;
#1058 = CARTESIAN_POINT ( 'NONE',  ( -30.86923171819558220, 1.273725486393625653E-14, 0.000000000000000000 ) ) ;
#1059 = CIRCLE ( 'NONE', #171, 22.49999999999999289 ) ;
#1060 = CARTESIAN_POINT ( 'NONE',  ( 85.00000000000000000, 1.236164017167439692E-14, 0.000000000000000000 ) ) ;
#1061 = EDGE_CURVE ( 'NONE', #1032, #489, #392, .T. ) ;
#1062 = DIRECTION ( 'NONE',  ( 1.000000000000000000, -3.241712115390480395E-18, 0.000000000000000000 ) ) ;
#1063 = VERTEX_POINT ( 'NONE', #832 ) ;
#1064 = CARTESIAN_POINT ( 'NONE',  ( -30.86923171819558220, -25.49999999999997868, 0.000000000000000000 ) ) ;
#1065 = DIRECTION ( 'NONE',  ( 0.000000000000000000, 1.000000000000000000, 0.000000000000000000 ) ) ;
ENDSEC;
END-ISO-10303-21;
