ISO-10303-21;
HEADER;
FILE_DESCRIPTION (( 'STEP AP203' ),
    '1' );
FILE_NAME ('79-8548 - Stegmuff. 76-70-63.5.STEP',
    '2026-09-15T22:04:07',
    ( '' ),
    ( '' ),
    'SwSTEP 2.0',
    'SolidWorks 2026',
    '' );
FILE_SCHEMA (( 'CONFIG_CONTROL_DESIGN' ));
ENDSEC;

DATA;
#1 = EDGE_CURVE ( 'NONE', #89, #632, #202, .T. ) ;
#2 = DIRECTION ( 'NONE',  ( -1.000000000000000000, -1.836970198721283356E-16, -0.000000000000000000 ) ) ;
#3 = CARTESIAN_POINT ( 'NONE',  ( 33.78151847792410933, -37.99999999999995026, 0.000000000000000000 ) ) ;
#4 = ORIENTED_EDGE ( 'NONE', *, *, #73, .T. ) ;
#5 = DIRECTION ( 'NONE',  ( 2.249639673993097051E-32, -1.224646799147353207E-16, 1.000000000000000000 ) ) ;
#6 = ORIENTED_EDGE ( 'NONE', *, *, #220, .T. ) ;
#7 = CIRCLE ( 'NONE', #627, 37.99999999999997158 ) ;
#8 = CARTESIAN_POINT ( 'NONE',  ( 33.19177251576849130, 2.198702191435938826E-14, 0.000000000000000000 ) ) ;
#9 = TOROIDAL_SURFACE ( 'NONE', #105, 32.99999999999997158, 5.000000000000000000 ) ;
#10 = AXIS2_PLACEMENT_3D ( 'NONE', #553, #71, #223 ) ;
#11 = ORIENTED_EDGE ( 'NONE', *, *, #328, .T. ) ;
#12 = EDGE_CURVE ( 'NONE', #912, #56, #130, .T. ) ;
#13 = CIRCLE ( 'NONE', #157, 31.75000000000000000 ) ;
#14 = AXIS2_PLACEMENT_3D ( 'NONE', #250, #18, #737 ) ;
#15 = DIRECTION ( 'NONE',  ( 1.836970198721283602E-16, -1.000000000000000000, 0.000000000000000000 ) ) ;
#16 = ORIENTED_EDGE ( 'NONE', *, *, #12, .T. ) ;
#17 = AXIS2_PLACEMENT_3D ( 'NONE', #780, #262, #197 ) ;
#18 = DIRECTION ( 'NONE',  ( 1.000000000000000000, 1.836970198721283356E-16, 0.000000000000000000 ) ) ;
#19 = EDGE_CURVE ( 'NONE', #897, #1064, #146, .T. ) ;
#20 = EDGE_CURVE ( 'NONE', #63, #89, #335, .T. ) ;
#21 = DIRECTION ( 'NONE',  ( -1.000000000000000000, -1.836970198721283356E-16, -0.000000000000000000 ) ) ;
#22 = ORIENTED_EDGE ( 'NONE', *, *, #807, .F. ) ;
#23 = DIRECTION ( 'NONE',  ( 0.000000000000000000, -1.000000000000000000, 0.000000000000000000 ) ) ;
#24 = CARTESIAN_POINT ( 'NONE',  ( -86.50000000000000000, -34.99999999999999289, 0.000000000000000000 ) ) ;
#25 = DIRECTION ( 'NONE',  ( -2.100716062413769727E-16, 1.000000000000000000, 0.000000000000000000 ) ) ;
#26 = APPROVAL_PERSON_ORGANIZATION ( #295, #663, #448 ) ;
#27 = CIRCLE ( 'NONE', #169, 35.66987298107778770 ) ;
#28 = DIRECTION ( 'NONE',  ( 1.000000000000000000, 1.836970198721283356E-16, 0.000000000000000000 ) ) ;
#29 = DIRECTION ( 'NONE',  ( -1.000000000000000000, -1.836970198721283356E-16, -0.000000000000000000 ) ) ;
#30 = CIRCLE ( 'NONE', #336, 4.999999999999997335 ) ;
#31 = ORIENTED_EDGE ( 'NONE', *, *, #589, .F. ) ;
#32 = AXIS2_PLACEMENT_3D ( 'NONE', #242, #2, #673 ) ;
#33 = CIRCLE ( 'NONE', #943, 34.99999999999999289 ) ;
#34 = EDGE_CURVE ( 'NONE', #883, #819, #138, .T. ) ;
#35 = DIRECTION ( 'NONE',  ( -1.836970198721283356E-16, 1.000000000000000000, 0.000000000000000000 ) ) ;
#36 = FACE_OUTER_BOUND ( 'NONE', #182, .T. ) ;
#37 = PERSON_AND_ORGANIZATION_ROLE ( 'design_owner' ) ;
#38 = CARTESIAN_POINT ( 'NONE',  ( -86.50000000000000000, 31.75000000000000000, 3.888253587292846476E-15 ) ) ;
#39 = DIRECTION ( 'NONE',  ( -2.249639673993097051E-32, 1.224646799147353207E-16, 1.000000000000000000 ) ) ;
#40 = DIRECTION ( 'NONE',  ( -1.000000000000000000, 0.000000000000000000, 0.000000000000000000 ) ) ;
#41 = DIRECTION ( 'NONE',  ( 1.000000000000000000, 1.836970198721283356E-16, 0.000000000000000000 ) ) ;
#42 = APPROVAL_STATUS ( 'not_yet_approved' ) ;
#43 = DIRECTION ( 'NONE',  ( -1.000000000000000000, -1.836970198721283356E-16, -0.000000000000000000 ) ) ;
#44 = LINE ( 'NONE', #946, #400 ) ;
#45 = CARTESIAN_POINT ( 'NONE',  ( 31.28151847792410578, 37.33012701892219809, 0.000000000000000000 ) ) ;
#46 = AXIS2_PLACEMENT_3D ( 'NONE', #445, #39, #852 ) ;
#47 = CARTESIAN_POINT ( 'NONE',  ( -27.22286142901399941, -33.03108891324551877, 4.045141730995776536E-15 ) ) ;
#48 = EDGE_CURVE ( 'NONE', #875, #640, #259, .T. ) ;
#49 = AXIS2_PLACEMENT_3D ( 'NONE', #661, #678, #482 ) ;
#50 = APPLICATION_CONTEXT ( 'configuration controlled 3d designs of mechanical parts and assemblies' ) ;
#51 = DATE_AND_TIME ( #132, #662 ) ;
#52 = AXIS2_PLACEMENT_3D ( 'NONE', #489, #903, #676 ) ;
#53 = DIRECTION ( 'NONE',  ( 1.000000000000000000, 1.836970198721283356E-16, 0.000000000000000000 ) ) ;
#54 = AXIS2_PLACEMENT_3D ( 'NONE', #480, #240, #83 ) ;
#55 = CARTESIAN_POINT ( 'NONE',  ( -25.47286142901401718, 1.121050348681354113E-14, 0.000000000000000000 ) ) ;
#56 = VERTEX_POINT ( 'NONE', #463 ) ;
#57 = ADVANCED_FACE ( 'NONE', ( #621 ), #536, .T. ) ;
#58 = VERTEX_POINT ( 'NONE', #285 ) ;
#59 = ADVANCED_FACE ( 'NONE', ( #62 ), #171, .F. ) ;
#60 = COORDINATED_UNIVERSAL_TIME_OFFSET ( 1, 0, .AHEAD. ) ;
#61 = DIRECTION ( 'NONE',  ( 0.000000000000000000, 0.000000000000000000, -1.000000000000000000 ) ) ;
#62 = FACE_OUTER_BOUND ( 'NONE', #981, .T. ) ;
#63 = VERTEX_POINT ( 'NONE', #716 ) ;
#64 = VERTEX_POINT ( 'NONE', #947 ) ;
#65 = CARTESIAN_POINT ( 'NONE',  ( 25.90587413090625191, 2.064862409396903917E-14, 0.000000000000000000 ) ) ;
#66 = CARTESIAN_POINT ( 'NONE',  ( -86.50000000000000000, 34.99999999999999289, 4.286263797015734919E-15 ) ) ;
#67 = ORIENTED_EDGE ( 'NONE', *, *, #34, .F. ) ;
#68 = DATE_TIME_ROLE ( 'classification_date' ) ;
#69 = AXIS2_PLACEMENT_3D ( 'NONE', #706, #96, #858 ) ;
#70 = ORIENTED_EDGE ( 'NONE', *, *, #1039, .T. ) ;
#71 = DIRECTION ( 'NONE',  ( -1.000000000000000000, -1.836970198721283356E-16, -0.000000000000000000 ) ) ;
#72 = DIRECTION ( 'NONE',  ( 1.000000000000000000, 1.836970198721283356E-16, 0.000000000000000000 ) ) ;
#73 = EDGE_CURVE ( 'NONE', #308, #235, #275, .T. ) ;
#74 = VECTOR ( 'NONE', #346, 1000.000000000000000 ) ;
#75 = VERTEX_POINT ( 'NONE', #634 ) ;
#76 = ORIENTED_EDGE ( 'NONE', *, *, #19, .T. ) ;
#77 = DIRECTION ( 'NONE',  ( -2.058960193974769445E-16, 1.000000000000000000, 0.000000000000000000 ) ) ;
#78 = CC_DESIGN_PERSON_AND_ORGANIZATION_ASSIGNMENT ( #373, #702, ( #273 ) ) ;
#79 = EDGE_CURVE ( 'NONE', #418, #728, #750, .T. ) ;
#80 = ORIENTED_EDGE ( 'NONE', *, *, #328, .F. ) ;
#81 = DIRECTION ( 'NONE',  ( -2.249639673993097051E-32, 1.224646799147353207E-16, 1.000000000000000000 ) ) ;
#82 = CC_DESIGN_APPROVAL ( #663, ( #273 ) ) ;
#83 = DIRECTION ( 'NONE',  ( -1.000000000000000000, 0.000000000000000000, 0.000000000000000000 ) ) ;
#84 = ORIENTED_EDGE ( 'NONE', *, *, #300, .F. ) ;
#85 = CIRCLE ( 'NONE', #836, 37.33012701892216967 ) ;
#86 = DIRECTION ( 'NONE',  ( 2.249639673993097051E-32, -1.224646799147353207E-16, 1.000000000000000000 ) ) ;
#87 = VECTOR ( 'NONE', #864, 1000.000000000000227 ) ;
#88 = AXIS2_PLACEMENT_3D ( 'NONE', #525, #128, #187 ) ;
#89 = VERTEX_POINT ( 'NONE', #446 ) ;
#90 = ADVANCED_FACE ( 'NONE', ( #965 ), #550, .F. ) ;
#91 = PERSON_AND_ORGANIZATION_ROLE ( 'classification_officer' ) ;
#92 = DIRECTION ( 'NONE',  ( 0.8660254037844387076, -0.4999999999999998335, 6.123233995736766036E-17 ) ) ;
#93 = ORIENTED_EDGE ( 'NONE', *, *, #352, .F. ) ;
#94 = CARTESIAN_POINT ( 'NONE',  ( -26.81260739116963521, 1.096439614617983728E-14, 0.000000000000000000 ) ) ;
#95 = EDGE_CURVE ( 'NONE', #147, #308, #371, .T. ) ;
#96 = DIRECTION ( 'NONE',  ( -1.000000000000000000, -1.836970198721283356E-16, -0.000000000000000000 ) ) ;
#97 = ORIENTED_EDGE ( 'NONE', *, *, #811, .T. ) ;
#98 = CARTESIAN_POINT ( 'NONE',  ( -86.50000000000000000, 0.000000000000000000, 0.000000000000000000 ) ) ;
#99 = VERTEX_POINT ( 'NONE', #45 ) ;
#100 = EDGE_CURVE ( 'NONE', #657, #640, #698, .T. ) ;
#101 = CARTESIAN_POINT ( 'NONE',  ( 33.78151847792411644, 2.209535649008899614E-14, 0.000000000000000000 ) ) ;
#102 = ORIENTED_EDGE ( 'NONE', *, *, #277, .F. ) ;
#103 = AXIS2_PLACEMENT_3D ( 'NONE', #601, #979, #932 ) ;
#104 = CARTESIAN_POINT ( 'NONE',  ( -27.97286142901401362, 34.33012701892220520, 0.000000000000000000 ) ) ;
#105 = AXIS2_PLACEMENT_3D ( 'NONE', #1057, #983, #435 ) ;
#106 = EDGE_CURVE ( 'NONE', #89, #63, #717, .T. ) ;
#107 = AXIS2_PLACEMENT_3D ( 'NONE', #585, #86, #916 ) ;
#108 = DIRECTION ( 'NONE',  ( 0.000000000000000000, -1.000000000000000000, -1.224646799147352961E-16 ) ) ;
#109 = VERTEX_POINT ( 'NONE', #205 ) ;
#110 = DIRECTION ( 'NONE',  ( 0.8660254037844384856, 0.5000000000000001110, 0.000000000000000000 ) ) ;
#111 = FACE_OUTER_BOUND ( 'NONE', #210, .T. ) ;
#112 = ADVANCED_FACE ( 'NONE', ( #516 ), #686, .F. ) ;
#113 = ORIENTED_EDGE ( 'NONE', *, *, #378, .T. ) ;
#114 = CARTESIAN_POINT ( 'NONE',  ( -25.47286142901401718, 1.121050348681354113E-14, 0.000000000000000000 ) ) ;
#115 = EDGE_CURVE ( 'NONE', #56, #287, #387, .T. ) ;
#116 = DIRECTION ( 'NONE',  ( -1.000000000000000000, -1.836970198721283356E-16, -0.000000000000000000 ) ) ;
#117 = AXIS2_PLACEMENT_3D ( 'NONE', #531, #442, #1017 ) ;
#118 = LINE ( 'NONE', #942, #471 ) ;
#119 = FACE_OUTER_BOUND ( 'NONE', #208, .T. ) ;
#120 = CARTESIAN_POINT ( 'NONE',  ( -30.53151847792408446, 1.028124326237362725E-14, 0.000000000000000000 ) ) ;
#121 = CC_DESIGN_SECURITY_CLASSIFICATION ( #512, ( #273 ) ) ;
#122 = FACE_OUTER_BOUND ( 'NONE', #672, .T. ) ;
#123 = EDGE_CURVE ( 'NONE', #63, #548, #118, .T. ) ;
#124 = CIRCLE ( 'NONE', #14, 31.12083487540114746 ) ;
#125 = MECHANICAL_CONTEXT ( 'NONE', #50, 'mechanical' ) ;
#126 = AXIS2_PLACEMENT_3D ( 'NONE', #757, #986, #174 ) ;
#127 = FACE_OUTER_BOUND ( 'NONE', #893, .T. ) ;
#128 = DIRECTION ( 'NONE',  ( -1.000000000000000000, -1.836970198721283356E-16, -0.000000000000000000 ) ) ;
#129 = DIRECTION ( 'NONE',  ( -1.836970198721283356E-16, 1.000000000000000000, 0.000000000000000000 ) ) ;
#130 = LINE ( 'NONE', #801, #818 ) ;
#131 = CARTESIAN_POINT ( 'NONE',  ( -25.47286142901401718, 1.121050348681354113E-14, 0.000000000000000000 ) ) ;
#132 = CALENDAR_DATE ( 2026, 16, 9 ) ;
#133 = DIRECTION ( 'NONE',  ( 2.021225817219559527E-16, -1.000000000000000000, 0.000000000000000000 ) ) ;
#134 = CARTESIAN_POINT ( 'NONE',  ( 86.50000000000000000, 3.177958443787820119E-14, 0.000000000000000000 ) ) ;
#135 = AXIS2_PLACEMENT_3D ( 'NONE', #611, #517, #1008 ) ;
#136 = ORIENTED_EDGE ( 'NONE', *, *, #900, .T. ) ;
#137 = AXIS2_PLACEMENT_3D ( 'NONE', #738, #1063, #655 ) ;
#138 = CIRCLE ( 'NONE', #402, 37.99999999999996447 ) ;
#139 = AXIS2_PLACEMENT_3D ( 'NONE', #406, #429, #989 ) ;
#140 = ORIENTED_EDGE ( 'NONE', *, *, #230, .F. ) ;
#141 = VERTEX_POINT ( 'NONE', #1013 ) ;
#142 = EDGE_CURVE ( 'NONE', #418, #147, #453, .T. ) ;
#143 = ORIENTED_EDGE ( 'NONE', *, *, #79, .F. ) ;
#144 = CARTESIAN_POINT ( 'NONE',  ( -26.81260739116962810, -34.99999999999997868, 4.286263797015734919E-15 ) ) ;
#145 = DIRECTION ( 'NONE',  ( 1.000000000000000000, 1.836970198721283356E-16, 0.000000000000000000 ) ) ;
#146 = LINE ( 'NONE', #66, #595 ) ;
#147 = VERTEX_POINT ( 'NONE', #458 ) ;
#148 = DATE_AND_TIME ( #888, #889 ) ;
#149 = ORIENTED_EDGE ( 'NONE', *, *, #272, .F. ) ;
#150 = ADVANCED_FACE ( 'NONE', ( #602 ), #680, .F. ) ;
#151 = DIRECTION ( 'NONE',  ( -1.982541115402065603E-16, 1.000000000000000000, 0.000000000000000000 ) ) ;
#152 = CARTESIAN_POINT ( 'NONE',  ( -86.50000000000000000, 0.000000000000000000, 0.000000000000000000 ) ) ;
#153 = ORIENTED_EDGE ( 'NONE', *, *, #1026, .F. ) ;
#154 = APPROVAL_DATE_TIME ( #148, #575 ) ;
#155 = CONICAL_SURFACE ( 'NONE', #1016, 34.99999999999999289, 0.5235987755982989267 ) ;
#156 = DIRECTION ( 'NONE',  ( 0.000000000000000000, -1.000000000000000000, 1.224646799147354193E-16 ) ) ;
#157 = AXIS2_PLACEMENT_3D ( 'NONE', #390, #959, #625 ) ;
#158 = AXIS2_PLACEMENT_3D ( 'NONE', #645, #973, #896 ) ;
#159 = VERTEX_POINT ( 'NONE', #776 ) ;
#160 = ORIENTED_EDGE ( 'NONE', *, *, #142, .F. ) ;
#161 = DIRECTION ( 'NONE',  ( -1.000000000000000000, 0.000000000000000000, 0.000000000000000000 ) ) ;
#162 = EDGE_CURVE ( 'NONE', #632, #548, #597, .T. ) ;
#163 = ORIENTED_EDGE ( 'NONE', *, *, #876, .T. ) ;
#164 = SECURITY_CLASSIFICATION_LEVEL ( 'unclassified' ) ;
#165 = CARTESIAN_POINT ( 'NONE',  ( -27.22286142901400652, 1.088903370203731877E-14, 0.000000000000000000 ) ) ;
#166 = EDGE_LOOP ( 'NONE', ( #226, #868, #907, #188 ) ) ;
#167 = CARTESIAN_POINT ( 'NONE',  ( 33.78151847792411644, -32.99999999999995026, 4.041334437186262256E-15 ) ) ;
#168 = ORIENTED_EDGE ( 'NONE', *, *, #537, .F. ) ;
#169 = AXIS2_PLACEMENT_3D ( 'NONE', #534, #28, #311 ) ;
#170 = DIRECTION ( 'NONE',  ( 1.000000000000000000, 1.836970198721283356E-16, 0.000000000000000000 ) ) ;
#171 = CONICAL_SURFACE ( 'NONE', #679, 33.70096189432333489, 0.5235987755982989267 ) ;
#172 = CARTESIAN_POINT ( 'NONE',  ( 25.90587413090624480, 33.50000000000000711, 4.102566777143632985E-15 ) ) ;
#173 = CIRCLE ( 'NONE', #299, 37.99999999999997158 ) ;
#174 = DIRECTION ( 'NONE',  ( 1.836970198721283356E-16, -1.000000000000000000, 0.000000000000000000 ) ) ;
#175 = ORIENTED_EDGE ( 'NONE', *, *, #568, .F. ) ;
#176 = ADVANCED_FACE ( 'NONE', ( #218 ), #713, .T. ) ;
#177 = DIRECTION ( 'NONE',  ( -1.890657232332783473E-16, 1.000000000000000000, 0.000000000000000000 ) ) ;
#178 = ORIENTED_EDGE ( 'NONE', *, *, #876, .F. ) ;
#179 = ORIENTED_EDGE ( 'NONE', *, *, #636, .F. ) ;
#180 = CARTESIAN_POINT ( 'NONE',  ( 25.90587413090625901, -33.49999999999996447, 0.000000000000000000 ) ) ;
#181 = EDGE_CURVE ( 'NONE', #375, #159, #224, .T. ) ;
#182 = EDGE_LOOP ( 'NONE', ( #629, #1032, #993, #827 ) ) ;
#183 = PLANE ( 'NONE',  #126 ) ;
#184 = ORIENTED_EDGE ( 'NONE', *, *, #236, .T. ) ;
#185 = CARTESIAN_POINT ( 'NONE',  ( -33.78151847792409512, 31.75000000000000711, 3.888253587292847265E-15 ) ) ;
#186 = CIRCLE ( 'NONE', #974, 33.03108891324553298 ) ;
#187 = DIRECTION ( 'NONE',  ( 0.000000000000000000, -1.000000000000000000, 0.000000000000000000 ) ) ;
#188 = ORIENTED_EDGE ( 'NONE', *, *, #100, .F. ) ;
#189 = CARTESIAN_POINT ( 'NONE',  ( 25.90587413090625901, -39.99999999999996447, 0.000000000000000000 ) ) ;
#190 = DIRECTION ( 'NONE',  ( -1.000000000000000000, -1.836970198721283356E-16, -0.000000000000000000 ) ) ;
#191 = EDGE_CURVE ( 'NONE', #487, #719, #229, .T. ) ;
#192 = DIRECTION ( 'NONE',  ( 0.000000000000000000, -1.000000000000000000, 0.000000000000000000 ) ) ;
#193 = FACE_OUTER_BOUND ( 'NONE', #957, .T. ) ;
#194 = ORIENTED_EDGE ( 'NONE', *, *, #277, .T. ) ;
#195 = FACE_OUTER_BOUND ( 'NONE', #574, .T. ) ;
#196 = CARTESIAN_POINT ( 'NONE',  ( 25.90587413090625191, 2.064862409396903917E-14, 0.000000000000000000 ) ) ;
#197 = DIRECTION ( 'NONE',  ( 0.000000000000000000, -1.000000000000000000, 0.000000000000000000 ) ) ;
#198 = EDGE_CURVE ( 'NONE', #109, #99, #891, .T. ) ;
#199 = CARTESIAN_POINT ( 'NONE',  ( 86.49999999999998579, 38.00000000000000000, 4.653657836759939574E-15 ) ) ;
#200 = CARTESIAN_POINT ( 'NONE',  ( 31.28151847792411289, 2.163611394040867307E-14, 0.000000000000000000 ) ) ;
#201 = EDGE_CURVE ( 'NONE', #58, #235, #379, .T. ) ;
#202 = LINE ( 'NONE', #873, #922 ) ;
#203 = ORIENTED_EDGE ( 'NONE', *, *, #573, .T. ) ;
#204 =( NAMED_UNIT ( * ) PLANE_ANGLE_UNIT ( ) SI_UNIT ( $, .RADIAN. ) );
#205 = CARTESIAN_POINT ( 'NONE',  ( 28.40587413090625191, 35.66987298107780902, 0.000000000000000000 ) ) ;
#206 = DIRECTION ( 'NONE',  ( 3.652049423109070785E-16, -1.000000000000000000, 0.000000000000000000 ) ) ;
#207 = AXIS2_PLACEMENT_3D ( 'NONE', #283, #763, #620 ) ;
#208 = EDGE_LOOP ( 'NONE', ( #996, #730, #508, #887 ) ) ;
#209 = CALENDAR_DATE ( 2026, 16, 9 ) ;
#210 = EDGE_LOOP ( 'NONE', ( #583, #76, #815, #558 ) ) ;
#211 = AXIS2_PLACEMENT_3D ( 'NONE', #94, #420, #341 ) ;
#212 = DIRECTION ( 'NONE',  ( 1.901066822988283183E-16, -1.000000000000000000, 0.000000000000000000 ) ) ;
#213 = CIRCLE ( 'NONE', #683, 3.500000000000003109 ) ;
#214 = DIRECTION ( 'NONE',  ( 1.000000000000000000, 1.836970198721283356E-16, 0.000000000000000000 ) ) ;
#215 = EDGE_LOOP ( 'NONE', ( #803, #6, #332, #421 ) ) ;
#216 = APPROVAL_DATE_TIME ( #863, #834 ) ;
#217 = ORIENTED_EDGE ( 'NONE', *, *, #980, .F. ) ;
#218 = FACE_OUTER_BOUND ( 'NONE', #624, .T. ) ;
#219 = EDGE_LOOP ( 'NONE', ( #340, #464, #830, #11 ) ) ;
#220 = EDGE_CURVE ( 'NONE', #736, #967, #276, .T. ) ;
#221 = EDGE_LOOP ( 'NONE', ( #67, #241 ) ) ;
#222 = ORIENTED_EDGE ( 'NONE', *, *, #414, .T. ) ;
#223 = DIRECTION ( 'NONE',  ( 0.000000000000000000, -1.000000000000000000, 0.000000000000000000 ) ) ;
#224 = LINE ( 'NONE', #879, #260 ) ;
#225 = CYLINDRICAL_SURFACE ( 'NONE', #227, 37.99999999999997158 ) ;
#226 = ORIENTED_EDGE ( 'NONE', *, *, #882, .F. ) ;
#227 = AXIS2_PLACEMENT_3D ( 'NONE', #792, #290, #544 ) ;
#228 = ORIENTED_EDGE ( 'NONE', *, *, #1010, .T. ) ;
#229 = LINE ( 'NONE', #731, #752 ) ;
#230 = EDGE_CURVE ( 'NONE', #640, #875, #960, .T. ) ;
#231 = AXIS2_PLACEMENT_3D ( 'NONE', #650, #310, #1046 ) ;
#232 = TOROIDAL_SURFACE ( 'NONE', #506, 39.99999999999998579, 5.000000000000000000 ) ;
#233 = EDGE_LOOP ( 'NONE', ( #563, #502, #1024, #84 ) ) ;
#234 = CARTESIAN_POINT ( 'NONE',  ( 86.50000000000000000, 3.177958443787820119E-14, 0.000000000000000000 ) ) ;
#235 = VERTEX_POINT ( 'NONE', #288 ) ;
#236 = EDGE_CURVE ( 'NONE', #622, #381, #734, .T. ) ;
#237 = EDGE_CURVE ( 'NONE', #1064, #890, #718, .T. ) ;
#238 = EDGE_CURVE ( 'NONE', #657, #376, #559, .T. ) ;
#239 = ORIENTED_EDGE ( 'NONE', *, *, #201, .T. ) ;
#240 = DIRECTION ( 'NONE',  ( 0.000000000000000000, 0.000000000000000000, -1.000000000000000000 ) ) ;
#241 = ORIENTED_EDGE ( 'NONE', *, *, #533, .F. ) ;
#242 = CARTESIAN_POINT ( 'NONE',  ( 32.03151847792410933, 2.177388670531277220E-14, 0.000000000000000000 ) ) ;
#243 = EDGE_LOOP ( 'NONE', ( #343, #948, #179, #380 ) ) ;
#244 = ORIENTED_EDGE ( 'NONE', *, *, #48, .F. ) ;
#245 = AXIS2_PLACEMENT_3D ( 'NONE', #444, #370, #433 ) ;
#246 = DIRECTION ( 'NONE',  ( -1.836970198721283356E-16, 1.000000000000000000, 0.000000000000000000 ) ) ;
#247 = AXIS2_PLACEMENT_3D ( 'NONE', #481, #72, #151 ) ;
#248 = AXIS2_PLACEMENT_3D ( 'NONE', #200, #854, #255 ) ;
#249 = EDGE_LOOP ( 'NONE', ( #140, #244 ) ) ;
#250 = CARTESIAN_POINT ( 'NONE',  ( -30.53151847792408446, 1.028124326237362725E-14, 0.000000000000000000 ) ) ;
#251 = ORIENTED_EDGE ( 'NONE', *, *, #484, .F. ) ;
#252 = ORIENTED_EDGE ( 'NONE', *, *, #980, .T. ) ;
#253 = CARTESIAN_POINT ( 'NONE',  ( -26.06260739116963876, 33.70096189432334910, 0.000000000000000000 ) ) ;
#254 = MANIFOLD_SOLID_BREP ( 'Shell1', #424 ) ;
#255 = DIRECTION ( 'NONE',  ( 1.858791935101102310E-16, -1.000000000000000000, 0.000000000000000000 ) ) ;
#256 = ORIENTED_EDGE ( 'NONE', *, *, #106, .T. ) ;
#257 = DIRECTION ( 'NONE',  ( -1.826024711554534899E-16, 1.000000000000000000, 0.000000000000000000 ) ) ;
#258 = AXIS2_PLACEMENT_3D ( 'NONE', #1015, #1007, #935 ) ;
#259 = CIRCLE ( 'NONE', #1002, 30.25000000000000000 ) ;
#260 = VECTOR ( 'NONE', #556, 1000.000000000000000 ) ;
#261 = VECTOR ( 'NONE', #110, 1000.000000000000227 ) ;
#262 = DIRECTION ( 'NONE',  ( -1.000000000000000000, -1.836970198721283356E-16, -0.000000000000000000 ) ) ;
#263 = DIRECTION ( 'NONE',  ( 1.836970198721283602E-16, -1.000000000000000000, 0.000000000000000000 ) ) ;
#264 = ADVANCED_FACE ( 'NONE', ( #399 ), #315, .F. ) ;
#265 = EDGE_CURVE ( 'NONE', #329, #912, #354, .T. ) ;
#266 = EDGE_CURVE ( 'NONE', #728, #58, #30, .T. ) ;
#267 = DIRECTION ( 'NONE',  ( -1.000000000000000000, -1.836970198721283356E-16, -0.000000000000000000 ) ) ;
#268 = CARTESIAN_POINT ( 'NONE',  ( 86.50000000000001421, -37.99999999999992895, 0.000000000000000000 ) ) ;
#269 = DIRECTION ( 'NONE',  ( 0.000000000000000000, -1.000000000000000000, -1.224646799147352961E-16 ) ) ;
#270 = DIRECTION ( 'NONE',  ( -2.018831933836243556E-16, 1.000000000000000000, 0.000000000000000000 ) ) ;
#271 = CYLINDRICAL_SURFACE ( 'NONE', #842, 37.99999999999997158 ) ;
#272 = EDGE_CURVE ( 'NONE', #728, #418, #13, .T. ) ;
#273 = PRODUCT_DEFINITION_FORMATION_WITH_SPECIFIED_SOURCE ( 'ANY', '', #971, .NOT_KNOWN. ) ;
#274 = DIRECTION ( 'NONE',  ( -1.836970198721283356E-16, 1.000000000000000000, 0.000000000000000000 ) ) ;
#275 = CIRCLE ( 'NONE', #940, 34.33012701892219098 ) ;
#276 = CIRCLE ( 'NONE', #667, 4.999999999999997335 ) ;
#277 = EDGE_CURVE ( 'NONE', #719, #159, #926, .T. ) ;
#278 = CARTESIAN_POINT ( 'NONE',  ( -33.78151847792409512, 36.75000000000000711, 4.500576986866523006E-15 ) ) ;
#279 = CARTESIAN_POINT ( 'NONE',  ( -86.50000000000000000, -30.25000000000000000, 0.000000000000000000 ) ) ;
#280 = EDGE_LOOP ( 'NONE', ( #372, #538, #707, #168 ) ) ;
#281 = PERSON_AND_ORGANIZATION ( #773, #347 ) ;
#282 = EDGE_CURVE ( 'NONE', #99, #469, #355, .T. ) ;
#283 = CARTESIAN_POINT ( 'NONE',  ( -86.50000000000000000, 0.000000000000000000, 0.000000000000000000 ) ) ;
#284 = DIRECTION ( 'NONE',  ( -1.000000000000000000, -1.836970198721283356E-16, -0.000000000000000000 ) ) ;
#285 = CARTESIAN_POINT ( 'NONE',  ( -31.28151847792407736, -32.41987298107780191, 4.087258692154291881E-15 ) ) ;
#286 = ORIENTED_EDGE ( 'NONE', *, *, #181, .T. ) ;
#287 = VERTEX_POINT ( 'NONE', #306 ) ;
#288 = CARTESIAN_POINT ( 'NONE',  ( -27.97286142901399941, -34.33012701892217677, 4.204228016804512660E-15 ) ) ;
#289 = ADVANCED_FACE ( 'NONE', ( #638 ), #598, .F. ) ;
#290 = DIRECTION ( 'NONE',  ( -1.000000000000000000, -1.836970198721283356E-16, -0.000000000000000000 ) ) ;
#291 = DIRECTION ( 'NONE',  ( -1.000000000000000000, -1.836970198721283356E-16, -0.000000000000000000 ) ) ;
#292 = TOROIDAL_SURFACE ( 'NONE', #905, 39.99999999999998579, 6.500000000000000888 ) ;
#293 = ORIENTED_EDGE ( 'NONE', *, *, #220, .F. ) ;
#294 = AXIS2_PLACEMENT_3D ( 'NONE', #189, #514, #685 ) ;
#295 = PERSON_AND_ORGANIZATION ( #773, #347 ) ;
#296 = ORIENTED_EDGE ( 'NONE', *, *, #349, .F. ) ;
#297 = CIRCLE ( 'NONE', #910, 3.499999999999999556 ) ;
#298 = DIRECTION ( 'NONE',  ( 1.000000000000000000, 1.836970198721283356E-16, 0.000000000000000000 ) ) ;
#299 = AXIS2_PLACEMENT_3D ( 'NONE', #998, #774, #432 ) ;
#300 = EDGE_CURVE ( 'NONE', #159, #632, #297, .T. ) ;
#301 = DIRECTION ( 'NONE',  ( 2.021225817219559527E-16, -1.000000000000000000, 0.000000000000000000 ) ) ;
#302 = CC_DESIGN_PERSON_AND_ORGANIZATION_ASSIGNMENT ( #281, #37, ( #971 ) ) ;
#303 = ORIENTED_EDGE ( 'NONE', *, *, #1001, .T. ) ;
#304 = ADVANCED_FACE ( 'NONE', ( #1028, #572 ), #754, .F. ) ;
#305 = ORIENTED_EDGE ( 'NONE', *, *, #681, .T. ) ;
#306 = CARTESIAN_POINT ( 'NONE',  ( -25.47286142901401007, -33.49999999999997158, 0.000000000000000000 ) ) ;
#307 = DIRECTION ( 'NONE',  ( -1.000000000000000000, -1.836970198721283356E-16, -0.000000000000000000 ) ) ;
#308 = VERTEX_POINT ( 'NONE', #104 ) ;
#309 = ORIENTED_EDGE ( 'NONE', *, *, #1062, .T. ) ;
#310 = DIRECTION ( 'NONE',  ( 0.000000000000000000, 0.000000000000000000, -1.000000000000000000 ) ) ;
#311 = DIRECTION ( 'NONE',  ( -1.945309395295067220E-16, 1.000000000000000000, 0.000000000000000000 ) ) ;
#312 = DATE_AND_TIME ( #1044, #937 ) ;
#313 = TOROIDAL_SURFACE ( 'NONE', #783, 36.75000000000000000, 6.500000000000000888 ) ;
#314 = ORIENTED_EDGE ( 'NONE', *, *, #813, .F. ) ;
#315 = CONICAL_SURFACE ( 'NONE', #405, 33.70096189432333489, 0.5235987755982989267 ) ;
#316 = DIRECTION ( 'NONE',  ( -1.000000000000000000, -1.836970198721283356E-16, -0.000000000000000000 ) ) ;
#317 = ADVANCED_FACE ( 'NONE', ( #816 ), #668, .F. ) ;
#318 = DIRECTION ( 'NONE',  ( -1.982541115402065603E-16, 1.000000000000000000, 0.000000000000000000 ) ) ;
#319 = APPROVAL_STATUS ( 'not_yet_approved' ) ;
#320 = DIRECTION ( 'NONE',  ( -1.000000000000000000, -1.836970198721283356E-16, -0.000000000000000000 ) ) ;
#321 = EDGE_LOOP ( 'NONE', ( #293, #175, #483, #902 ) ) ;
#322 = CARTESIAN_POINT ( 'NONE',  ( -25.47286142901401718, 1.121050348681354113E-14, 0.000000000000000000 ) ) ;
#323 = LINE ( 'NONE', #826, #503 ) ;
#324 = DIRECTION ( 'NONE',  ( 1.901066822988283183E-16, -1.000000000000000000, 0.000000000000000000 ) ) ;
#325 = ORIENTED_EDGE ( 'NONE', *, *, #142, .T. ) ;
#326 = FACE_OUTER_BOUND ( 'NONE', #280, .T. ) ;
#327 = DIRECTION ( 'NONE',  ( -1.000000000000000000, -1.836970198721283356E-16, -0.000000000000000000 ) ) ;
#328 = EDGE_CURVE ( 'NONE', #376, #141, #124, .T. ) ;
#329 = VERTEX_POINT ( 'NONE', #180 ) ;
#330 =( GEOMETRIC_REPRESENTATION_CONTEXT ( 3 ) GLOBAL_UNCERTAINTY_ASSIGNED_CONTEXT ( ( #847 ) ) GLOBAL_UNIT_ASSIGNED_CONTEXT ( ( #712, #204, #623 ) ) REPRESENTATION_CONTEXT ( 'NONE', 'WORKASPACE' ) );
#331 = CYLINDRICAL_SURFACE ( 'NONE', #994, 31.75000000000000000 ) ;
#332 = ORIENTED_EDGE ( 'NONE', *, *, #1062, .F. ) ;
#333 = AXIS2_PLACEMENT_3D ( 'NONE', #510, #408, #318 ) ;
#334 = CARTESIAN_POINT ( 'NONE',  ( -33.78151847792409512, 36.75000000000000711, 4.500576986866523006E-15 ) ) ;
#335 = CIRCLE ( 'NONE', #1037, 36.49999999999997158 ) ;
#336 = AXIS2_PLACEMENT_3D ( 'NONE', #465, #1055, #799 ) ;
#337 = ORIENTED_EDGE ( 'NONE', *, *, #1042, .T. ) ;
#338 = CONICAL_SURFACE ( 'NONE', #456, 37.99999999999997868, 0.5235987755982984826 ) ;
#339 = FACE_OUTER_BOUND ( 'NONE', #243, .T. ) ;
#340 = ORIENTED_EDGE ( 'NONE', *, *, #431, .F. ) ;
#341 = DIRECTION ( 'NONE',  ( -1.982541115402065603E-16, 1.000000000000000000, 0.000000000000000000 ) ) ;
#342 = DIRECTION ( 'NONE',  ( -1.000000000000000000, -1.836970198721283356E-16, -0.000000000000000000 ) ) ;
#343 = ORIENTED_EDGE ( 'NONE', *, *, #272, .T. ) ;
#344 = EDGE_CURVE ( 'NONE', #657, #666, #1058, .T. ) ;
#345 = DIRECTION ( 'NONE',  ( 2.293849224432141368E-16, -1.000000000000000000, 0.000000000000000000 ) ) ;
#346 = DIRECTION ( 'NONE',  ( -1.000000000000000000, -1.836970198721283356E-16, -0.000000000000000000 ) ) ;
#347 = ORGANIZATION ( 'UNSPECIFIED', 'UNSPECIFIED', '' ) ;
#348 = LINE ( 'NONE', #849, #449 ) ;
#349 = EDGE_CURVE ( 'NONE', #897, #109, #682, .T. ) ;
#350 = AXIS2_PLACEMENT_3D ( 'NONE', #614, #451, #786 ) ;
#351 = DIRECTION ( 'NONE',  ( 2.071311613106636139E-16, -1.000000000000000000, 0.000000000000000000 ) ) ;
#352 = EDGE_CURVE ( 'NONE', #381, #56, #696, .T. ) ;
#353 = AXIS2_PLACEMENT_3D ( 'NONE', #152, #307, #468 ) ;
#354 = CIRCLE ( 'NONE', #388, 33.49999999999998579 ) ;
#355 = CIRCLE ( 'NONE', #231, 5.000000000000000888 ) ;
#356 = VECTOR ( 'NONE', #21, 1000.000000000000000 ) ;
#357 = FACE_OUTER_BOUND ( 'NONE', #648, .T. ) ;
#358 = DIRECTION ( 'NONE',  ( -1.000000000000000000, -1.836970198721283356E-16, -0.000000000000000000 ) ) ;
#359 = ADVANCED_FACE ( 'NONE', ( #982 ), #840, .T. ) ;
#360 = CARTESIAN_POINT ( 'NONE',  ( -27.97286142901400652, 1.075126093713322121E-14, 0.000000000000000000 ) ) ;
#361 = DESIGN_CONTEXT ( 'detailed design', #362, 'design' ) ;
#362 = APPLICATION_CONTEXT ( 'configuration controlled 3d designs of mechanical parts and assemblies' ) ;
#363 = CARTESIAN_POINT ( 'NONE',  ( -86.50000000000000000, 0.000000000000000000, 0.000000000000000000 ) ) ;
#364 = APPROVAL_STATUS ( 'not_yet_approved' ) ;
#365 = DIRECTION ( 'NONE',  ( 0.000000000000000000, -1.000000000000000000, -1.224646799147354193E-16 ) ) ;
#366 = DIRECTION ( 'NONE',  ( 2.071311613106636139E-16, -1.000000000000000000, 0.000000000000000000 ) ) ;
#367 = DIRECTION ( 'NONE',  ( 0.8660254037844389297, -0.4999999999999995004, 6.123233995736762338E-17 ) ) ;
#368 = TOROIDAL_SURFACE ( 'NONE', #137, 36.75000000000000000, 6.500000000000000888 ) ;
#369 = CIRCLE ( 'NONE', #501, 6.499999999999999112 ) ;
#370 = DIRECTION ( 'NONE',  ( -1.000000000000000000, -1.836970198721283356E-16, -0.000000000000000000 ) ) ;
#371 = LINE ( 'NONE', #1047, #87 ) ;
#372 = ORIENTED_EDGE ( 'NONE', *, *, #265, .T. ) ;
#373 = PERSON_AND_ORGANIZATION ( #773, #347 ) ;
#374 = DIRECTION ( 'NONE',  ( -1.836970198721283356E-16, 1.000000000000000000, 0.000000000000000000 ) ) ;
#375 = VERTEX_POINT ( 'NONE', #596 ) ;
#376 = VERTEX_POINT ( 'NONE', #825 ) ;
#377 = PERSON_AND_ORGANIZATION ( #773, #347 ) ;
#378 = EDGE_CURVE ( 'NONE', #141, #381, #579, .T. ) ;
#379 = LINE ( 'NONE', #144, #1004 ) ;
#380 = ORIENTED_EDGE ( 'NONE', *, *, #540, .F. ) ;
#381 = VERTEX_POINT ( 'NONE', #928 ) ;
#382 = DIRECTION ( 'NONE',  ( 1.000000000000000000, 1.836970198721283356E-16, 0.000000000000000000 ) ) ;
#383 = DIRECTION ( 'NONE',  ( -1.000000000000000000, -1.836970198721283356E-16, -0.000000000000000000 ) ) ;
#384 = CARTESIAN_POINT ( 'NONE',  ( -26.06260739116963165, 1.110216891108393325E-14, 0.000000000000000000 ) ) ;
#385 = CIRCLE ( 'NONE', #800, 34.33012701892219098 ) ;
#386 = ORIENTED_EDGE ( 'NONE', *, *, #584, .F. ) ;
#387 = CIRCLE ( 'NONE', #770, 33.49999999999998579 ) ;
#388 = AXIS2_PLACEMENT_3D ( 'NONE', #65, #1052, #964 ) ;
#389 = ORIENTED_EDGE ( 'NONE', *, *, #198, .F. ) ;
#390 = CARTESIAN_POINT ( 'NONE',  ( -33.78151847792408802, 9.684227947789208203E-15, 0.000000000000000000 ) ) ;
#391 = CIRCLE ( 'NONE', #771, 32.41987298107780902 ) ;
#392 = DIRECTION ( 'NONE',  ( 0.000000000000000000, -1.000000000000000000, 0.000000000000000000 ) ) ;
#393 = ADVANCED_FACE ( 'NONE', ( #1061 ), #539, .T. ) ;
#394 = ORIENTED_EDGE ( 'NONE', *, *, #670, .F. ) ;
#395 = DIRECTION ( 'NONE',  ( -1.000000000000000000, -1.836970198721283356E-16, -0.000000000000000000 ) ) ;
#396 = ADVANCED_FACE ( 'NONE', ( #413 ), #407, .F. ) ;
#397 = EDGE_CURVE ( 'NONE', #159, #719, #490, .T. ) ;
#398 = ORIENTED_EDGE ( 'NONE', *, *, #900, .F. ) ;
#399 = FACE_OUTER_BOUND ( 'NONE', #637, .T. ) ;
#400 = VECTOR ( 'NONE', #861, 1000.000000000000000 ) ;
#401 = LINE ( 'NONE', #1059, #699 ) ;
#402 = AXIS2_PLACEMENT_3D ( 'NONE', #460, #452, #206 ) ;
#403 = ORIENTED_EDGE ( 'NONE', *, *, #344, .F. ) ;
#404 = ADVANCED_FACE ( 'NONE', ( #326 ), #630, .T. ) ;
#405 = AXIS2_PLACEMENT_3D ( 'NONE', #1038, #298, #77 ) ;
#406 = CARTESIAN_POINT ( 'NONE',  ( -25.47286142901402428, 30.00000000000000711, 0.000000000000000000 ) ) ;
#407 = TOROIDAL_SURFACE ( 'NONE', #821, 29.99999999999999645, 3.500000000000000000 ) ;
#408 = DIRECTION ( 'NONE',  ( 1.000000000000000000, 1.836970198721283356E-16, 0.000000000000000000 ) ) ;
#409 = AXIS2_PLACEMENT_3D ( 'NONE', #334, #5, #108 ) ;
#410 = ORIENTED_EDGE ( 'NONE', *, *, #162, .T. ) ;
#411 = CARTESIAN_POINT ( 'NONE',  ( 29.15587413090626612, -34.37083487540111548, 4.310874531079101517E-15 ) ) ;
#412 = ORIENTED_EDGE ( 'NONE', *, *, #513, .F. ) ;
#413 = FACE_OUTER_BOUND ( 'NONE', #966, .T. ) ;
#414 = EDGE_CURVE ( 'NONE', #58, #147, #612, .T. ) ;
#415 = CARTESIAN_POINT ( 'NONE',  ( -27.22286142901400652, 1.088903370203731877E-14, 0.000000000000000000 ) ) ;
#416 = ORIENTED_EDGE ( 'NONE', *, *, #344, .T. ) ;
#417 = DIRECTION ( 'NONE',  ( -1.826024711554534899E-16, 1.000000000000000000, 0.000000000000000000 ) ) ;
#418 = VERTEX_POINT ( 'NONE', #185 ) ;
#419 = ADVANCED_FACE ( 'NONE', ( #504 ), #756, .F. ) ;
#420 = DIRECTION ( 'NONE',  ( 1.000000000000000000, 1.836970198721283356E-16, 0.000000000000000000 ) ) ;
#421 = ORIENTED_EDGE ( 'NONE', *, *, #282, .F. ) ;
#422 = DIRECTION ( 'NONE',  ( 0.000000000000000000, -1.000000000000000000, 0.000000000000000000 ) ) ;
#423 = AXIS2_PLACEMENT_3D ( 'NONE', #880, #145, #270 ) ;
#424 = CLOSED_SHELL ( 'NONE', ( #950, #396, #404, #430, #743, #419, #555, #264, #90, #1029, #735, #701, #930, #779, #359, #619, #909, #466, #304, #176, #393, #603, #476, #626, #505, #57, #494, #656, #289, #317, #59, #112, #644, #591, #1050, #829, #150, #984 ) ) ;
#425 = CIRCLE ( 'NONE', #248, 37.33012701892216967 ) ;
#426 = CIRCLE ( 'NONE', #88, 31.75000000000000000 ) ;
#427 = DIRECTION ( 'NONE',  ( -1.000000000000000000, -1.836970198721283356E-16, -0.000000000000000000 ) ) ;
#428 = ORIENTED_EDGE ( 'NONE', *, *, #115, .T. ) ;
#429 = DIRECTION ( 'NONE',  ( 0.000000000000000000, 0.000000000000000000, -1.000000000000000000 ) ) ;
#430 = ADVANCED_FACE ( 'NONE', ( #496 ), #824, .F. ) ;
#431 = EDGE_CURVE ( 'NONE', #666, #141, #788, .T. ) ;
#432 = DIRECTION ( 'NONE',  ( -1.826024711554535146E-16, 1.000000000000000000, 0.000000000000000000 ) ) ;
#433 = DIRECTION ( 'NONE',  ( 1.836970198721283602E-16, -1.000000000000000000, 0.000000000000000000 ) ) ;
#434 = CARTESIAN_POINT ( 'NONE',  ( 33.19177251576849130, 2.198702191435938826E-14, 0.000000000000000000 ) ) ;
#435 = DIRECTION ( 'NONE',  ( -1.836970198721283356E-16, 1.000000000000000000, 0.000000000000000000 ) ) ;
#436 = CIRCLE ( 'NONE', #135, 34.37083487540113680 ) ;
#437 = AXIS2_PLACEMENT_3D ( 'NONE', #995, #822, #587 ) ;
#438 = CARTESIAN_POINT ( 'NONE',  ( -86.50000000000000000, 0.000000000000000000, 0.000000000000000000 ) ) ;
#439 = CARTESIAN_POINT ( 'NONE',  ( -25.47286142901402428, 35.00000000000000000, 4.286263797015734919E-15 ) ) ;
#440 = EDGE_CURVE ( 'NONE', #376, #622, #911, .T. ) ;
#441 = LINE ( 'NONE', #24, #74 ) ;
#442 = DIRECTION ( 'NONE',  ( -1.000000000000000000, -1.836970198721283356E-16, -0.000000000000000000 ) ) ;
#443 = CC_DESIGN_DATE_AND_TIME_ASSIGNMENT ( #312, #68, ( #512 ) ) ;
#444 = CARTESIAN_POINT ( 'NONE',  ( 25.90587413090625191, 2.064862409396903917E-14, 0.000000000000000000 ) ) ;
#445 = CARTESIAN_POINT ( 'NONE',  ( -25.47286142901401007, -29.99999999999998579, 3.673940397442059178E-15 ) ) ;
#446 = CARTESIAN_POINT ( 'NONE',  ( 86.50000000000000000, 36.50000000000000711, 4.469960816887836063E-15 ) ) ;
#447 = DIRECTION ( 'NONE',  ( 1.000000000000000000, 1.836970198721283356E-16, 0.000000000000000000 ) ) ;
#448 = APPROVAL_ROLE ( '' ) ;
#449 = VECTOR ( 'NONE', #327, 1000.000000000000000 ) ;
#450 = CARTESIAN_POINT ( 'NONE',  ( 25.90587413090625901, -34.99999999999997158, 0.000000000000000000 ) ) ;
#451 = DIRECTION ( 'NONE',  ( -2.249639673993097051E-32, 1.224646799147353207E-16, 1.000000000000000000 ) ) ;
#452 = DIRECTION ( 'NONE',  ( -1.000000000000000000, -1.836970198721283356E-16, -0.000000000000000000 ) ) ;
#453 = CIRCLE ( 'NONE', #488, 4.999999999999997335 ) ;
#454 = ORIENTED_EDGE ( 'NONE', *, *, #266, .F. ) ;
#455 = EDGE_CURVE ( 'NONE', #548, #632, #541, .T. ) ;
#456 = AXIS2_PLACEMENT_3D ( 'NONE', #658, #582, #417 ) ;
#457 = CALENDAR_DATE ( 2026, 16, 9 ) ;
#458 = CARTESIAN_POINT ( 'NONE',  ( -31.28151847792409157, 32.41987298107781612, 0.000000000000000000 ) ) ;
#459 = DIRECTION ( 'NONE',  ( 1.836970198721283356E-16, -1.000000000000000000, 0.000000000000000000 ) ) ;
#460 = CARTESIAN_POINT ( 'NONE',  ( 86.50000000000000000, 3.177958443787820119E-14, 0.000000000000000000 ) ) ;
#461 = ORIENTED_EDGE ( 'NONE', *, *, #100, .T. ) ;
#462 = DIRECTION ( 'NONE',  ( 0.8660254037844387076, -0.4999999999999998335, 6.123233995736766036E-17 ) ) ;
#463 = CARTESIAN_POINT ( 'NONE',  ( -25.47286142901402428, 33.50000000000000000, 4.102566777143632196E-15 ) ) ;
#464 = ORIENTED_EDGE ( 'NONE', *, *, #882, .T. ) ;
#465 = CARTESIAN_POINT ( 'NONE',  ( -33.78151847792408091, -36.74999999999999289, 0.000000000000000000 ) ) ;
#466 = ADVANCED_FACE ( 'NONE', ( #339 ), #331, .T. ) ;
#467 = APPROVAL_PERSON_ORGANIZATION ( #642, #575, #884 ) ;
#468 = DIRECTION ( 'NONE',  ( 0.000000000000000000, -1.000000000000000000, 0.000000000000000000 ) ) ;
#469 = VERTEX_POINT ( 'NONE', #814 ) ;
#470 = PERSON_AND_ORGANIZATION ( #773, #347 ) ;
#471 = VECTOR ( 'NONE', #695, 1000.000000000000000 ) ;
#472 = ORIENTED_EDGE ( 'NONE', *, *, #440, .F. ) ;
#473 = AXIS2_PLACEMENT_3D ( 'NONE', #549, #395, #722 ) ;
#474 = DIRECTION ( 'NONE',  ( -2.100716062413769727E-16, 1.000000000000000000, 0.000000000000000000 ) ) ;
#475 = AXIS2_PLACEMENT_3D ( 'NONE', #828, #590, #746 ) ;
#476 = ADVANCED_FACE ( 'NONE', ( #671 ), #338, .T. ) ;
#477 = ORIENTED_EDGE ( 'NONE', *, *, #95, .T. ) ;
#478 = ORIENTED_EDGE ( 'NONE', *, *, #191, .T. ) ;
#479 = DIRECTION ( 'NONE',  ( 0.000000000000000000, 1.000000000000000000, 0.000000000000000000 ) ) ;
#480 = CARTESIAN_POINT ( 'NONE',  ( 25.90587413090625901, -39.99999999999996447, 0.000000000000000000 ) ) ;
#481 = CARTESIAN_POINT ( 'NONE',  ( -25.47286142901401718, 1.121050348681354113E-14, 0.000000000000000000 ) ) ;
#482 = DIRECTION ( 'NONE',  ( 0.000000000000000000, -1.000000000000000000, 0.000000000000000000 ) ) ;
#483 = ORIENTED_EDGE ( 'NONE', *, *, #282, .T. ) ;
#484 = EDGE_CURVE ( 'NONE', #719, #548, #213, .T. ) ;
#485 = CARTESIAN_POINT ( 'NONE',  ( 33.78151847792412354, -36.49999999999995026, 0.000000000000000000 ) ) ;
#486 = VECTOR ( 'NONE', #615, 1000.000000000000000 ) ;
#487 = VERTEX_POINT ( 'NONE', #411 ) ;
#488 = AXIS2_PLACEMENT_3D ( 'NONE', #278, #850, #365 ) ;
#489 = CARTESIAN_POINT ( 'NONE',  ( -86.50000000000000000, 5.356954473696801786E-31, 0.000000000000000000 ) ) ;
#490 = CIRCLE ( 'NONE', #32, 36.03108891324551877 ) ;
#491 = FACE_OUTER_BOUND ( 'NONE', #915, .T. ) ;
#492 = CIRCLE ( 'NONE', #54, 6.499999999999999112 ) ;
#493 = ORIENTED_EDGE ( 'NONE', *, *, #397, .F. ) ;
#494 = ADVANCED_FACE ( 'NONE', ( #977 ), #232, .F. ) ;
#495 = ORIENTED_EDGE ( 'NONE', *, *, #729, .F. ) ;
#496 = FACE_OUTER_BOUND ( 'NONE', #233, .T. ) ;
#497 = ORIENTED_EDGE ( 'NONE', *, *, #972, .T. ) ;
#498 = ORIENTED_EDGE ( 'NONE', *, *, #761, .F. ) ;
#499 = CARTESIAN_POINT ( 'NONE',  ( -33.78151847792408802, 9.684227947789208203E-15, 0.000000000000000000 ) ) ;
#500 = DIRECTION ( 'NONE',  ( 0.000000000000000000, -1.000000000000000000, 1.224646799147351728E-16 ) ) ;
#501 = AXIS2_PLACEMENT_3D ( 'NONE', #703, #523, #269 ) ;
#502 = ORIENTED_EDGE ( 'NONE', *, *, #484, .T. ) ;
#503 = VECTOR ( 'NONE', #846, 1000.000000000000000 ) ;
#504 = FACE_OUTER_BOUND ( 'NONE', #578, .T. ) ;
#505 = ADVANCED_FACE ( 'NONE', ( #576, #918 ), #183, .F. ) ;
#506 = AXIS2_PLACEMENT_3D ( 'NONE', #751, #427, #15 ) ;
#507 = LINE ( 'NONE', #604, #962 ) ;
#508 = ORIENTED_EDGE ( 'NONE', *, *, #455, .F. ) ;
#509 = DIRECTION ( 'NONE',  ( 0.000000000000000000, -1.000000000000000000, 0.000000000000000000 ) ) ;
#510 = CARTESIAN_POINT ( 'NONE',  ( -25.47286142901401718, 1.121050348681354113E-14, 0.000000000000000000 ) ) ;
#511 = CARTESIAN_POINT ( 'NONE',  ( -86.50000000000000000, 0.000000000000000000, 0.000000000000000000 ) ) ;
#512 = SECURITY_CLASSIFICATION ( '', '', #164 ) ;
#513 = EDGE_CURVE ( 'NONE', #819, #469, #837, .T. ) ;
#514 = DIRECTION ( 'NONE',  ( 0.000000000000000000, 0.000000000000000000, -1.000000000000000000 ) ) ;
#515 = AXIS2_PLACEMENT_3D ( 'NONE', #529, #688, #40 ) ;
#516 = FACE_OUTER_BOUND ( 'NONE', #798, .T. ) ;
#517 = DIRECTION ( 'NONE',  ( 1.000000000000000000, 1.836970198721283356E-16, 0.000000000000000000 ) ) ;
#518 = DIRECTION ( 'NONE',  ( 1.000000000000000000, 1.836970198721283356E-16, 0.000000000000000000 ) ) ;
#519 = AXIS2_PLACEMENT_3D ( 'NONE', #234, #342, #564 ) ;
#520 = DIRECTION ( 'NONE',  ( 0.000000000000000000, -1.000000000000000000, 0.000000000000000000 ) ) ;
#521 = DATE_TIME_ROLE ( 'creation_date' ) ;
#522 = CARTESIAN_POINT ( 'NONE',  ( -25.47286142901401718, 1.121050348681354113E-14, 0.000000000000000000 ) ) ;
#523 = DIRECTION ( 'NONE',  ( 2.249639673993097051E-32, -1.224646799147353207E-16, 1.000000000000000000 ) ) ;
#524 = DIRECTION ( 'NONE',  ( 2.185478394931410575E-16, -1.000000000000000000, 0.000000000000000000 ) ) ;
#525 = CARTESIAN_POINT ( 'NONE',  ( -86.50000000000000000, 1.071390894739360357E-30, 0.000000000000000000 ) ) ;
#526 = DIRECTION ( 'NONE',  ( 0.000000000000000000, 0.000000000000000000, 1.000000000000000000 ) ) ;
#527 = CARTESIAN_POINT ( 'NONE',  ( -25.47286142901401718, 1.121050348681354113E-14, 0.000000000000000000 ) ) ;
#528 = DIRECTION ( 'NONE',  ( -1.000000000000000000, -1.836970198721283356E-16, -0.000000000000000000 ) ) ;
#529 = CARTESIAN_POINT ( 'NONE',  ( -25.47286142901402428, 30.00000000000000711, 0.000000000000000000 ) ) ;
#530 = ORIENTED_EDGE ( 'NONE', *, *, #599, .T. ) ;
#531 = CARTESIAN_POINT ( 'NONE',  ( 25.90587413090625191, 2.064862409396903917E-14, 0.000000000000000000 ) ) ;
#532 = DIRECTION ( 'NONE',  ( 0.000000000000000000, -1.000000000000000000, 0.000000000000000000 ) ) ;
#533 = EDGE_CURVE ( 'NONE', #819, #883, #649, .T. ) ;
#534 = CARTESIAN_POINT ( 'NONE',  ( 28.40587413090625901, 2.110786664364936224E-14, 0.000000000000000000 ) ) ;
#535 = CARTESIAN_POINT ( 'NONE',  ( 33.78151847792410933, 2.209535649008899299E-14, 0.000000000000000000 ) ) ;
#536 = TOROIDAL_SURFACE ( 'NONE', #577, 32.99999999999997158, 5.000000000000000000 ) ;
#537 = EDGE_CURVE ( 'NONE', #329, #487, #492, .T. ) ;
#538 = ORIENTED_EDGE ( 'NONE', *, *, #665, .T. ) ;
#539 = CONICAL_SURFACE ( 'NONE', #211, 34.99999999999999289, 0.5235987755982989267 ) ;
#540 = EDGE_CURVE ( 'NONE', #728, #75, #401, .T. ) ;
#541 = CIRCLE ( 'NONE', #929, 36.49999999999997158 ) ;
#542 = CARTESIAN_POINT ( 'NONE',  ( 0.000000000000000000, 0.000000000000000000, 0.000000000000000000 ) ) ;
#543 = CARTESIAN_POINT ( 'NONE',  ( -86.50000000000000000, 0.000000000000000000, 0.000000000000000000 ) ) ;
#544 = DIRECTION ( 'NONE',  ( 3.652049423109070292E-16, -1.000000000000000000, 0.000000000000000000 ) ) ;
#545 = DIRECTION ( 'NONE',  ( -2.058960193974769445E-16, 1.000000000000000000, 0.000000000000000000 ) ) ;
#546 = ORIENTED_EDGE ( 'NONE', *, *, #859, .F. ) ;
#547 = CARTESIAN_POINT ( 'NONE',  ( 33.78151847792410223, 2.209535649008899299E-14, 0.000000000000000000 ) ) ;
#548 = VERTEX_POINT ( 'NONE', #485 ) ;
#549 = CARTESIAN_POINT ( 'NONE',  ( 32.03151847792410933, 2.177388670531277220E-14, 0.000000000000000000 ) ) ;
#550 = CYLINDRICAL_SURFACE ( 'NONE', #353, 30.25000000000000000 ) ;
#551 = ORIENTED_EDGE ( 'NONE', *, *, #201, .F. ) ;
#552 = COORDINATED_UNIVERSAL_TIME_OFFSET ( 1, 0, .AHEAD. ) ;
#553 = CARTESIAN_POINT ( 'NONE',  ( 86.50000000000000000, 3.177958443787820119E-14, 0.000000000000000000 ) ) ;
#554 = EDGE_LOOP ( 'NONE', ( #70, #337, #97, #389 ) ) ;
#555 = ADVANCED_FACE ( 'NONE', ( #122 ), #684, .F. ) ;
#556 = DIRECTION ( 'NONE',  ( 0.8660254037844387076, 0.4999999999999998335, 0.000000000000000000 ) ) ;
#557 = CIRCLE ( 'NONE', #423, 34.37083487540113680 ) ;
#558 = ORIENTED_EDGE ( 'NONE', *, *, #618, .F. ) ;
#559 = CIRCLE ( 'NONE', #872, 6.499999999999999112 ) ;
#560 = ORIENTED_EDGE ( 'NONE', *, *, #843, .T. ) ;
#561 = CARTESIAN_POINT ( 'NONE',  ( -33.78151847792408091, -36.74999999999999289, 0.000000000000000000 ) ) ;
#562 = EDGE_CURVE ( 'NONE', #666, #875, #507, .T. ) ;
#563 = ORIENTED_EDGE ( 'NONE', *, *, #397, .T. ) ;
#564 = DIRECTION ( 'NONE',  ( 3.652049423109070785E-16, -1.000000000000000000, 0.000000000000000000 ) ) ;
#565 = ORIENTED_EDGE ( 'NONE', *, *, #20, .T. ) ;
#566 = DIRECTION ( 'NONE',  ( 0.000000000000000000, 0.000000000000000000, -1.000000000000000000 ) ) ;
#567 = DIRECTION ( 'NONE',  ( -1.982541115402065603E-16, 1.000000000000000000, 0.000000000000000000 ) ) ;
#568 = EDGE_CURVE ( 'NONE', #99, #736, #425, .T. ) ;
#569 = ORIENTED_EDGE ( 'NONE', *, *, #95, .F. ) ;
#570 = DIRECTION ( 'NONE',  ( -1.000000000000000000, -1.836970198721283356E-16, -0.000000000000000000 ) ) ;
#571 = EDGE_LOOP ( 'NONE', ( #412, #745, #303, #203 ) ) ;
#572 = FACE_OUTER_BOUND ( 'NONE', #1035, .T. ) ;
#573 = EDGE_CURVE ( 'NONE', #967, #469, #173, .T. ) ;
#574 = EDGE_LOOP ( 'NONE', ( #416, #1027, #839, #869 ) ) ;
#575 = APPROVAL ( #319, 'UNSPECIFIED' ) ;
#576 = FACE_BOUND ( 'NONE', #647, .T. ) ;
#577 = AXIS2_PLACEMENT_3D ( 'NONE', #535, #214, #793 ) ;
#578 = EDGE_LOOP ( 'NONE', ( #700, #478, #493, #710 ) ) ;
#579 = LINE ( 'NONE', #253, #261 ) ;
#580 = AXIS2_PLACEMENT_3D ( 'NONE', #363, #931, #509 ) ;
#581 = ORIENTED_EDGE ( 'NONE', *, *, #618, .T. ) ;
#582 = DIRECTION ( 'NONE',  ( 1.000000000000000000, 1.836970198721283356E-16, 0.000000000000000000 ) ) ;
#583 = ORIENTED_EDGE ( 'NONE', *, *, #1048, .T. ) ;
#584 = EDGE_CURVE ( 'NONE', #287, #56, #1041, .T. ) ;
#585 = CARTESIAN_POINT ( 'NONE',  ( 25.90587413090624480, 40.00000000000000711, 4.898587196589411448E-15 ) ) ;
#586 = EDGE_LOOP ( 'NONE', ( #917, #878, #581, #136 ) ) ;
#587 = DIRECTION ( 'NONE',  ( -1.836970198721283356E-16, 1.000000000000000000, 0.000000000000000000 ) ) ;
#588 = EDGE_LOOP ( 'NONE', ( #160, #149, #740, #1060 ) ) ;
#589 = EDGE_CURVE ( 'NONE', #897, #659, #33, .T. ) ;
#590 = DIRECTION ( 'NONE',  ( -1.000000000000000000, -1.836970198721283356E-16, -0.000000000000000000 ) ) ;
#591 = ADVANCED_FACE ( 'NONE', ( #36 ), #607, .F. ) ;
#592 = DIRECTION ( 'NONE',  ( 1.982541115402065603E-16, -1.000000000000000000, 0.000000000000000000 ) ) ;
#593 = AXIS2_PLACEMENT_3D ( 'NONE', #131, #447, #35 ) ;
#594 = ORIENTED_EDGE ( 'NONE', *, *, #654, .T. ) ;
#595 = VECTOR ( 'NONE', #952, 1000.000000000000000 ) ;
#596 = CARTESIAN_POINT ( 'NONE',  ( 29.15587413090625191, 34.37083487540115811, 0.000000000000000000 ) ) ;
#597 = CIRCLE ( 'NONE', #941, 36.49999999999997158 ) ;
#598 = TOROIDAL_SURFACE ( 'NONE', #158, 36.75000000000000000, 5.000000000000000000 ) ;
#599 = EDGE_CURVE ( 'NONE', #147, #58, #391, .T. ) ;
#600 = CYLINDRICAL_SURFACE ( 'NONE', #580, 34.99999999999999289 ) ;
#601 = CARTESIAN_POINT ( 'NONE',  ( 28.40587413090625901, 2.110786664364936224E-14, 0.000000000000000000 ) ) ;
#602 = FACE_OUTER_BOUND ( 'NONE', #739, .T. ) ;
#603 = ADVANCED_FACE ( 'NONE', ( #693 ), #600, .T. ) ;
#604 = CARTESIAN_POINT ( 'NONE',  ( -86.50000000000000000, 30.25000000000000000, 3.704556567420743754E-15 ) ) ;
#605 = CARTESIAN_POINT ( 'NONE',  ( -25.47286142901401007, -34.99999999999997868, 0.000000000000000000 ) ) ;
#606 = DIRECTION ( 'NONE',  ( 1.858791935101102310E-16, -1.000000000000000000, 0.000000000000000000 ) ) ;
#607 = CYLINDRICAL_SURFACE ( 'NONE', #17, 36.49999999999997158 ) ;
#608 = CC_DESIGN_APPROVAL ( #575, ( #512 ) ) ;
#609 = APPROVAL_ROLE ( '' ) ;
#610 = AXIS2_PLACEMENT_3D ( 'NONE', #886, #724, #524 ) ;
#611 = CARTESIAN_POINT ( 'NONE',  ( 29.15587413090625901, 2.124563940855345821E-14, 0.000000000000000000 ) ) ;
#612 = CIRCLE ( 'NONE', #805, 32.41987298107780902 ) ;
#613 = CARTESIAN_POINT ( 'NONE',  ( -33.78151847792409512, 30.25000000000001421, 3.704556567420744543E-15 ) ) ;
#614 = CARTESIAN_POINT ( 'NONE',  ( -25.47286142901401007, -29.99999999999998579, 3.673940397442059178E-15 ) ) ;
#615 = DIRECTION ( 'NONE',  ( -1.000000000000000000, -1.836970198721283356E-16, -0.000000000000000000 ) ) ;
#616 = ORIENTED_EDGE ( 'NONE', *, *, #972, .F. ) ;
#617 = DIRECTION ( 'NONE',  ( 1.000000000000000000, 1.836970198721283356E-16, 0.000000000000000000 ) ) ;
#618 = EDGE_CURVE ( 'NONE', #659, #890, #441, .T. ) ;
#619 = ADVANCED_FACE ( 'NONE', ( #111 ), #689, .T. ) ;
#620 = DIRECTION ( 'NONE',  ( 0.000000000000000000, -1.000000000000000000, 0.000000000000000000 ) ) ;
#621 = FACE_OUTER_BOUND ( 'NONE', #321, .T. ) ;
#622 = VERTEX_POINT ( 'NONE', #47 ) ;
#623 =( NAMED_UNIT ( * ) SI_UNIT ( $, .STERADIAN. ) SOLID_ANGLE_UNIT ( ) );
#624 = EDGE_LOOP ( 'NONE', ( #394, #1051, #758, #664 ) ) ;
#625 = DIRECTION ( 'NONE',  ( 2.185478394931410575E-16, -1.000000000000000000, 0.000000000000000000 ) ) ;
#626 = ADVANCED_FACE ( 'NONE', ( #944 ), #271, .T. ) ;
#627 = AXIS2_PLACEMENT_3D ( 'NONE', #547, #382, #949 ) ;
#628 = DIRECTION ( 'NONE',  ( -1.000000000000000000, -1.836970198721283356E-16, -0.000000000000000000 ) ) ;
#629 = ORIENTED_EDGE ( 'NONE', *, *, #1, .F. ) ;
#630 = TOROIDAL_SURFACE ( 'NONE', #475, 39.99999999999998579, 6.500000000000000888 ) ;
#631 = PERSON_AND_ORGANIZATION ( #773, #347 ) ;
#632 = VERTEX_POINT ( 'NONE', #862 ) ;
#633 = DIRECTION ( 'NONE',  ( 0.000000000000000000, -1.000000000000000000, 0.000000000000000000 ) ) ;
#634 = CARTESIAN_POINT ( 'NONE',  ( -86.50000000000000000, -31.75000000000000000, 0.000000000000000000 ) ) ;
#635 = ORIENTED_EDGE ( 'NONE', *, *, #352, .T. ) ;
#636 = EDGE_CURVE ( 'NONE', #75, #721, #426, .T. ) ;
#637 = EDGE_LOOP ( 'NONE', ( #80, #823, #217, #987 ) ) ;
#638 = FACE_OUTER_BOUND ( 'NONE', #588, .T. ) ;
#639 = DIRECTION ( 'NONE',  ( 1.000000000000000000, 1.836970198721283356E-16, 0.000000000000000000 ) ) ;
#640 = VERTEX_POINT ( 'NONE', #778 ) ;
#641 = CC_DESIGN_PERSON_AND_ORGANIZATION_ASSIGNMENT ( #470, #91, ( #512 ) ) ;
#642 = PERSON_AND_ORGANIZATION ( #773, #347 ) ;
#643 = ORIENTED_EDGE ( 'NONE', *, *, #349, .T. ) ;
#644 = ADVANCED_FACE ( 'NONE', ( #357 ), #871, .F. ) ;
#645 = CARTESIAN_POINT ( 'NONE',  ( -33.78151847792408802, 9.684227947789208203E-15, 0.000000000000000000 ) ) ;
#646 = CIRCLE ( 'NONE', #294, 5.000000000000000888 ) ;
#647 = EDGE_LOOP ( 'NONE', ( #565, #256 ) ) ;
#648 = EDGE_LOOP ( 'NONE', ( #919, #22, #286, #102 ) ) ;
#649 = CIRCLE ( 'NONE', #519, 37.99999999999996447 ) ;
#650 = CARTESIAN_POINT ( 'NONE',  ( 33.78151847792410223, 32.99999999999999289, 0.000000000000000000 ) ) ;
#651 = CARTESIAN_POINT ( 'NONE',  ( -33.78151847792408802, 9.684227947789208203E-15, 0.000000000000000000 ) ) ;
#652 = DIRECTION ( 'NONE',  ( -2.249639673993097051E-32, 1.224646799147353207E-16, 1.000000000000000000 ) ) ;
#653 = ORIENTED_EDGE ( 'NONE', *, *, #1039, .F. ) ;
#654 = EDGE_CURVE ( 'NONE', #912, #329, #782, .T. ) ;
#655 = DIRECTION ( 'NONE',  ( 1.836970198721283356E-16, -1.000000000000000000, 0.000000000000000000 ) ) ;
#656 = ADVANCED_FACE ( 'NONE', ( #193 ), #921, .T. ) ;
#657 = VERTEX_POINT ( 'NONE', #1019 ) ;
#658 = CARTESIAN_POINT ( 'NONE',  ( 32.44177251576849130, 2.184924914945528913E-14, 0.000000000000000000 ) ) ;
#659 = VERTEX_POINT ( 'NONE', #450 ) ;
#660 = CARTESIAN_POINT ( 'NONE',  ( -31.28151847792408446, 1.014347049746952969E-14, 0.000000000000000000 ) ) ;
#661 = CARTESIAN_POINT ( 'NONE',  ( -86.50000000000000000, 1.071390894739360357E-30, 0.000000000000000000 ) ) ;
#662 = LOCAL_TIME ( 0, 4, 7.000000000000000000, #866 ) ;
#663 = APPROVAL ( #42, 'UNSPECIFIED' ) ;
#664 = ORIENTED_EDGE ( 'NONE', *, *, #1010, .F. ) ;
#665 = EDGE_CURVE ( 'NONE', #912, #375, #369, .T. ) ;
#666 = VERTEX_POINT ( 'NONE', #613 ) ;
#667 = AXIS2_PLACEMENT_3D ( 'NONE', #810, #81, #156 ) ;
#668 = CYLINDRICAL_SURFACE ( 'NONE', #804, 30.25000000000000000 ) ;
#669 = ORIENTED_EDGE ( 'NONE', *, *, #73, .F. ) ;
#670 = EDGE_CURVE ( 'NONE', #418, #721, #44, .T. ) ;
#671 = FACE_OUTER_BOUND ( 'NONE', #969, .T. ) ;
#672 = EDGE_LOOP ( 'NONE', ( #726, #16, #386, #616 ) ) ;
#673 = DIRECTION ( 'NONE',  ( -1.925807438297096906E-16, 1.000000000000000000, 0.000000000000000000 ) ) ;
#674 = DIRECTION ( 'NONE',  ( 1.000000000000000000, 1.836970198721283356E-16, 0.000000000000000000 ) ) ;
#675 = ORIENTED_EDGE ( 'NONE', *, *, #1042, .F. ) ;
#676 = DIRECTION ( 'NONE',  ( -1.836970198721283356E-16, 1.000000000000000000, 0.000000000000000000 ) ) ;
#677 = DIRECTION ( 'NONE',  ( -1.000000000000000000, -1.836970198721283356E-16, -0.000000000000000000 ) ) ;
#678 = DIRECTION ( 'NONE',  ( -1.000000000000000000, -1.836970198721283356E-16, -0.000000000000000000 ) ) ;
#679 = AXIS2_PLACEMENT_3D ( 'NONE', #384, #639, #545 ) ;
#680 = TOROIDAL_SURFACE ( 'NONE', #908, 29.99999999999999645, 3.500000000000000000 ) ;
#681 = EDGE_CURVE ( 'NONE', #487, #375, #436, .T. ) ;
#682 = CIRCLE ( 'NONE', #107, 4.999999999999997335 ) ;
#683 = AXIS2_PLACEMENT_3D ( 'NONE', #167, #652, #500 ) ;
#684 = CYLINDRICAL_SURFACE ( 'NONE', #720, 33.49999999999998579 ) ;
#685 = DIRECTION ( 'NONE',  ( -1.000000000000000000, 0.000000000000000000, 0.000000000000000000 ) ) ;
#686 = CYLINDRICAL_SURFACE ( 'NONE', #924, 33.49999999999998579 ) ;
#687 = CARTESIAN_POINT ( 'NONE',  ( 31.28151847792411289, 2.163611394040867307E-14, 0.000000000000000000 ) ) ;
#688 = DIRECTION ( 'NONE',  ( 0.000000000000000000, 0.000000000000000000, -1.000000000000000000 ) ) ;
#689 = CYLINDRICAL_SURFACE ( 'NONE', #894, 34.99999999999999289 ) ;
#690 = DIRECTION ( 'NONE',  ( 1.000000000000000000, 1.836970198721283356E-16, 0.000000000000000000 ) ) ;
#691 = DIRECTION ( 'NONE',  ( -1.000000000000000000, -1.836970198721283356E-16, -0.000000000000000000 ) ) ;
#692 = FACE_OUTER_BOUND ( 'NONE', #809, .T. ) ;
#693 = FACE_OUTER_BOUND ( 'NONE', #586, .T. ) ;
#694 = CIRCLE ( 'NONE', #333, 34.99999999999999289 ) ;
#695 = DIRECTION ( 'NONE',  ( -1.000000000000000000, -1.836970198721283356E-16, -0.000000000000000000 ) ) ;
#696 = CIRCLE ( 'NONE', #139, 3.499999999999999556 ) ;
#697 = CARTESIAN_POINT ( 'NONE',  ( -33.78151847792408091, -31.74999999999999289, 0.000000000000000000 ) ) ;
#698 = LINE ( 'NONE', #279, #486 ) ;
#699 = VECTOR ( 'NONE', #570, 1000.000000000000000 ) ;
#700 = ORIENTED_EDGE ( 'NONE', *, *, #681, .F. ) ;
#701 = ADVANCED_FACE ( 'NONE', ( #127 ), #1034, .F. ) ;
#702 = PERSON_AND_ORGANIZATION_ROLE ( 'creator' ) ;
#703 = CARTESIAN_POINT ( 'NONE',  ( 25.90587413090624480, 40.00000000000000711, 4.898587196589411448E-15 ) ) ;
#704 = DIRECTION ( 'NONE',  ( -1.000000000000000000, -1.836970198721283356E-16, -0.000000000000000000 ) ) ;
#705 = ORIENTED_EDGE ( 'NONE', *, *, #813, .T. ) ;
#706 = CARTESIAN_POINT ( 'NONE',  ( -33.78151847792408802, 9.684227947789208203E-15, 0.000000000000000000 ) ) ;
#707 = ORIENTED_EDGE ( 'NONE', *, *, #807, .T. ) ;
#708 = APPROVAL_DATE_TIME ( #51, #663 ) ;
#709 = DIRECTION ( 'NONE',  ( 0.8660254037844389297, -0.4999999999999995004, 6.123233995736762338E-17 ) ) ;
#710 = ORIENTED_EDGE ( 'NONE', *, *, #181, .F. ) ;
#711 = ORIENTED_EDGE ( 'NONE', *, *, #1001, .F. ) ;
#712 =( LENGTH_UNIT ( ) NAMED_UNIT ( * ) SI_UNIT ( .MILLI., .METRE. ) );
#713 = CYLINDRICAL_SURFACE ( 'NONE', #802, 31.75000000000000000 ) ;
#714 = CIRCLE ( 'NONE', #46, 3.500000000000003109 ) ;
#715 = APPROVAL_PERSON_ORGANIZATION ( #1022, #834, #609 ) ;
#716 = CARTESIAN_POINT ( 'NONE',  ( 86.50000000000000000, -36.49999999999993605, 0.000000000000000000 ) ) ;
#717 = CIRCLE ( 'NONE', #10, 36.49999999999997158 ) ;
#718 = CIRCLE ( 'NONE', #247, 34.99999999999999289 ) ;
#719 = VERTEX_POINT ( 'NONE', #777 ) ;
#720 = AXIS2_PLACEMENT_3D ( 'NONE', #438, #267, #520 ) ;
#721 = VERTEX_POINT ( 'NONE', #38 ) ;
#722 = DIRECTION ( 'NONE',  ( -1.925807438297096906E-16, 1.000000000000000000, 0.000000000000000000 ) ) ;
#723 = FACE_OUTER_BOUND ( 'NONE', #895, .T. ) ;
#724 = DIRECTION ( 'NONE',  ( -1.000000000000000000, -1.836970198721283356E-16, -0.000000000000000000 ) ) ;
#725 = ORIENTED_EDGE ( 'NONE', *, *, #843, .F. ) ;
#726 = ORIENTED_EDGE ( 'NONE', *, *, #654, .F. ) ;
#727 = DIRECTION ( 'NONE',  ( 0.8660254037844387076, 0.4999999999999998335, 0.000000000000000000 ) ) ;
#728 = VERTEX_POINT ( 'NONE', #697 ) ;
#729 = EDGE_CURVE ( 'NONE', #235, #308, #385, .T. ) ;
#730 = ORIENTED_EDGE ( 'NONE', *, *, #1, .T. ) ;
#731 = CARTESIAN_POINT ( 'NONE',  ( 33.19177251576849841, -36.70096189432329936, 4.494571550951204240E-15 ) ) ;
#732 = CARTESIAN_POINT ( 'NONE',  ( -33.78151847792408802, 9.684227947789208203E-15, 0.000000000000000000 ) ) ;
#733 = AXIS2_PLACEMENT_3D ( 'NONE', #434, #865, #760 ) ;
#734 = CIRCLE ( 'NONE', #784, 33.03108891324553298 ) ;
#735 = ADVANCED_FACE ( 'NONE', ( #785 ), #1054, .T. ) ;
#736 = VERTEX_POINT ( 'NONE', #851 ) ;
#737 = DIRECTION ( 'NONE',  ( -2.229661874974935408E-16, 1.000000000000000000, 0.000000000000000000 ) ) ;
#738 = CARTESIAN_POINT ( 'NONE',  ( -33.78151847792408802, 9.684227947789208203E-15, 0.000000000000000000 ) ) ;
#739 = EDGE_LOOP ( 'NONE', ( #725, #184, #635, #428 ) ) ;
#740 = ORIENTED_EDGE ( 'NONE', *, *, #266, .T. ) ;
#741 = CARTESIAN_POINT ( 'NONE',  ( -86.50000000000000000, 0.000000000000000000, 0.000000000000000000 ) ) ;
#742 = FACE_OUTER_BOUND ( 'NONE', #219, .T. ) ;
#743 = ADVANCED_FACE ( 'NONE', ( #119 ), #1023, .F. ) ;
#744 = ORIENTED_EDGE ( 'NONE', *, *, #265, .F. ) ;
#745 = ORIENTED_EDGE ( 'NONE', *, *, #533, .T. ) ;
#746 = DIRECTION ( 'NONE',  ( 1.836970198721283356E-16, -1.000000000000000000, 0.000000000000000000 ) ) ;
#747 = LOCAL_TIME ( 0, 4, 7.000000000000000000, #1012 ) ;
#748 = EDGE_LOOP ( 'NONE', ( #551, #222, #477, #4 ) ) ;
#749 = AXIS2_PLACEMENT_3D ( 'NONE', #120, #518, #772 ) ;
#750 = CIRCLE ( 'NONE', #610, 31.75000000000000000 ) ;
#751 = CARTESIAN_POINT ( 'NONE',  ( 25.90587413090625191, 2.064862409396903917E-14, 0.000000000000000000 ) ) ;
#752 = VECTOR ( 'NONE', #709, 1000.000000000000000 ) ;
#753 = ORIENTED_EDGE ( 'NONE', *, *, #537, .T. ) ;
#754 = PLANE ( 'NONE',  #52 ) ;
#755 = AXIS2_PLACEMENT_3D ( 'NONE', #499, #190, #345 ) ;
#756 = CONICAL_SURFACE ( 'NONE', #874, 36.70096189432332068, 0.5235987755982984826 ) ;
#757 = CARTESIAN_POINT ( 'NONE',  ( 86.50000000000000000, 38.00000000000000000, 0.000000000000000000 ) ) ;
#758 = ORIENTED_EDGE ( 'NONE', *, *, #540, .T. ) ;
#759 = DIRECTION ( 'NONE',  ( 1.000000000000000000, 1.836970198721283356E-16, 0.000000000000000000 ) ) ;
#760 = DIRECTION ( 'NONE',  ( -1.890657232332783473E-16, 1.000000000000000000, 0.000000000000000000 ) ) ;
#761 = EDGE_CURVE ( 'NONE', #64, #109, #27, .T. ) ;
#762 = DIRECTION ( 'NONE',  ( 1.000000000000000000, 1.836970198721283356E-16, 0.000000000000000000 ) ) ;
#763 = DIRECTION ( 'NONE',  ( -1.000000000000000000, -1.836970198721283356E-16, -0.000000000000000000 ) ) ;
#764 = CIRCLE ( 'NONE', #103, 35.66987298107778770 ) ;
#765 = DIRECTION ( 'NONE',  ( -2.140321125859186753E-16, 1.000000000000000000, 0.000000000000000000 ) ) ;
#766 = CIRCLE ( 'NONE', #350, 4.999999999999997335 ) ;
#767 = CC_DESIGN_APPROVAL ( #834, ( #1014 ) ) ;
#768 = DIRECTION ( 'NONE',  ( 1.836970198721283356E-16, -1.000000000000000000, 0.000000000000000000 ) ) ;
#769 = CC_DESIGN_PERSON_AND_ORGANIZATION_ASSIGNMENT ( #377, #1025, ( #273 ) ) ;
#770 = AXIS2_PLACEMENT_3D ( 'NONE', #522, #1018, #351 ) ;
#771 = AXIS2_PLACEMENT_3D ( 'NONE', #1011, #41, #765 ) ;
#772 = DIRECTION ( 'NONE',  ( -2.229661874974935408E-16, 1.000000000000000000, 0.000000000000000000 ) ) ;
#773 = PERSON ( 'UNSPECIFIED', 'UNSPECIFIED', 'UNSPECIFIED', ('UNSPECIFIED'), ('UNSPECIFIED'), ('UNSPECIFIED') ) ;
#774 = DIRECTION ( 'NONE',  ( 1.000000000000000000, 1.836970198721283356E-16, 0.000000000000000000 ) ) ;
#775 = APPLICATION_PROTOCOL_DEFINITION ( 'international standard', 'config_control_design', 1994, #50 ) ;
#776 = CARTESIAN_POINT ( 'NONE',  ( 32.03151847792410223, 36.03108891324554008, 0.000000000000000000 ) ) ;
#777 = CARTESIAN_POINT ( 'NONE',  ( 32.03151847792411644, -36.03108891324549745, 4.412535770739981192E-15 ) ) ;
#778 = CARTESIAN_POINT ( 'NONE',  ( -86.50000000000000000, -30.25000000000000000, 0.000000000000000000 ) ) ;
#779 = ADVANCED_FACE ( 'NONE', ( #723 ), #225, .T. ) ;
#780 = CARTESIAN_POINT ( 'NONE',  ( -86.50000000000000000, 0.000000000000000000, 0.000000000000000000 ) ) ;
#781 = CARTESIAN_POINT ( 'NONE',  ( 32.44177251576849841, -37.99999999999995737, 4.653657836759939574E-15 ) ) ;
#782 = CIRCLE ( 'NONE', #258, 33.49999999999998579 ) ;
#783 = AXIS2_PLACEMENT_3D ( 'NONE', #732, #116, #768 ) ;
#784 = AXIS2_PLACEMENT_3D ( 'NONE', #165, #383, #474 ) ;
#785 = FACE_OUTER_BOUND ( 'NONE', #985, .T. ) ;
#786 = DIRECTION ( 'NONE',  ( 0.000000000000000000, -1.000000000000000000, 1.224646799147354193E-16 ) ) ;
#787 = DIRECTION ( 'NONE',  ( 0.000000000000000000, 1.000000000000000000, 0.000000000000000000 ) ) ;
#788 = CIRCLE ( 'NONE', #409, 6.499999999999999112 ) ;
#789 = EDGE_LOOP ( 'NONE', ( #251, #194, #1045, #410 ) ) ;
#790 = PERSON_AND_ORGANIZATION_ROLE ( 'creator' ) ;
#791 = PRODUCT_DEFINITION_SHAPE ( 'NONE', 'NONE',  #1014 ) ;
#792 = CARTESIAN_POINT ( 'NONE',  ( -86.50000000000000000, 0.000000000000000000, 0.000000000000000000 ) ) ;
#793 = DIRECTION ( 'NONE',  ( -1.836970198721283356E-16, 1.000000000000000000, 0.000000000000000000 ) ) ;
#794 = ORIENTED_EDGE ( 'NONE', *, *, #568, .T. ) ;
#795 = DIRECTION ( 'NONE',  ( -1.000000000000000000, -1.836970198721283356E-16, -0.000000000000000000 ) ) ;
#796 = CARTESIAN_POINT ( 'NONE',  ( -86.50000000000000000, 1.807682597370719933E-62, 0.000000000000000000 ) ) ;
#797 = ORIENTED_EDGE ( 'NONE', *, *, #636, .T. ) ;
#798 = EDGE_LOOP ( 'NONE', ( #845, #744, #497, #812 ) ) ;
#799 = DIRECTION ( 'NONE',  ( -1.000000000000000000, 0.000000000000000000, 0.000000000000000000 ) ) ;
#800 = AXIS2_PLACEMENT_3D ( 'NONE', #360, #691, #133 ) ;
#801 = CARTESIAN_POINT ( 'NONE',  ( -86.50000000000000000, 33.49999999999998579, 4.102566777143632196E-15 ) ) ;
#802 = AXIS2_PLACEMENT_3D ( 'NONE', #543, #795, #633 ) ;
#803 = ORIENTED_EDGE ( 'NONE', *, *, #811, .F. ) ;
#804 = AXIS2_PLACEMENT_3D ( 'NONE', #741, #1000, #23 ) ;
#805 = AXIS2_PLACEMENT_3D ( 'NONE', #660, #913, #920 ) ;
#806 = CARTESIAN_POINT ( 'NONE',  ( 32.44177251576848420, 38.00000000000000000, 0.000000000000000000 ) ) ;
#807 = EDGE_CURVE ( 'NONE', #375, #487, #557, .T. ) ;
#808 = ORIENTED_EDGE ( 'NONE', *, *, #1048, .F. ) ;
#809 = EDGE_LOOP ( 'NONE', ( #1053, #594, #753, #305 ) ) ;
#810 = CARTESIAN_POINT ( 'NONE',  ( 33.78151847792411644, -32.99999999999995026, 4.041334437186262256E-15 ) ) ;
#811 = EDGE_CURVE ( 'NONE', #736, #99, #85, .T. ) ;
#812 = ORIENTED_EDGE ( 'NONE', *, *, #115, .F. ) ;
#813 = EDGE_CURVE ( 'NONE', #235, #890, #766, .T. ) ;
#814 = CARTESIAN_POINT ( 'NONE',  ( 33.78151847792409512, 37.99999999999999289, 4.653657836759938785E-15 ) ) ;
#815 = ORIENTED_EDGE ( 'NONE', *, *, #237, .T. ) ;
#816 = FACE_OUTER_BOUND ( 'NONE', #914, .T. ) ;
#817 = FACE_OUTER_BOUND ( 'NONE', #215, .T. ) ;
#818 = VECTOR ( 'NONE', #528, 1000.000000000000000 ) ;
#819 = VERTEX_POINT ( 'NONE', #199 ) ;
#820 = VECTOR ( 'NONE', #727, 1000.000000000000000 ) ;
#821 = AXIS2_PLACEMENT_3D ( 'NONE', #322, #759, #246 ) ;
#822 = DIRECTION ( 'NONE',  ( 1.000000000000000000, 1.836970198721283356E-16, 0.000000000000000000 ) ) ;
#823 = ORIENTED_EDGE ( 'NONE', *, *, #440, .T. ) ;
#824 = TOROIDAL_SURFACE ( 'NONE', #437, 32.99999999999997158, 3.500000000000000000 ) ;
#825 = CARTESIAN_POINT ( 'NONE',  ( -30.53151847792407736, -31.12083487540113680, 3.928172406345554968E-15 ) ) ;
#826 = CARTESIAN_POINT ( 'NONE',  ( -86.50000000000000000, -33.49999999999998579, 0.000000000000000000 ) ) ;
#827 = ORIENTED_EDGE ( 'NONE', *, *, #162, .F. ) ;
#828 = CARTESIAN_POINT ( 'NONE',  ( 25.90587413090625191, 2.064862409396903917E-14, 0.000000000000000000 ) ) ;
#829 = ADVANCED_FACE ( 'NONE', ( #692 ), #292, .T. ) ;
#830 = ORIENTED_EDGE ( 'NONE', *, *, #238, .T. ) ;
#831 = DIRECTION ( 'NONE',  ( 1.000000000000000000, 1.836970198721283356E-16, 0.000000000000000000 ) ) ;
#832 = EDGE_LOOP ( 'NONE', ( #296, #808, #925, #653 ) ) ;
#833 = CARTESIAN_POINT ( 'NONE',  ( 32.44177251576849130, 2.184924914945528913E-14, 0.000000000000000000 ) ) ;
#834 = APPROVAL ( #364, 'UNSPECIFIED' ) ;
#835 = CIRCLE ( 'NONE', #749, 31.12083487540114746 ) ;
#836 = AXIS2_PLACEMENT_3D ( 'NONE', #687, #704, #606 ) ;
#837 = LINE ( 'NONE', #898, #356 ) ;
#838 = AXIS2_PLACEMENT_3D ( 'NONE', #978, #316, #479 ) ;
#839 = ORIENTED_EDGE ( 'NONE', *, *, #859, .T. ) ;
#840 = CONICAL_SURFACE ( 'NONE', #975, 37.99999999999997868, 0.5235987755982984826 ) ;
#841 = DIRECTION ( 'NONE',  ( 1.000000000000000000, 1.836970198721283356E-16, 0.000000000000000000 ) ) ;
#842 = AXIS2_PLACEMENT_3D ( 'NONE', #938, #677, #848 ) ;
#843 = EDGE_CURVE ( 'NONE', #622, #287, #714, .T. ) ;
#844 = CARTESIAN_POINT ( 'NONE',  ( 25.90587413090625191, 2.064862409396903917E-14, 0.000000000000000000 ) ) ;
#845 = ORIENTED_EDGE ( 'NONE', *, *, #12, .F. ) ;
#846 = DIRECTION ( 'NONE',  ( -1.000000000000000000, -1.836970198721283356E-16, -0.000000000000000000 ) ) ;
#847 = UNCERTAINTY_MEASURE_WITH_UNIT (LENGTH_MEASURE( 1.000000000000000082E-05 ), #712, 'distance_accuracy_value', 'NONE');
#848 = DIRECTION ( 'NONE',  ( 3.652049423109070292E-16, -1.000000000000000000, 0.000000000000000000 ) ) ;
#849 = CARTESIAN_POINT ( 'NONE',  ( -86.49999999999998579, -37.99999999999997158, 0.000000000000000000 ) ) ;
#850 = DIRECTION ( 'NONE',  ( 2.249639673993097051E-32, -1.224646799147353207E-16, 1.000000000000000000 ) ) ;
#851 = CARTESIAN_POINT ( 'NONE',  ( 31.28151847792411644, -37.33012701892215546, 4.571622056548717315E-15 ) ) ;
#852 = DIRECTION ( 'NONE',  ( 0.000000000000000000, -1.000000000000000000, 1.224646799147351728E-16 ) ) ;
#853 = AXIS2_PLACEMENT_3D ( 'NONE', #651, #358, #263 ) ;
#854 = DIRECTION ( 'NONE',  ( -1.000000000000000000, -1.836970198721283356E-16, -0.000000000000000000 ) ) ;
#855 = CIRCLE ( 'NONE', #515, 5.000000000000000888 ) ;
#856 = CC_DESIGN_DATE_AND_TIME_ASSIGNMENT ( #1033, #521, ( #1014 ) ) ;
#857 = TOROIDAL_SURFACE ( 'NONE', #853, 36.75000000000000000, 5.000000000000000000 ) ;
#858 = DIRECTION ( 'NONE',  ( 2.293849224432141368E-16, -1.000000000000000000, 0.000000000000000000 ) ) ;
#859 = EDGE_CURVE ( 'NONE', #141, #376, #835, .T. ) ;
#860 = AXIS2_PLACEMENT_3D ( 'NONE', #114, #674, #366 ) ;
#861 = DIRECTION ( 'NONE',  ( -1.000000000000000000, -1.836970198721283356E-16, -0.000000000000000000 ) ) ;
#862 = CARTESIAN_POINT ( 'NONE',  ( 33.78151847792410933, 36.49999999999999289, 4.469960816887835274E-15 ) ) ;
#863 = DATE_AND_TIME ( #457, #953 ) ;
#864 = DIRECTION ( 'NONE',  ( 0.8660254037844384856, 0.5000000000000001110, 0.000000000000000000 ) ) ;
#865 = DIRECTION ( 'NONE',  ( 1.000000000000000000, 1.836970198721283356E-16, 0.000000000000000000 ) ) ;
#866 = COORDINATED_UNIVERSAL_TIME_OFFSET ( 1, 0, .AHEAD. ) ;
#867 = CARTESIAN_POINT ( 'NONE',  ( 33.78151847792411644, 2.209535649008899614E-14, 0.000000000000000000 ) ) ;
#868 = ORIENTED_EDGE ( 'NONE', *, *, #562, .T. ) ;
#869 = ORIENTED_EDGE ( 'NONE', *, *, #238, .F. ) ;
#870 = DIRECTION ( 'NONE',  ( 1.000000000000000000, 0.000000000000000000, 0.000000000000000000 ) ) ;
#871 = CONICAL_SURFACE ( 'NONE', #733, 36.70096189432332068, 0.5235987755982984826 ) ;
#872 = AXIS2_PLACEMENT_3D ( 'NONE', #561, #61, #885 ) ;
#873 = CARTESIAN_POINT ( 'NONE',  ( -86.50000000000000000, 36.49999999999997158, 4.469960816887835274E-15 ) ) ;
#874 = AXIS2_PLACEMENT_3D ( 'NONE', #8, #841, #177 ) ;
#875 = VERTEX_POINT ( 'NONE', #1009 ) ;
#876 = EDGE_CURVE ( 'NONE', #308, #1064, #855, .T. ) ;
#877 = CARTESIAN_POINT ( 'NONE',  ( 33.78151847792410933, 2.209535649008899299E-14, 0.000000000000000000 ) ) ;
#878 = ORIENTED_EDGE ( 'NONE', *, *, #589, .T. ) ;
#879 = CARTESIAN_POINT ( 'NONE',  ( 33.19177251576848420, 36.70096189432334199, 0.000000000000000000 ) ) ;
#880 = CARTESIAN_POINT ( 'NONE',  ( 29.15587413090625901, 2.124563940855345821E-14, 0.000000000000000000 ) ) ;
#881 = CARTESIAN_POINT ( 'NONE',  ( -27.97286142901400652, 1.075126093713322121E-14, 0.000000000000000000 ) ) ;
#882 = EDGE_CURVE ( 'NONE', #666, #657, #892, .T. ) ;
#883 = VERTEX_POINT ( 'NONE', #268 ) ;
#884 = APPROVAL_ROLE ( '' ) ;
#885 = DIRECTION ( 'NONE',  ( -1.000000000000000000, 0.000000000000000000, 0.000000000000000000 ) ) ;
#886 = CARTESIAN_POINT ( 'NONE',  ( -33.78151847792408802, 9.684227947789208203E-15, 0.000000000000000000 ) ) ;
#887 = ORIENTED_EDGE ( 'NONE', *, *, #123, .F. ) ;
#888 = CALENDAR_DATE ( 2026, 16, 9 ) ;
#889 = LOCAL_TIME ( 0, 4, 7.000000000000000000, #970 ) ;
#890 = VERTEX_POINT ( 'NONE', #605 ) ;
#891 = LINE ( 'NONE', #806, #820 ) ;
#892 = CIRCLE ( 'NONE', #69, 30.25000000000000000 ) ;
#893 = EDGE_LOOP ( 'NONE', ( #31, #643, #498, #153 ) ) ;
#894 = AXIS2_PLACEMENT_3D ( 'NONE', #511, #29, #192 ) ;
#895 = EDGE_LOOP ( 'NONE', ( #954, #1030, #309, #711 ) ) ;
#896 = DIRECTION ( 'NONE',  ( 1.836970198721283602E-16, -1.000000000000000000, 0.000000000000000000 ) ) ;
#897 = VERTEX_POINT ( 'NONE', #936 ) ;
#898 = CARTESIAN_POINT ( 'NONE',  ( -86.50000000000001421, 37.99999999999997158, 4.653657836759938785E-15 ) ) ;
#899 = ORIENTED_EDGE ( 'NONE', *, *, #761, .T. ) ;
#900 = EDGE_CURVE ( 'NONE', #890, #1064, #694, .T. ) ;
#901 = SHAPE_DEFINITION_REPRESENTATION ( #791, #997 ) ;
#902 = ORIENTED_EDGE ( 'NONE', *, *, #573, .F. ) ;
#903 = DIRECTION ( 'NONE',  ( 1.000000000000000000, 1.836970198721283356E-16, 0.000000000000000000 ) ) ;
#904 = CARTESIAN_POINT ( 'NONE',  ( -26.81260739116963521, 1.096439614617983728E-14, 0.000000000000000000 ) ) ;
#905 = AXIS2_PLACEMENT_3D ( 'NONE', #196, #284, #459 ) ;
#906 = AXIS2_PLACEMENT_3D ( 'NONE', #877, #617, #129 ) ;
#907 = ORIENTED_EDGE ( 'NONE', *, *, #48, .T. ) ;
#908 = AXIS2_PLACEMENT_3D ( 'NONE', #527, #690, #274 ) ;
#909 = ADVANCED_FACE ( 'NONE', ( #491 ), #155, .T. ) ;
#910 = AXIS2_PLACEMENT_3D ( 'NONE', #968, #566, #161 ) ;
#911 = LINE ( 'NONE', #992, #1006 ) ;
#912 = VERTEX_POINT ( 'NONE', #172 ) ;
#913 = DIRECTION ( 'NONE',  ( 1.000000000000000000, 1.836970198721283356E-16, 0.000000000000000000 ) ) ;
#914 = EDGE_LOOP ( 'NONE', ( #991, #403, #461, #1065 ) ) ;
#915 = EDGE_LOOP ( 'NONE', ( #530, #239, #999, #569 ) ) ;
#916 = DIRECTION ( 'NONE',  ( 0.000000000000000000, -1.000000000000000000, -1.224646799147354193E-16 ) ) ;
#917 = ORIENTED_EDGE ( 'NONE', *, *, #19, .F. ) ;
#918 = FACE_OUTER_BOUND ( 'NONE', #221, .T. ) ;
#919 = ORIENTED_EDGE ( 'NONE', *, *, #191, .F. ) ;
#920 = DIRECTION ( 'NONE',  ( -2.140321125859186753E-16, 1.000000000000000000, 0.000000000000000000 ) ) ;
#921 = TOROIDAL_SURFACE ( 'NONE', #593, 29.99999999999999645, 5.000000000000000000 ) ;
#922 = VECTOR ( 'NONE', #961, 1000.000000000000000 ) ;
#923 = DIRECTION ( 'NONE',  ( -1.000000000000000000, -1.836970198721283356E-16, -0.000000000000000000 ) ) ;
#924 = AXIS2_PLACEMENT_3D ( 'NONE', #933, #43, #532 ) ;
#925 = ORIENTED_EDGE ( 'NONE', *, *, #1026, .T. ) ;
#926 = CIRCLE ( 'NONE', #473, 36.03108891324551877 ) ;
#927 = LINE ( 'NONE', #781, #988 ) ;
#928 = CARTESIAN_POINT ( 'NONE',  ( -27.22286142901401362, 33.03108891324554719, 0.000000000000000000 ) ) ;
#929 = AXIS2_PLACEMENT_3D ( 'NONE', #101, #831, #324 ) ;
#930 = ADVANCED_FACE ( 'NONE', ( #817 ), #9, .T. ) ;
#931 = DIRECTION ( 'NONE',  ( -1.000000000000000000, -1.836970198721283356E-16, -0.000000000000000000 ) ) ;
#932 = DIRECTION ( 'NONE',  ( -1.945309395295067220E-16, 1.000000000000000000, 0.000000000000000000 ) ) ;
#933 = CARTESIAN_POINT ( 'NONE',  ( -86.50000000000000000, 0.000000000000000000, 0.000000000000000000 ) ) ;
#934 = CC_DESIGN_PERSON_AND_ORGANIZATION_ASSIGNMENT ( #631, #790, ( #1014 ) ) ;
#935 = DIRECTION ( 'NONE',  ( 2.071311613106636139E-16, -1.000000000000000000, 0.000000000000000000 ) ) ;
#936 = CARTESIAN_POINT ( 'NONE',  ( 25.90587413090624480, 35.00000000000000711, 4.286263797015735707E-15 ) ) ;
#937 = LOCAL_TIME ( 0, 4, 7.000000000000000000, #552 ) ;
#938 = CARTESIAN_POINT ( 'NONE',  ( -86.50000000000000000, 0.000000000000000000, 0.000000000000000000 ) ) ;
#939 = FACE_OUTER_BOUND ( 'NONE', #789, .T. ) ;
#940 = AXIS2_PLACEMENT_3D ( 'NONE', #881, #1040, #301 ) ;
#941 = AXIS2_PLACEMENT_3D ( 'NONE', #867, #53, #212 ) ;
#942 = CARTESIAN_POINT ( 'NONE',  ( -86.50000000000000000, -36.49999999999997158, 0.000000000000000000 ) ) ;
#943 = AXIS2_PLACEMENT_3D ( 'NONE', #844, #923, #592 ) ;
#944 = FACE_OUTER_BOUND ( 'NONE', #571, .T. ) ;
#945 = PRODUCT_RELATED_PRODUCT_CATEGORY ( 'detail', '', ( #971 ) ) ;
#946 = CARTESIAN_POINT ( 'NONE',  ( -86.50000000000000000, 31.75000000000000000, 3.888253587292846476E-15 ) ) ;
#947 = CARTESIAN_POINT ( 'NONE',  ( 28.40587413090626612, -35.66987298107776638, 4.469960816887836852E-15 ) ) ;
#948 = ORIENTED_EDGE ( 'NONE', *, *, #670, .T. ) ;
#949 = DIRECTION ( 'NONE',  ( -1.826024711554535146E-16, 1.000000000000000000, 0.000000000000000000 ) ) ;
#950 = ADVANCED_FACE ( 'NONE', ( #195 ), #368, .T. ) ;
#951 = DIRECTION ( 'NONE',  ( 1.000000000000000000, 1.836970198721283356E-16, 0.000000000000000000 ) ) ;
#952 = DIRECTION ( 'NONE',  ( -1.000000000000000000, -1.836970198721283356E-16, -0.000000000000000000 ) ) ;
#953 = LOCAL_TIME ( 0, 4, 7.000000000000000000, #60 ) ;
#954 = ORIENTED_EDGE ( 'NONE', *, *, #34, .T. ) ;
#955 = APPLICATION_PROTOCOL_DEFINITION ( 'international standard', 'config_control_design', 1994, #362 ) ;
#956 = AXIS2_PLACEMENT_3D ( 'NONE', #55, #951, #374 ) ;
#957 = EDGE_LOOP ( 'NONE', ( #314, #669, #163, #398 ) ) ;
#958 = TOROIDAL_SURFACE ( 'NONE', #906, 32.99999999999997158, 3.500000000000000000 ) ;
#959 = DIRECTION ( 'NONE',  ( -1.000000000000000000, -1.836970198721283356E-16, -0.000000000000000000 ) ) ;
#960 = CIRCLE ( 'NONE', #838, 30.25000000000000000 ) ;
#961 = DIRECTION ( 'NONE',  ( -1.000000000000000000, -1.836970198721283356E-16, -0.000000000000000000 ) ) ;
#962 = VECTOR ( 'NONE', #1003, 1000.000000000000000 ) ;
#963 = ORIENTED_EDGE ( 'NONE', *, *, #237, .F. ) ;
#964 = DIRECTION ( 'NONE',  ( 2.071311613106636139E-16, -1.000000000000000000, 0.000000000000000000 ) ) ;
#965 = FACE_OUTER_BOUND ( 'NONE', #166, .T. ) ;
#966 = EDGE_LOOP ( 'NONE', ( #252, #560, #1043, #93 ) ) ;
#967 = VERTEX_POINT ( 'NONE', #3 ) ;
#968 = CARTESIAN_POINT ( 'NONE',  ( 33.78151847792410223, 32.99999999999999289, 0.000000000000000000 ) ) ;
#969 = EDGE_LOOP ( 'NONE', ( #675, #899, #1049, #794 ) ) ;
#970 = COORDINATED_UNIVERSAL_TIME_OFFSET ( 1, 0, .AHEAD. ) ;
#971 = PRODUCT ( '79-8548 - Stegmuff. 76-70-63.5', '79-8548 - Stegmuff. 76-70-63.5', '', ( #125 ) ) ;
#972 = EDGE_CURVE ( 'NONE', #329, #287, #323, .T. ) ;
#973 = DIRECTION ( 'NONE',  ( -1.000000000000000000, -1.836970198721283356E-16, -0.000000000000000000 ) ) ;
#974 = AXIS2_PLACEMENT_3D ( 'NONE', #415, #1005, #25 ) ;
#975 = AXIS2_PLACEMENT_3D ( 'NONE', #833, #170, #257 ) ;
#976 = ORIENTED_EDGE ( 'NONE', *, *, #414, .F. ) ;
#977 = FACE_OUTER_BOUND ( 'NONE', #832, .T. ) ;
#978 = CARTESIAN_POINT ( 'NONE',  ( -86.50000000000000000, 1.807682597370719933E-62, 0.000000000000000000 ) ) ;
#979 = DIRECTION ( 'NONE',  ( 1.000000000000000000, 1.836970198721283356E-16, 0.000000000000000000 ) ) ;
#980 = EDGE_CURVE ( 'NONE', #381, #622, #186, .T. ) ;
#981 = EDGE_LOOP ( 'NONE', ( #472, #546, #113, #1020 ) ) ;
#982 = FACE_OUTER_BOUND ( 'NONE', #554, .T. ) ;
#983 = DIRECTION ( 'NONE',  ( 1.000000000000000000, 1.836970198721283356E-16, 0.000000000000000000 ) ) ;
#984 = ADVANCED_FACE ( 'NONE', ( #742 ), #313, .T. ) ;
#985 = EDGE_LOOP ( 'NONE', ( #495, #705, #963, #178 ) ) ;
#986 = DIRECTION ( 'NONE',  ( -1.000000000000000000, -1.836970198721283356E-16, 0.000000000000000000 ) ) ;
#987 = ORIENTED_EDGE ( 'NONE', *, *, #378, .F. ) ;
#988 = VECTOR ( 'NONE', #367, 1000.000000000000000 ) ;
#989 = DIRECTION ( 'NONE',  ( -1.000000000000000000, 0.000000000000000000, 0.000000000000000000 ) ) ;
#990 = FACE_OUTER_BOUND ( 'NONE', #1021, .T. ) ;
#991 = ORIENTED_EDGE ( 'NONE', *, *, #562, .F. ) ;
#992 = CARTESIAN_POINT ( 'NONE',  ( -26.06260739116962455, -33.70096189432332068, 4.127177511206998795E-15 ) ) ;
#993 = ORIENTED_EDGE ( 'NONE', *, *, #123, .T. ) ;
#994 = AXIS2_PLACEMENT_3D ( 'NONE', #98, #320, #422 ) ;
#995 = CARTESIAN_POINT ( 'NONE',  ( 33.78151847792410933, 2.209535649008899299E-14, 0.000000000000000000 ) ) ;
#996 = ORIENTED_EDGE ( 'NONE', *, *, #106, .F. ) ;
#997 = ADVANCED_BREP_SHAPE_REPRESENTATION ( '79-8548 - Stegmuff. 76-70-63.5', ( #254, #1031 ), #330 ) ;
#998 = CARTESIAN_POINT ( 'NONE',  ( 33.78151847792410223, 2.209535649008899299E-14, 0.000000000000000000 ) ) ;
#999 = ORIENTED_EDGE ( 'NONE', *, *, #729, .T. ) ;
#1000 = DIRECTION ( 'NONE',  ( -1.000000000000000000, -1.836970198721283356E-16, -0.000000000000000000 ) ) ;
#1001 = EDGE_CURVE ( 'NONE', #883, #967, #348, .T. ) ;
#1002 = AXIS2_PLACEMENT_3D ( 'NONE', #796, #628, #787 ) ;
#1003 = DIRECTION ( 'NONE',  ( -1.000000000000000000, -1.836970198721283356E-16, -0.000000000000000000 ) ) ;
#1004 = VECTOR ( 'NONE', #462, 1000.000000000000000 ) ;
#1005 = DIRECTION ( 'NONE',  ( -1.000000000000000000, -1.836970198721283356E-16, -0.000000000000000000 ) ) ;
#1006 = VECTOR ( 'NONE', #92, 1000.000000000000000 ) ;
#1007 = DIRECTION ( 'NONE',  ( -1.000000000000000000, -1.836970198721283356E-16, -0.000000000000000000 ) ) ;
#1008 = DIRECTION ( 'NONE',  ( -2.018831933836243556E-16, 1.000000000000000000, 0.000000000000000000 ) ) ;
#1009 = CARTESIAN_POINT ( 'NONE',  ( -86.50000000000000000, 30.25000000000000000, 3.704556567420743754E-15 ) ) ;
#1010 = EDGE_CURVE ( 'NONE', #721, #75, #1056, .T. ) ;
#1011 = CARTESIAN_POINT ( 'NONE',  ( -31.28151847792408446, 1.014347049746952969E-14, 0.000000000000000000 ) ) ;
#1012 = COORDINATED_UNIVERSAL_TIME_OFFSET ( 1, 0, .AHEAD. ) ;
#1013 = CARTESIAN_POINT ( 'NONE',  ( -30.53151847792408802, 31.12083487540115811, 0.000000000000000000 ) ) ;
#1014 = PRODUCT_DEFINITION ( 'UNKNOWN', '', #273, #361 ) ;
#1015 = CARTESIAN_POINT ( 'NONE',  ( 25.90587413090625191, 2.064862409396903917E-14, 0.000000000000000000 ) ) ;
#1016 = AXIS2_PLACEMENT_3D ( 'NONE', #904, #762, #567 ) ;
#1017 = DIRECTION ( 'NONE',  ( 1.982541115402065603E-16, -1.000000000000000000, 0.000000000000000000 ) ) ;
#1018 = DIRECTION ( 'NONE',  ( 1.000000000000000000, 1.836970198721283356E-16, 0.000000000000000000 ) ) ;
#1019 = CARTESIAN_POINT ( 'NONE',  ( -33.78151847792408091, -30.24999999999998934, 0.000000000000000000 ) ) ;
#1020 = ORIENTED_EDGE ( 'NONE', *, *, #236, .F. ) ;
#1021 = EDGE_LOOP ( 'NONE', ( #143, #325, #976, #454 ) ) ;
#1022 = PERSON_AND_ORGANIZATION ( #773, #347 ) ;
#1023 = CYLINDRICAL_SURFACE ( 'NONE', #207, 36.49999999999997158 ) ;
#1024 = ORIENTED_EDGE ( 'NONE', *, *, #455, .T. ) ;
#1025 = PERSON_AND_ORGANIZATION_ROLE ( 'design_supplier' ) ;
#1026 = EDGE_CURVE ( 'NONE', #659, #64, #646, .T. ) ;
#1027 = ORIENTED_EDGE ( 'NONE', *, *, #431, .T. ) ;
#1028 = FACE_BOUND ( 'NONE', #249, .T. ) ;
#1029 = ADVANCED_FACE ( 'NONE', ( #990 ), #857, .F. ) ;
#1030 = ORIENTED_EDGE ( 'NONE', *, *, #513, .T. ) ;
#1031 = AXIS2_PLACEMENT_3D ( 'NONE', #542, #526, #870 ) ;
#1032 = ORIENTED_EDGE ( 'NONE', *, *, #20, .F. ) ;
#1033 = DATE_AND_TIME ( #209, #747 ) ;
#1034 = TOROIDAL_SURFACE ( 'NONE', #245, 39.99999999999998579, 5.000000000000000000 ) ;
#1035 = EDGE_LOOP ( 'NONE', ( #797, #228 ) ) ;
#1036 = CIRCLE ( 'NONE', #117, 34.99999999999999289 ) ;
#1037 = AXIS2_PLACEMENT_3D ( 'NONE', #134, #291, #392 ) ;
#1038 = CARTESIAN_POINT ( 'NONE',  ( -26.06260739116963165, 1.110216891108393325E-14, 0.000000000000000000 ) ) ;
#1039 = EDGE_CURVE ( 'NONE', #109, #64, #764, .T. ) ;
#1040 = DIRECTION ( 'NONE',  ( -1.000000000000000000, -1.836970198721283356E-16, -0.000000000000000000 ) ) ;
#1041 = CIRCLE ( 'NONE', #860, 33.49999999999998579 ) ;
#1042 = EDGE_CURVE ( 'NONE', #64, #736, #927, .T. ) ;
#1043 = ORIENTED_EDGE ( 'NONE', *, *, #584, .T. ) ;
#1044 = CALENDAR_DATE ( 2026, 16, 9 ) ;
#1045 = ORIENTED_EDGE ( 'NONE', *, *, #300, .T. ) ;
#1046 = DIRECTION ( 'NONE',  ( -1.000000000000000000, 0.000000000000000000, 0.000000000000000000 ) ) ;
#1047 = CARTESIAN_POINT ( 'NONE',  ( -26.81260739116964231, 35.00000000000000000, 0.000000000000000000 ) ) ;
#1048 = EDGE_CURVE ( 'NONE', #659, #897, #1036, .T. ) ;
#1049 = ORIENTED_EDGE ( 'NONE', *, *, #198, .T. ) ;
#1050 = ADVANCED_FACE ( 'NONE', ( #939 ), #958, .F. ) ;
#1051 = ORIENTED_EDGE ( 'NONE', *, *, #79, .T. ) ;
#1052 = DIRECTION ( 'NONE',  ( -1.000000000000000000, -1.836970198721283356E-16, -0.000000000000000000 ) ) ;
#1053 = ORIENTED_EDGE ( 'NONE', *, *, #665, .F. ) ;
#1054 = TOROIDAL_SURFACE ( 'NONE', #956, 29.99999999999999645, 5.000000000000000000 ) ;
#1055 = DIRECTION ( 'NONE',  ( 0.000000000000000000, 0.000000000000000000, -1.000000000000000000 ) ) ;
#1056 = CIRCLE ( 'NONE', #49, 31.75000000000000000 ) ;
#1057 = CARTESIAN_POINT ( 'NONE',  ( 33.78151847792410933, 2.209535649008899299E-14, 0.000000000000000000 ) ) ;
#1058 = CIRCLE ( 'NONE', #755, 30.25000000000000000 ) ;
#1059 = CARTESIAN_POINT ( 'NONE',  ( -86.50000000000000000, -31.75000000000000000, 0.000000000000000000 ) ) ;
#1060 = ORIENTED_EDGE ( 'NONE', *, *, #599, .F. ) ;
#1061 = FACE_OUTER_BOUND ( 'NONE', #748, .T. ) ;
#1062 = EDGE_CURVE ( 'NONE', #469, #967, #7, .T. ) ;
#1063 = DIRECTION ( 'NONE',  ( -1.000000000000000000, -1.836970198721283356E-16, -0.000000000000000000 ) ) ;
#1064 = VERTEX_POINT ( 'NONE', #439 ) ;
#1065 = ORIENTED_EDGE ( 'NONE', *, *, #230, .T. ) ;
ENDSEC;
END-ISO-10303-21;
