ISO-10303-21;
HEADER;
FILE_DESCRIPTION (( 'STEP AP203' ),
    '1' );
FILE_NAME ('79-8476 - Stegmuff. 63.5-60-54.STEP',
    '2026-09-15T22:04:06',
    ( '' ),
    ( '' ),
    'SwSTEP 2.0',
    'SolidWorks 2026',
    '' );
FILE_SCHEMA (( 'CONFIG_CONTROL_DESIGN' ));
ENDSEC;

DATA;
#1 = CARTESIAN_POINT ( 'NONE',  ( -32.41549307413966829, 27.00000000000000000, 3.306546357697851761E-15 ) ) ;
#2 = DIRECTION ( 'NONE',  ( 0.000000000000000000, 1.000000000000000000, 0.000000000000000000 ) ) ;
#3 =( LENGTH_UNIT ( ) NAMED_UNIT ( * ) SI_UNIT ( .MILLI., .METRE. ) );
#4 = ORIENTED_EDGE ( 'NONE', *, *, #653, .F. ) ;
#5 = LINE ( 'NONE', #658, #6 ) ;
#6 = VECTOR ( 'NONE', #16, 1000.000000000000000 ) ;
#7 = FACE_OUTER_BOUND ( 'NONE', #741, .T. ) ;
#8 = ADVANCED_FACE ( 'NONE', ( #1022, #541 ), #956, .F. ) ;
#9 = CIRCLE ( 'NONE', #953, 31.74999999999998579 ) ;
#10 = AXIS2_PLACEMENT_3D ( 'NONE', #697, #118, #944 ) ;
#11 = FACE_OUTER_BOUND ( 'NONE', #97, .T. ) ;
#12 = AXIS2_PLACEMENT_3D ( 'NONE', #150, #55, #713 ) ;
#13 = AXIS2_PLACEMENT_3D ( 'NONE', #710, #890, #398 ) ;
#14 = ORIENTED_EDGE ( 'NONE', *, *, #954, .F. ) ;
#15 = CIRCLE ( 'NONE', #410, 27.66987298107779125 ) ;
#16 = DIRECTION ( 'NONE',  ( -1.000000000000000000, 3.241712115390480395E-18, -0.000000000000000000 ) ) ;
#17 = LINE ( 'NONE', #285, #622 ) ;
#18 = EDGE_CURVE ( 'NONE', #854, #856, #218, .T. ) ;
#19 = ORIENTED_EDGE ( 'NONE', *, *, #351, .T. ) ;
#20 = DIRECTION ( 'NONE',  ( 3.241712115390480395E-18, 1.000000000000000000, 0.000000000000000000 ) ) ;
#21 = ORIENTED_EDGE ( 'NONE', *, *, #41, .T. ) ;
#22 = AXIS2_PLACEMENT_3D ( 'NONE', #647, #49, #53 ) ;
#23 = CARTESIAN_POINT ( 'NONE',  ( 0.000000000000000000, 0.000000000000000000, 0.000000000000000000 ) ) ;
#24 = ORIENTED_EDGE ( 'NONE', *, *, #268, .F. ) ;
#25 = CIRCLE ( 'NONE', #258, 30.24999999999998579 ) ;
#26 = AXIS2_PLACEMENT_3D ( 'NONE', #946, #200, #750 ) ;
#27 = AXIS2_PLACEMENT_3D ( 'NONE', #797, #728, #1047 ) ;
#28 = CARTESIAN_POINT ( 'NONE',  ( -32.41549307413966829, 32.00000000000000000, 3.918869757271528685E-15 ) ) ;
#29 = ORIENTED_EDGE ( 'NONE', *, *, #538, .T. ) ;
#30 = CIRCLE ( 'NONE', #1009, 30.24999999999998579 ) ;
#31 = VECTOR ( 'NONE', #306, 1000.000000000000000 ) ;
#32 = ADVANCED_FACE ( 'NONE', ( #122 ), #336, .T. ) ;
#33 = ORIENTED_EDGE ( 'NONE', *, *, #344, .T. ) ;
#34 = CARTESIAN_POINT ( 'NONE',  ( -24.53984872712181797, 1.271673682641114733E-14, 0.000000000000000000 ) ) ;
#35 = EDGE_CURVE ( 'NONE', #736, #425, #943, .T. ) ;
#36 = ORIENTED_EDGE ( 'NONE', *, *, #585, .T. ) ;
#37 = CARTESIAN_POINT ( 'NONE',  ( -32.41549307413966829, 25.50000000000000000, 3.122849337825748645E-15 ) ) ;
#38 = EDGE_LOOP ( 'NONE', ( #189, #21, #966, #529 ) ) ;
#39 = CARTESIAN_POINT ( 'NONE',  ( -24.53984872712181797, 1.271673682641114733E-14, 0.000000000000000000 ) ) ;
#40 = DIRECTION ( 'NONE',  ( -1.000000000000000000, 3.241712115390480395E-18, -0.000000000000000000 ) ) ;
#41 = EDGE_CURVE ( 'NONE', #117, #931, #461, .T. ) ;
#42 = CIRCLE ( 'NONE', #605, 26.99999999999998579 ) ;
#43 = DIRECTION ( 'NONE',  ( 1.000000000000000000, -3.241712115390480395E-18, 0.000000000000000000 ) ) ;
#44 = AXIS2_PLACEMENT_3D ( 'NONE', #516, #281, #1020 ) ;
#45 = AXIS2_PLACEMENT_3D ( 'NONE', #839, #913, #904 ) ;
#46 = CARTESIAN_POINT ( 'NONE',  ( -85.00000000000000000, 1.291273123129077766E-14, 0.000000000000000000 ) ) ;
#47 = ORIENTED_EDGE ( 'NONE', *, *, #599, .T. ) ;
#48 = ADVANCED_FACE ( 'NONE', ( #861 ), #868, .F. ) ;
#49 = DIRECTION ( 'NONE',  ( -1.000000000000000000, 3.241712115390480395E-18, -0.000000000000000000 ) ) ;
#50 = EDGE_LOOP ( 'NONE', ( #717, #899, #19, #536 ) ) ;
#51 = DIRECTION ( 'NONE',  ( -1.000000000000000000, 3.241712115390480395E-18, -0.000000000000000000 ) ) ;
#52 = DIRECTION ( 'NONE',  ( -1.000000000000000000, 3.241712115390480395E-18, -0.000000000000000000 ) ) ;
#53 = DIRECTION ( 'NONE',  ( 0.000000000000000000, -1.000000000000000000, 0.000000000000000000 ) ) ;
#54 = ORIENTED_EDGE ( 'NONE', *, *, #175, .T. ) ;
#55 = DIRECTION ( 'NONE',  ( -1.000000000000000000, 3.241712115390480395E-18, -0.000000000000000000 ) ) ;
#56 = DIRECTION ( 'NONE',  ( 1.000000000000000000, -3.241712115390480395E-18, 0.000000000000000000 ) ) ;
#57 = DATE_TIME_ROLE ( 'creation_date' ) ;
#58 = DIRECTION ( 'NONE',  ( -1.000000000000000000, 3.241712115390480395E-18, -0.000000000000000000 ) ) ;
#59 = ORIENTED_EDGE ( 'NONE', *, *, #851, .T. ) ;
#60 = VECTOR ( 'NONE', #561, 999.9999999999998863 ) ;
#61 = FACE_OUTER_BOUND ( 'NONE', #566, .T. ) ;
#62 = AXIS2_PLACEMENT_3D ( 'NONE', #1002, #537, #664 ) ;
#63 = EDGE_CURVE ( 'NONE', #1005, #183, #265, .T. ) ;
#64 = TOROIDAL_SURFACE ( 'NONE', #638, 26.74999999999998224, 5.000000000000000000 ) ;
#65 = ORIENTED_EDGE ( 'NONE', *, *, #540, .F. ) ;
#66 = COORDINATED_UNIVERSAL_TIME_OFFSET ( 1, 0, .AHEAD. ) ;
#67 = DIRECTION ( 'NONE',  ( -1.000000000000000000, 3.241712115390480395E-18, -0.000000000000000000 ) ) ;
#68 = EDGE_LOOP ( 'NONE', ( #293, #703, #313, #790 ) ) ;
#69 = CARTESIAN_POINT ( 'NONE',  ( -85.00000000000000000, -25.49999999999997158, 0.000000000000000000 ) ) ;
#70 = APPROVAL ( #90, 'UNSPECIFIED' ) ;
#71 = CARTESIAN_POINT ( 'NONE',  ( 85.00000000000000000, 31.75000000000000000, 0.000000000000000000 ) ) ;
#72 = CARTESIAN_POINT ( 'NONE',  ( -85.00000000000000000, 31.75000000000000000, 3.888253587292844898E-15 ) ) ;
#73 = ORIENTED_EDGE ( 'NONE', *, *, #947, .T. ) ;
#74 = DIRECTION ( 'NONE',  ( -3.241712115390480395E-18, -1.000000000000000000, 0.000000000000000000 ) ) ;
#75 = DIRECTION ( 'NONE',  ( -1.000000000000000000, 3.241712115390480395E-18, -0.000000000000000000 ) ) ;
#76 = VERTEX_POINT ( 'NONE', #869 ) ;
#77 = DIRECTION ( 'NONE',  ( -1.000000000000000000, 3.241712115390480395E-18, -0.000000000000000000 ) ) ;
#78 = AXIS2_PLACEMENT_3D ( 'NONE', #609, #843, #116 ) ;
#79 = CYLINDRICAL_SURFACE ( 'NONE', #591, 30.24999999999998579 ) ;
#80 = LOCAL_TIME ( 0, 4, 6.000000000000000000, #335 ) ;
#81 = CALENDAR_DATE ( 2026, 16, 9 ) ;
#82 = LINE ( 'NONE', #72, #794 ) ;
#83 = ORIENTED_EDGE ( 'NONE', *, *, #582, .F. ) ;
#84 = DIRECTION ( 'NONE',  ( 3.241712115390480395E-18, 1.000000000000000000, 0.000000000000000000 ) ) ;
#85 = DIRECTION ( 'NONE',  ( -1.000000000000000000, 3.241712115390480395E-18, -0.000000000000000000 ) ) ;
#86 = ORIENTED_EDGE ( 'NONE', *, *, #138, .F. ) ;
#87 = DIRECTION ( 'NONE',  ( 0.000000000000000000, 1.000000000000000000, 0.000000000000000000 ) ) ;
#88 = ADVANCED_FACE ( 'NONE', ( #708 ), #1021, .T. ) ;
#89 = FACE_OUTER_BOUND ( 'NONE', #1027, .T. ) ;
#90 = APPROVAL_STATUS ( 'not_yet_approved' ) ;
#91 = ORIENTED_EDGE ( 'NONE', *, *, #925, .T. ) ;
#92 = EDGE_CURVE ( 'NONE', #684, #655, #701, .T. ) ;
#93 = DIRECTION ( 'NONE',  ( -1.000000000000000000, 3.241712115390480395E-18, -0.000000000000000000 ) ) ;
#94 = AXIS2_PLACEMENT_3D ( 'NONE', #486, #571, #898 ) ;
#95 = DIRECTION ( 'NONE',  ( -1.000000000000000000, 3.241712115390480395E-18, -0.000000000000000000 ) ) ;
#96 = CIRCLE ( 'NONE', #528, 31.74999999999998579 ) ;
#97 = EDGE_LOOP ( 'NONE', ( #945, #636, #110, #73 ) ) ;
#98 = CIRCLE ( 'NONE', #246, 5.000000000000000888 ) ;
#99 = DIRECTION ( 'NONE',  ( 0.000000000000000000, -1.000000000000000000, 0.000000000000000000 ) ) ;
#100 = CARTESIAN_POINT ( 'NONE',  ( 85.00000000000000000, 1.236164017167439692E-14, 0.000000000000000000 ) ) ;
#101 = ORIENTED_EDGE ( 'NONE', *, *, #615, .T. ) ;
#102 = ADVANCED_FACE ( 'NONE', ( #787 ), #562, .T. ) ;
#103 = DIRECTION ( 'NONE',  ( -1.000000000000000000, 3.241712115390480395E-18, -0.000000000000000000 ) ) ;
#104 = ORIENTED_EDGE ( 'NONE', *, *, #132, .F. ) ;
#105 = EDGE_CURVE ( 'NONE', #477, #607, #302, .T. ) ;
#106 = DIRECTION ( 'NONE',  ( 0.000000000000000000, -1.000000000000000000, 0.000000000000000000 ) ) ;
#107 = APPLICATION_CONTEXT ( 'configuration controlled 3d designs of mechanical parts and assemblies' ) ;
#108 = FACE_OUTER_BOUND ( 'NONE', #1010, .T. ) ;
#109 = CIRCLE ( 'NONE', #705, 29.78108891324551166 ) ;
#110 = ORIENTED_EDGE ( 'NONE', *, *, #540, .T. ) ;
#111 = ADVANCED_FACE ( 'NONE', ( #89 ), #300, .F. ) ;
#112 = AXIS2_PLACEMENT_3D ( 'NONE', #640, #720, #973 ) ;
#113 = CARTESIAN_POINT ( 'NONE',  ( -24.53984872712181797, -24.99999999999997158, 3.061616997868381070E-15 ) ) ;
#114 = EDGE_LOOP ( 'NONE', ( #807, #767, #996, #507 ) ) ;
#115 = DIRECTION ( 'NONE',  ( -1.000000000000000000, 0.000000000000000000, 0.000000000000000000 ) ) ;
#116 = DIRECTION ( 'NONE',  ( 0.000000000000000000, -1.000000000000000000, 0.000000000000000000 ) ) ;
#117 = VERTEX_POINT ( 'NONE', #1063 ) ;
#118 = DIRECTION ( 'NONE',  ( -1.000000000000000000, 3.241712115390480395E-18, -0.000000000000000000 ) ) ;
#119 = ORIENTED_EDGE ( 'NONE', *, *, #471, .F. ) ;
#120 = CARTESIAN_POINT ( 'NONE',  ( 26.70491223658289570, 1.255061606394481919E-14, 0.000000000000000000 ) ) ;
#121 = ADVANCED_FACE ( 'NONE', ( #163 ), #412, .T. ) ;
#122 = FACE_OUTER_BOUND ( 'NONE', #38, .T. ) ;
#123 = EDGE_CURVE ( 'NONE', #439, #814, #327, .T. ) ;
#124 = TOROIDAL_SURFACE ( 'NONE', #724, 24.99999999999998579, 5.000000000000000000 ) ;
#125 = DIRECTION ( 'NONE',  ( 3.969952365870146765E-34, 1.224646799147353207E-16, 1.000000000000000000 ) ) ;
#126 = VERTEX_POINT ( 'NONE', #719 ) ;
#127 = CIRCLE ( 'NONE', #527, 25.49999999999998579 ) ;
#128 = TOROIDAL_SURFACE ( 'NONE', #730, 34.99999999999998579, 6.500000000000000888 ) ;
#129 = CARTESIAN_POINT ( 'NONE',  ( -85.00000000000000000, 1.291273123129077766E-14, 0.000000000000000000 ) ) ;
#130 = DIRECTION ( 'NONE',  ( -1.000000000000000000, 3.241712115390480395E-18, -0.000000000000000000 ) ) ;
#131 = CARTESIAN_POINT ( 'NONE',  ( -85.00000000000000000, 1.291273123129077766E-14, 0.000000000000000000 ) ) ;
#132 = EDGE_CURVE ( 'NONE', #854, #931, #98, .T. ) ;
#133 = ORIENTED_EDGE ( 'NONE', *, *, #648, .T. ) ;
#134 = DIRECTION ( 'NONE',  ( 0.000000000000000000, 1.000000000000000000, 0.000000000000000000 ) ) ;
#135 = ORIENTED_EDGE ( 'NONE', *, *, #1028, .F. ) ;
#136 = CARTESIAN_POINT ( 'NONE',  ( -24.53984872712181797, 30.00000000000000000, 3.673940397442057600E-15 ) ) ;
#137 = ORIENTED_EDGE ( 'NONE', *, *, #232, .T. ) ;
#138 = EDGE_CURVE ( 'NONE', #999, #439, #389, .T. ) ;
#139 = DATE_AND_TIME ( #81, #147 ) ;
#140 = CARTESIAN_POINT ( 'NONE',  ( 26.70491223658289570, 1.255061606394481919E-14, 0.000000000000000000 ) ) ;
#141 = ORIENTED_EDGE ( 'NONE', *, *, #498, .F. ) ;
#142 = AXIS2_PLACEMENT_3D ( 'NONE', #28, #848, #409 ) ;
#143 = CARTESIAN_POINT ( 'NONE',  ( -29.16549307413966119, -26.37083487540112259, 3.331157091761219149E-15 ) ) ;
#144 = CIRCLE ( 'NONE', #776, 28.49999999999998224 ) ;
#145 = AXIS2_PLACEMENT_3D ( 'NONE', #1059, #58, #239 ) ;
#146 = ADVANCED_FACE ( 'NONE', ( #822 ), #79, .F. ) ;
#147 = LOCAL_TIME ( 0, 4, 6.000000000000000000, #812 ) ;
#148 = DIRECTION ( 'NONE',  ( 1.000000000000000000, -3.241712115390480395E-18, 0.000000000000000000 ) ) ;
#149 = EDGE_LOOP ( 'NONE', ( #104, #618, #487, #190 ) ) ;
#150 = CARTESIAN_POINT ( 'NONE',  ( 29.91549307413964698, 1.254020828514626962E-14, 0.000000000000000000 ) ) ;
#151 = ADVANCED_FACE ( 'NONE', ( #742, #234 ), #570, .F. ) ;
#152 = CARTESIAN_POINT ( 'NONE',  ( 26.70491223658289570, 34.99999999999999289, 4.286263797015734130E-15 ) ) ;
#153 = DIRECTION ( 'NONE',  ( -1.000000000000000000, 3.241712115390480395E-18, -0.000000000000000000 ) ) ;
#154 = ORIENTED_EDGE ( 'NONE', *, *, #662, .T. ) ;
#155 = DIRECTION ( 'NONE',  ( 0.000000000000000000, 1.000000000000000000, 0.000000000000000000 ) ) ;
#156 = PERSON_AND_ORGANIZATION_ROLE ( 'creator' ) ;
#157 = DIRECTION ( 'NONE',  ( 0.000000000000000000, -1.000000000000000000, 0.000000000000000000 ) ) ;
#158 = ORIENTED_EDGE ( 'NONE', *, *, #272, .F. ) ;
#159 = LINE ( 'NONE', #825, #809 ) ;
#160 = VECTOR ( 'NONE', #310, 999.9999999999998863 ) ;
#161 = CARTESIAN_POINT ( 'NONE',  ( -24.53984872712181797, 1.271673682641114733E-14, 0.000000000000000000 ) ) ;
#162 = CIRCLE ( 'NONE', #243, 31.08012701892216967 ) ;
#163 = FACE_OUTER_BOUND ( 'NONE', #520, .T. ) ;
#164 = APPROVAL_PERSON_ORGANIZATION ( #322, #452, #795 ) ;
#165 = SHAPE_DEFINITION_REPRESENTATION ( #874, #301 ) ;
#166 = VECTOR ( 'NONE', #130, 1000.000000000000000 ) ;
#167 = ORIENTED_EDGE ( 'NONE', *, *, #351, .F. ) ;
#168 = EDGE_CURVE ( 'NONE', #856, #76, #921, .T. ) ;
#169 = CARTESIAN_POINT ( 'NONE',  ( -29.91549307413966119, 27.66987298107780546, 0.000000000000000000 ) ) ;
#170 = DIRECTION ( 'NONE',  ( 0.000000000000000000, 1.000000000000000000, 0.000000000000000000 ) ) ;
#171 = PERSON_AND_ORGANIZATION ( #1019, #853 ) ;
#172 = APPROVAL_STATUS ( 'not_yet_approved' ) ;
#173 = ORIENTED_EDGE ( 'NONE', *, *, #217, .T. ) ;
#174 = CARTESIAN_POINT ( 'NONE',  ( -29.91549307413966119, 1.273416311781890497E-14, 0.000000000000000000 ) ) ;
#175 = EDGE_CURVE ( 'NONE', #532, #324, #740, .T. ) ;
#176 = CARTESIAN_POINT ( 'NONE',  ( 32.41549307413965408, 1.253210400485779236E-14, 0.000000000000000000 ) ) ;
#177 = PERSON_AND_ORGANIZATION ( #1019, #853 ) ;
#178 = ORIENTED_EDGE ( 'NONE', *, *, #511, .F. ) ;
#179 = CC_DESIGN_PERSON_AND_ORGANIZATION_ASSIGNMENT ( #579, #995, ( #889 ) ) ;
#180 = VECTOR ( 'NONE', #554, 1000.000000000000114 ) ;
#181 = DIRECTION ( 'NONE',  ( 0.000000000000000000, -1.000000000000000000, 0.000000000000000000 ) ) ;
#182 = TOROIDAL_SURFACE ( 'NONE', #316, 34.99999999999998579, 6.500000000000000888 ) ;
#183 = VERTEX_POINT ( 'NONE', #238 ) ;
#184 = CLOSED_SHELL ( 'NONE', ( #993, #837, #362, #1001, #146, #48, #870, #435, #267, #458, #601, #1000, #421, #691, #375, #563, #827, #286, #8, #416, #102, #491, #32, #121, #151, #88, #196, #447, #199, #905, #226, #977, #111, #349, #553, #1018, #299, #821 ) ) ;
#185 = CARTESIAN_POINT ( 'NONE',  ( 26.70491223658290281, 1.255061606394481761E-14, 0.000000000000000000 ) ) ;
#186 = CARTESIAN_POINT ( 'NONE',  ( 29.91549307413964698, 31.08012701892218388, 0.000000000000000000 ) ) ;
#187 = EDGE_CURVE ( 'NONE', #126, #736, #277, .T. ) ;
#188 = DIRECTION ( 'NONE',  ( 0.000000000000000000, 1.000000000000000000, 0.000000000000000000 ) ) ;
#189 = ORIENTED_EDGE ( 'NONE', *, *, #481, .F. ) ;
#190 = ORIENTED_EDGE ( 'NONE', *, *, #406, .F. ) ;
#191 = DIRECTION ( 'NONE',  ( 0.000000000000000000, -1.000000000000000000, 0.000000000000000000 ) ) ;
#192 = VECTOR ( 'NONE', #345, 999.9999999999998863 ) ;
#193 = VERTEX_POINT ( 'NONE', #422 ) ;
#194 = AXIS2_PLACEMENT_3D ( 'NONE', #39, #836, #20 ) ;
#195 = DIRECTION ( 'NONE',  ( 0.000000000000000000, 0.000000000000000000, -1.000000000000000000 ) ) ;
#196 = ADVANCED_FACE ( 'NONE', ( #244 ), #209, .F. ) ;
#197 = ORIENTED_EDGE ( 'NONE', *, *, #390, .F. ) ;
#198 = CARTESIAN_POINT ( 'NONE',  ( 30.66549307413964698, -29.78108891324549745, 3.647131521272884149E-15 ) ) ;
#199 = ADVANCED_FACE ( 'NONE', ( #7 ), #475, .F. ) ;
#200 = DIRECTION ( 'NONE',  ( 3.969952365870146765E-34, 1.224646799147353207E-16, 1.000000000000000000 ) ) ;
#201 = DIRECTION ( 'NONE',  ( 1.000000000000000000, -3.241712115390480395E-18, 0.000000000000000000 ) ) ;
#202 = CARTESIAN_POINT ( 'NONE',  ( 85.00000000000000000, 1.236164017167439692E-14, 0.000000000000000000 ) ) ;
#203 = EDGE_LOOP ( 'NONE', ( #386, #798 ) ) ;
#204 = FACE_OUTER_BOUND ( 'NONE', #273, .T. ) ;
#205 = EDGE_LOOP ( 'NONE', ( #457, #59, #173, #919 ) ) ;
#206 = CIRCLE ( 'NONE', #951, 4.999999999999997335 ) ;
#207 = CARTESIAN_POINT ( 'NONE',  ( 26.70491223658290281, 1.255061606394481761E-14, 0.000000000000000000 ) ) ;
#208 = ORIENTED_EDGE ( 'NONE', *, *, #1029, .T. ) ;
#209 = TOROIDAL_SURFACE ( 'NONE', #441, 34.99999999999998579, 5.000000000000000000 ) ;
#210 = CIRCLE ( 'NONE', #27, 29.99999999999998579 ) ;
#211 = AXIS2_PLACEMENT_3D ( 'NONE', #665, #434, #499 ) ;
#212 = FACE_OUTER_BOUND ( 'NONE', #685, .T. ) ;
#213 = CARTESIAN_POINT ( 'NONE',  ( -25.87959468927743245, 1.272107989712821305E-14, 0.000000000000000000 ) ) ;
#214 = CARTESIAN_POINT ( 'NONE',  ( -24.53984872712181797, -24.99999999999997158, 3.061616997868381070E-15 ) ) ;
#215 = ORIENTED_EDGE ( 'NONE', *, *, #481, .T. ) ;
#216 = DIRECTION ( 'NONE',  ( 1.000000000000000000, -3.241712115390480395E-18, 0.000000000000000000 ) ) ;
#217 = EDGE_CURVE ( 'NONE', #559, #338, #9, .T. ) ;
#218 = LINE ( 'NONE', #1040, #166 ) ;
#219 = FACE_OUTER_BOUND ( 'NONE', #572, .T. ) ;
#220 = EDGE_LOOP ( 'NONE', ( #141, #840, #651, #859 ) ) ;
#221 = CARTESIAN_POINT ( 'NONE',  ( -25.12959468927743245, 28.70096189432334199, 0.000000000000000000 ) ) ;
#222 = CARTESIAN_POINT ( 'NONE',  ( 29.20491223658291347, 1.254251178365634351E-14, 0.000000000000000000 ) ) ;
#223 = DIRECTION ( 'NONE',  ( -1.000000000000000000, 3.241712115390480395E-18, -0.000000000000000000 ) ) ;
#224 = ORIENTED_EDGE ( 'NONE', *, *, #804, .F. ) ;
#225 = CARTESIAN_POINT ( 'NONE',  ( 31.07574711198404671, -31.74999999999997158, 3.888253587292844898E-15 ) ) ;
#226 = ADVANCED_FACE ( 'NONE', ( #564 ), #558, .F. ) ;
#227 = TOROIDAL_SURFACE ( 'NONE', #833, 34.99999999999998579, 5.000000000000000000 ) ;
#228 = AXIS2_PLACEMENT_3D ( 'NONE', #503, #95, #188 ) ;
#229 = DIRECTION ( 'NONE',  ( -1.000000000000000000, 3.241712115390480395E-18, -0.000000000000000000 ) ) ;
#230 = DIRECTION ( 'NONE',  ( -1.000000000000000000, 3.241712115390480395E-18, -0.000000000000000000 ) ) ;
#231 = ORIENTED_EDGE ( 'NONE', *, *, #569, .F. ) ;
#232 = EDGE_CURVE ( 'NONE', #324, #682, #526, .T. ) ;
#233 = EDGE_CURVE ( 'NONE', #453, #477, #706, .T. ) ;
#234 = FACE_OUTER_BOUND ( 'NONE', #669, .T. ) ;
#235 = PERSON_AND_ORGANIZATION ( #1019, #853 ) ;
#236 = CARTESIAN_POINT ( 'NONE',  ( 26.70491223658290281, 30.00000000000000000, 3.673940397442057600E-15 ) ) ;
#237 = ORIENTED_EDGE ( 'NONE', *, *, #771, .F. ) ;
#238 = CARTESIAN_POINT ( 'NONE',  ( -85.00000000000000000, -26.99999999999997158, 0.000000000000000000 ) ) ;
#239 = DIRECTION ( 'NONE',  ( 0.000000000000000000, -1.000000000000000000, 0.000000000000000000 ) ) ;
#240 = ORIENTED_EDGE ( 'NONE', *, *, #352, .F. ) ;
#241 = CIRCLE ( 'NONE', #62, 3.499999999999999556 ) ;
#242 = AXIS2_PLACEMENT_3D ( 'NONE', #366, #283, #303 ) ;
#243 = AXIS2_PLACEMENT_3D ( 'NONE', #916, #51, #181 ) ;
#244 = FACE_OUTER_BOUND ( 'NONE', #149, .T. ) ;
#245 = CC_DESIGN_SECURITY_CLASSIFICATION ( #479, ( #889 ) ) ;
#246 = AXIS2_PLACEMENT_3D ( 'NONE', #152, #501, #1058 ) ;
#247 = CARTESIAN_POINT ( 'NONE',  ( -25.87959468927743245, -29.99999999999997158, 3.673940397442057600E-15 ) ) ;
#248 = EDGE_LOOP ( 'NONE', ( #515, #1042, #960, #933 ) ) ;
#249 = DIRECTION ( 'NONE',  ( -1.000000000000000000, 3.241712115390480395E-18, 0.000000000000000000 ) ) ;
#250 = CALENDAR_DATE ( 2026, 16, 9 ) ;
#251 = DIRECTION ( 'NONE',  ( 0.000000000000000000, -1.000000000000000000, -1.224646799147352961E-16 ) ) ;
#252 = ORIENTED_EDGE ( 'NONE', *, *, #132, .T. ) ;
#253 = DIRECTION ( 'NONE',  ( -1.000000000000000000, 3.241712115390480395E-18, -0.000000000000000000 ) ) ;
#254 = ORIENTED_EDGE ( 'NONE', *, *, #593, .T. ) ;
#255 = MANIFOLD_SOLID_BREP ( 'Shell1', #184 ) ;
#256 = DIRECTION ( 'NONE',  ( 0.8660254037844375974, 0.5000000000000019984, 0.000000000000000000 ) ) ;
#257 = CIRCLE ( 'NONE', #576, 29.99999999999998579 ) ;
#258 = AXIS2_PLACEMENT_3D ( 'NONE', #533, #446, #780 ) ;
#259 = DIRECTION ( 'NONE',  ( 0.000000000000000000, -1.000000000000000000, 0.000000000000000000 ) ) ;
#260 = AXIS2_PLACEMENT_3D ( 'NONE', #480, #485, #134 ) ;
#261 = AXIS2_PLACEMENT_3D ( 'NONE', #483, #1041, #319 ) ;
#262 = APPROVAL_ROLE ( '' ) ;
#263 = LINE ( 'NONE', #247, #867 ) ;
#264 = EDGE_LOOP ( 'NONE', ( #224, #432, #472, #666 ) ) ;
#265 = CIRCLE ( 'NONE', #546, 26.99999999999998579 ) ;
#266 = CARTESIAN_POINT ( 'NONE',  ( -32.41549307413966829, 1.274226739810738222E-14, 0.000000000000000000 ) ) ;
#267 = ADVANCED_FACE ( 'NONE', ( #291 ), #942, .F. ) ;
#268 = EDGE_CURVE ( 'NONE', #604, #439, #577, .T. ) ;
#269 = EDGE_LOOP ( 'NONE', ( #929, #208, #785, #320 ) ) ;
#270 = CYLINDRICAL_SURFACE ( 'NONE', #849, 29.99999999999998579 ) ;
#271 = ORIENTED_EDGE ( 'NONE', *, *, #63, .T. ) ;
#272 = EDGE_CURVE ( 'NONE', #781, #425, #852, .T. ) ;
#273 = EDGE_LOOP ( 'NONE', ( #460, #598, #844, #941 ) ) ;
#274 = CIRCLE ( 'NONE', #606, 5.000000000000000888 ) ;
#275 = CIRCLE ( 'NONE', #920, 3.499999999999999556 ) ;
#276 = ORIENTED_EDGE ( 'NONE', *, *, #406, .T. ) ;
#277 = CIRCLE ( 'NONE', #641, 30.24999999999998579 ) ;
#278 = EDGE_CURVE ( 'NONE', #453, #193, #17, .T. ) ;
#279 = AXIS2_PLACEMENT_3D ( 'NONE', #643, #732, #975 ) ;
#280 = CARTESIAN_POINT ( 'NONE',  ( -29.91549307413966119, -27.66987298107777704, 3.490243377569954483E-15 ) ) ;
#281 = DIRECTION ( 'NONE',  ( -1.000000000000000000, 3.241712115390480395E-18, -0.000000000000000000 ) ) ;
#282 = DIRECTION ( 'NONE',  ( 0.000000000000000000, 1.000000000000000000, 0.000000000000000000 ) ) ;
#283 = DIRECTION ( 'NONE',  ( 1.000000000000000000, -3.241712115390480395E-18, 0.000000000000000000 ) ) ;
#284 = ORIENTED_EDGE ( 'NONE', *, *, #612, .T. ) ;
#285 = CARTESIAN_POINT ( 'NONE',  ( -85.00000000000000000, -28.49999999999997158, 0.000000000000000000 ) ) ;
#286 = ADVANCED_FACE ( 'NONE', ( #204 ), #770, .T. ) ;
#287 = CARTESIAN_POINT ( 'NONE',  ( 32.41549307413965408, 31.75000000000000000, 3.888253587292844898E-15 ) ) ;
#288 = DIRECTION ( 'NONE',  ( 0.000000000000000000, -1.000000000000000000, 0.000000000000000000 ) ) ;
#289 = DIRECTION ( 'NONE',  ( 0.000000000000000000, -1.000000000000000000, 0.000000000000000000 ) ) ;
#290 = ORIENTED_EDGE ( 'NONE', *, *, #613, .F. ) ;
#291 = FACE_OUTER_BOUND ( 'NONE', #50, .T. ) ;
#292 = EDGE_CURVE ( 'NONE', #962, #372, #162, .T. ) ;
#293 = ORIENTED_EDGE ( 'NONE', *, *, #187, .F. ) ;
#294 = CIRCLE ( 'NONE', #353, 6.499999999999999112 ) ;
#295 = DIRECTION ( 'NONE',  ( 0.000000000000000000, -1.000000000000000000, 1.224646799147352714E-16 ) ) ;
#296 = ORIENTED_EDGE ( 'NONE', *, *, #739, .F. ) ;
#297 = CIRCLE ( 'NONE', #408, 26.99999999999998579 ) ;
#298 = CARTESIAN_POINT ( 'NONE',  ( 32.41549307413965408, -30.24999999999997158, 0.000000000000000000 ) ) ;
#299 = ADVANCED_FACE ( 'NONE', ( #513 ), #688, .F. ) ;
#300 = CONICAL_SURFACE ( 'NONE', #445, 30.45096189432332778, 0.5235987755983011471 ) ;
#301 = ADVANCED_BREP_SHAPE_REPRESENTATION ( '79-8476 - Stegmuff. 63.5-60-54', ( #255, #675 ), #778 ) ;
#302 = LINE ( 'NONE', #627, #816 ) ;
#303 = DIRECTION ( 'NONE',  ( 0.000000000000000000, 1.000000000000000000, 0.000000000000000000 ) ) ;
#304 = VERTEX_POINT ( 'NONE', #462 ) ;
#305 = CARTESIAN_POINT ( 'NONE',  ( -32.41549307413966829, 1.274226739810738064E-14, 0.000000000000000000 ) ) ;
#306 = DIRECTION ( 'NONE',  ( -1.000000000000000000, 3.241712115390480395E-18, -0.000000000000000000 ) ) ;
#307 = DATE_AND_TIME ( #392, #430 ) ;
#308 = FACE_OUTER_BOUND ( 'NONE', #602, .T. ) ;
#309 = ORIENTED_EDGE ( 'NONE', *, *, #586, .F. ) ;
#310 = DIRECTION ( 'NONE',  ( 0.8660254037844375974, -0.5000000000000019984, 6.123233995736790688E-17 ) ) ;
#311 = CARTESIAN_POINT ( 'NONE',  ( -32.41549307413966829, 1.274226739810738064E-14, 0.000000000000000000 ) ) ;
#312 = DIRECTION ( 'NONE',  ( -1.000000000000000000, 3.241712115390480395E-18, -0.000000000000000000 ) ) ;
#313 = ORIENTED_EDGE ( 'NONE', *, *, #800, .F. ) ;
#314 = VECTOR ( 'NONE', #438, 1000.000000000000000 ) ;
#315 = CIRCLE ( 'NONE', #831, 3.499999999999999556 ) ;
#316 = AXIS2_PLACEMENT_3D ( 'NONE', #120, #884, #74 ) ;
#317 = DIRECTION ( 'NONE',  ( 0.000000000000000000, -1.000000000000000000, 1.224646799147353454E-16 ) ) ;
#318 = DIRECTION ( 'NONE',  ( -1.000000000000000000, 3.241712115390480395E-18, -0.000000000000000000 ) ) ;
#319 = DIRECTION ( 'NONE',  ( -3.241712115390480395E-18, -1.000000000000000000, 0.000000000000000000 ) ) ;
#320 = ORIENTED_EDGE ( 'NONE', *, *, #175, .F. ) ;
#321 = CARTESIAN_POINT ( 'NONE',  ( -85.00000000000000000, 1.291273123129077766E-14, 0.000000000000000000 ) ) ;
#322 = PERSON_AND_ORGANIZATION ( #1019, #853 ) ;
#323 = CARTESIAN_POINT ( 'NONE',  ( 29.95491223658291347, 29.37083487540115101, 0.000000000000000000 ) ) ;
#324 = VERTEX_POINT ( 'NONE', #1024 ) ;
#325 = DIRECTION ( 'NONE',  ( 3.969952365870146765E-34, 1.224646799147353207E-16, 1.000000000000000000 ) ) ;
#326 = EDGE_CURVE ( 'NONE', #1053, #117, #760, .T. ) ;
#327 = LINE ( 'NONE', #644, #712 ) ;
#328 = CALENDAR_DATE ( 2026, 16, 9 ) ;
#329 =( NAMED_UNIT ( * ) PLANE_ANGLE_UNIT ( ) SI_UNIT ( $, .RADIAN. ) );
#330 = ORIENTED_EDGE ( 'NONE', *, *, #233, .T. ) ;
#331 = CIRCLE ( 'NONE', #589, 28.49999999999998224 ) ;
#332 = CIRCLE ( 'NONE', #657, 26.37083487540113680 ) ;
#333 = DIRECTION ( 'NONE',  ( 1.000000000000000000, -3.241712115390480395E-18, 0.000000000000000000 ) ) ;
#334 = CC_DESIGN_APPROVAL ( #1015, ( #699 ) ) ;
#335 = COORDINATED_UNIVERSAL_TIME_OFFSET ( 1, 0, .AHEAD. ) ;
#336 = CONICAL_SURFACE ( 'NONE', #749, 31.74999999999998579, 0.5235987755983011471 ) ;
#337 = CARTESIAN_POINT ( 'NONE',  ( 26.70491223658289570, 34.99999999999999289, 4.286263797015734130E-15 ) ) ;
#338 = VERTEX_POINT ( 'NONE', #505 ) ;
#339 = EDGE_CURVE ( 'NONE', #547, #436, #241, .T. ) ;
#340 = DIRECTION ( 'NONE',  ( 0.000000000000000000, -0.000000000000000000, -1.000000000000000000 ) ) ;
#341 = DIRECTION ( 'NONE',  ( -1.000000000000000000, 0.000000000000000000, 0.000000000000000000 ) ) ;
#342 = CARTESIAN_POINT ( 'NONE',  ( -85.00000000000000000, 27.00000000000000000, 3.306546357697851761E-15 ) ) ;
#343 = EDGE_LOOP ( 'NONE', ( #986, #101, #803, #872 ) ) ;
#344 = EDGE_CURVE ( 'NONE', #76, #856, #656, .T. ) ;
#345 = DIRECTION ( 'NONE',  ( 0.8660254037844375974, 0.5000000000000019984, 0.000000000000000000 ) ) ;
#346 = CARTESIAN_POINT ( 'NONE',  ( -27.03984872712181797, 1.272484110669962301E-14, 0.000000000000000000 ) ) ;
#347 = DIRECTION ( 'NONE',  ( 1.000000000000000000, 0.000000000000000000, 0.000000000000000000 ) ) ;
#348 = ORIENTED_EDGE ( 'NONE', *, *, #805, .F. ) ;
#349 = ADVANCED_FACE ( 'NONE', ( #700 ), #952, .F. ) ;
#350 = DIRECTION ( 'NONE',  ( 0.000000000000000000, -1.000000000000000000, 0.000000000000000000 ) ) ;
#351 = EDGE_CURVE ( 'NONE', #655, #444, #791, .T. ) ;
#352 = EDGE_CURVE ( 'NONE', #444, #655, #510, .T. ) ;
#353 = AXIS2_PLACEMENT_3D ( 'NONE', #994, #340, #997 ) ;
#354 = AXIS2_PLACEMENT_3D ( 'NONE', #936, #531, #855 ) ;
#355 = AXIS2_PLACEMENT_3D ( 'NONE', #311, #801, #912 ) ;
#356 = VECTOR ( 'NONE', #153, 1000.000000000000000 ) ;
#357 = DATE_AND_TIME ( #328, #80 ) ;
#358 = DIRECTION ( 'NONE',  ( 0.000000000000000000, 0.000000000000000000, 1.000000000000000000 ) ) ;
#359 = LOCAL_TIME ( 0, 4, 6.000000000000000000, #838 ) ;
#360 = ORIENTED_EDGE ( 'NONE', *, *, #800, .T. ) ;
#361 = FACE_OUTER_BOUND ( 'NONE', #264, .T. ) ;
#362 = ADVANCED_FACE ( 'NONE', ( #371 ), #182, .T. ) ;
#363 = ORIENTED_EDGE ( 'NONE', *, *, #41, .F. ) ;
#364 = DIRECTION ( 'NONE',  ( 0.000000000000000000, -1.000000000000000000, 0.000000000000000000 ) ) ;
#365 = ORIENTED_EDGE ( 'NONE', *, *, #463, .T. ) ;
#366 = CARTESIAN_POINT ( 'NONE',  ( -25.87959468927743245, 1.272107989712821305E-14, 0.000000000000000000 ) ) ;
#367 = CARTESIAN_POINT ( 'NONE',  ( -85.00000000000000000, 1.291273123129077766E-14, 0.000000000000000000 ) ) ;
#368 = DIRECTION ( 'NONE',  ( 1.000000000000000000, -3.241712115390480395E-18, 0.000000000000000000 ) ) ;
#369 = AXIS2_PLACEMENT_3D ( 'NONE', #687, #253, #451 ) ;
#370 = FACE_OUTER_BOUND ( 'NONE', #205, .T. ) ;
#371 = FACE_OUTER_BOUND ( 'NONE', #883, .T. ) ;
#372 = VERTEX_POINT ( 'NONE', #186 ) ;
#373 = CARTESIAN_POINT ( 'NONE',  ( -27.03984872712181797, 1.272484110669962301E-14, 0.000000000000000000 ) ) ;
#374 = ORIENTED_EDGE ( 'NONE', *, *, #1029, .F. ) ;
#375 = ADVANCED_FACE ( 'NONE', ( #380 ), #729, .T. ) ;
#376 = DIRECTION ( 'NONE',  ( -1.000000000000000000, 0.000000000000000000, 0.000000000000000000 ) ) ;
#377 = ORIENTED_EDGE ( 'NONE', *, *, #615, .F. ) ;
#378 = DIRECTION ( 'NONE',  ( -1.000000000000000000, 3.241712115390480395E-18, -0.000000000000000000 ) ) ;
#379 = ORIENTED_EDGE ( 'NONE', *, *, #1062, .T. ) ;
#380 = FACE_OUTER_BOUND ( 'NONE', #950, .T. ) ;
#381 = DIRECTION ( 'NONE',  ( 0.000000000000000000, 1.000000000000000000, 0.000000000000000000 ) ) ;
#382 = CONICAL_SURFACE ( 'NONE', #405, 28.70096189432332778, 0.5235987755983001479 ) ;
#383 = CARTESIAN_POINT ( 'NONE',  ( -85.00000000000000000, 1.291273123129077766E-14, 0.000000000000000000 ) ) ;
#384 = AXIS2_PLACEMENT_3D ( 'NONE', #396, #896, #893 ) ;
#385 = CONICAL_SURFACE ( 'NONE', #242, 29.99999999999998579, 0.5235987755983001479 ) ;
#386 = ORIENTED_EDGE ( 'NONE', *, *, #1031, .T. ) ;
#387 = CIRCLE ( 'NONE', #279, 30.66987298107778770 ) ;
#388 = FACE_OUTER_BOUND ( 'NONE', #756, .T. ) ;
#389 = CIRCLE ( 'NONE', #660, 26.37083487540113680 ) ;
#390 = EDGE_CURVE ( 'NONE', #604, #684, #127, .T. ) ;
#391 = EDGE_LOOP ( 'NONE', ( #847, #271 ) ) ;
#392 = CALENDAR_DATE ( 2026, 16, 9 ) ;
#393 = DIRECTION ( 'NONE',  ( -3.241712115390480780E-18, -1.000000000000000000, 0.000000000000000000 ) ) ;
#394 = ORIENTED_EDGE ( 'NONE', *, *, #586, .T. ) ;
#395 = CARTESIAN_POINT ( 'NONE',  ( 26.70491223658290281, -28.49999999999997158, 0.000000000000000000 ) ) ;
#396 = CARTESIAN_POINT ( 'NONE',  ( -24.53984872712181797, 1.271673682641114733E-14, 0.000000000000000000 ) ) ;
#397 = EDGE_CURVE ( 'NONE', #372, #962, #888, .T. ) ;
#398 = DIRECTION ( 'NONE',  ( 0.000000000000000000, 1.000000000000000000, 0.000000000000000000 ) ) ;
#399 = ORIENTED_EDGE ( 'NONE', *, *, #344, .F. ) ;
#400 = FACE_OUTER_BOUND ( 'NONE', #343, .T. ) ;
#401 = CARTESIAN_POINT ( 'NONE',  ( 32.41549307413965408, 26.74999999999999645, 0.000000000000000000 ) ) ;
#402 = DIRECTION ( 'NONE',  ( -1.000000000000000000, 3.241712115390480395E-18, -0.000000000000000000 ) ) ;
#403 = CARTESIAN_POINT ( 'NONE',  ( -29.16549307413966119, 26.37083487540115101, 0.000000000000000000 ) ) ;
#404 = ORIENTED_EDGE ( 'NONE', *, *, #18, .F. ) ;
#405 = AXIS2_PLACEMENT_3D ( 'NONE', #1054, #892, #155 ) ;
#406 = EDGE_CURVE ( 'NONE', #931, #117, #387, .T. ) ;
#407 = AXIS2_PLACEMENT_3D ( 'NONE', #535, #683, #784 ) ;
#408 = AXIS2_PLACEMENT_3D ( 'NONE', #650, #223, #635 ) ;
#409 = DIRECTION ( 'NONE',  ( 0.000000000000000000, -1.000000000000000000, -1.224646799147353700E-16 ) ) ;
#410 = AXIS2_PLACEMENT_3D ( 'NONE', #661, #678, #829 ) ;
#411 = AXIS2_PLACEMENT_3D ( 'NONE', #876, #482, #964 ) ;
#412 = CYLINDRICAL_SURFACE ( 'NONE', #1039, 31.74999999999998579 ) ;
#413 = DIRECTION ( 'NONE',  ( 0.000000000000000000, -1.000000000000000000, 0.000000000000000000 ) ) ;
#414 = EDGE_LOOP ( 'NONE', ( #404, #1012, #91, #33 ) ) ;
#415 = CARTESIAN_POINT ( 'NONE',  ( -85.00000000000000000, 1.291273123129077766E-14, 0.000000000000000000 ) ) ;
#416 = ADVANCED_FACE ( 'NONE', ( #567 ), #646, .T. ) ;
#417 = LINE ( 'NONE', #1056, #671 ) ;
#418 = DIRECTION ( 'NONE',  ( -3.241712115390480780E-18, -1.000000000000000000, 0.000000000000000000 ) ) ;
#419 = CARTESIAN_POINT ( 'NONE',  ( 26.70491223658289570, 1.255061606394481919E-14, 0.000000000000000000 ) ) ;
#420 = ORIENTED_EDGE ( 'NONE', *, *, #1046, .F. ) ;
#421 = ADVANCED_FACE ( 'NONE', ( #400 ), #64, .T. ) ;
#422 = CARTESIAN_POINT ( 'NONE',  ( -24.53984872712181797, -28.49999999999997158, 0.000000000000000000 ) ) ;
#423 = APPROVAL_DATE_TIME ( #518, #70 ) ;
#424 = DIRECTION ( 'NONE',  ( 0.000000000000000000, 1.000000000000000000, 0.000000000000000000 ) ) ;
#425 = VERTEX_POINT ( 'NONE', #298 ) ;
#426 = AXIS2_PLACEMENT_3D ( 'NONE', #174, #817, #87 ) ;
#427 = CARTESIAN_POINT ( 'NONE',  ( 31.07574711198404671, 31.75000000000000000, 0.000000000000000000 ) ) ;
#428 = AXIS2_PLACEMENT_3D ( 'NONE', #949, #465, #115 ) ;
#429 = DIRECTION ( 'NONE',  ( -1.000000000000000000, 3.241712115390480395E-18, -0.000000000000000000 ) ) ;
#430 = LOCAL_TIME ( 0, 4, 6.000000000000000000, #66 ) ;
#431 = DIRECTION ( 'NONE',  ( 0.000000000000000000, -1.000000000000000000, 0.000000000000000000 ) ) ;
#432 = ORIENTED_EDGE ( 'NONE', *, *, #739, .T. ) ;
#433 = DIRECTION ( 'NONE',  ( -1.000000000000000000, 3.241712115390480395E-18, -0.000000000000000000 ) ) ;
#434 = DIRECTION ( 'NONE',  ( -1.000000000000000000, 3.241712115390480395E-18, -0.000000000000000000 ) ) ;
#435 = ADVANCED_FACE ( 'NONE', ( #61 ), #382, .F. ) ;
#436 = VERTEX_POINT ( 'NONE', #873 ) ;
#437 = VERTEX_POINT ( 'NONE', #1036 ) ;
#438 = DIRECTION ( 'NONE',  ( -1.000000000000000000, 3.241712115390480395E-18, -0.000000000000000000 ) ) ;
#439 = VERTEX_POINT ( 'NONE', #143 ) ;
#440 = APPLICATION_CONTEXT ( 'configuration controlled 3d designs of mechanical parts and assemblies' ) ;
#441 = AXIS2_PLACEMENT_3D ( 'NONE', #497, #85, #418 ) ;
#442 = CIRCLE ( 'NONE', #94, 29.37083487540114035 ) ;
#443 = APPROVAL_ROLE ( '' ) ;
#444 = VERTEX_POINT ( 'NONE', #69 ) ;
#445 = AXIS2_PLACEMENT_3D ( 'NONE', #989, #333, #583 ) ;
#446 = DIRECTION ( 'NONE',  ( 1.000000000000000000, -3.241712115390480395E-18, 0.000000000000000000 ) ) ;
#447 = ADVANCED_FACE ( 'NONE', ( #388 ), #917, .T. ) ;
#448 = PRODUCT ( '79-8476 - Stegmuff. 63.5-60-54', '79-8476 - Stegmuff. 63.5-60-54', '', ( #587 ) ) ;
#449 = ORIENTED_EDGE ( 'NONE', *, *, #35, .T. ) ;
#450 = DIRECTION ( 'NONE',  ( -3.969952365870146765E-34, -1.224646799147353207E-16, 1.000000000000000000 ) ) ;
#451 = DIRECTION ( 'NONE',  ( 0.000000000000000000, 1.000000000000000000, 0.000000000000000000 ) ) ;
#452 = APPROVAL ( #473, 'UNSPECIFIED' ) ;
#453 = VERTEX_POINT ( 'NONE', #395 ) ;
#454 = FACE_OUTER_BOUND ( 'NONE', #1065, .T. ) ;
#455 = DIRECTION ( 'NONE',  ( 0.000000000000000000, 1.000000000000000000, 0.000000000000000000 ) ) ;
#456 = CIRCLE ( 'NONE', #407, 4.999999999999997335 ) ;
#457 = ORIENTED_EDGE ( 'NONE', *, *, #761, .T. ) ;
#458 = ADVANCED_FACE ( 'NONE', ( #212 ), #1003, .F. ) ;
#459 = DIRECTION ( 'NONE',  ( 0.000000000000000000, -1.000000000000000000, 0.000000000000000000 ) ) ;
#460 = ORIENTED_EDGE ( 'NONE', *, *, #628, .T. ) ;
#461 = CIRCLE ( 'NONE', #530, 30.66987298107778770 ) ;
#462 = CARTESIAN_POINT ( 'NONE',  ( -32.41549307413966829, -26.99999999999997158, 0.000000000000000000 ) ) ;
#463 = EDGE_CURVE ( 'NONE', #999, #584, #470, .T. ) ;
#464 = CARTESIAN_POINT ( 'NONE',  ( 32.41549307413965408, 1.253210400485779394E-14, 0.000000000000000000 ) ) ;
#465 = DIRECTION ( 'NONE',  ( 0.000000000000000000, 0.000000000000000000, -1.000000000000000000 ) ) ;
#466 = EDGE_LOOP ( 'NONE', ( #284, #911, #763, #645 ) ) ;
#467 = ORIENTED_EDGE ( 'NONE', *, *, #233, .F. ) ;
#468 = FACE_OUTER_BOUND ( 'NONE', #581, .T. ) ;
#469 = ORIENTED_EDGE ( 'NONE', *, *, #585, .F. ) ;
#470 = LINE ( 'NONE', #221, #180 ) ;
#471 = EDGE_CURVE ( 'NONE', #980, #781, #718, .T. ) ;
#472 = ORIENTED_EDGE ( 'NONE', *, *, #168, .F. ) ;
#473 = APPROVAL_STATUS ( 'not_yet_approved' ) ;
#474 = FACE_OUTER_BOUND ( 'NONE', #765, .T. ) ;
#475 = TOROIDAL_SURFACE ( 'NONE', #355, 31.99999999999998579, 5.000000000000000000 ) ;
#476 = CIRCLE ( 'NONE', #10, 25.49999999999998579 ) ;
#477 = VERTEX_POINT ( 'NONE', #637 ) ;
#478 = CIRCLE ( 'NONE', #623, 28.03108891324551877 ) ;
#479 = SECURITY_CLASSIFICATION ( '', '', #677 ) ;
#480 = CARTESIAN_POINT ( 'NONE',  ( 31.07574711198404671, 1.253644707557485808E-14, 0.000000000000000000 ) ) ;
#481 = EDGE_CURVE ( 'NONE', #117, #962, #968, .T. ) ;
#482 = DIRECTION ( 'NONE',  ( 1.000000000000000000, -3.241712115390480395E-18, 0.000000000000000000 ) ) ;
#483 = CARTESIAN_POINT ( 'NONE',  ( -32.41549307413966829, 1.274226739810738064E-14, 0.000000000000000000 ) ) ;
#484 = ORIENTED_EDGE ( 'NONE', *, *, #390, .T. ) ;
#485 = DIRECTION ( 'NONE',  ( 1.000000000000000000, -3.241712115390480395E-18, 0.000000000000000000 ) ) ;
#486 = CARTESIAN_POINT ( 'NONE',  ( 29.95491223658291347, 1.254008049956979860E-14, 0.000000000000000000 ) ) ;
#487 = ORIENTED_EDGE ( 'NONE', *, *, #326, .T. ) ;
#488 = FACE_OUTER_BOUND ( 'NONE', #466, .T. ) ;
#489 = DIRECTION ( 'NONE',  ( 0.000000000000000000, -1.000000000000000000, 0.000000000000000000 ) ) ;
#490 = CYLINDRICAL_SURFACE ( 'NONE', #495, 28.49999999999998224 ) ;
#491 = ADVANCED_FACE ( 'NONE', ( #924 ), #834, .T. ) ;
#492 = EDGE_LOOP ( 'NONE', ( #722, #86, #365, #14 ) ) ;
#493 = CIRCLE ( 'NONE', #22, 26.99999999999998579 ) ;
#494 = TOROIDAL_SURFACE ( 'NONE', #112, 24.99999999999998579, 3.500000000000000000 ) ;
#495 = AXIS2_PLACEMENT_3D ( 'NONE', #985, #75, #157 ) ;
#496 = CARTESIAN_POINT ( 'NONE',  ( -24.53984872712181797, 28.49999999999999645, 3.490243377569954483E-15 ) ) ;
#497 = CARTESIAN_POINT ( 'NONE',  ( 26.70491223658289570, 1.255061606394481919E-14, 0.000000000000000000 ) ) ;
#498 = EDGE_CURVE ( 'NONE', #625, #1005, #737, .T. ) ;
#499 = DIRECTION ( 'NONE',  ( 0.000000000000000000, -1.000000000000000000, 0.000000000000000000 ) ) ;
#500 = EDGE_LOOP ( 'NONE', ( #240, #167 ) ) ;
#501 = DIRECTION ( 'NONE',  ( -3.969952365870146765E-34, -1.224646799147353207E-16, 1.000000000000000000 ) ) ;
#502 = DATE_TIME_ROLE ( 'classification_date' ) ;
#503 = CARTESIAN_POINT ( 'NONE',  ( -26.28984872712181797, 1.272240982261308125E-14, 0.000000000000000000 ) ) ;
#504 = ORIENTED_EDGE ( 'NONE', *, *, #509, .T. ) ;
#505 = CARTESIAN_POINT ( 'NONE',  ( 32.41549307413965408, -31.74999999999997158, 0.000000000000000000 ) ) ;
#506 = PERSON_AND_ORGANIZATION_ROLE ( 'design_owner' ) ;
#507 = ORIENTED_EDGE ( 'NONE', *, *, #569, .T. ) ;
#508 = AXIS2_PLACEMENT_3D ( 'NONE', #766, #680, #84 ) ;
#509 = EDGE_CURVE ( 'NONE', #958, #547, #159, .T. ) ;
#510 = CIRCLE ( 'NONE', #44, 25.49999999999998579 ) ;
#511 = EDGE_CURVE ( 'NONE', #931, #372, #900, .T. ) ;
#512 = CC_DESIGN_APPROVAL ( #70, ( #479 ) ) ;
#513 = FACE_OUTER_BOUND ( 'NONE', #114, .T. ) ;
#514 = APPLICATION_PROTOCOL_DEFINITION ( 'international standard', 'config_control_design', 1994, #440 ) ;
#515 = ORIENTED_EDGE ( 'NONE', *, *, #947, .F. ) ;
#516 = CARTESIAN_POINT ( 'NONE',  ( -85.00000000000000000, 1.291273123129077766E-14, 0.000000000000000000 ) ) ;
#517 = CC_DESIGN_PERSON_AND_ORGANIZATION_ASSIGNMENT ( #171, #823, ( #479 ) ) ;
#518 = DATE_AND_TIME ( #250, #359 ) ;
#519 =( NAMED_UNIT ( * ) SI_UNIT ( $, .STERADIAN. ) SOLID_ANGLE_UNIT ( ) );
#520 = EDGE_LOOP ( 'NONE', ( #731, #824, #47, #939 ) ) ;
#521 = LINE ( 'NONE', #733, #314 ) ;
#522 = ORIENTED_EDGE ( 'NONE', *, *, #105, .F. ) ;
#523 = EDGE_CURVE ( 'NONE', #532, #758, #774, .T. ) ;
#524 = CARTESIAN_POINT ( 'NONE',  ( 32.41549307413965408, -26.74999999999996803, 3.275930187719167580E-15 ) ) ;
#525 = AXIS2_PLACEMENT_3D ( 'NONE', #879, #959, #550 ) ;
#526 = CIRCLE ( 'NONE', #1007, 29.33012701892217677 ) ;
#527 = AXIS2_PLACEMENT_3D ( 'NONE', #786, #77, #626 ) ;
#528 = AXIS2_PLACEMENT_3D ( 'NONE', #753, #574, #424 ) ;
#529 = ORIENTED_EDGE ( 'NONE', *, *, #397, .T. ) ;
#530 = AXIS2_PLACEMENT_3D ( 'NONE', #222, #201, #621 ) ;
#531 = DIRECTION ( 'NONE',  ( -1.000000000000000000, 3.241712115390480395E-18, -0.000000000000000000 ) ) ;
#532 = VERTEX_POINT ( 'NONE', #169 ) ;
#533 = CARTESIAN_POINT ( 'NONE',  ( 32.41549307413965408, 1.253210400485779236E-14, 0.000000000000000000 ) ) ;
#534 = ORIENTED_EDGE ( 'NONE', *, *, #983, .F. ) ;
#535 = CARTESIAN_POINT ( 'NONE',  ( -32.41549307413966829, -31.99999999999997158, 0.000000000000000000 ) ) ;
#536 = ORIENTED_EDGE ( 'NONE', *, *, #538, .F. ) ;
#537 = DIRECTION ( 'NONE',  ( 0.000000000000000000, 0.000000000000000000, -1.000000000000000000 ) ) ;
#538 = EDGE_CURVE ( 'NONE', #604, #444, #5, .T. ) ;
#539 = AXIS2_PLACEMENT_3D ( 'NONE', #305, #631, #963 ) ;
#540 = EDGE_CURVE ( 'NONE', #453, #980, #294, .T. ) ;
#541 = FACE_OUTER_BOUND ( 'NONE', #391, .T. ) ;
#542 = AXIS2_PLACEMENT_3D ( 'NONE', #926, #782, #341 ) ;
#543 = APPROVAL_PERSON_ORGANIZATION ( #580, #1015, #443 ) ;
#544 = DIRECTION ( 'NONE',  ( 0.000000000000000000, 1.000000000000000000, 0.000000000000000000 ) ) ;
#545 = ORIENTED_EDGE ( 'NONE', *, *, #628, .F. ) ;
#546 = AXIS2_PLACEMENT_3D ( 'NONE', #779, #887, #288 ) ;
#547 = VERTEX_POINT ( 'NONE', #846 ) ;
#548 = CARTESIAN_POINT ( 'NONE',  ( -85.00000000000000000, 25.50000000000000000, 3.122849337825748645E-15 ) ) ;
#549 = EDGE_LOOP ( 'NONE', ( #1014, #751, #857, #1016 ) ) ;
#550 = DIRECTION ( 'NONE',  ( 3.241712115390480395E-18, 1.000000000000000000, 0.000000000000000000 ) ) ;
#551 = ORIENTED_EDGE ( 'NONE', *, *, #727, .T. ) ;
#552 = ORIENTED_EDGE ( 'NONE', *, *, #397, .F. ) ;
#553 = ADVANCED_FACE ( 'NONE', ( #108 ), #885, .F. ) ;
#554 = DIRECTION ( 'NONE',  ( 0.8660254037844379305, 0.5000000000000011102, 0.000000000000000000 ) ) ;
#555 = DIRECTION ( 'NONE',  ( 0.000000000000000000, 1.000000000000000000, 0.000000000000000000 ) ) ;
#556 = CIRCLE ( 'NONE', #746, 5.000000000000000888 ) ;
#557 = DIRECTION ( 'NONE',  ( -1.000000000000000000, 3.241712115390480395E-18, -0.000000000000000000 ) ) ;
#558 = CONICAL_SURFACE ( 'NONE', #990, 28.70096189432332778, 0.5235987755983001479 ) ;
#559 = VERTEX_POINT ( 'NONE', #287 ) ;
#560 = AXIS2_PLACEMENT_3D ( 'NONE', #213, #56, #381 ) ;
#561 = DIRECTION ( 'NONE',  ( 0.8660254037844375974, -0.5000000000000019984, 6.123233995736790688E-17 ) ) ;
#562 = CONICAL_SURFACE ( 'NONE', #560, 29.99999999999998579, 0.5235987755983001479 ) ;
#563 = ADVANCED_FACE ( 'NONE', ( #488 ), #270, .T. ) ;
#564 = FACE_OUTER_BOUND ( 'NONE', #492, .T. ) ;
#565 = DIRECTION ( 'NONE',  ( -1.000000000000000000, 3.241712115390480395E-18, -0.000000000000000000 ) ) ;
#566 = EDGE_LOOP ( 'NONE', ( #596, #863, #420, #793 ) ) ;
#567 = FACE_OUTER_BOUND ( 'NONE', #220, .T. ) ;
#568 = DIRECTION ( 'NONE',  ( 0.000000000000000000, 1.000000000000000000, 0.000000000000000000 ) ) ;
#569 = EDGE_CURVE ( 'NONE', #607, #193, #331, .T. ) ;
#570 = PLANE ( 'NONE',  #832 ) ;
#571 = DIRECTION ( 'NONE',  ( 1.000000000000000000, -3.241712115390480395E-18, 0.000000000000000000 ) ) ;
#572 = EDGE_LOOP ( 'NONE', ( #935, #252, #363, #974 ) ) ;
#573 = CARTESIAN_POINT ( 'NONE',  ( -25.87959468927743245, 30.00000000000000000, 0.000000000000000000 ) ) ;
#574 = DIRECTION ( 'NONE',  ( 1.000000000000000000, -3.241712115390480395E-18, 0.000000000000000000 ) ) ;
#575 = ORIENTED_EDGE ( 'NONE', *, *, #92, .F. ) ;
#576 = AXIS2_PLACEMENT_3D ( 'NONE', #185, #818, #191 ) ;
#577 = CIRCLE ( 'NONE', #542, 6.499999999999999112 ) ;
#578 = CARTESIAN_POINT ( 'NONE',  ( -29.16549307413966119, 1.273173183373236321E-14, 0.000000000000000000 ) ) ;
#579 = PERSON_AND_ORGANIZATION ( #1019, #853 ) ;
#580 = PERSON_AND_ORGANIZATION ( #1019, #853 ) ;
#581 = EDGE_LOOP ( 'NONE', ( #4, #992, #348, #1034 ) ) ;
#582 = EDGE_CURVE ( 'NONE', #625, #304, #42, .T. ) ;
#583 = DIRECTION ( 'NONE',  ( 0.000000000000000000, 1.000000000000000000, 0.000000000000000000 ) ) ;
#584 = VERTEX_POINT ( 'NONE', #1008 ) ;
#585 = EDGE_CURVE ( 'NONE', #781, #547, #937, .T. ) ;
#586 = EDGE_CURVE ( 'NONE', #684, #999, #743, .T. ) ;
#587 = MECHANICAL_CONTEXT ( 'NONE', #440, 'mechanical' ) ;
#588 = ORIENTED_EDGE ( 'NONE', *, *, #761, .F. ) ;
#589 = AXIS2_PLACEMENT_3D ( 'NONE', #934, #808, #106 ) ;
#590 = CIRCLE ( 'NONE', #726, 5.000000000000000888 ) ;
#591 = AXIS2_PLACEMENT_3D ( 'NONE', #321, #318, #649 ) ;
#592 = AXIS2_PLACEMENT_3D ( 'NONE', #337, #819, #251 ) ;
#593 = EDGE_CURVE ( 'NONE', #372, #559, #274, .T. ) ;
#594 = AXIS2_PLACEMENT_3D ( 'NONE', #696, #368, #555 ) ;
#595 = DIRECTION ( 'NONE',  ( 0.000000000000000000, -1.000000000000000000, 0.000000000000000000 ) ) ;
#596 = ORIENTED_EDGE ( 'NONE', *, *, #673, .F. ) ;
#597 = DIRECTION ( 'NONE',  ( 0.000000000000000000, 0.000000000000000000, -1.000000000000000000 ) ) ;
#598 = ORIENTED_EDGE ( 'NONE', *, *, #498, .T. ) ;
#599 = EDGE_CURVE ( 'NONE', #437, #338, #521, .T. ) ;
#600 = EDGE_LOOP ( 'NONE', ( #377, #552, #254, #630 ) ) ;
#601 = ADVANCED_FACE ( 'NONE', ( #361 ), #124, .T. ) ;
#602 = EDGE_LOOP ( 'NONE', ( #133, #850, #360, #610 ) ) ;
#603 = DIRECTION ( 'NONE',  ( -1.000000000000000000, 3.241712115390480395E-18, -0.000000000000000000 ) ) ;
#604 = VERTEX_POINT ( 'NONE', #923 ) ;
#605 = AXIS2_PLACEMENT_3D ( 'NONE', #266, #901, #670 ) ;
#606 = AXIS2_PLACEMENT_3D ( 'NONE', #401, #597, #757 ) ;
#607 = VERTEX_POINT ( 'NONE', #496 ) ;
#608 = CARTESIAN_POINT ( 'NONE',  ( -24.53984872712181797, 24.99999999999999645, 0.000000000000000000 ) ) ;
#609 = CARTESIAN_POINT ( 'NONE',  ( 26.70491223658290281, 1.255061606394481761E-14, 0.000000000000000000 ) ) ;
#610 = ORIENTED_EDGE ( 'NONE', *, *, #339, .F. ) ;
#611 = CARTESIAN_POINT ( 'NONE',  ( -29.16549307413966119, 1.273173183373236321E-14, 0.000000000000000000 ) ) ;
#612 = EDGE_CURVE ( 'NONE', #1053, #854, #257, .T. ) ;
#613 = EDGE_CURVE ( 'NONE', #126, #436, #417, .T. ) ;
#614 = DIRECTION ( 'NONE',  ( 0.000000000000000000, -0.000000000000000000, -1.000000000000000000 ) ) ;
#615 = EDGE_CURVE ( 'NONE', #962, #338, #206, .T. ) ;
#616 = VERTEX_POINT ( 'NONE', #976 ) ;
#617 = DIRECTION ( 'NONE',  ( 0.000000000000000000, -1.000000000000000000, 1.224646799147353947E-16 ) ) ;
#618 = ORIENTED_EDGE ( 'NONE', *, *, #612, .F. ) ;
#619 = DIRECTION ( 'NONE',  ( -1.000000000000000000, 3.241712115390480395E-18, -0.000000000000000000 ) ) ;
#620 = CC_DESIGN_PERSON_AND_ORGANIZATION_ASSIGNMENT ( #177, #506, ( #448 ) ) ;
#621 = DIRECTION ( 'NONE',  ( 0.000000000000000000, 1.000000000000000000, 0.000000000000000000 ) ) ;
#622 = VECTOR ( 'NONE', #752, 1000.000000000000000 ) ;
#623 = AXIS2_PLACEMENT_3D ( 'NONE', #735, #230, #1064 ) ;
#624 = DIRECTION ( 'NONE',  ( -1.000000000000000000, 3.241712115390480395E-18, -0.000000000000000000 ) ) ;
#625 = VERTEX_POINT ( 'NONE', #1 ) ;
#626 = DIRECTION ( 'NONE',  ( 0.000000000000000000, -1.000000000000000000, 0.000000000000000000 ) ) ;
#627 = CARTESIAN_POINT ( 'NONE',  ( -85.00000000000000000, 28.49999999999999645, 3.490243377569954483E-15 ) ) ;
#628 = EDGE_CURVE ( 'NONE', #304, #625, #493, .T. ) ;
#629 = FACE_OUTER_BOUND ( 'NONE', #549, .T. ) ;
#630 = ORIENTED_EDGE ( 'NONE', *, *, #1044, .F. ) ;
#631 = DIRECTION ( 'NONE',  ( -1.000000000000000000, 3.241712115390480395E-18, -0.000000000000000000 ) ) ;
#632 = ORIENTED_EDGE ( 'NONE', *, *, #232, .F. ) ;
#633 = CC_DESIGN_PERSON_AND_ORGANIZATION_ASSIGNMENT ( #927, #668, ( #889 ) ) ;
#634 = APPROVAL_DATE_TIME ( #307, #452 ) ;
#635 = DIRECTION ( 'NONE',  ( 0.000000000000000000, -1.000000000000000000, 0.000000000000000000 ) ) ;
#636 = ORIENTED_EDGE ( 'NONE', *, *, #653, .T. ) ;
#637 = CARTESIAN_POINT ( 'NONE',  ( 26.70491223658290281, 28.49999999999999645, 3.490243377569954483E-15 ) ) ;
#638 = AXIS2_PLACEMENT_3D ( 'NONE', #799, #216, #1043 ) ;
#639 = DIRECTION ( 'NONE',  ( 1.000000000000000000, -3.241712115390480395E-18, 0.000000000000000000 ) ) ;
#640 = CARTESIAN_POINT ( 'NONE',  ( -24.53984872712181797, 1.271673682641114733E-14, 0.000000000000000000 ) ) ;
#641 = AXIS2_PLACEMENT_3D ( 'NONE', #1050, #229, #902 ) ;
#642 = ORIENTED_EDGE ( 'NONE', *, *, #1038, .T. ) ;
#643 = CARTESIAN_POINT ( 'NONE',  ( 29.20491223658291347, 1.254251178365634351E-14, 0.000000000000000000 ) ) ;
#644 = CARTESIAN_POINT ( 'NONE',  ( -25.12959468927743245, -28.70096189432331357, 3.514854111633321871E-15 ) ) ;
#645 = ORIENTED_EDGE ( 'NONE', *, *, #925, .F. ) ;
#646 = CYLINDRICAL_SURFACE ( 'NONE', #659, 26.99999999999998579 ) ;
#647 = CARTESIAN_POINT ( 'NONE',  ( -32.41549307413966829, 1.274226739810738222E-14, 0.000000000000000000 ) ) ;
#648 = EDGE_CURVE ( 'NONE', #547, #781, #109, .T. ) ;
#649 = DIRECTION ( 'NONE',  ( 0.000000000000000000, -1.000000000000000000, 0.000000000000000000 ) ) ;
#650 = CARTESIAN_POINT ( 'NONE',  ( -85.00000000000000000, 1.291273123129077766E-14, 0.000000000000000000 ) ) ;
#651 = ORIENTED_EDGE ( 'NONE', *, *, #875, .T. ) ;
#652 = DIRECTION ( 'NONE',  ( -1.000000000000000000, 3.241712115390480395E-18, -0.000000000000000000 ) ) ;
#653 = EDGE_CURVE ( 'NONE', #477, #453, #144, .T. ) ;
#654 = APPLICATION_PROTOCOL_DEFINITION ( 'international standard', 'config_control_design', 1994, #107 ) ;
#655 = VERTEX_POINT ( 'NONE', #548 ) ;
#656 = CIRCLE ( 'NONE', #970, 29.99999999999998579 ) ;
#657 = AXIS2_PLACEMENT_3D ( 'NONE', #611, #957, #544 ) ;
#658 = CARTESIAN_POINT ( 'NONE',  ( -85.00000000000000000, -25.49999999999997158, 0.000000000000000000 ) ) ;
#659 = AXIS2_PLACEMENT_3D ( 'NONE', #1061, #704, #895 ) ;
#660 = AXIS2_PLACEMENT_3D ( 'NONE', #578, #734, #170 ) ;
#661 = CARTESIAN_POINT ( 'NONE',  ( -29.91549307413966119, 1.273416311781890497E-14, 0.000000000000000000 ) ) ;
#662 = EDGE_CURVE ( 'NONE', #324, #856, #792, .T. ) ;
#663 = ORIENTED_EDGE ( 'NONE', *, *, #983, .T. ) ;
#664 = DIRECTION ( 'NONE',  ( -1.000000000000000000, 0.000000000000000000, 0.000000000000000000 ) ) ;
#665 = CARTESIAN_POINT ( 'NONE',  ( 85.00000000000000000, 1.236164017167439692E-14, 0.000000000000000000 ) ) ;
#666 = ORIENTED_EDGE ( 'NONE', *, *, #662, .F. ) ;
#667 = CARTESIAN_POINT ( 'NONE',  ( 26.70491223658289570, -34.99999999999997158, 0.000000000000000000 ) ) ;
#668 = PERSON_AND_ORGANIZATION_ROLE ( 'design_supplier' ) ;
#669 = EDGE_LOOP ( 'NONE', ( #588, #135 ) ) ;
#670 = DIRECTION ( 'NONE',  ( 0.000000000000000000, -1.000000000000000000, 0.000000000000000000 ) ) ;
#671 = VECTOR ( 'NONE', #738, 1000.000000000000000 ) ;
#672 = AXIS2_PLACEMENT_3D ( 'NONE', #373, #603, #764 ) ;
#673 = EDGE_CURVE ( 'NONE', #439, #999, #332, .T. ) ;
#674 = CIRCLE ( 'NONE', #13, 29.37083487540114035 ) ;
#675 = AXIS2_PLACEMENT_3D ( 'NONE', #23, #358, #347 ) ;
#676 = VECTOR ( 'NONE', #52, 1000.000000000000000 ) ;
#677 = SECURITY_CLASSIFICATION_LEVEL ( 'unclassified' ) ;
#678 = DIRECTION ( 'NONE',  ( 1.000000000000000000, -3.241712115390480395E-18, 0.000000000000000000 ) ) ;
#679 = ORIENTED_EDGE ( 'NONE', *, *, #523, .F. ) ;
#680 = DIRECTION ( 'NONE',  ( 1.000000000000000000, -3.241712115390480395E-18, 0.000000000000000000 ) ) ;
#681 = ORIENTED_EDGE ( 'NONE', *, *, #138, .T. ) ;
#682 = VERTEX_POINT ( 'NONE', #1026 ) ;
#683 = DIRECTION ( 'NONE',  ( 0.000000000000000000, -0.000000000000000000, -1.000000000000000000 ) ) ;
#684 = VERTEX_POINT ( 'NONE', #37 ) ;
#685 = EDGE_LOOP ( 'NONE', ( #83, #698, #692, #772 ) ) ;
#686 = DIRECTION ( 'NONE',  ( -1.000000000000000000, 3.241712115390480395E-18, -0.000000000000000000 ) ) ;
#687 = CARTESIAN_POINT ( 'NONE',  ( -85.00000000000000000, 1.291273123129077766E-14, 0.000000000000000000 ) ) ;
#688 = TOROIDAL_SURFACE ( 'NONE', #194, 24.99999999999998579, 3.500000000000000000 ) ;
#689 = TOROIDAL_SURFACE ( 'NONE', #261, 31.99999999999998579, 6.500000000000000888 ) ;
#690 = LOCAL_TIME ( 0, 4, 6.000000000000000000, #715 ) ;
#691 = ADVANCED_FACE ( 'NONE', ( #370 ), #862, .T. ) ;
#692 = ORIENTED_EDGE ( 'NONE', *, *, #1038, .F. ) ;
#693 = EDGE_CURVE ( 'NONE', #584, #607, #315, .T. ) ;
#694 = CARTESIAN_POINT ( 'NONE',  ( -32.41549307413966829, 32.00000000000000000, 3.918869757271528685E-15 ) ) ;
#695 = DIRECTION ( 'NONE',  ( 0.000000000000000000, -1.000000000000000000, 0.000000000000000000 ) ) ;
#696 = CARTESIAN_POINT ( 'NONE',  ( 31.82574711198405026, 1.253401579148831632E-14, 0.000000000000000000 ) ) ;
#697 = CARTESIAN_POINT ( 'NONE',  ( -32.41549307413966829, 1.274226739810738222E-14, 0.000000000000000000 ) ) ;
#698 = ORIENTED_EDGE ( 'NONE', *, *, #771, .T. ) ;
#699 = PRODUCT_DEFINITION ( 'UNKNOWN', '', #889, #915 ) ;
#700 = FACE_OUTER_BOUND ( 'NONE', #711, .T. ) ;
#701 = LINE ( 'NONE', #1045, #676 ) ;
#702 = CARTESIAN_POINT ( 'NONE',  ( 85.00000000000000000, -30.24999999999997158, 0.000000000000000000 ) ) ;
#703 = ORIENTED_EDGE ( 'NONE', *, *, #613, .T. ) ;
#704 = DIRECTION ( 'NONE',  ( -1.000000000000000000, 3.241712115390480395E-18, -0.000000000000000000 ) ) ;
#705 = AXIS2_PLACEMENT_3D ( 'NONE', #858, #686, #773 ) ;
#706 = CIRCLE ( 'NONE', #78, 28.49999999999998224 ) ;
#707 = AXIS2_PLACEMENT_3D ( 'NONE', #34, #43, #364 ) ;
#708 = FACE_OUTER_BOUND ( 'NONE', #600, .T. ) ;
#709 = AXIS2_PLACEMENT_3D ( 'NONE', #129, #619, #775 ) ;
#710 = CARTESIAN_POINT ( 'NONE',  ( 29.95491223658291347, 1.254008049956979860E-14, 0.000000000000000000 ) ) ;
#711 = EDGE_LOOP ( 'NONE', ( #290, #1060, #449, #769 ) ) ;
#712 = VECTOR ( 'NONE', #725, 1000.000000000000114 ) ;
#713 = DIRECTION ( 'NONE',  ( 0.000000000000000000, -1.000000000000000000, 0.000000000000000000 ) ) ;
#714 = EDGE_LOOP ( 'NONE', ( #484, #394, #681, #24 ) ) ;
#715 = COORDINATED_UNIVERSAL_TIME_OFFSET ( 1, 0, .AHEAD. ) ;
#716 = CYLINDRICAL_SURFACE ( 'NONE', #145, 28.49999999999998224 ) ;
#717 = ORIENTED_EDGE ( 'NONE', *, *, #727, .F. ) ;
#718 = LINE ( 'NONE', #1049, #160 ) ;
#719 = CARTESIAN_POINT ( 'NONE',  ( 85.00000000000000000, 30.25000000000000000, 3.704556567420741387E-15 ) ) ;
#720 = DIRECTION ( 'NONE',  ( 1.000000000000000000, -3.241712115390480395E-18, 0.000000000000000000 ) ) ;
#721 = EDGE_CURVE ( 'NONE', #304, #758, #456, .T. ) ;
#722 = ORIENTED_EDGE ( 'NONE', *, *, #123, .F. ) ;
#723 = DIRECTION ( 'NONE',  ( 3.241712115390480395E-18, 1.000000000000000000, 0.000000000000000000 ) ) ;
#724 = AXIS2_PLACEMENT_3D ( 'NONE', #161, #982, #723 ) ;
#725 = DIRECTION ( 'NONE',  ( 0.8660254037844379305, -0.5000000000000011102, 6.123233995736779594E-17 ) ) ;
#726 = AXIS2_PLACEMENT_3D ( 'NONE', #694, #450, #940 ) ;
#727 = EDGE_CURVE ( 'NONE', #684, #604, #476, .T. ) ;
#728 = DIRECTION ( 'NONE',  ( -1.000000000000000000, 3.241712115390480395E-18, -0.000000000000000000 ) ) ;
#729 = CONICAL_SURFACE ( 'NONE', #260, 31.74999999999998579, 0.5235987755983011471 ) ;
#730 = AXIS2_PLACEMENT_3D ( 'NONE', #419, #103, #991 ) ;
#731 = ORIENTED_EDGE ( 'NONE', *, *, #851, .F. ) ;
#732 = DIRECTION ( 'NONE',  ( 1.000000000000000000, -3.241712115390480395E-18, 0.000000000000000000 ) ) ;
#733 = CARTESIAN_POINT ( 'NONE',  ( -85.00000000000000000, -31.74999999999997158, 0.000000000000000000 ) ) ;
#734 = DIRECTION ( 'NONE',  ( 1.000000000000000000, -3.241712115390480395E-18, 0.000000000000000000 ) ) ;
#735 = CARTESIAN_POINT ( 'NONE',  ( -26.28984872712181797, 1.272240982261308125E-14, 0.000000000000000000 ) ) ;
#736 = VERTEX_POINT ( 'NONE', #702 ) ;
#737 = LINE ( 'NONE', #841, #969 ) ;
#738 = DIRECTION ( 'NONE',  ( -1.000000000000000000, 3.241712115390480395E-18, -0.000000000000000000 ) ) ;
#739 = EDGE_CURVE ( 'NONE', #682, #76, #556, .T. ) ;
#740 = LINE ( 'NONE', #573, #777 ) ;
#741 = EDGE_LOOP ( 'NONE', ( #237, #545, #1048, #679 ) ) ;
#742 = FACE_BOUND ( 'NONE', #203, .T. ) ;
#743 = CIRCLE ( 'NONE', #142, 6.499999999999999112 ) ;
#744 = PERSON_AND_ORGANIZATION ( #1019, #853 ) ;
#745 = DIRECTION ( 'NONE',  ( 0.8660254037844379305, -0.5000000000000011102, 6.123233995736779594E-17 ) ) ;
#746 = AXIS2_PLACEMENT_3D ( 'NONE', #113, #125, #295 ) ;
#747 = AXIS2_PLACEMENT_3D ( 'NONE', #667, #614, #376 ) ;
#748 = APPROVAL_PERSON_ORGANIZATION ( #744, #70, #262 ) ;
#749 = AXIS2_PLACEMENT_3D ( 'NONE', #948, #880, #282 ) ;
#750 = DIRECTION ( 'NONE',  ( 0.000000000000000000, -1.000000000000000000, 1.224646799147353947E-16 ) ) ;
#751 = ORIENTED_EDGE ( 'NONE', *, *, #755, .T. ) ;
#752 = DIRECTION ( 'NONE',  ( -1.000000000000000000, 3.241712115390480395E-18, -0.000000000000000000 ) ) ;
#753 = CARTESIAN_POINT ( 'NONE',  ( 32.41549307413965408, 1.253210400485779236E-14, 0.000000000000000000 ) ) ;
#754 = EDGE_LOOP ( 'NONE', ( #374, #642, #54, #137 ) ) ;
#755 = EDGE_CURVE ( 'NONE', #814, #193, #275, .T. ) ;
#756 = EDGE_LOOP ( 'NONE', ( #296, #632, #154, #399 ) ) ;
#757 = DIRECTION ( 'NONE',  ( -1.000000000000000000, 0.000000000000000000, 0.000000000000000000 ) ) ;
#758 = VERTEX_POINT ( 'NONE', #280 ) ;
#759 = CIRCLE ( 'NONE', #707, 28.49999999999998224 ) ;
#760 = CIRCLE ( 'NONE', #747, 5.000000000000000888 ) ;
#761 = EDGE_CURVE ( 'NONE', #437, #616, #865, .T. ) ;
#762 = CC_DESIGN_APPROVAL ( #452, ( #889 ) ) ;
#763 = ORIENTED_EDGE ( 'NONE', *, *, #168, .T. ) ;
#764 = DIRECTION ( 'NONE',  ( 0.000000000000000000, -1.000000000000000000, 0.000000000000000000 ) ) ;
#765 = EDGE_LOOP ( 'NONE', ( #522, #467, #914, #231 ) ) ;
#766 = CARTESIAN_POINT ( 'NONE',  ( 32.41549307413965408, 1.253210400485779394E-14, 0.000000000000000000 ) ) ;
#767 = ORIENTED_EDGE ( 'NONE', *, *, #954, .T. ) ;
#768 = FACE_OUTER_BOUND ( 'NONE', #269, .T. ) ;
#769 = ORIENTED_EDGE ( 'NONE', *, *, #1062, .F. ) ;
#770 = CYLINDRICAL_SURFACE ( 'NONE', #709, 26.99999999999998579 ) ;
#771 = EDGE_CURVE ( 'NONE', #625, #532, #590, .T. ) ;
#772 = ORIENTED_EDGE ( 'NONE', *, *, #721, .F. ) ;
#773 = DIRECTION ( 'NONE',  ( 0.000000000000000000, 1.000000000000000000, 0.000000000000000000 ) ) ;
#774 = CIRCLE ( 'NONE', #426, 27.66987298107779125 ) ;
#775 = DIRECTION ( 'NONE',  ( 0.000000000000000000, -1.000000000000000000, 0.000000000000000000 ) ) ;
#776 = AXIS2_PLACEMENT_3D ( 'NONE', #207, #624, #871 ) ;
#777 = VECTOR ( 'NONE', #810, 1000.000000000000114 ) ;
#778 =( GEOMETRIC_REPRESENTATION_CONTEXT ( 3 ) GLOBAL_UNCERTAINTY_ASSIGNED_CONTEXT ( ( #842 ) ) GLOBAL_UNIT_ASSIGNED_CONTEXT ( ( #3, #329, #519 ) ) REPRESENTATION_CONTEXT ( 'NONE', 'WORKASPACE' ) );
#779 = CARTESIAN_POINT ( 'NONE',  ( -85.00000000000000000, 1.291273123129077766E-14, 0.000000000000000000 ) ) ;
#780 = DIRECTION ( 'NONE',  ( 0.000000000000000000, -1.000000000000000000, 0.000000000000000000 ) ) ;
#781 = VERTEX_POINT ( 'NONE', #198 ) ;
#782 = DIRECTION ( 'NONE',  ( 0.000000000000000000, -0.000000000000000000, -1.000000000000000000 ) ) ;
#783 = DIRECTION ( 'NONE',  ( 3.241712115390480395E-18, 1.000000000000000000, 0.000000000000000000 ) ) ;
#784 = DIRECTION ( 'NONE',  ( -1.000000000000000000, 0.000000000000000000, 0.000000000000000000 ) ) ;
#785 = ORIENTED_EDGE ( 'NONE', *, *, #804, .T. ) ;
#786 = CARTESIAN_POINT ( 'NONE',  ( -32.41549307413966829, 1.274226739810738222E-14, 0.000000000000000000 ) ) ;
#787 = FACE_OUTER_BOUND ( 'NONE', #754, .T. ) ;
#788 = APPROVAL_DATE_TIME ( #978, #1015 ) ;
#789 = LINE ( 'NONE', #813, #356 ) ;
#790 = ORIENTED_EDGE ( 'NONE', *, *, #35, .F. ) ;
#791 = CIRCLE ( 'NONE', #369, 25.49999999999998579 ) ;
#792 = CIRCLE ( 'NONE', #428, 5.000000000000000888 ) ;
#793 = ORIENTED_EDGE ( 'NONE', *, *, #463, .F. ) ;
#794 = VECTOR ( 'NONE', #312, 1000.000000000000000 ) ;
#795 = APPROVAL_ROLE ( '' ) ;
#796 = AXIS2_PLACEMENT_3D ( 'NONE', #100, #928, #595 ) ;
#797 = CARTESIAN_POINT ( 'NONE',  ( 26.70491223658290281, 1.255061606394481761E-14, 0.000000000000000000 ) ) ;
#798 = ORIENTED_EDGE ( 'NONE', *, *, #187, .T. ) ;
#799 = CARTESIAN_POINT ( 'NONE',  ( 32.41549307413965408, 1.253210400485779394E-14, 0.000000000000000000 ) ) ;
#800 = EDGE_CURVE ( 'NONE', #425, #436, #25, .T. ) ;
#801 = DIRECTION ( 'NONE',  ( -1.000000000000000000, 3.241712115390480395E-18, -0.000000000000000000 ) ) ;
#802 = LINE ( 'NONE', #979, #922 ) ;
#803 = ORIENTED_EDGE ( 'NONE', *, *, #217, .F. ) ;
#804 = EDGE_CURVE ( 'NONE', #682, #324, #1006, .T. ) ;
#805 = EDGE_CURVE ( 'NONE', #193, #607, #759, .T. ) ;
#806 = CARTESIAN_POINT ( 'NONE',  ( 29.91549307413964698, -31.08012701892215546, 3.806217807081620273E-15 ) ) ;
#807 = ORIENTED_EDGE ( 'NONE', *, *, #755, .F. ) ;
#808 = DIRECTION ( 'NONE',  ( 1.000000000000000000, -3.241712115390480395E-18, 0.000000000000000000 ) ) ;
#809 = VECTOR ( 'NONE', #256, 999.9999999999998863 ) ;
#810 = DIRECTION ( 'NONE',  ( 0.8660254037844379305, 0.5000000000000011102, 0.000000000000000000 ) ) ;
#811 = TOROIDAL_SURFACE ( 'NONE', #354, 31.99999999999998579, 6.500000000000000888 ) ;
#812 = COORDINATED_UNIVERSAL_TIME_OFFSET ( 1, 0, .AHEAD. ) ;
#813 = CARTESIAN_POINT ( 'NONE',  ( -85.00000000000000000, -29.99999999999997158, 0.000000000000000000 ) ) ;
#814 = VERTEX_POINT ( 'NONE', #1013 ) ;
#815 = CIRCLE ( 'NONE', #228, 28.03108891324551877 ) ;
#816 = VECTOR ( 'NONE', #40, 1000.000000000000000 ) ;
#817 = DIRECTION ( 'NONE',  ( 1.000000000000000000, -3.241712115390480395E-18, 0.000000000000000000 ) ) ;
#818 = DIRECTION ( 'NONE',  ( -1.000000000000000000, 3.241712115390480395E-18, -0.000000000000000000 ) ) ;
#819 = DIRECTION ( 'NONE',  ( -3.969952365870146765E-34, -1.224646799147353207E-16, 1.000000000000000000 ) ) ;
#820 = EDGE_LOOP ( 'NONE', ( #575, #197, #29, #878 ) ) ;
#821 = ADVANCED_FACE ( 'NONE', ( #454 ), #811, .T. ) ;
#822 = FACE_OUTER_BOUND ( 'NONE', #68, .T. ) ;
#823 = PERSON_AND_ORGANIZATION_ROLE ( 'classification_officer' ) ;
#824 = ORIENTED_EDGE ( 'NONE', *, *, #1028, .T. ) ;
#825 = CARTESIAN_POINT ( 'NONE',  ( 31.82574711198405026, 30.45096189432334199, 0.000000000000000000 ) ) ;
#826 = CC_DESIGN_DATE_AND_TIME_ASSIGNMENT ( #139, #57, ( #699 ) ) ;
#827 = ADVANCED_FACE ( 'NONE', ( #768 ), #385, .T. ) ;
#828 = DIRECTION ( 'NONE',  ( 1.000000000000000000, -3.241712115390480395E-18, 0.000000000000000000 ) ) ;
#829 = DIRECTION ( 'NONE',  ( 0.000000000000000000, 1.000000000000000000, 0.000000000000000000 ) ) ;
#830 = ORIENTED_EDGE ( 'NONE', *, *, #339, .T. ) ;
#831 = AXIS2_PLACEMENT_3D ( 'NONE', #608, #195, #1033 ) ;
#832 = AXIS2_PLACEMENT_3D ( 'NONE', #71, #249, #984 ) ;
#833 = AXIS2_PLACEMENT_3D ( 'NONE', #140, #67, #393 ) ;
#834 = CYLINDRICAL_SURFACE ( 'NONE', #1055, 29.99999999999998579 ) ;
#835 = CIRCLE ( 'NONE', #211, 30.24999999999998579 ) ;
#836 = DIRECTION ( 'NONE',  ( 1.000000000000000000, -3.241712115390480395E-18, 0.000000000000000000 ) ) ;
#837 = ADVANCED_FACE ( 'NONE', ( #629 ), #494, .F. ) ;
#838 = COORDINATED_UNIVERSAL_TIME_OFFSET ( 1, 0, .AHEAD. ) ;
#839 = CARTESIAN_POINT ( 'NONE',  ( 32.41549307413965408, 1.253210400485779394E-14, 0.000000000000000000 ) ) ;
#840 = ORIENTED_EDGE ( 'NONE', *, *, #582, .T. ) ;
#841 = CARTESIAN_POINT ( 'NONE',  ( -85.00000000000000000, 27.00000000000000000, 3.306546357697851761E-15 ) ) ;
#842 = UNCERTAINTY_MEASURE_WITH_UNIT (LENGTH_MEASURE( 1.000000000000000082E-05 ), #3, 'distance_accuracy_value', 'NONE');
#843 = DIRECTION ( 'NONE',  ( -1.000000000000000000, 3.241712115390480395E-18, -0.000000000000000000 ) ) ;
#844 = ORIENTED_EDGE ( 'NONE', *, *, #967, .F. ) ;
#845 = CARTESIAN_POINT ( 'NONE',  ( -85.00000000000000000, 1.291273123129077766E-14, 0.000000000000000000 ) ) ;
#846 = CARTESIAN_POINT ( 'NONE',  ( 30.66549307413964698, 29.78108891324552587, 0.000000000000000000 ) ) ;
#847 = ORIENTED_EDGE ( 'NONE', *, *, #967, .T. ) ;
#848 = DIRECTION ( 'NONE',  ( -3.969952365870146765E-34, -1.224646799147353207E-16, 1.000000000000000000 ) ) ;
#849 = AXIS2_PLACEMENT_3D ( 'NONE', #845, #930, #350 ) ;
#850 = ORIENTED_EDGE ( 'NONE', *, *, #272, .T. ) ;
#851 = EDGE_CURVE ( 'NONE', #616, #559, #82, .T. ) ;
#852 = CIRCLE ( 'NONE', #26, 3.499999999999999556 ) ;
#853 = ORGANIZATION ( 'UNSPECIFIED', 'UNSPECIFIED', '' ) ;
#854 = VERTEX_POINT ( 'NONE', #236 ) ;
#855 = DIRECTION ( 'NONE',  ( -3.241712115390480395E-18, -1.000000000000000000, 0.000000000000000000 ) ) ;
#856 = VERTEX_POINT ( 'NONE', #136 ) ;
#857 = ORIENTED_EDGE ( 'NONE', *, *, #805, .T. ) ;
#858 = CARTESIAN_POINT ( 'NONE',  ( 30.66549307413964698, 1.253777700105972628E-14, 0.000000000000000000 ) ) ;
#859 = ORIENTED_EDGE ( 'NONE', *, *, #63, .F. ) ;
#860 = DIRECTION ( 'NONE',  ( -1.000000000000000000, 3.241712115390480395E-18, -0.000000000000000000 ) ) ;
#861 = FACE_OUTER_BOUND ( 'NONE', #248, .T. ) ;
#862 = CYLINDRICAL_SURFACE ( 'NONE', #938, 31.74999999999998579 ) ;
#863 = ORIENTED_EDGE ( 'NONE', *, *, #123, .T. ) ;
#864 = CARTESIAN_POINT ( 'NONE',  ( -24.53984872712181797, 1.271673682641114733E-14, 0.000000000000000000 ) ) ;
#865 = CIRCLE ( 'NONE', #903, 31.74999999999998579 ) ;
#866 = CIRCLE ( 'NONE', #796, 31.74999999999998579 ) ;
#867 = VECTOR ( 'NONE', #745, 1000.000000000000114 ) ;
#868 = CONICAL_SURFACE ( 'NONE', #594, 30.45096189432332778, 0.5235987755983011471 ) ;
#869 = CARTESIAN_POINT ( 'NONE',  ( -24.53984872712181797, -29.99999999999997158, 0.000000000000000000 ) ) ;
#870 = ADVANCED_FACE ( 'NONE', ( #468 ), #490, .F. ) ;
#871 = DIRECTION ( 'NONE',  ( 0.000000000000000000, -1.000000000000000000, 0.000000000000000000 ) ) ;
#872 = ORIENTED_EDGE ( 'NONE', *, *, #593, .F. ) ;
#873 = CARTESIAN_POINT ( 'NONE',  ( 32.41549307413965408, 30.25000000000000000, 3.704556567420741387E-15 ) ) ;
#874 = PRODUCT_DEFINITION_SHAPE ( 'NONE', 'NONE',  #699 ) ;
#875 = EDGE_CURVE ( 'NONE', #304, #183, #802, .T. ) ;
#876 = CARTESIAN_POINT ( 'NONE',  ( -85.00000000000000000, 1.291273123129077766E-14, 0.000000000000000000 ) ) ;
#877 = FACE_OUTER_BOUND ( 'NONE', #714, .T. ) ;
#878 = ORIENTED_EDGE ( 'NONE', *, *, #352, .T. ) ;
#879 = CARTESIAN_POINT ( 'NONE',  ( -24.53984872712181797, 1.271673682641114733E-14, 0.000000000000000000 ) ) ;
#880 = DIRECTION ( 'NONE',  ( 1.000000000000000000, -3.241712115390480395E-18, 0.000000000000000000 ) ) ;
#881 = CALENDAR_DATE ( 2026, 16, 9 ) ;
#882 = CARTESIAN_POINT ( 'NONE',  ( 29.20491223658291347, 30.66987298107780191, 0.000000000000000000 ) ) ;
#883 = EDGE_LOOP ( 'NONE', ( #330, #891, #663, #65 ) ) ;
#884 = DIRECTION ( 'NONE',  ( -1.000000000000000000, 3.241712115390480395E-18, -0.000000000000000000 ) ) ;
#885 = TOROIDAL_SURFACE ( 'NONE', #508, 26.74999999999998224, 3.500000000000000000 ) ;
#886 = AXIS2_PLACEMENT_3D ( 'NONE', #367, #860, #259 ) ;
#887 = DIRECTION ( 'NONE',  ( -1.000000000000000000, 3.241712115390480395E-18, -0.000000000000000000 ) ) ;
#888 = CIRCLE ( 'NONE', #12, 31.08012701892216967 ) ;
#889 = PRODUCT_DEFINITION_FORMATION_WITH_SPECIFIED_SOURCE ( 'ANY', '', #448, .NOT_KNOWN. ) ;
#890 = DIRECTION ( 'NONE',  ( 1.000000000000000000, -3.241712115390480395E-18, 0.000000000000000000 ) ) ;
#891 = ORIENTED_EDGE ( 'NONE', *, *, #1011, .T. ) ;
#892 = DIRECTION ( 'NONE',  ( 1.000000000000000000, -3.241712115390480395E-18, 0.000000000000000000 ) ) ;
#893 = DIRECTION ( 'NONE',  ( 0.000000000000000000, 1.000000000000000000, 0.000000000000000000 ) ) ;
#894 = ORIENTED_EDGE ( 'NONE', *, *, #268, .T. ) ;
#895 = DIRECTION ( 'NONE',  ( 0.000000000000000000, -1.000000000000000000, 0.000000000000000000 ) ) ;
#896 = DIRECTION ( 'NONE',  ( 1.000000000000000000, -3.241712115390480395E-18, 0.000000000000000000 ) ) ;
#897 = EDGE_CURVE ( 'NONE', #854, #1053, #210, .T. ) ;
#898 = DIRECTION ( 'NONE',  ( 0.000000000000000000, 1.000000000000000000, 0.000000000000000000 ) ) ;
#899 = ORIENTED_EDGE ( 'NONE', *, *, #92, .T. ) ;
#900 = LINE ( 'NONE', #427, #192 ) ;
#901 = DIRECTION ( 'NONE',  ( -1.000000000000000000, 3.241712115390480395E-18, -0.000000000000000000 ) ) ;
#902 = DIRECTION ( 'NONE',  ( 0.000000000000000000, -1.000000000000000000, 0.000000000000000000 ) ) ;
#903 = AXIS2_PLACEMENT_3D ( 'NONE', #202, #1023, #459 ) ;
#904 = DIRECTION ( 'NONE',  ( 3.241712115390480395E-18, 1.000000000000000000, 0.000000000000000000 ) ) ;
#905 = ADVANCED_FACE ( 'NONE', ( #1052 ), #965, .F. ) ;
#906 = AXIS2_PLACEMENT_3D ( 'NONE', #46, #429, #99 ) ;
#907 = AXIS2_PLACEMENT_3D ( 'NONE', #383, #557, #413 ) ;
#908 = ORIENTED_EDGE ( 'NONE', *, *, #673, .T. ) ;
#909 = CARTESIAN_POINT ( 'NONE',  ( -85.00000000000000000, 1.291273123129077766E-14, 0.000000000000000000 ) ) ;
#910 = DIRECTION ( 'NONE',  ( 1.000000000000000000, -3.241712115390480395E-18, 0.000000000000000000 ) ) ;
#911 = ORIENTED_EDGE ( 'NONE', *, *, #18, .T. ) ;
#912 = DIRECTION ( 'NONE',  ( -3.241712115390480010E-18, -1.000000000000000000, 0.000000000000000000 ) ) ;
#913 = DIRECTION ( 'NONE',  ( 1.000000000000000000, -3.241712115390480395E-18, 0.000000000000000000 ) ) ;
#914 = ORIENTED_EDGE ( 'NONE', *, *, #278, .T. ) ;
#915 = DESIGN_CONTEXT ( 'detailed design', #107, 'design' ) ;
#916 = CARTESIAN_POINT ( 'NONE',  ( 29.91549307413964698, 1.254020828514626962E-14, 0.000000000000000000 ) ) ;
#917 = TOROIDAL_SURFACE ( 'NONE', #525, 24.99999999999998579, 5.000000000000000000 ) ;
#918 = CARTESIAN_POINT ( 'NONE',  ( 32.41549307413965408, 1.253210400485779236E-14, 0.000000000000000000 ) ) ;
#919 = ORIENTED_EDGE ( 'NONE', *, *, #599, .F. ) ;
#920 = AXIS2_PLACEMENT_3D ( 'NONE', #214, #1017, #617 ) ;
#921 = CIRCLE ( 'NONE', #384, 29.99999999999998579 ) ;
#922 = VECTOR ( 'NONE', #565, 1000.000000000000000 ) ;
#923 = CARTESIAN_POINT ( 'NONE',  ( -32.41549307413966829, -25.49999999999997158, 0.000000000000000000 ) ) ;
#924 = FACE_OUTER_BOUND ( 'NONE', #414, .T. ) ;
#925 = EDGE_CURVE ( 'NONE', #1053, #76, #789, .T. ) ;
#926 = CARTESIAN_POINT ( 'NONE',  ( -32.41549307413966829, -31.99999999999997158, 0.000000000000000000 ) ) ;
#927 = PERSON_AND_ORGANIZATION ( #1019, #853 ) ;
#928 = DIRECTION ( 'NONE',  ( -1.000000000000000000, 3.241712115390480395E-18, -0.000000000000000000 ) ) ;
#929 = ORIENTED_EDGE ( 'NONE', *, *, #523, .T. ) ;
#930 = DIRECTION ( 'NONE',  ( -1.000000000000000000, 3.241712115390480395E-18, -0.000000000000000000 ) ) ;
#931 = VERTEX_POINT ( 'NONE', #882 ) ;
#932 = CC_DESIGN_PERSON_AND_ORGANIZATION_ASSIGNMENT ( #235, #156, ( #699 ) ) ;
#933 = ORIENTED_EDGE ( 'NONE', *, *, #509, .F. ) ;
#934 = CARTESIAN_POINT ( 'NONE',  ( -24.53984872712181797, 1.271673682641114733E-14, 0.000000000000000000 ) ) ;
#935 = ORIENTED_EDGE ( 'NONE', *, *, #897, .F. ) ;
#936 = CARTESIAN_POINT ( 'NONE',  ( -32.41549307413966829, 1.274226739810738064E-14, 0.000000000000000000 ) ) ;
#937 = CIRCLE ( 'NONE', #1035, 29.78108891324551166 ) ;
#938 = AXIS2_PLACEMENT_3D ( 'NONE', #131, #378, #289 ) ;
#939 = ORIENTED_EDGE ( 'NONE', *, *, #1044, .T. ) ;
#940 = DIRECTION ( 'NONE',  ( 0.000000000000000000, -1.000000000000000000, -1.224646799147353454E-16 ) ) ;
#941 = ORIENTED_EDGE ( 'NONE', *, *, #875, .F. ) ;
#942 = CYLINDRICAL_SURFACE ( 'NONE', #906, 25.49999999999998579 ) ;
#943 = LINE ( 'NONE', #1025, #31 ) ;
#944 = DIRECTION ( 'NONE',  ( 0.000000000000000000, -1.000000000000000000, 0.000000000000000000 ) ) ;
#945 = ORIENTED_EDGE ( 'NONE', *, *, #1011, .F. ) ;
#946 = CARTESIAN_POINT ( 'NONE',  ( 32.41549307413965408, -26.74999999999996803, 3.275930187719167580E-15 ) ) ;
#947 = EDGE_CURVE ( 'NONE', #980, #958, #442, .T. ) ;
#948 = CARTESIAN_POINT ( 'NONE',  ( 31.07574711198404671, 1.253644707557485808E-14, 0.000000000000000000 ) ) ;
#949 = CARTESIAN_POINT ( 'NONE',  ( -24.53984872712181797, 24.99999999999999645, 0.000000000000000000 ) ) ;
#950 = EDGE_LOOP ( 'NONE', ( #276, #215, #1032, #178 ) ) ;
#951 = AXIS2_PLACEMENT_3D ( 'NONE', #524, #325, #317 ) ;
#952 = CYLINDRICAL_SURFACE ( 'NONE', #886, 30.24999999999998579 ) ;
#953 = AXIS2_PLACEMENT_3D ( 'NONE', #176, #639, #2 ) ;
#954 = EDGE_CURVE ( 'NONE', #814, #584, #478, .T. ) ;
#955 = AXIS2_PLACEMENT_3D ( 'NONE', #464, #148, #783 ) ;
#956 = PLANE ( 'NONE',  #411 ) ;
#957 = DIRECTION ( 'NONE',  ( 1.000000000000000000, -3.241712115390480395E-18, 0.000000000000000000 ) ) ;
#958 = VERTEX_POINT ( 'NONE', #323 ) ;
#959 = DIRECTION ( 'NONE',  ( 1.000000000000000000, -3.241712115390480395E-18, 0.000000000000000000 ) ) ;
#960 = ORIENTED_EDGE ( 'NONE', *, *, #648, .F. ) ;
#961 = CARTESIAN_POINT ( 'NONE',  ( 29.95491223658291347, -29.37083487540112614, 3.622010706558715520E-15 ) ) ;
#962 = VERTEX_POINT ( 'NONE', #806 ) ;
#963 = DIRECTION ( 'NONE',  ( -3.241712115390480010E-18, -1.000000000000000000, 0.000000000000000000 ) ) ;
#964 = DIRECTION ( 'NONE',  ( 3.241712115390480395E-18, 1.000000000000000000, 0.000000000000000000 ) ) ;
#965 = CYLINDRICAL_SURFACE ( 'NONE', #907, 25.49999999999998579 ) ;
#966 = ORIENTED_EDGE ( 'NONE', *, *, #511, .T. ) ;
#967 = EDGE_CURVE ( 'NONE', #183, #1005, #297, .T. ) ;
#968 = LINE ( 'NONE', #225, #60 ) ;
#969 = VECTOR ( 'NONE', #433, 1000.000000000000000 ) ;
#970 = AXIS2_PLACEMENT_3D ( 'NONE', #864, #998, #455 ) ;
#971 = TOROIDAL_SURFACE ( 'NONE', #45, 26.74999999999998224, 3.500000000000000000 ) ;
#972 = CARTESIAN_POINT ( 'NONE',  ( -25.12959468927743245, 1.271864861304166971E-14, 0.000000000000000000 ) ) ;
#973 = DIRECTION ( 'NONE',  ( 3.241712115390480395E-18, 1.000000000000000000, 0.000000000000000000 ) ) ;
#974 = ORIENTED_EDGE ( 'NONE', *, *, #326, .F. ) ;
#975 = DIRECTION ( 'NONE',  ( 0.000000000000000000, 1.000000000000000000, 0.000000000000000000 ) ) ;
#976 = CARTESIAN_POINT ( 'NONE',  ( 85.00000000000000000, 31.75000000000000000, 3.888253587292844898E-15 ) ) ;
#977 = ADVANCED_FACE ( 'NONE', ( #474 ), #716, .F. ) ;
#978 = DATE_AND_TIME ( #881, #690 ) ;
#979 = CARTESIAN_POINT ( 'NONE',  ( -85.00000000000000000, -26.99999999999997158, 0.000000000000000000 ) ) ;
#980 = VERTEX_POINT ( 'NONE', #961 ) ;
#981 = DIRECTION ( 'NONE',  ( 0.000000000000000000, -1.000000000000000000, 0.000000000000000000 ) ) ;
#982 = DIRECTION ( 'NONE',  ( 1.000000000000000000, -3.241712115390480395E-18, 0.000000000000000000 ) ) ;
#983 = EDGE_CURVE ( 'NONE', #958, #980, #674, .T. ) ;
#984 = DIRECTION ( 'NONE',  ( -3.241712115390480395E-18, -1.000000000000000000, 0.000000000000000000 ) ) ;
#985 = CARTESIAN_POINT ( 'NONE',  ( -85.00000000000000000, 1.291273123129077766E-14, 0.000000000000000000 ) ) ;
#986 = ORIENTED_EDGE ( 'NONE', *, *, #292, .F. ) ;
#987 = DIRECTION ( 'NONE',  ( -1.000000000000000000, 3.241712115390480395E-18, -0.000000000000000000 ) ) ;
#988 = CARTESIAN_POINT ( 'NONE',  ( 30.66549307413964698, 1.253777700105972628E-14, 0.000000000000000000 ) ) ;
#989 = CARTESIAN_POINT ( 'NONE',  ( 31.82574711198405026, 1.253401579148831632E-14, 0.000000000000000000 ) ) ;
#990 = AXIS2_PLACEMENT_3D ( 'NONE', #972, #828, #1030 ) ;
#991 = DIRECTION ( 'NONE',  ( -3.241712115390480395E-18, -1.000000000000000000, 0.000000000000000000 ) ) ;
#992 = ORIENTED_EDGE ( 'NONE', *, *, #105, .T. ) ;
#993 = ADVANCED_FACE ( 'NONE', ( #877 ), #689, .T. ) ;
#994 = CARTESIAN_POINT ( 'NONE',  ( 26.70491223658289570, -34.99999999999997158, 0.000000000000000000 ) ) ;
#995 = PERSON_AND_ORGANIZATION_ROLE ( 'creator' ) ;
#996 = ORIENTED_EDGE ( 'NONE', *, *, #693, .T. ) ;
#997 = DIRECTION ( 'NONE',  ( -1.000000000000000000, 0.000000000000000000, 0.000000000000000000 ) ) ;
#998 = DIRECTION ( 'NONE',  ( 1.000000000000000000, -3.241712115390480395E-18, 0.000000000000000000 ) ) ;
#999 = VERTEX_POINT ( 'NONE', #403 ) ;
#1000 = ADVANCED_FACE ( 'NONE', ( #219 ), #227, .F. ) ;
#1001 = ADVANCED_FACE ( 'NONE', ( #308 ), #971, .F. ) ;
#1002 = CARTESIAN_POINT ( 'NONE',  ( 32.41549307413965408, 26.74999999999999645, 0.000000000000000000 ) ) ;
#1003 = TOROIDAL_SURFACE ( 'NONE', #539, 31.99999999999998579, 5.000000000000000000 ) ;
#1004 = CARTESIAN_POINT ( 'NONE',  ( 26.70491223658290281, -29.99999999999997158, 0.000000000000000000 ) ) ;
#1005 = VERTEX_POINT ( 'NONE', #342 ) ;
#1006 = CIRCLE ( 'NONE', #672, 29.33012701892217677 ) ;
#1007 = AXIS2_PLACEMENT_3D ( 'NONE', #346, #93, #695 ) ;
#1008 = CARTESIAN_POINT ( 'NONE',  ( -26.28984872712181797, 28.03108891324553298, 0.000000000000000000 ) ) ;
#1009 = AXIS2_PLACEMENT_3D ( 'NONE', #918, #910, #431 ) ;
#1010 = EDGE_LOOP ( 'NONE', ( #158, #36, #830, #379 ) ) ;
#1011 = EDGE_CURVE ( 'NONE', #477, #958, #1057, .T. ) ;
#1012 = ORIENTED_EDGE ( 'NONE', *, *, #897, .T. ) ;
#1013 = CARTESIAN_POINT ( 'NONE',  ( -26.28984872712181797, -28.03108891324550456, 3.432818331422098823E-15 ) ) ;
#1014 = ORIENTED_EDGE ( 'NONE', *, *, #1046, .T. ) ;
#1015 = APPROVAL ( #172, 'UNSPECIFIED' ) ;
#1016 = ORIENTED_EDGE ( 'NONE', *, *, #693, .F. ) ;
#1017 = DIRECTION ( 'NONE',  ( 3.969952365870146765E-34, 1.224646799147353207E-16, 1.000000000000000000 ) ) ;
#1018 = ADVANCED_FACE ( 'NONE', ( #11 ), #128, .T. ) ;
#1019 = PERSON ( 'UNSPECIFIED', 'UNSPECIFIED', 'UNSPECIFIED', ('UNSPECIFIED'), ('UNSPECIFIED'), ('UNSPECIFIED') ) ;
#1020 = DIRECTION ( 'NONE',  ( 0.000000000000000000, 1.000000000000000000, 0.000000000000000000 ) ) ;
#1021 = TOROIDAL_SURFACE ( 'NONE', #955, 26.74999999999998224, 5.000000000000000000 ) ;
#1022 = FACE_BOUND ( 'NONE', #500, .T. ) ;
#1023 = DIRECTION ( 'NONE',  ( -1.000000000000000000, 3.241712115390480395E-18, -0.000000000000000000 ) ) ;
#1024 = CARTESIAN_POINT ( 'NONE',  ( -27.03984872712181797, 29.33012701892219098, 0.000000000000000000 ) ) ;
#1025 = CARTESIAN_POINT ( 'NONE',  ( -85.00000000000000000, -30.24999999999997158, 0.000000000000000000 ) ) ;
#1026 = CARTESIAN_POINT ( 'NONE',  ( -27.03984872712181797, -29.33012701892216256, 3.591904617230834552E-15 ) ) ;
#1027 = EDGE_LOOP ( 'NONE', ( #119, #534, #504, #469 ) ) ;
#1028 = EDGE_CURVE ( 'NONE', #616, #437, #866, .T. ) ;
#1029 = EDGE_CURVE ( 'NONE', #758, #682, #263, .T. ) ;
#1030 = DIRECTION ( 'NONE',  ( 0.000000000000000000, 1.000000000000000000, 0.000000000000000000 ) ) ;
#1031 = EDGE_CURVE ( 'NONE', #736, #126, #835, .T. ) ;
#1032 = ORIENTED_EDGE ( 'NONE', *, *, #292, .T. ) ;
#1033 = DIRECTION ( 'NONE',  ( -1.000000000000000000, 0.000000000000000000, 0.000000000000000000 ) ) ;
#1034 = ORIENTED_EDGE ( 'NONE', *, *, #278, .F. ) ;
#1035 = AXIS2_PLACEMENT_3D ( 'NONE', #988, #652, #568 ) ;
#1036 = CARTESIAN_POINT ( 'NONE',  ( 85.00000000000000000, -31.74999999999997158, 0.000000000000000000 ) ) ;
#1037 = PRODUCT_RELATED_PRODUCT_CATEGORY ( 'detail', '', ( #448 ) ) ;
#1038 = EDGE_CURVE ( 'NONE', #758, #532, #15, .T. ) ;
#1039 = AXIS2_PLACEMENT_3D ( 'NONE', #909, #402, #489 ) ;
#1040 = CARTESIAN_POINT ( 'NONE',  ( -85.00000000000000000, 30.00000000000000000, 3.673940397442057600E-15 ) ) ;
#1041 = DIRECTION ( 'NONE',  ( -1.000000000000000000, 3.241712115390480395E-18, -0.000000000000000000 ) ) ;
#1042 = ORIENTED_EDGE ( 'NONE', *, *, #471, .T. ) ;
#1043 = DIRECTION ( 'NONE',  ( 3.241712115390480395E-18, 1.000000000000000000, 0.000000000000000000 ) ) ;
#1044 = EDGE_CURVE ( 'NONE', #338, #559, #96, .T. ) ;
#1045 = CARTESIAN_POINT ( 'NONE',  ( -85.00000000000000000, 25.50000000000000000, 3.122849337825748645E-15 ) ) ;
#1046 = EDGE_CURVE ( 'NONE', #584, #814, #815, .T. ) ;
#1047 = DIRECTION ( 'NONE',  ( 0.000000000000000000, -1.000000000000000000, 0.000000000000000000 ) ) ;
#1048 = ORIENTED_EDGE ( 'NONE', *, *, #721, .T. ) ;
#1049 = CARTESIAN_POINT ( 'NONE',  ( 31.82574711198405026, -30.45096189432331713, 3.729167301484108775E-15 ) ) ;
#1050 = CARTESIAN_POINT ( 'NONE',  ( 85.00000000000000000, 1.236164017167439692E-14, 0.000000000000000000 ) ) ;
#1051 = CC_DESIGN_DATE_AND_TIME_ASSIGNMENT ( #357, #502, ( #479 ) ) ;
#1052 = FACE_OUTER_BOUND ( 'NONE', #820, .T. ) ;
#1053 = VERTEX_POINT ( 'NONE', #1004 ) ;
#1054 = CARTESIAN_POINT ( 'NONE',  ( -25.12959468927743245, 1.271864861304166971E-14, 0.000000000000000000 ) ) ;
#1055 = AXIS2_PLACEMENT_3D ( 'NONE', #415, #987, #981 ) ;
#1056 = CARTESIAN_POINT ( 'NONE',  ( -85.00000000000000000, 30.25000000000000000, 3.704556567420741387E-15 ) ) ;
#1057 = CIRCLE ( 'NONE', #592, 6.499999999999999112 ) ;
#1058 = DIRECTION ( 'NONE',  ( 0.000000000000000000, -1.000000000000000000, -1.224646799147353454E-16 ) ) ;
#1059 = CARTESIAN_POINT ( 'NONE',  ( -85.00000000000000000, 1.291273123129077766E-14, 0.000000000000000000 ) ) ;
#1060 = ORIENTED_EDGE ( 'NONE', *, *, #1031, .F. ) ;
#1061 = CARTESIAN_POINT ( 'NONE',  ( -85.00000000000000000, 1.291273123129077766E-14, 0.000000000000000000 ) ) ;
#1062 = EDGE_CURVE ( 'NONE', #436, #425, #30, .T. ) ;
#1063 = CARTESIAN_POINT ( 'NONE',  ( 29.20491223658291347, -30.66987298107777704, 3.781096992367450066E-15 ) ) ;
#1064 = DIRECTION ( 'NONE',  ( 0.000000000000000000, 1.000000000000000000, 0.000000000000000000 ) ) ;
#1065 = EDGE_LOOP ( 'NONE', ( #309, #551, #894, #908 ) ) ;
ENDSEC;
END-ISO-10303-21;
